<?xml version="1.0" encoding="UTF-8" standalone="no"?>
<!-- Created with Inkscape (http://www.inkscape.org/) -->

<svg
   width="144.97209mm"
   height="116.69236mm"
   viewBox="0 0 144.97209 116.69236"
   version="1.1"
   id="svg5"
   inkscape:version="1.1.1 (c3084ef, 2021-09-22)"
   sodipodi:docname="git_branches copy 6.svg"
   xmlns:inkscape="http://www.inkscape.org/namespaces/inkscape"
   xmlns:sodipodi="http://sodipodi.sourceforge.net/DTD/sodipodi-0.dtd"
   xmlns="http://www.w3.org/2000/svg"
   xmlns:svg="http://www.w3.org/2000/svg">
  <sodipodi:namedview
     id="namedview7"
     pagecolor="#ffffff"
     bordercolor="#666666"
     borderopacity="1.0"
     inkscape:pageshadow="2"
     inkscape:pageopacity="0.0"
     inkscape:pagecheckerboard="0"
     inkscape:document-units="mm"
     showgrid="false"
     inkscape:zoom="0.51580387"
     inkscape:cx="739.62221"
     inkscape:cy="-90.150545"
     inkscape:window-width="2560"
     inkscape:window-height="1387"
     inkscape:window-x="0"
     inkscape:window-y="25"
     inkscape:window-maximized="1"
     inkscape:current-layer="layer1" />
  <defs
     id="defs2" />
  <g
     inkscape:label="Layer 1"
     inkscape:groupmode="layer"
     id="layer1"
     transform="translate(-18.100545,-142.74442)">
    <path
       style="fill:#00a500;fill-opacity:0.510121;stroke-width:0.250498"
       d="m 37.69866,259.33364 c -0.9644,-0.10474 -2.88071,-0.26835 -4.25846,-0.36398 -6.14775,-0.42595 -9.73693,-1.31085 -11.30134,-2.78629 -1.41249,-1.33216 -1.04899,-2.68704 0.78043,-2.90899 0.27545,-0.0334 1.0646,0.12722 1.75349,0.35681 2.21969,0.7401 3.40906,0.92925 8.9308,1.42029 4.53003,0.40285 6.88303,0.46294 14.27838,0.36468 4.87001,-0.0648 9.98179,-0.23935 11.35954,-0.38782 1.37772,-0.14852 2.8279,-0.30305 3.22255,-0.3432 0.81919,-0.0834 4.93084,-1.01694 10.05383,-2.28276 4.04553,-0.99961 10.12189,-2.98882 13.02591,-4.26432 1.10218,-0.48409 2.34215,-1.02866 2.75547,-1.21014 0.41332,-0.18136 1.46035,-0.62572 2.32676,-0.9873 0.86641,-0.36154 2.48644,-1.16132 3.6001,-1.77734 1.11363,-0.61599 2.10649,-1.11999 2.20631,-1.11999 0.23492,0 1.84844,-0.79173 2.012,-0.98721 0.0689,-0.0822 1.252483,-0.71933 2.63022,-1.41556 4.05975,-2.05146 11.17237,-6.08364 12.53077,-7.10372 0.69209,-0.51971 1.87569,-1.52325 2.63023,-2.23013 0.75454,-0.70682 1.4855,-1.28606 1.62438,-1.28721 0.27989,-0.003 2.68076,-1.23595 2.87873,-1.47923 0.0689,-0.0846 0.57616,-0.4849 1.12724,-0.88943 0.5511,-0.4045 1.23366,-0.97777 1.5168,-1.27393 0.28314,-0.29613 0.69519,-0.64084 0.91564,-0.76605 0.38912,-0.22101 3.33063,-2.8229 4.67039,-4.13115 2.97778,-2.90783 9.57731,-11.43241 12.20086,-15.75974 2.15746,-3.55862 3.41178,-5.74032 4.03297,-7.01478 1.62844,-3.34084 3.77144,-9.02355 4.62885,-12.27441 0.27249,-1.03331 0.70907,-2.61144 0.97014,-3.50696 0.26095,-0.89553 0.53007,-2.10809 0.59779,-2.69455 0.0677,-0.5865 0.17959,-1.15793 0.24882,-1.26991 0.0692,-0.11184 0.1935,-0.75933 0.27604,-1.43867 0.0826,-0.6793 0.21184,-1.62962 0.28729,-2.11181 0.64099,-4.10127 0.36012,-10.69554 -0.57611,-13.52689 -0.0888,-0.26806 -0.2358,-0.16066 -0.51377,0.37574 -0.84418,1.62879 -2.31895,2.401 -3.58436,1.87687 -0.40731,-0.16864 -0.679,-0.40642 -0.60374,-0.5282 0.0751,-0.1219 0.0207,-0.22131 -0.12071,-0.22131 -0.14142,0 -0.19645,-0.15888 -0.12189,-0.35311 0.0814,-0.21214 -0.0713,-0.41877 -0.38303,-0.5177 -1.34437,-0.42667 -0.58466,-2.71728 1.91172,-5.76405 1.24503,-1.5195 1.29784,-1.64385 1.16361,-2.73991 -0.13788,-1.1265 -0.12575,-1.15111 0.64604,-1.3055 0.94683,-0.18935 1.34778,-0.83892 1.44784,-2.34563 0.0559,-0.84265 0.23255,-1.25609 0.69996,-1.63764 0.34379,-0.28077 0.62507,-0.68534 0.62507,-0.89913 0,-0.9623 2.75733,-1.17774 3.22737,-0.25207 0.1142,0.22515 0.34637,1.14191 0.51572,2.03743 0.32696,1.72933 1.46396,5.45715 1.80006,5.9018 0.23433,0.30983 1.71918,3.90878 1.72042,4.16964 0.001,0.27308 1.15301,1.90681 2.12848,3.01962 0.48308,0.55116 0.87836,1.20366 0.87836,1.44999 0,0.7736 -0.28729,1.24032 -0.76351,1.24032 -0.25267,0 -0.52942,0.11332 -0.61498,0.25178 -0.0855,0.13847 -0.67596,0.22309 -1.31201,0.18788 -1.02011,-0.0565 -1.23236,-0.17338 -1.80057,-0.99372 -0.35426,-0.51143 -0.77123,-0.93416 -0.92658,-0.93937 -0.15533,-0.006 -0.42276,-0.1787 -0.59428,-0.38527 -0.58545,-0.7054 -0.6743,-0.37622 -0.35506,1.31511 0.5167,2.73736 0.67202,6.91064 0.36474,9.79942 -0.39314,3.69582 -1.96673,11.47487 -2.69221,13.30902 -0.0817,0.20681 -0.17486,0.49439 -0.20652,0.63939 -0.0319,0.14498 -0.45758,1.49772 -0.94596,3.00598 -3.06799,9.47468 -7.56331,17.43025 -15.27938,27.04064 -3.74501,4.66441 -9.19761,10.00845 -11.32102,11.0956 -0.55111,0.28226 -1.73471,1.19529 -2.63023,2.02919 -1.83211,1.706 -9.10053,6.66143 -12.14914,8.28297 -1.10221,0.58622 -2.08682,1.19461 -2.18803,1.35195 -0.10119,0.1574 -0.1858,0.1932 -0.18788,0.0799 -0.002,-0.11332 -0.59563,0.12722 -1.31896,0.53492 -0.72329,0.40767 -2.10418,1.16766 -3.06858,1.68888 -0.96442,0.52122 -2.2044,1.20899 -2.7555,1.52843 -0.55108,0.31942 -1.17107,0.65578 -1.37773,0.74747 -0.20681,0.0917 -2.68659,1.28793 -5.51097,2.65825 -5.11297,2.4807 -9.49814,4.25499 -14.02787,5.67585 -3.80934,1.19488 -9.33942,2.81429 -10.01993,2.9342 -0.34445,0.0606 -1.52805,0.32782 -2.63023,0.59365 -3.07338,0.74117 -6.89632,1.22005 -10.89666,1.36497 -6.97579,0.25266 -18.42557,0.3366 -20.1651,0.14763 z"
       id="path901-5"
       sodipodi:nodetypes="ccsscssssssssssssssssssssssssssscssssssssssssssssssssssscsssscsssssssssssssssscc" />
    <path
       style="fill:#000000;stroke-width:0.250498"
       d="m 34.523478,255.10047 c -0.9644,-0.10474 -2.88071,-0.26835 -4.25846,-0.36398 -6.14775,-0.42595 -9.73693,-1.31085 -11.30134,-2.78629 -1.41249,-1.33216 -1.04899,-2.68704 0.78043,-2.90899 0.27545,-0.0334 1.0646,0.12722 1.75349,0.35681 2.21969,0.7401 3.40906,0.92925 8.9308,1.42029 4.53003,0.40285 6.88303,0.46294 14.27838,0.36468 4.87001,-0.0648 9.98179,-0.23935 11.35954,-0.38782 1.37772,-0.14852 2.8279,-0.30305 3.22255,-0.3432 0.81919,-0.0834 4.93084,-1.01694 10.05383,-2.28276 4.04553,-0.99961 10.12189,-2.98882 13.02591,-4.26432 1.10218,-0.48409 2.34215,-1.02866 2.75547,-1.21014 0.41332,-0.18136 1.46035,-0.62572 2.32676,-0.9873 0.86641,-0.36154 2.48644,-1.16132 3.6001,-1.77734 1.11363,-0.61599 2.10649,-1.11999 2.20631,-1.11999 0.23492,0 1.84844,-0.79173 2.012,-0.98721 0.0689,-0.0822 1.25248,-0.71933 2.63022,-1.41556 4.059732,-2.05146 11.172352,-6.08364 12.530752,-7.10372 0.69209,-0.51971 1.87569,-1.52325 2.63023,-2.23013 0.75454,-0.70682 1.4855,-1.28606 1.62438,-1.28721 0.27989,-0.003 2.68076,-1.23595 2.87873,-1.47923 0.0689,-0.0846 0.57616,-0.4849 1.12724,-0.88943 0.5511,-0.4045 1.23366,-0.97777 1.5168,-1.27393 0.28314,-0.29613 0.69519,-0.64084 0.91564,-0.76605 0.38912,-0.22101 3.33063,-2.8229 4.67039,-4.13115 2.97778,-2.90783 9.57731,-11.43241 12.20086,-15.75974 2.15746,-3.55862 3.41178,-5.74032 4.03297,-7.01478 1.62844,-3.34084 3.77144,-9.02355 4.62885,-12.27441 0.27249,-1.03331 0.70907,-2.61144 0.97014,-3.50696 0.26095,-0.89553 0.53007,-2.10809 0.59779,-2.69455 0.0677,-0.5865 0.17959,-1.15793 0.24882,-1.26991 0.0692,-0.11184 0.1935,-0.75933 0.27604,-1.43867 0.0826,-0.6793 0.21184,-1.62962 0.28729,-2.11181 0.64099,-4.10127 0.36012,-10.69554 -0.57611,-13.52689 -0.0888,-0.26806 -0.2358,-0.16066 -0.51377,0.37574 -0.84418,1.62879 -2.31895,2.401 -3.58436,1.87687 -0.40731,-0.16864 -0.679,-0.40642 -0.60374,-0.5282 0.0751,-0.1219 0.0207,-0.22131 -0.12071,-0.22131 -0.14142,0 -0.19645,-0.15888 -0.12189,-0.35311 0.0814,-0.21214 -0.0713,-0.41877 -0.38303,-0.5177 -1.34437,-0.42667 -0.58466,-2.71728 1.91172,-5.76405 1.24503,-1.5195 1.29784,-1.64385 1.16361,-2.73991 -0.13788,-1.1265 -0.12575,-1.15111 0.64604,-1.3055 0.94683,-0.18935 1.34778,-0.83892 1.44784,-2.34563 0.0559,-0.84265 0.23255,-1.25609 0.69996,-1.63764 0.34379,-0.28077 0.62507,-0.68534 0.62507,-0.89913 0,-0.9623 2.75733,-1.17774 3.22737,-0.25207 0.1142,0.22515 0.34637,1.14191 0.51572,2.03743 0.32696,1.72933 1.46396,5.45715 1.80006,5.9018 0.23433,0.30983 1.71918,3.90878 1.72042,4.16964 0.001,0.27308 1.15301,1.90681 2.12848,3.01962 0.48308,0.55116 0.87836,1.20366 0.87836,1.44999 0,0.7736 -0.28729,1.24032 -0.76351,1.24032 -0.25267,0 -0.52942,0.11332 -0.61498,0.25178 -0.0855,0.13847 -0.67596,0.22309 -1.31201,0.18788 -1.02011,-0.0565 -1.23236,-0.17338 -1.80057,-0.99372 -0.35426,-0.51143 -0.77123,-0.93416 -0.92658,-0.93937 -0.15533,-0.006 -0.42276,-0.1787 -0.59428,-0.38527 -0.58545,-0.7054 -0.6743,-0.37622 -0.35506,1.31511 0.5167,2.73736 0.67202,6.91064 0.36474,9.79942 -0.39314,3.69582 -1.96673,11.47487 -2.69221,13.30902 -0.0817,0.20681 -0.17486,0.49439 -0.20652,0.63939 -0.0319,0.14498 -0.45758,1.49772 -0.94596,3.00598 -3.06799,9.47468 -7.56331,17.43025 -15.27938,27.04064 -3.74501,4.66441 -9.19761,10.00845 -11.32102,11.0956 -0.55111,0.28226 -1.73471,1.19529 -2.63023,2.02919 -1.83211,1.706 -9.10053,6.66143 -12.14914,8.28297 -1.10221,0.58622 -2.08682,1.19461 -2.18803,1.35195 -0.10119,0.1574 -0.1858,0.1932 -0.18788,0.0799 -0.002,-0.11332 -0.59563,0.12722 -1.31896,0.53492 -0.72329,0.40767 -2.10418,1.16766 -3.06858,1.68888 -0.96442,0.52122 -2.204392,1.20899 -2.755492,1.52843 -0.55108,0.31942 -1.17106,0.65578 -1.37772,0.74747 -0.20681,0.0917 -2.68659,1.28793 -5.51097,2.65825 -5.11297,2.4807 -9.49814,4.25499 -14.02787,5.67585 -3.80934,1.19488 -9.33942,2.81429 -10.01993,2.9342 -0.34445,0.0606 -1.52805,0.32782 -2.63023,0.59365 -3.07338,0.74117 -6.89632,1.22005 -10.89666,1.36497 -6.97579,0.25266 -18.42557,0.3366 -20.1651,0.14763 z"
       id="path901"
       sodipodi:nodetypes="ccsscssssssssssssssssssssssssssscssssssssssssssssssssssscsssscsssssssssssssssscc" />
    <path
       style="fill:#000000;stroke-width:0.0846667"
       id="path881"
       d="" />
  </g>
</svg>
