<?xml version="1.0" encoding="UTF-8" standalone="no"?>
<!-- Created with Inkscape (http://www.inkscape.org/) -->

<svg
   width="12.256378mm"
   height="72.667717mm"
   viewBox="0 0 12.256378 72.667717"
   version="1.1"
   id="svg5"
   sodipodi:docname="datalad copy 2.svg"
   inkscape:version="1.1.1 (c3084ef, 2021-09-22)"
   xmlns:inkscape="http://www.inkscape.org/namespaces/inkscape"
   xmlns:sodipodi="http://sodipodi.sourceforge.net/DTD/sodipodi-0.dtd"
   xmlns="http://www.w3.org/2000/svg"
   xmlns:svg="http://www.w3.org/2000/svg">
  <sodipodi:namedview
     id="namedview7"
     pagecolor="#ffffff"
     bordercolor="#666666"
     borderopacity="1.0"
     inkscape:pageshadow="2"
     inkscape:pageopacity="0.0"
     inkscape:pagecheckerboard="0"
     inkscape:document-units="mm"
     showgrid="false"
     inkscape:zoom="0.39989688"
     inkscape:cx="-418.85798"
     inkscape:cy="-706.43211"
     inkscape:window-width="1606"
     inkscape:window-height="1319"
     inkscape:window-x="0"
     inkscape:window-y="25"
     inkscape:window-maximized="0"
     inkscape:current-layer="layer1" />
  <defs
     id="defs2" />
  <g
     inkscape:label="Layer 1"
     inkscape:groupmode="layer"
     id="layer1"
     transform="translate(-400.71616,-142.47112)">
    <path
       style="fill:#000000;stroke-width:0.159288"
       d="m 406.09836,214.94188 c -0.11665,-0.11645 -0.29013,-0.18588 -0.3857,-0.15389 -0.0956,0.0318 -0.27415,-0.063 -0.3968,-0.21085 -0.17741,-0.21383 -0.21455,-0.89078 -0.18155,-3.31055 0.0228,-1.67294 0.0694,-11.78666 0.10366,-22.47491 0.0342,-10.68824 0.10912,-23.01715 0.1665,-27.39757 0.0574,-4.38044 0.0421,-8.28698 -0.0337,-8.68122 l -0.13809,-0.7168 -0.34506,0.63716 c -0.67733,1.2508 -1.63411,1.96431 -2.31151,1.72382 -0.19273,-0.0685 -0.42211,-0.1285 -0.50972,-0.13358 -0.30264,-0.0169 -1.03537,-0.5922 -1.03537,-0.81209 0,-0.12135 -0.0717,-0.22063 -0.15935,-0.22063 -0.30149,0 -0.15822,-0.43354 0.37422,-1.13191 0.47478,-0.62286 1.25904,-2.02363 2.66594,-4.76174 0.76899,-1.49656 1.10758,-2.3659 1.28947,-3.31055 0.0965,-0.50081 0.23831,-0.98005 0.31522,-1.06496 0.19308,-0.21308 1.37021,-0.54721 1.49349,-0.42394 0.0553,0.0553 0.14825,0.10328 0.20663,0.10648 0.0583,0.004 0.30853,0.0598 0.55583,0.1253 0.57254,0.15201 0.98374,1.04049 1.23325,2.66491 0.10009,0.65219 0.23673,1.25749 0.30344,1.34509 0.0668,0.0877 0.16161,0.33849 0.21098,0.55752 0.1712,0.76075 0.75343,2.28896 0.96662,2.53754 0.19547,0.22791 0.73166,1.23285 1.19572,2.24111 0.10084,0.21901 0.1978,0.59018 0.21549,0.82477 0.0169,0.23462 0.0796,0.39732 0.13734,0.36158 0.15483,-0.0956 0.94312,1.73686 0.93719,2.17861 -0.0132,1.00368 -0.94826,1.28406 -2.20594,0.66165 -0.64514,-0.31928 -0.91092,-0.57492 -1.25502,-1.20711 -0.2401,-0.44115 -0.4399,-0.84383 -0.44402,-0.89487 -0.004,-0.051 -0.15935,-0.41539 -0.34474,-0.80963 l -0.33721,-0.71679 -0.038,4.8583 c -0.0209,2.67205 -0.0487,16.50624 -0.0621,30.74262 -0.0197,21.2225 -0.0623,25.9618 -0.23656,26.31445 -0.32243,0.65247 -1.51344,0.98989 -1.95067,0.55264 z m 0.82629,-8.54894 c 0,-0.0877 -0.0316,-0.15935 -0.0702,-0.15935 -0.0386,0 -0.11457,0.0717 -0.16875,0.15935 -0.0542,0.0877 -0.0226,0.15935 0.0702,0.15935 0.0927,0 0.16876,-0.0717 0.16876,-0.15935 z m 5.4158,-51.45009 c 0,-0.0877 -0.076,-0.15936 -0.16875,-0.15936 -0.0927,0 -0.12436,0.0717 -0.0702,0.15936 0.0542,0.0877 0.13,0.15935 0.16876,0.15935 0.0386,0 0.0702,-0.0717 0.0702,-0.15935 z"
       id="path836"
       sodipodi:nodetypes="scssssccsscsssssssccsscsscccsscscsssssssssssssss" />
  </g>
</svg>
