<?xml version="1.0" encoding="UTF-8" standalone="no"?>
<!-- Created with Inkscape (http://www.inkscape.org/) -->

<svg
   width="62.178295mm"
   height="83.212967mm"
   viewBox="0 0 62.178295 83.212967"
   version="1.1"
   id="svg5"
   inkscape:version="1.1.1 (c3084ef, 2021-09-22)"
   sodipodi:docname="music copy 2.svg"
   xmlns:inkscape="http://www.inkscape.org/namespaces/inkscape"
   xmlns:sodipodi="http://sodipodi.sourceforge.net/DTD/sodipodi-0.dtd"
   xmlns="http://www.w3.org/2000/svg"
   xmlns:svg="http://www.w3.org/2000/svg">
  <sodipodi:namedview
     id="namedview7"
     pagecolor="#ffffff"
     bordercolor="#666666"
     borderopacity="1.0"
     inkscape:pageshadow="2"
     inkscape:pageopacity="0.0"
     inkscape:pagecheckerboard="0"
     inkscape:document-units="mm"
     showgrid="false"
     inkscape:zoom="0.51580387"
     inkscape:cx="129.89433"
     inkscape:cy="289.83885"
     inkscape:window-width="1946"
     inkscape:window-height="1223"
     inkscape:window-x="0"
     inkscape:window-y="25"
     inkscape:window-maximized="0"
     inkscape:current-layer="layer1" />
  <defs
     id="defs2" />
  <g
     inkscape:label="Layer 1"
     inkscape:groupmode="layer"
     id="layer1"
     transform="translate(-64.730762,-77.882491)">
    <path
       style="fill:#000000;stroke-width:0.204318"
       d="m 94.375961,160.91016 c -0.36359,-0.12988 -0.85738,-0.44689 -1.0973,-0.70443 -0.37021,-0.39736 -0.40096,-0.54575 -0.20319,-0.98001 0.20101,-0.44145 0.1431,-0.67055 -0.42159,-1.66772 -0.36012,-0.63578 -0.70678,-1.20194 -0.77041,-1.25813 -0.0637,-0.0562 -0.29953,-0.46316 -0.52427,-0.90441 -0.22467,-0.44122 -0.50496,-0.90094 -0.62266,-1.02159 -0.11776,-0.12063 -0.52767,-0.67905 -0.911,-1.24092 -0.38332,-0.56187 -0.77351,-1.11353 -0.86709,-1.2259 -0.0936,-0.11239 -0.73342,-0.98584 -1.42178,-1.94102 -1.17489,-1.63025 -3.09119,-3.93886 -4.24803,-5.11765 -2.08308,-2.12265 -4.29067,-4.71524 -4.29067,-5.03898 0,-0.0981 -0.2988,-0.50262 -0.66402,-0.89885 -1.24229,-1.3478 -2.19642,-2.51499 -2.19642,-2.6869 0,-0.0943 -0.33126,-0.51169 -0.73612,-0.92754 -1.0169,-1.04441 -1.52666,-1.79346 -1.35209,-1.9867 0.0811,-0.0896 0.0285,-0.0945 -0.11632,-0.0109 -0.16603,0.0958 -0.43063,-0.0618 -0.7151,-0.4259 -0.24837,-0.31786 -1.01523,-1.17605 -1.70425,-1.90706 -0.68897,-0.73103 -1.70034,-1.91452 -2.24749,-2.63 -0.54712,-0.71546 -1.79928,-2.10811 -2.78256,-3.09474 -1.93727,-1.94389 -2.10528,-2.35443 -1.29497,-3.16475 0.31733,-0.31733 0.53949,-0.83674 0.62384,-1.45862 0.14623,-1.0778 0.79481,-1.84415 1.80649,-2.13431 0.33032,-0.0947 1.34777,-0.17239 2.26103,-0.17261 0.91327,-1.9e-4 2.38112,-0.14129 3.26192,-0.31353 0.88079,-0.17223 2.59283,-0.31315 3.8046,-0.31315 h 2.20315 l 0.13949,-1.78778 c 0.0767,-0.98328 0.18726,-5.7873 0.24547,-10.67559 0.0584,-4.8883 0.11318,-9.163647 0.1221,-9.500771 0.01,-0.337124 -0.057,-2.911525 -0.14599,-5.720892 -0.29145,-9.182272 -0.29536,-8.90291 0.12983,-9.266987 0.2085,-0.178529 0.37909,-0.569417 0.37909,-0.868641 0,-0.672571 0.74104,-1.204064 1.67842,-1.20383 0.36918,9.2e-5 1.31481,0.132485 2.10144,0.29423 1.81688,0.373561 6.16495,0.545709 7.76406,0.307393 0.67425,-0.100486 2.69699,-0.28059 4.495,-0.400234 1.798,-0.119646 4.004629,-0.347368 4.903619,-0.506048 0.89899,-0.158692 2.47502,-0.345944 3.50225,-0.416134 1.64264,-0.112238 1.96806,-0.07643 2.70037,0.297168 1.24017,0.632678 1.40216,1.085139 0.99291,2.773109 -0.0545,0.224741 -0.16144,1.098209 -0.23746,1.941019 -0.1209,1.338336 -0.24429,2.476198 -0.62562,5.77197 -0.0596,0.514342 -0.007,0.767218 0.16072,0.769318 0.18871,0.0024 0.1863,0.04315 -0.01,0.167476 -0.1781,0.11301 -0.26529,0.795171 -0.27931,2.183251 -0.0121,1.110385 -0.11897,2.176843 -0.23963,2.369901 -0.16144,0.258423 -0.14841,0.436217 0.049,0.674065 0.19571,0.235721 0.20247,0.323067 0.0251,0.323067 -0.13369,0 -0.19789,0.160888 -0.14238,0.357556 0.27124,0.963398 0.36241,1.726382 0.19378,1.622199 -0.10498,-0.06484 -0.15421,0.33175 -0.11366,0.91377 0.0393,0.565591 -0.0454,1.548053 -0.18823,2.183255 -0.14311,0.6352 -0.22805,1.29282 -0.18872,1.46138 0.0391,0.16856 0.0939,2.32922 0.12139,4.80146 0.0478,4.28129 0.13514,5.9938 0.43102,8.446 0.13128,1.08916 0.13248,1.09042 0.76979,0.97695 2.95757,-0.52657 14.6779,-0.48912 14.34729,0.0458 -0.0456,0.0738 0.39101,0.13818 0.97025,0.1431 2.50531,0.0212 3.45034,0.47818 3.65991,1.76945 0.11269,0.69405 0.0676,0.78474 -0.57934,1.16645 -0.84136,0.49639 -1.78106,0.51034 -3.55981,0.0529 -1.0654,-0.27403 -2.27762,-0.33912 -6.12953,-0.32924 -2.64078,0.007 -5.12324,0.0794 -5.51657,0.1612 -1.42439,0.29647 -4.98521,0.36173 -5.82303,0.10672 -0.97867,-0.29788 -1.95428,-1.1317 -1.79867,-1.53725 0.0613,-0.15985 -0.0217,-0.44809 -0.18582,-0.64056 -0.53431,-0.62889 -0.80811,-4.39803 -0.79942,-11.0056 0.005,-3.4665 0.0521,-6.624509 0.1057,-7.017819 0.0536,-0.393311 0.11511,-2.829798 0.13683,-5.414416 0.0217,-2.584617 0.11149,-5.342904 0.19957,-6.129527 0.49229,-4.394786 0.63078,-5.865561 0.55902,-5.93731 -0.0439,-0.04397 -0.62621,0.0055 -1.29389,0.110041 -0.66766,0.104492 -2.730969,0.294522 -4.585149,0.422274 -1.85418,0.127755 -4.29067,0.300632 -5.41442,0.384182 -1.12376,0.08354 -2.20408,0.07191 -2.40073,-0.02589 -0.22177,-0.110332 -0.35756,-0.09947 -0.35756,0.02862 0,0.113517 -0.25286,0.166632 -0.56187,0.118006 -0.30903,-0.0486 -1.29743,-0.132919 -2.19642,-0.187337 -0.89899,-0.05442 -2.03573,-0.163663 -2.52604,-0.242794 l -0.89151,-0.143851 0.13997,3.860769 c 0.077,2.123423 0.1863,4.780198 0.24315,5.903946 0.0567,1.123747 0.0828,4.70952 0.0582,7.968384 -0.0615,8.064252 -0.061,8.889432 0.007,11.237462 0.0902,3.14641 -0.01,5.40365 -0.29851,6.67295 -0.14407,0.63602 -0.18678,1.23365 -0.0948,1.32807 0.0919,0.0944 0.0403,0.4705 -0.11463,0.83572 -0.21526,0.50722 -0.4169,0.67159 -0.8536,0.69601 -0.31446,0.0176 -0.84758,0.0592 -1.18471,0.0924 -0.33712,0.0332 -1.3698,0.0694 -2.29485,0.0804 -0.92506,0.0111 -2.16628,0.14269 -2.75829,0.2927 -1.3309,0.33721 -2.47406,0.49931 -4.42441,0.62742 -1.1169,0.0734 -1.5799,0.19233 -1.78128,0.45763 -0.32646,0.43011 -0.36398,1.00075 -0.0775,1.17783 0.11414,0.0706 0.146,0.22812 0.0707,0.3501 -0.0753,0.12199 -0.0439,0.16414 0.07,0.0937 0.21815,-0.13483 1.28619,0.93557 1.28619,1.28904 0,0.11335 0.0763,0.20609 0.16964,0.20609 0.0934,0 0.47251,0.42167 0.84262,0.93706 0.37011,0.51537 1.69855,1.96347 2.95212,3.218 2.17496,2.17668 4.20828,4.44154 4.20828,4.68751 0,0.0632 0.39074,0.5092 0.86834,0.99098 0.47759,0.48177 1.10592,1.24967 1.39628,1.70646 0.29038,0.4568 0.96436,1.30431 1.49777,1.88336 0.53342,0.57906 0.93944,1.09098 0.9023,1.1376 -0.0372,0.0466 0.25425,0.40594 0.64756,0.79854 2.69397,2.68894 5.98159,6.34038 6.84463,7.60204 0.56188,0.8214 1.38911,2.03631 1.8383,2.69983 0.44917,0.6635 0.87058,1.25235 0.93649,1.30854 0.0659,0.0562 0.43616,0.5758 0.82283,1.15472 0.61655,0.92312 0.74635,1.02085 1.0556,0.79473 0.19378,-0.1418 0.35257,-0.39617 0.35257,-0.56528 0,-0.16912 0.18702,-0.54518 0.41551,-0.8357 0.22853,-0.29052 0.53085,-0.73966 0.67183,-0.99806 0.80509,-1.47539 1.63132,-2.60065 1.82274,-2.48233 0.12114,0.0749 0.15879,0.039 0.0845,-0.0811 -0.18726,-0.30284 3.370369,-5.97386 4.590849,-7.31821 0.21067,-0.23198 0.38295,-0.49851 0.38295,-0.5923 0,-0.0938 0.32165,-0.4829 0.71479,-0.86471 0.39311,-0.38181 0.86071,-0.97639 1.03907,-1.32132 0.17834,-0.34493 0.49929,-0.6729 0.71315,-0.72882 0.21381,-0.0559 0.35153,-0.16205 0.30595,-0.23582 -0.0456,-0.0737 0.41514,-0.67786 1.02387,-1.34243 0.60873,-0.66458 1.10679,-1.26991 1.10679,-1.34518 0,-0.0753 0.20681,-0.36759 0.45971,-0.64957 0.82568,-0.92084 1.99599,-2.29551 2.35531,-2.76666 0.19354,-0.25375 0.61023,-0.8054 0.92599,-1.22591 2.74087,-3.65003 4.29407,-5.54142 4.56143,-5.55458 0.12766,-0.006 0.37938,-0.23647 0.55962,-0.51157 0.18027,-0.27509 0.84976,-0.98765 1.48779,-1.58346 0.63803,-0.59581 1.39756,-1.32655 1.68786,-1.62389 0.72652,-0.74413 2.04596,-1.60473 2.46024,-1.60473 0.18871,0 0.81819,0.1411 1.3989,0.31354 1.41091,0.419 1.77735,1.04654 1.27123,2.177 -0.42868,0.95748 -1.33414,2.00444 -1.73352,2.00444 -0.16217,0 -0.36831,0.11825 -0.45815,0.26276 -0.29511,0.47452 -1.33071,1.16467 -1.54703,1.03096 -0.11752,-0.0726 -0.15106,-0.0326 -0.0755,0.0897 0.0751,0.12136 -0.52268,0.91884 -1.32818,1.77217 -0.8055,0.85333 -2.26092,2.53816 -3.23422,3.74402 -0.97331,1.20588 -1.88533,2.16726 -2.0267,2.13637 -0.14141,-0.0309 -0.19957,0.0369 -0.12935,0.1506 0.0702,0.11371 -0.0608,0.40915 -0.29129,0.65654 -0.23046,0.24739 -0.41905,0.56273 -0.41905,0.70072 0,0.13801 -0.069,0.28157 -0.15324,0.31905 -0.0842,0.0375 -0.48588,0.48184 -0.89243,0.98752 -0.40655,0.50569 -1.09612,1.29779 -1.53238,1.76022 -1.70652,1.80889 -3.35302,3.76079 -4.11658,4.8801 -0.30662,0.4495 -0.61691,0.86325 -0.68955,0.91943 -0.15734,0.12168 -2.42307,3.47406 -2.42307,3.58506 0,0.0423 -0.50568,0.81952 -1.12375,1.7272 -0.61805,0.90768 -1.12373,1.68813 -1.12373,1.73435 0,0.0862 -0.60335,0.97088 -2.28388,3.34907 -0.52569,0.74392 -1.206739,1.88555 -1.513459,2.53693 -0.30674,0.65139 -0.65813,1.146 -0.78091,1.09913 -0.12525,-0.0478 -0.23215,0.1605 -0.24364,0.47471 -0.0121,0.30795 -0.26405,0.87936 -0.56186,1.26979 -0.29782,0.39045 -0.54148,0.80489 -0.54148,0.92098 0,0.65378 -1.8224,1.00533 -3.01068,0.58076 z m 28.141749,-42.20472 c 0,-0.11238 -0.0973,-0.20433 -0.21647,-0.20433 -0.11897,0 -0.15951,0.0919 -0.09,0.20433 0.0695,0.11238 0.16675,0.20433 0.21646,0.20433 0.0495,0 0.09,-0.0919 0.09,-0.20433 z"
       id="path836"
       sodipodi:nodetypes="csssssssssssssssssssssssssscscccsssssssssscssscssscssccccssssssssssccsscssssssssscsccccsssssssssssssssssssscssssssscscsssssssscsssssssssssssssssssssssssssssscssccsssss" />
  </g>
</svg>
