<?xml version="1.0" encoding="UTF-8" standalone="no"?>
<!-- Created with Inkscape (http://www.inkscape.org/) -->

<svg
   width="99.21727mm"
   height="146.19109mm"
   viewBox="0 0 99.21727 146.19109"
   version="1.1"
   id="svg5"
   inkscape:version="1.1.1 (c3084ef, 2021-09-22)"
   sodipodi:docname="arrows_1to3.svg"
   xmlns:inkscape="http://www.inkscape.org/namespaces/inkscape"
   xmlns:sodipodi="http://sodipodi.sourceforge.net/DTD/sodipodi-0.dtd"
   xmlns="http://www.w3.org/2000/svg"
   xmlns:svg="http://www.w3.org/2000/svg">
  <sodipodi:namedview
     id="namedview7"
     pagecolor="#ffffff"
     bordercolor="#666666"
     borderopacity="1.0"
     inkscape:pageshadow="2"
     inkscape:pageopacity="0.0"
     inkscape:pagecheckerboard="0"
     inkscape:document-units="mm"
     showgrid="false"
     inkscape:zoom="0.51580387"
     inkscape:cx="389.683"
     inkscape:cy="760.94815"
     inkscape:window-width="1946"
     inkscape:window-height="1223"
     inkscape:window-x="0"
     inkscape:window-y="25"
     inkscape:window-maximized="0"
     inkscape:current-layer="layer1" />
  <defs
     id="defs2" />
  <g
     inkscape:label="Layer 1"
     inkscape:groupmode="layer"
     id="layer1"
     transform="translate(-18.688059,-73.261772)">
    <path
       style="fill:#009400;fill-opacity:0.537838;stroke-width:0.164148"
       d="m 102.89143,219.29922 c -0.67729,-0.28479 -0.81021,-0.47384 -0.81347,-1.15704 -0.002,-0.41966 0.13339,-0.63492 0.67095,-1.06695 0.37042,-0.29768 0.72128,-0.54749 0.77971,-0.55517 0.0584,-0.008 0.43863,-0.17216 0.84489,-0.36573 0.40627,-0.19348 0.86359,-0.35341 1.01625,-0.35537 0.15258,-0.002 0.32323,-0.0776 0.37902,-0.1677 0.12912,-0.2089 0.14948,-0.20949 -2.8726,0.0836 -2.38786,0.2315 -8.702221,0.33346 -10.341321,0.16692 -5.89141,-0.59837 -10.01816,-1.89579 -13.54496,-4.25841 -0.63049,-0.42236 -1.47726,-1.00232 -1.88171,-1.28879 -0.8369,-0.59277 -2.91665,-2.61161 -4.42797,-4.29829 -1.0979,-1.2253 -3.12614,-4.04109 -3.12614,-4.34003 0,-0.10004 -0.0688,-0.18166 -0.15316,-0.18166 -0.0841,0 -0.2047,-0.16616 -0.26776,-0.36934 -0.063,-0.20314 -0.23934,-0.554 -0.39173,-0.77971 -0.66009,-0.97776 -2.28018,-6.13606 -2.55195,-8.12535 -0.037,-0.27084 -0.14502,-0.93564 -0.24004,-1.47733 -0.095,-0.54169 -0.22773,-1.46503 -0.29492,-2.05185 -0.1458,-1.27272 -0.14115,-9.15799 0.006,-10.09513 0.0566,-0.36113 0.19116,-2.48448 0.29888,-4.71856 0.21875,-4.53649 0.10139,-6.5079 -0.57843,-9.71317 -0.59644,-2.81223 -1.90362,-6.02457 -3.29409,-8.09503 -0.29817,-0.44397 -4.2107,-4.87524 -4.53147,-5.13227 -0.0564,-0.0452 -0.59196,-0.51633 -1.19028,-1.04708 -3.1621,-2.80506 -6.37149,-4.61999 -9.22345,-5.21593 -1.87524,-0.39186 -3.22462,-0.43521 -8.03707,-0.25822 -6.51575,0.23963 -16.99032,0.29465 -17.37039,0.0913 -0.5371,-0.28744 -0.71788,-0.51883 -0.84008,-1.07529 -0.11556,-0.52564 0.15742,-1.19457 0.48721,-1.19457 0.0946,0 0.45339,-0.14347 0.79729,-0.31877 0.34388,-0.17526 0.82118,-0.36092 1.06064,-0.41241 0.23946,-0.0516 4.60884,-0.10489 9.70976,-0.11866 l 9.27437,-0.025 1.39527,-0.45275 c 2.38989,-0.77549 4.34265,-1.81213 6.3117,-3.35055 0.69332,-0.54169 1.3296,-0.96642 1.41399,-0.94385 0.0843,0.0225 0.13494,-0.0225 0.11245,-0.10004 -0.0225,-0.0777 0.39768,-0.61317 0.93388,-1.19007 0.91225,-0.9815 1.83954,-2.45224 2.88641,-4.57811 1.16902,-2.37388 1.9452,-5.58127 2.37473,-9.81302 0.0524,-0.51627 0.16519,-1.56656 0.25061,-2.33396 0.0855,-0.7674 0.19529,-1.83847 0.24416,-2.38016 0.24512,-2.7168 1.06861,-7.59025 1.44231,-8.5357 0.10702,-0.27085 0.20151,-0.52938 0.20993,-0.57452 0.11593,-0.62288 0.83252,-2.84346 1.13879,-3.5292 0.12097,-0.27085 0.45632,-1.04645 0.7452,-1.72356 0.28889,-0.67712 0.77467,-1.6598 1.07948,-2.183777 0.30483,-0.523947 0.55423,-0.988958 0.55423,-1.033317 0,-0.199479 1.75693,-2.655366 2.66526,-3.725582 1.5545,-1.831547 4.51361,-4.473826 5.82943,-5.205263 0.38368,-0.213302 0.69762,-0.448067 0.69762,-0.52172 0,-0.07367 0.0791,-0.133969 0.17565,-0.133969 0.0966,0 0.51034,-0.230286 0.91946,-0.511775 2.3251,-1.59971 8.7253,-4.138052 12.93962,-5.13192 4.15126,-0.978977 6.43403,-1.348136 11.24417,-1.818383 4.299621,-0.420343 4.596131,-0.459351 4.596131,-0.604583 0,-0.07736 -0.0839,-0.140754 -0.1867,-0.140754 -0.10275,0 -0.67513,-0.320846 -1.27214,-0.71298 -0.59702,-0.392133 -1.173407,-0.74301 -1.280857,-0.779711 -0.243267,-0.08317 -1.783684,-1.379371 -2.389954,-2.011174 -0.49772,-0.518677 -0.5852,-1.174889 -0.22271,-1.670611 0.1648,-0.225459 0.4301,-0.31278 0.95019,-0.31278 0.90416,0 1.677464,0.362374 2.700161,1.265313 1.45821,1.287415 2.89893,2.251037 3.36879,2.25317 0.12156,0 0.42637,0.108183 0.67752,0.239185 0.25114,0.13106 0.91594,0.364235 1.47733,0.518289 1.22094,0.335037 1.88727,0.763445 2.02194,1.299978 0.13668,0.544888 -0.46476,1.728987 -1.22912,2.419535 -0.34051,0.307623 -0.83477,0.847839 -1.09839,1.200519 -0.792,1.059494 -1.7359,2.022419 -2.09388,2.13603 -0.18534,0.05875 -0.46786,0.263614 -0.62788,0.455086 -0.17081,0.204268 -0.29322,0.260724 -0.29642,0.136489 -0.004,-0.135908 -0.13591,-0.08996 -0.37077,0.128733 -0.49948,0.465342 -1.67366,0.421836 -1.89787,-0.07038 -0.19611,-0.430424 -0.0297,-0.855885 0.59824,-1.529372 0.27356,-0.293432 0.46369,-0.533489 0.42251,-0.533489 -0.0411,0 0.11594,-0.302447 0.34941,-0.67211 0.23335,-0.369644 0.39874,-0.697625 0.36753,-0.728839 -0.0684,-0.06844 -4.048081,0.315437 -6.779101,0.653847 -3.94088,0.488297 -11.20129,2.128954 -12.06642,2.726674 -0.22652,0.156458 -0.73491,0.371544 -1.12974,0.477866 -0.3948,0.106244 -0.83733,0.254986 -0.98337,0.330384 -0.14599,0.07542 -1.04114,0.522244 -1.98909,0.992975 -0.94796,0.470732 -1.81589,0.929675 -1.92874,1.019847 -0.11284,0.09015 -0.2052,0.119234 -0.2052,0.06437 0,-0.265475 -5.76268,3.745725 -5.94116,4.135435 -0.0277,0.0603 -0.28223,0.301284 -0.56575,0.535409 -0.46997,0.388081 -1.27708,1.266844 -2.35711,2.566299 -0.22569,0.271581 -0.59413,0.837099 -0.81872,1.256743 -0.2507,0.468409 -0.49165,0.731009 -0.62408,0.680199 -0.11866,-0.0456 -0.17992,-0.0246 -0.13591,0.0463 0.0438,0.071 -0.18205,0.642594 -0.50183,1.270274 -1.36233,2.67321 -1.67135,3.33537 -2.0647,4.4242 -0.74266,2.05567 -1.09273,3.25656 -1.38767,4.76032 -0.15937,0.81253 -0.32796,1.51427 -0.37467,1.5594 -0.0467,0.0452 -0.10624,0.41426 -0.13241,0.82027 -0.0262,0.40602 -0.15297,1.25549 -0.28219,1.8877 -0.12912,0.63223 -0.27903,1.88818 -0.33314,2.791 -0.0541,0.90282 -0.1708,1.9709 -0.25913,2.37353 -0.0884,0.40262 -0.19533,1.25209 -0.2376,1.88769 -0.0977,1.4708 -0.36282,3.34165 -0.652,4.60279 -0.12428,0.54169 -0.25766,1.16956 -0.29656,1.39527 -0.16634,0.96597 -0.99194,3.45635 -1.51281,4.56381 -0.31009,0.65933 -0.56379,1.26258 -0.56379,1.34053 0,0.0779 -0.0554,0.16635 -0.12311,0.19652 -0.0677,0.03 -0.30693,0.42404 -0.53159,0.87544 -1.07918,2.16843 -4.29356,5.44337 -6.40365,6.5243 -0.55755,0.28562 -0.32657,0.29181 7.83162,0.20995 4.62337,-0.0463 10.20029,-0.15607 12.39318,-0.24376 4.73132,-0.18922 12.6111,-0.76046 14.00011,-1.01504 0.54169,-0.0993 1.24342,-0.17623 1.5594,-0.17119 l 0.57453,0.01 -0.41037,-0.27367 c -0.85542,-0.57048 -1.675,-1.64932 -2.48974,-3.27732 -1.32047,-2.63854 -1.0848,-3.58731 0.84824,-3.41484 0.95913,0.0855 1.4025,0.51691 2.23255,2.172 0.81984,1.63476 1.98895,3.03309 2.73233,3.26809 0.20347,0.0644 0.59156,0.27873 0.8624,0.47647 0.6744,0.49233 2.2623,1.2346 2.64273,1.23534 0.40301,0 1.36219,0.58556 1.48485,0.90524 0.0522,0.1361 -0.006,0.36924 -0.12854,0.51821 -0.17468,0.21156 -0.17875,0.28593 -0.0194,0.33989 0.57122,0.19232 -0.29071,1.09557 -0.92895,0.97355 -0.43896,-0.084 -1.99495,0.36398 -5.02143,1.44542 -1.08338,0.38711 -2.68759,0.89866 -3.56492,1.13676 -1.41219,0.38327 -1.68519,0.41125 -2.38016,0.24412 -0.9264,-0.2228 -1.22665,-0.53139 -1.08712,-1.1173 0.11051,-0.46368 0.35371,-0.83724 0.52306,-0.80308 0.0591,0.0116 0.51362,-0.17894 1.01017,-0.42428 l 0.90282,-0.44591 -1.39526,0.0896 c -0.76741,0.0492 -2.65101,0.16925 -4.18579,0.26639 -1.53478,0.0973 -3.08598,0.20568 -3.44712,0.24096 -0.36113,0.0353 -2.13393,0.11206 -3.93956,0.17062 -1.80563,0.0585 -3.32602,0.13203 -3.37864,0.16324 -0.0525,0.0312 -3.61168,0.0673 -7.90902,0.0803 -4.29734,0.0136 -7.8508,0.0609 -7.89657,0.10664 -0.0457,0.0458 0.3754,0.32228 0.93595,0.61447 1.29184,0.67333 2.33518,1.33101 2.71657,1.71239 0.16364,0.16363 0.62359,0.52183 1.02224,0.79611 1.83007,1.25915 4.55048,3.9246 5.99259,5.8716 0.66872,0.90282 1.4322,1.86671 1.69667,2.14198 1.78837,1.8616 3.83204,7.13553 4.51301,11.64649 0.24172,1.60114 0.24736,6.53982 0.0116,9.68475 -0.65618,8.73355 -0.57562,11.5351 0.48149,16.74314 0.0194,0.0903 0.12524,0.58781 0.2375,1.10563 0.11225,0.51783 0.15083,1.02784 0.0857,1.13337 -0.0667,0.10798 -0.0479,0.14812 0.0432,0.0919 0.0909,-0.0562 0.33104,0.4535 0.54863,1.16471 0.5432,1.77566 2.23,5.05276 3.19787,6.21286 0.0904,0.10818 0.71424,0.8858 1.38658,1.72798 0.67232,0.8422 1.84681,2.04832 2.60994,2.6803 2.34329,1.94048 2.48968,2.07942 2.37937,2.2579 -0.0603,0.0977 -0.0289,0.12485 0.0721,0.0622 0.0985,-0.0609 0.82158,0.26887 1.60692,0.73274 2.04274,1.20657 3.66263,1.90784 5.29507,2.29233 0.78283,0.18438 1.86654,0.44223 2.40823,0.573 1.77065,0.42744 4.04158,0.59547 7.79705,0.57688 3.808571,-0.0194 4.020561,-0.0302 6.449861,-0.34589 0.79387,-0.10315 1.55483,-0.14483 1.69105,-0.0925 0.14056,0.0539 0.20429,0.0248 0.14735,-0.0673 -0.0556,-0.09 0.0777,-0.16227 0.29924,-0.16227 0.58049,0 1.42548,-0.18729 1.42548,-0.31585 0,-0.0609 -0.2736,-0.20958 -0.608,-0.3305 -0.3344,-0.12098 -1.30839,-0.54712 -2.16443,-0.9471 -1.73273,-0.80963 -2.5746,-1.1423 -3.54729,-1.40173 -1.486337,-0.39645 -1.729177,-0.59752 -1.808647,-1.49755 -0.0423,-0.47981 0.37549,-1.54287 0.756017,-1.92339 0.31128,-0.31129 0.41596,-0.32726 1.06819,-0.16305 0.76721,0.1931 3.58832,1.40043 6.51178,2.7866 0.97188,0.46083 1.84081,0.83786 1.93099,0.83786 0.0901,0 0.29219,0.0715 0.44895,0.15898 0.15685,0.0874 1.17142,0.49841 2.2548,0.91327 2.29073,0.87717 3.83823,1.63373 4.1321,2.02011 0.61639,0.8104 -0.17545,2.56678 -1.23774,2.74552 -0.32794,0.0553 -0.81787,0.19682 -1.08871,0.31478 -0.44665,0.19453 -1.27799,0.56125 -2.62638,1.1585 -0.88646,0.39266 -3.93098,1.27778 -4.3089,1.25273 -0.20312,-0.0136 -0.36933,0.0485 -0.36933,0.13785 0,0.0892 -0.21633,0.16227 -0.48072,0.16227 -0.26441,0 -0.58801,0.10722 -0.71912,0.23841 -0.13106,0.13106 -0.28415,0.19271 -0.34002,0.13688 -0.0558,-0.0558 -0.10159,-0.01 -0.10159,0.10101 0,0.12175 -0.12001,0.1644 -0.30092,0.10702 -0.16557,-0.0525 -0.59477,0.008 -0.95391,0.13494 -0.56267,0.19852 -0.73031,0.19787 -1.21215,-0.004 z M 89.586499,140.67705 c 0.11089,-0.0999 -0.0405,-0.19194 -0.50868,-0.30949 -0.38876,-0.0975 -0.42908,-0.0702 -0.34864,0.2375 0.0696,0.26615 0.17293,0.32267 0.43994,0.24074 0.19194,-0.0589 0.37976,-0.13475 0.41738,-0.16867 z m -23.2954,-43.232737 c 0,-0.09035 -0.0739,-0.164213 -0.16421,-0.164213 -0.0904,0 -0.16422,0.07387 -0.16422,0.164213 0,0.09035 0.0739,0.164213 0.16422,0.164213 0.0904,0 0.16421,-0.07387 0.16421,-0.164213 z M 101.09055,87.267116 c 0,-0.09035 -0.0326,-0.164213 -0.0723,-0.164213 -0.0397,0 -0.11807,0.07387 -0.17391,0.164213 -0.0558,0.09035 -0.0233,0.164213 0.0723,0.164213 0.0956,0 0.1739,-0.07387 0.1739,-0.164213 z M 18.688059,153.41893 c 0,-0.0903 0.1109,-0.16421 0.24622,-0.16421 0.13552,0 0.24622,0.0739 0.24622,0.16421 0,0.0904 -0.1107,0.16422 -0.24622,0.16422 -0.13552,0 -0.24622,-0.0739 -0.24622,-0.16422 z"
       id="path1001-3"
       sodipodi:nodetypes="cssssscscssssssssssssssssssccsscscssssssscsscsssssssssssssscsssscsscssccccssscssscsssscssssccsssscsccscsscsssssccsscssscsccssssccccscssscssssscsccsscssssscssscscsssssscsssssssssscsssssscccscsssssssssssssssssss" />
    <path
       style="fill:#000000;stroke-width:0.164148"
       d="m 103.94997,217.18254 c -0.67729,-0.28479 -0.81021,-0.47384 -0.81347,-1.15704 -0.002,-0.41966 0.13339,-0.63492 0.67095,-1.06695 0.37042,-0.29768 0.72128,-0.54749 0.77971,-0.55517 0.0584,-0.008 0.43863,-0.17216 0.84489,-0.36573 0.40627,-0.19348 0.86359,-0.35341 1.01625,-0.35537 0.15258,-0.002 0.32323,-0.0776 0.37902,-0.1677 0.12912,-0.2089 0.14948,-0.20949 -2.8726,0.0836 -2.38786,0.2315 -8.702227,0.33346 -10.341333,0.16692 -5.891411,-0.59837 -10.01816,-1.89579 -13.544961,-4.25841 -0.630485,-0.42236 -1.477258,-1.00232 -1.881703,-1.28879 -0.836905,-0.59277 -2.916653,-2.61161 -4.427975,-4.29829 -1.097901,-1.2253 -3.126136,-4.04109 -3.126136,-4.34003 0,-0.10004 -0.06883,-0.18166 -0.153162,-0.18166 -0.08414,0 -0.204695,-0.16616 -0.267762,-0.36934 -0.06301,-0.20314 -0.239341,-0.554 -0.391727,-0.77971 -0.66009,-0.97776 -2.280177,-6.13606 -2.551953,-8.12535 -0.03703,-0.27084 -0.145019,-0.93564 -0.240038,-1.47733 -0.095,-0.54169 -0.227726,-1.46503 -0.294924,-2.05185 -0.145795,-1.27272 -0.141142,-9.15799 0.0058,-10.09513 0.05661,-0.36113 0.191162,-2.48448 0.29888,-4.71856 0.21875,-4.53649 0.101397,-6.5079 -0.57843,-9.71317 -0.59644,-2.81223 -1.903611,-6.02457 -3.29409,-8.09503 -0.298162,-0.44397 -4.210699,-4.87524 -4.531467,-5.13227 -0.05642,-0.0452 -0.591962,-0.51633 -1.190283,-1.04708 -3.162099,-2.80506 -6.371486,-4.61999 -9.223442,-5.21593 -1.875247,-0.39186 -3.224625,-0.43521 -8.037076,-0.25822 -6.515749,0.23963 -16.990313,0.29465 -17.370388,0.0913 -0.537095,-0.28744 -0.717884,-0.51883 -0.840084,-1.07529 -0.115551,-0.52564 0.157427,-1.19457 0.48721,-1.19457 0.09461,0 0.453399,-0.14347 0.797296,-0.31877 0.343878,-0.17526 0.821182,-0.36092 1.060638,-0.41241 0.239457,-0.0516 4.608843,-0.10489 9.709762,-0.11866 l 9.274373,-0.025 1.395269,-0.45275 c 2.389891,-0.77549 4.34265,-1.81213 6.311694,-3.35055 0.693321,-0.54169 1.329603,-0.96642 1.413997,-0.94385 0.08434,0.0225 0.134938,-0.0225 0.112448,-0.10004 -0.02249,-0.0777 0.397679,-0.61317 0.933882,-1.19007 0.912245,-0.9815 1.839535,-2.45224 2.886408,-4.57811 1.169015,-2.37388 1.945198,-5.58127 2.37473,-9.81302 0.05235,-0.51627 0.165183,-1.56656 0.250605,-2.33396 0.0855,-0.7674 0.195291,-1.83847 0.244167,-2.38016 0.245118,-2.7168 1.068607,-7.59025 1.442303,-8.5357 0.107019,-0.27085 0.201515,-0.52938 0.209929,-0.57452 0.115938,-0.62288 0.832523,-2.84346 1.138789,-3.5292 0.120979,-0.27085 0.456326,-1.04645 0.745202,-1.72356 0.288895,-0.677112 0.774671,-1.659793 1.079483,-2.183762 0.304831,-0.52395 0.554233,-0.988962 0.554233,-1.033321 0,-0.199479 1.756925,-2.655366 2.665254,-3.725582 1.554498,-1.831547 4.51361,-4.473826 5.829428,-5.205263 0.383681,-0.213302 0.697624,-0.448067 0.697624,-0.52172 0,-0.07367 0.0791,-0.133969 0.175652,-0.133969 0.09655,0 0.51034,-0.230286 0.919457,-0.511775 2.325098,-1.59971 8.725298,-4.138052 12.939621,-5.13192 4.151256,-0.978977 6.434031,-1.348136 11.244175,-1.818383 4.299625,-0.420343 4.596135,-0.459351 4.596135,-0.604583 0,-0.07736 -0.0839,-0.140754 -0.1867,-0.140754 -0.10275,0 -0.67513,-0.320846 -1.27214,-0.71298 -0.59702,-0.392133 -1.17341,-0.74301 -1.28086,-0.779711 -0.24327,-0.08317 -1.783693,-1.379371 -2.389963,-2.011174 -0.497719,-0.518677 -0.585196,-1.174889 -0.222705,-1.670611 0.164794,-0.225459 0.430094,-0.31278 0.950186,-0.31278 0.904161,0 1.677472,0.362374 2.700172,1.265313 1.45821,1.287415 2.89893,2.251037 3.36879,2.25317 0.12156,0 0.42637,0.108183 0.67752,0.239185 0.25114,0.13106 0.91594,0.364235 1.47733,0.518289 1.22094,0.335037 1.88727,0.763445 2.02194,1.299978 0.13668,0.544888 -0.46476,1.728987 -1.22912,2.419535 -0.34051,0.307623 -0.83477,0.847839 -1.09839,1.200519 -0.792,1.059494 -1.7359,2.022419 -2.09388,2.13603 -0.18534,0.05875 -0.46786,0.263614 -0.62788,0.455086 -0.17081,0.204268 -0.29322,0.260724 -0.29642,0.136489 -0.004,-0.135908 -0.13591,-0.08996 -0.37077,0.128733 -0.49948,0.465342 -1.67366,0.421836 -1.89787,-0.07038 -0.19611,-0.430424 -0.0297,-0.855885 0.59824,-1.529372 0.27356,-0.293432 0.46369,-0.533489 0.42251,-0.533489 -0.0411,0 0.11594,-0.302447 0.34941,-0.67211 0.23335,-0.369644 0.39874,-0.697625 0.36753,-0.728839 -0.0684,-0.06844 -4.048091,0.315437 -6.779108,0.653847 -3.940881,0.488297 -11.201289,2.128954 -12.066422,2.726674 -0.226525,0.156458 -0.734907,0.371544 -1.129736,0.477866 -0.394809,0.106244 -0.837331,0.254986 -0.983378,0.330384 -0.145989,0.07542 -1.041134,0.522244 -1.989091,0.992975 -0.947958,0.470732 -1.815883,0.929675 -1.928738,1.019847 -0.112836,0.09015 -0.205199,0.119234 -0.205199,0.06437 0,-0.265475 -5.762676,3.745725 -5.941158,4.135435 -0.02773,0.0603 -0.282226,0.301284 -0.56575,0.535409 -0.469975,0.388081 -1.277082,1.266844 -2.357107,2.566299 -0.225691,0.271581 -0.594133,0.837099 -0.81872,1.256743 -0.250701,0.468405 -0.49165,0.73101 -0.624087,0.680195 -0.118652,-0.04556 -0.179917,-0.02462 -0.135907,0.04634 0.04382,0.07096 -0.18205,0.642602 -0.501829,1.270276 -1.362328,2.673201 -1.671348,3.335361 -2.064703,4.424191 -0.742662,2.05567 -1.092724,3.25656 -1.387668,4.76032 -0.159366,0.81253 -0.327961,1.51427 -0.374666,1.5594 -0.04672,0.0452 -0.106244,0.41426 -0.132417,0.82027 -0.02617,0.40602 -0.152968,1.25549 -0.282187,1.8877 -0.129121,0.63223 -0.279026,1.88818 -0.333137,2.791 -0.05409,0.90282 -0.170805,1.9709 -0.259135,2.37353 -0.08841,0.40262 -0.19533,1.25209 -0.237595,1.88769 -0.09771,1.4708 -0.36282,3.34165 -0.652005,4.60279 -0.124275,0.54169 -0.257662,1.16956 -0.296553,1.39527 -0.166346,0.96597 -0.991948,3.45635 -1.512815,4.56381 -0.310086,0.65933 -0.563792,1.26258 -0.563792,1.34053 0,0.0779 -0.05545,0.16635 -0.123111,0.19652 -0.06766,0.03 -0.306926,0.42404 -0.531589,0.87544 -1.079173,2.16843 -4.293561,5.44337 -6.403651,6.5243 -0.557549,0.28562 -0.326565,0.29181 7.831626,0.20995 4.623363,-0.0463 10.200287,-0.15607 12.393181,-0.24376 4.731314,-0.18922 12.611098,-0.76046 14.000104,-1.01504 0.54169,-0.0993 1.243424,-0.17623 1.559403,-0.17119 l 0.574533,0.01 -0.410378,-0.27367 c -0.85542,-0.57048 -1.674992,-1.64932 -2.489737,-3.27732 -1.320471,-2.63854 -1.084795,-3.58731 0.848246,-3.41484 0.959125,0.0855 1.4025,0.51691 2.232542,2.172 0.819844,1.63476 1.988956,3.03309 2.732335,3.26809 0.203473,0.0644 0.591555,0.27873 0.862399,0.47647 0.674398,0.49233 2.262302,1.2346 2.642726,1.23534 0.40301,0 1.362193,0.58556 1.484858,0.90524 0.05215,0.1361 -0.0058,0.36924 -0.12854,0.51821 -0.174682,0.21156 -0.178754,0.28593 -0.01939,0.33989 0.571217,0.19232 -0.290718,1.09557 -0.928958,0.97355 -0.438955,-0.084 -1.994946,0.36398 -5.02143,1.44542 -1.083379,0.38711 -2.687588,0.89866 -3.564916,1.13676 -1.412194,0.38327 -1.685191,0.41125 -2.380159,0.24412 -0.926398,-0.2228 -1.226654,-0.53139 -1.087121,-1.1173 0.110509,-0.46368 0.353707,-0.83724 0.523058,-0.80308 0.05913,0.0116 0.513617,-0.17894 1.010172,-0.42428 l 0.902823,-0.44591 -1.395268,0.0896 c -0.767401,0.0492 -2.651004,0.16925 -4.185785,0.26639 -1.534782,0.0973 -3.085985,0.20568 -3.447118,0.24096 -0.361133,0.0353 -2.133936,0.11206 -3.939562,0.17062 -1.805626,0.0585 -3.326022,0.13203 -3.37864,0.16324 -0.05254,0.0312 -3.611679,0.0673 -7.909021,0.0803 -4.297341,0.0136 -7.8508,0.0609 -7.896574,0.10664 -0.04575,0.0458 0.375403,0.32228 0.935957,0.61447 1.291835,0.67333 2.335179,1.33101 2.716572,1.71239 0.163632,0.16363 0.623583,0.52183 1.022231,0.79611 1.830074,1.25915 4.550486,3.9246 5.992594,5.8716 0.668718,0.90282 1.432202,1.86671 1.696668,2.14198 1.788372,1.8616 3.832039,7.13553 4.51301,11.64649 0.241724,1.60114 0.247366,6.53982 0.01163,9.68475 -0.656173,8.73355 -0.575618,11.5351 0.481492,16.74314 0.01939,0.0903 0.125244,0.58781 0.237498,1.10563 0.112254,0.51783 0.150835,1.02784 0.08569,1.13337 -0.06669,0.10798 -0.04789,0.14812 0.04323,0.0919 0.09093,-0.0562 0.331044,0.4535 0.548631,1.16471 0.543202,1.77566 2.230002,5.05276 3.19787,6.21286 0.09035,0.10818 0.71424,0.8858 1.386583,1.72798 0.672323,0.8422 1.846805,2.04832 2.60994,2.6803 2.343284,1.94048 2.48968,2.07942 2.379364,2.2579 -0.06029,0.0977 -0.02889,0.12485 0.07212,0.0622 0.09849,-0.0609 0.821589,0.26887 1.606923,0.73274 2.042737,1.20657 3.66263,1.90784 5.295067,2.29233 0.782833,0.18438 1.866542,0.44223 2.408232,0.573 1.770651,0.42744 4.04158,0.59547 7.797057,0.57688 3.808576,-0.0194 4.020566,-0.0302 6.449866,-0.34589 0.79387,-0.10315 1.55483,-0.14483 1.69105,-0.0925 0.14056,0.0539 0.20429,0.0248 0.14735,-0.0673 -0.0556,-0.09 0.0777,-0.16227 0.29924,-0.16227 0.58049,0 1.42548,-0.18729 1.42548,-0.31585 0,-0.0609 -0.2736,-0.20958 -0.608,-0.3305 -0.3344,-0.12098 -1.30839,-0.54712 -2.16443,-0.9471 -1.73273,-0.80963 -2.5746,-1.1423 -3.54729,-1.40173 -1.48634,-0.39645 -1.72918,-0.59752 -1.80865,-1.49755 -0.0423,-0.47981 0.37549,-1.54287 0.75602,-1.92339 0.31128,-0.31129 0.41596,-0.32726 1.06819,-0.16305 0.76721,0.1931 3.58832,1.40043 6.51178,2.7866 0.97188,0.46083 1.84081,0.83786 1.93099,0.83786 0.0901,0 0.29219,0.0715 0.44895,0.15898 0.15685,0.0874 1.17142,0.49841 2.2548,0.91327 2.29073,0.87717 3.83823,1.63373 4.1321,2.02011 0.61639,0.8104 -0.17545,2.56678 -1.23774,2.74552 -0.32794,0.0553 -0.81787,0.19682 -1.08871,0.31478 -0.44665,0.19453 -1.27799,0.56125 -2.62638,1.1585 -0.88646,0.39266 -3.93098,1.27778 -4.3089,1.25273 -0.20312,-0.0136 -0.36933,0.0485 -0.36933,0.13785 0,0.0892 -0.21633,0.16227 -0.48072,0.16227 -0.26441,0 -0.58801,0.10722 -0.71912,0.23841 -0.13106,0.13106 -0.28415,0.19271 -0.34002,0.13688 -0.0558,-0.0558 -0.10159,-0.01 -0.10159,0.10101 0,0.12175 -0.12001,0.1644 -0.30092,0.10702 -0.16557,-0.0525 -0.59477,0.008 -0.95391,0.13494 -0.56267,0.19852 -0.73031,0.19787 -1.21215,-0.004 z M 90.645027,138.56037 c 0.110897,-0.0999 -0.04052,-0.19194 -0.508673,-0.30949 -0.38876,-0.0975 -0.429086,-0.0702 -0.348647,0.2375 0.0696,0.26615 0.172937,0.32267 0.439944,0.24074 0.191937,-0.0589 0.379764,-0.13475 0.417376,-0.16867 z M 67.34963,95.327644 c 0,-0.09035 -0.07387,-0.164213 -0.164213,-0.164213 -0.09035,0 -0.164213,0.07387 -0.164213,0.164213 0,0.09035 0.07387,0.164213 0.164213,0.164213 0.09035,0 0.164213,-0.07387 0.164213,-0.164213 z m 34.79946,-10.177197 c 0,-0.09035 -0.0326,-0.164213 -0.0723,-0.164213 -0.0397,0 -0.11807,0.07387 -0.17391,0.164213 -0.0558,0.09035 -0.0233,0.164213 0.0723,0.164213 0.0956,0 0.1739,-0.07387 0.1739,-0.164213 z m -82.4025,66.151803 c 0,-0.0903 0.110897,-0.16421 0.246223,-0.16421 0.135519,0 0.246222,0.0739 0.246222,0.16421 0,0.0904 -0.110703,0.16422 -0.246222,0.16422 -0.13552,0 -0.246223,-0.0739 -0.246223,-0.16422 z"
       id="path1001"
       sodipodi:nodetypes="cssssscscssssssssssssssssssccsscscssssssscsscsssssssssssssscsssscsscssccccssscssscsssscssssccsssscsccscsscsssssccsscssscsccssssccccscssscssssscsccsscssssscssscscsssssscsssssssssscsssssscccscsssssssssssssssssss" />
  </g>
</svg>
