<?xml version="1.0" encoding="UTF-8" standalone="no"?>
<!-- Created with Inkscape (http://www.inkscape.org/) -->

<svg
   width="80.945251mm"
   height="37.711086mm"
   viewBox="0 0 80.945251 37.711086"
   version="1.1"
   id="svg5"
   sodipodi:docname="datalad copy 10.svg"
   inkscape:version="1.1.1 (c3084ef, 2021-09-22)"
   xmlns:inkscape="http://www.inkscape.org/namespaces/inkscape"
   xmlns:sodipodi="http://sodipodi.sourceforge.net/DTD/sodipodi-0.dtd"
   xmlns="http://www.w3.org/2000/svg"
   xmlns:svg="http://www.w3.org/2000/svg">
  <sodipodi:namedview
     id="namedview7"
     pagecolor="#ffffff"
     bordercolor="#666666"
     borderopacity="1.0"
     inkscape:pageshadow="2"
     inkscape:pageopacity="0.0"
     inkscape:pagecheckerboard="0"
     inkscape:document-units="mm"
     showgrid="false"
     inkscape:zoom="0.6961308"
     inkscape:cx="339.73501"
     inkscape:cy="-144.36942"
     inkscape:window-width="1606"
     inkscape:window-height="1319"
     inkscape:window-x="0"
     inkscape:window-y="25"
     inkscape:window-maximized="0"
     inkscape:current-layer="layer1" />
  <defs
     id="defs2" />
  <g
     inkscape:label="Layer 1"
     inkscape:groupmode="layer"
     id="layer1"
     transform="translate(-31.705742,-108.47161)">
    <path
       style="fill:#000000;stroke-width:0.212209"
       d="m 66.637677,145.92977 c -1.030432,-0.47592 -1.082114,-0.9663 -0.307911,-2.92219 0.69292,-1.75063 1.793381,-5.75794 1.793381,-6.53069 0,-0.32701 0.130082,-1.06549 0.288812,-1.64109 0.158906,-0.57557 0.505015,-2.04918 0.76924,-3.27469 0.543388,-2.52016 2.253908,-9.9069 2.555278,-11.03486 0.109028,-0.40849 0.400573,-1.64991 0.647579,-2.7587 0.247131,-1.1088 0.858418,-3.25742 1.358695,-4.77469 0.500278,-1.5173 0.972986,-3.05538 1.050509,-3.41798 0.178706,-0.83654 0.903859,-1.24386 1.886068,-1.05959 0.735378,0.13786 1.188611,0.49399 1.296687,1.01863 0.03133,0.15164 0.122062,0.42456 0.202016,0.60637 0.0802,0.18272 -0.182967,1.27431 -0.588604,2.44041 -0.86135,2.47653 -1.804835,6.1331 -2.551041,9.88681 -0.29345,1.47617 -0.780193,3.67253 -1.081663,4.88079 -0.301445,1.20826 -0.787963,3.39051 -1.081162,4.84944 -1.498076,7.45464 -3.196164,13.41494 -3.934425,13.81005 -0.490954,0.26275 -1.650717,0.22357 -2.303484,-0.0779 z m -6.896792,-2.90939 c -0.233346,-0.0998 -0.758638,-0.47759 -1.167131,-0.83964 -1.121966,-0.99444 -3.896404,-2.24015 -6.154071,-2.76318 -5.004558,-1.15944 -7.893989,-2.28963 -13.156933,-5.14627 -4.78209,-2.59566 -6.163845,-3.5326 -6.928423,-4.69818 -0.367539,-0.56031 -0.649835,-1.14427 -0.627327,-1.29774 0.05539,-0.37714 0.553965,-0.95842 0.822125,-0.95842 0.119555,0 0.7047,-0.31939 1.300346,-0.70977 3.453998,-2.26355 4.191457,-2.6912 4.409088,-2.5567 0.140108,0.0865 0.182717,0.0549 0.102011,-0.0759 -0.07795,-0.12632 0.302623,-0.48082 0.869095,-0.80924 1.894364,-1.0983 16.077694,-10.50917 17.936868,-11.90137 0.942182,-0.70551 1.057952,-0.74017 1.651819,-0.49417 0.771847,0.31972 1.396192,1.07164 1.578332,1.90088 0.151637,0.69029 -0.175699,1.11112 -1.392407,1.7898 -0.400849,0.22357 -1.030708,0.65337 -1.39965,0.95494 -0.733749,0.59978 -1.524971,1.15861 -3.148944,2.22401 -1.892685,1.24167 -3.390511,2.24658 -3.607565,2.4204 -0.355809,0.28493 -6.232145,4.11539 -8.488333,5.53309 -1.910956,1.20076 -5.338261,3.49009 -5.566218,3.71807 -0.04938,0.0494 0.609833,0.5011 1.464967,1.00381 0.855109,0.50269 1.602493,0.9667 1.660842,1.03106 0.262346,0.28939 5.164342,2.5927 6.790672,3.19073 0.992084,0.3648 2.806468,0.9018 4.031974,1.1934 3.940014,0.93737 5.155093,1.36092 7.420806,2.58685 2.662325,1.44051 3.819556,2.50636 3.66243,3.3733 -0.186226,1.0277 -1.217385,1.69217 -2.064373,1.33024 z m 24.272765,0.0531 c -0.01253,-0.0875 -0.01253,-0.23786 0.005,-0.33408 0.01754,-0.0962 -0.07093,-0.11229 -0.194748,-0.0358 -0.123816,0.0764 -0.603667,-0.23936 -1.066273,-0.70199 -1.099985,-1.09999 -1.152344,-1.92008 -0.151387,-2.37241 0.379319,-0.17144 0.753324,-0.31413 0.831148,-0.31706 0.0777,-0.003 0.213044,-0.077 0.300618,-0.16442 0.08747,-0.0875 0.279213,-0.15916 0.425913,-0.15916 0.573089,0 9.600323,-5.75457 12.503063,-7.97028 0.536646,-0.40965 1.584071,-1.17002 2.327596,-1.6897 0.743574,-0.51972 1.65438,-1.22121 2.02405,-1.55885 0.36967,-0.33764 0.92601,-0.74458 1.23631,-0.90431 0.31029,-0.15966 0.61193,-0.34789 0.67028,-0.41815 0.0584,-0.0702 0.52833,-0.39232 1.0444,-0.71565 0.51604,-0.32332 1.13086,-0.76733 1.36629,-0.98667 0.23535,-0.21931 0.50554,-0.39879 0.60025,-0.39879 0.0947,0 0.17219,-0.0955 0.17219,-0.21229 0,-0.1168 -0.11053,-0.2123 -0.24587,-0.2123 -0.29942,0 -5.12239,-2.33852 -5.27149,-2.55598 -0.0584,-0.0852 -0.40459,-0.3327 -0.769373,-0.55013 -0.364782,-0.2173 -1.208612,-0.77731 -1.875165,-1.24417 -0.666552,-0.46685 -1.530209,-1.03981 -1.919277,-1.27326 -3.608468,-2.16508 -4.825677,-2.68566 -6.895464,-2.94905 -2.830731,-0.3602 -4.566891,-1.39858 -5.114941,-3.05917 -0.225576,-0.68355 -0.204522,-0.78819 0.228584,-1.13893 0.262345,-0.21255 0.614445,-0.38624 0.782449,-0.38624 0.540104,0 5.21838,1.30473 6.90183,1.92487 1.987051,0.73199 1.96537,0.71996 5.33385,2.95479 5.362697,3.55792 6.429807,4.12354 9.799857,5.19457 3.28672,1.0446 3.7581,1.25754 4.56782,2.0636 0.66811,0.6651 1.32381,1.84647 0.86875,1.56522 -0.081,-0.0501 -0.26298,0.16994 -0.40426,0.48923 -0.15765,0.35636 -0.60319,0.73312 -1.15423,0.97622 -0.49351,0.2178 -0.99501,0.47634 -1.11444,0.57466 -0.61259,0.50434 -2.29226,1.70413 -3.61248,2.58037 -1.91163,1.26882 -3.7001,2.60498 -4.67735,3.49445 -0.16843,0.15339 -0.41726,0.21029 -0.55291,0.12632 -0.14236,-0.088 -0.18973,-0.0604 -0.11204,0.0654 0.1747,0.28285 -2.133173,1.81852 -2.444193,1.62631 -0.133842,-0.0827 -0.177954,-0.0511 -0.101509,0.0727 0.118052,0.19099 -2.554876,2.18077 -2.929759,2.18077 -0.0777,0 -0.266054,0.11931 -0.418469,0.26525 -0.322925,0.30907 -0.47975,0.41569 -2.87567,1.9551 -4.596216,2.95309 -7.021336,4.35813 -7.52219,4.35813 -0.297961,0 -0.553038,-0.0717 -0.566873,-0.15916 z"
       id="path836"
       sodipodi:nodetypes="sssssssssssssssssssssssssssssssssssssssssssssssssssscssssssssssssssssssssssssssssssssssssssss" />
  </g>
</svg>
