<?xml version="1.0" encoding="UTF-8" standalone="no"?>
<!-- Created with Inkscape (http://www.inkscape.org/) -->

<svg
   width="78.051819mm"
   height="84.14357mm"
   viewBox="0 0 78.051819 84.14357"
   version="1.1"
   id="svg5"
   sodipodi:docname="datalad copy 6.svg"
   inkscape:version="1.1.1 (c3084ef, 2021-09-22)"
   xmlns:inkscape="http://www.inkscape.org/namespaces/inkscape"
   xmlns:sodipodi="http://sodipodi.sourceforge.net/DTD/sodipodi-0.dtd"
   xmlns="http://www.w3.org/2000/svg"
   xmlns:svg="http://www.w3.org/2000/svg">
  <sodipodi:namedview
     id="namedview7"
     pagecolor="#ffffff"
     bordercolor="#666666"
     borderopacity="1.0"
     inkscape:pageshadow="2"
     inkscape:pageopacity="0.0"
     inkscape:pagecheckerboard="0"
     inkscape:document-units="mm"
     showgrid="false"
     inkscape:zoom="0.64192509"
     inkscape:cx="-718.93123"
     inkscape:cy="672.19681"
     inkscape:window-width="1606"
     inkscape:window-height="1319"
     inkscape:window-x="0"
     inkscape:window-y="25"
     inkscape:window-maximized="0"
     inkscape:current-layer="layer1" />
  <defs
     id="defs2" />
  <g
     inkscape:label="Layer 1"
     inkscape:groupmode="layer"
     id="layer1"
     transform="translate(-56.389146,-31.208368)">
    <path
       style="fill:#008c00;fill-opacity:0.538462;stroke-width:0.226657"
       d="m 117.06537,115.10492 c -0.67778,-0.30928 -1.21522,-1.05102 -0.76151,-1.05102 0.12341,0 0.0953,-0.20651 -0.0637,-0.46713 -0.24414,-0.39986 -0.22005,-0.51611 0.16812,-0.80737 0.27581,-0.20693 0.70138,-0.29177 1.08685,-0.21657 0.61513,0.1202 0.96045,-0.0471 2.87965,-1.39552 1.00855,-0.70859 1.5204,-1.27749 2.60324,-2.89325 l 1.06327,-1.5866 -0.17508,-2.3799 c -0.0964,-1.30894 -0.19998,-2.73688 -0.23022,-3.17319 -0.0303,-0.43633 -0.071,-0.79331 -0.0902,-0.79331 -0.0188,0 -0.0798,-0.30599 -0.13412,-0.679969 -0.2718,-1.86444 -0.88254,-4.66412 -1.25422,-5.74966 -0.22916,-0.6691 -0.36625,-1.29786 -0.30481,-1.39726 0.0613,-0.0993 0.0343,-0.21497 -0.0605,-0.25673 -0.0948,-0.0418 -0.41524,-1.09599 -0.71215,-2.34258 -0.29686,-1.24662 -0.73795,-2.87855 -0.98015,-3.62652 -0.65536,-2.02393 -0.80624,-5.8165 -0.29287,-7.36218 0.45141,-1.35908 1.68912,-3.5334 2.52438,-4.43463 0.52069,-0.56186 0.5349,-0.63856 0.21016,-1.13405 -0.19141,-0.29231 -0.28877,-0.71529 -0.21604,-0.94 0.0932,-0.28799 0.0707,-0.32304 -0.0766,-0.11885 -0.24414,0.33899 -0.5451,-0.22273 -1.23837,-2.312036 -0.78355,-2.361373 -1.0981,-5.388473 -0.74851,-7.203672 0.15821,-0.820916 1.64162,-5.538706 1.89506,-6.026571 0.11056,-0.21283 0.27817,-0.998782 0.37256,-1.746748 0.0945,-0.747971 0.20533,-1.625292 0.24683,-1.949616 0.0643,-0.505536 -0.0782,-1.573436 -0.46618,-3.490151 -0.10896,-0.538595 -0.4778,-2.496803 -0.9314,-4.945285 -0.18044,-0.974632 -0.47603,-2.057846 -0.65665,-2.407094 -0.3356,-0.648997 -2.27475,-2.506923 -3.29374,-3.155839 -0.31166,-0.198379 -0.61968,-0.433255 -0.68452,-0.521784 -0.3338,-0.455767 -2.37213,-1.096011 -3.07157,-0.964809 -1.10286,0.20693 -2.86133,-0.441498 -3.32473,-1.225953 -0.35481,-0.600677 -0.3511,-0.677213 0.0661,-1.363154 0.61508,-1.011415 1.35312,-1.234602 3.61493,-1.093281 1.36677,0.0854 2.3547,0.298063 3.39985,0.731853 0.81032,0.336291 1.52428,0.674722 1.58661,0.752036 0.0624,0.07736 0.27806,0.24254 0.4794,0.367265 2.39232,1.481157 4.41475,3.294135 5.56264,4.986431 0.56772,0.837007 0.96559,2.375666 0.81626,3.156722 -0.0613,0.320712 -0.008,0.583115 0.11565,0.583115 0.12476,0 0.29868,0.586488 0.3863,1.303294 0.0875,0.716781 0.3527,2.276054 0.58908,3.465038 0.76181,3.831955 0.65039,5.13913 -0.82019,9.624396 -1.72638,5.265272 -1.82106,6.010028 -1.12361,8.839614 0.19622,0.796582 1.87275,4.359149 2.12445,4.514709 0.0948,0.0586 0.66145,0.13171 1.25926,0.16277 1.96875,0.10199 2.90267,1.51569 1.96666,2.97717 -0.25779,0.40239 -0.47033,0.64265 -0.47241,0.53391 -0.002,-0.10868 -0.14804,-0.0782 -0.3242,0.0683 -0.17614,0.14617 -1.06586,0.30331 -1.97702,0.34906 -0.95014,0.0477 -1.69273,0.19141 -1.74121,0.33688 -0.0466,0.13946 -0.30866,0.53043 -0.58258,0.86862 -0.98732,1.2191 -1.31611,1.93077 -1.50305,3.25334 -0.19971,1.41292 0.005,2.45662 1.48174,7.56116 0.32462,1.12195 0.73783,2.54989 0.91823,3.17319 0.8951,3.09255 2.15958,10.219389 2.28775,12.894079 0.13278,2.77003 0.12502,2.83101 -0.51766,4.11289 -0.35878,0.71563 -0.91723,1.58719 -1.24097,1.93682 -0.32373,0.34962 -0.75969,0.89678 -0.9688,1.21591 -0.20909,0.31916 -0.8112,0.8547 -1.33799,1.19014 -0.52676,0.33543 -1.06104,0.72956 -1.18721,0.87584 -0.12608,0.14622 -0.74773,0.53697 -1.38117,0.86821 -1.42385,0.7445 -3.70769,0.98905 -4.75851,0.50952 z m -46.555217,-0.30494 c -1.058665,-0.38851 -2.433117,-1.07044 -2.787211,-1.38286 -0.224068,-0.19753 -0.792941,-0.92572 -1.264316,-1.61789 -0.682459,-1.00221 -1.002634,-1.85868 -1.571935,-4.20506 -0.973001,-4.01032 -1.214953,-5.7684 -1.341283,-9.746249 -0.108681,-3.42172 0.165972,-6.59783 0.724946,-8.38628 0.155796,-0.49866 0.471054,-1.69712 0.700424,-2.66324 0.229423,-0.96612 0.473113,-1.75657 0.541645,-1.75657 0.161162,0 0.240668,-0.9632 0.299617,-3.62652 0.07121,-3.22319 -0.35198,-3.7351 -4.028183,-4.87212 -0.997281,-0.30848 -2.056213,-0.56237 -2.353154,-0.56424 -0.735251,-0.005 -2.06735,-0.86008 -2.063547,-1.32517 0.0081,-0.87529 0.323307,-1.4229 1.099275,-1.90413 0.453333,-0.28111 0.903158,-0.48546 0.999664,-0.45405 0.09637,0.0313 0.580063,-0.14939 1.074621,-0.40164 0.644044,-0.32855 1.059711,-0.77557 1.465069,-1.575498 0.508131,-1.002743 0.567775,-1.401542 0.584077,-3.906242 0.02142,-3.219981 -0.225406,-4.254286 -1.717085,-7.206481 -0.634059,-1.254893 -1.358335,-2.289199 -2.071795,-2.958622 -0.603299,-0.566114 -1.402934,-1.637071 -1.776917,-2.379898 -0.623967,-1.239393 -0.674778,-1.514621 -0.616872,-3.34109 0.06184,-1.951006 0.09182,-2.046309 1.512693,-4.813898 1.380447,-2.688854 2.076585,-3.833613 2.840963,-4.671983 0.188738,-0.20693 0.751021,-0.934264 1.249673,-1.616322 1.469353,-2.009877 4.490911,-3.847188 6.371565,-3.874361 1.454092,-0.02142 1.901401,0.319427 1.901401,1.447134 0,0.801214 -0.0838,0.906795 -1.280245,1.615492 -0.704146,0.417056 -1.454521,0.862437 -1.667535,0.989705 -1.085408,0.648488 -3.171955,2.930512 -3.171955,3.469053 0,0.119669 -0.127429,0.267438 -0.28331,0.328609 -0.155797,0.06103 -0.588766,0.709496 -0.962052,1.440867 -0.373288,0.731342 -0.806755,1.411312 -0.963283,1.511006 -0.156608,0.0996 -0.284571,0.330562 -0.284571,0.513056 0,0.182582 -0.09665,0.508881 -0.214698,0.725373 -0.118066,0.216573 -0.378856,0.922004 -0.579689,1.567841 -0.357251,1.149122 -0.3523,1.209893 0.230227,2.833227 0.470999,1.312424 0.900265,1.990305 2.055198,3.245524 2.331013,2.533371 3.939196,6.445904 4.044083,9.838876 0.05808,1.877388 -0.356717,4.827121 -0.749521,5.33022 -0.104662,0.133842 -0.255122,0.516192 -0.334657,0.849402 -0.0795,0.33321 -0.4086,0.91967 -0.73137,1.30327 -0.3228,0.38359 -0.469769,0.69745 -0.32668,0.69745 0.143226,0 0.197845,0.10092 0.121807,0.22407 -0.07711,0.12475 0.0053,0.16864 0.188203,0.0988 0.533162,-0.20451 3.233553,1.23615 3.581061,1.91061 0.16999,0.32989 0.453117,0.71252 0.629187,0.85034 0.182838,0.14295 0.25673,0.41553 0.172662,0.63508 -0.0811,0.21148 -0.05861,0.32954 0.05032,0.26235 0.468404,-0.28945 0.816474,1.39819 0.79171,3.83854 -0.02409,2.27549 -0.107355,2.74239 -0.963336,5.34638 -0.515895,1.56924 -1.095153,3.86413 -1.287233,5.09978 -0.375295,2.41406 -0.449664,8.03249 -0.124756,9.431619 0.107078,0.46123 0.141088,0.89226 0.07548,0.95782 -0.06558,0.0656 -0.0028,0.2586 0.137861,0.42884 0.141345,0.17026 0.206673,0.36003 0.145107,0.4216 -0.13305,0.13306 0.638905,3.859 1.001324,4.8328 0.139207,0.37398 0.532357,1.26919 0.873762,1.98934 0.575137,1.21324 0.702751,1.33387 1.738449,1.64326 0.614757,0.18365 1.437736,0.33388 1.828772,0.33388 0.73999,0 3.005442,-0.59867 3.399851,-0.89847 0.45202,-0.34358 1.5196,-0.4785 1.819109,-0.22996 0.166506,0.13814 0.251375,0.47397 0.188995,0.74641 -0.06238,0.27245 -0.131982,0.66576 -0.154193,0.874 -0.06024,0.5632 -1.329664,1.57949 -1.819564,1.45688 -0.230494,-0.0575 -0.358643,-0.0445 -0.284784,0.0295 0.160884,0.16097 -0.609163,0.7297 -1.16639,0.86149 -0.217911,0.0513 -0.804321,0.19624 -1.302973,0.32149 -0.955948,0.24013 -3.616399,0.28968 -4.193144,0.0782 z"
       id="path836-0"
       sodipodi:nodetypes="cscsssscssscssssssssscsssscssssssssssscsssssssscssssssssssssssssccssssssssssccsssscssssssscsssssssssssssssssscsssccsssscsssssssssssssss" />
    <path
       style="fill:#000000;stroke-width:0.226657"
       d="m 120.76957,112.45907 c -0.67778,-0.30928 -1.21522,-1.05102 -0.76151,-1.05102 0.12341,0 0.0953,-0.20651 -0.0637,-0.46713 -0.24414,-0.39986 -0.22005,-0.51611 0.16812,-0.80737 0.27581,-0.20693 0.70138,-0.29177 1.08685,-0.21657 0.61513,0.1202 0.96045,-0.0471 2.87965,-1.39552 1.00855,-0.70859 1.5204,-1.27749 2.60324,-2.89325 l 1.06327,-1.5866 -0.17508,-2.3799 c -0.0964,-1.30894 -0.19998,-2.736871 -0.23022,-3.173181 -0.0303,-0.436327 -0.071,-0.793304 -0.0902,-0.793304 -0.0188,0 -0.0798,-0.30599 -0.13412,-0.67997 -0.2718,-1.86444 -0.88254,-4.66412 -1.25422,-5.74966 -0.22916,-0.6691 -0.36625,-1.29786 -0.30481,-1.39726 0.0613,-0.0993 0.0343,-0.21497 -0.0605,-0.25673 -0.0948,-0.0418 -0.41524,-1.09599 -0.71215,-2.34258 -0.29686,-1.24662 -0.73795,-2.87855 -0.98015,-3.62652 -0.65536,-2.02393 -0.80624,-5.8165 -0.29287,-7.36218 0.45141,-1.35908 1.68912,-3.5334 2.52438,-4.43463 0.52069,-0.56186 0.5349,-0.63856 0.21016,-1.13405 -0.19141,-0.29231 -0.28877,-0.71529 -0.21604,-0.94 0.0932,-0.28799 0.0707,-0.32304 -0.0766,-0.11885 -0.24414,0.33899 -0.5451,-0.22273 -1.23837,-2.312036 -0.78355,-2.361373 -1.0981,-5.388473 -0.74851,-7.203672 0.15821,-0.820916 1.64162,-5.538706 1.89506,-6.026571 0.11056,-0.21283 0.27817,-0.998782 0.37256,-1.746748 0.0945,-0.747971 0.20533,-1.625292 0.24683,-1.949616 0.0643,-0.505536 -0.0782,-1.573436 -0.46618,-3.490151 -0.10896,-0.538595 -0.4778,-2.496803 -0.9314,-4.945285 -0.18044,-0.974632 -0.47603,-2.057846 -0.65665,-2.407094 -0.3356,-0.648997 -2.27475,-2.506923 -3.29374,-3.155839 -0.31166,-0.198379 -0.61968,-0.433255 -0.68452,-0.521784 -0.3338,-0.455767 -2.37213,-1.096011 -3.07157,-0.964809 -1.10286,0.20693 -2.86133,-0.441498 -3.32473,-1.225953 -0.35481,-0.600677 -0.3511,-0.677213 0.0661,-1.363154 0.61508,-1.011415 1.35312,-1.234602 3.61493,-1.093281 1.36677,0.0854 2.3547,0.298063 3.39985,0.731853 0.81032,0.336291 1.52428,0.674722 1.58661,0.752036 0.0624,0.07736 0.27806,0.24254 0.4794,0.367265 2.39232,1.481157 4.41475,3.294135 5.56264,4.986431 0.56772,0.837007 0.96559,2.375666 0.81626,3.156722 -0.0613,0.320712 -0.008,0.583115 0.11565,0.583115 0.12476,0 0.29868,0.586488 0.3863,1.303294 0.0875,0.716781 0.3527,2.276054 0.58908,3.465038 0.76181,3.831955 0.65039,5.13913 -0.82019,9.624396 -1.72638,5.265272 -1.82106,6.010028 -1.12361,8.839614 0.19622,0.796582 1.87275,4.359149 2.12445,4.514709 0.0948,0.0586 0.66145,0.13171 1.25926,0.16277 1.96875,0.10199 2.90267,1.51569 1.96666,2.97717 -0.25779,0.40239 -0.47033,0.64265 -0.47241,0.53391 -0.002,-0.10868 -0.14804,-0.0782 -0.3242,0.0683 -0.17614,0.14617 -1.06586,0.30331 -1.97702,0.34906 -0.95014,0.0477 -1.69273,0.19141 -1.74121,0.33688 -0.0466,0.13946 -0.30866,0.53043 -0.58258,0.86862 -0.98732,1.2191 -1.31611,1.93077 -1.50305,3.25334 -0.19971,1.41292 0.005,2.45662 1.48174,7.56116 0.32462,1.12195 0.73783,2.54989 0.91823,3.17319 0.8951,3.09255 2.15958,10.219381 2.28775,12.894065 0.13278,2.77003 0.12502,2.83101 -0.51766,4.11289 -0.35877,0.71563 -0.91723,1.58719 -1.24097,1.93682 -0.32373,0.34962 -0.75969,0.89678 -0.9688,1.21591 -0.20909,0.31916 -0.8112,0.8547 -1.33799,1.19014 -0.52676,0.33543 -1.06104,0.72956 -1.18721,0.87584 -0.12608,0.14622 -0.74773,0.53697 -1.38117,0.86821 -1.42385,0.7445 -3.70769,0.98905 -4.75851,0.50952 z m -46.555238,-0.30494 c -1.058665,-0.38851 -2.433117,-1.07044 -2.787211,-1.38286 -0.224068,-0.19753 -0.792941,-0.92572 -1.264316,-1.61789 -0.682459,-1.00221 -1.002634,-1.85868 -1.571935,-4.20506 -0.973001,-4.01032 -1.214953,-5.768394 -1.341283,-9.746235 -0.108681,-3.42172 0.165972,-6.59783 0.724946,-8.38628 0.155796,-0.49866 0.471054,-1.69712 0.700424,-2.66324 0.229423,-0.96612 0.473113,-1.75657 0.541645,-1.75657 0.161162,0 0.240668,-0.9632 0.299617,-3.62652 0.07121,-3.22319 -0.35198,-3.7351 -4.028183,-4.87212 -0.997281,-0.30848 -2.056213,-0.56237 -2.353154,-0.56424 -0.735251,-0.005 -2.06735,-0.86008 -2.063547,-1.32517 0.0081,-0.87529 0.323307,-1.4229 1.099275,-1.90413 0.453333,-0.28111 0.903158,-0.48546 0.999664,-0.45405 0.09637,0.0313 0.580063,-0.14939 1.074621,-0.40164 0.644044,-0.32855 1.059711,-0.77557 1.465069,-1.575498 0.508131,-1.002743 0.567775,-1.401542 0.584077,-3.906242 0.02142,-3.219981 -0.225406,-4.254286 -1.717085,-7.206481 -0.634059,-1.254893 -1.358335,-2.289199 -2.071795,-2.958622 -0.603299,-0.566114 -1.402934,-1.637071 -1.776917,-2.379898 -0.623967,-1.239393 -0.674778,-1.514621 -0.616872,-3.34109 0.06184,-1.951006 0.09182,-2.046309 1.512693,-4.813898 1.380447,-2.688854 2.076585,-3.833613 2.840963,-4.671983 0.188738,-0.20693 0.751021,-0.934264 1.249673,-1.616322 1.469353,-2.009877 4.490911,-3.847188 6.371565,-3.874361 1.454092,-0.02142 1.901401,0.319427 1.901401,1.447134 0,0.801214 -0.0838,0.906795 -1.280245,1.615492 -0.704146,0.417056 -1.454521,0.862437 -1.667535,0.989705 -1.085408,0.648488 -3.171955,2.930512 -3.171955,3.469053 0,0.119669 -0.127429,0.267438 -0.28331,0.328609 -0.155797,0.06103 -0.588766,0.709496 -0.962052,1.440867 -0.373288,0.731342 -0.806755,1.411312 -0.963283,1.511006 -0.156608,0.0996 -0.284571,0.330562 -0.284571,0.513056 0,0.182582 -0.09665,0.508881 -0.214698,0.725373 -0.118066,0.216573 -0.378856,0.922004 -0.579689,1.567841 -0.357251,1.149122 -0.3523,1.209893 0.230227,2.833227 0.470999,1.312424 0.900265,1.990305 2.055198,3.245524 2.331013,2.533371 3.939196,6.445904 4.044083,9.838876 0.05808,1.877388 -0.356717,4.827121 -0.749521,5.33022 -0.104662,0.133842 -0.255122,0.516192 -0.334657,0.849402 -0.0795,0.33321 -0.4086,0.91967 -0.73137,1.30327 -0.3228,0.38359 -0.469769,0.69745 -0.32668,0.69745 0.143226,0 0.197845,0.10092 0.121807,0.22407 -0.07711,0.12475 0.0053,0.16864 0.188203,0.0988 0.533162,-0.20451 3.233553,1.23615 3.581061,1.91061 0.16999,0.32989 0.453117,0.71252 0.629187,0.85034 0.182838,0.14295 0.25673,0.41553 0.172662,0.63508 -0.0811,0.21148 -0.05861,0.32954 0.05032,0.26235 0.468404,-0.28945 0.816474,1.39819 0.79171,3.83854 -0.02409,2.27549 -0.107355,2.74239 -0.963336,5.34638 -0.515895,1.56924 -1.095153,3.86413 -1.287233,5.09978 -0.375295,2.41406 -0.449664,8.03249 -0.124756,9.431617 0.107078,0.461227 0.141088,0.892254 0.07548,0.957814 -0.06558,0.0656 -0.0028,0.258597 0.137861,0.428837 0.141345,0.17026 0.206673,0.360027 0.145107,0.421597 -0.13305,0.13306 0.638905,3.859 1.001324,4.8328 0.139207,0.37398 0.532357,1.26919 0.873762,1.98934 0.575137,1.21324 0.702751,1.33387 1.738449,1.64326 0.614757,0.18365 1.437736,0.33388 1.828772,0.33388 0.73999,0 3.005442,-0.59867 3.399851,-0.89847 0.45202,-0.34358 1.5196,-0.4785 1.819109,-0.22996 0.166506,0.13814 0.251375,0.47397 0.188995,0.74641 -0.06238,0.27245 -0.131982,0.66576 -0.154193,0.874 -0.06024,0.5632 -1.329664,1.57949 -1.819564,1.45688 -0.230494,-0.0575 -0.358643,-0.0445 -0.284784,0.0295 0.160884,0.16097 -0.609163,0.7297 -1.16639,0.86149 -0.217911,0.0513 -0.804321,0.19624 -1.302973,0.32149 -0.955948,0.24013 -3.616399,0.28968 -4.193144,0.0782 z"
       id="path836"
       sodipodi:nodetypes="cscsssscssscssssssssscsssscssssssssssscsssssssscssssssssssssssssccssssssssssccsssscssssssscsssssssssssssssssscsssccsssscsssssssssssssss" />
  </g>
</svg>
