<?xml version="1.0" encoding="UTF-8" standalone="no"?>
<!-- Created with Inkscape (http://www.inkscape.org/) -->

<svg
   width="112.05135mm"
   height="89.45224mm"
   viewBox="0 0 112.05135 89.45224"
   version="1.1"
   id="svg5"
   inkscape:version="1.1.1 (c3084ef, 2021-09-22)"
   sodipodi:docname="logo_gitlab copy.svg"
   xmlns:inkscape="http://www.inkscape.org/namespaces/inkscape"
   xmlns:sodipodi="http://sodipodi.sourceforge.net/DTD/sodipodi-0.dtd"
   xmlns="http://www.w3.org/2000/svg"
   xmlns:svg="http://www.w3.org/2000/svg">
  <sodipodi:namedview
     id="namedview7"
     pagecolor="#ffffff"
     bordercolor="#666666"
     borderopacity="1.0"
     inkscape:pageshadow="2"
     inkscape:pageopacity="0.0"
     inkscape:pagecheckerboard="0"
     inkscape:document-units="mm"
     showgrid="false"
     inkscape:zoom="0.51580387"
     inkscape:cx="-787.12089"
     inkscape:cy="128.92497"
     inkscape:window-width="1312"
     inkscape:window-height="969"
     inkscape:window-x="0"
     inkscape:window-y="25"
     inkscape:window-maximized="0"
     inkscape:current-layer="layer1" />
  <defs
     id="defs2" />
  <g
     inkscape:label="Layer 1"
     inkscape:groupmode="layer"
     id="layer1"
     transform="translate(109.61548,-77.41023)">
    <path
       style="fill:#000000;stroke-width:0.208295"
       d="m -287.69019,225.74966 c -2.80888,-0.21477 -3.24248,-0.27812 -5.7281,-0.83683 -1.94848,-0.43794 -5.27063,-1.54949 -7.08203,-2.36957 -0.34369,-0.15548 -0.99982,-0.43673 -1.45808,-0.62473 -2.05599,-0.8435 -2.63467,-1.11053 -4.79077,-2.21072 -3.84737,-1.96317 -6.66813,-3.8112 -6.42293,-4.20796 0.0772,-0.12497 0.034,-0.15523 -0.1016,-0.0713 -0.29478,0.18205 -1.13252,-0.38935 -3.89011,-2.65399 -1.73331,-1.42348 -6.22557,-6.05555 -7.44338,-7.67503 -0.62912,-0.83664 -1.44929,-2.13042 -1.82257,-2.87506 -0.37331,-0.74467 -0.98501,-1.77573 -1.35937,-2.29126 -0.37434,-0.51553 -0.98648,-1.45286 -1.36028,-2.08294 -0.67889,-1.14435 -3.11577,-5.93077 -3.11577,-6.11983 0,-0.0549 -0.27162,-0.69234 -0.6036,-1.41632 -2.45737,-5.35925 -3.66328,-13.24916 -3.17783,-20.79196 0.22658,-3.51935 0.4521,-5.33863 0.8524,-6.87373 0.10455,-0.40098 0.30051,-1.29144 0.43545,-1.97882 0.13482,-0.68737 0.46308,-1.95276 0.72922,-2.81198 0.26614,-0.85921 0.73773,-2.40322 1.04801,-3.43118 0.6113,-2.02532 3.45345,-8.11605 4.49075,-9.62374 0.35267,-0.51255 0.66017,-1.06105 0.68332,-1.21882 0.0221,-0.1577 0.19042,-0.45543 0.37161,-0.66142 0.18131,-0.20592 0.53056,-0.74944 0.77633,-1.20767 0.24577,-0.45826 0.78032,-1.25499 1.18795,-1.77052 0.40765,-0.51553 0.94392,-1.21178 1.19173,-1.54728 1.51215,-2.04689 4.315,-5.13596 4.53615,-4.9993 0.0989,0.061 0.12891,-0.0221 0.0667,-0.18352 -0.0721,-0.18821 0.95093,-1.30178 2.83259,-3.08315 1.62008,-1.53374 3.10967,-2.88236 3.31019,-2.99693 0.20051,-0.11465 0.77917,-0.6009 1.28586,-1.08071 1.17248,-1.11035 2.41078,-2.003 6.02001,-4.33958 3.71186,-2.40305 3.91377,-2.49449 5.52097,-2.50047 1.40353,-0.005 1.54071,-0.0487 2.35734,-0.74772 0.95763,-0.81968 4.32025,-2.55268 5.58318,-2.87742 0.44369,-0.11416 1.36911,-0.36325 2.05648,-0.55371 4.96956,-1.37709 10.7324,-1.86022 14.78893,-1.23983 1.14563,0.17516 2.20565,0.3191 2.35562,0.31977 0.15007,0 0.22314,0.0814 0.16262,0.17935 -0.0605,0.0979 0.10554,0.13703 0.36939,0.0866 0.67217,-0.12842 6.77473,1.1088 7.94684,1.61125 0.53287,0.2283 1.0578,0.41527 1.16654,0.41527 0.10874,0 0.54621,0.15426 0.97214,0.34303 0.42593,0.18869 0.89481,0.36828 1.04195,0.39921 0.3696,0.0775 2.60085,1.2369 4.10665,2.13364 3.30067,1.96565 6.95216,4.99199 6.63753,5.50107 -0.0824,0.13334 -0.0445,0.16828 0.0915,0.0841 0.41338,-0.25549 6.05499,7.1398 7.25845,9.51475 0.27955,0.55165 0.86185,1.58345 1.29401,2.29286 1.64512,2.70054 3.56922,8.19445 4.20864,12.01703 0.12449,0.74464 0.41491,2.15063 0.64519,3.12442 0.23027,0.97379 0.45965,2.05171 0.50974,2.3954 0.0502,0.34369 0.18526,1.23415 0.30056,1.97879 0.11514,0.74465 0.25079,1.86944 0.3013,2.49954 0.0504,0.6301 0.19682,1.66116 0.32509,2.29124 0.12842,0.6301 0.26663,3.25461 0.30737,5.83226 0.0849,5.37209 -0.25878,8.68297 -1.36227,13.12258 -0.35596,1.43204 -0.83931,3.40043 -1.07414,4.37419 -0.2347,0.97379 -0.60786,2.37638 -0.829,3.1169 -0.22117,0.74051 -0.44155,1.63097 -0.48985,1.97879 -0.0482,0.34784 -0.22289,1.14797 -0.38787,1.77804 -0.25756,0.98346 -0.56823,2.52178 -0.65202,3.22859 -0.0608,0.51309 -0.36022,1.90368 -0.47088,2.18709 -0.15277,0.39149 -0.14785,0.37383 -0.34799,1.24977 -0.0915,0.40096 -0.43776,1.17567 -0.76932,1.72156 -0.33158,0.54589 -0.60287,1.07045 -0.60287,1.16568 0,0.0952 -0.13039,0.44534 -0.28973,0.77798 -0.15942,0.33267 -0.45083,0.95549 -0.64774,1.3841 -0.19682,0.42859 -0.4404,0.72836 -0.54107,0.66612 -0.10062,-0.0623 -0.13482,0.0123 -0.0758,0.1663 0.10382,0.27055 -1.4411,2.49283 -2.71567,3.90634 -4.56254,5.05997 -9.80355,9.27462 -14.62773,11.76314 -1.46061,0.75343 -5.43276,2.61103 -5.58322,2.61103 -0.047,0 -0.59775,0.23446 -1.22392,0.52075 -0.62614,0.28639 -1.2663,0.52072 -1.42257,0.52072 -0.15622,0 -0.37316,0.0831 -0.482,0.18476 -0.38536,0.35967 -4.75217,1.69019 -6.52399,1.98774 -3.82811,0.6429 -7.02941,0.80023 -10.64993,0.52338 z m 6.27884,-3.325 c 3.39056,-0.33414 4.73099,-0.68811 10.48888,-2.76989 3.57875,-1.29388 8.9607,-4.20963 12.706,-6.88364 2.59243,-1.85092 9.47741,-8.83745 9.47741,-9.6172 0,-0.1486 0.0765,-0.30122 0.17024,-0.33943 0.0937,-0.0381 0.4757,-0.67869 0.84898,-1.42334 0.37329,-0.74464 0.89994,-1.66352 1.17033,-2.04194 0.513,-0.71788 1.12283,-2.46126 1.5445,-4.41521 0.13605,-0.63007 0.37661,-1.708 0.53472,-2.39537 0.15819,-0.68737 0.49091,-2.1871 0.73948,-3.33273 0.24858,-1.14563 0.54058,-2.38044 0.6489,-2.74403 0.10825,-0.36361 0.24331,-0.91708 0.30006,-1.22991 0.0568,-0.31286 0.19239,-0.73564 0.30152,-0.93952 0.10924,-0.20395 0.20075,-0.58773 0.20346,-0.85304 0.002,-0.26528 0.18919,-1.03244 0.41407,-1.70475 0.58038,-1.73482 1.61036,-6.96004 1.83251,-9.29649 0.37976,-3.99424 0.2552,-8.22279 -0.3562,-12.0913 -0.11859,-0.75025 -0.31417,-2.24998 -0.43467,-3.3327 -0.4897,-4.40059 -2.51851,-12.29429 -4.01255,-15.61193 -0.23224,-0.51553 -0.69022,-1.53171 -1.01792,-2.25812 -0.32772,-0.72647 -0.78342,-1.55926 -1.01263,-1.85069 -0.22929,-0.29144 -0.4168,-0.70765 -0.4168,-0.92488 0,-0.21724 -0.14073,-0.44901 -0.31245,-0.51497 -0.17196,-0.0659 -0.31244,-0.2438 -0.31244,-0.39517 0,-0.1513 -0.12842,-0.40372 -0.28543,-0.5607 -0.15696,-0.15696 -0.43995,-0.58422 -0.62879,-0.94938 -0.18895,-0.36519 -0.63148,-0.99217 -0.98368,-1.39328 -0.35217,-0.40108 -0.88938,-1.09721 -1.1938,-1.54693 -0.88158,-1.30234 -3.74505,-4.56791 -5.44838,-6.21339 -1.90152,-1.83694 -6.21792,-4.10697 -10.75412,-5.65563 -5.56816,-1.90095 -12.12473,-2.69788 -16.63666,-2.02212 -2.90008,0.43437 -7.02403,1.44275 -8.46943,2.07096 -1.62625,0.7068 -1.90565,0.81473 -2.3168,0.89513 -0.20444,0.0399 -0.57922,0.20419 -0.83316,0.36484 -0.47437,0.30024 -1.78058,0.65751 -2.09794,0.57379 -0.0979,-0.0258 -0.28543,0.0394 -0.41658,0.14515 -0.13113,0.10554 -0.62442,0.25569 -1.09618,0.33343 -0.68226,0.11243 -0.88389,0.0731 -0.98565,-0.19189 -0.11439,-0.29786 -0.17811,-0.30039 -0.60033,-0.0246 -0.25982,0.17025 -0.51927,0.30753 -0.57657,0.30507 -0.39362,-0.0172 -1.32426,0.52741 -4.48044,2.62062 -2.2471,1.4903 -2.24004,1.48502 -3.21031,2.40325 -0.42369,0.40099 -1.4071,1.2897 -2.18533,1.97491 -3.41164,3.00392 -4.5897,4.16146 -6.94328,6.82224 -1.08774,1.22972 -2.07454,2.17597 -2.19292,2.10283 -0.12006,-0.0743 -0.15303,-0.0322 -0.0743,0.095 0.0775,0.12547 -0.13113,0.53827 -0.46362,0.91745 -0.59118,0.67421 -1.32134,1.70185 -3.3018,4.64703 -1.10533,1.64374 -3.11886,5.52388 -4.32364,8.3318 -0.44239,1.03106 -0.92967,1.97882 -1.08284,2.10613 -0.15327,0.12744 -0.31719,0.64423 -0.36448,1.14869 -0.0472,0.50445 -0.18796,1.15015 -0.31242,1.43489 -0.22436,0.51273 -1.18226,4.31301 -1.39066,5.51675 -0.0595,0.34369 -0.24061,1.28588 -0.40234,2.09376 -0.52256,2.60963 -0.70449,5.12036 -0.63315,8.73756 0.11071,5.61035 0.65025,9.40808 1.90128,13.38178 1.36404,4.33261 5.34047,12.16242 7.16745,14.11317 0.32189,0.34368 0.89243,1.18728 1.26787,1.87465 0.73722,1.34973 1.41136,2.22656 3.19306,4.15329 0.62924,0.68046 1.08817,1.32764 1.01985,1.4382 -0.0684,0.11046 -0.0253,0.13973 0.0957,0.0649 0.12104,-0.0748 0.53385,0.17664 0.91745,0.55868 1.16085,1.15623 4.59415,4.08864 5.59234,4.77653 0.51553,0.35525 1.40599,0.96778 1.9788,1.36121 0.57282,0.39343 1.01573,0.80482 0.98424,0.9142 -0.0315,0.10923 0.0354,0.14171 0.14835,0.0718 0.11317,-0.0699 0.58089,0.10972 1.03945,0.39916 1.24152,0.78377 5.64898,2.93507 7.08828,3.45987 0.69215,0.25237 1.25845,0.54555 1.25845,0.65153 0,0.10603 0.0768,0.1454 0.17025,0.0873 0.0937,-0.0578 1.24524,0.25878 2.55905,0.70375 5.70175,1.93107 9.42277,2.40187 14.79739,1.8722 z m -6.21163,-11.27405 c -1.05135,-0.074 -2.0355,-0.21109 -2.18697,-0.30477 -0.15155,-0.0935 -0.51819,-0.14466 -0.81496,-0.11366 -0.53071,0.0556 -3.76084,-0.44096 -5.18878,-0.79776 -0.40096,-0.10013 -1.26475,-0.2967 -1.91953,-0.43668 -0.65477,-0.13999 -1.15606,-0.3106 -1.11399,-0.37919 0.0421,-0.0686 -0.3595,-0.12448 -0.89245,-0.12448 -0.53292,1.4e-4 -1.01583,-0.0581 -1.07311,-0.12916 -0.0573,-0.0711 -1.18206,-0.48493 -2.49953,-0.91944 -2.27269,-0.74957 -5.50994,-2.27392 -6.30093,-2.96695 -0.20051,-0.17566 -0.3645,-0.25347 -0.3645,-0.17295 0,0.35417 -2.14092,-1.35787 -3.9247,-3.13852 -1.07025,-1.06833 -2.03436,-1.94243 -2.14246,-1.94243 -0.40094,0 -2.14975,-1.72168 -2.85639,-2.81198 -1.29177,-1.99321 -3.99075,-7.38004 -3.99075,-7.96507 0,-0.10923 -0.15056,-0.50032 -0.33449,-0.86911 -0.36715,-0.73598 -1.21461,-4.10217 -1.44668,-5.74647 -0.0809,-0.57281 -0.18279,-1.22894 -0.22658,-1.45808 -0.0438,-0.22904 -0.12916,-0.69778 -0.18968,-1.04146 -0.0605,-0.34369 -0.26063,-1.37475 -0.44448,-2.29126 -0.27104,-1.35098 -0.3102,-2.45474 -0.2069,-5.83224 0.0701,-2.29126 0.21871,-4.72831 0.3302,-5.41569 0.1117,-0.68737 0.25606,-1.57783 0.32106,-1.97879 0.065,-0.40096 0.17123,-1.10395 0.23617,-1.56221 0.61982,-4.37451 1.83901,-8.7245 3.00656,-10.72718 0.43415,-0.74467 0.85631,-1.58826 0.93819,-1.87465 0.0819,-0.28642 0.26506,-0.66135 0.40706,-0.83319 0.14195,-0.17172 0.56222,-0.9217 0.93381,-1.66635 1.0363,-2.07671 2.51491,-4.20784 2.83442,-4.08522 0.16114,0.0617 0.23593,-0.002 0.1786,-0.15081 -0.12104,-0.31507 1.12512,-2.014 2.99232,-4.07993 1.65995,-1.83662 3.30062,-3.32451 5.35528,-4.85658 0.11465,-0.0854 0.60867,-0.47831 1.09803,-0.8731 0.48935,-0.39478 1.40323,-1.01157 2.03087,-1.37068 0.62762,-0.35909 1.14113,-0.75538 1.14113,-0.88062 0,-0.12523 0.0524,-0.17541 0.11637,-0.11145 0.064,0.064 0.64429,-0.20173 1.2896,-0.5902 0.64528,-0.38856 1.24438,-0.70648 1.3313,-0.70648 0.0868,0 0.57863,-0.28386 1.09268,-0.63079 0.51408,-0.34696 1.35849,-0.81831 1.87648,-1.04742 0.51799,-0.22904 0.99361,-0.50045 1.05696,-0.60294 0.0635,-0.10259 0.41872,-0.25124 0.78974,-0.33055 0.371,-0.0792 0.78217,-0.23077 0.91369,-0.33633 0.13162,-0.10579 0.41269,-0.23618 0.62488,-0.29013 0.21207,-0.0539 1.35959,-0.42751 2.54983,-0.83026 1.19026,-0.40276 2.78371,-0.82192 3.54103,-0.9315 3.09664,-0.448 8.88207,-0.0576 10.40322,0.70216 0.30541,0.15253 1.16452,0.39639 1.90919,0.5419 1.29022,0.25215 4.42507,1.11112 5.31152,1.4554 1.24596,0.48389 2.77142,1.03598 3.22857,1.16841 1.04451,0.30265 4.93265,2.33155 6.35298,3.31513 3.45859,2.39508 4.55379,3.31967 6.9779,5.89077 1.99997,2.12131 2.81923,3.15459 2.78341,3.5106 -0.0148,0.15622 0.0431,0.23962 0.13039,0.18574 0.27751,-0.17147 3.12671,4.52783 3.12671,5.15707 0,0.15302 0.0822,0.36706 0.1823,0.4759 0.3926,0.42595 1.67846,4.90199 2.1811,7.59234 0.0534,0.28642 0.23986,1.22375 0.41434,2.08296 0.75803,3.73509 0.85597,9.4442 0.24479,14.26818 -0.24085,1.90066 -1.27617,7.09633 -1.68884,8.47509 -0.16065,0.53705 -0.29409,1.24005 -0.29633,1.56221 -0.005,0.72408 -1.77172,5.84223 -2.10753,6.10557 -0.0731,0.0573 -0.28829,0.47909 -0.47831,0.93732 -0.18992,0.45826 -0.56222,1.16125 -0.82713,1.56221 -0.26489,0.40099 -0.93913,1.43153 -1.4983,2.29013 -0.55915,0.85858 -1.53318,2.18356 -2.16449,2.94434 -0.6313,0.76076 -1.28842,1.5969 -1.46026,1.85805 -0.68361,1.03888 -1.04137,1.28906 -1.41992,0.99285 -0.31554,-0.24688 -0.32166,-0.23741 -0.0615,0.0942 0.25042,0.31913 0.23839,0.42452 -0.0905,0.78782 -0.20887,0.23076 -0.71131,0.62444 -1.11678,0.87501 -0.40543,0.25059 -1.02087,0.77931 -1.36761,1.17498 -2.45132,2.79707 -5.43989,5.18553 -8.2332,6.57996 -0.63007,0.31453 -1.2862,0.69074 -1.45804,0.83602 -0.55404,0.46837 -3.36535,1.31112 -6.14471,1.84203 -4.20486,0.80317 -8.61524,1.15761 -11.70143,0.94035 z m 4.41112,-3.72087 c 2.53403,-0.17959 7.11372,-0.89762 7.37199,-1.15586 0.0485,-0.0487 0.232,0.028 0.40783,0.17024 0.22191,0.17959 0.2746,0.18377 0.17246,0.0123 -0.0898,-0.14982 0.0364,-0.29894 0.32452,-0.383 1.44963,-0.4229 5.16553,-2.47435 6.19979,-3.42272 0.6301,-0.57775 1.20322,-1.05084 1.27363,-1.05131 0.0704,0 0.44532,-0.28781 0.83316,-0.63854 0.38788,-0.35072 1.08012,-0.88052 1.53838,-1.17731 1.7699,-1.14635 5.51163,-5.1506 7.96819,-8.52729 1.28263,-1.76306 3.90444,-7.15879 4.53907,-9.34156 2.40566,-8.27389 3.29823,-15.86821 2.61093,-22.21452 -0.25457,-2.35068 -1.12899,-6.64304 -1.70025,-8.3462 -0.21969,-0.6551 -0.39951,-1.30037 -0.39951,-1.43396 0,-0.48392 -1.82532,-4.07408 -2.77574,-5.4595 -0.53548,-0.78054 -0.97374,-1.48354 -0.97393,-1.56221 -2.2e-4,-0.0787 -0.46569,-0.65857 -1.03441,-1.28867 -0.56869,-0.6301 -1.03721,-1.25144 -1.04109,-1.38077 -0.01,-0.35508 -2.67372,-2.79614 -4.29943,-3.94103 -0.78967,-0.55612 -1.95129,-1.40018 -2.58139,-1.87574 -2.45412,-1.85214 -6.69038,-3.62922 -11.35206,-4.76216 -3.03215,-0.7369 -3.70692,-0.96085 -3.9678,-1.31683 -0.12006,-0.16385 -0.52038,-0.36044 -0.88938,-0.43661 -0.62053,-0.12818 -5.51342,0.0406 -6.70319,0.23126 -1.28018,0.20493 -2.89518,0.66638 -3.85347,1.10093 -0.5728,0.25972 -1.87603,0.82295 -2.89602,1.25166 -4.83294,2.03114 -10.53472,5.88398 -14.29306,9.65813 -2.87589,2.88798 -5.82466,6.76937 -7.13109,9.38638 -0.60048,1.20291 -1.15724,2.2365 -1.23722,2.29687 -0.0799,0.0603 -0.44062,0.76337 -0.80143,1.56222 -0.36078,0.79884 -0.78516,1.73363 -0.94303,2.07732 -0.7151,1.55675 -1.87374,7.23262 -2.29611,11.24792 -0.0603,0.57283 -0.15105,1.27582 -0.20198,1.56221 -0.23544,1.32646 -0.31428,6.31417 -0.1235,7.81106 0.20297,1.59164 1.29592,7.85165 1.60022,9.16499 0.47711,2.05927 2.61933,6.93957 4.1578,9.4722 0.80713,1.32869 3.19094,3.75686 4.54542,4.63 0.48037,0.30968 1.29521,0.88126 1.81074,1.27014 3.62017,2.73099 5.30687,3.65783 8.01936,4.40674 1.14563,0.3163 2.78595,0.78799 3.64517,1.04818 1.28015,0.38767 4.66019,0.97229 8.22764,1.42306 1.24465,0.15721 3.39076,0.13359 6.24884,-0.0689 z m -3.11259,-3.32845 c -1.70396,-0.32799 -2.36624,-2.26232 -1.69998,-4.96525 0.57283,-2.3239 1.7317,-3.12565 4.55514,-3.15146 0.6845,-0.007 1.21001,0.13359 1.6941,0.45095 0.89866,0.58909 1.85744,2.15841 1.82904,2.99377 -0.0335,0.98153 -0.74592,2.44507 -1.499,3.07873 -0.84296,0.7093 -2.24206,1.4353 -2.48119,1.28749 -0.0987,-0.061 -0.44699,0.0285 -0.77397,0.19927 -0.32696,0.17049 -0.64134,0.29985 -0.69864,0.28738 -0.0573,-0.0123 -0.47376,-0.0937 -0.9255,-0.18083 z m 2.80015,-4.3642 c 0,-0.10776 -0.0937,-0.25394 -0.20838,-0.32472 -0.11464,-0.0709 -0.20837,0.0172 -0.20837,0.19608 0,0.17861 0.0937,0.32472 0.20837,0.32472 0.11465,0 0.20838,-0.0881 0.20838,-0.19608 z m -18.27925,-1.28849 c -0.37309,-0.23815 -0.73417,-0.65527 -0.80241,-0.92717 -0.26619,-1.06051 1.10895,-3.83721 1.89733,-3.83111 0.69591,0.005 1.41104,0.7014 1.40769,1.37015 -0.002,0.64144 -0.65017,3.22037 -0.86379,3.44324 -0.34952,0.36462 -1.0161,0.34221 -1.63882,-0.0551 z m 30.72046,-4.0433 c -0.4265,-0.28981 -0.96535,-0.89917 -1.19744,-1.35413 -0.38566,-0.75589 -0.3953,-0.87878 -0.11194,-1.42653 0.6209,-1.20069 2.3366,-0.97045 3.03982,0.40794 1.02242,2.00414 -0.0694,3.50132 -1.73034,2.37272 z m -42.39476,-8.01626 c -0.48074,-0.21527 -0.88126,-0.46621 -0.89002,-0.55772 -0.01,-0.0915 -0.0455,-0.31788 -0.0817,-0.50304 -0.0362,-0.185 -0.005,-0.41997 0.0679,-0.52192 0.20641,-0.28595 1.54814,-1.23902 1.95626,-1.38941 0.2005,-0.0738 0.36452,-0.23101 0.36452,-0.3492 0,-0.11809 0.28567,-0.21477 0.63482,-0.21477 0.67603,0 1.63622,0.82074 1.6804,1.4364 0.0782,1.08946 -0.17024,1.53758 -1.1275,2.03252 -0.92866,0.48025 -1.64123,0.49863 -2.60488,0.0672 z m 51.82601,-1.78442 c -1.67867,-0.72924 -2.17071,-1.95082 -1.11903,-2.77805 0.30186,-0.23741 0.72039,-0.43171 0.93009,-0.43171 0.46729,0 1.83894,1.1733 2.05526,1.75801 0.16778,0.45381 -0.12621,1.57471 -0.41309,1.57471 -0.094,0 -0.29571,0.0436 -0.44829,0.0964 -0.15253,0.0531 -0.60479,-0.0458 -1.00494,-0.21945 z m -55.51206,-9.34854 c -0.57283,-0.16508 -1.11119,-0.30413 -1.19641,-0.30917 -0.0851,-0.005 -0.43668,-0.39818 -0.78111,-0.87364 -0.46069,-0.63598 -0.62378,-1.09015 -0.61704,-1.71843 0.0123,-1.16607 0.46429,-2.34127 1.08908,-2.83272 0.28587,-0.22486 0.66801,-0.77933 0.84917,-1.2321 0.29936,-0.74814 0.41587,-0.83619 1.27728,-0.96538 1.24829,-0.18722 3.17832,0.51829 4.23531,1.54812 0.42222,0.41139 0.86141,0.72703 0.97596,0.70144 0.11464,-0.0256 0.22018,0.16311 0.2347,0.41934 0.0148,0.2562 0.0819,0.68892 0.14957,0.96163 0.14909,0.60132 -0.6794,2.45034 -1.43784,3.20879 -1.19782,1.19781 -2.98983,1.60735 -4.7787,1.09212 z m 2.5218,-3.98057 c -0.0696,-0.18131 -0.12645,-0.41554 -0.12645,-0.52074 0,-0.1053 -0.0937,-0.19116 -0.20838,-0.19116 -0.23273,0 -0.2855,0.68654 -0.0694,0.90262 0.26363,0.26363 0.53022,0.13777 0.40418,-0.19067 z m 57.79942,1.13478 c -2.18816,-0.36204 -3.34225,-1.57237 -3.39453,-3.55994 -0.0509,-1.93737 1.20681,-3.49422 2.82308,-3.49422 2.2935,0 5.75895,2.04148 5.75895,3.39256 0,0.68779 -1.05517,2.63045 -1.65632,3.04941 -0.29192,0.20346 -0.81198,0.42416 -1.15566,0.49042 -0.34369,0.0662 -0.76549,0.16261 -0.93733,0.21428 -0.17197,0.0517 -0.81904,0.01 -1.43819,-0.0925 z m -32.023,-1.30032 c -1.10639,-0.62021 -1.07087,-0.43491 -1.09481,-5.70926 -0.0637,-14.05299 -0.26174,-21.46006 -0.58773,-21.98942 -0.0603,-0.0979 -0.14392,-0.61723 -0.18575,-1.15404 -0.0713,-0.91182 -0.0322,-1.00203 0.5933,-1.37152 0.97088,-0.57352 2.0076,-0.45327 2.71097,0.31446 l 0.57282,0.62522 0.0123,4.00638 c 0.007,2.2035 0.0713,6.44344 0.14392,9.42205 0.0728,2.97861 0.13777,6.89189 0.14442,8.69613 0.007,1.80425 0.0507,3.28055 0.0974,3.28065 0.047,9e-5 0.62579,-0.51536 1.28638,-1.14544 0.66058,-0.6301 1.30571,-1.14563 1.43361,-1.14563 0.12793,0 0.34576,-0.0964 0.48412,-0.21428 0.13826,-0.11784 1.00144,-0.75906 1.91795,-1.42498 1.77285,-1.28815 2.97307,-2.50247 4.58688,-4.6407 1.51094,-2.00197 1.8408,-2.26398 3.02724,-2.40451 1.55262,-0.18377 2.60073,0.22437 2.97307,1.15784 0.33801,0.84745 0.20248,1.18642 -1.01017,2.52751 -0.36258,0.40096 -1.0871,1.29142 -1.61006,1.97879 -1.42393,1.87163 -5.04828,5.10324 -5.7234,5.10324 -0.12646,0 -0.2613,0.0704 -0.29948,0.15622 -0.0381,0.0859 -0.42251,0.33584 -0.85402,0.55541 -0.43152,0.21945 -1.36885,0.90658 -2.08296,1.52671 -0.71409,0.62014 -1.55611,1.28087 -1.87116,1.46831 -0.31505,0.18746 -0.5728,0.41759 -0.5728,0.51149 0,0.094 -0.19633,0.0657 -0.436,-0.0625 -0.23986,-0.12843 -0.66257,-0.1764 -0.93951,-0.10702 -1.04575,0.26247 -2.28558,0.28021 -2.71611,0.0389 z m -23.03879,-13.39603 c -0.2005,-0.0524 -0.36452,-0.1759 -0.36452,-0.27423 0,-0.0984 -0.18697,-0.23839 -0.41535,-0.31082 -0.22855,-0.0726 -0.55652,-0.27298 -0.72903,-0.44549 -0.33699,-0.337 -0.43368,-1.32542 -0.12965,-1.32542 0.10112,0 0.232,-0.18328 0.29045,-0.40711 0.15056,-0.57605 1.04912,-0.73515 2.36669,-0.41907 1.30148,0.31222 2.15792,0.99869 2.15792,1.72961 0,0.61905 -0.78249,1.17953 -1.64672,1.17953 -0.34096,0 -0.67785,0.0937 -0.74866,0.20837 -0.13432,0.21699 -0.18254,0.22117 -0.7811,0.0647 z m 51.81335,-5.04506 c -0.22905,-0.0932 -0.51617,-0.13211 -0.63785,-0.0868 -0.12178,0.0455 -0.34674,-0.15179 -0.50008,-0.43833 -0.22609,-0.42268 -0.2288,-0.58119 -0.0123,-0.84047 0.14589,-0.17566 0.35953,-0.31955 0.47482,-0.31955 0.11538,0 0.57752,-0.33237 1.02717,-0.73859 1.48238,-1.33925 2.38566,-1.44066 3.37061,-0.37845 0.42394,0.45722 0.47583,0.64882 0.32362,1.19527 -0.29481,1.05832 -1.25455,1.72085 -2.53613,1.75076 -0.6006,0.0148 -1.27943,-0.0507 -1.50855,-0.14392 z m -43.15564,-6.99794 c -1.55454,-0.65522 -1.74363,-3.42516 -0.25611,-3.75187 0.50089,-0.10997 0.73805,-0.0123 1.34833,0.56009 1.05598,0.98904 1.61665,1.96211 1.46916,2.54977 -0.19115,0.76207 -1.49893,1.08984 -2.56138,0.64201 z m 31.77287,-2.11693 c -0.56097,-0.14909 -0.60803,-0.91474 -0.15056,-2.45063 0.55735,-1.87148 1.37226,-2.71375 2.43306,-2.51472 0.87304,0.16385 1.49756,0.53278 1.49756,0.88488 0,0.14416 0.10554,0.26232 0.23421,0.26232 0.31333,0 0.0878,1.09149 -0.4589,2.22073 -0.65736,1.35797 -2.06906,1.99223 -3.55542,1.59742 z m -17.48346,-6.50382 c -0.83914,-0.17271 -2.19266,-0.93935 -2.74251,-1.55343 -1.08252,-1.209 0.2938,-3.86043 2.51339,-4.84204 1.12913,-0.49935 1.17368,-0.50269 2.31318,-0.17271 0.63906,0.18501 1.28525,0.43799 1.43601,0.56203 0.50303,0.41382 0.87555,1.37907 1.00306,2.59888 0.11637,1.11397 0.0753,1.28352 -0.53012,2.18043 -0.36098,0.53489 -0.81737,1.01942 -1.01413,1.07672 -0.75911,0.22117 -2.26516,0.29692 -2.97888,0.15007 z m 49.94216,10.14525 c -0.0664,-0.16607 -0.11588,-0.11686 -0.12572,0.12596 -0.01,0.21945 0.0401,0.3426 0.10948,0.2734 0.0691,-0.0691 0.0765,-0.24887 0.0172,-0.39924 z"
       id="path921"
       sodipodi:nodetypes="sssssscsssssssssssssccsscscsssscsssscsscsscsscssssscscsscssssssssssssssssssssscsssssssssssscsssssssscsssssssssccscssccssssscssssscscssssssssssscssscscccccssscsssssssssssssscscssssscssssssssssssssssssssssccscccssssssssssssscsssccccscsscsssssssssscssssscscsssssscsssscsssccsscssssccsssssssssccsssscsssccscsssssccssssscssssscssssscsssssssssscssssssccsscssccccsssssscsssssssssccccssssssssscssccscsssscccsscssssssssssssssssssssccccc" />
  </g>
</svg>
