<?xml version="1.0" encoding="UTF-8" standalone="no"?>
<!-- Created with Inkscape (http://www.inkscape.org/) -->

<svg
   width="113.6012mm"
   height="92.082306mm"
   viewBox="0 0 113.6012 92.082306"
   version="1.1"
   id="svg5"
   inkscape:version="1.1.1 (c3084ef, 2021-09-22)"
   sodipodi:docname="music copy 5.svg"
   xmlns:inkscape="http://www.inkscape.org/namespaces/inkscape"
   xmlns:sodipodi="http://sodipodi.sourceforge.net/DTD/sodipodi-0.dtd"
   xmlns="http://www.w3.org/2000/svg"
   xmlns:svg="http://www.w3.org/2000/svg">
  <sodipodi:namedview
     id="namedview7"
     pagecolor="#ffffff"
     bordercolor="#666666"
     borderopacity="1.0"
     inkscape:pageshadow="2"
     inkscape:pageopacity="0.0"
     inkscape:pagecheckerboard="0"
     inkscape:document-units="mm"
     showgrid="false"
     inkscape:zoom="0.62793048"
     inkscape:cx="42.99839"
     inkscape:cy="625.06919"
     inkscape:window-width="1946"
     inkscape:window-height="1223"
     inkscape:window-x="0"
     inkscape:window-y="25"
     inkscape:window-maximized="0"
     inkscape:current-layer="layer1" />
  <defs
     id="defs2" />
  <g
     inkscape:label="Layer 1"
     inkscape:groupmode="layer"
     id="layer1"
     transform="translate(-86.448703,-148.30937)">
    <path
       id="path836-7"
       style="fill:#00a400;fill-opacity:0.564865;stroke-width:0.0846667"
       d="m 185.85613,175.70345 -1.61901,0.43356 c 6.3e-4,0.001 0.001,0.002 0.002,0.004 0.25135,0.46567 0.46061,0.86554 0.46561,0.88884 0.005,0.0233 0.0769,0.19458 0.15968,0.38085 0.0828,0.18626 0.24209,0.69973 0.35399,1.1405 0.17563,0.69202 0.19251,0.87953 0.12401,1.37356 -0.0864,0.62387 -0.35267,1.27641 -0.77825,1.90738 -0.25326,0.37548 -1.50595,1.74948 -1.60144,1.75648 -0.0233,0.002 -0.16963,0.0939 -0.32504,0.20464 -0.18278,0.13024 -0.41154,0.20435 -0.64752,0.21135 -0.20066,0.006 -0.35007,0.0345 -0.33229,0.0641 0.0625,0.1032 -0.41785,0.13903 -0.67281,0.0501 -0.18079,-0.0632 -0.2658,-0.0631 -0.28681,0 -0.0164,0.0495 -0.10392,0.0703 -0.19481,0.0465 -0.19764,-0.0517 -0.21987,0.11572 -0.0475,0.36173 0.26122,0.37298 0.87907,0.5786 1.9141,0.63769 0.89559,0.0511 1.24359,0.11316 1.35443,0.24133 0.0233,0.0269 0.1951,0.10028 0.38137,0.16278 0.51861,0.17403 1.12022,0.60289 1.83089,1.30483 1.38136,1.36437 2.35373,3.15423 2.60916,4.80332 0.11237,0.72604 0.10274,2.69315 -0.016,3.28507 -0.45641,2.27489 -1.13769,3.84015 -2.60398,5.98258 -0.53978,0.78869 -2.06957,2.36863 -2.62464,2.71043 -0.47704,0.29376 -0.85426,0.64091 -0.79685,0.73381 0.0241,0.0391 -0.006,0.0533 -0.0667,0.0315 -0.0606,-0.0218 -0.28139,0.0919 -0.49094,0.25322 -0.93958,0.72345 -1.60914,1.12035 -3.76772,2.23293 -0.37253,0.19201 -0.72522,0.38879 -0.7834,0.43719 -0.0582,0.0481 -0.10594,0.0706 -0.10594,0.0491 0,-0.0333 -0.859,0.29436 -1.7353,0.66198 -0.68728,0.28833 -2.24229,0.67354 -3.09078,0.76584 -0.25601,0.0279 -0.96094,0.10615 -1.56631,0.17415 -3.04598,0.34224 -5.29119,0.35125 -8.50902,0.0336 -0.48895,-0.0483 -1.02198,-0.1202 -1.18494,-0.1602 -0.16298,-0.04 -0.48702,-0.0991 -0.71985,-0.13074 -0.41704,-0.0568 -1.71233,-0.35536 -2.53992,-0.58549 -1.53432,-0.42666 -3.4394,-1.40282 -3.49589,-1.79111 -0.0171,-0.11751 -0.2083,-0.25449 -0.62375,-0.44803 -0.91329,-0.42551 -1.15681,-0.45773 -1.50635,-0.19792 -0.14923,0.11095 -0.22419,0.25619 -0.24236,0.46974 -0.0151,0.17786 0.0119,0.30902 0.0635,0.30902 0.3067,0 -0.16703,0.32758 -1.47899,1.02268 -1.6233,0.86005 -3.97373,1.36019 -6.40528,1.36219 -0.77671,7e-4 -1.48153,-0.0185 -1.56633,-0.0424 -0.0848,-0.024 -0.62873,-0.0689 -1.20922,-0.0997 -0.58047,-0.0308 -1.47622,-0.12984 -1.99007,-0.22014 -0.51382,-0.0903 -1.06741,-0.18613 -1.23039,-0.21343 -0.16298,-0.0273 -0.71562,-0.18287 -1.22785,-0.34571 -0.51224,-0.16283 -1.00761,-0.31443 -1.10069,-0.33693 -0.0931,-0.0225 -0.35939,-0.13799 -0.59222,-0.25632 -1.50389,-0.76426 -2.64544,-1.89672 -3.21945,-3.19464 -0.15637,-0.35356 -0.19902,-0.60174 -0.20101,-1.16737 -0.001,-0.39514 -0.0419,-0.89388 -0.0899,-1.10794 -0.0902,-0.40256 -0.47167,-1.3291 -0.57981,-1.4087 -0.0338,-0.0249 -0.1688,-0.17565 -0.29972,-0.33486 -0.68744,-0.83594 -1.61954,-1.18858 -2.36265,-0.894 -0.25074,0.0994 -0.19431,0.62929 0.10129,0.95291 0.13708,0.15008 0.27969,0.27304 0.31729,0.27388 0.0376,5.7e-4 0.22471,0.14625 0.4155,0.3235 0.29093,0.27039 0.35591,0.39284 0.4046,0.75964 0.041,0.30905 0.10702,0.46307 0.22481,0.52607 0.2231,0.11942 0.2144,0.48746 -0.016,0.6873 -0.1003,0.087 -0.13793,0.15812 -0.0842,0.15812 0.31989,0 -0.1089,0.94991 -0.88265,1.95544 -0.57771,0.75078 -2.13505,2.12057 -3.29541,2.89801 -2.15192,1.44186 -4.049,2.16307 -6.73136,2.56005 -1.69918,0.25146 -5.5458,0.20921 -8.42429,-0.0925 -0.18627,-0.0195 -0.68161,-0.057 -1.10071,-0.0832 -0.4191,-0.0261 -0.85717,-0.0645 -0.97358,-0.0853 -0.11642,-0.0207 -0.44046,-0.0582 -0.71986,-0.0832 -1.29987,-0.11623 -1.57801,-0.14687 -2.3704,-0.262 -0.46565,-0.0677 -1.03736,-0.15652 -1.2702,-0.19792 -0.45073,-0.0801 -3.00312,-0.72907 -4.03646,-1.02629 -0.340947,-0.0981 -0.696514,-0.20016 -0.789614,-0.22686 -0.0931,-0.0267 -0.24399,-0.0997 -0.33589,-0.16227 -0.09186,-0.0626 -0.218955,-0.1142 -0.282156,-0.1142 -0.219041,0 -2.249607,-1.05781 -2.857706,-1.4888 -0.137142,-0.0972 -0.306306,-0.20194 -0.376206,-0.23254 -0.37597,-0.16453 -1.2993,-0.87606 -1.93063,-1.48777 -0.24496,-0.23735 -0.48867,-0.4315 -0.541571,-0.4315 -0.0531,0 -0.07446,-0.0216 -0.04806,-0.048 0.02638,-0.0264 -0.08683,-0.18244 -0.251663,-0.34727 -0.424469,-0.42447 -1.800408,-2.29279 -1.800408,-2.44481 0,-0.009 -0.09868,-0.21904 -0.160197,-0.3545 l -1.533755,0.41082 c 0.399711,0.80926 0.833419,1.53245 0.939993,1.46658 0.0415,-0.0255 0.05552,0.005 0.03152,0.0672 -0.07334,0.19117 0.832742,1.28489 1.996263,2.40916 1.076939,1.0406 3.402468,2.53376 4.863269,3.1228 0.596469,0.2405 0.762405,0.27865 0.826304,0.18966 0.0611,-0.0851 0.07032,-0.0796 0.03772,0.0238 -0.03394,0.1075 0.167994,0.20634 0.986504,0.48214 1.290123,0.43472 3.315643,0.9907 4.389403,1.20457 1.75799,0.35016 4.95045,0.74699 5.8477,0.72709 0.22123,-0.005 0.41215,0.0164 0.42375,0.0476 0.0201,0.054 1.43658,0.18508 3.53467,0.32711 v 5.1e-4 c 1.78162,0.1206 5.40659,0.0292 6.68848,-0.16846 2.16055,-0.3331 3.60064,-0.78146 5.37382,-1.67432 0.59034,-0.29723 2.79995,-1.71826 3.14608,-2.02313 0.099,-0.0872 0.38484,-0.32859 0.63511,-0.5364 0.70358,-0.5844 1.75942,-1.66126 1.83864,-1.87534 0.0665,-0.17991 0.0908,-0.16245 0.3674,0.2682 0.32964,0.51314 1.14379,1.33375 1.83451,1.84898 1.95435,1.45776 6.13561,2.46518 10.72288,2.58382 3.57933,0.0926 6.9588,-0.71875 9.37461,-2.25102 l 0.39997,-0.25373 0.24858,0.17725 c 0.70212,0.49996 2.9396,1.36234 4.72736,1.82211 0.91789,0.23607 2.99863,0.62257 3.87625,0.72037 2.92849,0.32639 6.34455,0.34155 8.33954,0.0367 0.16298,-0.0249 0.3725,-0.0422 0.46561,-0.0382 0.53488,0.0213 2.35326,-0.2711 3.72533,-0.59893 1.77798,-0.4248 5.05921,-1.83362 6.49989,-2.79053 0.27326,-0.18159 0.51477,-0.33021 0.53586,-0.33021 0.0853,0 1.2019,-0.7244 1.55805,-1.01079 0.20955,-0.16851 0.48432,-0.37197 0.61082,-0.45217 0.49305,-0.31253 2.63668,-2.26239 2.48719,-2.26239 -0.0401,0 0.0294,-0.0803 0.15451,-0.1788 0.20633,-0.16229 0.81585,-0.90882 1.02061,-1.25006 0.0453,-0.0755 0.22159,-0.34694 0.39118,-0.60306 0.40521,-0.61184 0.59055,-0.98198 0.52504,-1.04748 -0.0292,-0.0292 -0.007,-0.0532 0.048,-0.0532 0.0555,0 0.13322,-0.0859 0.17312,-0.19069 0.0399,-0.10477 0.18925,-0.43784 0.33176,-0.74052 0.8845,-1.87836 1.25735,-3.7332 1.16377,-5.79241 -0.0533,-1.17166 -0.0854,-1.403 -0.32351,-2.33578 -0.15724,-0.61606 -0.82767,-2.12261 -0.9684,-2.17661 -0.061,-0.0234 -0.11059,-0.11208 -0.11059,-0.19688 0,-0.0848 -0.0486,-0.20464 -0.10801,-0.26614 -0.0594,-0.0615 -0.18354,-0.23057 -0.27543,-0.37568 -0.20238,-0.31944 -0.61481,-0.81393 -1.18287,-1.41749 -0.6667,-0.70833 -2.00811,-1.54212 -2.73936,-1.70274 -0.1465,-0.0322 -0.26668,-0.078 -0.26668,-0.1018 0,-0.0238 0.34232,-0.38447 0.76068,-0.80202 0.41836,-0.41757 0.89339,-0.95945 1.05577,-1.20406 0.38539,-0.58066 0.7453,-1.4006 0.69659,-1.58698 -0.0262,-0.10005 -8.2e-4,-0.13271 0.0796,-0.10181 0.0986,0.0378 0.11366,-0.15013 0.0889,-1.12861 -0.0282,-1.11574 -0.0454,-1.21509 -0.3488,-2.02003 -0.21931,-0.58155 -0.55488,-1.28567 -0.87852,-1.87637 z m -16.75453,46.45453 -1.03404,0.2775 c 0.0105,0.28064 -0.0127,0.58544 -0.0791,0.75499 -0.0495,0.12634 -0.24908,0.33003 -0.44339,0.45269 -0.51271,0.32366 -2.50656,0.94552 -3.50986,1.0945 -0.9158,0.1359 -1.06158,0.14063 -1.61438,0.0501 -0.50316,-0.0824 -0.74252,-0.29069 -0.78237,-0.62993 l -0.88678,0.23771 c 0.0233,0.0543 0.0267,0.0917 0.0589,0.15761 0.39196,0.80112 1.0572,1.33548 1.86087,1.49448 1.08188,0.21405 3.28401,-0.1601 4.88342,-0.82992 0.79171,-0.33156 1.21454,-0.674 1.48105,-1.19993 0.29618,-0.58449 0.33941,-0.98854 0.1695,-1.57303 -0.0318,-0.10933 -0.07,-0.18862 -0.10388,-0.2868 z m 10.51409,9.22889 -1.22782,0.32866 c -0.18066,0.17184 -0.51568,0.38123 -1.03458,0.632 -0.5239,0.2532 -1.10461,0.5166 -1.29087,0.5855 -0.37889,0.14022 -1.22783,0.2746 -1.22783,0.1943 0,-0.0286 0.0988,-0.20865 0.21963,-0.39997 0.0369,-0.0585 0.0825,-0.0965 0.12298,-0.15142 l -1.39941,0.37518 c 0.005,0.17736 0.0448,0.32207 0.20053,0.56637 0.3012,0.47266 0.58629,0.67573 1.05781,0.75293 0.19187,0.0314 0.38698,0.0617 0.43357,0.0667 0.0466,0.005 0.32824,-0.0291 0.62632,-0.0775 0.70575,-0.11452 1.59028,-0.42656 2.19366,-0.77411 0.26514,-0.15273 0.59616,-0.33945 0.73586,-0.41444 0.26718,-0.14351 0.59859,-0.6984 0.68421,-1.14619 0.0286,-0.14968 -0.0202,-0.36648 -0.0941,-0.53795 z m 11.48665,4.69067 -1.21182,0.32453 c -0.0459,0.0625 -0.14719,0.13921 -0.27905,0.1943 -0.31761,0.1327 -0.38344,0.14627 -0.38344,0.0791 0,-0.0189 0.10446,-0.0872 0.19275,-0.14728 l -1.7689,0.47387 c 0.0528,0.23761 0.20783,0.47482 0.46718,0.74104 0.47151,0.48408 0.63378,0.50991 1.60557,0.25477 0.78666,-0.20653 1.23761,-0.50649 1.46502,-0.97462 0.19624,-0.40392 0.17103,-0.65994 -0.0873,-0.94568 z m 8.85113,3.1502 -1.32807,0.35605 c 0.0199,0.064 0.0445,0.13032 0.0739,0.19895 0.17227,0.40188 0.30253,0.5398 0.56171,0.5948 0.26522,0.0563 0.49149,-0.0564 0.64802,-0.32298 0.17278,-0.2942 0.1855,-0.57666 0.0444,-0.82682 z" />
    <path
       style="fill:#000000;stroke-width:0.0846667"
       d="m 198.20267,239.31938 c -0.25919,-0.055 -0.38962,-0.19315 -0.56189,-0.59503 -0.39577,-0.92329 0.0888,-1.45543 0.86314,-0.94785 0.4952,0.32461 0.6183,0.75758 0.34683,1.21984 -0.15653,0.26654 -0.38285,0.37935 -0.64808,0.32304 z m -11.14177,-2.63437 c -0.71002,-0.72892 -0.65743,-1.24007 0.22005,-2.13898 0.4371,-0.44776 0.65103,-0.59792 1.0336,-0.72543 0.47994,-0.15999 0.48384,-0.15991 0.75834,0.0143 0.15176,0.0963 0.29832,0.23984 0.3257,0.31896 0.0274,0.0791 0.15834,0.2601 0.29105,0.40217 0.13272,0.14207 0.22453,0.25831 0.20404,0.25831 -0.0205,0 0.0419,0.085 0.13864,0.18882 0.2724,0.29239 0.29894,0.55018 0.099,0.96177 -0.22743,0.46813 -0.67848,0.76819 -1.46513,0.97472 -0.97179,0.25514 -1.13375,0.22945 -1.60527,-0.25463 z m 1.49249,-1.1467 c 0.25788,-0.10774 0.40611,-0.30121 0.23012,-0.30033 -0.0876,8.4e-4 -0.61383,0.32571 -0.61383,0.37944 0,0.0672 0.0661,0.0536 0.38371,-0.0791 z M 173.97782,233.212 c -0.47151,-0.0772 -0.75637,-0.27994 -1.05759,-0.7526 -0.22328,-0.35036 -0.24669,-0.44622 -0.20021,-0.82007 0.0707,-0.56866 0.41638,-1.26938 0.74539,-1.51093 0.33502,-0.24595 1.08545,-0.5634 1.33183,-0.5634 0.15998,0 0.16991,-0.0184 0.073,-0.1352 -0.0952,-0.11475 -0.0872,-0.14987 0.0531,-0.23224 0.87719,-0.5149 2.21737,-0.34699 3.04744,0.38181 0.16109,0.14144 0.29289,0.31037 0.29289,0.3754 0,0.065 0.0371,0.11823 0.0825,0.11823 0.15791,0 0.35762,0.51923 0.30518,0.79345 -0.0856,0.44779 -0.41682,1.0029 -0.684,1.14641 -0.1397,0.075 -0.47094,0.26139 -0.73609,0.41412 -0.60339,0.34755 -1.48756,0.65962 -2.19331,0.77414 -0.29806,0.0484 -0.58003,0.0834 -0.6266,0.078 -0.0466,-0.005 -0.24165,-0.0357 -0.43352,-0.0671 z m 1.02619,-1.33709 c 0.18627,-0.0689 0.76731,-0.33246 1.29121,-0.58565 0.93777,-0.45321 1.33258,-0.78534 1.15027,-0.96765 -0.0888,-0.0887 -1.26925,-0.33328 -1.60899,-0.33328 -0.18554,0 -0.20505,0.0281 -0.16203,0.23283 0.0269,0.12806 0.0148,0.28594 -0.027,0.35084 -0.0768,0.11941 -0.62161,0.3418 -0.85516,0.34906 -0.18148,0.006 -0.5408,0.34315 -0.7964,0.74804 -0.12078,0.19132 -0.2196,0.37124 -0.2196,0.39983 0,0.0803 0.84878,-0.0538 1.22767,-0.19402 z m -13.39057,-6.88542 c -0.80368,-0.159 -1.46921,-0.69344 -1.86117,-1.49456 -0.19068,-0.38975 -0.21617,-0.52941 -0.17652,-0.96683 0.068,-0.74973 0.42047,-1.40087 0.95026,-1.7554 0.90572,-0.6061 2.04158,-1.02955 3.98094,-1.48411 0.73416,-0.17208 1.32945,-0.12489 2.09047,0.16569 0.81395,0.31079 1.2289,0.82813 1.54993,1.93245 0.16991,0.58449 0.1263,0.98821 -0.16988,1.5727 -0.26651,0.52593 -0.6892,0.86845 -1.4809,1.20001 -1.59942,0.66982 -3.80124,1.0441 -4.88313,0.83005 z m 1.36349,-1.31011 c 1.00331,-0.14898 2.99732,-0.77065 3.51004,-1.09431 0.19431,-0.12266 0.39378,-0.32638 0.44328,-0.45272 0.11897,-0.30365 0.11213,-1.05626 -0.0117,-1.28767 -0.15193,-0.28388 -0.72926,-0.50436 -1.32624,-0.50649 -0.94286,-0.003 -2.96628,0.50103 -3.36067,0.83773 -0.0864,0.0737 -0.16258,0.12563 -0.16934,0.1153 -0.0336,-0.0513 -0.39327,0.091 -0.39327,0.15565 0,0.0411 -0.0421,0.0748 -0.0937,0.0748 -0.23759,0 -0.75131,0.53514 -0.9023,0.93992 -0.28356,0.76012 -0.0756,1.14245 0.68943,1.26775 0.55278,0.0905 0.69865,0.086 1.61444,-0.0499 z M 112.05434,210.6023 c -2.09809,-0.14203 -3.51462,-0.27311 -3.53476,-0.32709 -0.0116,-0.0311 -0.2021,-0.0525 -0.42333,-0.0476 -0.89725,0.0199 -4.08973,-0.37708 -5.84772,-0.72724 -1.07376,-0.21387 -3.099268,-0.76961 -4.389388,-1.20433 -0.81851,-0.2758 -1.02079,-0.37464 -0.98685,-0.48214 0.0326,-0.10333 0.0238,-0.10894 -0.0373,-0.0238 -0.0639,0.089 -0.23031,0.0508 -0.82678,-0.1897 -1.4608,-0.58904 -3.786,-2.0822 -4.86294,-3.1228 -1.16352,-1.12426 -2.06988,-2.21789 -1.99653,-2.40906 0.024,-0.0625 0.01,-0.0928 -0.0315,-0.0673 -0.16645,0.10287 -1.13995,-1.689 -1.51633,-2.79103 -0.86104,-2.52109 -1.0058,-4.12648 -0.50372,-5.58625 0.25814,-0.75052 1.05041,-1.90352 1.93053,-2.80954 l 0.67307,-0.69288 -0.21441,-0.2548 c -0.47467,-0.56413 -0.8893,-2.49132 -0.75648,-3.51618 0.12629,-0.97449 0.51289,-1.87433 1.09936,-2.55886 0.74228,-0.86639 0.88567,-1.01469 1.21747,-1.25907 0.18968,-0.1397 0.34576,-0.28483 0.34686,-0.3225 0.001,-0.0377 -0.0288,-0.0495 -0.0664,-0.0262 -0.1059,0.0654 -1.07758,-0.50984 -1.05132,-0.62245 0.0128,-0.0549 -0.0165,-0.0752 -0.065,-0.0452 -0.14883,0.092 -0.60681,-0.25831 -1.22822,-0.93942 -0.92576,-1.01471 -1.16178,-1.38293 -1.77466,-2.76863 -0.25887,-0.58529 -0.45357,-1.27803 -0.55209,-1.96428 -0.0535,-0.37253 -0.12334,-0.82973 -0.15524,-1.016 -0.078,-0.45517 -0.0656,-2.24765 0.0199,-2.87866 0.0763,-0.56297 0.3609,-1.56395 0.48032,-1.6891 0.0422,-0.0442 0.0768,-0.16045 0.0768,-0.25824 0,-0.0978 0.0335,-0.21399 0.0744,-0.25823 0.0409,-0.0442 0.11864,-0.21889 0.17266,-0.38811 0.13553,-0.42456 1.08786,-1.85132 1.23571,-1.85132 0.0663,0 0.102,-0.0483 0.0793,-0.10742 -0.0648,-0.16877 2.49449,-2.60192 2.73677,-2.60192 0.0493,0 0.10235,-0.0322 0.11787,-0.0716 0.0614,-0.15565 0.92203,-0.69014 1.80622,-1.12169 0.51224,-0.25002 1.15951,-0.60022 1.43839,-0.77823 0.28056,-0.17909 0.57372,-0.30624 0.65629,-0.28464 0.0821,0.0215 0.13102,0.01 0.10877,-0.0264 -0.0569,-0.0921 0.18715,-0.28997 0.63289,-0.51293 0.20955,-0.10481 0.40005,-0.21402 0.42333,-0.24269 0.11718,-0.1443 0.78608,-0.442 0.89725,-0.39935 0.0701,0.0269 0.10733,0.0162 0.0826,-0.0238 -0.0633,-0.10248 1.17073,-0.80646 1.72946,-0.98658 0.25612,-0.0826 0.54187,-0.19717 0.635,-0.25468 0.0931,-0.0575 0.321728,-0.15188 0.507998,-0.20971 0.18627,-0.0578 0.37677,-0.13402 0.42333,-0.16935 0.27129,-0.20575 3.49371,-1.23014 4.78367,-1.52071 0.44238,-0.0996 0.95673,-0.21573 1.143,-0.25796 0.93908,-0.21294 1.42954,-0.27484 3.34433,-0.42206 0.62865,-0.0483 1.35255,-0.10548 1.60867,-0.12698 0.25612,-0.0215 1.12289,-0.0488 1.92617,-0.0606 0.80327,-0.0118 1.4605,-0.042 1.4605,-0.0669 0,-0.025 -0.0507,-0.12058 -0.11268,-0.21244 -0.24212,-0.35885 -0.41346,-0.9576 -0.4526,-1.58164 -0.0796,-1.26964 0.45343,-2.21517 2.13874,-3.79368 0.64516,-0.60429 2.17565,-1.5703 2.33341,-1.47281 0.0614,0.038 0.0758,0.0241 0.0382,-0.0368 -0.0332,-0.0538 -0.0193,-0.0977 0.031,-0.0977 0.0503,0 0.34782,-0.1191 0.66117,-0.26466 0.66109,-0.30711 0.71727,-0.32889 1.48883,-0.57742 1.14549,-0.36896 1.73345,-0.50141 3.58713,-0.80808 1.66848,-0.27603 3.15386,0.002 4.33319,0.81144 0.42293,0.29024 0.51623,0.39677 0.51623,0.58944 0,0.38976 -0.15048,0.37992 -1.48166,-0.0969 -0.60509,-0.21675 -0.89277,-0.27261 -1.397,-0.27127 -0.57027,0.002 -2.22755,0.2327 -2.39061,0.33347 -0.0356,0.022 -0.0647,-0.002 -0.0647,-0.0526 0,-0.0653 -0.0482,-0.0668 -0.16377,-0.005 -0.0901,0.0482 -0.24167,0.0876 -0.33689,0.0876 -0.42541,0 -3.71958,1.15529 -3.98875,1.39888 -0.076,0.0688 -0.16163,0.12512 -0.1902,0.12512 -0.134,0 -1.26247,0.75949 -1.75404,1.18052 -0.59973,0.51365 -0.8894,0.82656 -1.13357,1.22453 -0.0874,0.14243 -0.2069,0.29773 -0.26558,0.34512 -0.19087,0.15413 -0.46453,1.05282 -0.46453,1.5255 0,0.88168 0.41822,1.59663 1.41365,2.41663 0.43629,0.3594 0.52533,0.64452 0.28264,0.90502 -0.12549,0.1347 -0.23964,0.1756 -0.40625,0.14555 -0.12744,-0.023 -0.30791,-0.0516 -0.40104,-0.0636 -0.0931,-0.012 -0.22649,-0.0586 -0.29634,-0.1036 -0.38293,-0.24656 -0.61571,-0.30468 -1.37311,-0.34286 -0.73246,-0.0369 -2.67107,0.0371 -4.76522,0.18184 -0.9765,0.0675 -2.02777,0.19634 -2.70933,0.33198 -0.32597,0.0649 -0.70697,0.13725 -0.84667,0.16083 -1.35539,0.22881 -4.22145,1.11991 -5.334,1.65841 -1.862808,0.90166 -3.540048,1.73259 -4.148668,2.05531 -0.37253,0.19754 -0.81068,0.41375 -0.97366,0.48047 -0.16299,0.0667 -0.57256,0.24672 -0.91017,0.40003 -0.33761,0.1533 -0.61383,0.25597 -0.61383,0.22816 0,-0.0278 -0.0555,-0.004 -0.12329,0.0518 -0.0678,0.0563 -0.16401,0.0772 -0.21377,0.0464 -0.0498,-0.0308 -0.08,-0.0107 -0.0672,0.0446 0.0128,0.0553 -0.28153,0.30472 -0.65407,0.55436 -0.37253,0.24962 -0.71543,0.48461 -0.762,0.5222 -0.0466,0.0376 -0.37041,0.29527 -0.71966,0.57262 -0.79719,0.63307 -2.50449,2.33565 -2.57968,2.57256 -0.031,0.0977 -0.0919,0.1777 -0.13536,0.1777 -0.0434,0 -0.079,0.0446 -0.079,0.0992 0,0.0545 -0.0581,0.16333 -0.12906,0.24177 -0.44554,0.49231 -1.0915,2.13903 -1.27779,3.2574 -0.13328,0.80016 -0.14503,3.23244 -0.016,3.31219 0.0375,0.0232 0.0682,0.13916 0.0682,0.25775 0,0.11858 0.0613,0.44972 0.13623,0.73584 0.0749,0.28611 0.1452,0.55832 0.15616,0.60488 0.011,0.0466 0.10206,0.26564 0.20244,0.48684 0.10038,0.22119 0.25841,0.57608 0.35118,0.78864 0.40399,0.92567 1.75793,2.34136 2.66766,2.78935 0.55985,0.2757 1.07235,0.36423 2.24495,0.38779 1.08668,0.0218 1.56136,0.16133 1.80276,0.52975 0.18186,0.27754 0.17979,0.32597 -0.024,0.56093 -0.14149,0.16314 -0.24262,0.19068 -0.65616,0.17866 -1.56339,-0.0454 -1.60094,-0.042 -2.07724,0.19106 -0.51672,0.25281 -1.52774,1.1358 -1.71492,1.49776 -0.067,0.12953 -0.17261,0.28675 -0.23473,0.34937 -0.19616,0.19772 -0.56018,1.02714 -0.6617,1.50764 -0.1884,0.89178 0.0389,2.34834 0.46301,2.96733 0.17187,0.25083 0.24816,0.29115 0.57055,0.30148 1.02929,0.033 1.51763,0.46289 1.10486,0.97265 -0.16098,0.19879 -0.19316,0.20917 -0.89263,0.28787 -0.22764,0.0256 -0.53468,0.12123 -0.6823,0.21247 -0.56695,0.35039 -1.75238,1.71852 -1.93422,2.23233 -0.0687,0.19401 -0.21282,0.58135 -0.32034,0.86075 -0.16357,0.42504 -0.19542,0.667 -0.19505,1.48167 4.2e-4,0.88489 0.0327,1.08877 0.35485,2.23619 0.19493,0.69438 0.48781,1.54356 0.65086,1.88706 0.16304,0.3435 0.29644,0.63889 0.29644,0.65643 0,0.15202 1.37558,2.02021 1.80005,2.44468 0.16483,0.16483 0.27809,0.32128 0.25171,0.34766 -0.0264,0.0264 -0.005,0.048 0.0481,0.048 0.0529,0 0.29651,0.19419 0.54147,0.43154 0.63133,0.61171 1.55469,1.32326 1.93066,1.48778 0.0699,0.0306 0.23921,0.13509 0.37635,0.23229 0.6081,0.43099 2.63869,1.48905 2.85773,1.48905 0.0632,0 0.19006,0.0512 0.28192,0.11384 0.0919,0.0626 0.2432,0.13567 0.33634,0.16235 0.0931,0.0267 0.44828,0.12873 0.78923,0.2268 1.033328,0.29722 3.586028,0.94619 4.036758,1.02626 0.23284,0.0414 0.80434,0.13056 1.27,0.19823 0.79238,0.11513 1.0708,0.14592 2.37067,0.26215 0.2794,0.025 0.60325,0.0624 0.71967,0.0831 0.11641,0.0208 0.55456,0.0592 0.97366,0.0853 0.4191,0.0262 0.9144,0.0636 1.10067,0.0831 2.87849,0.30172 6.72515,0.34395 8.42433,0.0925 2.68236,-0.39699 4.57904,-1.11843 6.731,-2.56029 1.16034,-0.77745 2.71788,-2.14697 3.2956,-2.89775 0.77374,-1.00553 1.20246,-1.95566 0.88245,-1.95566 -0.0537,0 -0.0156,-0.0711 0.0847,-0.15809 0.23041,-0.19983 0.2388,-0.5677 0.0157,-0.68712 -0.11779,-0.063 -0.18361,-0.21728 -0.22461,-0.52633 -0.0487,-0.3668 -0.11382,-0.48902 -0.40488,-0.75941 -0.19079,-0.17725 -0.37761,-0.32275 -0.41516,-0.32332 -0.0376,-8.5e-4 -0.18043,-0.12385 -0.3175,-0.27393 -0.29559,-0.32362 -0.3518,-0.85369 -0.10106,-0.95309 0.74311,-0.29458 1.67528,0.0582 2.36271,0.89414 0.13093,0.15921 0.26571,0.30983 0.29949,0.3347 0.10814,0.0796 0.48937,1.00626 0.57959,1.40882 0.048,0.21406 0.0884,0.7125 0.0899,1.10764 0.002,0.56563 0.0449,0.81398 0.20127,1.16754 0.574,1.29791 1.71532,2.43058 3.21921,3.19484 0.23284,0.11833 0.49954,0.23353 0.59267,0.25601 0.0931,0.0225 0.58843,0.17411 1.10067,0.33694 0.51223,0.16284 1.06468,0.31837 1.22766,0.34563 0.16299,0.0273 0.71675,0.12341 1.23059,0.21367 0.51384,0.0903 1.40919,0.18933 1.98967,0.22016 0.58048,0.0308 1.12479,0.0756 1.20959,0.0996 0.0848,0.0239 0.78964,0.043 1.56633,0.0423 2.43155,-0.002 4.78182,-0.50193 6.40512,-1.36198 1.31195,-0.6951 1.78565,-1.02266 1.47893,-1.02266 -0.0517,0 -0.0786,-0.13122 -0.0635,-0.30909 0.0182,-0.21355 0.0931,-0.35871 0.24232,-0.46966 0.34956,-0.25981 0.59307,-0.22786 1.50638,0.19765 0.41543,0.19354 0.60648,0.33095 0.62358,0.44846 0.0565,0.38829 1.96165,1.36425 3.49599,1.79091 0.82758,0.23013 2.12297,0.52876 2.54,0.58555 0.23284,0.0317 0.55669,0.0904 0.71967,0.13039 0.16298,0.04 0.69638,0.11223 1.18533,0.1605 3.21785,0.31766 5.46301,0.30884 8.509,-0.0334 0.60537,-0.068 1.31022,-0.14648 1.56634,-0.17434 0.84849,-0.0923 2.40305,-0.47754 3.09033,-0.76587 0.87631,-0.36762 1.73567,-0.69543 1.73567,-0.66209 0,0.0215 0.0476,-8.5e-4 0.10583,-0.049 0.0582,-0.0484 0.41063,-0.24512 0.78317,-0.43713 2.15858,-1.11259 2.82805,-1.50934 3.76766,-2.23279 0.20955,-0.16134 0.43061,-0.2755 0.49123,-0.25368 0.0606,0.0218 0.0906,0.008 0.0665,-0.0311 -0.0574,-0.0929 0.31988,-0.44042 0.79692,-0.73418 0.55507,-0.3418 2.0849,-1.92144 2.62467,-2.71012 1.46629,-2.14244 2.1477,-3.70795 2.60412,-5.98284 0.11876,-0.59193 0.12819,-2.55881 0.0158,-3.28485 -0.25541,-1.64909 -1.22772,-3.43924 -2.60907,-4.80361 -0.71069,-0.70194 -1.31253,-1.13081 -1.83113,-1.30484 -0.18627,-0.0625 -0.35772,-0.13569 -0.381,-0.16261 -0.11082,-0.12817 -0.45908,-0.1902 -1.35467,-0.24131 -1.035,-0.0591 -1.65254,-0.26489 -1.91378,-0.63787 -0.17231,-0.24601 -0.15054,-0.4133 0.0471,-0.36163 0.0909,0.0238 0.17873,0.003 0.19518,-0.0465 0.021,-0.0631 0.10602,-0.0632 0.2868,0 0.25497,0.0889 0.73533,0.0532 0.67286,-0.05 -0.0179,-0.0296 0.13159,-0.0584 0.33224,-0.0639 0.23597,-0.007 0.46462,-0.0813 0.6474,-0.21154 0.15542,-0.11078 0.30163,-0.20282 0.32491,-0.20454 0.0955,-0.007 1.34817,-1.38117 1.60143,-1.75665 0.42558,-0.63097 0.69191,-1.28367 0.77837,-1.90754 0.0685,-0.49403 0.0515,-0.68152 -0.12413,-1.37354 -0.11189,-0.44077 -0.27122,-0.95381 -0.35406,-1.14007 -0.0828,-0.18627 -0.15456,-0.35772 -0.15935,-0.381 -0.005,-0.0233 -0.21438,-0.42334 -0.46572,-0.88901 -0.93802,-1.73785 -3.2001,-3.6019 -5.4252,-4.47061 -0.6134,-0.23947 -1.26213,-0.38162 -3.00031,-0.65742 -1.01653,-0.1613 -1.38009,-0.18021 -2.62467,-0.13654 -0.79458,0.0279 -1.55899,0.0719 -1.69869,0.0977 -0.1397,0.0259 -0.50165,0.0828 -0.80433,0.12664 -0.30269,0.0438 -0.74084,0.11655 -0.97367,0.16168 -0.69592,0.13487 -1.33109,-0.0961 -1.24551,-0.45296 0.0475,-0.19814 0.34739,-0.55283 0.46739,-0.55283 0.10782,0 0.51301,-0.4358 0.53522,-0.57565 0.0321,-0.20199 0.46433,-0.69831 0.55783,-0.64052 0.0559,0.0346 0.0679,0.0176 0.0304,-0.0431 -0.0345,-0.0558 0.0526,-0.27286 0.19709,-0.491 0.66315,-1.00117 0.93309,-2.43391 0.65129,-3.45675 -0.15269,-0.5542 -0.65978,-1.66643 -1.21724,-2.66984 -0.43969,-0.79141 -0.90509,-1.42476 -1.85814,-2.52868 -0.62884,-0.72838 -3.52575,-3.62113 -3.95258,-3.9469 -0.18202,-0.13891 -0.42967,-0.34259 -0.55033,-0.4526 -0.40994,-0.37376 -1.74103,-1.26001 -2.35315,-1.56677 -0.53146,-0.26633 -1.0845,-0.49226 -3.03092,-1.23823 -0.52755,-0.20219 -2.20095,-0.64087 -2.87866,-0.75464 -0.82288,-0.13814 -1.25116,-0.19871 -1.56634,-0.22154 -0.16298,-0.0118 -0.50588,-0.0537 -0.762,-0.093 -0.25611,-0.0394 -1.32291,-0.0678 -2.37066,-0.0633 -1.8293,0.008 -3.47567,0.15995 -5.79967,0.53569 -0.2794,0.0452 -0.75565,0.12036 -1.05833,0.16706 -1.73503,0.26773 -2.56169,0.44556 -3.09033,0.66482 -1.01845,0.4224 -3.0391,1.28988 -3.2385,1.3903 -0.10478,0.0528 -0.1905,0.1276 -0.1905,0.1663 0,0.11762 -0.7216,0.0786 -1.04494,-0.0565 -0.37796,-0.15792 -0.50278,-0.38028 -0.43032,-0.76656 0.0442,-0.23575 0.001,-0.40896 -0.20333,-0.82512 -0.48808,-0.99143 -0.9443,-1.20958 -2.08908,-0.99894 -0.57384,0.1056 -0.84738,0.27516 -1.11833,0.69326 -0.10284,0.15871 -0.23619,0.35558 -0.29633,0.43752 -0.12155,0.1656 -0.9384,0.35292 -0.98423,0.22571 -0.0155,-0.0431 -0.08,-0.0783 -0.14337,-0.0783 -0.0633,0 -0.17057,-0.0791 -0.23831,-0.17586 -0.21472,-0.30655 0.11454,-1.08039 0.65591,-1.54152 0.53222,-0.45335 2.0856,-0.90469 2.41291,-0.70109 0.0814,0.0506 0.0998,0.0431 0.0585,-0.0238 -0.15778,-0.25529 1.19727,-0.0341 1.95061,0.31848 0.5515,0.25808 1.07305,0.82892 1.33909,1.46563 0.0708,0.16935 0.16977,0.33332 0.22004,0.36439 0.0503,0.0311 0.44137,-0.11353 0.86912,-0.32132 0.42774,-0.20779 1.00632,-0.46368 1.28572,-0.56864 0.2794,-0.10496 0.57544,-0.22526 0.65787,-0.26734 0.0824,-0.0421 0.95873,-0.20884 1.94733,-0.37059 1.85341,-0.30323 2.44297,-0.40251 3.53313,-0.59495 0.34925,-0.0617 0.85795,-0.13691 1.13045,-0.16724 0.27249,-0.0303 0.57729,-0.0675 0.67733,-0.0827 0.79414,-0.12007 4.02076,-0.18095 5.09255,-0.0961 0.73884,0.0585 2.29244,0.23262 2.39875,0.26883 0.062,0.0211 0.48111,0.11505 0.93133,0.20871 3.77096,0.78457 7.56895,2.50912 9.49539,4.31156 0.30185,0.28241 0.56881,0.51348 0.59325,0.51348 0.0245,0 0.16199,0.12382 0.30563,0.27516 0.14365,0.15135 0.38004,0.37522 0.52533,0.4975 0.31915,0.26864 2.25729,2.29548 2.86733,2.99857 0.43679,0.5034 0.74681,0.88607 1.28799,1.58978 0.88923,1.15628 2.02732,3.80414 2.07352,4.82418 0.0276,0.60862 -0.0722,1.38485 -0.24562,1.91171 -0.17985,0.54633 -0.47913,1.12251 -0.60892,1.17232 -0.06,0.023 -0.17042,0.17107 -0.24536,0.32899 -0.0749,0.15792 -0.18439,0.28712 -0.24323,0.28712 -0.0588,0 -0.15712,0.0604 -0.2184,0.13425 -0.10094,0.12162 -0.0442,0.12759 0.60346,0.0635 1.42074,-0.1406 3.14971,-0.0745 4.60955,0.17638 1.63367,0.28067 2.52619,0.49525 3.25967,0.78365 0.70104,0.27565 0.71818,0.28694 0.58054,0.38235 -0.0813,0.0563 -0.0616,0.0647 0.0672,0.0287 0.17413,-0.0487 0.96917,0.25933 1.03153,0.39963 0.0155,0.0349 0.0672,0.0635 0.11478,0.0635 0.0476,0 0.20635,0.0958 0.35278,0.21295 0.3851,0.30802 0.35925,0.29117 1.00423,0.65488 0.44252,0.24955 2.21087,1.9917 2.59969,2.56117 0.41794,0.61212 0.99826,1.76335 1.32304,2.62467 0.30353,0.80494 0.32073,0.90449 0.34897,2.02023 0.0248,0.97849 0.01,1.16601 -0.0886,1.12817 -0.0804,-0.0309 -0.10593,0.002 -0.0797,0.10205 0.0487,0.18638 -0.31113,1.00623 -0.69654,1.58689 -0.16237,0.24461 -0.63751,0.78639 -1.05586,1.20396 -0.41837,0.41755 -0.76066,0.77863 -0.76066,0.80239 0,0.0238 0.11986,0.0695 0.26636,0.10169 0.73128,0.16062 2.07262,0.99436 2.73931,1.70269 0.56808,0.60356 0.98078,1.09798 1.18316,1.41741 0.0919,0.14512 0.21577,0.3142 0.27517,0.37573 0.0594,0.0615 0.108,0.18129 0.108,0.26611 0,0.0848 0.05,0.1734 0.11104,0.19684 0.14073,0.054 0.81085,1.56077 0.96811,2.17684 0.23813,0.93278 0.27013,1.16388 0.32339,2.33554 0.0936,2.05921 -0.27897,3.9141 -1.16345,5.79246 -0.14252,0.30268 -0.29178,0.63606 -0.33168,0.74083 -0.0399,0.10478 -0.11794,0.1905 -0.17342,0.1905 -0.0555,0 -0.077,0.0239 -0.0478,0.0531 0.0655,0.0655 -0.12024,0.43576 -0.52544,1.0476 -0.16961,0.25612 -0.34545,0.52741 -0.39073,0.60289 -0.20477,0.34124 -0.81431,1.08783 -1.02064,1.25012 -0.12515,0.0985 -0.19478,0.17899 -0.15473,0.17899 0.14949,0 -1.99391,1.94972 -2.48696,2.26225 -0.12651,0.0802 -0.40147,0.28367 -0.61102,0.45218 -0.35616,0.28639 -1.47295,1.0109 -1.55827,1.0109 -0.0211,0 -0.26211,0.14858 -0.53549,0.33017 -1.44066,0.95691 -4.72196,2.36553 -6.49991,2.79033 -1.3721,0.32783 -3.19043,0.62011 -3.72533,0.59882 -0.0931,-0.004 -0.30268,0.0136 -0.46567,0.0385 -1.99499,0.30486 -5.41117,0.28989 -8.33966,-0.0365 -0.87762,-0.0978 -2.95838,-0.48476 -3.87627,-0.72083 -1.78776,-0.45977 -4.02503,-1.32215 -4.72717,-1.82211 l -0.24875,-0.17713 -0.39991,0.25365 c -2.4158,1.53227 -5.79522,2.34382 -9.37457,2.25124 -4.58727,-0.11865 -8.76842,-1.12623 -10.72276,-2.58399 -0.69073,-0.51523 -1.50482,-1.33571 -1.83445,-1.84885 -0.27663,-0.43065 -0.30084,-0.44834 -0.3674,-0.26843 -0.0792,0.21408 -1.13534,1.29122 -1.83905,1.87562 -0.25025,0.20781 -0.536,0.4492 -0.635,0.5364 -0.34611,0.30487 -2.55587,1.72571 -3.1462,2.02294 -1.77322,0.89286 -3.21292,1.34153 -5.37347,1.67463 -1.28189,0.19764 -4.90705,0.28879 -6.68867,0.16819 z"
       id="path836"
       sodipodi:nodetypes="sssssssssssssssssscssssssssscssssssscsssscssccsssssssssssssssssscsssssssscssssssssscssscssssccscssscsssssssscssscssscsssccsssssssscsssssssscsssssssssssssscssssssssscsssssssscssssssssssscsssssssssssssssssssssscssssscccsssssssscssssscsssssssccssccsssssssssscssscssscssssssscscscsssscsssscsssssssssssssssssccssssssscssssscsscssssssscscsscssssssssssssscssssscssssscssscssssssssssssssssssssccssscssssssssscc" />
  </g>
</svg>
