<?xml version="1.0" encoding="UTF-8" standalone="no"?>
<!-- Created with Inkscape (http://www.inkscape.org/) -->

<svg
   width="154.04341mm"
   height="91.246704mm"
   viewBox="0 0 154.04341 91.246704"
   version="1.1"
   id="svg5"
   inkscape:version="1.1.1 (c3084ef, 2021-09-22)"
   sodipodi:docname="music copy 4.svg"
   xmlns:inkscape="http://www.inkscape.org/namespaces/inkscape"
   xmlns:sodipodi="http://sodipodi.sourceforge.net/DTD/sodipodi-0.dtd"
   xmlns="http://www.w3.org/2000/svg"
   xmlns:svg="http://www.w3.org/2000/svg">
  <sodipodi:namedview
     id="namedview7"
     pagecolor="#ffffff"
     bordercolor="#666666"
     borderopacity="1.0"
     inkscape:pageshadow="2"
     inkscape:pageopacity="0.0"
     inkscape:pagecheckerboard="0"
     inkscape:document-units="mm"
     showgrid="false"
     inkscape:zoom="0.51580387"
     inkscape:cx="393.56044"
     inkscape:cy="349.93921"
     inkscape:window-width="1946"
     inkscape:window-height="1223"
     inkscape:window-x="0"
     inkscape:window-y="25"
     inkscape:window-maximized="0"
     inkscape:current-layer="layer1" />
  <defs
     id="defs2" />
  <g
     inkscape:label="Layer 1"
     inkscape:groupmode="layer"
     id="layer1"
     transform="translate(-31.966349,-62.961049)">
    <path
       style="fill:#000000;stroke-width:0.137955"
       d="m 64.244136,154.19296 c -0.02574,-0.022 -1.288403,-0.0816 -2.805898,-0.13247 -1.517495,-0.0508 -3.038444,-0.15577 -3.379882,-0.23308 -0.341438,-0.0774 -0.984572,-0.19924 -1.429199,-0.27092 -1.005656,-0.16212 -2.45664,-0.53308 -2.640467,-0.67512 -0.07593,-0.0587 -0.324052,-0.1512 -0.551498,-0.20579 -0.493834,-0.11846 -3.057035,-1.34802 -3.44918,-1.65456 -0.151695,-0.11862 -0.569176,-0.43455 -0.927625,-0.70208 -0.763595,-0.56995 -1.658746,-1.68666 -1.531165,-1.91015 0.04888,-0.0855 0.03699,-0.10851 -0.0264,-0.051 -0.138009,0.1253 -0.511725,-0.40365 -0.950926,-1.34618 -0.821304,-1.76255 -1.239144,-4.95869 -0.928795,-7.10466 0.258352,-1.78644 1.122236,-4.0586 2.124259,-5.58716 0.198948,-0.3035 1.141335,-1.35379 2.094167,-2.33399 0.952848,-0.98017 1.702903,-1.8117 1.666779,-1.84781 -0.03617,-0.0362 -0.34921,0.0427 -0.69578,0.175 -0.503545,0.1923 -0.857545,0.22253 -1.762,0.15039 -4.322837,-0.34451 -8.961696,-1.70732 -10.984104,-3.22695 -1.609996,-1.20972 -3.594766,-3.41708 -3.382017,-3.7613 0.06012,-0.0973 0.04399,-0.12937 -0.03943,-0.0779 -0.265215,0.16389 -1.793774,-2.45448 -2.291371,-3.92505 -0.226045,-0.66806 -0.370832,-1.77472 -0.387093,-2.95894 -0.01304,-1.01252 0.763774,-3.66185 1.637026,-5.5768 0.224888,-0.4932 0.493639,-1.114 0.597202,-1.37955 0.103629,-0.26556 0.330228,-0.69327 0.503708,-0.95044 0.173465,-0.25718 0.315401,-0.53333 0.315401,-0.61368 0,-0.28357 1.223114,-1.96182 1.88334,-2.58414 0.450525,-0.42466 1.47927,-1.04963 3.151997,-1.91485 1.36575,-0.70645 2.507362,-1.30569 2.536903,-1.33169 0.02949,-0.0259 -0.125626,-0.27915 -0.344876,-0.5626 -0.643379,-0.83183 -0.968473,-1.39255 -1.85569,-3.200634 -1.017925,-2.074492 -1.355241,-3.085755 -1.464589,-4.390778 -0.122367,-1.460346 0.108029,-2.130488 1.074075,-3.123857 0.509264,-0.523676 0.848925,-0.77296 0.959821,-0.704424 0.10477,0.06472 0.136706,0.04955 0.08212,-0.03888 -0.05263,-0.08525 0.261305,-0.285331 0.762161,-0.485724 0.82139,-0.328636 0.858295,-0.36478 1.035849,-1.014491 0.101348,-0.370547 0.252783,-0.922033 0.336696,-1.225534 0.262103,-0.947955 1.243742,-3.420032 1.616008,-4.069661 0.890687,-1.554265 2.503449,-3.560276 4.048252,-5.035342 1.189582,-1.135891 2.679801,-2.432499 2.993767,-2.604818 0.121878,-0.0669 0.407851,-0.291607 0.635476,-0.499367 0.781535,-0.713337 3.984498,-2.769619 4.357888,-2.797747 0.138498,-0.01043 0.225882,-0.04484 0.194272,-0.07645 -0.0567,-0.05669 1.527923,-1.126275 1.668588,-1.126275 0.03992,0 0.02786,0.07761 -0.02672,0.172444 -0.05768,0.100191 -0.0466,0.124273 0.0264,0.05748 0.06909,-0.06324 0.125625,-0.176347 0.125625,-0.251367 0,-0.07502 0.341438,-0.323407 0.758756,-0.551971 0.417302,-0.228562 1.183227,-0.658636 1.702055,-0.955735 0.518829,-0.297099 0.985338,-0.540175 1.036697,-0.540175 0.05132,0 0.328337,-0.125919 0.6155,-0.27984 0.287163,-0.153896 0.596648,-0.237076 0.687731,-0.184805 0.09108,0.05225 0.119922,0.04461 0.0642,-0.01698 -0.05572,-0.06159 0.06843,-0.203359 0.275904,-0.315006 1.392717,-0.749384 6.017938,-2.427766 7.343996,-2.664965 0.417318,-0.07464 0.882915,-0.192696 1.03466,-0.262349 0.418132,-0.191894 3.923575,-1.003453 5.104325,-1.181705 0.151696,-0.02291 0.586302,-0.100533 0.965671,-0.17247 0.379386,-0.07195 0.782903,-0.133708 0.896716,-0.137227 0.113894,-0.0036 0.362131,-0.03849 0.551824,-0.07771 1.109155,-0.229309 2.107576,-0.370808 2.170748,-0.307638 0.04008,0.04003 0.177994,0.01649 0.306568,-0.05232 0.128559,-0.06881 0.787759,-0.159305 1.464866,-0.201084 0.677108,-0.04178 2.317507,-0.14627 3.645309,-0.23219 2.840246,-0.18377 8.355486,-0.06977 10.898418,0.225265 1.915935,0.222301 3.427035,0.523427 5.794085,1.154653 1.50044,0.400124 2.04135,0.583148 3.75925,1.27201 0.39836,0.159729 0.93938,0.370478 1.20228,0.468342 0.26292,0.09788 0.50089,0.246539 0.52883,0.330387 0.028,0.08383 0.16033,0.152446 0.29412,0.152446 0.13377,0 0.38646,0.124159 0.56142,0.275908 0.17498,0.151745 0.35519,0.276794 0.40049,0.277856 0.0453,0.0014 0.36172,0.251491 0.70316,0.556494 1.44442,1.290262 2.27547,2.200818 3.01576,3.304289 0.74981,1.11764 1.72068,3.108186 1.72068,3.527858 0,0.108306 0.0593,0.196916 0.13182,0.196916 0.0725,0 0.0606,0.08587 -0.0266,0.190819 -0.12139,0.146368 -0.11259,0.208366 0.0378,0.2661 0.21867,0.0839 0.35703,0.924034 0.37919,2.302173 0.0163,0.966648 -0.12677,4.075371 -0.20213,4.414548 -0.0252,0.113812 -0.0956,0.449469 -0.15642,0.745919 -0.0608,0.296437 -0.19416,0.699954 -0.29635,0.896706 -0.21534,0.414567 -0.0482,0.536905 0.31731,0.232301 0.59278,-0.493987 1.25899,-0.9274 1.83869,-1.196177 2.08351,-0.966041 2.28373,-1.045364 3.50903,-1.390279 0.87426,-0.246096 3.7252,-0.590072 3.92514,-0.473569 0.0464,0.02703 0.73618,0.09108 1.53287,0.142326 2.37449,0.152739 3.93553,0.568126 5.48351,1.459105 1.19292,0.686627 1.83385,1.948099 1.45667,2.867056 -0.20904,0.509328 -2.40706,2.772225 -3.10761,3.199346 -0.38624,0.235503 -0.4089,0.276089 -0.15447,0.276529 0.16405,0 0.78484,-0.09376 1.37955,-0.208973 0.59471,-0.115214 2.47807,-0.372352 4.18526,-0.571435 5.68733,-0.663202 11.06963,-0.486939 17.79614,0.582816 1.93609,0.307915 2.81499,0.4788 5.65615,1.099815 1.91318,0.418184 5.89638,1.616498 7.76617,2.3364 2.52916,0.973753 4.20158,1.829278 6.84069,3.499329 1.93343,1.223492 2.66644,1.795189 2.54781,1.987126 -0.053,0.08579 -0.0259,0.10692 0.0652,0.05069 0.22515,-0.139149 2.37866,1.976447 3.40915,3.34913 0.8246,1.09841 2.29418,3.60654 2.63615,4.49914 1.02104,2.66494 1.91586,5.61117 1.79773,5.919 -0.0393,0.10249 -0.0204,0.24048 0.042,0.30662 0.2704,0.28629 0.80866,3.81619 0.89396,5.86244 0.044,1.05729 -0.27522,5.09033 -0.4698,5.93429 -0.0762,0.33083 -0.14029,0.84544 -0.14208,1.14353 -0.007,1.13068 -1.4451,4.7472 -2.50016,6.28757 -1.0167,1.48437 -2.46632,3.04566 -3.9181,4.21996 -2.62688,2.1248 -3.41154,2.66885 -4.82841,3.34775 -2.19532,1.0519 -3.36992,1.58963 -4.00068,1.83145 -0.37937,0.1455 -0.81393,0.32107 -0.96567,0.39028 -2.28077,1.04033 -4.66418,1.78537 -5.72512,1.78967 -1.68743,0.007 -3.85075,-0.089 -4.17314,-0.18482 -0.20865,-0.0621 -0.37777,-0.0595 -0.37581,0.005 0.003,0.12627 0.95226,0.60126 1.20046,0.60126 0.23885,0 1.09484,0.9249 1.45899,1.57646 0.71386,1.27723 0.63464,2.6388 -0.20931,3.59758 -0.30018,0.34102 -0.61811,0.62112 -0.70652,0.62243 -0.0883,0.001 -0.30385,0.15332 -0.47882,0.33787 -0.39633,0.41795 -1.45519,0.81883 -2.71689,1.0286 -0.74106,0.12318 -1.27051,0.12187 -2.27625,-0.005 -0.72081,-0.0914 -1.4968,-0.16377 -1.72443,-0.16082 -0.22762,0.003 -0.45824,-0.0647 -0.5125,-0.15023 -0.0696,-0.10966 -0.76097,-0.13508 -2.34523,-0.0865 -2.23712,0.0688 -11.59563,0.0719 -17.76648,0.007 -1.78307,-0.0191 -4.51457,0.0415 -6.07,0.13442 -1.96256,0.11732 -4.68577,0.14045 -8.89807,0.0754 -6.03852,-0.093 -8.3193,-0.0147 -13.79546,0.46991 -0.83462,0.074 -2.29349,0.17114 -3.24194,0.21596 -0.94843,0.0448 -2.034822,0.10852 -2.414192,0.1416 -0.37937,0.0331 -1.828822,0.15332 -3.220968,0.26724 -1.392163,0.1139 -2.574135,0.23362 -2.626601,0.26605 -0.0844,0.0521 -0.79905,0.11731 -3.257434,0.29723 -0.379369,0.0277 -1.558881,0.0904 -2.621142,0.13915 -1.062245,0.0489 -1.993439,0.13589 -2.069319,0.19333 -0.07593,0.0575 -0.355222,0.0901 -0.620796,0.0723 -0.265557,-0.0178 -0.886353,0.052 -1.379535,0.15496 -0.493198,0.10297 -1.269193,0.21851 -1.724443,0.25671 -1.801106,0.15104 -2.625298,0.24007 -2.714653,0.29294 -0.05149,0.0305 -1.175878,0.0895 -2.498776,0.13133 -1.993455,0.0629 -2.520675,0.0378 -3.07944,-0.1473 -0.902777,-0.29896 -1.191504,-0.53644 -1.191504,-0.98002 0,-0.53126 0.816094,-0.96824 1.327216,-0.71065 0.180373,0.0909 0.229841,0.0844 0.164307,-0.0217 -0.06404,-0.10347 0.160983,-0.15316 0.707609,-0.15626 0.440749,-0.003 1.329057,-0.0406 1.974,-0.0846 0.644927,-0.044 1.296762,-0.0808 1.448523,-0.0818 0.151696,-0.001 0.499684,-0.0559 0.773192,-0.12219 0.273509,-0.0663 1.018464,-0.17778 1.655455,-0.24756 0.636992,-0.0697 1.778963,-0.22093 2.537718,-0.33585 1.825726,-0.27655 1.991712,-0.29501 5.173298,-0.57548 1.170501,-0.10314 3.517858,-0.34926 4.000677,-0.4194 0.265557,-0.0386 1.538188,-0.15952 2.828075,-0.26877 1.28987,-0.10917 2.748739,-0.2372 3.241922,-0.28436 1.359167,-0.12986 4.239391,-0.28135 5.194571,-0.27304 0.46697,0.003 0.82506,-0.0314 0.79576,-0.0789 -0.0293,-0.0474 0.0852,-0.0877 0.25462,-0.0894 0.16935,-0.002 0.92869,-0.0696 1.68743,-0.15056 0.75875,-0.0811 1.84515,-0.18809 2.41421,-0.23786 1.05762,-0.0924 11.09117,-0.17678 30.35001,-0.25499 10.97331,-0.0447 14.4749,-0.10754 14.72948,-0.2649 0.0774,-0.0477 0.179,0.013 0.22582,0.13491 0.0539,0.14045 0.18566,0.1955 0.35921,0.15007 0.15072,-0.0394 0.30949,-0.0147 0.35273,0.0556 0.0432,0.0701 0.13638,0.0916 0.20706,0.0479 0.0705,-0.0437 0.1284,-0.008 0.1284,0.0803 0,0.11471 0.46289,0.14616 1.64172,0.11162 0.90294,-0.0264 1.61889,-0.0854 1.59099,-0.13101 -0.0279,-0.0456 0.20416,-0.15935 0.5157,-0.2527 1.28313,-0.38444 1.92682,-1.19792 1.69106,-2.13718 -0.11943,-0.47585 -0.72102,-1.04499 -1.10456,-1.04499 -0.17488,0 -0.35004,-0.052 -0.38926,-0.11536 -0.0393,-0.0634 -0.30305,-0.12416 -0.5863,-0.13475 -0.68568,-0.0257 -0.93154,-0.27604 -0.74729,-0.76063 0.0779,-0.2047 0.24915,-0.37087 0.38503,-0.37346 0.33065,-0.007 1.41271,-0.53654 1.10707,-0.54247 -0.34794,-0.007 -0.32192,-0.5565 0.0264,-0.5565 0.1473,0 0.3019,-0.0552 0.34361,-0.12269 0.0738,-0.1196 0.38318,-0.18858 1.80283,-0.40244 0.37937,-0.0572 0.77265,-0.15561 0.87395,-0.21865 0.10135,-0.0631 0.53586,-0.19378 0.96568,-0.29039 0.42983,-0.0966 1.23078,-0.30696 1.77992,-0.46744 0.54913,-0.16049 1.12338,-0.29177 1.27608,-0.29177 0.15268,0 0.27767,-0.0533 0.27767,-0.11846 0,-0.0986 2.03844,-0.98517 2.26491,-0.98517 0.11568,0 5.24694,-2.52548 5.32258,-2.61969 0.038,-0.0473 0.49215,-0.31633 1.00939,-0.59795 1.3497,-0.73489 2.28912,-1.46375 3.92597,-3.04599 2.76083,-2.66874 4.13492,-5.10703 4.86586,-8.63441 0.53651,-2.58903 0.71962,-7.79224 0.352,-10.00276 -1.15473,-6.94415 -3.53134,-11.89557 -7.11821,-14.83028 -0.41731,-0.341438 -0.82082,-0.69118 -0.8967,-0.777222 -0.21432,-0.243008 -2.66889,-1.762357 -4.18314,-2.589298 -0.75097,-0.410111 -1.48272,-0.812967 -1.62613,-0.895242 -0.44288,-0.254085 -2.97485,-1.209116 -3.84756,-1.451254 -0.45525,-0.12631 -0.95189,-0.28525 -1.10363,-0.353192 -0.1517,-0.06796 -1.45542,-0.409739 -2.89705,-0.759537 -1.44163,-0.349785 -2.80738,-0.692643 -3.035,-0.761895 -0.22763,-0.06925 -1.0657,-0.222646 -1.86239,-0.340872 -0.79669,-0.118228 -2.10036,-0.312771 -2.89705,-0.432309 -0.79669,-0.119548 -1.63476,-0.235364 -1.86238,-0.257355 -3.57318,-0.3453 -4.9292,-0.416884 -7.79443,-0.411504 -3.20369,0.006 -7.03912,0.270432 -8.96706,0.618189 -0.4173,0.07528 -1.21143,0.200421 -1.76472,0.278074 -0.55329,0.07767 -1.5776,0.267177 -2.27625,0.421121 -0.69865,0.153944 -1.67379,0.365303 -2.16698,0.469708 -0.49319,0.10441 -1.12084,0.283993 -1.39479,0.399103 -0.78836,0.331255 -1.19203,0.388575 -2.8818,0.409213 -1.47909,0.01807 -1.61657,-0.0031 -2.03112,-0.314219 -0.35346,-0.26519 -0.43558,-0.416457 -0.40044,-0.737601 0.0547,-0.499864 0.30721,-0.671204 0.84508,-0.573464 0.46672,0.08481 1.2734,-0.299471 3.26861,-1.557066 0.7088,-0.446766 1.26762,-0.71368 1.36637,-0.652648 0.10445,0.06452 0.13133,0.04536 0.0717,-0.05106 -0.0564,-0.0912 0.14485,-0.305984 0.49199,-0.525125 0.32306,-0.203937 0.85124,-0.618091 1.17373,-0.92035 0.32248,-0.302259 0.70099,-0.629873 0.84113,-0.728042 0.45574,-0.319212 1.52793,-1.662104 1.62002,-2.029063 0.0785,-0.312896 0.0235,-0.391033 -0.4402,-0.624106 -0.7457,-0.374893 -1.64154,-0.552412 -3.67155,-0.72756 -1.32365,-0.114187 -2.01014,-0.111629 -2.75911,0.01027 -1.16126,0.18901 -2.34088,0.494856 -2.92865,0.759342 -1.22742,0.552316 -1.70703,0.728857 -1.78048,0.655409 -0.045,-0.04491 -0.0816,-0.01597 -0.0816,0.06433 0,0.08028 -0.24301,0.243188 -0.54001,0.362035 -0.94153,0.376712 -2.53919,1.512687 -3.91273,2.78202 -0.44967,0.415574 -0.88296,0.715184 -0.96283,0.665811 -0.0798,-0.04935 -0.1051,-0.02486 -0.056,0.05445 0.10884,0.176056 -0.95124,1.261621 -1.39776,1.431388 -0.47731,0.181479 -0.95553,0.149464 -1.42967,-0.09574 -0.36876,-0.190682 -0.41142,-0.271136 -0.33811,-0.637654 0.10933,-0.546672 1.1553,-2.005625 1.9224,-2.681424 0.52621,-0.463568 0.58646,-0.572222 0.46631,-0.840956 -0.12709,-0.284325 -0.0192,-1.869576 0.25148,-3.692081 0.0451,-0.303499 0.0937,-1.669249 0.10803,-3.034999 0.0215,-2.052449 -0.0189,-2.650689 -0.23296,-3.448866 -0.49955,-1.862952 -1.77079,-4.105707 -3.04962,-5.380229 -1.14084,-1.137022 -1.77282,-1.521418 -4.41687,-2.686611 -1.69511,-0.747024 -3.75875,-1.29371 -6.552842,-1.735966 -1.885752,-0.298492 -2.368327,-0.32553 -7.035684,-0.394163 -4.865229,-0.07155 -8.275059,0.153211 -12.553857,0.827478 -3.110088,0.490098 -3.814911,0.637117 -6.414888,1.338119 -3.515137,0.947734 -5.431196,1.605461 -7.764036,2.665172 -0.4006,0.181977 -0.788589,0.330857 -0.862221,0.330857 -0.07365,0 -0.134099,0.04657 -0.134424,0.103466 -2.77e-4,0.05691 -0.288076,0.221735 -0.639518,0.366297 -0.703226,0.289235 -1.846745,0.917536 -4.050422,2.225484 -0.796688,0.472852 -1.665802,0.968083 -1.931376,1.100519 -0.265557,0.13242 -0.824273,0.483448 -1.241591,0.780037 -0.417302,0.296589 -1.286416,0.91279 -1.931359,1.369324 -1.491979,1.056138 -1.933526,1.385174 -2.203955,1.642376 -0.119596,0.113812 -0.433204,0.384244 -0.696757,0.600972 -1.446438,1.189417 -3.568109,3.427371 -4.341904,4.579857 -0.868853,1.294071 -1.035555,1.598412 -1.596161,2.914058 -0.102814,0.241116 -0.220195,0.417767 -0.261011,0.392549 -0.04073,-0.02522 -0.08522,0.08789 -0.09858,0.251367 -0.01304,0.163476 -0.155607,0.762819 -0.316134,1.331882 -0.303323,1.075397 -0.386291,1.915803 -0.241878,2.450391 0.115034,0.426045 -0.367622,0.860519 -0.956009,0.860519 -1.179545,0 -2.943566,1.120248 -3.167215,2.011365 -0.119108,0.474467 0.152673,2.514871 0.41634,3.126783 0.12253,0.284172 0.216692,0.556592 0.209344,0.605372 -0.0081,0.0488 0.04041,0.126685 0.10591,0.173106 0.06566,0.04642 0.449547,0.736236 0.853129,1.532924 1.165842,2.301426 1.507638,2.683346 2.500862,2.794366 0.451092,0.0505 1.260652,0.55883 1.492399,0.93721 0.160657,0.26225 0.145015,0.33855 -0.128884,0.6301 -0.237597,0.25293 -0.341471,0.29042 -0.437181,0.15788 -0.08636,-0.11959 -0.09972,-0.0945 -0.04301,0.0803 0.31905,0.98226 0.281932,1.04219 -0.702425,1.13446 -0.42817,0.0401 -0.749175,-0.008 -0.959594,-0.14681 -0.521028,-0.34138 -0.360371,-0.40237 -4.036035,1.53221 -0.628111,0.33059 -1.387698,0.89698 -1.976884,1.47409 -0.853797,0.83632 -1.057536,1.14826 -1.892058,2.89705 -1.036777,2.17265 -1.663879,3.68684 -1.663879,4.01764 0,0.11959 -0.128558,0.58886 -0.285712,1.04292 -0.157073,0.45407 -0.249247,0.88459 -0.204667,0.95671 0.04448,0.0722 0.03161,0.16163 -0.029,0.19906 -0.06045,0.0373 -0.102,0.74007 -0.09239,1.56152 0.0176,1.49162 0.01841,1.49511 0.642988,2.67988 1.495433,2.83663 3.829413,5.5173 5.486872,6.30193 1.888458,0.89396 6.581653,1.90245 8.11844,1.74453 0.428805,-0.0442 0.987212,-0.20082 1.240923,-0.34836 0.892708,-0.51906 2.22882,0.10314 2.22882,1.03798 0,0.10102 -0.127744,0.26878 -0.283986,0.37289 -0.274209,0.18275 -0.270021,0.19023 0.121063,0.21688 0.713704,0.0487 1.487173,0.46919 1.648351,0.89621 0.137846,0.365 0.09304,0.46383 -0.597576,1.32181 -0.410573,0.51003 -0.747269,0.98052 -0.74823,1.04554 -9.62e-4,0.065 -0.108517,0.0772 -0.238966,0.0272 -0.130514,-0.05 -0.199127,-0.053 -0.15251,-0.007 0.0466,0.0466 -0.04839,0.22396 -0.211136,0.39429 -1.446112,1.51409 -2.051461,2.21605 -2.188525,2.53775 -0.08847,0.20778 -0.231421,0.47091 -0.31755,0.58472 -0.230835,0.30498 -0.723154,1.68412 -0.976621,2.73577 -0.644846,2.6755 -0.02526,6.72633 1.29233,8.44866 0.66039,0.86328 2.06197,2.00544 3.028147,2.46767 1.603575,0.76716 3.420747,1.35079 4.577903,1.47029 0.348949,0.036 0.789649,0.10004 0.979342,0.14208 0.791344,0.17559 6.220487,0.15121 8.129197,-0.0363 1.857336,-0.18261 2.023142,-0.1794 2.483183,0.0482 0.271129,0.1341 0.489907,0.30593 0.486175,0.38173 -0.02249,0.45808 -0.261825,0.75709 -0.724066,0.90473 -0.280906,0.0898 -0.569714,0.21772 -0.641798,0.28444 -0.07202,0.0666 -0.366954,0.12123 -0.65529,0.12123 -0.288319,0 -0.524222,0.0552 -0.524222,0.12269 0,0.0675 -0.07756,0.1165 -0.172438,0.10917 -0.09483,-0.008 -0.482852,0.0324 -0.862221,0.0885 -1.129245,0.16699 -1.559126,0.21247 -1.608643,0.17019 z"
       id="path836"
       sodipodi:nodetypes="cscsscsssssssssccsscscscsssssssssssscssssssssssssssssscsssscssssssssscsscsssscscssssssssssscssssssscsssccscssssscscssscssccscccccssssccssscsccssccscssssscccscccccssscssssssscsccscssssssssssscsssssssssscssssssscsssssssssssssssssssssssscsssssssssscssssscsscccscsscccscssscccssssccsccsccssccsssccssssssccsccssscccc" />
  </g>
</svg>
