<?xml version="1.0" encoding="UTF-8" standalone="no"?>
<!-- Created with Inkscape (http://www.inkscape.org/) -->

<svg
   width="106.21605mm"
   height="100.70097mm"
   viewBox="0 0 106.21605 100.70097"
   version="1.1"
   id="svg5"
   inkscape:version="1.1.1 (c3084ef, 2021-09-22)"
   sodipodi:docname="logo_gitlab copy 4.svg"
   xmlns:inkscape="http://www.inkscape.org/namespaces/inkscape"
   xmlns:sodipodi="http://sodipodi.sourceforge.net/DTD/sodipodi-0.dtd"
   xmlns="http://www.w3.org/2000/svg"
   xmlns:svg="http://www.w3.org/2000/svg">
  <sodipodi:namedview
     id="namedview7"
     pagecolor="#ffffff"
     bordercolor="#666666"
     borderopacity="1.0"
     inkscape:pageshadow="2"
     inkscape:pageopacity="0.0"
     inkscape:pagecheckerboard="0"
     inkscape:document-units="mm"
     showgrid="false"
     inkscape:zoom="0.51580387"
     inkscape:cx="622.32957"
     inkscape:cy="158.00579"
     inkscape:window-width="1312"
     inkscape:window-height="969"
     inkscape:window-x="0"
     inkscape:window-y="25"
     inkscape:window-maximized="0"
     inkscape:current-layer="layer1" />
  <defs
     id="defs2" />
  <g
     inkscape:label="Layer 1"
     inkscape:groupmode="layer"
     id="layer1"
     transform="translate(302.72412,-69.821036)">
    <path
       style="fill:#000000;stroke-width:0.337039"
       d="m -248.85217,170.45628 c -1.02202,-0.24521 -6.58121,-0.98201 -6.8568,-0.90877 -0.38335,0.10191 -5.77356,-1.23452 -7.51081,-1.86228 -0.78362,-0.28304 -1.5832,-0.86081 -1.83005,-1.32214 -0.29816,-0.55691 -0.54851,-0.7091 -0.7823,-0.4753 -0.54986,0.54986 -2.03565,0.39728 -2.44021,-0.2504 -0.20422,-0.32682 -1.08007,-3.39807 -1.94656,-6.82504 -1.47922,-5.85026 -3.98388,-12.98397 -5.344,-15.22045 -0.33159,-0.54513 -1.01681,-1.17266 -1.52292,-1.39451 -0.50612,-0.22173 -1.3338,-0.68354 -1.83936,-1.0258 -0.50922,-0.34474 -1.48618,-0.61503 -2.19074,-0.60596 -4.21875,0.0541 -10.01062,-2.28015 -12.66993,-5.10662 -4.95842,-5.27007 -8.08448,-12.65114 -8.83132,-20.8519 -0.21336,-2.345 -0.15564,-2.75239 0.62081,-4.38148 0.97477,-2.04489 1.34737,-2.39499 4.12408,-3.87497 3.05266,-1.6271 6.58763,-2.44814 10.97866,-2.54988 3.12702,-0.0725 3.00047,0.38175 1.24539,-4.471371 -1.04392,-2.88666 -1.09495,-3.250423 -1.0557,-7.522831 0.0573,-6.246793 0.55802,-7.327016 4.88095,-10.532257 8.09104,-5.999149 22.56793,-10.120845 38.40963,-10.93555 2.29173,-0.117831 4.35867,-0.274674 4.59318,-0.348716 0.75392,-0.237653 8.64031,-0.220137 9.93084,0.02388 0.71041,0.133356 1.32337,0.472837 1.42352,0.788512 0.15605,0.491865 0.81491,0.541306 5.83515,0.437687 9.76679,-0.201428 16.56102,0.952321 19.17344,3.256195 2.19098,1.932229 5.50908,6.998483 5.50908,8.411539 0,0.39131 0.12977,0.791378 0.28821,0.889425 0.44485,0.275071 -0.15167,3.327849 -0.95957,4.911601 -0.3982,0.780471 -0.65559,1.597167 -0.57208,1.814915 0.0836,0.217749 0.0279,1.681798 -0.12738,3.253449 -0.38216,3.908564 -1.93171,20.214302 -2.17721,22.911442 -0.10987,1.2049 -0.33717,3.02491 -0.50556,4.04447 -0.47208,2.85803 -0.99726,7.13279 -1.84266,14.99821 -0.0995,0.92688 -0.3523,2.74689 -0.56192,4.04447 -0.20939,1.29761 -0.41942,3.64846 -0.46659,5.22413 -0.12022,4.01485 -0.80774,11.02742 -1.17612,11.99642 -0.16958,0.44609 -0.52522,0.81105 -0.79026,0.81105 -0.26512,0 -0.89847,0.71084 -1.40761,1.57969 -1.34359,2.29265 -3.43764,4.4355 -5.19149,5.31254 -0.84161,0.42081 -2.89521,1.17509 -4.56356,1.67619 -1.66834,0.50102 -3.41252,1.04917 -3.87592,1.21804 -0.46344,0.16878 -1.98012,0.54644 -3.3704,0.83898 -1.39029,0.29259 -2.83113,0.60062 -3.20186,0.68454 -0.37061,0.084 -2.02184,0.30732 -3.66912,0.49648 -1.64725,0.18909 -3.13681,0.43156 -3.3101,0.53868 -0.35031,0.21655 -13.62269,0.49752 -14.42279,0.30533 z m 16.54375,-6.73901 c 1.96228,-0.27627 4.38897,-0.66033 5.39264,-0.8534 1.00367,-0.19307 2.65904,-0.51109 3.67859,-0.70667 1.87368,-0.35946 7.89141,-2.35654 9.18166,-3.04708 0.89608,-0.47953 2.22008,-1.905 2.78894,-3.00262 0.67705,-1.30633 1.14817,-3.97282 1.84377,-10.43525 0.34912,-3.24401 0.7948,-6.95987 0.99026,-8.25744 0.32085,-2.12996 0.64938,-4.90762 1.21593,-10.27972 0.10748,-1.01952 0.50034,-3.97703 0.87294,-6.57226 0.68422,-4.76531 1.38651,-11.08686 1.81603,-16.34638 0.23646,-2.89789 0.29378,-3.44413 0.69962,-6.691527 0.21775,-1.74346 0.20223,-1.791906 -0.46511,-1.434791 -0.37977,0.203418 -1.27138,0.461691 -1.98119,0.574307 -0.70978,0.112656 -1.51803,0.325229 -1.79609,0.472836 -0.64763,0.343541 -6.5434,1.621211 -8.47033,1.835616 -0.80977,0.08996 -2.15484,0.246012 -2.98901,0.346725 -9.61226,1.159524 -28.02673,1.542434 -41.28726,0.858534 -5.23165,-0.269896 -6.2936,-0.439557 -12.21767,-1.952451 -3.90769,-0.997941 -6.48652,-1.510067 -6.48425,-1.287741 0.0119,1.079945 3.4987,11.033792 4.28841,12.239012 0.56678,0.86507 0.64831,1.19941 0.90057,3.69317 0.10549,1.04252 0.008,1.45832 -0.36942,1.60377 -0.28144,0.10788 -0.42681,0.41775 -0.32284,0.68832 0.1039,0.27069 0.045,0.58068 -0.13057,0.68915 -0.18033,0.11146 -0.0474,0.5921 0.30692,1.10618 1.492,2.1661 2.73814,4.2535 2.74005,4.58987 9.9e-4,0.19984 0.19904,0.7427 0.43984,1.20614 0.61355,1.18082 1.1293,3.20194 2.09384,8.20494 1.21565,6.30539 1.14798,7.03192 -0.71188,7.64571 -1.15613,0.38176 -1.56795,1.00129 -0.66538,1.00129 0.56805,0 2.34718,3.47868 3.01655,5.89819 0.25636,0.92685 0.7946,2.82269 1.19598,4.21298 0.58713,2.03362 1.62352,8.38128 1.69219,10.36395 0.008,0.23168 0.34593,0.42129 0.75121,0.42129 0.40513,0 1.04969,0.28064 1.43241,0.62374 0.97469,0.87374 9.28102,2.56342 15.18849,3.0896 3.97858,0.35429 10.90458,0.12978 15.36408,-0.49803 z m -40.97906,-26.13396 c -0.11465,-0.1855 -0.43582,-0.33717 -0.71388,-0.33717 -0.27825,0 -0.41181,0.15167 -0.29736,0.33717 0.11465,0.18551 0.43582,0.33718 0.71387,0.33718 0.27826,0 0.41181,-0.15167 0.29737,-0.33718 z m -8.07549,-2.33751 c -0.10708,-0.17356 -0.98822,-0.6788 -1.95786,-1.12309 -2.61366,-1.19758 -6.40515,-4.98684 -7.49751,-7.49318 -0.48474,-1.11223 -1.185,-2.61501 -1.55609,-3.33951 -0.38096,-0.74365 -0.83071,-2.63691 -1.03293,-4.34729 -0.3312,-2.80083 -0.29896,-3.21917 0.4263,-5.53164 0.47654,-1.51959 1.03309,-2.63472 1.41771,-2.84057 0.82956,-0.44397 4.95563,-0.17634 7.40636,0.48056 1.06589,0.28582 1.93796,0.41301 1.93796,0.28304 0,-0.60027 -3.803,-2.06205 -5.36458,-2.06205 -2.38313,0 -6.01256,1.21414 -7.21057,2.41216 -0.98099,0.98098 -0.99727,1.05351 -0.78883,3.5192 0.25914,3.06643 2.32696,9.40295 3.95203,12.11099 2.04588,3.40922 4.5353,5.94099 7.00907,7.12842 2.2116,1.06159 3.63561,1.41246 3.25894,0.803 z m 6.2204,-4.82458 c -0.15644,-0.60245 -0.39011,-1.92952 -0.51933,-2.94908 -0.40357,-3.17948 -4.44422,-9.96671 -6.47903,-10.88296 -0.49811,-0.22412 -1.28826,-0.82629 -1.7558,-1.3377 -0.60106,-0.65747 -1.30446,-0.98974 -2.4012,-1.13436 l -1.55107,-0.20462 -0.40656,1.61453 c -0.5007,1.9884 -0.21576,3.88125 0.88087,5.85596 0.45647,0.82191 1.13344,2.3055 1.50437,3.29688 0.41747,1.11569 1.01681,2.01749 1.57304,2.36677 0.49426,0.3105 1.38472,0.9774 1.97881,1.48228 0.59409,0.50492 2.00165,1.25402 3.12793,1.66468 1.12632,0.4107 2.12793,0.87633 2.22585,1.0348 0.0979,0.15844 0.61189,0.28821 1.14213,0.28821 0.92123,0 0.95144,-0.0486 0.67999,-1.09539 z m 15.16811,-39.409284 c 0.31528,-0.193068 -0.63608,-0.228497 -2.52779,-0.09435 -1.66834,0.118229 -3.16428,0.339959 -3.32426,0.492542 -0.39291,0.374591 5.21282,-0.008 5.85205,-0.398197 z m -16.64223,-0.401541 c -0.17475,-0.696915 -0.0199,-0.865938 1.22736,-1.327668 0.78528,-0.290995 2.11029,-0.700896 2.94446,-0.910882 0.83417,-0.210185 3.30969,-0.976046 5.50123,-1.702299 2.1915,-0.726213 4.92151,-1.487377 6.0667,-1.691471 1.14515,-0.204214 2.76465,-0.505798 3.59882,-0.670483 8.27624,-1.63371 26.38622,-2.233454 34.37799,-1.138382 2.13174,0.292189 5.54426,0.889703 7.58337,1.328106 2.03908,0.438323 4.2717,0.889624 4.9614,1.002877 0.68967,0.113452 1.7113,0.590707 2.27024,1.061076 0.98202,0.82629 0.9991,0.88831 0.50683,1.840273 -0.28024,0.541823 -0.38932,0.985162 -0.24203,0.985162 0.58565,0 3.48991,-3.132751 3.97043,-4.282718 0.49206,-1.177752 0.47713,-1.27751 -0.38892,-2.599725 -0.49529,-0.756268 -1.55923,-2.021 -2.36423,-2.810587 -2.26291,-2.219482 -2.72981,-2.271829 -20.25729,-2.271829 -8.38805,0 -15.25103,-0.120219 -15.25099,-0.266712 0,-0.146891 -1.13934,-0.16361 -2.53185,-0.03583 -2.24432,0.203418 -2.59841,0.155648 -3.11763,-0.419972 -0.62171,-0.689271 -1.31083,-0.735369 -4.46165,-0.298558 -4.18252,0.579959 -15.62757,4.43132 -20.54459,6.913374 -3.73066,1.883265 -8.10374,5.28245 -8.10374,6.299061 0,0.325627 2.11045,1.185634 4.33379,1.765872 0.0665,0.01592 0.0318,-0.328016 -0.0796,-0.767056 z"
       id="path921"
       sodipodi:nodetypes="cssssssssscscsssssssccscsscssccsscsssssssssssccssssssssscscscscsscsscsscssscssssssssscscscssssssssssssssssccssscssssssssccssccccsscsscsssssssscssssccc" />
  </g>
</svg>
