<?xml version="1.0" encoding="UTF-8" standalone="no"?>
<!-- Created with Inkscape (http://www.inkscape.org/) -->

<svg
   width="116.99214mm"
   height="129.52051mm"
   viewBox="0 0 116.99214 129.52051"
   version="1.1"
   id="svg5"
   inkscape:version="1.1.1 (c3084ef, 2021-09-22)"
   sodipodi:docname="console_perspective.svg"
   xmlns:inkscape="http://www.inkscape.org/namespaces/inkscape"
   xmlns:sodipodi="http://sodipodi.sourceforge.net/DTD/sodipodi-0.dtd"
   xmlns="http://www.w3.org/2000/svg"
   xmlns:svg="http://www.w3.org/2000/svg">
  <sodipodi:namedview
     id="namedview7"
     pagecolor="#ffffff"
     bordercolor="#666666"
     borderopacity="1.0"
     inkscape:pageshadow="2"
     inkscape:pageopacity="0.0"
     inkscape:pagecheckerboard="0"
     inkscape:document-units="mm"
     showgrid="false"
     inkscape:zoom="0.94963666"
     inkscape:cx="502.29738"
     inkscape:cy="315.38378"
     inkscape:window-width="1946"
     inkscape:window-height="1223"
     inkscape:window-x="0"
     inkscape:window-y="25"
     inkscape:window-maximized="0"
     inkscape:current-layer="layer1" />
  <defs
     id="defs2" />
  <g
     inkscape:label="Layer 1"
     inkscape:groupmode="layer"
     id="layer1"
     transform="translate(-30.456825,-14.335129)">
    <g
       id="g1415">
      <path
         id="path1001-8"
         style="fill:#008400;fill-opacity:0.532432;stroke-width:0.225915"
         d="m 142.97487,17.511423 c -0.38312,-0.01528 -1.11483,0.154702 -2.42208,0.490926 v 3.882967 h 0.1478 l -0.12092,2.428793 c -0.007,0.134892 -0.0192,0.421526 -0.0269,0.579808 V 76.62771 c 0.005,0.108699 0.0112,0.378463 0.016,0.466122 0.14663,2.700319 0.21899,4.86284 0.45114,13.469461 0.0854,3.168449 0.18809,5.81628 0.22788,5.883878 0.0398,0.0676 0.14198,2.303754 0.22739,4.969729 0.0851,2.66598 0.18909,4.90674 0.231,4.97904 0.0419,0.0722 0.13994,3.57934 0.21754,7.79384 0.13428,7.27819 0.30174,10.75127 0.77928,16.13441 0.11565,1.30465 0.27035,3.59186 0.34314,5.08289 0.0728,1.49105 0.18058,2.93986 0.23926,3.21945 h 5.3e-4 c 0.0871,0.41418 0.012,0.50292 -0.40566,0.48162 -0.28194,-0.0148 -0.86839,-0.16145 -1.30328,-0.32608 -0.43487,-0.16464 -1.27807,-0.30412 -1.87378,-0.31212 -0.59576,-0.007 -1.76514,-0.16739 -2.59831,-0.35657 -0.83315,-0.18918 -1.948,-0.44342 -2.47788,-0.56482 -0.52986,-0.12164 -1.20809,-0.22118 -1.50688,-0.22118 -0.29882,0 -1.13586,-0.14749 -1.86037,-0.32814 -0.72448,-0.18056 -1.73357,-0.38624 -2.24223,-0.45734 -0.50867,-0.071 -1.27125,-0.22914 -1.69448,-0.3514 -0.42322,-0.12226 -3.05665,-0.57918 -5.85234,-1.01544 -5.88492,-0.91832 -8.7126,-1.41526 -12.76408,-2.24173 -0.99404,-0.20282 -1.98549,-0.32276 -2.20298,-0.26716 -0.21738,0.0556 -0.39531,0.025 -0.39531,-0.0677 0,-0.0927 -0.73679,-0.2981 -1.63764,-0.4563 -0.90083,-0.15822 -3.11225,-0.58488 -4.913908,-0.94827 -3.642096,-0.73456 -7.324646,-1.43255 -10.041758,-1.90324 -0.987822,-0.17111 -2.51296,-0.46516 -3.388942,-0.65319 -0.876009,-0.18802 -1.846898,-0.38685 -2.157492,-0.44235 -1.693148,-0.30237 -14.797431,-3.62468 -17.39533,-4.41006 -6.728841,-2.03426 -10.618316,-2.95974 -17.621147,-4.19355 -2.54717,-0.44878 -5.393811,-0.97671 -6.325711,-1.17305 -0.77792,-0.16389 -1.613132,-0.31577 -2.155941,-0.40049 h -5.689058 c 0.0025,0.009 0.0047,0.0468 0.0072,0.0506 0.10051,0.15533 0.377973,0.28215 0.615982,0.28215 0.291351,0 0.578596,0.32034 0.879017,0.97979 0.245459,0.53882 0.578308,1.08946 0.740008,1.22369 0.532559,0.442 11.885409,3.18857 13.811559,3.3414 0.396849,0.0315 1.126586,0.16442 1.621605,0.29559 0.495051,0.13119 1.510157,0.34085 2.255676,0.46612 2.4374,0.40955 6.379051,1.38372 9.601483,2.37247 2.300028,0.70573 6.578936,1.90711 7.680666,2.15646 0.43488,0.0984 1.909001,0.48558 3.27577,0.86041 1.3668,0.37484 3.501903,0.90138 4.744413,1.17047 1.242536,0.26909 2.869247,0.62804 3.614763,0.79737 0.745517,0.16933 2.473828,0.51719 3.840586,0.77308 6.718062,1.25775 14.554579,2.76953 15.361889,2.96364 1.24417,0.29915 6.60095,1.34023 7.56854,1.47071 0.43486,0.0587 1.29852,0.20697 1.91976,0.32918 0.62129,0.12231 1.94328,0.3814 2.9373,0.57619 1.59618,0.31256 6.73782,1.18078 9.26145,1.56373 0.49659,0.0754 1.25915,0.22797 1.69447,0.33952 0.94522,0.24219 3.40952,0.77546 3.72845,0.80666 0.27755,0.0272 1.50286,0.27849 2.71095,0.55604 0.49702,0.11421 1.76747,0.37391 2.82358,0.57723 1.05616,0.20332 2.07277,0.40852 2.2593,0.45682 0.18638,0.0481 0.82212,0.19979 1.41232,0.33641 0.59021,0.13669 1.07281,0.3391 1.07281,0.4501 0,0.111 0.27945,0.1473 0.62113,0.0801 0.34171,-0.0672 1.02796,0.025 1.52498,0.20516 0.497,0.18006 1.21751,0.34006 1.60145,0.35346 0.6287,0.0237 0.72982,-0.0691 1.01597,-0.93379 0.17473,-0.52808 0.29271,-1.03603 0.26199,-1.12913 -0.0306,-0.0931 0.10216,-0.1695 0.29509,-0.1695 0.19301,0 0.70138,-0.27945 1.12964,-0.62115 0.75335,-0.60204 0.77872,-0.67049 0.77772,-2.20296 -8e-4,-0.86978 -0.11073,-1.97517 -0.24443,-2.45619 -0.13351,-0.48102 -0.27249,-1.49727 -0.3085,-2.25877 -0.0792,-1.66836 -0.76909,-8.87792 -0.91157,-9.52759 -0.10126,-0.46153 -0.24109,-4.74485 -0.4532,-13.8839 -0.062,-2.67143 -0.19524,-5.16179 -0.2961,-5.53455 -0.10091,-0.37276 -0.12226,-0.98271 -0.0476,-1.35547 0.17119,-0.85409 0.0535,-3.29826 -0.22272,-4.63126 -0.11594,-0.559142 -0.27281,-3.711009 -0.3483,-7.003709 -0.14361,-6.257538 -0.27223,-9.58714 -0.41444,-10.730611 -0.0907,-0.728869 -0.3039,-6.380625 -0.48215,-12.764595 -0.0606,-2.17442 -0.16653,-5.528921 -0.23514,-7.454842 -0.21561,-6.05002 -0.25783,-15.977745 -0.0873,-20.558434 0.0903,-2.42294 0.23892,-7.759909 0.33023,-11.860257 0.0912,-4.100351 0.24053,-7.506412 0.33123,-7.568531 0.0906,-0.06213 0.30041,-0.492985 0.46665,-0.957564 0.38978,-1.089364 0.10763,-1.930453 -0.83148,-2.478918 -0.26181,-0.152906 -0.42971,-0.247864 -0.71932,-0.259416 z" />
      <path
         style="fill:#000000;stroke-width:0.225915"
         d="m 139.57379,140.32404 c -0.49702,-0.18011 -1.18322,-0.2724 -1.52492,-0.20519 -0.3417,0.0672 -0.62128,0.0312 -0.62128,-0.0798 0,-0.111 -0.48288,-0.31382 -1.07308,-0.45051 -0.5902,-0.13662 -1.22559,-0.28794 -1.41197,-0.33607 -0.18652,-0.0483 -1.203,-0.25376 -2.25916,-0.45708 -1.05613,-0.20332 -2.3269,-0.46297 -2.82392,-0.57718 -1.20809,-0.27755 -2.43342,-0.5289 -2.71097,-0.55609 -0.31892,-0.0312 -2.7831,-0.56421 -3.72834,-0.80641 -0.4353,-0.11154 -1.19777,-0.26443 -1.69436,-0.33981 -2.52361,-0.38295 -7.66555,-1.25102 -9.26174,-1.56358 -0.99401,-0.19479 -2.31561,-0.45396 -2.9369,-0.57627 -0.62125,-0.12221 -1.48537,-0.27038 -1.92025,-0.32908 -0.96757,-0.13048 -6.32396,-1.17136 -7.56815,-1.47051 -0.807293,-0.19411 -8.644143,-1.70606 -15.362182,-2.96381 -1.366774,-0.25589 -3.09502,-0.60379 -3.840538,-0.77312 -0.745518,-0.16933 -2.372102,-0.52803 -3.614641,-0.79712 -1.242512,-0.26909 -3.377404,-0.79594 -4.744204,-1.17078 -1.366774,-0.37483 -2.840866,-0.76205 -3.275743,-0.86047 -1.101733,-0.24935 -5.38107,-1.45081 -7.681102,-2.15654 -3.22243,-0.98875 -7.163962,-1.96252 -9.601357,-2.37207 -0.745518,-0.12527 -1.760533,-0.33508 -2.255579,-0.46627 -0.495019,-0.13117 -1.224741,-0.26429 -1.621595,-0.29577 -1.926152,-0.15283 -13.278756,-2.8993 -13.811318,-3.34129 -0.161698,-0.13424 -0.494913,-0.68493 -0.740369,-1.22375 -0.300421,-0.65945 -0.587795,-0.97967 -0.879145,-0.97967 -0.238011,0 -0.515112,-0.12706 -0.615626,-0.28239 -0.100594,-0.15532 -0.194518,-4.60301 -0.208659,-9.88376 -0.01334,-5.280749 -0.09713,-10.719641 -0.184112,-12.086423 -0.08699,-1.366784 -0.194518,-3.603338 -0.239078,-4.97012 -0.04456,-1.366782 -0.140352,-3.603335 -0.213196,-4.970117 -0.07284,-1.366785 -0.179575,-5.382415 -0.23721,-8.923622 -0.05764,-3.54121 -0.173171,-7.912656 -0.256689,-9.714325 -0.08352,-1.801669 -0.162498,-6.407192 -0.175572,-10.234498 l -0.02401,-6.958739 0.564795,-0.511769 c 0.89254,-0.808756 1.527992,-1.136714 4.17941,-2.15699 1.366773,-0.525943 2.637543,-1.080927 2.823922,-1.233299 0.483599,-0.395356 2.850045,-1.496153 3.216373,-1.496153 0.169436,0 0.404485,-0.08667 0.52253,-0.192597 0.117938,-0.105931 0.722917,-0.319377 1.344173,-0.474311 0.621283,-0.154947 1.485406,-0.412615 1.920283,-0.572624 0.434876,-0.160017 2.417276,-0.714862 4.405332,-1.233015 1.988057,-0.518154 4.732918,-1.286478 6.099692,-1.707386 1.366774,-0.420908 3.526321,-1.023814 4.798958,-1.339795 1.272637,-0.315978 3.252315,-0.883759 4.399302,-1.261737 1.146961,-0.377975 2.748837,-0.841095 3.559728,-1.029153 0.810891,-0.188061 2.592689,-0.68209 3.959543,-1.097851 1.366854,-0.415759 3.349334,-0.981429 4.405466,-1.257044 1.056159,-0.275612 3.648528,-1.046089 5.76082,-1.712169 3.540383,-1.116404 6.57123,-1.898485 7.681102,-1.982034 0.248417,-0.01868 0.502651,-0.0912 0.564795,-0.161111 0.09152,-0.103023 4.221195,-1.29658 8.584743,-2.481193 1.792148,-0.486529 6.332518,-1.662814 8.019968,-2.077742 2.69531,-0.662767 7.98064,-2.168155 8.42331,-2.39917 0.21293,-0.11116 1.60727,-0.530446 3.0983,-0.931721 1.49104,-0.401272 3.41757,-0.932295 4.28118,-1.180053 0.86359,-0.24775 3.50679,-0.948054 5.87377,-1.556216 2.36698,-0.608163 5.86723,-1.514333 7.77836,-2.01371 3.44881,-0.901172 3.48003,-0.904889 4.17818,-0.497146 0.9391,0.548465 1.22127,1.389766 0.83149,2.47913 -0.16623,0.46458 -0.37639,0.895523 -0.467,0.957651 -0.0907,0.06212 -0.23961,3.467787 -0.33084,7.568135 -0.0913,4.100349 -0.23988,9.437576 -0.3302,11.860509 -0.1705,4.580692 -0.12861,14.508207 0.087,20.558221 0.0686,1.92592 0.1745,5.280751 0.23507,7.455176 0.17824,6.38397 0.39178,12.035295 0.48248,12.76417 0.14222,1.143466 0.27091,4.473396 0.41452,10.730938 0.0755,3.292704 0.23214,6.444212 0.34807,7.00335 0.27625,1.332999 0.39374,3.777153 0.22254,4.631243 -0.0747,0.37276 -0.0531,0.98273 0.0478,1.35549 0.10086,0.37276 0.23428,2.86347 0.29626,5.5349 0.21213,9.13905 0.35192,13.42241 0.45318,13.88394 0.14249,0.64967 0.83216,7.85892 0.91138,9.52728 0.036,0.7615 0.17504,1.77811 0.30856,2.25914 0.13368,0.48102 0.24335,1.58623 0.24415,2.45601 0.001,1.53247 -0.024,1.60062 -0.77735,2.20266 -0.42826,0.3417 -0.93657,0.62126 -1.12959,0.62126 -0.19292,0 -0.32591,0.0763 -0.2953,0.16943 0.0307,0.0931 -0.0873,0.60151 -0.26203,1.12959 -0.28614,0.86474 -0.38706,0.95752 -1.01576,0.9338 -0.38394,-0.0134 -1.10472,-0.17371 -1.60171,-0.35377 z m 0.91829,-4.87241 c -0.0587,-0.27959 -0.1665,-1.72825 -0.23934,-3.21929 -0.0728,-1.49103 -0.22734,-3.77842 -0.34298,-5.08307 -0.47757,-5.38314 -0.64541,-8.85629 -0.77968,-16.13449 -0.0776,-4.21449 -0.17557,-7.72181 -0.21746,-7.79405 -0.0419,-0.0723 -0.14596,-2.3126 -0.23107,-4.978576 -0.0854,-2.665968 -0.18758,-4.902521 -0.22734,-4.970117 -0.0398,-0.06759 -0.14222,-2.715273 -0.22761,-5.883724 -0.23214,-8.606614 -0.30447,-10.769168 -0.4511,-13.469482 -0.0734,-1.351618 -0.1785,-5.30401 -0.23374,-8.783095 -0.0552,-3.479081 -0.15476,-6.579758 -0.2212,-6.890391 -0.15823,-0.739434 -0.0846,-17.430797 0.0977,-22.139621 0.0726,-1.876287 0.0427,-2.033347 -0.38575,-2.031837 -0.21747,6.77e-4 -0.68655,0.153266 -1.04245,0.338872 -0.35589,0.185605 -0.88024,0.337481 -1.16521,0.337481 -0.28494,0 -1.01037,0.25346 -1.61204,0.563229 -0.60167,0.309777 -1.50059,0.613817 -1.99761,0.675646 -1.16767,0.145261 -7.69874,1.384601 -9.60136,1.821959 -2.40327,0.552433 -6.70646,1.400058 -9.60138,1.891238 -1.49101,0.25298 -3.37175,0.616562 -4.17941,0.807958 -1.69004,0.400507 -4.47303,0.971321 -8.785078,1.801893 -1.663353,0.320389 -3.106947,0.633621 -3.207995,0.696072 -0.384045,0.237371 -6.203354,1.68712 -9.01695,2.246386 -1.056159,0.209941 -3.292713,0.715716 -4.970128,1.123963 -1.677415,0.408245 -3.405661,0.80235 -3.840538,0.875786 -0.434903,0.07343 -1.146534,0.192037 -1.58141,0.263547 -2.473684,0.40679 -5.695981,1.060503 -6.777435,1.374941 -1.485006,0.431779 -2.499086,0.619524 -6.664487,1.233877 -4.243768,0.62591 -6.423328,1.025773 -8.584742,1.574959 -0.994015,0.25258 -3.128907,0.763561 -4.744205,1.135541 -3.063747,0.705541 -4.210735,1.015083 -4.970128,1.34131 -1.847705,0.793752 -3.73506,1.293986 -5.647845,1.496935 -0.869166,0.09222 -3.600606,0.115617 -3.992389,0.03418 -0.242547,-0.0504 -0.299568,0.932778 -0.297754,5.133691 0.0022,5.189826 0.320274,17.926991 0.46735,18.716552 0.04269,0.229605 0.08672,1.398721 0.09766,2.598017 0.01067,1.199297 0.113402,3.146323 0.227604,4.326725 0.655037,6.768569 0.85281,11.361207 0.916021,21.271605 l 0.04429,6.92603 0.816867,0.10212 c 0.449286,0.0562 1.57933,0.26274 2.511227,0.45907 0.931897,0.19634 3.77842,0.72417 6.325588,1.17295 7.002825,1.23381 10.892486,2.15953 17.621332,4.19379 2.597892,0.78539 15.702303,4.10734 17.395434,4.40971 0.310615,0.0555 1.281522,0.25471 2.157519,0.44273 0.875997,0.18803 2.40092,0.48186 3.388718,0.65297 2.717138,0.47069 6.399766,1.16865 10.041864,1.90322 1.80165,0.36338 4.0128,0.79014 4.91364,0.94836 0.90084,0.1582 1.63787,0.36352 1.63787,0.45624 0,0.0927 0.17798,0.12311 0.39536,0.0675 0.21747,-0.0556 1.20863,0.0648 2.20267,0.26762 4.05149,0.82647 6.87923,1.32301 12.76415,2.24133 2.79569,0.43626 5.42937,0.89322 5.85261,1.01548 0.42322,0.12226 1.18568,0.2804 1.69436,0.35144 0.50865,0.0711 1.51758,0.27689 2.24208,0.45745 0.72449,0.18065 1.56174,0.32836 1.86056,0.32836 0.2988,0 0.97681,0.0993 1.50667,0.22094 0.52987,0.1214 1.64508,0.37561 2.47825,0.56479 0.83317,0.18918 2.00228,0.34971 2.59803,0.35672 0.59572,0.008 1.43895,0.14729 1.87382,0.31193 0.43491,0.16463 1.0214,0.31128 1.30333,0.32611 0.41772,0.0213 0.4928,-0.0672 0.40568,-0.48138 z M 37.995169,51.829334 c 1.039616,-0.169009 1.962708,-0.424574 2.051295,-0.567922 0.08859,-0.143341 0.306425,-0.204871 0.484053,-0.136697 0.378389,0.145208 1.592484,-0.09955 4.332302,-0.873395 1.089246,-0.307645 2.258353,-0.587985 2.598025,-0.622979 0.339673,-0.03498 0.719236,-0.133334 0.843498,-0.218559 0.304824,-0.209034 2.598025,-0.879189 2.598025,-0.759225 0,0.05235 0.243881,0.0025 0.541741,-0.110787 0.297967,-0.113296 0.984196,-0.269491 1.524923,-0.347117 0.540754,-0.07762 1.623143,-0.287006 2.405349,-0.46529 0.782207,-0.178294 1.747992,-0.371798 2.146179,-0.430025 0.398215,-0.05822 1.689796,-0.301383 2.870217,-0.540346 1.180395,-0.238971 2.806979,-0.550992 3.614615,-0.693401 0.807662,-0.142406 1.722616,-0.315484 2.03323,-0.384614 0.310642,-0.06914 1.052237,-0.212742 1.647984,-0.319167 0.595774,-0.106411 1.307405,-0.268922 1.581411,-0.36113 0.274006,-0.09222 0.599856,-0.195238 0.724118,-0.228939 0.58873,-0.15975 5.734084,-1.260269 6.384184,-1.36549 0.404965,-0.06553 0.792186,-0.209594 0.860494,-0.320132 0.06831,-0.110521 0.407286,-0.200949 0.753256,-0.200949 0.345969,0 1.220765,-0.20359 1.944003,-0.452412 0.723238,-0.248817 1.356768,-0.410611 1.407865,-0.359519 0.05123,0.0511 0.415639,-0.0035 0.810091,-0.12146 0.394478,-0.117912 1.12388,-0.302439 1.620901,-0.410091 1.110112,-0.240466 5.993894,-1.338327 7.229255,-1.625138 0.496994,-0.115404 1.513609,-0.295246 2.259127,-0.399677 0.745518,-0.104436 2.626256,-0.459411 4.179436,-0.788845 1.553154,-0.329432 3.098274,-0.647648 3.433574,-0.707148 0.33532,-0.0595 0.84363,-0.195452 1.12959,-0.302125 0.28593,-0.106677 1.02822,-0.265627 1.64948,-0.353224 0.62125,-0.0876 1.73953,-0.315941 2.48505,-0.507419 1.30345,-0.334776 3.62176,-0.812156 5.76082,-1.186254 0.55914,-0.09779 2.18572,-0.452978 3.61464,-0.789312 1.42889,-0.336332 3.61461,-0.799636 4.85715,-1.029565 4.26712,-0.789622 7.00435,-1.361378 7.6811,-1.604448 0.37276,-0.133895 1.26549,-0.387344 1.98387,-0.563248 0.71835,-0.175893 1.68414,-0.510957 2.14618,-0.74457 0.54323,-0.274665 1.60903,-0.481318 3.01638,-0.584856 l 2.17631,-0.160123 0.14515,-3.313131 c 0.0798,-1.822223 0.19959,-4.405992 0.26603,-5.741712 l 0.12087,-2.428579 h -0.68089 c -0.37449,0 -0.91442,0.09328 -1.19984,0.207325 -0.28543,0.114016 -1.53555,0.431325 -2.77809,0.70511 -1.24253,0.273784 -3.73324,0.955402 -5.53489,1.514706 -1.80168,0.559304 -4.13989,1.218388 -5.19605,1.464628 -1.05614,0.246229 -3.34352,0.858765 -5.08308,1.361165 -1.73953,0.5024 -3.77276,1.06057 -4.51828,1.240374 -0.74552,0.179816 -2.47377,0.65997 -3.84054,1.067041 -3.57808,1.06565 -6.57553,1.859189 -8.13292,2.153082 -1.298147,0.244974 -2.226229,0.50657 -5.986744,1.687501 -0.931898,0.292652 -2.253498,0.686223 -2.936871,0.874607 -0.6834,0.18838 -3.224939,0.901865 -5.647872,1.585519 -2.422933,0.683654 -4.761148,1.309643 -5.196024,1.391093 -0.434877,0.08144 -1.502323,0.355164 -2.372103,0.608256 -0.869779,0.253086 -1.683072,0.483065 -1.807307,0.511048 -0.124342,0.02799 -0.507614,0.166447 -0.851875,0.307701 -0.344262,0.141258 -1.970847,0.613598 -3.614641,1.049662 -1.643769,0.436063 -3.547801,0.956755 -4.231201,1.157092 -0.6834,0.200334 -3.275769,0.856105 -5.76082,1.457266 -5.441213,1.316282 -12.719992,3.391524 -14.51193,4.13748 -0.71614,0.298116 -1.896294,0.712279 -2.622547,0.920362 -0.726253,0.208073 -2.861145,0.972111 -4.744204,1.697841 -1.88306,0.72573 -3.982891,1.508737 -4.666264,1.740021 l -1.242539,0.420511 -0.112868,1.994748 c -0.06217,1.097115 -0.07071,2.036705 -0.01868,2.087981 0.173972,0.172265 1.473558,0.08643 3.377484,-0.223095 z m -0.375747,-0.984318 c -0.558045,-0.442583 -0.67046,-0.945007 -0.425831,-1.902981 0.246015,-0.963445 1.76352,-1.001914 2.689681,-0.06817 1.114834,1.123968 1.126628,1.173788 0.399975,1.691213 -0.948547,0.675427 -2.022824,0.788328 -2.663825,0.279953 z m 6.674946,-2.791823 c -0.747599,-0.557757 -0.79843,-1.280055 -0.139818,-1.986952 0.667764,-0.716775 1.629386,-0.49225 2.578387,0.602025 0.403604,0.465378 0.691512,0.915949 0.639827,1.001273 -0.174505,0.287892 -1.506298,0.861537 -1.98352,0.854328 -0.260424,-0.004 -0.753176,-0.215731 -1.094876,-0.470674 z m 8.11846,-0.672002 c -0.912819,-0.250285 -1.253452,-0.600774 -1.413629,-1.454568 -0.113935,-0.607458 -0.008,-0.944647 0.550974,-1.757432 0.635824,-0.924162 1.385425,-1.517422 1.385425,-1.096501 0,0.09643 0.408167,0.355439 0.907082,0.575554 0.907883,0.400557 1.577968,1.301324 1.577968,2.121206 0,0.938334 -1.849439,1.92936 -3.00782,1.611741 z m 19.273665,0.02028 c 0,-0.124262 -0.107532,-0.225923 -0.239345,-0.225923 -0.131546,0 -0.176373,0.101661 -0.09953,0.225923 0.07685,0.124262 0.184378,0.225924 0.239345,0.225924 0.0547,0 0.09953,-0.101662 0.09953,-0.225924 z"
         id="path1001"
         sodipodi:nodetypes="cssccssssccccsssssssssccssccsssssccsssscssssssssssscsscsssssscsccccccssccccccscsccccsccscscsscccssssssssssssssssssssscccccssssssssssssssscscscsccccsssscscsssssssscssssccsssssssssssssssccccssssssssssssssssssssssscccccssssssccscccsccsssssssss" />
    </g>
  </g>
</svg>
