<?xml version="1.0" encoding="UTF-8" standalone="no"?>
<!-- Created with Inkscape (http://www.inkscape.org/) -->

<svg
   width="515.1825mm"
   height="705.18536mm"
   viewBox="0 0 515.1825 705.18536"
   version="1.1"
   id="svg15443"
   inkscape:version="1.1.1 (c3084ef, 2021-09-22)"
   sodipodi:docname="console.svg"
   xmlns:inkscape="http://www.inkscape.org/namespaces/inkscape"
   xmlns:sodipodi="http://sodipodi.sourceforge.net/DTD/sodipodi-0.dtd"
   xmlns="http://www.w3.org/2000/svg"
   xmlns:svg="http://www.w3.org/2000/svg">
  <sodipodi:namedview
     id="namedview15445"
     pagecolor="#ffffff"
     bordercolor="#666666"
     borderopacity="1.0"
     inkscape:pageshadow="2"
     inkscape:pageopacity="0.0"
     inkscape:pagecheckerboard="0"
     inkscape:document-units="mm"
     showgrid="false"
     inkscape:zoom="1.237268"
     inkscape:cx="6145.3943"
     inkscape:cy="2069.4788"
     inkscape:window-width="1440"
     inkscape:window-height="1061"
     inkscape:window-x="103"
     inkscape:window-y="113"
     inkscape:window-maximized="0"
     inkscape:current-layer="layer1" />
  <defs
     id="defs15440">
    <clipPath
       clipPathUnits="userSpaceOnUse"
       id="clipPath16615">
      <rect
         style="fill:#e6e6e6;stroke-width:1.19827;stroke-dasharray:0, 13.1809"
         id="rect16617"
         width="790.22479"
         height="1226.9279"
         x="-1668.83"
         y="-280.73773" />
    </clipPath>
    <clipPath
       clipPathUnits="userSpaceOnUse"
       id="clipPath16723">
      <rect
         style="fill:#e6e6e6;stroke-width:0.765;stroke-dasharray:0, 8.41499"
         id="rect16725"
         width="779.82703"
         height="829.21613"
         x="-317.12967"
         y="1138.5472" />
    </clipPath>
    <clipPath
       clipPathUnits="userSpaceOnUse"
       id="clipPath16615-6">
      <rect
         style="fill:#e6e6e6;stroke-width:1.19827;stroke-dasharray:0, 13.1809"
         id="rect16617-4"
         width="790.22479"
         height="1226.9279"
         x="-1668.83"
         y="-280.73773" />
    </clipPath>
    <clipPath
       clipPathUnits="userSpaceOnUse"
       id="clipPath2941">
      <path
         id="path2943"
         style="fill:#ff0000;fill-opacity:1;fill-rule:nonzero;stroke:none;stroke-width:0.264583"
         d="m -167.79877,1521.3247 -10.92388,0.01 c 0.10292,0.164 0.18513,0.3508 0.24132,0.5586 0.34896,0.011 0.69787,0.024 1.04696,0.03 1.23071,0.022 2.46242,-0.014 3.69332,0 1.02399,0 2.04846,0.024 3.07216,-0.01 0.16872,-0.01 0.7879,-0.034 0.92813,0 0.0336,0.01 0.0668,0.017 0.10025,0.025 0.0612,-0.051 1.54591,0.3627 1.81126,0.341 0,-0.023 -0.003,-0.046 -0.004,-0.07 -0.052,-0.037 -0.14287,-0.088 -0.29816,-0.1618 0.099,0 0.19812,-0.01 0.29713,-0.01 0,-0.2364 0.008,-0.4723 0.0315,-0.7059 z m -17.32762,0.01 c 0,0.029 0,0.057 -0.003,0.086 0.68281,0.134 1.38184,0.2227 2.04433,0.4134 0.27519,-0.01 0.55054,-0.011 0.82579,-0.015 0.13284,-0.1818 0.27051,-0.3436 0.41185,-0.4847 z m -8.49717,1.4769 c -0.008,0 -0.0161,0 -0.0249,0 0.0114,0.01 0.0172,0.01 0.0268,0.016 0,-0.01 0,-0.015 -0.003,-0.021 z m -1.09141,0.071 v 0.2284 c 0.1451,-0.022 0.33507,-0.049 0.5085,-0.074 -0.0146,-0.047 -0.0172,-0.092 -0.009,-0.1328 -0.20121,0.019 -0.3747,0.018 -0.49972,-0.021 z m 66.32414,0.1173 c -0.0456,0 -0.0896,-10e-5 -0.13076,0.013 h -0.0305 c -0.24199,0.097 -0.49419,0.1649 -0.74776,0.2289 0.1144,0.535 0.2132,1.073 0.31265,1.6118 v 0.1385 c 0.0425,-0.036 0.29065,-0.094 0.73586,-0.1736 v -1.8154 h -0.14004 z m -65.30713,0.2295 c 0.003,0.031 0.005,0.061 0.01,0.092 0.01,0 0.0191,0 0.0289,0 0.0193,-0.011 0.041,-0.021 0.0636,-0.031 0,-0.021 -0.003,-0.043 -0.003,-0.066 -0.0344,0 -0.0657,0 -0.0992,0 z m -0.36743,0.01 c -0.053,0 -0.10141,2e-4 -0.15605,0 0.0641,0.01 0.13475,0.021 0.201,0.031 -0.0159,-0.011 -0.031,-0.023 -0.045,-0.035 z m -0.64905,0.021 v 0.01 46.7961 h 66.46415 v -1.8562 c -1.0986,0.7307 -2.65985,0.075 -3.06078,-2.0495 -0.20272,-0.061 -0.40404,-0.1281 -0.60306,-0.1897 -3.24641,-1.0052 -3.00831,-3.8189 -0.69247,-4.2343 -0.058,-0.6006 0.22522,-1.2206 0.85215,-1.6681 -0.014,-0.235 0.0254,-0.476 0,-0.7106 -0.005,-0.3778 -0.0156,-0.8105 0.0382,-1.1487 -0.0322,-0.3326 -0.0676,-0.6653 -0.11163,-0.9964 -0.031,-0.2255 -0.0793,-0.4489 -0.0997,-0.6754 -0.0101,-0.044 0,-0.088 0,-0.1323 -0.28776,-0.5906 -0.22394,-0.4229 -0.4925,-1.2046 -0.0111,-0.026 -0.0114,-0.055 -0.0114,-0.083 0.007,-0.011 0.0201,-0.021 0.0201,-0.032 -0.036,-0.1236 -0.13555,-0.2231 -0.17053,-0.3467 -0.11742,-0.1858 -0.24299,-0.3819 -0.35242,-0.5705 -0.048,-0.082 -0.10692,-0.1603 -0.13592,-0.2512 -0.11221,-0.3538 -0.17788,-0.721 -0.28578,-1.0764 -0.0169,-0.056 0.0225,0.1165 0.0124,0.1746 -0.004,0.048 -0.0164,-0.097 -0.0164,-0.1446 -0.0598,-0.4572 -0.0669,-0.4669 -0.10387,-1.0083 -0.029,-0.4339 0.0835,-0.8461 -0.0646,-1.282 -0.16232,-1.1512 -0.26548,-1.7757 -0.36639,-2.9906 -0.014,-0.1694 0,-0.3397 0,-0.5095 0.003,-0.7764 0.0116,-1.5525 0.0124,-2.329 -0.007,-1.2924 -0.0454,-2.5854 -0.0496,-3.8778 -0.19585,0.033 -0.31086,0.052 -0.57981,0.098 -1.08477,0.03 -2.17009,0.1287 -3.25459,0.091 -1.24968,-0.045 -6.53214,-0.688 -7.5184,-0.8485 -0.4073,-0.066 -0.79055,-0.2365 -1.18959,-0.3416 -0.48895,-0.1284 -0.97695,-0.2651 -1.47381,-0.3587 -0.25482,-0.048 -0.51681,-0.043 -0.77515,-0.065 -0.94345,-0.3203 -1.63581,-0.4209 -2.34611,-1.1947 -0.48612,-0.5297 -0.95036,-1.1053 -1.24127,-1.7627 -0.26686,-0.6028 -0.33086,-1.2814 -0.39584,-1.9374 -0.13603,-1.3796 -0.19249,-2.1869 -0.17984,-2.8618 -0.76351,0.1572 -1.70162,0.3454 -2.24121,0.4077 -0.76851,0.089 -1.8737,0.2812 -2.69285,-0.024 -1.45796,0.1557 -2.9555,0.3026 -4.08347,0.416 -1.25066,0.1044 -1.96821,0.2054 -3.18638,0.1638 -0.21103,-0.01 -0.41997,-0.045 -0.62941,-0.074 -0.94316,0.1242 -1.89289,0.1903 -2.83962,0.2863 -2.33331,0.109 -1.99363,0.1489 -4.55321,0 -0.51681,-0.03 -1.02968,-0.118 -1.54668,-0.1442 -0.39894,-0.019 -0.79825,-0.01 -1.19734,0.01 -0.15912,0.01 -0.31679,0.037 -0.4749,0.055 -0.18005,0.021 -0.36042,0.041 -0.54055,0.062 -0.332,0.039 -0.66561,0.045 -0.99941,0.042 -0.59833,0.523 -1.20827,1.029 -1.8924,1.4268 -0.18537,0.1077 -0.29382,-0.3128 -0.42683,-0.4811 -0.0337,-0.043 -0.0667,-0.086 -0.10025,-0.1292 -0.95173,0.5848 -0.73803,0.429 -0.0243,-0.03 -0.3307,-0.4223 -0.65498,-0.8516 -0.96637,-1.2899 -0.0307,0.3675 -0.0698,0.9569 -0.16277,2.6211 -0.039,0.6971 -0.0582,1.3952 -0.0842,2.0929 -0.11041,2.9776 -0.0873,2.2193 -0.13229,4.5759 -0.0111,0.7676 -0.0209,1.5355 -0.031,2.3033 -0.014,1.7406 0.0251,1.1631 -0.0249,3.1439 -0.013,0.5397 -0.0596,1.0777 -0.0806,1.617 v 0.2139 h -0.008 c 0,4.2272 -4.191,4.2264 -4.27003,0 -0.0132,-0.6862 0.0708,-1.3705 0.0878,-2.0556 0.0352,-1.3975 0.0151,-1.5911 0.018,-2.5823 -1.17232,1.7235 -3.67731,0.9673 -3.67731,-2.2712 v -1.0568 c -0.008,0 -0.0222,0.01 -0.0222,0 -0.014,-0.034 -0.0238,-0.072 -0.0238,-0.11 -0.035,-0.2898 -0.066,-0.5787 -0.0941,-0.8693 -0.066,-0.6946 -0.0652,-1.3903 -0.0522,-2.0872 -0.07,-0.4055 0.1409,-0.7656 0.18191,-1.1529 0.0119,-0.1138 0.0185,-0.2279 0.0233,-0.3421 -0.0591,-0.025 -0.13293,-0.086 -0.2367,-0.1958 -0.0547,-0.058 -0.003,-0.2491 0.0527,-0.3065 h 0.003 c 0.0318,-0.1795 0.0455,-0.4574 0.0455,-0.5069 0.0233,-0.2974 0.0309,-0.5972 0.0651,-0.894 -1.10797,-0.3575 -1.758,-1.1178 -1.79522,-2.1208 -0.007,-0.1986 0.0138,-0.3969 0.0315,-0.5953 -0.0354,-0.1078 -0.0718,-0.2155 -0.11007,-0.322 -0.13642,-0.3811 -0.30861,-0.7509 -0.42322,-1.1389 -0.013,-0.044 -0.022,-0.075 -0.0326,-0.1122 5e-5,0.064 1.3e-4,0.1275 0,0.1912 v 0.027 0.01 c 0.0201,0.1205 -0.13047,0.1766 -0.28369,0.1721 -0.15917,0.01 -0.32181,-0.047 -0.29972,-0.1731 v -0.01 -0.2935 c -0.10623,-0.03 -0.21373,-0.1313 -0.27699,-0.3209 -0.019,-0.058 -0.0369,-0.1174 -0.0579,-0.1752 -0.0336,-0.094 -0.12081,-0.2361 -0.10282,-0.34 0.005,-0.03 0.0167,-0.057 0.0279,-0.084 -0.072,-0.073 -0.0546,-0.1339 0.007,-0.1839 -0.005,-0.013 -0.0103,-0.026 -0.0156,-0.039 -0.0522,-0.054 -0.0647,-0.1103 -0.0599,-0.1679 -0.0678,-0.2607 0.0469,-0.4191 0.2036,-0.4196 0.0343,-3e-4 0.0706,0.01 0.1075,0.023 -0.023,-0.061 -0.0462,-0.1216 -0.0708,-0.1943 -0.10936,-0.1037 -0.11549,-0.3299 -0.14108,-0.5323 h 0.0114 c 0.005,-0.1955 0.11954,-0.3092 0.24961,-0.3136 0.0501,0 0.10207,0.013 0.15089,0.046 -0.0135,-0.1439 -0.0243,-0.2669 -0.045,-0.4693 -0.0114,-0.1956 -0.0254,-0.3912 -0.0388,-0.5865 -0.0949,-0.011 -0.20582,-0.023 -0.28371,-0.033 -0.008,0.032 -0.0151,0.061 -0.0185,0.085 -0.0196,0.12 -1.3e-4,0.2423 0.0135,0.3643 -0.0193,-0.096 -0.0382,-0.1917 -0.0574,-0.2873 0.0143,-0.053 0.0301,-0.1049 0.047,-0.1571 -0.0272,0 -0.0591,-0.01 -0.0842,-0.011 0.0122,0.056 0.0241,0.1127 0.0357,0.1694 -0.0451,0.1675 -0.0753,0.337 -0.0729,0.4992 0,0.1509 0.0185,0.301 0.0372,0.4512 -0.24357,-0.6872 -0.22593,-1.026 -0.0372,-1.1385 -0.67548,-0.098 -0.52887,-0.1617 -0.009,-0.2025 -0.0662,-0.2796 -0.14277,-0.5569 -0.2,-0.8387 -0.0962,-0.4731 -0.18785,-0.9481 -0.25786,-1.4258 -0.008,-0.053 -0.0156,-0.1973 -0.0233,-0.3307 -0.0169,-0.01 -0.0336,-0.013 -0.0501,-0.018 -0.09,-0.033 -0.12748,-0.065 -0.13021,-0.096 -0.39359,0.018 -0.73196,-0.016 -0.94413,-0.1689 z m 57.77683,0.3287 c -3.23761,0.4532 -2.4479,0.358 -5.96448,0.9131 1.41592,0.1846 2.83416,0.3506 4.25709,0.464 0.12142,0.01 0.81439,0.033 1.76681,0.061 -0.0101,-0.1087 -0.0185,-0.241 -0.03,-0.4465 -0.013,-0.1545 0,-0.3098 0,-0.4645 -0.003,-0.1764 -0.0138,-0.352 -0.0295,-0.5271 z m -19.25516,1.2019 c -0.0413,0.4142 -0.0799,0.8278 -0.10954,1.2429 -0.008,0.087 0.037,0.2158 0.0491,0.3147 0.9421,-0.058 1.88423,-0.1155 2.8262,-0.1757 -0.27133,-0.3868 -0.4753,-0.8354 -0.70797,-1.2578 -0.65561,-0.047 -1.3775,-0.082 -2.05777,-0.1241 z m 22.81878,0.1158 v 0 c -0.0365,0.01 -0.072,0.014 -0.10698,0.02 0.005,0.068 0.008,0.086 0.0124,0.1437 h 0.092 c 0,-0.06 0.003,-0.098 0.003,-0.1669 z m -27.19835,0.8098 c -0.17129,0.013 -0.32663,0.024 -0.87024,0.073 -0.80857,0.074 -1.61642,0.1573 -2.42414,0.2403 -0.62828,0.064 -1.25413,0.1573 -1.88413,0.2021 -0.7371,0.052 -1.4764,0.06 -2.21485,0.09 -0.23011,0 -1.66272,2e-4 -2.04793,-0.091 -0.0498,-0.012 -0.0986,-0.027 -0.14726,-0.043 -0.12089,0.01 -0.24369,0 -0.36484,0 -1.07413,0.034 -2.14908,0.011 -3.22358,0.01 -1.22811,-0.012 -2.45713,0.024 -3.68506,0 -0.51763,-0.01 -1.03426,-0.029 -1.55183,-0.044 -0.24252,-0.012 -0.48536,-0.02 -0.72814,-0.03 -0.0423,0.085 -0.0848,0.1691 -0.1271,0.2537 0.18465,0.3443 0.36861,0.6888 0.55292,1.0331 0.14248,0.2726 0.22291,0.4292 0.31369,0.6056 1.97253,-0.5252 2.67669,-0.4761 5.37435,-0.6873 1.05558,-0.083 2.11416,-0.1191 3.17138,-0.1783 3.25697,-0.1998 6.51624,-0.3608 9.77461,-0.5395 0.009,-0.057 0.0175,-0.115 0.0268,-0.1726 -0.004,0.045 -0.009,0.09 -0.008,0.1261 0.006,-0.041 0.014,-0.082 0.014,-0.1132 0,-0.01 -0.003,-0.014 -0.004,-0.02 -1.6e-4,0 0,0 0,0 0,0 0,0 0,0 -0.0233,-0.1073 -0.0787,-0.2371 0.005,-0.2822 0.009,-0.01 0.0185,-0.01 0.0279,-0.016 0.004,-0.1151 0.0119,-0.2458 0.0217,-0.3814 z m -0.0537,0.7116 c 0.0101,-0.062 0.0204,-0.121 0.03,-0.1814 -5e-5,-0.014 -2.1e-4,-0.027 0,-0.041 -0.0135,0.085 -0.0236,0.1577 -0.03,0.2223 z m -10.4531,-0.5778 v 0 c -0.0196,0.014 0.54184,0.2333 0.75292,0.2992 0.0225,0.01 0.057,0.011 0.0946,0.014 -0.2676,-0.097 -0.52332,-0.2321 -0.79891,-0.3034 -0.0298,-0.01 -0.0443,-0.01 -0.0486,-0.01 z m 10.54094,0.025 c -0.0137,0.081 -0.0257,0.149 -0.0372,0.2171 0.0151,-0.01 0.0298,-0.017 0.045,-0.025 0.009,-0.064 0.0188,-0.1281 0.0289,-0.1917 z m -0.0408,0.2785 c 0,-0.014 -0.01,0.029 -0.01,0.043 v 0.026 c 0.003,-0.023 0.007,-0.046 0.01,-0.069 z m 4.22195,0.028 c -0.3656,0.07 -0.72964,0.1538 -1.09347,0.2397 0.35555,-0.022 0.7111,-0.044 1.06662,-0.066 0.004,-0.053 0.0159,-0.1139 0.0268,-0.1736 z m -4.23642,0.1245 c -0.003,0.046 -0.004,0.091 -0.006,0.1349 0.004,-0.042 0.007,-0.083 0.006,-0.1168 -1.9e-4,-0.01 1e-4,-0.013 0,-0.018 z m -32.46364,0.032 c -0.01,0 -0.0185,0.01 -0.0274,0.014 0.0111,10e-5 0.0201,0 0.0326,0.01 -0.003,-0.01 -0.003,-0.015 -0.005,-0.022 z m 0.003,1.1591 v 0 c 0.003,0.011 0.006,0.021 0.0109,0.032 0.0201,0.056 0.0311,0.122 0.0403,0.1907 h -0.0254 c -0.007,-0.075 -0.0172,-0.1486 -0.0268,-0.2228 z m 0.25217,1.4258 v 0 c 0,0 0,0 0,0 z m 0,0 c -0.0109,0.012 -0.023,0.025 -0.0372,0.039 0.0122,0 0.0249,-0.01 0.0372,-0.014 z m -0.18759,0.2254 c 0,0 0.003,-2e-4 0.003,0.01 z m -0.0289,0.097 v 0.01 c 0.003,0.02 0.014,0.078 0.014,0.058 -0.003,-0.028 -0.004,-0.04 -0.006,-0.058 -0.003,0 -0.005,2e-4 -0.008,-0.01 z m 57.56394,0.3829 c -0.36507,0.011 -0.72991,0.029 -1.09297,0.073 -3.5039,0.012 -4.31128,-0.015 -8.4124,0.186 -0.72337,0.036 -1.44592,0.087 -2.16834,0.1385 -0.47011,0.2302 -0.96425,0.4166 -1.45934,0.5788 -1.89746,0.622 -1.67523,0.5319 -3.42254,0.9059 -0.005,0 -0.0222,-2e-4 -0.0274,0.01 -0.0312,0.7024 0.022,1.502 0.1757,2.9982 0.1651,1.6066 0.33793,2.079 1.47381,3.2329 0.5637,0.5725 1.19171,0.6615 1.92083,0.8863 0.18938,0.01 0.38152,-0.01 0.5679,0.025 0.54372,0.101 1.07942,0.2417 1.61491,0.3793 0.41187,0.1059 0.80687,0.2837 1.22679,0.3514 0.89654,0.1456 6.23409,0.7789 7.36545,0.8196 1.0488,0.038 2.09841,-0.063 3.14759,-0.094 0.2909,-0.051 0.42566,-0.074 0.62788,-0.1096 0,-0.052 0.003,-0.1037 0.003,-0.156 -5e-5,-0.3261 -0.0103,-0.6522 -0.0103,-0.9783 -0.0568,-0.4292 -0.1261,-0.966 -0.18912,-1.387 -0.023,-0.1582 -0.058,-0.3139 -0.078,-0.4728 -0.088,-0.7339 -0.1094,-1.3343 0,-2.0706 0.0201,-0.1037 0.042,-0.2063 0.062,-0.3101 0.0164,-0.086 0.0266,-0.1731 0.0444,-0.2584 -0.11459,-0.2546 -0.21241,-0.521 -0.34002,-0.7664 -0.006,-0.2729 -0.0434,-0.5468 -0.0175,-0.819 0.0228,-0.2585 0.0587,-0.5183 0.10231,-0.7783 -0.12798,-0.2186 -0.26969,-0.4299 -0.3819,-0.6568 -0.2803,-0.5661 -0.51631,-1.1429 -0.73276,-1.7275 z m -54.53311,0.9085 c -0.22138,0.1089 -0.44265,0.2257 -0.66353,0.2909 -1.93685,0.5727 -0.44757,1.0128 1.19632,1.462 -0.004,-0.094 -0.0101,-0.1875 -0.0135,-0.2812 -0.35713,-0.018 -0.36176,-0.1005 -0.22841,-0.5116 -0.14544,-0.2595 -0.24151,-0.5955 -0.29094,-0.9601 z m -1.4118,1.4748 c 0.007,0.028 0.0124,0.057 0.0196,0.085 v -0.024 c -0.006,-0.021 -0.0132,-0.041 -0.0196,-0.061 z m 63.15324,2.0232 c -0.0829,0.032 -0.16676,0.059 -0.25164,0.078 0.013,0.051 0.0259,0.1011 0.0403,0.1519 0.12182,0.4821 0.17211,0.6672 0.21135,0.8315 z m -61.38074,2.237 c -0.0177,0.07 -0.0259,0.1268 -0.006,0.1494 0.003,-0.05 0.004,-0.1 0.006,-0.1494 z m 61.38074,1.741 c -0.36137,0.2398 -0.75223,0.4384 -1.15496,0.6207 0.22104,0.012 0.43937,0.028 0.65215,0.055 0.16809,-0.049 0.33636,-0.097 0.50281,-0.1514 z m -1.42989,0.6057 c 0,0.044 0.003,0.087 0.004,0.1307 0.0898,-0.04 0.18132,-0.076 0.27024,-0.1157 -0.0911,-0.01 -0.18301,-0.011 -0.2744,-0.015 z m 1.43196,0.8139 c -0.46236,0.1411 -0.93068,0.2643 -1.39732,0.3917 0,0.3026 -0.0138,0.606 -0.014,0.9085 0,1.2791 0.0156,0.9994 0.0346,2.0836 0.0191,0.8391 0.0172,1.144 0.0172,1.9068 0,0.7906 -0.0156,1.5813 -0.0156,2.3719 0,0.1661 -0.0161,0.3326 0,0.4982 0.0368,0.4045 0.26395,1.9669 0.32298,2.3844 0.0956,0.94 0.098,0.7173 0.108,1.4221 0,0.1552 -0.0146,0.3113 0,0.4661 0.009,0.099 0.0265,0.1963 0.0434,0.2941 0.0463,0.077 0.10636,0.182 0.17571,0.2914 0.28332,0.4581 0.47527,0.9162 0.63148,1.4335 0.039,0.129 0.0522,0.2646 0.092,0.3933 z" />
    </clipPath>
  </defs>
  <g
     inkscape:label="Layer 1"
     inkscape:groupmode="layer"
     id="layer1"
     transform="translate(1810.1755,-1012.5785)">
    <g
       id="g18494"
       transform="matrix(215.89999,0,0,-294.30133,0,294.30133)" />
    <path
       style="fill:#000000;stroke-width:0.0846667"
       d="m -253.59928,1593.5321 c -2.52996,-0.1715 -3.08495,-0.2232 -3.46045,-0.3223 -0.38105,-0.1005 -0.47094,-0.099 -0.69889,0.015 -0.28717,0.1432 -1.2099,0.099 -1.54683,-0.075 -0.57042,-0.2935 -1.12008,-0.9493 -1.44255,-1.7211 -0.0682,-0.1632 -0.16268,-0.2967 -0.20998,-0.2967 -0.15295,0 -0.25148,-0.2975 -0.33917,-1.0241 -0.10273,-0.8512 -0.25062,-2.5518 -0.30854,-3.5479 -0.023,-0.3958 -0.0774,-1.0816 -0.12077,-1.524 -0.0434,-0.4424 -0.10002,-1.8521 -0.12581,-3.1326 -0.10085,-5.0066 -0.22759,-8.5591 -0.33832,-9.4827 -0.0342,-0.2851 -0.0794,-1.5286 -0.17381,-4.7837 -0.0612,-2.1092 -0.11084,-2.9515 -0.25203,-4.2756 -0.067,-0.6287 -0.14038,-1.6574 -0.163,-2.286 -0.0503,-1.398 -0.11538,-2.4711 -0.22078,-3.6407 -0.17399,-1.9306 -0.32665,-3.9009 -0.3772,-4.8683 -0.0292,-0.5588 -0.12329,-1.4923 -0.2091,-2.0744 -0.17212,-1.1675 -0.1612,-2.2858 0.0267,-2.7355 0.17001,-0.4069 0.6394,-0.9103 0.98455,-1.056 0.16371,-0.069 0.58757,-0.1362 0.9419,-0.1491 0.43658,-0.016 0.7724,-0.082 1.04181,-0.2047 0.22251,-0.1014 0.46976,-0.1582 0.56153,-0.1291 0.38786,0.1231 0.68262,0.1295 1.72677,0.038 1.59124,-0.14 6.58063,-0.096 6.84259,0.061 0.0354,0.021 1.33076,0.053 2.87867,0.07 1.54791,0.018 3.42398,0.063 4.16905,0.1004 1.57184,0.08 7.62822,0.077 8.93233,0 0.48895,-0.03 1.6891,-0.074 2.667,-0.097 0.9779,-0.023 2.02565,-0.063 2.32834,-0.088 0.30268,-0.025 2.32198,-0.082 4.48733,-0.126 2.16535,-0.044 4.0513,-0.097 4.191,-0.1176 0.1397,-0.02 0.635,-0.063 1.10067,-0.094 1.10804,-0.074 1.22918,-0.086 2.05316,-0.1987 0.38418,-0.053 1.01283,-0.1337 1.397,-0.1805 0.38418,-0.047 0.8509,-0.1043 1.03717,-0.1279 1.26221,-0.1599 4.86637,-0.3614 7.53533,-0.4212 4.40595,-0.099 5.43346,-0.1301 5.93417,-0.1809 0.54613,-0.055 0.8815,0.046 0.8815,0.2665 0,0.1255 0.90674,0.8871 1.05628,0.8872 0.10901,0 0.69783,0.6561 0.85728,0.9552 0.29078,0.5454 0.4721,1.595 0.45652,2.6426 -0.008,0.5591 0.001,1.1308 0.0208,1.2705 0.0215,0.152 -0.0291,0.3711 -0.12595,0.5456 -0.15023,0.2706 -0.15514,0.3647 -0.0685,1.3123 0.0514,0.5615 0.11123,1.2304 0.13305,1.4865 0.0218,0.2561 0.0589,1.361 0.0823,2.4553 0.0234,1.0943 0.061,2.1421 0.0835,2.3283 0.0403,0.3342 0.11598,2.2564 0.17324,4.4027 0.0527,1.9745 0.13385,3.9668 0.16362,4.0159 0.016,0.026 0.056,0.5625 0.0888,1.1911 0.0328,0.6287 0.0708,1.1621 0.0845,1.1853 0.0136,0.023 0.0499,0.3281 0.0806,0.6774 0.0307,0.3492 0.0914,0.9398 0.13497,1.3123 0.0436,0.3725 0.0965,0.925 0.11768,1.2277 0.0212,0.3027 0.0774,0.8932 0.12486,1.3123 0.12842,1.1329 0.18547,2.044 0.22535,3.5983 0.0197,0.7684 0.0564,1.6256 0.0815,1.905 0.0251,0.2794 0.0634,1.0224 0.0851,1.651 0.0217,0.6287 0.0602,1.6574 0.0857,2.286 0.0255,0.6287 0.0614,1.6002 0.0798,2.159 0.0388,1.1776 0.0958,1.832 0.22054,2.5336 0.0586,0.3295 0.0609,0.562 0.007,0.6774 -0.23551,0.5015 -0.27907,0.7266 -0.21653,1.1192 0.036,0.2261 0.0564,0.4588 0.0452,0.517 -0.0112,0.058 0.0185,0.1058 0.0659,0.1058 0.0965,0 0.0441,0.4117 -0.10128,0.7954 -0.15055,0.3973 -0.44151,0.6453 -1.04253,0.8888 -0.4657,0.1886 -0.59804,0.2876 -0.75169,0.562 l -0.18647,0.3331 -0.6706,-0.028 c -0.36883,-0.015 -0.69115,-0.041 -0.71625,-0.056 -0.0251,-0.015 -0.55852,-0.052 -1.18534,-0.08 -0.62683,-0.029 -1.27303,-0.074 -1.43601,-0.1002 -0.16299,-0.026 -0.54399,-0.062 -0.84667,-0.079 -0.30268,-0.017 -0.65251,-0.053 -0.77739,-0.081 -0.12488,-0.027 -0.84878,-0.063 -1.60867,-0.079 -1.02725,-0.022 -1.45218,0 -1.65677,0.086 -0.15134,0.063 -0.27517,0.09 -0.27517,0.06 0,-0.03 -0.0457,-0.01 -0.1016,0.047 -0.12415,0.1242 -0.8503,0.133 -1.25362,0.015 -0.16268,-0.047 -1.22923,-0.1052 -2.37011,-0.1283 -3.69343,-0.075 -5.59659,-0.1214 -7.32367,-0.18 -3.14519,-0.1067 -12.99651,-0.029 -13.40923,0.1055 -0.0641,0.021 -0.16888,-0.01 -0.23283,-0.058 -0.0751,-0.062 -0.11627,-0.065 -0.11627,-0.01 0,0.055 -0.34135,0.091 -0.91017,0.096 -0.50059,0 -1.00541,0.023 -1.12183,0.042 -0.11642,0.019 -0.85937,0.06 -1.651,0.092 -0.79163,0.032 -1.57268,0.069 -1.73567,0.083 -0.27472,0.024 -1.50253,0.079 -3.89466,0.1753 -0.53552,0.021 -1.43087,0.058 -1.98967,0.081 -2.72681,0.1131 -6.48542,0.1382 -6.59891,0.044 -0.065,-0.054 -0.13787,-0.063 -0.1639,-0.021 -0.0456,0.074 -0.97531,0.098 -1.74619,0.046 z m -4.40267,-1.5549 c 0,-0.3428 0.30018,-0.4652 0.8425,-0.3436 0.72481,0.1626 1.47172,0.2308 3.30617,0.3019 0.53551,0.021 0.99271,0.041 1.016,0.044 0.16073,0.023 5.0043,-0.042 6.05366,-0.081 1.01501,-0.038 5.77475,-0.2565 6.43467,-0.2952 0.37253,-0.022 1.19168,-0.064 1.82033,-0.093 0.62865,-0.03 1.2304,-0.067 1.33721,-0.083 0.10681,-0.016 1.24981,-0.056 2.54,-0.087 1.29019,-0.032 2.57439,-0.067 2.85379,-0.078 2.66848,-0.1084 8.99108,-0.1352 11.557,-0.049 4.90528,0.1647 10.41627,0.202 10.98725,0.074 0.57871,-0.1293 1.86177,-0.1115 3.91409,0.054 0.81491,0.066 2.16746,0.1611 3.00566,0.2117 0.8382,0.051 1.69971,0.1216 1.91448,0.1578 0.29489,0.05 0.4743,0.03 0.73296,-0.08 0.37942,-0.1612 0.46493,-0.3282 0.44119,-0.8619 -0.0503,-1.1305 -0.0453,-1.1795 0.12871,-1.2769 0.24725,-0.1382 0.30099,-0.2386 0.25468,-0.4756 -0.077,-0.3942 -0.12043,-0.8858 -0.17129,-1.9386 -0.0279,-0.5772 -0.0652,-1.1888 -0.083,-1.3592 -0.032,-0.3076 -0.0791,-1.1926 -0.17132,-3.2216 -0.0265,-0.5821 -0.0641,-1.306 -0.0838,-1.6086 -0.0196,-0.3027 -0.0756,-1.3124 -0.12453,-2.2437 -0.087,-1.6572 -0.22154,-3.6012 -0.30178,-4.3603 -0.0221,-0.2096 -0.0796,-0.8192 -0.12774,-1.3547 -0.0481,-0.5355 -0.14204,-1.4499 -0.20871,-2.032 -0.19475,-1.7001 -0.33853,-4.2379 -0.42212,-7.4507 -0.0398,-1.5297 -0.0902,-2.947 -0.16879,-4.7413 -0.0214,-0.489 -0.0617,-1.7272 -0.0896,-2.7517 -0.0279,-1.0244 -0.0661,-1.996 -0.085,-2.159 -0.0189,-0.163 -0.0578,-0.6583 -0.0865,-1.1006 -0.061,-0.9405 -0.16755,-1.1031 -0.6908,-1.0544 -0.17513,0.016 -1.06137,0.07 -1.96942,0.1198 -0.90805,0.049 -2.06352,0.131 -2.56771,0.1812 -0.50419,0.05 -0.93782,0.07 -0.96364,0.044 -0.0258,-0.026 -0.10985,-0.013 -0.18678,0.028 -0.11625,0.062 -1.7943,0.2666 -3.79201,0.4619 -0.64273,0.063 -2.71021,0.2053 -4.55486,0.3137 -2.41516,0.142 -2.45932,0.145 -3.59833,0.2405 -1.81533,0.1521 -2.04902,0.169 -3.00567,0.2168 -0.51223,0.026 -1.50283,0.083 -2.20133,0.1272 -0.6985,0.044 -1.78435,0.1009 -2.413,0.1258 -0.62865,0.025 -1.31827,0.066 -1.53249,0.092 -0.21422,0.026 -0.74762,0.059 -1.18533,0.074 -0.76593,0.026 -2.43669,0.1182 -5.57952,0.3071 -1.95596,0.1175 -10.23434,0.1594 -12.91166,0.065 -1.16417,-0.041 -3.62162,-0.091 -5.461,-0.1123 -1.83939,-0.021 -3.63008,-0.073 -3.97933,-0.115 -0.34925,-0.042 -1.31213,-0.084 -2.13972,-0.092 -0.82759,-0.01 -1.57054,-0.039 -1.651,-0.069 -0.17468,-0.064 -0.52728,-0.423 -0.52728,-0.5365 0,-0.044 -0.0332,-0.08 -0.0737,-0.08 -0.0406,0 -0.0448,0.1619 -0.009,0.3599 0.0354,0.1979 0.0889,0.6836 0.11896,1.0795 0.0301,0.3958 0.0889,1.1006 0.13084,1.5663 0.0419,0.4657 0.15357,2.0659 0.24815,3.556 0.19866,3.1299 0.20174,3.1744 0.37481,5.4187 0.0718,0.9313 0.15428,2.7982 0.18324,4.1486 0.0523,2.438 0.0906,3.3361 0.17687,4.1487 0.0247,0.2328 0.0606,1.052 0.0797,1.8203 0.0191,0.7684 0.0561,1.9876 0.0821,2.7094 0.026,0.7217 0.0676,2.2648 0.0924,3.429 0.0248,1.1641 0.0657,2.3262 0.0908,2.5823 0.0252,0.2561 0.065,0.9229 0.0884,1.4817 0.0686,1.6358 0.0968,2.0687 0.13927,2.1374 0.022,0.036 0.0851,0.598 0.14016,1.2497 0.0566,0.6693 0.14286,1.2217 0.19831,1.2695 0.054,0.047 0.11002,0.1799 0.12453,0.2964 0.052,0.4176 0.30669,0.981 0.63142,1.397 0.35412,0.4536 0.48056,0.535 0.84504,0.5443 0.20399,0.01 0.23283,-0.026 0.23283,-0.2501 z m 0.29634,-28.4212 c -0.25912,-0.062 -0.69476,-0.5865 -0.67028,-0.8074 0.0116,-0.105 0.0243,-0.2196 0.0282,-0.2545 0.004,-0.035 0.0547,-0.065 0.11289,-0.067 0.0582,0 0.22013,-0.1527 0.35983,-0.3344 0.1397,-0.1818 0.46449,-0.4629 0.72174,-0.6245 0.44587,-0.2802 0.82677,-0.6198 0.75235,-0.6707 -0.28396,-0.1941 -0.811,-0.5132 -1.19856,-0.7256 -0.57559,-0.3154 -0.82586,-0.5171 -0.82586,-0.6654 0,-0.06 -0.032,-0.1081 -0.0711,-0.1081 -0.0391,0 -0.10946,-0.086 -0.15638,-0.1905 -0.11329,-0.253 0.1383,-0.6806 0.4134,-0.7025 0.10728,-0.01 0.57252,0.1793 1.03386,0.4175 0.46134,0.2382 1.10031,0.5685 1.41993,0.734 0.31962,0.1656 0.80645,0.3475 1.08184,0.4044 0.40573,0.084 0.57328,0.1739 0.88332,0.4753 0.34687,0.3371 0.37584,0.3954 0.31015,0.6245 -0.0399,0.139 -0.1524,0.3326 -0.25009,0.4303 -0.0977,0.098 -0.17762,0.2157 -0.17762,0.2623 0,0.047 -0.0667,0.085 -0.14817,0.085 -0.0815,0 -0.48201,0.2481 -0.89005,0.5504 -0.40804,0.3023 -0.8029,0.5496 -0.87747,0.5496 -0.0746,0 -0.27412,0.076 -0.44345,0.1679 -0.37563,0.2049 -1.10529,0.5131 -1.18271,0.4996 -0.0311,-0.01 -0.13268,-0.028 -0.22581,-0.05 z m 21.29366,-11.0704 c 0.34925,-0.023 0.9779,-0.063 1.397,-0.088 0.4191,-0.025 1.3335,-0.083 2.032,-0.1277 0.6985,-0.045 1.97485,-0.1208 2.83633,-0.1681 0.86149,-0.047 1.75684,-0.1048 1.98967,-0.1277 0.23283,-0.023 1.52823,-0.1 2.87867,-0.1709 2.12223,-0.1117 4.55698,-0.2748 6.35,-0.4254 1.78042,-0.1495 3.68622,-0.2918 4.48733,-0.335 1.76844,-0.096 4.07087,-0.3028 6.096,-0.5491 1.1176,-0.1358 2.69875,-0.2878 3.51367,-0.3377 0.81491,-0.05 1.65311,-0.1065 1.86266,-0.1258 0.20955,-0.019 0.6725,-0.061 1.02877,-0.094 0.63831,-0.058 0.64867,-0.062 0.70985,-0.3228 0.17917,-0.7627 -0.14583,-2.1508 -0.60557,-2.5866 l -0.24405,-0.2313 -4.52966,0.062 c -2.49132,0.034 -4.85352,0.085 -5.24934,0.1136 -0.39581,0.028 -1.00541,0.07 -1.35466,0.094 -1.51704,0.1007 -2.96123,0.2226 -3.47134,0.2931 -0.30268,0.042 -1.31233,0.1548 -2.24366,0.2511 -0.93134,0.096 -1.82669,0.1947 -1.98967,0.2185 -0.16298,0.024 -2.22038,0.08 -4.572,0.1242 -2.35162,0.044 -4.58047,0.1 -4.953,0.1231 -0.37253,0.023 -1.43933,0.064 -2.37067,0.09 -0.93133,0.026 -2.28388,0.066 -3.00566,0.089 -1.74311,0.055 -6.67236,0.059 -7.366,0.01 -0.78535,-0.06 -3.57895,-0.1429 -6.096,-0.1819 -1.18745,-0.018 -2.29235,-0.05 -2.45534,-0.071 -0.29173,-0.037 -1.60444,-0.1004 -3.76766,-0.1828 -0.60537,-0.023 -1.42961,-0.01 -1.83164,0.03 -1.00527,0.099 -2.40944,-0.016 -2.69249,-0.2198 -0.16721,-0.1206 -0.29517,-0.1433 -0.55587,-0.099 -0.18627,0.032 -0.42439,0.048 -0.52917,0.037 -0.10477,-0.011 -0.19059,0 -0.1907,0.031 -3.4e-4,0.096 -0.46961,0.6022 -0.55802,0.6022 -0.0481,0 -0.19543,0.1127 -0.32743,0.2505 -0.20829,0.2174 -0.24531,0.3334 -0.28023,0.8775 -0.0326,0.5075 -0.005,0.7219 0.14629,1.1253 0.11288,0.3016 0.20551,0.7909 0.23459,1.2392 0.0379,0.5835 0.0708,0.7219 0.155,0.652 0.1705,-0.1415 2.65861,-0.1541 4.01667,-0.02 0.75956,0.075 2.19616,0.1208 3.76766,0.1208 1.397,0 3.24485,0.03 4.10634,0.068 1.59994,0.069 12.48184,0.042 13.63133,-0.034 z m -20.28257,-0.7186 c -0.38188,-0.17 -0.7716,-0.5837 -0.85212,-0.9045 -0.1206,-0.4805 0.22975,-1.2846 0.56493,-1.2965 0.0722,0 0.17834,-0.052 0.23592,-0.1094 0.14929,-0.1493 1.25573,-0.1582 1.37782,-0.011 0.052,0.063 0.13032,0.092 0.17405,0.065 0.0437,-0.027 0.12396,0.069 0.1783,0.2126 0.0543,0.1439 0.12786,0.2617 0.16338,0.2617 0.0355,0 0.0604,0.1863 0.0553,0.4139 -0.005,0.2276 0.0129,0.4498 0.0401,0.4938 0.0952,0.154 -0.35757,0.6782 -0.74166,0.8587 -0.46068,0.2166 -0.73725,0.2203 -1.19599,0.016 z m -3.52643,-0.1727 c -0.3493,-0.1053 -0.73168,-0.4083 -0.88189,-0.6988 -0.20309,-0.3927 -0.0468,-0.8055 0.48638,-1.2849 0.40466,-0.3638 0.45178,-0.3839 0.78173,-0.332 0.19311,0.03 0.43492,0.1095 0.53735,0.1759 0.25522,0.1654 0.49499,0.5944 0.56024,1.0024 0.0477,0.2982 0.0215,0.3799 -0.21272,0.6641 -0.25229,0.306 -0.69321,0.5658 -0.9332,0.5497 -0.0597,0 -0.21175,-0.038 -0.33789,-0.076 z m 7.48046,-0.085 c -0.15631,-0.098 -0.30363,-0.2532 -0.32737,-0.344 -0.0238,-0.091 -0.0768,-0.1651 -0.11796,-0.1651 -0.23179,0 0.13249,-1.0709 0.48378,-1.4221 0.15845,-0.1585 0.28809,-0.318 0.28809,-0.3545 0,-0.099 0.30854,-0.1608 0.64688,-0.1293 0.51683,0.048 0.96179,0.6068 0.96179,1.2078 0,0.3718 -0.36226,1.1646 -0.56828,1.2436 -0.0756,0.029 -0.35009,0.073 -0.61005,0.098 -0.38604,0.037 -0.52476,0.012 -0.75688,-0.1341 z m 55.31754,-0.9324 c -0.0288,-0.047 0.009,-0.085 0.0847,-0.085 0.0753,0 0.11344,0.038 0.0847,0.085 -0.0288,0.047 -0.0669,0.085 -0.0847,0.085 -0.0178,0 -0.0559,-0.038 -0.0847,-0.085 z"
       id="path20085"
       sodipodi:nodetypes="csccsssssssssssssssssscscccssscscssscsssssssssssssssssssssssscssssssccscsscccsccssscscsscccsscccsscsscsccscscssssssssssssssssssscsssssscssssssssccsscssssssssssssscsscccssscssssssscssssssssssccsscsssssscssscsscsccssssssccccscscsssssssssscccssccssssssssscsscssscccssssssssssssssss" />
    <path
       style="fill:#00a000;fill-opacity:0.384615;stroke-width:0.0846667"
       d="m -184.60478,1570.0229 c -2.52996,-0.1715 -3.08495,-0.2232 -3.46045,-0.3223 -0.38105,-0.1005 -0.47094,-0.099 -0.69889,0.015 -0.28717,0.1432 -1.2099,0.099 -1.54683,-0.075 -0.57042,-0.2935 -1.12008,-0.9493 -1.44255,-1.7211 -0.0682,-0.1632 -0.16268,-0.2967 -0.20998,-0.2967 -0.15295,0 -0.25148,-0.2975 -0.33917,-1.0241 -0.10273,-0.8512 -0.25062,-2.5518 -0.30854,-3.5479 -0.023,-0.3958 -0.0774,-1.0816 -0.12077,-1.524 -0.0434,-0.4424 -0.10002,-1.8521 -0.12581,-3.1326 -0.10085,-5.0066 -0.22759,-8.5591 -0.33832,-9.4827 -0.0342,-0.2851 -0.0794,-1.5286 -0.17381,-4.7837 -0.0612,-2.1092 -0.11084,-2.9515 -0.25203,-4.2756 -0.067,-0.6287 -0.14038,-1.6574 -0.163,-2.286 -0.0503,-1.398 -0.11538,-2.4711 -0.22078,-3.6407 -0.17399,-1.9306 -0.32665,-3.9009 -0.3772,-4.8683 -0.0292,-0.5588 -0.12329,-1.4923 -0.2091,-2.0744 -0.17212,-1.1675 -0.1612,-2.2858 0.0267,-2.7355 0.17001,-0.4069 0.6394,-0.9103 0.98455,-1.056 0.16371,-0.069 0.58757,-0.1362 0.9419,-0.1491 0.43658,-0.016 0.7724,-0.082 1.04181,-0.2047 0.22251,-0.1014 0.46976,-0.1582 0.56153,-0.1291 0.38786,0.1231 0.68262,0.1295 1.72677,0.038 1.59124,-0.14 6.58063,-0.096 6.84259,0.061 0.0354,0.021 1.33076,0.053 2.87867,0.07 1.54791,0.018 3.42398,0.063 4.16905,0.1004 1.57184,0.08 7.62822,0.077 8.93233,0 0.48895,-0.03 1.6891,-0.074 2.667,-0.097 0.9779,-0.023 2.02565,-0.063 2.32834,-0.088 0.30268,-0.025 2.32198,-0.082 4.48733,-0.126 2.16535,-0.044 4.0513,-0.097 4.191,-0.1176 0.1397,-0.02 0.635,-0.063 1.10067,-0.094 1.10804,-0.074 1.22918,-0.086 2.05316,-0.1987 0.38418,-0.053 1.01283,-0.1337 1.397,-0.1805 0.38418,-0.047 0.8509,-0.1043 1.03717,-0.1279 1.26221,-0.1599 4.86637,-0.3614 7.53533,-0.4212 4.40595,-0.099 5.43346,-0.1301 5.93417,-0.1809 0.54613,-0.055 0.8815,0.046 0.8815,0.2665 0,0.1255 0.90674,0.8871 1.05628,0.8872 0.10901,0 0.69783,0.6561 0.85728,0.9552 0.29078,0.5454 0.4721,1.595 0.45652,2.6426 -0.008,0.5591 10e-4,1.1308 0.0208,1.2705 0.0215,0.152 -0.0291,0.3711 -0.12595,0.5456 -0.15023,0.2706 -0.15514,0.3647 -0.0685,1.3123 0.0514,0.5615 0.11123,1.2304 0.13305,1.4865 0.0218,0.2561 0.0589,1.361 0.0823,2.4553 0.0234,1.0943 0.061,2.1421 0.0835,2.3283 0.0403,0.3342 0.11598,2.2564 0.17324,4.4027 0.0527,1.9745 0.13385,3.9668 0.16362,4.0159 0.016,0.026 0.056,0.5625 0.0888,1.1911 0.0328,0.6287 0.0708,1.1621 0.0845,1.1853 0.0136,0.023 0.0499,0.3281 0.0806,0.6774 0.0307,0.3492 0.0914,0.9398 0.13497,1.3123 0.0436,0.3725 0.0965,0.925 0.11768,1.2277 0.0212,0.3027 0.0774,0.8932 0.12486,1.3123 0.12842,1.1329 0.18547,2.044 0.22535,3.5983 0.0197,0.7684 0.0564,1.6256 0.0815,1.905 0.0251,0.2794 0.0634,1.0224 0.0851,1.651 0.0217,0.6287 0.0602,1.6574 0.0857,2.286 0.0255,0.6287 0.0614,1.6002 0.0798,2.159 0.0388,1.1776 0.0958,1.832 0.22054,2.5336 0.0586,0.3295 0.0609,0.562 0.007,0.6774 -0.23551,0.5015 -0.27907,0.7266 -0.21653,1.1192 0.036,0.2261 0.0564,0.4588 0.0452,0.517 -0.0112,0.058 0.0185,0.1058 0.0659,0.1058 0.0965,0 0.0441,0.4117 -0.10128,0.7954 -0.15055,0.3973 -0.44151,0.6453 -1.04253,0.8888 -0.4657,0.1886 -0.59804,0.2876 -0.75169,0.562 l -0.18647,0.3331 -0.6706,-0.028 c -0.36883,-0.015 -0.69115,-0.041 -0.71625,-0.056 -0.0251,-0.015 -0.55852,-0.052 -1.18534,-0.08 -0.62683,-0.029 -1.27303,-0.074 -1.43601,-0.1002 -0.16299,-0.026 -0.54399,-0.062 -0.84667,-0.079 -0.30268,-0.017 -0.65251,-0.053 -0.77739,-0.081 -0.12488,-0.027 -0.84878,-0.063 -1.60867,-0.079 -1.02725,-0.022 -1.45218,0 -1.65677,0.086 -0.15134,0.063 -0.27517,0.09 -0.27517,0.06 0,-0.03 -0.0457,-0.01 -0.1016,0.047 -0.12415,0.1242 -0.8503,0.133 -1.25362,0.015 -0.16268,-0.047 -1.22923,-0.1052 -2.37011,-0.1283 -3.69343,-0.075 -5.59659,-0.1214 -7.32367,-0.18 -3.14519,-0.1067 -12.99651,-0.029 -13.40923,0.1055 -0.0641,0.021 -0.16888,-0.01 -0.23283,-0.058 -0.0751,-0.062 -0.11627,-0.065 -0.11627,-0.01 0,0.055 -0.34135,0.091 -0.91017,0.096 -0.50059,0 -1.00541,0.023 -1.12183,0.042 -0.11642,0.019 -0.85937,0.06 -1.651,0.092 -0.79163,0.032 -1.57268,0.069 -1.73567,0.083 -0.27472,0.024 -1.50253,0.079 -3.89466,0.1753 -0.53552,0.021 -1.43087,0.058 -1.98967,0.081 -2.72681,0.1131 -6.48542,0.1382 -6.59891,0.044 -0.065,-0.054 -0.13787,-0.063 -0.1639,-0.021 -0.0456,0.074 -0.97531,0.098 -1.74619,0.046 z m -4.40267,-1.5549 c 0,-0.3428 0.30018,-0.4652 0.8425,-0.3436 0.72481,0.1626 1.47172,0.2308 3.30617,0.3019 0.53551,0.021 0.99271,0.041 1.016,0.044 0.16073,0.023 5.0043,-0.042 6.05366,-0.081 1.01501,-0.038 5.77475,-0.2565 6.43467,-0.2952 0.37253,-0.022 1.19168,-0.064 1.82033,-0.093 0.62865,-0.03 1.2304,-0.067 1.33721,-0.083 0.10681,-0.016 1.24981,-0.056 2.54,-0.087 1.29019,-0.032 2.57439,-0.067 2.85379,-0.078 2.66848,-0.1084 8.99108,-0.1352 11.557,-0.049 4.90528,0.1647 10.41627,0.202 10.98725,0.074 0.57871,-0.1293 1.86177,-0.1115 3.91409,0.054 0.81491,0.066 2.16746,0.1611 3.00566,0.2117 0.8382,0.051 1.69971,0.1216 1.91448,0.1578 0.29489,0.05 0.4743,0.03 0.73296,-0.08 0.37942,-0.1612 0.46493,-0.3282 0.44119,-0.8619 -0.0503,-1.1305 -0.0453,-1.1795 0.12871,-1.2769 0.24725,-0.1382 0.30099,-0.2386 0.25468,-0.4756 -0.077,-0.3942 -0.12043,-0.8858 -0.17129,-1.9386 -0.0279,-0.5772 -0.0652,-1.1888 -0.083,-1.3592 -0.032,-0.3076 -0.0791,-1.1926 -0.17132,-3.2216 -0.0265,-0.5821 -0.0641,-1.306 -0.0838,-1.6086 -0.0196,-0.3027 -0.0756,-1.3124 -0.12453,-2.2437 -0.087,-1.6572 -0.22154,-3.6012 -0.30178,-4.3603 -0.0221,-0.2096 -0.0796,-0.8192 -0.12774,-1.3547 -0.0481,-0.5355 -0.14204,-1.4499 -0.20871,-2.032 -0.19475,-1.7001 -0.33853,-4.2379 -0.42212,-7.4507 -0.0398,-1.5297 -0.0902,-2.947 -0.16879,-4.7413 -0.0214,-0.489 -0.0617,-1.7272 -0.0896,-2.7517 -0.0279,-1.0244 -0.0661,-1.996 -0.085,-2.159 -0.0189,-0.163 -0.0578,-0.6583 -0.0865,-1.1006 -0.061,-0.9405 -0.16755,-1.1031 -0.6908,-1.0544 -0.17513,0.016 -1.06137,0.07 -1.96942,0.1198 -0.90805,0.049 -2.06352,0.131 -2.56771,0.1812 -0.50419,0.05 -0.93782,0.07 -0.96364,0.044 -0.0258,-0.026 -0.10985,-0.013 -0.18678,0.028 -0.11625,0.062 -1.7943,0.2666 -3.79201,0.4619 -0.64273,0.063 -2.71021,0.2053 -4.55486,0.3137 -2.41516,0.142 -2.45932,0.145 -3.59833,0.2405 -1.81533,0.1521 -2.04902,0.169 -3.00567,0.2168 -0.51223,0.026 -1.50283,0.083 -2.20133,0.1272 -0.6985,0.044 -1.78435,0.1009 -2.413,0.1258 -0.62865,0.025 -1.31827,0.066 -1.53249,0.092 -0.21422,0.026 -0.74762,0.059 -1.18533,0.074 -0.76593,0.026 -2.43669,0.1182 -5.57952,0.3071 -1.95596,0.1175 -10.23434,0.1594 -12.91166,0.065 -1.16417,-0.041 -3.62162,-0.091 -5.461,-0.1123 -1.83939,-0.021 -3.63008,-0.073 -3.97933,-0.115 -0.34925,-0.042 -1.31213,-0.084 -2.13972,-0.092 -0.82759,-0.01 -1.57054,-0.039 -1.651,-0.069 -0.17468,-0.064 -0.52728,-0.423 -0.52728,-0.5365 0,-0.044 -0.0332,-0.08 -0.0737,-0.08 -0.0406,0 -0.0448,0.1619 -0.009,0.3599 0.0354,0.1979 0.0889,0.6836 0.11896,1.0795 0.0301,0.3958 0.0889,1.1006 0.13084,1.5663 0.0419,0.4657 0.15357,2.0659 0.24815,3.556 0.19866,3.1299 0.20174,3.1744 0.37481,5.4187 0.0718,0.9313 0.15428,2.7982 0.18324,4.1486 0.0523,2.438 0.0906,3.3361 0.17687,4.1487 0.0247,0.2328 0.0606,1.052 0.0797,1.8203 0.0191,0.7684 0.0561,1.9876 0.0821,2.7094 0.026,0.7217 0.0676,2.2648 0.0924,3.429 0.0248,1.1641 0.0657,2.3262 0.0908,2.5823 0.0252,0.2561 0.065,0.9229 0.0884,1.4817 0.0686,1.6358 0.0968,2.0687 0.13927,2.1374 0.022,0.036 0.0851,0.598 0.14016,1.2497 0.0566,0.6693 0.14286,1.2217 0.19831,1.2695 0.054,0.047 0.11002,0.1799 0.12453,0.2964 0.052,0.4176 0.30669,0.981 0.63142,1.397 0.35412,0.4536 0.48056,0.535 0.84504,0.5443 0.20399,0.01 0.23283,-0.026 0.23283,-0.2501 z m 0.29634,-28.4212 c -0.25912,-0.062 -0.69476,-0.5865 -0.67028,-0.8074 0.0116,-0.105 0.0243,-0.2196 0.0282,-0.2545 0.004,-0.035 0.0547,-0.065 0.11289,-0.067 0.0582,0 0.22013,-0.1527 0.35983,-0.3344 0.1397,-0.1818 0.46449,-0.4629 0.72174,-0.6245 0.44587,-0.2802 0.82677,-0.6198 0.75235,-0.6707 -0.28396,-0.1941 -0.811,-0.5132 -1.19856,-0.7256 -0.57559,-0.3154 -0.82586,-0.5171 -0.82586,-0.6654 0,-0.06 -0.032,-0.1081 -0.0711,-0.1081 -0.0391,0 -0.10946,-0.086 -0.15638,-0.1905 -0.11329,-0.253 0.1383,-0.6806 0.4134,-0.7025 0.10728,-0.01 0.57252,0.1793 1.03386,0.4175 0.46134,0.2382 1.10031,0.5685 1.41993,0.734 0.31962,0.1656 0.80645,0.3475 1.08184,0.4044 0.40573,0.084 0.57328,0.1739 0.88332,0.4753 0.34687,0.3371 0.37584,0.3954 0.31015,0.6245 -0.0399,0.139 -0.1524,0.3326 -0.25009,0.4303 -0.0977,0.098 -0.17762,0.2157 -0.17762,0.2623 0,0.047 -0.0667,0.085 -0.14817,0.085 -0.0815,0 -0.48201,0.2481 -0.89005,0.5504 -0.40804,0.3023 -0.8029,0.5496 -0.87747,0.5496 -0.0746,0 -0.27412,0.076 -0.44345,0.1679 -0.37563,0.2049 -1.10529,0.5131 -1.18271,0.4996 -0.0311,-0.01 -0.13268,-0.028 -0.22581,-0.05 z m 21.29366,-11.0704 c 0.34925,-0.023 0.9779,-0.063 1.397,-0.088 0.4191,-0.025 1.3335,-0.083 2.032,-0.1277 0.6985,-0.045 1.97485,-0.1208 2.83633,-0.1681 0.86149,-0.047 1.75684,-0.1048 1.98967,-0.1277 0.23283,-0.023 1.52823,-0.1 2.87867,-0.1709 2.12223,-0.1117 4.55698,-0.2748 6.35,-0.4254 1.78042,-0.1495 3.68622,-0.2918 4.48733,-0.335 1.76844,-0.096 4.07087,-0.3028 6.096,-0.5491 1.1176,-0.1358 2.69875,-0.2878 3.51367,-0.3377 0.81491,-0.05 1.65311,-0.1065 1.86266,-0.1258 0.20955,-0.019 0.6725,-0.061 1.02877,-0.094 0.63831,-0.058 0.64867,-0.062 0.70985,-0.3228 0.17917,-0.7627 -0.14583,-2.1508 -0.60557,-2.5866 l -0.24405,-0.2313 -4.52966,0.062 c -2.49132,0.034 -4.85352,0.085 -5.24934,0.1136 -0.39581,0.028 -1.00541,0.07 -1.35466,0.094 -1.51704,0.1007 -2.96123,0.2226 -3.47134,0.2931 -0.30268,0.042 -1.31233,0.1548 -2.24366,0.2511 -0.93134,0.096 -1.82669,0.1947 -1.98967,0.2185 -0.16298,0.024 -2.22038,0.08 -4.572,0.1242 -2.35162,0.044 -4.58047,0.1 -4.953,0.1231 -0.37253,0.023 -1.43933,0.064 -2.37067,0.09 -0.93133,0.026 -2.28388,0.066 -3.00566,0.089 -1.74311,0.055 -6.67236,0.059 -7.366,0.01 -0.78535,-0.06 -3.57895,-0.1429 -6.096,-0.1819 -1.18745,-0.018 -2.29235,-0.05 -2.45534,-0.071 -0.29173,-0.037 -1.60444,-0.1004 -3.76766,-0.1828 -0.60537,-0.023 -1.42961,-0.01 -1.83164,0.03 -1.00527,0.099 -2.40944,-0.016 -2.69249,-0.2198 -0.16721,-0.1206 -0.29517,-0.1433 -0.55587,-0.099 -0.18627,0.032 -0.42439,0.048 -0.52917,0.037 -0.10477,-0.011 -0.19059,0 -0.1907,0.031 -3.4e-4,0.096 -0.46961,0.6022 -0.55802,0.6022 -0.0481,0 -0.19543,0.1127 -0.32743,0.2505 -0.20829,0.2174 -0.24531,0.3334 -0.28023,0.8775 -0.0326,0.5075 -0.005,0.7219 0.14629,1.1253 0.11288,0.3016 0.20551,0.7909 0.23459,1.2392 0.0379,0.5835 0.0708,0.7219 0.155,0.652 0.1705,-0.1415 2.65861,-0.1541 4.01667,-0.02 0.75956,0.075 2.19616,0.1208 3.76766,0.1208 1.397,0 3.24485,0.03 4.10634,0.068 1.59994,0.069 12.48184,0.042 13.63133,-0.034 z m -20.28257,-0.7186 c -0.38188,-0.17 -0.7716,-0.5837 -0.85212,-0.9045 -0.1206,-0.4805 0.22975,-1.2846 0.56493,-1.2965 0.0722,0 0.17834,-0.052 0.23592,-0.1094 0.14929,-0.1493 1.25573,-0.1582 1.37782,-0.011 0.052,0.063 0.13032,0.092 0.17405,0.065 0.0437,-0.027 0.12396,0.069 0.1783,0.2126 0.0543,0.1439 0.12786,0.2617 0.16338,0.2617 0.0355,0 0.0604,0.1863 0.0553,0.4139 -0.005,0.2276 0.0129,0.4498 0.0401,0.4938 0.0952,0.154 -0.35757,0.6782 -0.74166,0.8587 -0.46068,0.2166 -0.73725,0.2203 -1.19599,0.016 z m -3.52643,-0.1727 c -0.3493,-0.1053 -0.73168,-0.4083 -0.88189,-0.6988 -0.20309,-0.3927 -0.0468,-0.8055 0.48638,-1.2849 0.40466,-0.3638 0.45178,-0.3839 0.78173,-0.332 0.19311,0.03 0.43492,0.1095 0.53735,0.1759 0.25522,0.1654 0.49499,0.5944 0.56024,1.0024 0.0477,0.2982 0.0215,0.3799 -0.21272,0.6641 -0.25229,0.306 -0.69321,0.5658 -0.9332,0.5497 -0.0597,0 -0.21175,-0.038 -0.33789,-0.076 z m 7.48046,-0.085 c -0.15631,-0.098 -0.30363,-0.2532 -0.32737,-0.344 -0.0238,-0.091 -0.0768,-0.1651 -0.11796,-0.1651 -0.23179,0 0.13249,-1.0709 0.48378,-1.4221 0.15845,-0.1585 0.28809,-0.318 0.28809,-0.3545 0,-0.099 0.30854,-0.1608 0.64688,-0.1293 0.51683,0.048 0.96179,0.6068 0.96179,1.2078 0,0.3718 -0.36226,1.1646 -0.56828,1.2436 -0.0756,0.029 -0.35009,0.073 -0.61005,0.098 -0.38604,0.037 -0.52476,0.012 -0.75688,-0.1341 z m 55.31754,-0.9324 c -0.0288,-0.047 0.009,-0.085 0.0847,-0.085 0.0753,0 0.11344,0.038 0.0847,0.085 -0.0288,0.047 -0.0669,0.085 -0.0847,0.085 -0.0178,0 -0.0559,-0.038 -0.0847,-0.085 z"
       id="path20085-6"
       sodipodi:nodetypes="csccsssssssssssssssssscscccssscscssscsssssssssssssssssssssssscssssssccscsscccsccssscscsscccsscccsscsscsccscscssssssssssssssssssscsssssscssssssssccsscssssssssssssscsscccssscssssssscssssssssssccsscsssssscssscsscsccssssssccccscscsssssssssscccssccssssssssscsscssscccssssssssssssssss"
       clip-path="url(#clipPath2941)"
       inkscape:original-d="m -184.60478,1570.0229 c -2.52996,-0.1715 -3.08495,-0.2232 -3.46045,-0.3223 -0.38105,-0.1005 -0.47094,-0.099 -0.69889,0.015 -0.28717,0.1432 -1.2099,0.099 -1.54683,-0.075 -0.57042,-0.2935 -1.12008,-0.9493 -1.44255,-1.7211 -0.0682,-0.1632 -0.16268,-0.2967 -0.20998,-0.2967 -0.15295,0 -0.25148,-0.2975 -0.33917,-1.0241 -0.10273,-0.8512 -0.25062,-2.5518 -0.30854,-3.5479 -0.023,-0.3958 -0.0774,-1.0816 -0.12077,-1.524 -0.0434,-0.4424 -0.10002,-1.8521 -0.12581,-3.1326 -0.10085,-5.0066 -0.22759,-8.5591 -0.33832,-9.4827 -0.0342,-0.2851 -0.0794,-1.5286 -0.17381,-4.7837 -0.0612,-2.1092 -0.11084,-2.9515 -0.25203,-4.2756 -0.067,-0.6287 -0.14038,-1.6574 -0.163,-2.286 -0.0503,-1.398 -0.11538,-2.4711 -0.22078,-3.6407 -0.17399,-1.9306 -0.32665,-3.9009 -0.3772,-4.8683 -0.0292,-0.5588 -0.12329,-1.4923 -0.2091,-2.0744 -0.17212,-1.1675 -0.1612,-2.2858 0.0267,-2.7355 0.17001,-0.4069 0.6394,-0.9103 0.98455,-1.056 0.16371,-0.069 0.58757,-0.1362 0.9419,-0.1491 0.43658,-0.016 0.7724,-0.082 1.04181,-0.2047 0.22251,-0.1014 0.46976,-0.1582 0.56153,-0.1291 0.38786,0.1231 0.68262,0.1295 1.72677,0.038 1.59124,-0.14 6.58063,-0.096 6.84259,0.061 0.0354,0.021 1.33076,0.053 2.87867,0.07 1.54791,0.018 3.42398,0.063 4.16905,0.1004 1.57184,0.08 7.62822,0.077 8.93233,0 0.48895,-0.03 1.6891,-0.074 2.667,-0.097 0.9779,-0.023 2.02565,-0.063 2.32834,-0.088 0.30268,-0.025 2.32198,-0.082 4.48733,-0.126 2.16535,-0.044 4.0513,-0.097 4.191,-0.1176 0.1397,-0.02 0.635,-0.063 1.10067,-0.094 1.10804,-0.074 1.22918,-0.086 2.05316,-0.1987 0.38418,-0.053 1.01283,-0.1337 1.397,-0.1805 0.38418,-0.047 0.8509,-0.1043 1.03717,-0.1279 1.26221,-0.1599 4.86637,-0.3614 7.53533,-0.4212 4.40595,-0.099 5.43346,-0.1301 5.93417,-0.1809 0.54613,-0.055 0.8815,0.046 0.8815,0.2665 0,0.1255 0.90674,0.8871 1.05628,0.8872 0.10901,0 0.69783,0.6561 0.85728,0.9552 0.29078,0.5454 0.4721,1.595 0.45652,2.6426 -0.008,0.5591 10e-4,1.1308 0.0208,1.2705 0.0215,0.152 -0.0291,0.3711 -0.12595,0.5456 -0.15023,0.2706 -0.15514,0.3647 -0.0685,1.3123 0.0514,0.5615 0.11123,1.2304 0.13305,1.4865 0.0218,0.2561 0.0589,1.361 0.0823,2.4553 0.0234,1.0943 0.061,2.1421 0.0835,2.3283 0.0403,0.3342 0.11598,2.2564 0.17324,4.4027 0.0527,1.9745 0.13385,3.9668 0.16362,4.0159 0.016,0.026 0.056,0.5625 0.0888,1.1911 0.0328,0.6287 0.0708,1.1621 0.0845,1.1853 0.0136,0.023 0.0499,0.3281 0.0806,0.6774 0.0307,0.3492 0.0914,0.9398 0.13497,1.3123 0.0436,0.3725 0.0965,0.925 0.11768,1.2277 0.0212,0.3027 0.0774,0.8932 0.12486,1.3123 0.12842,1.1329 0.18547,2.044 0.22535,3.5983 0.0197,0.7684 0.0564,1.6256 0.0815,1.905 0.0251,0.2794 0.0634,1.0224 0.0851,1.651 0.0217,0.6287 0.0602,1.6574 0.0857,2.286 0.0255,0.6287 0.0614,1.6002 0.0798,2.159 0.0388,1.1776 0.0958,1.832 0.22054,2.5336 0.0586,0.3295 0.0609,0.562 0.007,0.6774 -0.23551,0.5015 -0.27907,0.7266 -0.21653,1.1192 0.036,0.2261 0.0564,0.4588 0.0452,0.517 -0.0112,0.058 0.0185,0.1058 0.0659,0.1058 0.0965,0 0.0441,0.4117 -0.10128,0.7954 -0.15055,0.3973 -0.44151,0.6453 -1.04253,0.8888 -0.4657,0.1886 -0.59804,0.2876 -0.75169,0.562 l -0.18647,0.3331 -0.6706,-0.028 c -0.36883,-0.015 -0.69115,-0.041 -0.71625,-0.056 -0.0251,-0.015 -0.55852,-0.052 -1.18534,-0.08 -0.62683,-0.029 -1.27303,-0.074 -1.43601,-0.1002 -0.16299,-0.026 -0.54399,-0.062 -0.84667,-0.079 -0.30268,-0.017 -0.65251,-0.053 -0.77739,-0.081 -0.12488,-0.027 -0.84878,-0.063 -1.60867,-0.079 -1.02725,-0.022 -1.45218,0 -1.65677,0.086 -0.15134,0.063 -0.27517,0.09 -0.27517,0.06 0,-0.03 -0.0457,-0.01 -0.1016,0.047 -0.12415,0.1242 -0.8503,0.133 -1.25362,0.015 -0.16268,-0.047 -1.22923,-0.1052 -2.37011,-0.1283 -3.69343,-0.075 -5.59659,-0.1214 -7.32367,-0.18 -3.14519,-0.1067 -12.99651,-0.029 -13.40923,0.1055 -0.0641,0.021 -0.16888,-0.01 -0.23283,-0.058 -0.0751,-0.062 -0.11627,-0.065 -0.11627,-0.01 0,0.055 -0.34135,0.091 -0.91017,0.096 -0.50059,0 -1.00541,0.023 -1.12183,0.042 -0.11642,0.019 -0.85937,0.06 -1.651,0.092 -0.79163,0.032 -1.57268,0.069 -1.73567,0.083 -0.27472,0.024 -1.50253,0.079 -3.89466,0.1753 -0.53552,0.021 -1.43087,0.058 -1.98967,0.081 -2.72681,0.1131 -6.48542,0.1382 -6.59891,0.044 -0.065,-0.054 -0.13787,-0.063 -0.1639,-0.021 -0.0456,0.074 -0.97531,0.098 -1.74619,0.046 z m -4.40267,-1.5549 c 0,-0.3428 0.30018,-0.4652 0.8425,-0.3436 0.72481,0.1626 1.47172,0.2308 3.30617,0.3019 0.53551,0.021 0.99271,0.041 1.016,0.044 0.16073,0.023 5.0043,-0.042 6.05366,-0.081 1.01501,-0.038 5.77475,-0.2565 6.43467,-0.2952 0.37253,-0.022 1.19168,-0.064 1.82033,-0.093 0.62865,-0.03 1.2304,-0.067 1.33721,-0.083 0.10681,-0.016 1.24981,-0.056 2.54,-0.087 1.29019,-0.032 2.57439,-0.067 2.85379,-0.078 2.66848,-0.1084 8.99108,-0.1352 11.557,-0.049 4.90528,0.1647 10.41627,0.202 10.98725,0.074 0.57871,-0.1293 1.86177,-0.1115 3.91409,0.054 0.81491,0.066 2.16746,0.1611 3.00566,0.2117 0.8382,0.051 1.69971,0.1216 1.91448,0.1578 0.29489,0.05 0.4743,0.03 0.73296,-0.08 0.37942,-0.1612 0.46493,-0.3282 0.44119,-0.8619 -0.0503,-1.1305 -0.0453,-1.1795 0.12871,-1.2769 0.24725,-0.1382 0.30099,-0.2386 0.25468,-0.4756 -0.077,-0.3942 -0.12043,-0.8858 -0.17129,-1.9386 -0.0279,-0.5772 -0.0652,-1.1888 -0.083,-1.3592 -0.032,-0.3076 -0.0791,-1.1926 -0.17132,-3.2216 -0.0265,-0.5821 -0.0641,-1.306 -0.0838,-1.6086 -0.0196,-0.3027 -0.0756,-1.3124 -0.12453,-2.2437 -0.087,-1.6572 -0.22154,-3.6012 -0.30178,-4.3603 -0.0221,-0.2096 -0.0796,-0.8192 -0.12774,-1.3547 -0.0481,-0.5355 -0.14204,-1.4499 -0.20871,-2.032 -0.19475,-1.7001 -0.33853,-4.2379 -0.42212,-7.4507 -0.0398,-1.5297 -0.0902,-2.947 -0.16879,-4.7413 -0.0214,-0.489 -0.0617,-1.7272 -0.0896,-2.7517 -0.0279,-1.0244 -0.0661,-1.996 -0.085,-2.159 -0.0189,-0.163 -0.0578,-0.6583 -0.0865,-1.1006 -0.061,-0.9405 -0.16755,-1.1031 -0.6908,-1.0544 -0.17513,0.016 -1.06137,0.07 -1.96942,0.1198 -0.90805,0.049 -2.06352,0.131 -2.56771,0.1812 -0.50419,0.05 -0.93782,0.07 -0.96364,0.044 -0.0258,-0.026 -0.10985,-0.013 -0.18678,0.028 -0.11625,0.062 -1.7943,0.2666 -3.79201,0.4619 -0.64273,0.063 -2.71021,0.2053 -4.55486,0.3137 -2.41516,0.142 -2.45932,0.145 -3.59833,0.2405 -1.81533,0.1521 -2.04902,0.169 -3.00567,0.2168 -0.51223,0.026 -1.50283,0.083 -2.20133,0.1272 -0.6985,0.044 -1.78435,0.1009 -2.413,0.1258 -0.62865,0.025 -1.31827,0.066 -1.53249,0.092 -0.21422,0.026 -0.74762,0.059 -1.18533,0.074 -0.76593,0.026 -2.43669,0.1182 -5.57952,0.3071 -1.95596,0.1175 -10.23434,0.1594 -12.91166,0.065 -1.16417,-0.041 -3.62162,-0.091 -5.461,-0.1123 -1.83939,-0.021 -3.63008,-0.073 -3.97933,-0.115 -0.34925,-0.042 -1.31213,-0.084 -2.13972,-0.092 -0.82759,-0.01 -1.57054,-0.039 -1.651,-0.069 -0.17468,-0.064 -0.52728,-0.423 -0.52728,-0.5365 0,-0.044 -0.0332,-0.08 -0.0737,-0.08 -0.0406,0 -0.0448,0.1619 -0.009,0.3599 0.0354,0.1979 0.0889,0.6836 0.11896,1.0795 0.0301,0.3958 0.0889,1.1006 0.13084,1.5663 0.0419,0.4657 0.15357,2.0659 0.24815,3.556 0.19866,3.1299 0.20174,3.1744 0.37481,5.4187 0.0718,0.9313 0.15428,2.7982 0.18324,4.1486 0.0523,2.438 0.0906,3.3361 0.17687,4.1487 0.0247,0.2328 0.0606,1.052 0.0797,1.8203 0.0191,0.7684 0.0561,1.9876 0.0821,2.7094 0.026,0.7217 0.0676,2.2648 0.0924,3.429 0.0248,1.1641 0.0657,2.3262 0.0908,2.5823 0.0252,0.2561 0.065,0.9229 0.0884,1.4817 0.0686,1.6358 0.0968,2.0687 0.13927,2.1374 0.022,0.036 0.0851,0.598 0.14016,1.2497 0.0566,0.6693 0.14286,1.2217 0.19831,1.2695 0.054,0.047 0.11002,0.1799 0.12453,0.2964 0.052,0.4176 0.30669,0.981 0.63142,1.397 0.35412,0.4536 0.48056,0.535 0.84504,0.5443 0.20399,0.01 0.23283,-0.026 0.23283,-0.2501 z m 0.29634,-28.4212 c -0.25912,-0.062 -0.69476,-0.5865 -0.67028,-0.8074 0.0116,-0.105 0.0243,-0.2196 0.0282,-0.2545 0.004,-0.035 0.0547,-0.065 0.11289,-0.067 0.0582,0 0.22013,-0.1527 0.35983,-0.3344 0.1397,-0.1818 0.46449,-0.4629 0.72174,-0.6245 0.44587,-0.2802 0.82677,-0.6198 0.75235,-0.6707 -0.28396,-0.1941 -0.811,-0.5132 -1.19856,-0.7256 -0.57559,-0.3154 -0.82586,-0.5171 -0.82586,-0.6654 0,-0.06 -0.032,-0.1081 -0.0711,-0.1081 -0.0391,0 -0.10946,-0.086 -0.15638,-0.1905 -0.11329,-0.253 0.1383,-0.6806 0.4134,-0.7025 0.10728,-0.01 0.57252,0.1793 1.03386,0.4175 0.46134,0.2382 1.10031,0.5685 1.41993,0.734 0.31962,0.1656 0.80645,0.3475 1.08184,0.4044 0.40573,0.084 0.57328,0.1739 0.88332,0.4753 0.34687,0.3371 0.37584,0.3954 0.31015,0.6245 -0.0399,0.139 -0.1524,0.3326 -0.25009,0.4303 -0.0977,0.098 -0.17762,0.2157 -0.17762,0.2623 0,0.047 -0.0667,0.085 -0.14817,0.085 -0.0815,0 -0.48201,0.2481 -0.89005,0.5504 -0.40804,0.3023 -0.8029,0.5496 -0.87747,0.5496 -0.0746,0 -0.27412,0.076 -0.44345,0.1679 -0.37563,0.2049 -1.10529,0.5131 -1.18271,0.4996 -0.0311,-0.01 -0.13268,-0.028 -0.22581,-0.05 z m 21.29366,-11.0704 c 0.34925,-0.023 0.9779,-0.063 1.397,-0.088 0.4191,-0.025 1.3335,-0.083 2.032,-0.1277 0.6985,-0.045 1.97485,-0.1208 2.83633,-0.1681 0.86149,-0.047 1.75684,-0.1048 1.98967,-0.1277 0.23283,-0.023 1.52823,-0.1 2.87867,-0.1709 2.12223,-0.1117 4.55698,-0.2748 6.35,-0.4254 1.78042,-0.1495 3.68622,-0.2918 4.48733,-0.335 1.76844,-0.096 4.07087,-0.3028 6.096,-0.5491 1.1176,-0.1358 2.69875,-0.2878 3.51367,-0.3377 0.81491,-0.05 1.65311,-0.1065 1.86266,-0.1258 0.20955,-0.019 0.6725,-0.061 1.02877,-0.094 0.63831,-0.058 0.64867,-0.062 0.70985,-0.3228 0.17917,-0.7627 -0.14583,-2.1508 -0.60557,-2.5866 l -0.24405,-0.2313 -4.52966,0.062 c -2.49132,0.034 -4.85352,0.085 -5.24934,0.1136 -0.39581,0.028 -1.00541,0.07 -1.35466,0.094 -1.51704,0.1007 -2.96123,0.2226 -3.47134,0.2931 -0.30268,0.042 -1.31233,0.1548 -2.24366,0.2511 -0.93134,0.096 -1.82669,0.1947 -1.98967,0.2185 -0.16298,0.024 -2.22038,0.08 -4.572,0.1242 -2.35162,0.044 -4.58047,0.1 -4.953,0.1231 -0.37253,0.023 -1.43933,0.064 -2.37067,0.09 -0.93133,0.026 -2.28388,0.066 -3.00566,0.089 -1.74311,0.055 -6.67236,0.059 -7.366,0.01 -0.78535,-0.06 -3.57895,-0.1429 -6.096,-0.1819 -1.18745,-0.018 -2.29235,-0.05 -2.45534,-0.071 -0.29173,-0.037 -1.60444,-0.1004 -3.76766,-0.1828 -0.60537,-0.023 -1.42961,-0.01 -1.83164,0.03 -1.00527,0.099 -2.40944,-0.016 -2.69249,-0.2198 -0.16721,-0.1206 -0.29517,-0.1433 -0.55587,-0.099 -0.18627,0.032 -0.42439,0.048 -0.52917,0.037 -0.10477,-0.011 -0.19059,0 -0.1907,0.031 -3.4e-4,0.096 -0.46961,0.6022 -0.55802,0.6022 -0.0481,0 -0.19543,0.1127 -0.32743,0.2505 -0.20829,0.2174 -0.24531,0.3334 -0.28023,0.8775 -0.0326,0.5075 -0.005,0.7219 0.14629,1.1253 0.11288,0.3016 0.20551,0.7909 0.23459,1.2392 0.0379,0.5835 0.0708,0.7219 0.155,0.652 0.1705,-0.1415 2.65861,-0.1541 4.01667,-0.02 0.75956,0.075 2.19616,0.1208 3.76766,0.1208 1.397,0 3.24485,0.03 4.10634,0.068 1.59994,0.069 12.48184,0.042 13.63133,-0.034 z m -20.28257,-0.7186 c -0.38188,-0.17 -0.7716,-0.5837 -0.85212,-0.9045 -0.1206,-0.4805 0.22975,-1.2846 0.56493,-1.2965 0.0722,0 0.17834,-0.052 0.23592,-0.1094 0.14929,-0.1493 1.25573,-0.1582 1.37782,-0.011 0.052,0.063 0.13032,0.092 0.17405,0.065 0.0437,-0.027 0.12396,0.069 0.1783,0.2126 0.0543,0.1439 0.12786,0.2617 0.16338,0.2617 0.0355,0 0.0604,0.1863 0.0553,0.4139 -0.005,0.2276 0.0129,0.4498 0.0401,0.4938 0.0952,0.154 -0.35757,0.6782 -0.74166,0.8587 -0.46068,0.2166 -0.73725,0.2203 -1.19599,0.016 z m -3.52643,-0.1727 c -0.3493,-0.1053 -0.73168,-0.4083 -0.88189,-0.6988 -0.20309,-0.3927 -0.0468,-0.8055 0.48638,-1.2849 0.40466,-0.3638 0.45178,-0.3839 0.78173,-0.332 0.19311,0.03 0.43492,0.1095 0.53735,0.1759 0.25522,0.1654 0.49499,0.5944 0.56024,1.0024 0.0477,0.2982 0.0215,0.3799 -0.21272,0.6641 -0.25229,0.306 -0.69321,0.5658 -0.9332,0.5497 -0.0597,0 -0.21175,-0.038 -0.33789,-0.076 z m 7.48046,-0.085 c -0.15631,-0.098 -0.30363,-0.2532 -0.32737,-0.344 -0.0238,-0.091 -0.0768,-0.1651 -0.11796,-0.1651 -0.23179,0 0.13249,-1.0709 0.48378,-1.4221 0.15845,-0.1585 0.28809,-0.318 0.28809,-0.3545 0,-0.099 0.30854,-0.1608 0.64688,-0.1293 0.51683,0.048 0.96179,0.6068 0.96179,1.2078 0,0.3718 -0.36226,1.1646 -0.56828,1.2436 -0.0756,0.029 -0.35009,0.073 -0.61005,0.098 -0.38604,0.037 -0.52476,0.012 -0.75688,-0.1341 z m 55.31754,-0.9324 c -0.0288,-0.047 0.009,-0.085 0.0847,-0.085 0.0753,0 0.11344,0.038 0.0847,0.085 -0.0288,0.047 -0.0669,0.085 -0.0847,0.085 -0.0178,0 -0.0559,-0.038 -0.0847,-0.085 z"
       transform="translate(-70.052554,24.569234)" />
  </g>
</svg>
