<?xml version="1.0" encoding="UTF-8" standalone="no"?>
<!-- Created with Inkscape (http://www.inkscape.org/) -->

<svg
   width="172.31917mm"
   height="114.17731mm"
   viewBox="0 0 172.31917 114.17731"
   version="1.1"
   id="svg5"
   inkscape:version="1.1.1 (c3084ef, 2021-09-22)"
   sodipodi:docname="globe copy 5.svg"
   xmlns:inkscape="http://www.inkscape.org/namespaces/inkscape"
   xmlns:sodipodi="http://sodipodi.sourceforge.net/DTD/sodipodi-0.dtd"
   xmlns="http://www.w3.org/2000/svg"
   xmlns:svg="http://www.w3.org/2000/svg">
  <sodipodi:namedview
     id="namedview7"
     pagecolor="#ffffff"
     bordercolor="#666666"
     borderopacity="1.0"
     inkscape:pageshadow="2"
     inkscape:pageopacity="0.0"
     inkscape:pagecheckerboard="0"
     inkscape:document-units="mm"
     showgrid="false"
     inkscape:zoom="1.0970069"
     inkscape:cx="412.94178"
     inkscape:cy="94.347625"
     inkscape:window-width="2560"
     inkscape:window-height="1387"
     inkscape:window-x="0"
     inkscape:window-y="25"
     inkscape:window-maximized="1"
     inkscape:current-layer="layer1" />
  <defs
     id="defs2" />
  <g
     inkscape:label="Layer 1"
     inkscape:groupmode="layer"
     id="layer1"
     transform="translate(90.061961,-9.7516778)">
    <g
       id="g2101"
       transform="translate(2.6458334,3.1750001)">
      <path
         id="path836-7"
         style="opacity:0.442396;fill:#00a400;fill-opacity:1;stroke-width:0.27563"
         d="m 76.50057,12.726047 -2.53733,10.71149 c -0.067,0.401357 -0.14623,0.845611 -0.23666,1.317233 -0.55044,2.869589 -1.02286,6.083467 -1.27125,8.643916 -0.0735,0.757971 -0.25477,2.556516 -0.40256,3.996656 -0.14777,1.440191 -0.34028,3.796739 -0.42789,5.23689 -0.0877,1.440148 -0.27188,3.98273 -0.40925,5.650301 -0.13756,1.66755 -0.33063,4.458327 -0.42892,6.201688 -0.0983,1.743329 -0.22029,3.789526 -0.2708,4.547526 -0.26601,3.990453 -0.45207,10.409813 -0.56274,19.431893 -0.0677,5.53323 -0.17989,10.86663 -0.24961,11.85198 -0.14626,2.07285 0.21881,3.74213 0.89659,4.09795 1.0431,0.5475 2.77736,0.64636 3.42202,0.19482 l 0.62579,-0.43822 0.0713,-15.22646 c 0.0394,-8.3744 0.11687,-15.84619 0.17156,-16.60416 0.0547,-0.75799 0.18044,-3.114554 0.27905,-5.236885 0.0986,-2.122329 0.24054,-4.478888 0.31573,-5.23689 0.0752,-0.757963 0.19698,-2.246617 0.27027,-3.307808 0.0736,-1.061148 0.19799,-2.859685 0.27649,-3.996655 0.0785,-1.136971 0.20878,-2.997145 0.28991,-4.134115 0.081,-1.136965 0.37962,-3.741727 0.66352,-5.788276 0.2839,-2.046539 0.65794,-4.83733 0.83145,-6.201688 0.17352,-1.364372 0.56573,-3.695525 0.87077,-5.180047 0.30499,-1.484519 0.50501,-2.847623 0.4444,-3.029273 -0.0605,-0.18166 0.0463,-0.48709 0.23772,-0.67851 0.69334,-0.693351 -0.21997,-2.908025 -1.31775,-3.195154 -0.45077,-0.11785 -0.53483,-0.287485 -0.38963,-0.786516 0.55486,-1.909159 0.52766,-2.400678 -0.14676,-2.672188 -0.11618,-0.04679 -0.48017,-0.105683 -1.01545,-0.169498 z" />
      <path
         id="path836-0"
         style="opacity:0.442396;fill:#00a400;fill-opacity:1;stroke-width:0.27563"
         d="m 71.524646,96.789788 c -0.76306,0.006 -1.71273,0.14177 -2.86184,0.40514 -3.06292,0.70204 -4.7992,1.42211 -8.02897,3.329002 -2.64197,1.55985 -7.60365,5.28216 -7.60365,5.70456 0,0.11381 -0.28069,0.335 -0.62322,0.49093 -0.34258,0.15607 -1.75083,1.32314 -3.12952,2.59364 -1.37866,1.27051 -3.16111,2.8685 -3.961,3.55068 -0.79991,0.68218 -2.25666,1.95348 -3.23755,2.82515 -0.98086,0.87168 -1.92934,1.58492 -2.10838,1.58492 -0.17886,0 -0.46191,0.36212 -0.62892,0.8046 -0.41547,1.10071 0.0684,2.0015 1.29244,2.40606 0.95401,0.31517 2.48711,0.36532 2.74918,0.0899 0.0758,-0.0798 0.69551,-0.56784 1.37769,-1.08468 0.6822,-0.51688 1.92264,-1.60496 2.75643,-2.41794 0.83378,-0.81296 2.38413,-2.16624 3.44527,-3.00706 1.06119,-0.84084 2.68552,-2.23034 3.6096,-3.08766 1.63042,-1.51262 2.32154,-2.08847 3.19307,-2.66134 1.83211,-1.20422 2.67383,-1.79474 3.00914,-2.1115 0.6905,-0.65239 3.36666,-2.34851 5.21001,-3.30161 0.98536,-0.50951 1.83333,-1.02022 1.88413,-1.13481 0.0508,-0.1146 0.19203,-0.14725 0.31316,-0.0724 0.12123,0.0749 0.57544,0.0147 1.00975,-0.13436 0.64932,-0.22273 1.6414,-0.40407 2.90473,-0.53071 0.1021,-0.0102 0.56711,-0.33978 1.03354,-0.73226 0.6272,-0.527782 0.84799,-0.947482 0.84799,-1.611272 0,-1.28903 -0.7743,-1.90922 -2.45308,-1.89704 z m -31.21049,17.114202 c 0.0212,0.007 0.0419,0.0136 0.0615,0.0212 0,-0.009 0.004,-0.0122 0.005,-0.0212 z m -79.23186,0.52813 c -4.02164,0.0229 -7.91988,0.0713 -10.72441,0.14005 -5.60906,0.13706 -12.95813,0.28001 -16.3313,0.31781 -3.76692,0.0421 -6.24308,0.17884 -6.41821,0.35398 -0.6486,0.64875 -0.63145,2.27835 0.0372,3.5388 l 0.65114,1.22732 2.34868,0.0863 -0.003,-0.003 c 1.29167,0.0488 3.21664,0.0603 4.27778,0.0264 3.92787,-0.12533 8.76673,-0.41563 9.33587,-0.56017 0.86866,-0.22062 14.91343,-0.38101 31.18155,-0.35501 7.88299,0.0123 16.5035103,-0.005 19.1564703,-0.0388 8.46089,-0.10841 9.6516,-0.10071 16.6754697,0.11317 3.78989,0.11538 9.37146,0.27522 12.40337,0.35502 5.7068,0.15005 7.89805,0.27278 10.12082,0.5674 1.38334,0.18345 3.64924,-0.25228 4.18269,-0.8046 0.47897,-0.4959 1.09156,-2.56967 0.86661,-2.93367 -0.058,-0.0938 -0.004,-0.26326 0.12764,-0.46509 -0.2436,0.029 -0.48665,0.067 -0.73173,0.0713 -1.26405,0.0211 -2.52614,-0.0758 -3.78685,-0.1571 -0.0594,0.008 -0.14491,0.005 -0.26302,-0.002 -0.12145,-0.006 -0.24297,-0.0153 -0.36433,-0.0233 -1.1e-4,-5.3e-4 0,-0.001 0,-0.002 -0.13116,0.0212 -0.29591,0.0737 -0.29353,-0.0284 0,-0.021 0.003,-0.0418 0.004,-0.0625 -0.19666,-0.0818 -0.32083,-0.20957 -0.37775,-0.34933 -3.70705,-0.31813 -20.34733,-0.71837 -34.01185966,-0.79479 -8.03455004,-0.0449 -20.00396034,-0.13715 -26.59838034,-0.20515 -3.29719,-0.034 -7.44228,-0.0368 -11.46392,-0.014 z m 78.79054,0.61444 c -0.0279,5.3e-4 -0.0558,0.001 -0.0837,0.002 0.0132,0.0156 0.0418,0.0228 0.0527,0.0393 0.0145,-0.0141 0.0172,-0.027 0.031,-0.0408 z" />
    </g>
    <path
       style="fill:#000000;stroke-width:0.275629"
       d="m 40.624483,120.53919 c -1.22408,-0.40456 -1.70798,-1.30531 -1.29251,-2.40602 0.167,-0.44248 0.45003,-0.80455 0.62889,-0.80455 0.17905,0 1.12775,-0.71317 2.10862,-1.58485 0.98087,-0.87168 2.43785,-2.14304 3.23775,-2.82522 0.7999,-0.68218 2.58236,-2.27983 3.96101,-3.55034 1.37869,-1.2705 2.78697,-2.43775 3.12954,-2.59382 0.34254,-0.15593 0.6228,-0.37691 0.6228,-0.49072 0,-0.4224 4.96164,-4.14495 7.60361,-5.7048 3.22977,-1.90689 4.96617,-2.6268 8.0291,-3.32884 3.67713,-0.8428 5.31509,-0.38307 5.31509,1.49188 0,0.66379 -0.22072,1.08325 -0.84805,1.61103 -0.46641,0.39248 -0.93152,0.72196 -1.03361,0.73218 -1.26334,0.12664 -2.25525,0.30797 -2.90458,0.53071 -0.43431,0.1491 -0.88884,0.20965 -1.01007,0.13477 -0.12111,-0.0749 -0.26207,-0.0423 -0.31285,0.0723 -0.0508,0.11459 -0.89867,0.6253 -1.88403,1.13482 -1.84334,0.9531 -4.51969,2.6489 -5.2102,3.30129 -0.33531,0.31676 -1.17711,0.90756 -3.00922,2.11178 -0.87155,0.57287 -1.56236,1.14869 -3.19279,2.66131 -0.92409,0.85732 -2.5484,2.24675 -3.60958,3.0876 -1.06115,0.84082 -2.61156,2.19395 -3.44535,3.00691 -0.83379,0.81298 -2.07412,1.90102 -2.7563,2.41789 -0.68218,0.51684 -1.30235,1.00493 -1.37813,1.08469 -0.26207,0.27541 -1.7951,0.22527 -2.74911,-0.0899 z m -109.988728,-0.38779 -2.34852,-0.0863 -0.65106,-1.22731 c -0.66867,-1.26045 -0.6857,-2.88997 -0.0371,-3.53872 0.17514,-0.17514 2.65144,-0.31187 6.41836,-0.35393 3.37318,-0.0378 10.72224,-0.181 16.3313,-0.31806 5.60905,-0.13738 15.59371,-0.19402 22.18812,-0.12598 6.59442,0.068 18.5636004,0.16016 26.59816844,0.20509 14.50084956,0.0811 32.88493956,0.52973 35.01058956,0.85469 l 1.10825,0.16961 -0.0368,-3.67991 c -0.0605,-6.0905 -0.40768,-15.63017 -0.67531,-18.56385 -0.52876,-5.79586 -1.28998,-17.10262 -1.79998,-26.73597 -0.0723,-1.36436 -0.18491,-3.16284 -0.25034,-3.99663 -0.0654,-0.83379 -0.19468,-2.570247 -0.28746,-3.858787 -0.0928,-1.28858 -0.22202,-2.83899 -0.28713,-3.44538 -0.0651,-0.60636 -0.19989,-3.35749 -0.29983,-6.11356 -0.2103,-5.80972 0.21974,-5.21872 -3.96834,-5.45413 -1.43276,-0.0804 -3.2872,-0.20704 -4.12095,-0.28127 -2.11159,-0.18784 -18.0387496,-0.52709 -22.87720956,-0.4875 -12.89938844,0.10548 -30.94237844,0.0589 -31.16807844,-0.0804 -0.21453,-0.13282 -17.20255,-0.34811 -34.0181,-0.43135 -1.81915,-0.01 -5.16804,0.12729 -7.44197,0.30276 -2.27394,0.17547 -5.64712,0.34495 -7.49592,0.37649 -1.84881,0.0326 -3.44415,0.13999 -3.5452,0.24091 -0.10092,0.10091 -0.0446,0.98318 0.12566,1.96033 0.17026,0.97716 0.23505,1.97024 0.14422,2.20688 -0.0908,0.23667 -0.0619,0.59119 0.0641,0.78792 0.12599,0.19695 0.2523,0.60581 0.2803,0.90902 0.0293,0.30308 0.18947,1.41948 0.35885,2.48066 0.60177,3.7719 1.04021,7.4452 0.91439,7.66074 -0.0703,0.12045 0.0163,0.39355 0.19468,0.60714 0.32997,0.397627 0.67515,2.602867 0.65805,4.204297 -0.007,0.49268 0.0872,0.8958 0.20542,0.8958 0.11818,0 0.29885,0.46511 0.40114,1.03361 0.10255,0.56847 0.27379,1.15764 0.38086,1.30925 0.1071,0.1517 0.22104,0.82483 0.2536,1.49611 0.0326,0.67127 0.12663,1.32953 0.209,1.46281 0.0824,0.13314 0.18751,0.51429 0.23341,0.84671 0.0459,0.33241 0.28323,1.47264 0.5268,2.53382 0.24384,1.06118 0.57189,2.61159 0.72932,3.44535 0.15757,0.83378 0.66249,3.0375 1.12235,4.89715 0.4599,1.85965 0.78128,3.53409 0.71419,3.72099 -0.0671,0.18686 -0.007,0.56566 0.13673,0.84176 0.29657,0.57579 0.97341,3.05313 1.33118,4.8728 0.13413,0.68218 0.48653,2.35663 0.78314,3.72099 1.01541,4.671 2.66472,12.89366 3.08725,15.39164 0.41337,2.44371 0.1491,3.08937 -1.37019,3.34606 -1.32686,0.22397 -2.11761,0.0163 -2.36959,-0.6256 -0.10189,-0.25946 -0.34374,-1.34008 -0.53718,-2.40126 -0.59773,-3.27958 -2.63988,-13.37397 -3.2341,-15.98648 -0.68537,-3.01309 -1.35336,-6.15574 -2.43137,-11.43857 -0.44854,-2.19815 -1.13896,-5.48502 -1.5343,-7.30417 -1.04181,-4.79412 -2.91191,-14.52608 -4.10481,-21.361237 -0.68872,-3.94627 -0.74498,-4.33217 -1.27444,-8.74182 -0.18589,-1.54868 -0.44646,-2.74884 -0.57892,-2.66693 -0.1325,0.0817 -0.59783,0.0703 -1.03419,-0.026 -0.87481,-0.19207 -1.43573,-1.17958 -1.42869,-2.5151 0.01,-1.60689 0.1797,-1.88817 1.38477,-2.277 0.72297,-0.23309 1.07231,-0.47575 0.91371,-0.63432 -0.61222,-0.61222 0.0885,-1.70743 2.40409,-3.75687 5.14893,-4.55728 9.35003,-8.03645 11.04922,-9.15044 0.34687,-0.22755 1.29687,-0.94548 2.11116,-1.59576 0.81429,-0.65027 1.83341,-1.39447 2.26473,-1.65377 0.82229,-0.49437 5.6727,-3.87891 8.06643,-5.62869 0.76956,-0.56254 3.21282,-1.90222 5.42946,-2.97708 2.21661,-1.07485 4.8616,-2.3729 5.87776,-2.88453 1.45294,-0.7315696 2.0122,-0.8837596 2.61846,-0.7126496 0.42402,0.1198 0.73687,0.3677996 0.6952,0.5513396 -0.0417,0.18361 0.0593,0.25035 0.22398,0.14845 0.16473,-0.1019 0.53282,0.026 0.81761,0.28323 0.61879,0.56 0.44753,0.55404 7.02726,0.24481 2.8803,-0.13543 7.22145,-0.22723 9.647,-0.20412 2.42554,0.0228 5.77443,0.0475 7.44197,0.0544 4.0271,0.0163 45.656558,-0.23407 48.648488,-0.29267 2.71326,-0.0531 17.0976,0.32694 17.99809,0.47546 0.33375,0.055 3.45961,0.17221 6.9463,0.26044 3.48669,0.0882 8.19994,0.27508 10.47388,0.41526 2.27394,0.14031 6.55307,0.3956 9.50919,0.56759 2.95612,0.17189 5.66935,0.43132 6.0294,0.57631 0.67444,0.27151 0.70136,0.76286 0.1465,2.67202 -0.14519,0.49903 -0.0609,0.6689 0.38987,0.78675 1.09778,0.28713 2.01122,2.50149 1.31788,3.19484 -0.19142,0.19142 -0.29853,0.49684 -0.23798,0.6785 0.0606,0.18165 -0.13966,1.54494 -0.44466,3.02946 -0.30504,1.48452 -0.69677,3.81546 -0.87028,5.17983 -0.17352,1.36436 -0.54776,4.1551 -0.83167,6.20164 -0.28388,2.04655 -0.5824,4.65124 -0.66337,5.78821 -0.0811,1.13697 -0.2116,2.99746 -0.29006,4.13443 -0.0785,1.13697 -0.20281,2.93544 -0.27639,3.99659 -0.0733,1.06119 -0.195,2.54958 -0.2702,3.30755 -0.0752,0.758 -0.21746,3.11463 -0.31611,5.23696 -0.0986,2.12233 -0.2243,4.478947 -0.27899,5.236947 -0.0547,0.75797 -0.13184,8.2299 -0.17124,16.6043 l -0.0716,15.22617 -0.62579,0.43831 c -0.64465,0.45154 -2.37876,0.35283 -3.42185,-0.19467 -0.67778,-0.35582 -1.04308,-2.0249 -0.89681,-4.09775 0.0697,-0.98536 0.18198,-6.31877 0.24969,-11.85201 0.11069,-9.02208 0.29658,-15.44138 0.56261,-19.431827 0.0505,-0.758 0.17254,-2.80454 0.27086,-4.54787 0.0983,-1.74336 0.29136,-4.5341 0.4289,-6.20165 0.13738,-1.66757 0.32164,-4.21025 0.40938,-5.6504 0.0876,-1.44015 0.28029,-3.79677 0.42806,-5.23696 0.14779,-1.44014 0.32873,-3.23862 0.40224,-3.99659 0.24839,-2.56045 0.72109,-5.77401 1.27152,-8.6436 0.30113,-1.57043 0.49538,-2.90764 0.43144,-2.97161 -0.1084,-0.10841 -1.58544,0.60131 -2.2419,1.07726 -0.16049,0.11622 -1.28412,0.84701 -2.49687,1.62366 -1.21276,0.77665 -3.19728,2.0607 -4.41007,2.85341 -5.14939,3.36588 -7.71498,4.90617 -12.3514,7.41531 -2.70018,1.46128 -5.36689,2.93607 -5.92601,3.27737 -1.14003,0.69585 -2.04462,1.20673 -4.02892,2.27553 -0.74723,0.40244 -1.53127,0.90443 -1.74239,1.11552 -0.21095,0.21128 -0.55066,0.38382 -0.75458,0.38382 -0.20379,0 -0.41214,0.0931 -0.46267,0.20672 -0.0505,0.11361 -0.92373,0.76487 -1.94041,1.44705 -1.01671,0.68218 -1.88595,1.42273 -1.93163,1.64566 -0.0798,0.38968 0.15073,3.88484 0.44606,6.761 0.38669,3.76598 1.04029,12.462027 1.39832,18.604937 0.084,1.44019 0.20965,3.11463 0.27965,3.72099 0.07,0.6064 0.19955,2.71496 0.28843,4.68571 0.0889,1.97073 0.21356,4.07929 0.27704,4.68568 0.0635,0.6064 0.24513,2.71496 0.40325,4.68568 0.15822,1.97076 0.33886,3.83125 0.40153,4.13443 0.0625,0.30308 0.18751,2.16371 0.27769,4.13443 0.0902,1.97076 0.22495,4.82352 0.29983,6.33948 0.1976,4.00412 0.36874,8.01364 0.4277,10.02808 0.0488,1.66683 0.003,1.80011 -0.84004,2.5376 -0.5143,0.44906 -0.80862,0.91251 -0.69562,1.09536 0.22495,0.364 -0.38763,2.43776 -0.86661,2.93366 -0.53347,0.55232 -2.79959,0.98846 -4.18293,0.80501 -2.22277,-0.29462 -4.41401,-0.41764 -10.1208,-0.56769 -3.03191,-0.0798 -8.61339,-0.23927 -12.40329,-0.35465 -7.0238496,-0.21388 -8.2146296,-0.22202 -16.6755276,-0.11361 -2.65294,0.0338 -11.2732304,0.0514 -19.1562204,0.0391 -16.26814,-0.026 -30.31294,0.13413 -31.18159,0.35475 -0.56915,0.14454 -5.40797,0.4348 -9.33584,0.56013 -1.06115,0.0339 -2.98623,0.0228 -4.2779,-0.026 z M 31.797183,39.730263 c 0,-0.73381 1.12733,-0.92562 2.35285,-0.40032 l 1.1175,0.47904 2.60599,-1.64459 c 1.43328,-0.90453 3.53621,-2.1156 4.67318,-2.69119 1.13697,-0.57563 3.11641,-1.68408 4.3988,-2.46321 1.28236,-0.77916 2.49811,-1.35274 2.70168,-1.27464 0.20346,0.0781 0.30536,0.0371 0.22593,-0.0912 -0.0791,-0.12826 0.44147,-0.56853 1.15712,-0.97856 0.71564,-0.41002 2.27224,-1.35804 3.45908,-2.10663 1.18688,-0.74863 2.26183,-1.36111 2.38879,-1.36111 0.12696,0 0.27216,-0.10027 0.32262,-0.22267 0.0505,-0.12241 0.83606,-0.70263 1.74564,-1.28913 0.90957,-0.58651 3.32822,-2.1907 5.37476,-3.56486 2.04654,-1.37416 4.68724,-3.00488 5.86819,-3.62381 l 2.1472,-1.12528 -3.80097,-0.32327 c -2.09053,-0.17775 -4.73122,-0.38102 -5.86819,-0.45173 -1.13697,-0.0706 -3.1215,-0.19598 -4.41004,-0.27801 -6.99728,-0.44636 -22.03128,-0.83871 -31.00824,-0.80921 -7.03813,0.0228 -45.881048,0.32391 -48.786278,0.37776 -0.6064,0.01 -4.69949,0.0163 -9.09575,0.013 -4.39627,-0.003 -8.89248,0.0938 -9.99156,0.21747 -1.36348,0.15333 -1.99963,0.13184 -2.00253,-0.0671 -0.003,-0.20021 -0.068,-0.19825 -0.20672,0.007 -0.1185,0.1745 -1.41492,0.32575 -3.12537,0.36501 -2.35558,0.054 -3.00706,-0.0163 -3.35677,-0.36686 -0.23862,-0.23863 -0.51358,-0.43392 -0.61095,-0.43392 -0.0973,0 -1.99774,0.89379 -4.22301,1.98619 -4.27243,2.09736 -6.0434,3.15056 -8.73403,5.19405 -0.90828,0.6898 -3.26383,2.3284 -5.23458,3.64129 -1.97073,1.31289 -4.26534,3.00857 -5.09913,3.76813 -0.83378,0.75953 -1.73301,1.45493 -1.99829,1.5453 -0.26532,0.0902 -0.48236,0.25881 -0.48236,0.37464 0,0.11557 -0.58918,0.63006 -1.30925,1.14302 -0.72008,0.513 -1.4506,1.06118 -1.6234,1.21816 -0.17287,0.15691 -1.27197,1.09165 -2.44267,2.07702 -1.5647,1.31702 -1.99898,1.81745 -1.63954,1.8893 0.2689,0.0537 3.60073,-0.0703 7.40398,-0.27574 3.80329,-0.20542 9.14764,-0.34667 11.87637,-0.31415 2.72872,0.0326 10.5428,0.12241 17.36461,0.19989 6.82181,0.0775 14.01572,0.24839 15.98644,0.37997 1.97076,0.13152 11.60776,0.24742 21.4155404,0.25718 9.807818,0.01 17.931978,0.0781 18.053698,0.15171 0.12175,0.0736 2.9500296,0.21063 6.2851496,0.30438 5.15068,0.14487 11.94629,0.53335 14.47051,0.82744 1.49428,0.17417 1.65377,0.1491 1.65377,-0.25946 z m 0.82688,-7.04605 c -0.98536,-0.0902 -4.21022,-0.19239 -7.16633,-0.2269 -2.95612,-0.0345 -7.23526,-0.10678 -9.5092,-0.16082 -7.7761796,-0.18426 -44.367028,-0.16017 -50.440058,0.0335 -7.81147,0.24904 -7.33575,0.24742 -10.06044,0.0335 -2.50344,-0.19663 -9.49542,-0.28192 -18.86804,-0.23081 -6.2942,0.0345 -6.4282,0.003 -6.62222,-1.52971 -0.251,-1.98361 0.22495,-2.07825 9.57964,-1.90363 8.37476,0.15627 33.67175,0.58524 38.23655,0.64833 1.44015,0.0195 8.0139,0.0576 14.6083204,0.0837 6.594408,0.026 13.726308,0.15366 15.848638,0.28323 3.7303896,0.22788 5.5523796,0.30536 15.2973896,0.65041 2.50133,0.0885 5.60216,0.27508 6.89073,0.41464 3.70218,0.40082 5.88649,0.62131 6.40837,0.6469 0.59002,0.0293 0.63319,0.41621 0.0703,0.63214 -0.22658,0.0869 -0.35094,0.25653 -0.27639,0.37708 0.1924,0.31155 -1.89236,0.44098 -3.99737,0.24807 z m -36.1765596,-7.30104 c -0.0554,-0.0553 -3.113198,-0.11134 -6.7951484,-0.12469 -3.68193,-0.013 -6.9616,-0.12175 -7.28813,-0.24123 -0.32649,-0.11947 -1.21383,-0.14291 -1.97179,-0.0521 -0.75797,0.0911 -3.36266,0.0687 -5.78821,-0.0495 -2.42554,-0.11817 -5.34032,-0.19142 -6.47729,-0.16277 -3.556,0.0899 -4.29886,0.0723 -17.91585,-0.42464 -1.44015,-0.0527 -3.33167,-0.11069 -4.20335,-0.12892 -1.16787,-0.026 -1.58486,-0.13608 -1.58486,-0.42383 0,-0.21486 -0.15203,-0.44114 -0.33791,-0.50309 -0.41003,-0.13673 -0.32822,-1.80564 0.11459,-2.33928 0.17124,-0.20639 0.4626,-0.31741 0.64725,-0.24644 0.18458,0.071 0.45352,0.01 0.59751,-0.13315 0.26206,-0.26206 30.25166,-0.37066 30.67165,-0.11101 0.11524,0.0713 9.12459,0.20705 20.0209284,0.30211 10.89635,0.0951 20.3076796,0.20672 20.9140696,0.24872 0.60636,0.0417 6.18785,0.1185 12.4033,0.17026 18.25263,0.15235 19.37593,0.195 19.52011,0.74253 0.10515,0.39929 0.12794,0.3917 0.15529,-0.0518 0.0293,-0.4863 0.20607,-0.50733 2.71085,-0.32359 1.47339,0.10808 2.77573,0.25653 2.8941,0.32965 0.1185,0.0733 0.21519,0.43581 0.21519,0.80582 0,0.48227 -0.15138,0.67281 -0.53497,0.67281 -0.2943,0 -0.60386,0.11133 -0.68798,0.24741 -0.084,0.13608 -1.05275,0.33466 -2.15241,0.44112 -1.09966,0.10645 -2.60896,0.30568 -3.35397,0.44297 -0.74501,0.13705 -9.61336,0.26206 -19.70746,0.27769 -10.09407,0.0163 -19.0350596,0.13119 -19.8688396,0.25653 -1.55709,0.23439 -12.01622,0.5586 -12.19687,0.37796 z M -22.714385,111.75756 c -0.34439,-0.16864 -0.67795,-0.56564 -0.74127,-0.8821 -0.19532,-0.97667 -0.45609,-4.03312 -0.5781,-6.77702 -0.0641,-1.44015 -0.29885,-3.98282 -0.52159,-5.6504 -0.5281,-3.95199 -0.67417,-5.22358 -0.98168,-8.54447 -0.14031,-1.51597 -0.44646,-4.12066 -0.68023,-5.7882 -0.23374,-1.66758 -0.4764,-3.77614 -0.53917,-4.68571 -0.0628,-0.90958 -0.30243,-3.14217 -0.5324,-4.96132 -0.23016,-1.81915 -0.48135,-4.16663 -0.55844,-5.21661 -0.0771,-1.05002 -0.51127,-4.64697 -0.96485,-7.99326 -0.45362,-3.346247 -0.9739,-7.386467 -1.15621,-8.978217 -0.1823,-1.59176 -0.43737,-3.01195 -0.56684,-3.15597 -0.39944,-0.44437 -0.26402,-1.73536 0.20054,-1.91369 1.3836,-0.53094 3.75722,0.30471 4.22158,1.48647 0.27411,0.69771 0.77652,4.25433 1.03041,7.29574 0.0762,0.91423 0.37126,3.33665 0.65543,5.383197 0.49632,3.57432 0.93145,7.25674 1.23759,10.47388 0.0794,0.83378 0.21551,1.9814 0.30276,2.55029 0.0869,0.56889 0.19109,1.31309 0.23146,1.65377 0.04,0.34069 0.1618,1.24753 0.2702,2.0152 0.10841,0.76763 0.23993,1.82191 0.29267,2.34285 0.0524,0.52091 0.28192,2.24942 0.5099,3.84118 0.22788,1.59176 0.49486,3.76233 0.59318,4.82351 0.22072,2.38362 0.34078,3.26988 0.82067,6.06382 0.20835,1.21278 0.51185,3.63143 0.67453,5.37476 0.16277,1.74336 0.36158,3.85192 0.44206,4.68571 0.51911,5.37931 0.51706,5.50061 -0.10418,6.16186 -0.66541,0.70832 -2.50149,0.91202 -3.5576,0.39473 z m -19.52513,-0.34293 c -0.81777,-0.34957 -0.86614,-0.45987 -1.04956,-2.3943 -0.1058,-1.11525 -0.30373,-2.4619 -0.44026,-2.99248 -0.13641,-0.5306 -0.32099,-1.77093 -0.41006,-2.7563 -0.19598,-2.16439 -0.46068,-4.02986 -1.37729,-9.70064 -0.3846,-2.37922 -0.68228,-4.42576 -0.66151,-4.54788 0.0195,-0.12207 0.013,-0.28387 -0.0163,-0.35979 -0.25979,-0.67375 -0.403,-1.78737 -0.41332,-3.21232 -0.007,-0.93302 -0.12208,-1.62858 -0.25588,-1.54573 -0.13412,0.0827 -0.18686,-0.23602 -0.11752,-0.70864 0.0693,-0.47263 0.0329,-0.89337 -0.0814,-0.93497 -0.11395,-0.0417 -0.46889,-2.43225 -0.78848,-5.31258 -0.31968,-2.8803 -0.75871,-6.35322 -0.97585,-7.71759 -0.21714,-1.36436 -0.46335,-3.22485 -0.54712,-4.13443 -0.16342,-1.77562 -0.74335,-6.484797 -1.37448,-11.162957 -0.21486,-1.59176 -0.47426,-3.66311 -0.57671,-4.60302 l -0.18621,-1.70886 0.79202,-0.20737 c 1.48892,-0.39013 3.34795,0.19305 3.54008,1.11063 0.19631,0.9377 0.88288,6.57684 1.39669,11.47259 0.0876,0.833787 0.20998,1.702017 0.27249,1.929407 0.0622,0.22756 0.181,1.09563 0.26369,1.92942 0.24058,2.42818 0.65171,5.84566 0.82877,6.89069 0.0899,0.53061 0.27313,1.58489 0.40697,2.34286 0.1338,0.75797 0.25295,1.56418 0.26434,1.79158 0.0374,0.7397 0.78763,5.86412 1.23082,8.40669 0.23798,1.36437 0.48409,2.91478 0.54725,3.44535 0.18132,1.52424 1.02026,6.42631 1.13,6.60386 0.0547,0.0885 0.17775,0.7162 0.27378,1.39519 0.0957,0.67899 0.23439,1.43901 0.30797,1.68893 0.0736,0.25002 0.37438,2.17244 0.66857,4.27227 0.29429,2.09977 0.72675,5.03001 0.96124,6.5116 0.46387,2.93053 0.33043,3.62534 -0.77431,4.03195 -1.31517,0.48402 -2.01809,0.52787 -2.83882,0.1771 z m 61.082158,0.16309 c 0,-0.1045 -0.48536,-0.14356 -1.07857,-0.0869 -1.40128,0.13348 -1.60338,-0.25067 -1.79828,-3.41793 -0.16701,-2.71584 -0.24253,-3.51193 -0.67538,-7.14427 -0.16277,-1.36436 -0.36666,-4.40317 -0.45339,-6.75289 -0.15561,-4.22015 -0.51817,-8.35445 -1.38656,-15.81716 -0.34433,-2.95899 -0.37018,-3.87374 -0.11394,-4.03215 0.22918,-0.14161 0.23797,-0.23635 0.0293,-0.30699 -0.16864,-0.057 -0.43028,-1.3866 -0.58963,-2.99639 -0.15757,-1.59175 -0.34209,-3.32821 -0.40996,-3.85879 -0.25035,-1.95565 -0.67317,-6.55148 -0.83698,-9.095747 -0.0928,-1.44018 -0.26792,-3.79681 -0.38935,-5.23695 -0.12143,-1.44015 -0.14324,-3.17661 -0.0485,-3.8588 l 0.17221,-1.24033 1.24033,-0.0794 c 1.03674,-0.0664 1.37863,0.0475 2.08275,0.69367 0.82395,0.75602 0.85254,0.8695 1.30501,5.1784 0.25458,2.423 0.53335,5.64577 0.61975,7.161737 0.0863,1.51597 0.26987,3.56251 0.4079,4.54788 0.13804,0.98536 0.31611,2.76271 0.39564,3.94962 0.0798,1.18694 0.19565,2.24122 0.25751,2.34285 0.0618,0.10157 0.18458,1.05304 0.2728,2.11419 0.0879,1.06118 0.46381,4.72016 0.83516,8.13106 0.66213,6.08204 0.82304,7.96555 1.13039,13.23018 0.26174,4.48469 0.42289,6.44711 0.59962,7.30417 0.0938,0.45479 0.19891,1.13697 0.23342,1.51594 0.0345,0.379 0.13413,1.24723 0.22072,1.92941 0.46088,3.62652 0.44095,4.53072 -0.11459,5.20665 -0.49685,0.60448 -1.90653,1.06209 -1.90653,0.6189 z m -78.224518,-0.25457 c -0.81416,-0.12892 -1.06964,-0.82819 -1.56844,-4.2921 -0.22138,-1.53716 -0.70397,-4.53133 -1.07242,-6.65366 -0.36842,-2.12233 -0.75367,-4.4662 -0.85609,-5.20857 -0.10254,-0.74234 -0.2868,-1.54856 -0.40976,-1.79158 -0.24155,-0.47735 -0.74355,-3.41299 -1.11255,-6.50567 -0.12664,-1.06115 -0.41778,-2.7356 -0.64699,-3.72099 -0.87894,-3.77825 -2.44563,-12.44132 -2.79139,-15.4352 -0.58709,-5.08349 -1.10282,-8.576567 -1.66849,-11.300767 -0.36201,-1.74336 -0.73349,-4.03797 -0.82552,-5.09915 -0.22528,-2.59753 -0.3148,-3.22163 -0.545,-3.79339 -0.31089,-0.77265 0.36738,-1.33103 1.53313,-1.26224 1.77601,0.10483 2.36727,0.94913 2.60811,3.72447 0.0899,1.03534 0.28225,2.33404 0.42737,2.88603 0.1452,0.55196 0.31546,1.48221 0.37803,2.06722 0.0628,0.58497 0.43574,2.77648 0.82894,4.86997 0.39319,2.093477 0.77545,4.326077 0.84947,4.961307 0.0739,0.63524 0.37842,2.20925 0.67649,3.4978 0.2982,1.28857 0.79778,3.76923 1.1105,5.51259 0.31285,1.74333 0.74309,3.91391 0.95636,4.82349 0.43831,1.86925 0.75123,3.53204 0.85589,4.54787 0.0391,0.379 0.0967,0.72007 0.12794,0.758 0.0931,0.11296 0.14356,0.40254 0.37141,2.1361 0.11948,0.90958 0.65324,3.82435 1.186,6.47729 0.53276,2.65294 1.20051,6.06384 1.4839,7.57978 0.28355,1.51597 0.65002,3.31298 0.81468,3.99337 0.43119,1.78155 0.64386,4.47303 0.43958,5.56205 -0.14975,0.79729 -0.35204,1.00073 -1.34606,1.35257 -0.64348,0.22789 -1.45574,0.36878 -1.80499,0.31351 z m 55.3473384,-2.20971 c -0.772128,-0.11947 -1.432658,-0.56944 -1.255818,-0.8556 0.0641,-0.10352 -0.0501,-1.54683 -0.25328,-3.20741 -0.20314,-1.6606 -0.45404,-4.25833 -0.55733,-5.7727 -0.1032,-1.51441 -0.23114,-2.82346 -0.28388,-2.90908 -0.0531,-0.0856 -0.28908,-3.12566 -0.52471,-6.75576 -0.2357,-3.63006 -0.6135,-7.96448 -0.83955,-9.63202 -0.22593,-1.66757 -0.60353,-4.58235 -0.83884,-6.47729 -0.23537,-1.89493 -0.49125,-3.94148 -0.56882,-4.54787 -0.24221,-1.8936 -1.2112304,-8.19675 -1.5042504,-9.784827 -0.36328,-1.96894 -0.52293,-3.20493 -0.7832,-6.06381 -0.1172,-1.28858 -0.35862,-2.61378 -0.53624,-2.94492 -0.48021,-0.89525 -0.40058,-2.00377 0.15952,-2.21967 1.58456,-0.61085 4.5754404,0.27899 4.8689904,1.44842 0.0905,0.36008 0.35074,2.42886 0.57856,4.59719 0.22788,2.16836 0.47312,4.31456 0.54513,4.76935 0.0719,0.45478 0.19044,1.44705 0.26336,2.205047 0.20705,2.15098 0.68166,5.31522 0.98602,6.57319 0.15235,0.62941 0.323588,1.88859 0.380748,2.79816 0.057,0.90958 0.23114,2.14991 0.38678,2.7563 0.15562,0.6064 0.36615,2.03277 0.46788,3.16974 0.10157,1.13697 0.35133,3.05948 0.55466,4.27224 0.20347,1.21275 0.44561,4.31358 0.53842,6.89073 0.0928,2.57712 0.23342,5.05777 0.31253,5.51256 0.17872,1.02974 0.32489,2.4401 0.52781,5.09912 0.0869,1.13697 0.33156,3.24553 0.54395004,4.68571 0.77288,5.24041 0.7705,5.06667 0.0788,5.70571 -0.63976004,0.59103 -2.00357004,0.87979 -3.24709004,0.68749 z m -1.653768,-14.11081 c 0,-0.15171 -0.1312,-0.27574 -0.29202,-0.27574 -0.16049,0 -0.21518,0.12403 -0.12143,0.27574 0.0938,0.1517 0.22496,0.27573 0.29202,0.27573 0.0667,0 0.12143,-0.12403 0.12143,-0.27573 z m 53.8424676,9.72516 c -0.93578,-0.11753 -1.13319,-0.50554 -1.37179,-2.69663 -0.0661,-0.60639 -0.17481,-1.2596 -0.24155,-1.45158 -0.0667,-0.19207 -0.19077,-2.5486 -0.27574,-5.23695 -0.085,-2.68833 -0.28062,-6.56232 -0.43516,-8.60887 -0.69543,-9.21125 -1.0784,-14.00162 -1.2009,-15.02175 -0.23374,-1.94497 -0.69169,-7.36163 -0.85082,-10.06047 -0.13217,-2.242817 -0.73859,-7.882867 -1.1409,-10.611687 -0.27053,-1.83559 -0.36015,-3.33873 -0.23212,-3.8948 0.20054,-0.86976 1.14684,-0.97976 2.51175,-0.29201 0.92387,0.46556 1.20035,0.76109 1.20944,1.29264 0.01,0.54718 0.0667,0.60392 0.27899,0.27574 0.20509,-0.3174 0.26825,-0.22104 0.2715,0.41527 0.002,0.45579 0.12794,1.26025 0.27932,1.7877 0.24091,0.83949 0.9238,7.70573 0.87761,8.82219 -0.0293,0.67991 0.76126,8.808647 1.05727,10.887327 0.15106,1.06118 0.32646,2.73562 0.38965,3.72099 0.0632,0.98539 0.36468,5.26453 0.66997,9.50919 0.30536,4.24469 0.69381,9.95021 0.86338,12.67893 0.16961,2.72873 0.3765,5.64858 0.4599,6.48858 0.14389,1.44976 0.11459,1.54417 -0.5798,1.8605 -0.72997,0.33258 -0.90033,0.34169 -2.53997,0.13575 z m 10.30635,-5.78144 c -0.99232,-0.25881 -1.30319,-1.55324 -1.55754,-6.48588 -0.20216,-3.91807 -0.50117,-46.300287 -0.37141,-52.619877 0.0641,-3.12563 1.07033,-4.54416 2.5985,-3.66363 0.35391,0.20379 0.8295,0.46169 1.05689,0.57283 1.27008,0.62088 1.23531,0.24351 1.3267,14.40814 0.0944,14.637347 0.22527,22.179947 0.72267,41.639677 0.0195,0.83375 -0.0462,1.95005 -0.1504,2.48066 -0.10385,0.53057 -0.27183,1.55624 -0.37268,2.27927 -0.10092,0.72301 -0.29104,1.24811 -0.42243,1.16689 -0.13152,-0.0811 -0.31676,-0.0228 -0.41204,0.1325 -0.17287,0.27997 -1.49992,0.32893 -2.41826,0.0895 z"
       id="path836"
       sodipodi:nodetypes="ssssssssssssssssssssssscssccssscssscsssssscsssccscssssccsccscsssssssscssssssssssssccsssssssssssscscsssssssssssssssscsssscssscsssssssssssssscsssssssssssssscsssssscsscccscsssscssssssscsscccssscscssssssssssssssssssscccscssssscsssscssccccscscscsssscssccscsssssssccccsssssssssssssssssccscsssssssscsscscsscssssssscssscssscssscssssccccssssssssssscssssssscsssscsccsssssssssssssscssssssssssssssssssscsssssssssssssssssscsssssssssssssssssscscssscssssssssssssssccsscss" />
  </g>
</svg>
