<?xml version="1.0" encoding="UTF-8" standalone="no"?>
<!-- Created with Inkscape (http://www.inkscape.org/) -->

<svg
   width="113.88776mm"
   height="123.34264mm"
   viewBox="0 0 113.88776 123.34264"
   version="1.1"
   id="svg5"
   sodipodi:docname="datalad.svg"
   inkscape:version="1.1.1 (c3084ef, 2021-09-22)"
   xmlns:inkscape="http://www.inkscape.org/namespaces/inkscape"
   xmlns:sodipodi="http://sodipodi.sourceforge.net/DTD/sodipodi-0.dtd"
   xmlns="http://www.w3.org/2000/svg"
   xmlns:svg="http://www.w3.org/2000/svg">
  <sodipodi:namedview
     id="namedview7"
     pagecolor="#ffffff"
     bordercolor="#666666"
     borderopacity="1.0"
     inkscape:pageshadow="2"
     inkscape:pageopacity="0.0"
     inkscape:pagecheckerboard="0"
     inkscape:document-units="mm"
     showgrid="false"
     inkscape:zoom="0.22507872"
     inkscape:cx="208.81583"
     inkscape:cy="-970.77149"
     inkscape:window-width="1606"
     inkscape:window-height="1319"
     inkscape:window-x="0"
     inkscape:window-y="25"
     inkscape:window-maximized="0"
     inkscape:current-layer="layer1" />
  <defs
     id="defs2" />
  <g
     inkscape:label="Layer 1"
     inkscape:groupmode="layer"
     id="layer1"
     transform="translate(-52.804636,-43.382893)">
    <path
       style="fill:#000000;stroke-width:0.143426"
       d="m 57.725937,166.53717 c -2.480572,-4.12757 -1.039275,-10.2134 -1.478158,-15.13402 0.29701,-9.92266 -0.5751,-19.79658 -0.405292,-29.71388 -0.767725,-4.50317 -0.503375,-9.72379 -1.134089,-14.48764 -0.342291,-9.470224 -0.711805,-18.929593 -1.437812,-28.374499 0.137723,-4.496985 -0.14975,-9.646226 -0.0085,-14.425989 0.03439,-6.285547 0.07809,-12.653619 -0.45745,-18.860925 4.587619,-1.153664 9.619707,-1.026049 14.258142,-1.697388 5.088193,-1.168526 10.322411,0.31018 15.478839,-0.117869 1.925852,3.17964 -4.732689,5.99706 -6.68041,8.614102 -2.759015,2.967081 -4.600844,6.291012 0.667135,7.924145 3.066513,2.210496 6.86604,5.054582 8.945775,7.266717 -3.521659,1.613327 0.107569,8.586375 -1.174779,12.476932 0.363823,12.03571 0.06454,24.181324 0.620787,36.247494 0.18507,3.00779 0.499817,8.45521 0.651025,12.31286 0.199164,3.48645 -1.155908,8.90917 4.332343,6.38947 4.736162,0.0539 9.56314,-1.20264 14.424757,-0.11062 5.16282,4.37459 9.80085,9.32673 14.96076,13.7051 -2.13255,5.47716 -7.8458,9.73422 -11.139,14.89145 -0.38631,4.51519 -8.733283,0.34481 -12.070803,1.7918 -12.151111,0.20908 -24.257788,1.2988 -36.385928,1.43103 l -1.020116,0.0601 -0.946663,-0.18848 z m 1.26512,-2.06356 c 7.666662,-0.0102 15.334205,-0.59908 22.988281,-1.0088 7.139571,-0.28606 14.31553,-1.14045 21.458622,-0.66667 4.32599,-1.10177 6.32965,-6.20208 9.51241,-9.30787 2.93505,-2.48037 4.93873,-5.47994 -2.9e-4,-7.45278 -4.56058,-3.85788 -8.29716,-10.61175 -15.284962,-8.85938 -5.1691,-0.16278 -10.378873,0.97799 -14.353865,2.48826 -0.444237,-16.74673 -1.457814,-33.4917 -1.3052,-50.25977 -0.05133,-7.067683 -0.114854,-14.135266 -0.175991,-21.202865 1.508668,-0.89248 -5.025363,-4.069976 -6.366815,-5.932478 -3.061278,-1.845027 -8.760298,-4.998955 -3.584998,-7.872259 0.740604,-3.554645 6.585749,-5.664538 6.620357,-8.383421 -5.75709,-0.989898 -11.42494,0.02577 -17.16548,0.35626 -2.909664,0.991576 -8.403663,-0.960159 -6.086304,4.148129 0.389572,13.458635 -0.172772,26.938011 1.055859,40.363915 0.418556,9.940509 1.204593,19.923759 1.5912,29.827479 0.381948,2.92945 0.419623,6.59157 0.546369,9.63494 -0.162794,5.48705 0.436766,11.32947 0.248121,16.60399 0.01779,5.19373 -0.331619,10.53118 0.562107,15.86257 0.577115,0.82478 -2.074196,2.20524 -0.259421,1.66075 z m 60.207353,1.53805 c -1.76969,-2.61349 0.16263,-5.57319 3.28803,-8.62656 2.54228,-3.70957 6.51438,-6.92552 8.13265,-10.97213 -2.90801,-2.72102 -7.41245,-4.16481 -10.36187,-7.21957 -1.35727,-1.49393 -9.30982,-4.88867 -4.37695,-5.649 4.13762,1.89046 7.92456,-3.2453 11.2654,-5.3009 3.88567,-3.47115 5.78777,-8.69361 7.70276,-13.40451 2.15046,-7.38819 0.79737,-15.307912 -0.51404,-22.726633 -3.29943,-8.649882 -9.94858,-16.29068 -18.36718,-20.278799 -5.87681,-1.887726 -12.10149,-4.570529 -18.318981,-2.464574 -4.543469,-1.878778 -6.08561,-8.053299 -10.827379,-10.241232 -5.322069,-3.566369 1.202001,-7.337659 3.584676,-10.729951 1.672512,-6.272613 8.272118,-4.877305 13.488604,-4.583413 8.92436,0.256359 17.58069,1.23652 26.17339,3.725329 10.13229,2.322833 18.33212,9.803799 23.95734,18.264149 3.19183,5.349318 6.2958,11.367898 8.76107,17.299322 2.49136,4.561813 2.91554,9.122685 3.61979,14.091615 1.14453,11.763807 -1.30177,23.495757 -4.43318,34.758567 -1.76162,4.64537 -3.81374,9.59942 -7.06394,13.20373 -3.55261,5.18375 -8.57614,9.62167 -13.85655,13.12469 -6.62598,4.14992 -13.85683,7.66937 -21.85364,7.72987 z m 2.94023,-2.4792 c 6.34633,-0.61561 12.26752,-3.30327 17.47291,-6.82552 4.71641,-2.58164 8.07322,-5.99159 11.48867,-10.10328 3.19027,-3.71067 5.58247,-7.74346 7.33182,-12.34124 3.03445,-8.31152 4.52343,-17.1452 5.36781,-25.92505 0.37398,-9.059648 -0.18412,-18.542941 -4.84783,-26.567632 -4.48503,-10.19225 -10.04382,-20.498346 -19.33524,-27.110991 -7.36685,-5.41355 -16.77006,-6.194527 -25.45933,-7.924323 -5.98905,-0.46129 -12.01283,-1.026022 -18.003761,-1.094953 -2.580857,3.159578 -7.324421,8.105445 -8.258024,11.165005 4.930516,2.176883 7.217394,8.36882 11.655597,10.344933 6.125058,-1.699489 12.275978,1.240314 18.067878,2.950705 7.97243,3.593498 14.18143,10.543981 18.14506,18.247574 2.82203,7.29128 2.96675,15.386942 2.51702,23.105742 -1.33304,6.12206 -4.28172,11.76392 -8.03749,16.73581 -3.17029,3.13957 -7.31958,5.09145 -10.68322,7.86779 3.49069,2.27015 4.98572,4.6641 9.01418,6.08021 3.77278,2.07528 7.67918,4.38974 2.68158,8.04644 -2.98466,3.92814 -10.36766,10.91257 -10.09023,13.48315 l 0.97287,-0.13434 z m 37.43421,-81.324742 c -0.17328,-0.524618 -0.35386,0.51115 0,0 z"
       id="path836"
       sodipodi:nodetypes="cscccscsccscscsccsscsccccsssscsssssssscsssssssssssscssscssscssscssssssssscssscsccscscsccssscsssccccssssssssssssssssscccsccssscssccsccccssscccsscsccssssscsccsssssscssscssssssssssssccsssscscsssssssssssscsssssssssssssssscssscssssscsssccssssccscscsscsscssscssssscccscsssssssssssssssssscscsscssssssssssssssssssssssssssssssssssscsssssssssscssssssscsssssssssssssssssssssssssssssssssssssssscsssscsssssssssssssssssssscssssssssssssscssssscssssssssssssssssssssssssscscccsssscssssssssscsssssssssscsssssssssssssssssssssssssssssssssssscsssssssssssccsssssssssssssscssssssscsscssssscsssscsscssssssccssssssssssssssssssssssssssssssssccsssss" />
    <path
       style="opacity:1;fill:#ffa200;fill-opacity:1;stroke-width:5.52204;stroke-dasharray:0, 60.7424"
       d="m 273.79188,173.7595 c -21.33395,1.46442 -43.62354,0.39792 -64.20768,6.64719 -4.52447,4.24459 1.23191,11.92462 -0.57324,17.38714 2.47593,92.17854 5.36135,184.35764 11.84586,276.36124 2.98392,48.82084 -0.5419,97.99781 4.1032,146.6485 55.51267,-1.07945 111.17658,-6.37838 166.55652,-6.72552 18.32432,-7.97463 27.01496,-28.33395 41.13276,-41.50204 7.16937,-6.40086 2.01131,-15.97468 -5.1029,-19.70283 -14.53404,-11.53625 -25.89594,-29.37116 -44.94874,-33.81413 -22.94738,-1.47944 -45.97742,3.22194 -67.82969,9.09045 -5.42442,-91.23005 -5.21506,-182.75597 -6.85608,-274.10895 -14.66025,-12.18895 -33.51513,-20.75372 -44.44516,-36.76471 -2.32493,-7.80389 7.81086,-11.02549 9.67237,-17.72211 6.19667,-8.71287 17.53061,-14.61361 21.82905,-24.10819 -6.49613,-2.67546 -14.31785,-1.26154 -21.17627,-1.68604 z"
       id="path1622"
       transform="scale(0.26458333)" />
    <path
       style="opacity:1;fill:#333333;fill-opacity:1;stroke-width:5.52204;stroke-dasharray:0, 60.7424"
       d="m 373.02228,173.74085 c -17.38121,0.34583 -24.15386,20.5926 -34.5006,31.29337 -12.2574,9.27447 8.1214,16.34261 12.45145,24.46097 8.24166,6.83779 14.72608,17.85177 23.97019,22.31069 44.67314,-2.43997 91.33124,15.11593 118.87355,51.32018 18.80305,20.42276 27.99021,47.54569 29.0324,75.00456 2.23273,23.56167 2.98949,48.186 -8.50891,69.73784 -8.76398,19.6376 -19.28934,39.85432 -38.75683,50.81035 -5.71439,5.69811 -20.49454,10.72663 -20.65235,16.6064 13.97204,13.20756 32.16934,20.29009 47.22639,31.72785 7.97163,9.56346 -5.05112,20.24511 -10.38857,27.5474 -10.87585,13.56484 -25.07958,25.94019 -32.43396,41.61769 13.77421,2.19051 27.85494,-5.27422 40.71497,-9.82531 54.29042,-23.3758 95.82695,-73.68919 107.60761,-131.75501 9.86725,-43.39343 14.23908,-89.37069 4.78289,-133.2038 C 600.70517,306.47458 583.53733,273.0945 562.4784,242.87984 541.45047,213.4715 509.63568,192.55265 474.00959,185.8453 440.93721,178.33621 406.91673,174.40677 373.02228,173.74085 Z"
       id="path1661"
       transform="scale(0.26458333)" />
  </g>
</svg>
