<?xml version="1.0" encoding="UTF-8" standalone="no"?>
<!-- Created with Inkscape (http://www.inkscape.org/) -->

<svg
   width="107.77956mm"
   height="169.08377mm"
   viewBox="0 0 107.77956 169.08377"
   version="1.1"
   id="svg5"
   inkscape:version="1.1.1 (c3084ef, 2021-09-22)"
   sodipodi:docname="fairdata copy 3.svg"
   xmlns:inkscape="http://www.inkscape.org/namespaces/inkscape"
   xmlns:sodipodi="http://sodipodi.sourceforge.net/DTD/sodipodi-0.dtd"
   xmlns="http://www.w3.org/2000/svg"
   xmlns:svg="http://www.w3.org/2000/svg">
  <sodipodi:namedview
     id="namedview7"
     pagecolor="#ffffff"
     bordercolor="#666666"
     borderopacity="1.0"
     inkscape:pageshadow="2"
     inkscape:pageopacity="0.0"
     inkscape:pagecheckerboard="0"
     inkscape:document-units="mm"
     showgrid="false"
     inkscape:zoom="0.49264169"
     inkscape:cx="464.84089"
     inkscape:cy="167.46451"
     inkscape:window-width="2560"
     inkscape:window-height="1387"
     inkscape:window-x="0"
     inkscape:window-y="25"
     inkscape:window-maximized="1"
     inkscape:current-layer="layer1" />
  <defs
     id="defs2" />
  <g
     inkscape:label="Layer 1"
     inkscape:groupmode="layer"
     id="layer1"
     transform="translate(-46.640422,-74.032391)">
    <path
       style="fill:#000000;stroke-width:0.199178"
       d="m 69.5643,242.59732 c -1.640234,-0.77158 -2.866475,-1.99721 -4.474809,-4.47258 -0.567988,-0.87421 -1.094901,-1.58944 -1.170958,-1.58944 -0.07599,0 -0.566906,0.62741 -1.090878,1.39423 -0.523949,0.76685 -1.038018,1.39426 -1.142375,1.39426 -0.104451,0 -0.144914,0.0725 -0.0901,0.16114 0.05481,0.0887 -0.178555,0.42353 -0.518233,0.74424 -0.339819,0.32072 -0.781618,0.9534 -0.981816,1.40597 -0.200198,0.45258 -0.477087,0.912 -0.615297,1.0209 -0.46923,0.36981 -1.359439,0.46433 -2.14788,0.22819 -1.525926,-0.45716 -1.461633,-0.0993 -1.508565,-8.39876 -0.03482,-6.15579 -0.131505,-10.36698 -0.255787,-11.14566 -0.01412,-0.0821 -0.359957,-0.14797 -0.77075,-0.14609 -0.410817,0.002 -1.582245,-0.19666 -2.603184,-0.4409 -1.407572,-0.33674 -2.035525,-0.59754 -2.597914,-1.07893 -0.556931,-0.47673 -0.873648,-0.60963 -1.271644,-0.53352 -0.433613,0.0828 -0.550038,0.0165 -0.640562,-0.36831 -0.210314,-0.89306 -0.458903,-8.64706 -0.372519,-11.62361 0.04776,-1.64323 0.116449,-8.49994 0.152913,-15.23715 0.03646,-6.73721 0.139032,-14.66949 0.227957,-17.62729 0.08892,-2.9578 0.15997,-6.8119 0.157617,-8.56468 -0.0047,-4.48683 -0.27049,-18.97986 -0.362402,-19.81825 -0.04211,-0.38343 -0.130799,-4.05827 -0.197375,-8.16633 -0.06658,-4.10805 -0.167028,-8.54475 -0.223488,-9.85933 -0.05646,-1.31458 -0.142326,-9.02278 -0.191023,-17.12934 -0.0487,-8.10655 -0.14115,-15.904385 -0.205608,-17.328519 -0.129388,-2.863088 0.193375,-11.222371 0.532865,-13.797136 0.339348,-2.573848 1.121884,-3.324484 5.035787,-4.830437 0.865955,-0.333185 1.672628,-0.570999 1.792605,-0.528466 0.119978,0.04258 0.439424,-0.0047 0.709868,-0.104922 0.509763,-0.188905 16.198451,-0.250588 18.131454,-0.07128 3.000685,0.278324 15.311253,0.07787 23.005107,-0.374707 0.876401,-0.05152 2.713822,-0.144443 4.083165,-0.206314 1.369349,-0.06187 3.296399,-0.153854 4.282329,-0.204432 0.98593,-0.05058 3.91164,-0.143973 6.50156,-0.207961 2.58994,-0.06375 5.05477,-0.149149 5.47742,-0.189847 0.42265,-0.04046 2.51624,-0.129623 4.65243,-0.197846 2.13618,-0.06846 4.86991,-0.211489 6.07493,-0.318222 3.28755,-0.290981 11.93529,-0.478264 11.79763,-0.255529 -0.0675,0.109156 0.48249,0.210078 1.31319,0.241437 0.78606,0.02941 1.74292,0.135504 2.12633,0.235509 0.38343,0.09998 1.54863,0.277007 2.58932,0.393362 3.03134,0.338901 4.05649,0.70208 5.21338,1.846878 2.21324,2.190037 3.19896,4.958766 3.13652,8.810163 -0.0647,3.985278 0.39743,12.336844 0.71048,12.843361 0.0527,0.0854 0.14868,2.294728 0.2129,4.909548 0.0642,2.61483 0.18891,5.56094 0.2767,6.54687 0.088,0.98594 0.12022,3.76448 0.072,6.17452 -0.0482,2.41007 -0.1188,12.44866 -0.15644,22.30799 -0.12821,33.52429 -0.3449,53.14069 -0.59547,53.93134 -0.0821,0.25949 -0.22631,4.09903 -0.41291,11.00084 -0.0621,2.30051 -0.16703,4.40682 -0.2329,4.68068 -0.0659,0.27388 -0.14185,2.06648 -0.16891,3.98358 -0.0271,1.91708 -0.14256,3.88894 -0.25694,4.38191 -0.63505,2.73876 -0.66775,2.81785 -1.51423,3.6643 -0.66129,0.66132 -1.17265,0.94721 -2.32126,1.29783 -0.81022,0.24732 -1.6524,0.51816 -1.87148,0.60184 -0.48758,0.18632 -4.37041,-0.44949 -5.41746,-0.88703 -0.65329,-0.27299 -0.99295,-0.28414 -2.47751,-0.0812 -1.30174,0.17785 -1.95616,0.17949 -2.68891,0.007 -0.70804,-0.16702 -1.71836,-0.17361 -3.75697,-0.0252 -1.53367,0.11175 -7.5389,0.24563 -13.34496,0.29729 -5.80605,0.0517 -10.87016,0.14397 -11.25357,0.2049 -0.86743,0.13809 -16.377239,0.31893 -31.221143,0.36393 -6.162047,0.0188 -11.203739,0.0908 -11.203786,0.16044 0,0.3829 -5.557149,1.52631 -6.021885,1.23909 -0.116449,-0.072 -0.14562,0.37085 -0.07575,1.15091 0.163499,1.82545 0.417922,8.45183 0.371719,9.68323 -0.02117,0.57514 0.02541,1.04084 0.104686,1.03486 0.07904,-0.007 0.412747,-0.42978 0.741391,-0.94187 0.328644,-0.51207 0.976829,-1.18427 1.440413,-1.49374 0.818129,-0.54621 0.877647,-0.55585 2.027432,-0.32966 1.395316,0.27451 1.958716,0.75318 3.355208,2.85069 l 0.944882,1.41924 0.124918,-2.88807 c 0.06869,-1.58846 0.144914,-4.10121 0.16938,-5.58392 0.05128,-3.12567 0.415098,-4.84131 1.181661,-5.57397 0.285217,-0.27258 0.426414,-0.30439 0.977605,-0.22019 0.08963,0.0141 0.51428,0.33739 0.943565,0.71932 l 0.780536,0.69441 -0.0527,4.83279 c -0.02894,2.65802 -0.08234,6.17725 -0.118331,7.82047 -0.04399,2.00475 0.02117,3.33406 0.195728,4.04056 0.143738,0.57911 0.20702,1.20653 0.140915,1.39426 -0.182083,0.51701 -0.891927,1.23995 -1.094454,1.11478 -0.09833,-0.0609 -0.287076,-0.0235 -0.419192,0.0838 -0.164205,0.13291 -0.687754,-0.0165 -1.655973,-0.47168 z m 66.24829,-22.39466 c 0,-0.10963 -0.13433,-0.19926 -0.29877,-0.19926 -0.16444,0 -0.29877,0.0896 -0.29877,0.19926 0,0.10963 0.13456,0.19926 0.29877,0.19926 0.16444,0 0.29877,-0.0896 0.29877,-0.19926 z m -82.42251,-1.40383 c 0.472429,-0.12704 0.919192,-0.32759 0.992826,-0.44585 0.09528,-0.15291 0.699751,-0.13997 2.091373,0.0442 1.076622,0.14256 3.018965,0.2966 4.316298,0.34217 1.29731,0.0456 2.664866,0.14703 3.038985,0.22537 1.097512,0.22984 19.449513,-0.15903 21.83095,-0.4625 0.592524,-0.0755 12.178497,-0.12021 13.304075,-0.0515 0.16444,0.009 1.150253,-0.0383 2.190953,-0.10751 1.0407,-0.0692 3.4159,-0.1762 5.27824,-0.23779 1.86231,-0.0616 4.23751,-0.15926 5.27821,-0.2169 1.04072,-0.0576 4.85001,-0.13997 8.4651,-0.18256 3.61509,-0.0426 8.55856,-0.12397 10.98554,-0.1809 3.53986,-0.0828 4.60356,-0.0454 5.37782,0.18937 1.85297,0.56218 3.65273,0.26619 4.03807,-0.66411 0.16679,-0.40272 0.21902,-3.50308 0.1882,-11.20077 -0.0807,-20.22716 0.29286,-48.93066 0.71391,-54.86152 0.0311,-0.4382 0.11339,-2.67896 0.18303,-4.97947 0.0696,-2.30051 0.17385,-5.57202 0.23172,-7.27001 0.0579,-1.69799 0.14374,-9.67508 0.19102,-17.72687 0.0471,-8.05179 0.13174,-15.62555 0.18773,-16.83059 0.47633,-10.239757 0.24468,-16.139571 -0.67206,-17.115364 -0.50671,-0.539358 -0.56592,-0.946859 -0.68547,-4.717235 -0.0943,-2.974973 -0.28859,-3.625322 -1.29738,-4.343658 -0.53981,-0.384375 -0.85053,-0.413829 -4.33515,-0.410935 -2.0645,0.002 -5.94957,0.132681 -8.63351,0.291193 -2.68392,0.158323 -7.83766,0.380023 -11.45275,0.492449 -10.637,0.330785 -12.41384,0.399713 -19.320316,0.74953 -6.38137,0.323234 -8.621422,0.33709 -31.200279,0.19314 -5.070228,-0.03223 -5.746572,0 -6.074934,0.294627 -0.498566,0.446646 -1.330645,0.503789 -2.743957,0.188436 -1.044722,-0.233133 -1.312249,-0.223017 -2.342738,0.08916 -0.639834,0.19361 -1.262846,0.472146 -1.384518,0.618731 -0.121624,0.146561 -0.304131,0.266515 -0.405524,0.266515 -0.25981,0 -1.147244,1.042181 -1.154843,1.356193 -0.0024,0.143503 -0.09198,0.207726 -0.196669,0.143032 -0.104686,-0.06469 -0.32041,0.08681 -0.479275,0.336784 -0.485203,0.763504 -0.733815,10.758481 -0.43486,17.484282 0.05105,1.15025 0.140445,6.52807 0.198552,11.9507 0.05811,5.42264 0.149619,11.42787 0.203726,13.34494 0.05387,1.9171 0.143267,5.05416 0.198786,6.97126 0.05528,1.91708 0.146091,5.36785 0.20161,7.66836 0.05552,2.30051 0.168204,6.69239 0.250306,9.75975 0.149384,5.57453 0.155735,9.17151 0.07904,43.71968 -0.03952,17.74924 0.0047,21.39348 0.289616,24.02122 0.115979,1.06891 0.194787,1.24026 0.654301,1.42239 0.287358,0.11386 0.628895,0.17691 0.758988,0.14021 0.130093,-0.0367 0.62306,-0.17079 1.095489,-0.29773 z m 58.7443,-4.41927 c -4.38353,-0.43726 -7.78252,-2.24257 -9.59714,-5.09735 -0.46467,-0.73097 -1.04226,-1.5531 -1.28355,-1.82698 -0.54689,-0.62068 -2.455307,-3.7703 -3.032093,-5.00417 -0.934955,-2 -0.655736,-5.16788 0.849182,-9.63544 0.66691,-1.97975 2.552511,-6.11528 3.017811,-6.61874 0.12986,-0.14044 0.29933,-0.45504 0.37682,-0.69921 0.0774,-0.24416 0.50913,-0.93441 0.95917,-1.53385 0.45003,-0.59944 0.90785,-1.24015 1.01741,-1.42376 0.4537,-0.76054 2.13188,-2.39682 4.33067,-4.2226 2.37153,-1.96918 3.53127,-3.24017 4.47121,-4.90002 0.28592,-0.50492 0.811,-1.36617 1.16689,-1.9139 0.52195,-0.80338 0.66813,-1.26544 0.75628,-2.39014 0.06,-0.76685 0.17008,-1.68555 0.24421,-2.0416 0.10398,-0.4987 0.0675,-0.64731 -0.15879,-0.64731 -0.47297,0 -1.89635,-1.12866 -2.53468,-2.00984 -0.60956,-0.84149 -1.20488,-2.54531 -1.20488,-3.44843 0,-0.49511 -0.26522,-0.69449 -0.4741,-0.3565 -0.0546,0.0884 -0.40785,0.12468 -0.78501,0.0804 -0.49572,-0.0579 -0.76117,-0.22654 -0.95787,-0.60875 -0.14961,-0.29077 -0.32728,-0.5735 -0.39467,-0.62829 -0.0675,-0.0548 -0.25845,-0.56688 -0.42456,-1.13804 -0.29778,-1.02412 -0.29552,-1.0427 0.16515,-1.34446 0.60873,-0.39886 0.92161,-0.38592 1.49983,0.0621 0.26125,0.20231 0.72149,0.42818 1.02275,0.50176 0.47608,0.11622 0.54773,0.0746 0.54773,-0.31883 0,-0.50739 0.67757,-2.98683 0.9243,-3.38226 0.28336,-0.45417 0.27729,-0.95707 -0.0165,-1.40842 -0.15808,-0.2425 -0.37421,-0.82907 -0.48023,-1.30347 -0.24709,-1.10568 0.17385,-2.43367 0.97254,-3.06849 1.7604,-1.39912 2.76412,-1.83643 3.4734,-1.51327 0.30117,0.13715 0.68479,0.13504 1.19803,-0.007 0.76501,-0.21125 1.15746,-0.10774 2.44249,0.64384 1.37205,0.80253 1.69234,1.68615 1.08194,2.98473 -0.21949,0.46686 -0.53767,0.96394 -0.70719,1.1046 -0.27047,0.22442 -0.18749,0.40079 0.6783,1.44114 0.54256,0.65195 1.03903,1.39482 1.1033,1.65087 0.0936,0.37301 0.2822,0.48416 0.949,0.55933 0.83045,0.0936 2.55321,0.82914 3.96685,1.69366 1.40137,0.85704 0.81682,2.17135 -1.03646,2.33048 -0.9861,0.0847 -1.37774,-0.007 -2.60888,-0.60488 -0.0605,-0.0294 -0.13127,0.56827 -0.15738,1.32815 l -0.0475,1.3816 h 0.62214 c 1.19378,0 3.85921,0.81717 4.88918,1.49892 1.40922,0.93277 3.32634,3.56327 4.27861,5.87069 0.24866,0.60253 0.51454,1.18512 0.59079,1.29466 0.32831,0.47153 1.30239,3.98772 1.68295,6.07495 0.0699,0.38341 0.21173,0.92119 0.31498,1.19507 0.10327,0.27388 0.2692,1.84241 0.36859,3.48563 0.0993,1.64323 0.22843,3.27323 0.28653,3.62224 0.0581,0.34902 0.19597,1.15569 0.30592,1.79261 0.19761,1.1443 0.1755,2.20036 -0.0863,4.10389 -0.0739,0.53748 -0.15739,1.25972 -0.18562,1.60499 -0.14703,1.80162 -0.60318,4.0373 -1.20507,5.90603 -0.37047,1.15025 -0.99936,3.15952 -1.39757,4.46507 -0.39816,1.30554 -0.8413,2.56037 -0.98473,2.78849 -0.1435,0.22819 -0.32749,0.63887 -0.40908,0.91274 -0.20514,0.68886 -0.78599,1.43908 -2.18371,2.82061 -1.86257,1.84102 -4.26699,3.35412 -6.57289,4.13633 -1.09546,0.37162 -2.26065,0.86299 -2.5893,1.09191 -0.44058,0.30689 -0.85916,0.4056 -1.59344,0.37577 -0.54774,-0.0212 -1.48885,0.044 -2.09138,0.14703 -1.52644,0.26138 -3.61979,0.31815 -5.35379,0.14515 z m 4.16628,-3.06173 c 0.66583,-0.1101 0.70034,-0.15385 0.62598,-0.79084 l -0.0788,-0.67423 -1.72144,0.11645 c -1.93477,0.1308 -2.62836,-0.0492 -3.12819,-0.81206 -0.30592,-0.46688 -0.30686,-0.54536 -0.0118,-0.99548 0.37831,-0.57735 1.19171,-0.77193 3.31087,-0.79193 1.35633,-0.0118 1.49383,-0.0508 1.49383,-0.41244 0,-0.33709 -0.17314,-0.41698 -1.12567,-0.51938 -1.23146,-0.13245 -2.1819,-0.62499 -3.01932,-1.56484 -1.40065,-1.57199 0.85495,-2.47617 3.1628,-1.26788 1.06926,0.55983 1.67931,0.53061 1.67931,-0.0804 0,-0.19667 0.18632,-0.70533 0.41397,-1.13015 0.23219,-0.43323 0.33274,-0.82546 0.2289,-0.89333 -0.36636,-0.23965 -0.64296,-1.00617 -0.64296,-1.78179 v -0.79067 l -1.04569,0.40799 c -1.38325,0.53969 -4.67588,0.59443 -5.72639,0.0953 -1.56283,-0.74269 -2.05686,-1.48497 -1.83975,-2.76417 0.0807,-0.47551 0.1468,-1.35753 0.1468,-1.96003 0,-1.18303 0.46394,-1.95589 1.49384,-2.48857 0.52035,-0.26913 2.70267,-0.53063 5.07905,-0.60862 0.76682,-0.0252 1.92102,-0.19784 2.56488,-0.38388 1.22394,-0.35356 2.14809,-0.29375 2.77174,0.17926 0.30973,0.23502 0.36464,0.65731 0.41366,3.18058 0.0311,1.60032 -0.0165,2.90965 -0.10821,2.90965 -0.0906,0 -0.16468,0.11339 -0.16468,0.25193 0,0.13856 -0.17926,0.58636 -0.39834,0.99515 -0.53165,0.99191 -0.51057,1.21441 0.10045,1.06103 0.85078,-0.21361 2.26527,0.95577 2.70036,2.23229 0.1555,0.45624 0.29402,0.60007 0.45427,0.4717 0.29124,-0.23337 1.80505,0.1435 2.71763,0.67648 0.36869,0.21525 0.87584,0.78007 1.12697,1.25497 l 0.45662,0.86348 0.50294,-1.09956 c 0.27663,-0.60476 0.62958,-1.22622 0.7844,-1.38099 0.15479,-0.15479 0.55069,-1.17008 0.87981,-2.25623 0.66594,-2.19766 1.47367,-4.51104 1.62835,-4.66367 0.12045,-0.1188 0.21126,-0.48939 0.31484,-1.28746 0.0421,-0.32469 0.20772,-1.31062 0.36774,-2.19097 0.55559,-3.05567 0.60617,-6.12843 0.14797,-8.98519 -0.22725,-1.4159 -0.45177,-3.42586 -0.49915,-4.46656 -0.0821,-1.80274 -0.27673,-2.67968 -1.56924,-7.07084 -0.50866,-1.72803 -1.3604,-3.56472 -2.25868,-4.87061 -0.37666,-0.54755 -0.68481,-1.0767 -0.68481,-1.17588 0,-0.24292 -1.2393,-1.17446 -1.89327,-1.4231 -0.94347,-0.35871 -2.4714,-0.46104 -2.80089,-0.18749 -0.16726,0.1388 -0.23055,0.30516 -0.14068,0.3696 0.53966,0.38696 0.85654,1.32806 0.95824,2.84594 0.12774,1.90762 -0.10186,2.36436 -1.36398,2.71286 -0.93935,0.25936 -1.41808,0.12185 -1.7528,-0.50363 -0.29415,-0.54964 -0.29968,-0.57742 -0.34887,-1.75113 -0.0188,-0.4382 -0.0993,-0.70695 -0.17973,-0.59723 -0.0805,0.10963 -0.40367,0.33236 -0.7182,0.49473 -0.31451,0.16232 -0.61393,0.43112 -0.66538,0.59721 -0.28136,0.90842 -1.34751,2.76605 -2.45968,4.28557 -0.40092,0.54774 -0.98201,1.47057 -1.29134,2.05075 -0.60259,1.13016 -1.78707,2.44695 -3.35302,3.72754 -2.77818,2.2719 -6.92049,7.12822 -7.38857,8.66214 -0.0835,0.27388 -0.26609,0.6324 -0.40562,0.79672 -0.71062,0.83702 -2.44533,6.11956 -2.9106,8.86345 -0.52995,3.12527 -0.50487,3.41108 0.43911,5.00287 1.24316,2.09634 4.37808,6.68715 4.95244,7.25251 0.93289,0.9182 2.30082,1.66982 3.63572,1.99772 1.45594,0.35762 4.73036,0.49915 6.14238,0.26552 z m 4.12408,-1.07408 c 0.028,0 0.0511,-0.12798 0.0511,-0.28456 0,-0.15644 0.13385,-0.41839 0.29745,-0.58199 0.40695,-0.40696 0.88971,-2.58104 0.77244,-3.47859 -0.14515,-1.11154 -0.90616,-3.82119 -1.07305,-3.82119 -0.3173,0 -0.99736,2.03769 -1.31166,3.93013 -0.22513,1.35542 -0.28616,2.408 -0.19126,3.29517 l 0.13951,1.30357 0.63209,-0.18138 c 0.34763,-0.0997 0.65508,-0.18137 0.68317,-0.18137 z m -8.41001,-13.74738 c 0.0165,-0.2169 -0.0456,-0.39431 -0.13691,-0.39431 -0.0913,0 -0.16585,0.23902 -0.16585,0.53115 0,0.5946 0.25743,0.47824 0.30274,-0.13691 z m 5.739,-0.95679 c -0.0118,-0.23838 -0.032,-0.64703 -0.0442,-0.90809 -0.0212,-0.46288 -0.0605,-0.4732 -1.56575,-0.41441 -0.849,0.0332 -1.585,0.0675 -1.63553,0.0764 -0.0506,0.009 0.26315,0.19832 0.69712,0.42115 0.45542,0.23384 0.97908,0.35838 1.23854,0.29462 0.24725,-0.0607 0.42987,-0.0414 0.40585,0.043 -0.0823,0.28889 0.46592,1.07416 0.6962,0.99739 0.12657,-0.0421 0.21996,-0.27169 0.20773,-0.51004 z m 1.17587,-32.05299 c 1.30552,-1.34391 1.63615,-2.3892 1.62227,-5.12883 -0.0118,-2.1866 -0.0614,-2.50376 -0.5918,-3.72419 -0.74177,-1.70705 -1.13071,-1.91285 -2.50104,-1.32333 -0.61751,0.26564 -1.05335,0.35605 -1.13421,0.23525 -0.15668,-0.23408 -1.99137,-0.1842 -2.2201,0.0605 -0.40211,0.42989 -1.11751,3.03004 -1.08817,3.95519 0.0948,2.99452 0.34527,4.4896 0.86647,5.17369 0.65044,0.85367 2.01028,1.46172 3.31578,1.48268 0.9094,0.0141 1.07439,-0.055 1.7308,-0.73082 z m -2.6575,-0.18161 c -0.42183,-0.11292 -0.86068,-0.95293 -0.707,-1.35344 0.26739,-0.69677 1.53271,-0.72624 2.20754,-0.0513 0.32491,0.32488 0.0781,1.03682 -0.45932,1.32437 -0.40887,0.21878 -0.49817,0.22584 -1.04122,0.0805 z m -0.51708,-3.64457 c -1.3565,-0.82714 -1.71547,-2.80714 -0.75908,-4.18719 0.74603,-1.07653 1.11182,-1.14616 2.17571,-0.41418 0.48744,0.33535 0.98335,0.60974 1.10203,0.60974 0.27595,0 1.06225,0.43747 1.25304,0.69712 0.24604,0.33493 0.16891,1.66618 -0.13927,2.40371 -0.50346,1.20496 -2.36756,1.66207 -3.63252,0.8908 z m 1.33479,-1.80067 c 0,-0.10963 -0.13974,-0.19926 -0.31051,-0.19926 -0.17079,0 -0.25513,0.0896 -0.18749,0.19926 0.0678,0.10962 0.20749,0.19925 0.3105,0.19925 0.10304,0 0.1875,-0.0896 0.1875,-0.19925 z m -54.434005,54.37267 c -0.587631,-0.46222 -0.957492,-1.43472 -1.012964,-2.66331 -0.03223,-0.7129 -0.161146,-0.96375 -0.770703,-1.49895 -1.037147,-0.91063 -1.476829,-1.71831 -1.744308,-3.20422 -0.128212,-0.71208 -0.328151,-1.40955 -0.444388,-1.54994 -0.264939,-0.32006 0.08963,-1.59258 0.766186,-2.74991 0.574269,-0.98234 0.597277,-1.27715 0.09975,-1.27715 -0.20702,0 -0.582785,-0.16727 -0.835161,-0.37158 -0.37426,-0.30305 -0.456079,-0.55693 -0.443705,-1.37683 0.0094,-0.55288 0.149148,-1.25957 0.313047,-1.57041 0.163734,-0.31083 0.51875,-0.98715 0.788699,-1.50292 0.269926,-0.51576 0.592666,-1.06053 0.717184,-1.21057 0.159029,-0.19173 0.168439,-0.47511 0.03129,-0.95312 -0.285546,-0.9956 -0.238496,-2.55592 0.112685,-3.73847 0.16938,-0.57006 0.257669,-1.11756 0.196434,-1.21669 -0.06117,-0.099 -0.408394,-0.27826 -0.771385,-0.39805 -0.81453,-0.26882 -1.419805,-1.27851 -1.886659,-3.14736 -0.251812,-1.00802 -0.415099,-1.33177 -0.652349,-1.29343 -0.473558,0.0765 -0.92592,-0.53322 -1.68432,-2.2704 -1.032653,-2.36544 -0.874024,-3.25816 0.578974,-3.25816 0.529831,0 1.317001,0.81206 1.329257,1.37132 0.0047,0.1769 0.123507,0.53187 0.266115,0.78877 0.254094,0.4581 0.267245,0.44798 0.687095,-0.52798 l 0.428061,-0.99501 -0.519949,-0.93032 c -0.597794,-1.06959 -0.665264,-2.33667 -0.174791,-3.28496 0.410652,-0.79416 1.478876,-1.99883 1.772421,-1.99883 0.128447,0 0.723159,-0.36776 1.3214,-0.81726 0.952292,-0.71553 1.18846,-0.80594 1.897198,-0.72605 0.445258,0.0501 1.163382,0.32166 1.595866,0.60325 0.432484,0.28162 1.151737,0.60761 1.598336,0.72443 0.495954,0.12963 0.904584,0.38746 1.049945,0.66218 0.277854,0.52511 0.365014,2.04739 0.153618,2.68475 -0.131269,0.39578 -0.0527,0.46601 0.745908,0.6671 0.584361,0.14703 1.15576,0.49186 1.654819,0.99833 0.41924,0.42547 0.822741,0.77508 0.89668,0.77694 0.167027,0.005 1.359416,-2.17482 1.359416,-2.4842 0,-0.3672 0.768515,-1.08302 1.308202,-1.21845 0.34323,-0.0861 0.629012,-0.009 0.909736,0.24478 0.340524,0.30817 0.393197,0.53987 0.313518,1.37953 -0.157618,1.6614 -1.710974,4.27263 -2.541689,4.27263 -0.337279,0 -0.362027,0.11974 -0.257435,1.24487 0.173615,1.86824 -0.220429,4.00189 -0.929826,5.03278 -0.773031,1.12358 -2.025268,2.18074 -3.110665,2.62612 -0.649408,0.26647 -0.835726,0.43444 -0.728522,0.65682 0.247953,0.51428 0.123977,1.92874 -0.211019,2.40698 -0.311683,0.445 -0.289805,0.48685 0.787099,1.50518 1.246614,1.17884 1.239557,1.09142 0.260352,3.23083 -0.319023,0.69695 -0.580033,1.29966 -0.580033,1.33933 0,0.0397 0.246471,0.20161 0.547733,0.35972 0.532277,0.27948 0.950951,0.95777 1.854147,3.0041 0.369531,0.83713 0.42018,1.22344 0.326433,2.48972 -0.06093,0.82434 -0.252823,1.9031 -0.426203,2.39722 -0.347111,0.98913 -1.163594,2.06592 -1.392751,1.83676 -0.08022,-0.0802 -0.115978,-0.0118 -0.07951,0.15291 0.03646,0.16444 0.11339,0.34359 0.170791,0.39838 0.0574,0.0548 0.326316,0.53576 0.597535,1.06886 0.271173,0.53312 0.739533,1.15498 1.040794,1.38193 1.223724,0.92182 0.328386,2.03119 -1.60283,1.98598 -1.235368,-0.0289 -1.852335,-0.37793 -2.593326,-1.46698 l -0.461537,-0.67836 0.135974,1.02588 c 0.120448,0.90733 0.08893,1.05112 -0.272255,1.24442 -0.663475,0.35506 -1.918135,0.26271 -2.484641,-0.18302 z m 3.215892,-5.67073 c 0.923898,-0.83466 1.622685,-2.51289 1.622685,-3.89698 0,-1.82505 -1.13934,-3.98086 -2.115299,-4.00248 -0.205843,-0.005 -1.046651,0.26242 -1.868262,0.59328 -0.821611,0.33088 -1.730405,0.65221 -2.019551,0.71412 -0.36205,0.0774 -0.568553,0.28324 -0.663335,0.66091 -0.07575,0.3016 -0.241225,0.67317 -0.367837,0.82573 -0.338196,0.4075 -0.16491,2.69613 0.280136,3.70251 0.46149,1.04329 1.211138,1.60219 1.757083,1.31001 0.422274,-0.22607 1.508635,0.0532 2.002284,0.51466 0.413028,0.38605 0.51141,0.35582 1.372096,-0.42176 z m -3.433452,-3.38176 c -0.176908,-0.27002 -0.321657,-0.62854 -0.321657,-0.79673 0,-0.1682 -0.08963,-0.30577 -0.199257,-0.30577 -0.320316,0 -0.228898,-1.12168 0.114802,-1.40682 0.260516,-0.2162 0.40216,-0.20702 0.832903,0.0543 0.484662,0.29409 0.556249,0.28738 1.081704,-0.10116 0.435871,-0.32222 0.616284,-0.36245 0.800368,-0.17832 0.130799,0.1308 0.387998,0.23765 0.571775,0.23765 0.18373,0 0.444881,0.13339 0.580268,0.29656 0.135269,0.16303 0.325609,0.24746 0.422744,0.18749 0.277431,-0.17149 0.20702,0.18068 -0.133387,0.66675 -0.170556,0.24346 -0.433401,0.44267 -0.584102,0.44267 -0.150795,0 -0.329515,0.17479 -0.397267,0.38816 -0.06775,0.21361 -0.297874,0.44361 -0.511363,0.51137 -0.213372,0.0678 -0.388163,0.20678 -0.388163,0.30897 0,0.1021 -0.348217,0.18585 -0.773808,0.18585 -0.602664,0 -0.844948,-0.10869 -1.095489,-0.49094 z m -0.122565,-7.77497 c 0.136445,-0.16444 0.371437,-0.29877 0.522326,-0.29877 0.150795,0 0.274396,-0.0972 0.274396,-0.21572 0,-0.11881 -0.111979,-0.1635 -0.248966,-0.0998 -0.136915,0.0637 -0.399642,0.16985 -0.583773,0.23539 -0.355698,0.1268 -0.664981,0.67764 -0.38047,0.67764 0.09269,0 0.280113,-0.13456 0.416487,-0.29877 z m 2.98283,-4.29155 c 0.264986,-0.15527 0.261763,-0.17856 -0.02541,-0.18397 -0.369107,-0.007 -0.766398,-0.9546 -0.766398,-1.82836 0,-0.52769 -0.05528,-0.56782 -0.780442,-0.56782 -0.429214,0 -0.92218,-0.0543 -1.095465,-0.12092 -0.269903,-0.10351 -0.315071,0.0915 -0.315071,1.36104 0,0.81507 0.05834,1.54037 0.129858,1.61174 0.172674,0.17268 2.46735,-0.0459 2.853043,-0.27178 z m 1.100336,-6.08265 c 1.216407,-0.81928 1.493838,-1.40343 1.493838,-3.14551 0,-1.24631 -0.293146,-2.21245 -0.974594,-3.21215 -0.522938,-0.7671 -0.580104,-0.79477 -1.582646,-0.76581 -4.165079,0.12021 -5.210719,0.68324 -5.210719,2.80548 0,0.57963 0.08422,1.20949 0.187024,1.39973 0.162558,0.30025 0.444976,1.2617 0.493743,1.68035 0.05858,0.5028 1.831869,1.38899 3.103514,1.55096 1.244167,0.15855 1.914888,0.0741 2.489722,-0.31305 z m -4.033363,-3.20467 c -0.637787,-0.44491 -0.602664,-1.44947 0.07434,-2.1265 0.457985,-0.45796 1.550251,-0.92164 2.17891,-0.92491 0.259622,-0.002 1.282136,1.04242 1.282136,1.30877 0,0.10586 -0.38908,0.61642 -0.864638,1.13437 -0.714643,0.77845 -0.982381,0.93995 -1.543617,0.93131 -0.373436,-0.005 -0.880682,-0.15103 -1.127154,-0.32304 z m 1.344454,-6.1398 c 0,-0.16444 -0.08422,-0.29876 -0.187494,-0.29876 -0.251177,0 -0.431049,0.31102 -0.271903,0.47014 0.224194,0.22443 0.459326,0.13668 0.459326,-0.17149 z m -0.07081,-1.19521 c 0.01647,-0.27378 -0.05152,-0.49781 -0.149384,-0.49781 -0.09786,0 -0.178085,0.0823 -0.178085,0.18279 0,0.10069 -0.05434,0.32467 -0.120918,0.49795 -0.07363,0.19197 -0.01647,0.315 0.149384,0.31493 0.148678,-9e-5 0.283217,-0.22419 0.299003,-0.49795 z m -0.227958,-1.69288 c -0.06775,-0.10963 -0.212666,-0.19926 -0.322269,-0.19926 -0.109626,0 -0.143738,0.0896 -0.07599,0.19926 0.06775,0.10963 0.212666,0.19926 0.322269,0.19926 0.109627,0 0.143738,-0.0896 0.07599,-0.19926 z m 36.843951,9.3933 c -0.724756,-0.23685 -1.25995,-0.73676 -1.404253,-1.31168 -0.0781,-0.31067 -0.29745,-0.60556 -0.487744,-0.65532 -0.463466,-0.12115 -0.883482,-1.04164 -0.603228,-1.32189 0.422321,-0.42232 0.183965,-1.1336 -0.823328,-2.45749 -1.141105,-1.49965 -1.389458,-1.72744 -1.568131,-1.43839 -0.167968,0.27164 -1.45321,0.45643 -2.080222,0.29907 -0.301708,-0.0757 -0.694505,-0.42735 -0.937542,-0.83925 -0.380023,-0.64409 -0.483792,-0.70039 -1.134753,-0.61539 -0.394091,0.0515 -1.747249,0.009 -3.007037,-0.0936 -1.259811,-0.10304 -3.262166,-0.20632 -4.449685,-0.22984 -2.12619,-0.0421 -2.163125,-0.0351 -2.420512,0.46045 -0.650231,1.25149 -2.559685,1.93362 -3.634825,1.29851 -1.232382,-0.72798 -1.751673,-2.97248 -0.971372,-4.1986 0.232192,-0.36471 0.536229,-0.66689 0.675897,-0.67155 0.139739,-0.005 0.33702,-0.22701 0.438624,-0.49426 0.190553,-0.50134 0.713537,-0.86386 1.149856,-0.79709 0.136915,0.0212 0.477346,0.0492 0.756423,0.063 0.512186,0.0252 1.555309,0.94401 1.384823,1.21987 -0.132446,0.21431 1.788089,0.43599 2.546206,0.29397 0.352334,-0.0661 1.581704,-0.009 2.731959,0.12374 4.486996,0.52294 5.407365,0.42768 6.108787,-0.63224 0.665546,-1.00569 1.720148,-1.20704 3.285761,-0.62731 1.199917,0.44429 1.552204,0.92719 1.558626,2.13658 0.0047,0.81625 0.299097,1.39563 1.226194,2.4104 0.290064,0.31749 0.801168,0.89099 1.135764,1.27442 l 0.608362,0.69712 0.35805,-0.49732 c 0.1969,-0.27355 0.62023,-1.12504 0.94062,-1.89221 0.32041,-0.76718 0.6439,-1.43969 0.71885,-1.49445 0.075,-0.0548 0.25948,-0.4581 0.41009,-0.8963 0.27628,-0.80399 0.95055,-1.9356 1.22638,-2.05816 0.0821,-0.0365 0.14939,-0.18585 0.14939,-0.33189 0,-0.14609 0.33612,-0.62431 0.74692,-1.06293 0.70838,-0.75631 0.78804,-0.78931 1.54364,-0.63972 0.43817,0.0868 1.02077,0.24598 1.29465,0.35382 0.55133,0.21713 0.93397,0.14233 1.4166,-0.27673 0.41858,-0.36343 1.53734,-0.68166 1.66579,-0.47381 0.055,0.0889 0.40611,0.21925 0.78016,0.2895 0.37404,0.0701 0.73348,0.26672 0.79874,0.43678 0.16679,0.43484 -0.0631,1.22422 -0.39357,1.35105 -0.15268,0.0586 -0.22843,0.23407 -0.16868,0.39018 0.0647,0.16891 -0.13009,0.45389 -0.48129,0.70401 -0.54009,0.38456 -0.7716,0.41077 -2.72731,0.30872 -2.12647,-0.11104 -2.13992,-0.10869 -2.7089,0.43629 -0.31448,0.30131 -0.57293,0.64311 -0.57432,0.75953 -0.002,0.11645 -0.26103,0.7214 -0.57699,1.34434 -0.31595,0.62294 -0.52913,1.17797 -0.4737,1.23339 0.0555,0.0555 -0.0882,0.36626 -0.31931,0.69074 -0.23101,0.32448 -0.42009,0.72201 -0.42009,0.88337 0,0.16138 -0.13926,0.40907 -0.30963,0.55041 -0.64767,0.53753 -0.72876,0.96528 -0.29771,1.57063 0.58794,0.8257 0.58457,3.02423 -0.005,3.61438 -0.22748,0.22749 -0.54594,0.36306 -0.70749,0.30107 -0.16161,-0.0621 -0.24277,-0.0303 -0.18043,0.0703 0.0623,0.10069 0.0445,0.22372 -0.0395,0.27306 -0.32805,0.19337 -1.36805,0.29357 -1.75009,0.16867 z m 5.64172,-25.8877 c -1.06561,-0.98807 -3.78578,-2.94803 -4.4426,-3.20104 -0.53176,-0.20491 -0.68526,-0.46996 -0.48676,-0.84086 0.24217,-0.45248 0.84065,-0.49226 1.18388,-0.0786 0.13644,0.16444 0.39385,0.29961 0.57212,0.30065 0.65452,0.005 2.39744,1.20241 3.03078,2.08434 0.35605,0.49581 0.69942,0.90145 0.76301,0.90145 0.0635,0 0.36706,0.31517 0.67439,0.70032 0.49682,0.62266 0.52562,0.73346 0.25983,0.99925 -0.26578,0.26578 -0.43815,0.16985 -1.55465,-0.86544 z m -9.640287,-3.12894 c -0.746661,-0.32763 -1.210244,-0.99798 -1.601654,-2.31597 -0.767691,-2.58507 -0.01176,-6.14826 1.450694,-6.84246 0.752329,-0.35699 1.108686,-0.37 2.048063,-0.0746 1.311261,0.41225 2.444624,1.08245 3.457514,2.04453 0.35069,0.33309 0.3825,0.54908 0.27875,1.89424 -0.29954,3.88433 -3.019951,6.44103 -5.633367,5.2943 z M 77.725526,132.60952 c -0.564506,-0.45728 -0.791358,-0.95091 -0.954739,-2.0774 l -0.135739,-0.93658 -0.907054,0.69237 c -0.622942,0.47553 -1.103064,0.68573 -1.532866,0.67107 -0.344171,-0.0118 -0.84149,0.0452 -1.105087,0.1261 -0.350805,0.10797 -0.439354,0.0828 -0.330292,-0.0936 0.08516,-0.13763 -0.0094,-0.38612 -0.217841,-0.57914 -0.201845,-0.18585 -0.4083,-0.47243 -0.458973,-0.63675 -0.323328,-1.0487 0.0701,-6.95299 0.527572,-7.91735 0.377458,-0.79571 0.564953,-0.80592 1.269033,-0.0692 0.543898,0.56914 0.819893,1.69745 0.86812,3.54927 0.01412,0.5315 0.110567,0.66253 0.562177,0.76225 0.299991,0.0661 0.596594,0.20326 0.659077,0.30425 0.22137,0.35829 0.422697,0.1722 0.859674,-0.79458 0.662676,-1.46627 1.799028,-2.00367 3.338222,-1.57867 0.762869,0.21055 1.668394,0.97584 1.668394,1.40986 0,0.12468 0.182789,0.0303 0.406136,-0.20938 0.223487,-0.23974 0.559472,-0.44735 0.746919,-0.46132 0.187494,-0.0141 0.538746,-0.0464 0.780748,-0.072 0.319423,-0.0339 0.591466,0.17785 0.993108,0.77235 l 0.553214,0.81891 0.147502,-1.99177 c 0.212902,-2.8753 0.308507,-3.28176 0.815024,-3.46914 0.59109,-0.21878 1.262023,0.11809 1.506495,0.75626 0.210784,0.55013 0.636822,2.51854 0.598829,2.76651 -0.01176,0.08 -0.01176,0.48481 0.002,0.89946 0.02117,0.69966 0.0534,0.73796 0.438294,0.53199 0.334338,-0.17902 0.463514,-0.15503 0.666887,0.12304 0.138798,0.18961 0.356263,0.28065 0.483392,0.20208 0.333961,-0.20631 1.02435,0.0593 1.02435,0.39423 0,0.15691 -0.134328,0.28534 -0.298768,0.28534 -0.16444,0 -0.298767,0.0896 -0.298767,0.19925 0,0.10963 0.148442,0.19926 0.329632,0.19926 0.603558,0 -0.305849,0.77421 -1.080057,0.91945 l -0.695705,0.13057 0.523879,0.31784 c 0.288134,0.17479 0.523878,0.39103 0.523878,0.48045 0,0.0894 0.223958,0.37 0.49746,0.62358 0.273596,0.25355 0.551097,0.72937 0.616708,1.05743 0.114567,0.57234 0.08563,0.60181 -0.714243,0.72972 -0.648584,0.10374 -1.028113,0.036 -1.710621,-0.30474 -0.702151,-0.35069 -0.96676,-0.39504 -1.32681,-0.22232 -0.247366,0.11857 -0.6009,0.26356 -0.785618,0.32213 -0.394962,0.12516 -1.357158,-0.57034 -1.357158,-0.98116 0,-0.44937 -0.286652,-0.33403 -0.759599,0.30564 -0.550815,0.74502 -1.794605,1.12412 -2.677828,0.81625 -0.33589,-0.11716 -0.628871,-0.19008 -0.651031,-0.16232 -0.02117,0.028 -0.14068,0.24365 -0.263104,0.47944 -0.243955,0.46948 -1.721231,1.26689 -2.333987,1.25985 -0.21196,-0.002 -0.576457,-0.15926 -0.810131,-0.34857 z m 5.304702,-4.53863 c 0,-0.15786 -0.08963,-0.28703 -0.199257,-0.28703 -0.109627,0 -0.199257,0.18467 -0.199257,0.41011 0,0.2256 0.08963,0.35473 0.199257,0.28703 0.109626,-0.0677 0.199257,-0.25226 0.199257,-0.41011 z m -21.411664,3.06084 c -0.328645,-0.11175 -1.10697,-0.18844 -1.729559,-0.17033 -1.368662,0.0395 -1.52675,-0.1602 -1.694248,-2.1416 -0.06211,-0.73402 -0.139503,-1.3652 -0.171968,-1.40258 -0.03246,-0.0374 -0.233838,-0.0118 -0.447304,0.0553 -0.307331,0.0976 -0.392092,0.31573 -0.406771,1.04734 -0.02117,1.0698 -0.219489,1.3497 -0.8198,1.15915 -0.459961,-0.1461 -0.88741,-0.99556 -0.720147,-1.43136 0.0614,-0.16021 -0.04188,-0.26442 -0.262281,-0.26442 -0.296721,0 -0.386092,0.21408 -0.485156,1.16176 -0.06681,0.63896 -0.179025,1.31194 -0.24953,1.49553 -0.172438,0.44956 -1.007811,0.63828 -1.396656,0.31556 -0.266985,-0.2216 -0.289969,-0.60134 -0.160911,-2.66133 0.08281,-1.32159 0.143502,-2.58216 0.134798,-2.80124 -0.0094,-0.21902 0.07128,-0.86892 0.177614,-1.44406 0.17879,-0.96714 0.235344,-1.04569 0.7524,-1.04569 0.802933,0 1.091161,0.46476 1.061943,1.71243 -0.02682,1.14358 0.146796,1.30922 0.840337,0.80206 0.267432,-0.19549 0.548768,-0.22395 0.982828,-0.0995 1.107228,0.31754 1.379577,0.21785 1.973513,-0.72224 0.3122,-0.49419 0.719395,-0.89595 0.908018,-0.89595 0.488168,0 1.027572,0.44251 1.099206,0.90176 0.03646,0.23361 0.190553,0.36986 0.380141,0.33599 0.175496,-0.0313 0.507646,0.13197 0.738403,0.36268 0.338572,0.33857 0.432201,0.71467 0.48518,1.94907 0.03599,0.84126 0.131504,1.95404 0.211725,2.47288 0.101392,0.65461 0.06963,1.03562 -0.103981,1.24487 -0.283123,0.34112 -0.283123,0.34112 -1.097794,0.0642 z m 6.094647,-0.38457 c -0.227251,-0.21172 -0.466712,-0.59803 -0.532065,-0.85843 -0.08634,-0.34443 -0.304178,-0.50818 -0.799144,-0.60104 -0.374142,-0.0701 -0.680297,-0.21313 -0.680297,-0.31777 0,-0.2951 -0.520561,-0.2242 -0.796698,0.10868 -0.512868,0.61796 -1.792605,0.15103 -1.792605,-0.65411 0,-0.22607 0.107274,-0.87574 0.238402,-1.44375 l 0.238379,-1.03282 0.867367,0.1188 c 0.583232,0.08 0.824905,0.0501 0.737744,-0.0908 -0.07128,-0.11527 -0.07175,-0.51759 -0.002,-0.8939 0.115508,-0.6153 0.194552,-0.6842 0.785594,-0.6842 0.667475,0 1.137034,0.36433 1.393057,1.08088 0.248189,0.6946 1.217678,-1.75506 1.511482,-3.8191 0.144208,-1.01308 0.371177,-1.93239 0.5044,-2.04293 0.3461,-0.28727 1.455751,-0.12163 1.852759,0.27644 0.294345,0.29517 0.337137,0.84669 0.337137,4.34683 0,3.03002 -0.06069,4.02906 -0.248966,4.09171 -0.136915,0.0456 -0.248988,0.29954 -0.248988,0.56427 0,0.2951 -0.115508,0.48137 -0.298768,0.48137 -0.16444,0 -0.298767,0.0896 -0.298767,0.19925 0,0.10963 -0.134564,0.19926 -0.298768,0.19926 -0.16444,0 -0.298768,0.096 -0.298768,0.21337 0,0.34121 -0.548579,0.79625 -1.177285,0.97657 -0.454527,0.13033 -0.670487,0.0828 -0.993955,-0.21854 z m 64.016139,0.23765 c -0.21902,-0.0847 -0.60457,-0.22396 -0.85666,-0.30919 -0.42329,-0.14326 -0.81632,-1.07111 -0.66875,-1.57886 0.088,-0.30243 -0.43582,-0.50766 -0.71158,-0.27879 -0.48751,0.40458 -2.9754,0.43582 -4.79955,0.0602 -2.98556,-0.61466 -3.70681,-1.23344 -4.60766,-3.95295 -0.40253,-1.21526 -0.43723,-1.59455 -0.31669,-3.46269 0.0988,-1.53167 0.29783,-2.58284 0.73727,-3.89447 0.7429,-2.21743 1.47274,-3.78207 1.97704,-4.23848 0.21079,-0.19079 0.38316,-0.46093 0.38316,-0.6005 0,-0.14633 0.44295,-0.34413 1.04568,-0.46704 1.3043,-0.266 4.88076,-0.36709 5.46387,-0.15433 0.42534,0.15527 0.43435,0.1228 0.42228,-1.51233 -0.0165,-2.09436 0.27538,-2.80335 1.18608,-2.89134 0.71469,-0.0692 0.73429,-0.0974 0.44277,-0.64216 -0.19926,-0.37247 -0.21643,-0.37224 -0.90235,0.0141 -0.72984,0.40993 -1.59777,0.50382 -2.04362,0.22114 -0.78501,-0.49781 0.1969,-3.3118 1.36657,-3.9167 1.0047,-0.51953 1.72135,-0.37316 3.0499,0.62303 0.6723,0.50414 1.28065,1.01951 1.35189,1.14527 0.0713,0.12586 0.16091,0.67548 0.19925,1.22156 0.0548,0.7795 0.005,0.99372 -0.22913,0.99683 -0.16444,0.002 -0.51139,0.12468 -0.77127,0.27202 -0.28162,0.15973 -0.72414,0.21948 -1.09549,0.14773 l -0.62299,-0.12044 0.66219,0.52477 c 0.36416,0.2886 0.74642,0.74638 0.84939,1.01724 0.10304,0.27085 0.2296,2.83601 0.28136,5.70035 0.0517,2.86429 0.14068,5.70079 0.19761,6.30331 0.0569,0.60253 0.15079,2.43319 0.20867,4.06818 0.0579,1.63497 0.18067,3.30967 0.27326,3.72152 0.13268,0.59048 0.0896,0.878 -0.20302,1.35944 -0.2042,0.33584 -0.5295,0.61181 -0.72283,0.61334 -0.19337,0.002 -0.53075,0.0393 -0.74983,0.0842 -0.21902,0.0447 -0.57761,0.0118 -0.79673,-0.0727 z m -3.14922,-5.42411 c 0.27451,-0.25617 0.68192,-0.82241 0.90543,-1.25836 0.37259,-0.72678 0.40573,-1.14853 0.39943,-5.07905 l -0.007,-4.28644 -0.46862,-0.0685 c -0.25774,-0.0376 -1.12576,-0.0593 -1.92893,-0.0482 -1.45168,0.0212 -2.2245,0.2412 -2.2245,0.63583 0,0.11363 -0.13174,0.3381 -0.29268,0.49906 -0.16091,0.16091 -0.53133,1.02847 -0.82309,1.92776 -0.43272,1.33396 -0.53472,2.0386 -0.55382,3.82606 -0.0247,2.31448 0.17855,3.17752 0.9549,4.05552 0.38816,0.43893 0.52021,0.46337 1.97779,0.36617 1.27466,-0.0849 1.65365,-0.18985 2.06096,-0.56992 z m -13.68135,4.81568 c 0,-0.0743 -0.22396,-0.25498 -0.49795,-0.40154 -0.3737,-0.19997 -0.49793,-0.42736 -0.49793,-0.91122 0,-0.61598 -0.0212,-0.63447 -0.4964,-0.41451 -0.27301,0.12656 -0.49709,0.2934 -0.49796,0.37059 -0.002,0.26936 -1.41089,0.40211 -2.14736,0.20255 -4.97436,-1.34827 -6.24471,-3.01871 -6.2458,-8.21291 0,-1.37064 0.6708,-3.67303 1.48558,-5.09681 1.58519,-2.77003 3.50768,-3.52894 7.0109,-2.76765 0.54644,0.1188 0.63462,0.0645 0.94289,-0.58213 0.28251,-0.5924 0.44497,-0.71311 0.95986,-0.71311 0.74104,0 1.66186,0.50609 1.9639,1.0794 0.12021,0.22795 0.25832,0.9074 0.30714,1.50993 0.13644,1.68441 0.31467,3.7943 0.39868,4.72158 0.14962,1.65245 0.16938,9.9273 0.0247,10.36639 -0.0814,0.24659 -0.34342,0.55479 -0.58246,0.68486 -0.47153,0.25657 -2.12769,0.38471 -2.12769,0.16468 z m -3.43583,-4.5821 c 0.35603,-0.21714 0.64734,-0.50099 0.64734,-0.63092 0,-0.12986 0.13668,-0.38717 0.30359,-0.57168 0.16703,-0.18444 0.6029,-0.93035 0.96869,-1.65741 0.63887,-1.26976 0.66185,-1.39468 0.58279,-3.16583 -0.0452,-1.01414 -0.11575,-2.02317 -0.15668,-2.24226 -0.0409,-0.21902 -0.0812,-0.64485 -0.0896,-0.94611 -0.0118,-0.43498 -0.10986,-0.54773 -0.47513,-0.54773 -0.25292,0 -0.62848,-0.12327 -0.8346,-0.27402 -0.83034,-0.60716 -2.62462,0.42825 -3.36521,1.94197 -0.82074,1.67752 -1.0294,3.08796 -0.74647,5.04505 0.31025,2.14565 0.50889,2.54654 1.50028,3.02781 1.0148,0.49269 0.89424,0.49113 1.66513,0.0212 z m -12.49888,3.57853 c -0.16397,-0.10375 -0.503812,-0.19008 -0.754989,-0.19173 -0.526983,-0.005 -2.483558,-1.38605 -2.933592,-2.07291 -0.337913,-0.51571 -1.300674,-3.32792 -1.197752,-3.49859 0.03576,-0.0595 -0.0567,-0.73556 -0.205609,-1.5024 -0.168204,-0.86664 -0.273572,-2.84161 -0.278112,-5.21905 -0.0094,-4.35591 0.151501,-5.06705 1.088149,-4.83787 0.109626,0.0268 0.50287,0.0856 0.874048,0.1308 0.928909,0.11315 1.401879,0.40065 1.625225,0.98807 0.104216,0.27435 0.190318,1.99429 0.191259,3.82209 0.002,2.88172 0.150089,4.79844 0.490002,6.31093 0.09034,0.40242 1.423428,0.98262 1.600242,0.69651 0.160205,-0.25922 2.076769,0.29625 2.507159,0.72664 0.34838,0.34836 0.38171,0.49304 0.19431,0.84316 -0.15926,0.29757 -0.16232,0.4226 -0.009,0.4226 0.14397,0 0.15362,0.11175 0.0287,0.33474 -0.12774,0.22843 -0.10374,0.41842 0.076,0.59812 0.31434,0.31432 0.26242,1.11097 -0.10092,1.54877 -0.5969,0.71921 -2.591096,1.28108 -3.194018,0.89993 z m -32.515446,-18.1367 c -0.191728,-0.11175 -0.348546,-0.31091 -0.348546,-0.44274 0,-0.13174 -0.273784,-0.49815 -0.608427,-0.81399 -0.350711,-0.331 -0.561637,-0.6962 -0.497954,-0.86215 0.06069,-0.15832 0.110567,-0.40712 0.110567,-0.55286 0,-0.15432 0.33589,-0.32173 0.804461,-0.40089 1.065519,-0.17996 1.313355,-0.6045 1.790701,-3.06695 0.477252,-2.46197 0.486262,-3.19188 0.06799,-5.49641 -0.352593,-1.942272 -0.805191,-2.997228 -1.995509,-4.651177 -1.607252,-2.233323 -1.871885,-2.394235 -3.303429,-2.008777 -0.578903,0.155971 -0.824763,0.143267 -1.02969,-0.05317 -0.147972,-0.141856 -0.459255,-0.389715 -0.691517,-0.550673 -0.280395,-0.194317 -0.382517,-0.41811 -0.303826,-0.665993 0.151501,-0.477252 1.259882,-2.125414 1.438366,-2.138753 0.07434,-0.0047 0.499954,-0.05693 0.945659,-0.114096 0.681778,-0.08728 1.076904,0.03388 2.489722,0.764633 1.729371,0.894397 3.2704,1.9506 4.204272,2.881579 0.529525,0.527854 1.578693,2.494427 2.063002,3.8669 0.351652,0.99659 0.362121,6.711497 0.01412,7.815477 -0.143737,0.45615 -0.275148,1.09827 -0.292039,1.42691 -0.06611,1.28536 -0.751318,2.67141 -2.007342,4.06035 -0.335373,0.37087 -0.609792,0.7453 -0.609792,0.83201 0,0.0868 -0.268891,0.12374 -0.597535,0.0821 -0.328645,-0.0416 -0.597535,0.009 -0.597535,0.1141 0,0.2475 -0.602264,0.2329 -1.045687,-0.0254 z m 28.631913,-0.005 c -1.299004,-0.39905 -1.278819,-0.32935 -1.385364,-4.77953 -0.05364,-2.23501 -0.144679,-4.28769 -0.20255,-4.56157 -0.05787,-0.27388 -0.12186,-2.382093 -0.142091,-4.684909 -0.0287,-3.254897 0.02635,-4.329778 0.247059,-4.82832 0.176673,-0.398984 0.39755,-0.612426 0.58462,-0.564812 1.769904,0.450434 2.215586,0.603581 2.398799,0.82434 0.117389,0.141385 0.23125,0.753012 0.252752,1.358993 l 0.03929,1.101747 0.796698,0.145855 c 0.4382,0.08022 1.020797,0.167262 1.294675,0.193375 0.273855,0.02611 0.558296,0.05481 0.632047,0.06375 0.07387,0.0094 0.400348,0.240214 0.725768,0.514021 0.55759,0.469207 0.58088,0.546604 0.40449,1.344455 -0.2393,1.082385 -0.828715,1.570718 -1.579821,1.308884 -0.299356,-0.104451 -0.888634,-0.161381 -1.309473,-0.1268 l -0.765221,0.06281 0.01647,0.995884 c 0.0094,0.547757 0.07293,1.712957 0.141386,2.589337 0.13715,1.75393 0.177143,3.48292 0.155029,6.7129 l -0.01411,2.13182 -0.746919,0.20749 c -0.844053,0.23431 -0.746542,0.23501 -1.54364,-0.009 z m -38.541023,-0.25313 c -1.000119,-0.37 -1.113204,-0.74322 -0.97737,-3.22612 0.143738,-2.62831 0.04093,-10.517423 -0.185377,-14.227341 -0.120919,-1.980923 -0.102334,-2.757554 0.06987,-2.949565 0.128682,-0.143268 0.85297,-0.412276 1.609464,-0.597536 1.21269,-0.297026 1.452034,-0.303166 2.022774,-0.05199 0.576222,0.253623 0.76548,0.602381 0.675521,1.244897 -0.0094,0.07457 -0.08399,1.329374 -0.163264,2.788489 -0.210078,3.863419 -0.167968,7.415576 0.108686,9.160406 0.542533,3.42075 0.579256,3.5343 1.187472,3.67079 1.683896,0.37796 2.189519,0.5299 2.781267,0.8358 0.670228,0.3465 1.10377,1.24638 0.670134,1.39092 -0.1268,0.0423 -0.233839,0.31589 -0.237814,0.60802 -0.0047,0.29214 -0.219724,0.7911 -0.479511,1.10886 l -0.472382,0.5777 -1.860805,-0.16279 c -2.205022,-0.19291 -2.662396,-0.19761 -3.454247,-0.0353 -0.328645,0.0673 -0.911242,0.007 -1.294652,-0.13551 z m 29.777157,-0.38014 c -0.328644,-0.10657 -0.797733,-0.37597 -1.042463,-0.59857 -0.441353,-0.40143 -0.451775,-0.40164 -1.291218,-0.0245 -1.244567,0.55921 -3.314297,0.48981 -4.737137,-0.1588 -1.656372,-0.7551 -3.298629,-2.20634 -3.707094,-3.27593 -0.614944,-1.61019 -0.423897,-5.16461 0.389127,-7.239371 1.21262,-3.094503 3.449049,-5.097211 5.809548,-5.202391 0.656277,-0.02917 1.535242,0.06258 1.953305,0.204197 0.41804,0.14162 0.931191,0.212666 1.140352,0.158088 0.641879,-0.167733 1.946647,0.272678 2.270187,0.766492 0.740802,1.130541 1.263246,5.352105 1.346995,10.883935 0.03929,2.59077 -0.01176,3.99493 -0.153148,4.13643 -0.375812,0.37868 -1.356123,0.55234 -1.978359,0.35045 z m -2.795359,-4.57451 c 0.324857,-0.35624 0.638563,-0.6327 0.697117,-0.61435 0.05858,0.0188 0.09551,-0.29538 0.0821,-0.69712 -0.01412,-0.40178 0.09975,-1.04477 0.2512,-1.42891 0.275925,-0.6994 0.26675,-1.72099 -0.04423,-4.920395 L 84.367996,96.926494 83.52613,96.800165 c -0.575963,-0.08634 -1.023103,-0.03152 -1.415806,0.17385 -0.725911,0.379694 -1.868638,1.400961 -1.868638,1.670064 0,0.11245 -0.198787,0.456903 -0.441447,0.765574 -0.242802,0.308672 -0.463231,0.701677 -0.489838,0.873367 -0.02658,0.17173 -0.174085,0.91051 -0.327845,1.64183 -0.269337,1.28155 -0.202315,2.63222 0.181143,3.64977 0.20702,0.54914 0.918181,1.24833 1.48217,1.45697 0.716077,0.26489 2.183615,-0.24979 2.875509,-1.00844 z m 30.209058,4.21926 c -0.3194,-0.19432 -0.64061,-0.45006 -0.7138,-0.56846 -0.17409,-0.28152 -0.88471,-0.27284 -1.99584,0.0242 -1.10636,0.2959 -2.86591,-0.007 -4.44597,-0.76661 -1.12656,-0.54124 -2.92126,-2.45947 -3.14861,-3.36532 -0.0675,-0.26931 -0.18796,-0.48965 -0.26729,-0.48965 -0.35788,0 -0.27124,-4.62415 0.11174,-5.966859 0.70063,-2.456034 1.53833,-3.521811 3.60201,-4.582719 1.05044,-0.540016 1.5208,-0.652254 3.13706,-0.748683 1.24895,-0.07457 1.90137,-0.192905 1.90137,-0.345394 0,-0.575563 0.81389,-1.10377 1.70078,-1.10377 0.48869,0 0.88854,0.08963 0.88854,0.199257 0,0.109626 0.13127,0.199256 0.29176,0.199256 0.44575,0 0.77767,0.784018 0.81843,1.933262 0.0212,0.570317 0.0896,1.511435 0.15433,2.091374 0.0647,0.579915 0.16703,2.488499 0.22772,4.241276 0.0934,2.70484 0.26967,5.14937 0.41277,5.72639 0.0212,0.0821 0.055,0.21666 0.0772,0.29877 0.15856,0.59167 -0.0576,2.98132 -0.29107,3.21923 -0.40778,0.41554 -1.78096,0.41806 -2.461,0.005 z m -3.11392,-3.97271 c 0.32865,-0.21902 0.88883,-0.58601 1.24485,-0.81536 l 0.64734,-0.41698 -0.002,-2.91821 c 0,-1.60499 -0.0586,-3.523195 -0.12845,-4.262633 -0.11833,-1.253224 -0.15949,-1.344454 -0.60751,-1.344454 -1.44349,0 -3.53545,0.937683 -4.13569,1.853723 -0.54117,0.825963 -0.8988,2.397524 -0.90101,3.959264 -0.002,1.87374 0.11645,2.20163 1.234,3.39901 1.00455,1.07627 1.65184,1.20965 2.64782,0.54564 z m 18.18154,-4.32529 c -0.43834,-0.10422 -0.66234,-1.25049 -0.39446,-2.018892 0.1889,-0.54211 0.65656,-1.189354 1.48344,-2.053357 0.474,-0.495296 1.85099,-0.478922 2.6889,0.03199 0.35603,0.217136 0.64744,0.463231 0.64758,0.547004 1.1e-4,0.08375 0.22419,0.412746 0.49793,0.731039 0.27373,0.318294 0.49772,0.699234 0.49772,0.846506 0,0.44836 0.0275,0.55858 0.19149,0.76574 0.26673,0.33702 -0.0948,0.96078 -0.60452,1.04298 -1.51334,0.24402 -2.41322,0.26913 -2.64854,0.0739 -0.14374,-0.11927 -0.32185,-0.15668 -0.39555,-0.0831 -0.15668,0.15668 -1.46733,0.23408 -1.96399,0.11622 z m 17.96935,116.59637 c 0.76054,-0.22113 0.96193,-0.39428 1.3297,-1.14223 0.54891,-1.1164 0.63619,-1.83516 0.77207,-6.3589 0.0609,-2.02664 0.18937,-3.9985 0.28578,-4.38191 0.28211,-1.12337 0.38393,-2.60846 0.5119,-7.46745 0.0831,-3.15816 0.19291,-4.62533 0.35337,-4.72745 0.16562,-0.10539 0.15292,-0.14891 -0.044,-0.15103 -0.21925,-0.002 -0.24958,-0.2412 -0.14562,-1.14832 0.25882,-2.26026 0.56615,-27.85526 0.6153,-51.23865 0.0296,-14.07584 0.21172,-32.09492 0.41529,-41.08055 0.10162,-4.491115 0.0788,-5.128855 -0.18444,-5.128855 -0.16538,0 -0.35596,0.08963 -0.42366,0.199257 -0.22561,0.365155 -0.47603,0.205844 -0.82166,-0.52242 -0.29263,-0.616661 -0.33081,-1.203069 -0.26261,-4.033363 0.15362,-6.377301 0.095,-7.761512 -0.39847,-9.386714 -0.85311,-2.809827 -1.31425,-3.356501 -3.11713,-3.695308 -0.75494,-0.141856 -1.40092,-0.229605 -1.43552,-0.195023 -0.0346,0.03458 0.0588,0.363885 0.20749,0.731746 0.32472,0.803426 0.33201,5.460413 0.009,6.036799 -0.16068,0.2871 -0.13174,0.459091 0.1228,0.732499 0.22019,0.236285 0.34897,0.764751 0.3804,1.560766 0.0421,1.068201 0.16138,1.877531 0.52941,3.592364 0.17361,0.808883 0.45735,6.794116 0.36833,7.767958 -0.0452,0.492966 -0.11975,9.142294 -0.16609,19.220734 -0.0861,18.76007 -0.20608,28.27038 -0.40334,31.96814 -0.19267,3.61332 -0.25675,5.87099 -0.37301,13.14577 -0.31545,19.73621 -0.41745,48.02956 -0.18585,51.51502 0.0936,1.40887 0.0475,2.0356 -0.20419,2.77419 -0.45587,1.33787 -0.42611,1.44613 0.42178,1.53482 0.41081,0.043 0.79173,0.0917 0.84652,0.10868 0.0548,0.0165 0.50292,-0.0868 0.99589,-0.23031 z"
       id="path836"
       sodipodi:nodetypes="csssssssssscsssscssscsssscssssssssccccscsssssssscsssscssssscsscscssccsssscscscscsscsscccssssscssssscssssccscsssccssscsssscscsscssssccsssssscccssssssssssssssssscsssssssscssscsssssssssscsssssssssscssssssscccccscssscsssssssscssssssssssssssssscssssssssssssssssscssssssssssssccssssssscssssssssscscssssssscsssssscssssssssssssssssssssscssssssscssssssssssscsscssssssssssscssssssssssssssssssssssssccsccssssssssssssssssssssssssssssssssssssscssssscccssssscsssssscsscsscssccsssssssssssscsssssssssssssssccsscsscsscsssssssssssssssssscsssssscsscccsssscsssssssssssssscscsscscssscscssssssscsssccsssssssscssssssssssscssccsssssccssccsssscsscssssssssssssscccssscsscsscssssssssssssscccssssssssssscsscsssssssscsssssssccccssscscsssssssssssscccssssssssssssssssscsssssssccssscssscssssscssccssssssssssssscsssssssssssscssssssccsscssssccsccscccssssscssssscscssccsssssssscsscsscccsscssssssssccssscssssssssscscccssscsccssscsccsssssssssssssssscssssssssssssssssssssssssscss" />
  </g>
</svg>
