<?xml version="1.0" encoding="UTF-8" standalone="no"?>
<!-- Created with Inkscape (http://www.inkscape.org/) -->

<svg
   width="134.06902mm"
   height="170.15755mm"
   viewBox="0 0 134.06901 170.15755"
   version="1.1"
   id="svg5"
   inkscape:version="1.1.1 (c3084ef, 2021-09-22)"
   sodipodi:docname="logo_gitlab copy 2.svg"
   xmlns:inkscape="http://www.inkscape.org/namespaces/inkscape"
   xmlns:sodipodi="http://sodipodi.sourceforge.net/DTD/sodipodi-0.dtd"
   xmlns="http://www.w3.org/2000/svg"
   xmlns:svg="http://www.w3.org/2000/svg">
  <sodipodi:namedview
     id="namedview7"
     pagecolor="#ffffff"
     bordercolor="#666666"
     borderopacity="1.0"
     inkscape:pageshadow="2"
     inkscape:pageopacity="0.0"
     inkscape:pagecheckerboard="0"
     inkscape:document-units="mm"
     showgrid="false"
     inkscape:zoom="0.51580387"
     inkscape:cx="310.19542"
     inkscape:cy="640.74742"
     inkscape:window-width="1312"
     inkscape:window-height="969"
     inkscape:window-x="0"
     inkscape:window-y="25"
     inkscape:window-maximized="0"
     inkscape:current-layer="layer1" />
  <defs
     id="defs2" />
  <g
     inkscape:label="Layer 1"
     inkscape:groupmode="layer"
     id="layer1"
     transform="translate(337.07963,29.102749)">
    <g
       id="g1928">
      <path
         id="path921-8"
         style="fill:#0081a7;fill-opacity:0.432432;stroke-width:0.251086"
         d="m -207.0311,-23.838312 c -0.64405,-0.01146 -1.40489,0.01243 -2.22932,0.05374 v 5.64255 c 0.0433,0.598879 0.11502,1.528513 0.24081,2.973461 0.15614,1.795269 0.35437,5.044157 0.43977,7.2191978 l 0.15554,3.9542777 -0.83612,0.031007 v 5.2193187 l 0.66146,-5.159e-4 -0.0584,0.8273389 c -0.032,0.4551097 -0.11056,11.3923518 -0.17466,24.3044618 -0.0642,12.912121 -0.20382,33.362791 -0.31058,45.446322 -0.0499,5.645544 -0.0895,12.643424 -0.11782,19.438607 v 37.993576 h -10e-4 l 10e-4,0.52917 -1.30173,-0.12919 c -0.93212,-0.0926 -1.83549,0.0318 -3.1843,0.43873 -1.65035,0.49794 -2.69022,0.59141 -8.41137,0.75499 -3.59056,0.10266 -7.6583,0.3044 -9.03925,0.44855 -1.38099,0.14416 -3.13221,0.32623 -3.89175,0.40463 -0.75952,0.0785 -2.34119,0.24258 -3.51503,0.36432 -1.17384,0.12178 -5.69375,0.18356 -10.04383,0.13746 -8.53798,-0.0905 -15.08979,0.13006 -22.22087,0.74827 -6.48495,0.56219 -9.48161,0.76311 -17.19946,1.15394 -2.69291,0.13637 -5.23498,0.29158 -5.64927,0.34468 -0.41429,0.0531 -1.6573,0.18398 -2.7621,0.29094 -1.10477,0.10697 -2.06514,0.21057 -2.13424,0.23048 -0.1683,0.0482 -3.25911,0.44082 -13.81001,1.75441 -4.05206,0.5045 -11.19686,0.93886 -12.4132,0.75499 -0.56094,-0.0848 -1.58483,-0.27021 -2.27531,-0.41237 -1.5928,-0.32797 -2.42042,-0.0285 -2.95176,1.06866 -0.37408,0.77224 -0.3695,0.8695 0.0744,1.49294 0.46008,0.64613 0.89171,0.79091 4.0075,1.34772 l -10e-4,5.1e-4 c 1.18618,0.21197 12.68168,-0.1261 15.69258,-0.46147 1.65717,-0.18457 6.4592,-0.7355 10.67119,-1.22421 4.21197,-0.48872 9.4097,-0.95772 11.5502,-1.04231 11.50348,-0.45474 19.3066,-0.91638 20.96564,-1.24024 1.28614,-0.25108 10.25029,-0.48831 19.83548,-0.52452 7.90116,-0.0298 11.42745,-0.14166 14.06116,-0.447 5.88663,-0.68248 7.33214,-0.76485 12.78423,-0.72605 4.54971,0.0324 5.48969,-0.029 7.03058,-0.46095 0.97825,-0.27424 2.38691,-0.6137 3.13056,-0.75448 0.93072,-0.1762 1.54826,-0.46758 1.98127,-0.93482 0.37653,-0.40626 0.51403,-0.71702 0.34262,-0.77412 -0.72088,-0.2403 -0.17235,-0.46928 0.87436,-0.36483 0.72757,0.0726 1.2275,0.007 1.34049,-0.1757 0.0992,-0.16044 0.41838,-0.30987 0.709,-0.33177 0.61771,-0.0465 0.88873,-0.84159 0.68885,-2.02106 -0.18219,-1.08014 -0.26862,-33.77475 -0.17312,-66.209431 0.21856,-74.345566 0.21949,-73.872171 -0.18914,-77.908421 -0.19273,-1.903929 -0.4462,-3.520961 -0.56275,-3.593063 -0.11654,-0.07211 -0.21188,-0.389829 -0.21188,-0.705898 0,-0.463661 0.14236,-0.578413 0.73743,-0.595312 1.32289,-0.03762 1.68285,-0.404289 1.71255,-1.736328 0.0139,-0.663811 -0.10767,-1.386692 -0.27078,-1.606622 -0.46545,-0.627949 -1.64094,-0.951079 -3.74861,-0.98857 z" />
      <path
         style="fill:#000000;stroke-width:0.251086"
         d="m -331.58058,135.72787 c -3.11579,-0.55681 -3.54717,-0.70191 -4.00725,-1.34804 -0.44392,-0.62344 -0.44878,-0.72036 -0.0747,-1.4926 0.53134,-1.09716 1.35931,-1.39697 2.95212,-1.06901 0.69048,0.14217 1.71441,0.32789 2.27535,0.41269 1.21634,0.18387 8.36115,-0.25089 12.41321,-0.75539 10.5509,-1.31359 13.64146,-1.70621 13.80976,-1.75439 0.0691,-0.0199 1.02944,-0.12346 2.13421,-0.23043 1.1048,-0.10696 2.34768,-0.23793 2.76197,-0.29101 0.41429,-0.0531 2.95654,-0.20809 5.64944,-0.34446 7.71786,-0.39083 10.71446,-0.59191 17.1994,-1.1541 7.13108,-0.61821 13.68316,-0.83886 22.22114,-0.74835 4.35008,0.0461 8.86963,-0.0157 10.04347,-0.13748 1.17384,-0.12174 2.75568,-0.2855 3.5152,-0.36395 0.75954,-0.0784 2.51087,-0.26056 3.89186,-0.40472 1.38095,-0.14416 5.44855,-0.34609 9.03911,-0.44875 5.72115,-0.16358 6.76103,-0.25688 8.41138,-0.75482 1.34881,-0.40696 2.25242,-0.5315 3.18454,-0.43888 l 1.30141,0.1293 -0.0383,-17.99558 c -0.0208,-9.897564 0.0492,-27.882098 0.15599,-39.965631 0.10676,-12.083531 0.24673,-32.534517 0.31094,-45.446637 0.0641,-12.9121151 0.14264,-23.8489392 0.17467,-24.304047 l 0.0581,-0.82747 -11.38714,0.012456 c -6.26291,0.00682 -11.46348,0.059549 -11.55684,0.1172593 -0.0934,0.057681 -2.03095,0.1731903 -4.30576,0.2566419 -2.27485,0.083481 -4.927,0.2048034 -5.89366,0.2696311 -4.32602,0.2901531 -13.14301,0.6061987 -16.69727,0.5985356 -2.1405,-0.00474 -6.09511,0.1679708 -8.78801,0.3835245 -2.6929,0.2155389 -6.25205,0.4991587 -7.90922,0.6302407 -1.65717,0.1310789 -5.15982,0.3045361 -7.78369,0.385461 -4.96706,0.1532023 -7.81061,0.3953721 -12.05214,1.02646978 -1.38096,0.20548553 -3.35826,0.49296064 -4.39399,0.63885863 -1.03574,0.14590688 -2.47247,0.37605126 -3.19279,0.511457 -0.72028,0.1354087 -1.74741,0.28626809 -2.28243,0.33523889 -0.53508,0.048992 -1.41458,0.202342 -1.95453,0.3407993 -1.20299,0.30851 -4.09375,0.5095175 -10.02078,0.6967914 -5.84793,0.1847857 -6.08093,0.1708178 -7.34851,-0.4401258 -1.63084,-0.78603475 -2.05299,-1.814874 -1.24389,-3.0316692 0.57556,-0.8655481 0.65584,-0.8778494 8.71189,-1.3349294 3.65621,-0.2074428 8.17576,-0.6007211 10.04343,-0.8739525 1.86767,-0.2732196 4.63862,-0.6628087 6.15772,-0.865735 1.51906,-0.2029351 4.26789,-0.5951518 6.10851,-0.8716156 1.84062,-0.2764521 5.1173,-0.5667119 7.2815,-0.6450004 5.30232,-0.1918142 11.77777,-0.592204 14.22948,-0.8798393 3.17481,-0.3724718 10.09023,-0.7523783 15.69291,-0.862108 2.83097,-0.055457 7.12455,-0.2193051 9.54127,-0.3641533 5.07735,-0.3043048 10.01547,-0.5725807 12.17768,-0.6615869 0.82858,-0.034104 2.52341,-0.1452841 3.76629,-0.2470334 1.24288,-0.1017493 6.49686,-0.209756 11.67552,-0.2399753 5.17865,-0.030249 9.90699,-0.073102 10.50743,-0.095225 l 1.09163,-0.040273 -0.15539,-3.95461 c -0.0854,-2.175036 -0.28351,-5.423466 -0.43965,-7.218735 -0.15629,-1.795265 -0.29093,-3.457928 -0.2995,-3.694804 -0.0119,-0.300942 -0.16933,-0.395769 -0.52648,-0.314788 -0.96384,0.218534 -12.56291,1.103498 -17.96161,1.370392 -2.96912,0.146767 -6.24579,0.320008 -7.28152,0.384945 -1.03574,0.06495 -8.493,0.173991 -16.57171,0.242348 -17.67217,0.149554 -24.24936,0.36515 -26.86623,0.880717 -0.62144,0.122419 -1.97336,0.295046 -3.00428,0.383563 -1.03096,0.08852 -2.95177,0.325123 -4.26849,0.525778 -4.31265,0.657186 -6.02136,0.839786 -13.79621,1.474315 -10.79557,0.881061 -11.38608,0.932368 -11.94888,1.038189 -3.26859,0.614595 -14.69084,0.588414 -15.70113,-0.036 -0.24584,-0.152016 -0.28024,-0.08241 -0.1376,0.277757 0.39466,0.994394 0.72648,8.5704134 1.02179,23.3294521 0.0635,3.1762416 0.17616,8.0347629 0.2503,10.7967149 0.0741,2.761949 0.19395,7.450987 0.26631,10.420085 0.22746,9.326935 0.45293,14.725782 0.78695,18.831477 0.0842,1.035732 0.17734,2.222115 0.2064,2.636407 0.0297,0.414293 0.13256,1.826654 0.22924,3.138579 0.22005,2.985062 0.39653,7.593062 0.38221,9.980686 -0.006,1.001206 0.0798,1.820758 0.19068,1.82122 0.11092,5.05e-4 0.2242,2.457974 0.25208,5.461129 0.17348,18.737182 0.36391,34.295365 0.45525,37.222705 0.2233,7.15739 0.5397,13.96519 0.86939,18.70573 0.11536,1.65705 0.12248,3.06941 0.0148,3.13858 -0.10646,0.0692 -0.27283,0.37998 -0.36992,0.6907 -0.11952,0.38273 -0.37331,0.56494 -0.7871,0.56494 -0.33594,0 -0.61082,0.0867 -0.61082,0.19268 0,0.10596 -0.42369,0.15667 -0.94155,0.11266 -0.51788,-0.044 -1.14462,-0.0808 -1.39278,-0.0819 -0.24822,-0.001 -0.54309,-0.24944 -0.65543,-0.55207 -0.11239,-0.30263 -0.2838,-4.1426 -0.38137,-8.53326 -0.0976,-4.39067 -0.2328,-8.23229 -0.30068,-8.53694 -0.0679,-0.30465 -0.17408,-6.14686 -0.23547,-12.982682 -0.32349,-35.901267 -0.3202,-35.711884 -0.73437,-42.056971 -0.0813,-1.242878 -0.20166,-3.163689 -0.26779,-4.268468 -0.0661,-1.104782 -0.17023,-2.460648 -0.23132,-3.013036 -0.0611,-0.552391 -0.17704,-2.586191 -0.25711,-4.519555 -0.0804,-1.933367 -0.19188,-3.967165 -0.24793,-4.519556 -0.056,-0.552388 -0.16666,-3.772571 -0.24555,-7.155962 -0.0789,-3.383387 -0.19573,-7.394493 -0.25949,-8.913568 -0.0638,-1.519071 -0.17675,-6.321098 -0.25088,-10.671169 -0.0741,-4.3500714 -0.18773,-9.2650871 -0.25267,-10.9222572 -0.065,-1.65717002 -0.17379,-4.4253972 -0.24229,-6.151618 -0.0685,-1.7262178 -0.19306,-5.739182 -0.27639,-8.9176958 -0.14739,-5.603794 -0.13642,-5.793224 0.36198,-6.244215 0.40287,-0.364584 0.7196,-0.426665 1.46553,-0.287277 0.5234,0.09781 1.11402,0.308964 1.31248,0.46923 0.29905,0.241459 0.32524,0.205338 0.15273,-0.210794 -0.68488,-1.652967 -0.33209,-2.781041 0.9446,-3.020551 0.45343,-0.08508 2.45678,-0.05967 4.45188,0.05647 3.60707,0.209964 4.29752,0.173902 17.18978,-0.897769 1.79528,-0.149229 4.84598,-0.395334 6.77934,-0.546887 1.93335,-0.151571 6.28342,-0.656664 9.66683,-1.122457 12.04263,-1.657911 14.64107,-1.879915 23.47657,-2.005763 20.84736,-0.296932 25.98898,-0.389918 27.74505,-0.501762 2.23513,-0.142349 5.01318,-0.311764 8.28585,-0.505274 1.31192,-0.07758 4.30612,-0.300411 6.65377,-0.495197 2.34768,-0.19478 5.1724,-0.421327 6.27717,-0.50342 1.10477,-0.08209 3.24491,-0.260764 4.75585,-0.397042 5.28939,-0.477071 7.85231,-0.252964 8.59703,0.751759 0.16311,0.219928 0.2847,0.942976 0.27076,1.606784 -0.0297,1.332044 -0.3898,1.698407 -1.71269,1.73602 -0.59507,0.0169 -0.73754,0.131998 -0.73754,0.595658 0,0.316079 0.0955,0.63369 0.21204,0.705804 0.11655,0.07212 0.36987,1.688872 0.5626,3.5928 0.40863,4.036247 0.40747,3.563218 0.18891,77.908797 -0.0955,32.43468 -0.009,65.128864 0.17319,66.209004 0.19988,1.17947 -0.0712,1.97502 -0.68891,2.02155 -0.29062,0.0219 -0.60936,0.17105 -0.70853,0.33149 -0.11299,0.18289 -0.61323,0.24849 -1.3408,0.17589 -1.04671,-0.10445 -1.59502,0.12414 -0.87414,0.36444 0.17141,0.0571 0.0338,0.36799 -0.34273,0.77425 -0.43301,0.46725 -1.05047,0.75857 -1.98119,0.93477 -0.74365,0.14078 -2.15252,0.48036 -3.13077,0.7546 -1.54089,0.43197 -2.48072,0.49363 -7.03043,0.46121 -5.45209,-0.0388 -6.89772,0.0432 -12.78435,0.72568 -2.63371,0.30534 -6.15967,0.41752 -14.06083,0.44736 -9.58519,0.0362 -18.54969,0.27307 -19.83583,0.52415 -1.65904,0.32386 -9.46224,0.78545 -20.96572,1.24019 -2.1405,0.0846 -7.33799,0.5537 -11.54996,1.04242 -4.21199,0.48871 -9.01402,1.03959 -10.67119,1.22417 -3.0109,0.33537 -14.5067,0.67334 -15.69288,0.46137 z m 7.72091,-10.95294 c -0.5344,-0.18849 -0.69048,-0.40504 -0.69048,-0.95795 0,-1.01898 0.51308,-1.40532 2.31174,-1.74069 9.17689,-1.71112 11.75297,-1.68948 11.95849,0.10044 0.13701,1.19192 -0.69214,1.63068 -3.09691,1.63911 -1.10477,0.004 -2.68661,0.12411 -3.51519,0.26723 -5.14408,0.88844 -6.13219,0.98655 -6.96765,0.69186 z m 23.23736,-17.43952 c -0.61824,-0.13297 -0.94003,-0.84482 -0.70981,-1.57019 0.22686,-0.71508 1.92036,-1.27889 3.84159,-1.27903 1.02393,-8e-5 2.18445,-0.18316 2.94518,-0.46461 1.61073,-0.59593 3.6808,-0.66541 5.27282,-0.17696 1.70536,0.52322 1.72594,0.51863 2.469,-0.55096 0.92888,-1.33703 1.49833,-1.62639 2.81268,-1.42929 0.77105,0.11563 1.14999,0.30899 1.25524,0.64053 0.20107,0.63332 0.39822,0.6039 1.76595,-0.26349 1.46328,-0.92798 3.19067,-1.15773 5.50689,-0.73245 2.38821,0.4385 3.84971,0.41563 4.89618,-0.0766 2.18789,-1.02914 2.89444,-1.21424 4.61297,-1.20852 1.31468,0.004 2.18718,0.16934 3.28709,0.62147 1.68404,0.69226 1.9139,0.6304 3.3442,-0.900044 0.66877,-0.715593 0.83057,-0.772034 1.76203,-0.614665 0.56409,0.09531 1.1481,0.320832 1.29777,0.501178 0.40724,0.490691 0.56732,3.643211 0.18684,3.678291 -1.58722,0.14632 -2.19116,0.24769 -2.99098,0.50193 -1.33887,0.42561 -3.64073,0.14609 -5.16726,-0.62746 -0.71177,-0.36069 -1.50584,-0.65579 -1.76456,-0.65579 -0.25889,0 -1.19466,0.36721 -2.07982,0.81603 -1.58048,0.80138 -1.66346,0.81488 -4.62243,0.75238 -1.65717,-0.035 -3.57799,-0.0867 -4.26846,-0.11474 -1.11343,-0.0453 -1.42796,0.0704 -2.78039,1.02255 -1.60435,1.12957 -2.80094,1.41859 -4.20544,1.01578 -0.57583,-0.16512 -0.87763,-0.10282 -1.36719,0.28227 -0.78719,0.61919 -2.93312,0.66728 -4.27214,0.0958 -1.19068,-0.50823 -3.02027,-0.52208 -3.97172,-0.0301 -0.40703,0.21047 -1.49347,0.44473 -2.41432,0.52057 -0.9209,0.0758 -2.21757,0.18903 -2.88154,0.25151 -0.66396,0.0625 -1.45607,0.0601 -1.76028,-0.005 z m 2.6873,-8.792899 c -0.34523,-0.06862 -0.72088,-0.214056 -0.83479,-0.323157 -0.11388,-0.109104 -0.65806,-0.0839 -1.20927,0.05602 -1.06165,0.269483 -2.4397,0.0059 -3.31491,-0.634093 -0.39104,-0.285942 -0.41067,-0.424569 -0.14324,-1.011627 0.17053,-0.374154 0.48953,-0.694556 0.70905,-0.712008 0.21945,-0.0175 0.64732,-0.0457 0.9507,-0.06278 0.30338,-0.0172 0.69318,-0.172271 0.86625,-0.344903 0.45092,-0.449767 2.80536,-0.38717 3.83089,0.101838 0.81835,0.39025 0.91334,0.388441 1.55127,-0.02966 0.81023,-0.530893 3.11733,-0.600466 4.41012,-0.132977 0.76186,0.275474 0.98876,0.248398 1.92671,-0.230129 0.58476,-0.298318 1.67684,-1.098151 2.42692,-1.777413 0.75006,-0.679265 1.72458,-1.421611 2.16556,-1.649661 1.49914,-0.775234 4.89918,-0.179656 6.79484,1.190262 0.46261,0.334278 1.0519,0.127431 2.21654,-0.777995 0.81815,-0.636077 2.46123,-0.79293 3.67742,-0.351052 0.79679,0.289501 1.26817,0.297983 2.6693,0.04804 1.83249,-0.326897 3.41591,-0.113375 5.10573,0.688485 0.83013,0.393933 0.87096,0.3859 2.1236,-0.417917 1.3279,-0.852114 4.04245,-1.42019 3.63483,-0.76067 -0.11803,0.190806 0.006,0.3541 0.33407,0.439871 0.75281,0.196855 0.53378,1.128495 -0.36767,1.563896 -0.40214,0.194216 -1.45658,0.857728 -2.34323,1.474457 -1.52494,1.06072 -1.683,1.114008 -2.92416,0.98591 -0.81361,-0.08399 -1.68849,-0.384515 -2.30287,-0.791103 -0.9822,-0.649995 -1.00346,-0.652385 -2.45117,-0.275325 -1.31708,0.343059 -2.34741,0.340755 -4.07623,-0.0092 -0.34324,-0.06945 -0.7524,0.07773 -1.05376,0.379088 -0.85142,0.851429 -1.95459,1.272608 -3.33324,1.272608 -1.83658,0 -2.79687,-0.322487 -3.9826,-1.337415 -0.62998,-0.539238 -1.18902,-0.822573 -1.47526,-0.747719 -0.25356,0.06628 -1.12301,0.743351 -1.93232,1.504582 -0.80931,0.761227 -2.03638,1.681325 -2.72689,2.044656 -1.09821,0.577884 -1.50696,0.652433 -3.2641,0.595351 -2.67004,-0.08674 -2.95402,-0.08425 -5.14728,0.04517 -1.03573,0.06112 -2.16562,0.05495 -2.51087,-0.01364 z m 12.22367,-2.389128 c -0.0801,-0.200295 -0.13968,-0.140806 -0.15184,0.15169 -0.0119,0.264679 0.0483,0.412982 0.13197,0.329551 0.0833,-0.08342 0.0922,-0.299999 0.0208,-0.481252 z m -40.25173,-3.129343 c -0.10736,-0.428021 -0.0148,-0.943294 0.25741,-1.443746 0.55747,-1.021689 2.39023,-3.033997 3.08477,-3.386964 0.79579,-0.404412 2.88054,-0.341577 3.98552,0.120106 1.0448,0.43654 1.62273,0.392288 4.25407,-0.325719 1.83736,-0.501366 3.6421,-0.521822 6.13497,-0.06954 2.02351,0.367118 3.55761,0.301042 4.46407,-0.192259 0.83546,-0.454672 3.72009,-2.366596 4.28619,-2.840903 0.17734,-0.148487 0.94593,-0.555508 1.70824,-0.904498 1.08588,-0.497127 1.78149,-0.632975 3.21259,-0.627361 1.76058,0.0068 2.21212,0.121767 5.67919,1.444751 l 1.12989,0.431146 1.92745,-0.93989 c 1.74145,-0.849201 2.08063,-0.929782 3.5152,-0.835148 0.87328,0.05762 1.89166,0.252402 2.26307,0.432908 1.16085,0.564126 1.68241,2.270783 0.86135,2.818571 -0.29211,0.194809 -1.46351,0.03313 -2.45275,-0.338477 -0.55874,-0.209905 -0.95064,-0.101987 -2.4526,0.675276 -1.68771,0.873389 -1.89613,0.919911 -3.72901,0.832381 -1.61797,-0.07725 -2.28451,-0.254655 -4.00094,-1.064726 -1.74323,-0.822734 -2.2176,-0.946737 -3.0888,-0.807426 -1.25219,0.200237 -2.59919,1.029137 -4.76956,2.935072 -1.12656,0.98929 -3.29515,1.835482 -4.99004,1.947116 -0.89119,0.05869 -2.78276,-0.09179 -4.26846,-0.339572 l -2.66811,-0.444983 -2.11197,0.66484 c -2.39068,0.752583 -3.58504,0.819504 -5.5463,0.310752 l -1.36503,-0.354082 -1.58638,1.48397 c -1.38146,1.292297 -1.71429,1.483974 -2.57674,1.483974 -0.86204,0 -1.01204,-0.08627 -1.15744,-0.66556 z m 0.0498,-14.041344 c -0.46587,-0.465882 -0.48814,-0.719004 -0.12337,-1.400804 0.59214,-1.106419 1.62683,-1.256273 9.27811,-1.343755 l 7.20103,-0.08232 1.35439,-0.711823 c 1.74833,-0.918873 4.20787,-0.970794 6.09416,-0.128648 1.42829,0.637667 2.16589,0.67455 3.54607,0.177342 1.31589,-0.474069 3.85114,-0.480167 4.97169,-0.01186 0.48959,0.204537 0.92707,0.289293 0.97224,0.188315 0.0451,-0.100978 0.458,-0.494319 0.91743,-0.874089 0.68828,-0.568948 1.07921,-0.690487 2.22102,-0.690487 0.97333,0 1.59118,0.146293 2.07618,0.491644 l 0.69044,0.491644 1.17666,-1.362912 c 1.18131,-1.368304 2.77271,-2.154962 3.47783,-1.719163 0.16341,0.100919 1.16815,0.190717 2.23303,0.199554 1.5793,0.01305 2.07262,0.116933 2.67618,0.563231 0.40696,0.300929 1.15758,0.625492 1.66805,0.721254 0.64362,0.120759 0.88742,0.280129 0.7954,0.519977 -0.0729,0.190213 -0.0237,0.345862 0.11062,0.345862 0.43896,0 0.25444,0.723108 -0.32174,1.261555 -0.48336,0.451629 -0.80587,0.514161 -2.23306,0.433011 -1.11604,-0.06346 -1.81746,0.01453 -2.11944,0.235171 -0.60824,0.444749 -2.62781,0.418767 -3.28602,-0.04226 -0.49582,-0.347273 -0.57482,-0.315595 -1.17491,0.471182 -0.35385,0.463918 -0.56521,0.921654 -0.46966,1.017193 0.0955,0.09552 -0.10706,0.389441 -0.45023,0.653123 -0.45395,0.348762 -1.03974,0.480938 -2.14952,0.484998 -1.276,0.0047 -1.61518,-0.08986 -2.07375,-0.57799 -0.30154,-0.320962 -0.46248,-0.682782 -0.35762,-0.804045 0.10469,-0.121262 -0.0919,-0.02491 -0.43712,0.213997 -1.88529,1.304944 -4.11215,1.512215 -5.45722,0.507943 -0.63923,-0.477234 -0.67084,-0.477365 -2.05278,-0.0086 -1.81209,0.614754 -4.67827,0.47576 -6.22485,-0.30187 -1.35534,-0.681477 -1.63475,-0.668453 -2.84531,0.13268 -0.78958,0.522516 -1.46728,0.706928 -3.19598,0.869688 -1.96458,0.184964 -10.50319,0.06646 -10.85449,-0.150652 -0.0774,-0.04781 -0.8156,0.07186 -1.64054,0.265895 -1.99928,0.470253 -3.50144,0.457492 -3.99286,-0.03393 z m 23.45862,-11.103084 c -0.34522,-0.04027 -0.88193,-0.200592 -1.19264,-0.356285 -1.0282,-0.515185 -0.54398,-2.387592 0.64564,-2.496618 0.23191,-0.02135 1.80133,-0.06195 3.4878,-0.09045 2.44026,-0.04122 3.20378,-0.141903 3.73978,-0.493106 0.65587,-0.429746 2.92626,-0.651409 3.25945,-0.318228 0.0878,0.08781 0.18802,0.520292 0.22271,0.961055 0.0928,1.181522 -0.96684,2.062693 -2.88121,2.395643 -0.99508,0.173071 -6.58871,0.478788 -7.28153,0.397978 z m -2.73397,-9.57631 c -0.53494,-0.330622 -0.14205,-1.389215 0.65649,-1.768807 0.38309,-0.182087 1.48745,-0.357312 2.45411,-0.389364 1.15596,-0.03831 2.14439,-0.23867 2.8875,-0.585243 0.80137,-0.373753 1.64092,-0.529132 2.88751,-0.534405 1.0166,-0.0042 2.44566,-0.217526 3.38966,-0.505769 2.31681,-0.707423 4.58231,-0.65944 6.70514,0.142022 0.93843,0.354299 1.89634,0.704445 2.12867,0.778102 0.2325,0.07366 1.41873,-0.351259 2.6364,-0.944258 1.89362,-0.92217 2.45014,-1.080171 3.84604,-1.091962 0.89766,-0.0077 2.10094,0.141785 2.67401,0.331953 0.91993,0.305251 1.11023,0.297902 1.62515,-0.06278 0.60219,-0.421784 1.9039,-0.540772 2.36674,-0.21634 0.40335,0.282709 1.28205,1.623552 1.47841,2.255934 0.16014,0.515401 0.0943,0.564944 -0.74994,0.564944 -0.67014,0 -1.16198,0.207769 -1.78327,0.753259 -1.2317,1.081426 -3.2996,0.987591 -4.49097,-0.203795 -0.56105,-0.561065 -1.77911,-1.006372 -1.49492,-0.546522 0.0572,0.09262 -0.71067,0.553557 -1.70649,1.024299 -2.52294,1.192655 -4.45019,1.195434 -7.50498,0.01068 l -2.17923,-0.845085 -1.57307,0.531225 c -1.08585,0.366698 -2.19951,0.531267 -3.59574,0.531353 -1.40124,8.6e-5 -2.42072,0.151423 -3.3182,0.492516 -1.01043,0.384056 -1.92214,0.492392 -4.14372,0.492392 -1.56654,0 -3.00441,-0.09653 -3.1953,-0.214472 z m -0.79772,-9.201825 c -0.55667,-0.670739 -0.15895,-1.696162 0.89529,-2.308227 0.88997,-0.5167 1.24738,-0.570831 3.13859,-0.475345 1.19614,0.06041 2.96197,-0.0398 4.01737,-0.227994 3.07229,-0.547747 5.08349,-0.6028 6.89837,-0.188819 1.65376,0.377229 1.67526,0.375224 2.60968,-0.243148 2.02891,-1.34267 3.31912,-1.76749 5.4316,-1.788433 1.69762,-0.0169 2.15705,0.07224 2.96677,0.575184 0.90634,0.562955 1.00806,0.574879 1.88315,0.220729 1.59388,-0.645042 2.69127,-0.942434 3.47759,-0.942434 1.26266,0 2.18754,1.534244 1.12767,1.870627 -0.25445,0.08078 -1.06349,0.59511 -1.7978,1.142976 -0.73431,0.547859 -1.70942,1.066333 -2.1669,1.152157 -1.04658,0.196352 -3.15956,-0.298003 -3.95787,-0.925984 -0.87348,-0.68707 -1.31049,-0.603052 -3.40004,0.653699 -1.02711,0.617737 -2.25151,1.195205 -2.7209,1.283263 -0.99777,0.187188 -3.42184,-0.057 -4.08406,-0.411392 -0.66479,-0.355791 -1.89551,-0.29696 -3.75639,0.179566 -0.91414,0.234074 -2.84705,0.444731 -4.39402,0.47885 -1.51906,0.03351 -3.4674,0.110468 -4.32958,0.171026 -1.09439,0.07687 -1.64943,0.01157 -1.83852,-0.216281 z m -18.8646,-7.380665 c -1.95438,-0.366837 -2.34355,-1.651169 -0.76643,-2.529146 0.51788,-0.288284 1.50652,-0.852891 2.19703,-1.254671 1.46921,-0.854902 3.06363,-0.969098 4.65277,-0.333237 0.96227,0.385022 1.08362,0.381342 2.06944,-0.06278 1.28547,-0.579114 5.37715,-0.662782 6.62768,-0.135527 0.72582,0.30604 0.90186,0.278528 2.00868,-0.31391 3.69927,-1.980102 3.8566,-2.03184 6.13087,-2.016256 1.8777,0.01275 2.30616,0.102877 3.32111,0.697667 l 1.16526,0.682888 1.32399,-0.680875 c 1.07648,-0.553562 1.74655,-0.69981 3.58382,-0.782132 2.14712,-0.0962 2.3349,-0.06165 3.7663,0.693313 1.4499,0.764724 2.38531,1.565593 2.38531,2.042281 0,0.410206 -1.6155,1.222029 -2.43374,1.222987 -0.44092,5.02e-4 -1.19288,-0.229892 -1.67102,-0.51199 -0.98422,-0.580698 -1.4808,-0.518868 -3.67893,0.458064 -1.20497,0.535553 -1.61479,0.594402 -3.21606,0.461816 -1.32529,-0.109727 -2.14424,-0.333121 -2.94791,-0.804092 -0.91076,-0.533752 -1.29555,-0.62127 -2.11951,-0.482062 -0.5537,0.09353 -1.00669,0.279091 -1.00669,0.412291 0,0.407872 -3.11977,1.728907 -4.45704,1.887284 -0.79582,0.09425 -1.96711,-0.008 -3.17668,-0.276985 -1.86666,-0.415289 -1.9548,-0.412867 -3.41935,0.09395 -1.63698,0.566516 -3.97813,0.681027 -5.20188,0.254448 -0.66942,-0.233362 -0.89617,-0.17494 -1.85782,0.47874 -1.27135,0.864174 -1.99199,1.039529 -3.2792,0.797917 z m -2.64957,-12.936405 c -0.6535,-0.74226 -0.22568,-2.135283 0.65598,-2.135283 0.20196,0 0.91255,-0.349954 1.57906,-0.777677 1.26509,-0.811788 1.70492,-0.845317 4.50141,-0.343128 0.54332,0.09757 1.41239,0.0089 2.19782,-0.224406 1.05697,-0.313889 1.56809,-0.333978 2.74204,-0.107769 2.30904,0.444888 3.1249,0.328738 5.37789,-0.765605 1.15011,-0.558654 2.61814,-1.156268 3.26223,-1.328025 1.07556,-0.286802 1.33164,-0.256405 3.13857,0.372629 3.10835,1.082062 2.93718,1.084503 4.37759,-0.0624 1.97974,-1.576266 3.67947,-1.419473 5.53373,0.510457 1.23926,1.289808 1.22841,1.999206 -0.0347,2.263535 -0.63917,0.133778 -1.11945,0.0602 -1.76144,-0.269809 -0.87238,-0.448465 -0.88754,-0.447261 -1.30287,0.103351 -1.21405,1.609528 -4.32359,1.817199 -6.78061,0.452842 -1.17321,-0.65148 -1.45358,-0.711798 -2.39972,-0.5163 -0.58923,0.121737 -1.34676,0.49681 -1.68341,0.833472 -0.33669,0.33666 -0.79072,0.612109 -1.00899,0.612109 -0.21826,0 -0.66663,0.176749 -0.99631,0.392766 -0.857,0.561528 -3.08875,0.727231 -4.98234,0.369934 -1.10898,-0.209252 -1.77742,-0.227164 -2.09694,-0.05617 -0.76909,0.411609 -2.62854,0.494055 -4.15022,0.184015 -1.31013,-0.266932 -1.51491,-0.244364 -2.51084,0.276867 -1.24756,0.652904 -3.17267,0.765851 -3.65802,0.21462 z m 2.6958,-12.486872 c -0.67443,-0.628319 -0.6408,-0.788671 0.40926,-1.95092 0.99815,-1.104871 1.78119,-1.273539 2.99322,-0.644737 0.64422,0.334237 0.75584,0.313573 1.54107,-0.285378 0.7309,-0.557465 1.01467,-0.625783 2.07695,-0.499974 0.67672,0.08016 1.45044,0.283124 1.71933,0.451074 0.40865,0.255189 0.61977,0.212218 1.28543,-0.261772 1.22906,-0.875183 3.24984,-0.948329 5.41994,-0.196174 2.05426,0.711996 2.13193,0.696151 5.90054,-1.203995 2.0002,-1.008507 2.66908,-1.22079 4.14292,-1.314808 1.49979,-0.09567 2.05738,-0.002 3.8012,0.638328 1.51942,0.557951 2.32449,0.719374 3.1386,0.629303 1.01118,-0.111862 1.12924,-0.06248 1.5427,0.64549 1.24756,2.136175 -2.06618,2.932618 -5.64781,1.357432 -1.11577,-0.490713 -1.64469,-0.591 -2.38475,-0.452163 -0.52304,0.09813 -1.00771,0.266132 -1.0771,0.373359 -0.0694,0.107235 -0.57805,0.423918 -1.13045,0.703757 -0.5524,0.279833 -1.46474,0.748692 -2.02746,1.041894 -1.62644,0.847476 -4.61801,0.979216 -6.8489,0.301606 l -1.78742,-0.542907 -1.31361,0.665667 c -1.15542,0.585484 -1.51452,0.648826 -2.98112,0.525873 -1.16148,-0.09739 -1.86871,-0.03541 -2.33054,0.204211 -0.45246,0.234726 -1.50162,0.333762 -3.30316,0.311766 -2.19299,-0.02669 -2.72451,-0.110913 -3.13884,-0.49692 z"
         id="path921"
         sodipodi:nodetypes="cssssscsssssssssssccscccsssscsssssssssssssssssssssssccccsssssssssscsscscssscsccssssssssccsscsssssscssscsssssssssssscssssccssssssssssssssccssscssssssssssssssssssssssssssssssssssscssssscsscssssssssssccsssssssssssssscccccccccssssssssscsssssssssssscsscssccscscsssssssscssssssssscssssssccssssssssssscssscssscssscsssscssscsssssccssssccssscssssssssssssssssssssssssscscsssssssssssscssssscssssssssssssssssssssssccssssssssssssssssssscssssss" />
    </g>
  </g>
</svg>
