<?xml version="1.0" encoding="UTF-8" standalone="no"?>
<!-- Created with Inkscape (http://www.inkscape.org/) -->

<svg
   width="94.087029mm"
   height="118.06754mm"
   viewBox="0 0 94.087029 118.06754"
   version="1.1"
   id="svg5"
   sodipodi:docname="datalad copy 8.svg"
   inkscape:version="1.1.1 (c3084ef, 2021-09-22)"
   xmlns:inkscape="http://www.inkscape.org/namespaces/inkscape"
   xmlns:sodipodi="http://sodipodi.sourceforge.net/DTD/sodipodi-0.dtd"
   xmlns="http://www.w3.org/2000/svg"
   xmlns:svg="http://www.w3.org/2000/svg">
  <sodipodi:namedview
     id="namedview7"
     pagecolor="#ffffff"
     bordercolor="#666666"
     borderopacity="1.0"
     inkscape:pageshadow="2"
     inkscape:pageopacity="0.0"
     inkscape:pagecheckerboard="0"
     inkscape:document-units="mm"
     showgrid="false"
     inkscape:zoom="0.56200643"
     inkscape:cx="105.87067"
     inkscape:cy="465.29717"
     inkscape:window-width="1606"
     inkscape:window-height="1319"
     inkscape:window-x="0"
     inkscape:window-y="25"
     inkscape:window-maximized="0"
     inkscape:current-layer="layer1" />
  <defs
     id="defs2" />
  <g
     inkscape:label="Layer 1"
     inkscape:groupmode="layer"
     id="layer1"
     transform="translate(-79.841933,-44.192188)">
    <path
       id="path836-4"
       style="fill:#008600;fill-opacity:0.473684;stroke-width:0.24804"
       d="m 95.975317,52.789901 c -0.102475,0.08982 -0.198067,0.192088 -0.304892,0.324012 -0.432499,0.533889 -0.436203,0.604361 -0.05529,1.02526 0.101637,0.112295 0.222314,0.216048 0.360185,0.31161 z m -3.234428,0.884701 c -0.160427,-0.0083 -0.321857,-0.0055 -0.481107,0.0093 -1.308341,0.121959 -1.831446,0.564419 -1.468644,1.2423 0.249899,0.46663 0.342725,5.966296 0.107487,6.350516 -0.153051,0.249862 -0.698477,7.413583 -0.748276,9.828342 -0.0085,0.409271 -0.12703,0.826357 -0.263549,0.926558 -0.15435,0.11363 -0.133739,0.183517 0.05581,0.185518 0.21123,0.0026 0.240546,0.174471 0.09612,0.562239 -0.11426,0.306962 -0.229399,1.443988 -0.255799,2.526977 -0.02637,1.08299 -0.09643,2.04709 -0.15503,2.14199 -0.05859,0.09507 -0.165394,3.673645 -0.237194,7.952486 -0.269031,16.063452 -0.428628,21.305812 -0.750858,24.646572 -0.278662,2.88748 -0.311978,3.34598 -0.497129,6.82131 -0.09799,1.84168 -0.238109,3.96203 -0.311607,4.71236 -0.0739,0.75033 -0.112184,5.71762 -0.08578,11.0381 0.04379,8.84692 -0.18865,14.79692 -0.70745,18.0976 -0.279429,1.77758 0.156958,2.36575 1.755449,2.36575 1.087059,0 1.242616,0.0726 1.588016,0.74051 0.366869,0.70951 0.744614,0.89715 2.110465,1.05005 l -10e-4,-0.002 c 0.341029,0.0384 1.847972,-0.0599 3.348633,-0.21807 11.989354,-1.26336 12.920944,-1.32691 21.343894,-1.45727 4.76791,-0.0738 9.27586,-0.18063 10.018,-0.23773 0.7421,-0.0572 5.37454,-0.12623 10.29394,-0.15555 4.91941,-0.0284 10.22787,-0.13258 11.7967,-0.23098 1.56887,-0.0984 4.91283,-0.25228 7.43107,-0.34158 2.51823,-0.0896 4.62487,-0.20912 4.68137,-0.26561 0.0566,-0.0566 0.28577,0.12221 0.50901,0.39791 0.238,0.29389 0.83003,0.55832 1.43195,0.63923 0.86994,0.11668 1.1979,0.0196 2.15026,-0.63564 1.03811,-0.71424 1.12052,-0.84849 1.07952,-1.76474 -0.0243,-0.54549 -0.15597,-0.99433 -0.29249,-0.99632 -0.13973,-0.002 -0.12698,-0.084 0.0295,-0.18655 0.21615,-0.14185 0.33099,-0.62019 0.58446,-2.91092 h -4.8333 c -0.18082,0.71752 -0.47166,0.65384 -1.56063,0.53898 -1.74488,-0.18404 -2.22636,-0.27609 -2.41122,-0.46096 -0.0794,-0.0794 -0.64151,0.005 -1.24902,0.18809 -0.65248,0.19646 -2.99515,0.39016 -5.7242,0.47337 -2.54088,0.0776 -4.68895,0.18322 -4.77335,0.23511 -0.0844,0.0516 -3.39057,0.16476 -7.34684,0.25117 -29.34439,0.6418 -32.21319,0.74573 -35.34564,1.28312 -0.34107,0.0586 -1.51312,0.16788 -2.6045,0.24286 -1.091387,0.0748 -3.488715,0.28628 -5.327819,0.47027 -1.839129,0.18399 -3.41176,0.29284 -3.49436,0.24186 -0.0826,-0.051 -0.09661,-1.07434 -0.03101,-2.27378 0.1295,-2.36789 0.154516,-7.54647 0.08682,-18.17925 -0.02373,-3.75161 0.0135,-7.7143 0.0832,-8.80565 0.0696,-1.09141 0.242228,-3.88149 0.383439,-6.20067 0.14147,-2.31916 0.302419,-4.94234 0.358119,-5.82909 0.29179,-4.64614 0.402479,-8.49786 0.51263,-17.858892 0.0668,-5.661499 0.16724,-10.907871 0.223242,-11.658203 0.05566,-0.75034 0.174017,-2.591626 0.262517,-4.092255 0.08847,-1.500629 0.204565,-3.175002 0.257863,-3.720703 0.05332,-0.54569 0.166232,-2.387505 0.250632,-4.092773 0.08467,-1.705272 0.200464,-3.435456 0.257865,-3.844727 0.216501,-1.54545 0.411409,-7.777601 0.261999,-8.373134 -0.179769,-0.716187 -1.269122,-1.310034 -2.392101,-1.367874 z m 68.014431,93.720908 c 0.0321,9.5e-4 0.0589,0.0104 0.078,0.0295 0.0764,0.0765 -0.0613,0.2153 -0.30592,0.30851 -0.3536,0.13446 -0.38217,0.10591 -0.13901,-0.13901 0.12616,-0.12711 0.27048,-0.20183 0.3669,-0.19897 z m -80.66534,14.36812 c -0.136519,0 -0.248047,0.11152 -0.248047,0.24805 0,0.13652 0.111528,0.24804 0.248047,0.24804 0.136523,0 0.248047,-0.11152 0.248047,-0.24804 0,-0.13653 -0.111524,-0.24805 -0.248047,-0.24805 z" />
    <path
       style="fill:#000000;stroke-width:0.24804"
       d="m 83.544887,158.30597 c 0,-0.13652 0.111618,-0.24814 0.248138,-0.24814 0.13652,0 0.248138,0.11162 0.248138,0.24814 0,0.13652 -0.111618,0.24814 -0.248138,0.24814 -0.13652,0 -0.248138,-0.11162 -0.248138,-0.24814 z m 12.650058,-7.13861 c -1.365843,-0.15292 -1.743323,-0.3408 -2.110198,-1.05032 -0.345402,-0.66787 -0.501198,-0.74052 -1.588259,-0.74052 -1.598484,0 -2.034967,-0.58821 -1.75554,-2.36581 0.518804,-3.30067 0.751474,-9.25059 0.707676,-18.09752 -0.02637,-5.32047 0.01172,-10.28747 0.08555,-11.03781 0.07353,-0.75033 0.213862,-2.87107 0.311857,-4.71277 0.185151,-3.47531 0.218256,-3.93362 0.496921,-6.8211 0.322227,-3.34078 0.48195,-8.583028 0.750976,-24.646463 0.07178,-4.278842 0.178413,-7.857478 0.237005,-7.952544 0.05859,-0.09492 0.12861,-1.058908 0.154977,-2.141897 0.02637,-1.082989 0.141793,-2.220205 0.256048,-2.52717 0.14443,-0.387763 0.115133,-0.559233 -0.09609,-0.56187 -0.189546,-0.0025 -0.210346,-0.07236 -0.05596,-0.18603 0.13652,-0.100193 0.254876,-0.517106 0.263372,-0.926372 0.0498,-2.414761 0.595473,-9.578332 0.748515,-9.828199 0.235248,-0.384218 0.14238,-5.883888 -0.107516,-6.350517 -0.362803,-0.677882 0.160542,-1.120488 1.468877,-1.242447 1.274,-0.11865 2.667323,0.540337 2.872776,1.358841 0.14941,0.595531 -0.04541,6.827633 -0.261907,8.37309 -0.05742,0.409267 -0.17314,2.139348 -0.257806,3.844616 -0.08437,1.705268 -0.197163,3.546967 -0.250481,4.092666 -0.05332,0.545698 -0.169625,2.219971 -0.258099,3.720605 -0.08847,1.500634 -0.206831,3.342334 -0.262493,4.092666 -0.05596,0.750332 -0.156148,5.996385 -0.222944,11.657887 -0.110153,9.361042 -0.220892,13.212778 -0.512681,17.858908 -0.05566,0.88676 -0.216792,3.50979 -0.358262,5.82895 -0.141208,2.31917 -0.313967,5.10963 -0.383574,6.20102 -0.06973,1.09137 -0.106931,5.05382 -0.0832,8.80542 0.06767,10.63278 0.04306,15.81151 -0.08642,18.1794 -0.06562,1.19944 -0.05156,2.22255 0.03105,2.27358 0.08261,0.051 1.654878,-0.0577 3.494,-0.24169 1.839115,-0.18398 4.236795,-0.39561 5.328195,-0.47041 1.09137,-0.075 2.26336,-0.18398 2.60443,-0.24257 3.13245,-0.53738 6.00133,-0.64155 35.34572,-1.28337 3.95627,-0.0864 7.26227,-0.1998 7.34671,-0.25136 0.0844,-0.0519 2.23242,-0.15732 4.7733,-0.23496 2.72905,-0.0832 5.07183,-0.27685 5.72431,-0.47331 0.60751,-0.1828 1.1695,-0.26747 1.24886,-0.18808 0.18486,0.18486 0.66637,0.27685 2.41125,0.46089 1.57472,0.16611 1.4859,0.26601 1.79858,-2.02588 0.0744,-0.5457 0.19071,-1.38284 0.25809,-1.86031 0.5336,-3.77389 0.62395,-4.94527 0.99487,-12.89811 0.0603,-1.296 0.27363,-3.80741 0.47398,-5.5809 0.58595,-5.18952 0.68952,-8.83295 0.79208,-27.868245 0.0533,-9.910579 0.14121,-18.744732 0.19541,-19.631466 0.0542,-0.886764 0.17636,-3.621409 0.27186,-6.077008 0.0955,-2.4556 0.25166,-5.915763 0.34681,-7.689232 0.20595,-3.832985 0.16142,-9.979747 -0.0779,-10.733096 -0.13886,-0.437713 -0.30148,-0.508434 -0.89531,-0.389697 -0.4151,0.08291 -1.2849,-0.04043 -2.03248,-0.288274 -1.5311,-0.507701 -5.91893,-0.520328 -9.74025,-0.0293 -0.6821,0.08789 -3.17426,0.324484 -5.53811,0.525777 -2.36387,0.201265 -4.40089,0.429686 -4.52674,0.507467 -0.12598,0.07793 -0.23057,-0.0059 -0.23262,-0.183393 -0.003,-0.223822 -0.0603,-0.239056 -0.18603,-0.04834 -0.10751,0.162887 -1.40263,0.335148 -3.1587,0.419901 -1.63707,0.0791 -5.37628,0.258099 -8.30937,0.398076 -12.19217,0.581733 -19.27682,0.973128 -20.39942,1.126962 -0.95567,0.130954 -3.75872,0.308049 -8.37326,0.529029 -3.6295,0.173726 -5.7046,-0.178413 -6.54891,-1.111259 -0.380908,-0.420898 -0.377099,-0.491413 0.05537,-1.025306 0.577104,-0.712715 0.71046,-0.738203 4.50937,-0.862418 1.70527,-0.05566 4.04925,-0.163765 5.20885,-0.240228 1.1596,-0.07646 2.88968,-0.190718 3.84461,-0.254291 0.95497,-0.06357 1.9982,-0.17812 2.31832,-0.254876 0.32009,-0.07675 1.93855,-0.188959 3.59657,-0.249309 1.65801,-0.06035 3.8517,-0.210932 4.87487,-0.334621 1.02317,-0.123629 2.57858,-0.187495 3.45644,-0.1415 0.87789,0.04599 1.68766,0.02637 1.79951,-0.04219 0.17666,-0.109275 2.8323,-0.253411 8.26225,-0.448318 0.81853,-0.0293 1.8789,-0.124802 2.3564,-0.211811 0.47747,-0.08701 1.9285,-0.213276 3.2245,-0.280364 1.29604,-0.06709 2.63545,-0.180171 2.97649,-0.251068 0.91969,-0.191596 10.25205,-1.158748 12.40204,-1.285308 1.02316,-0.06035 3.19972,-0.190717 4.83678,-0.289738 2.74801,-0.166402 3.90843,-0.04775 4.72157,0.483474 0.14121,0.09228 0.99299,0.163472 1.89276,0.158491 2.29758,-0.01172 2.92677,0.355714 3.6793,2.1576 0.6197,1.483848 0.62011,1.490498 0.57983,9.174163 -0.0234,4.229098 -0.10752,8.303161 -0.18955,9.053492 -0.082,0.750303 -0.21298,2.592002 -0.2912,4.092666 -0.0779,1.500635 -0.18105,3.286525 -0.2291,3.968626 -0.0478,0.682131 -0.14853,10.895192 -0.22382,22.695692 -0.0753,11.80053 -0.19042,21.84616 -0.25605,22.32363 -0.0656,0.4775 -0.17548,1.25883 -0.24433,1.73629 -0.0686,0.47747 -0.18456,1.42623 -0.25722,2.10836 -0.0729,0.6821 -0.19423,1.74247 -0.26981,2.35637 -0.0756,0.6139 -0.14385,2.56722 -0.15146,4.34072 -0.0117,2.92386 -0.24082,6.22559 -0.56475,8.18533 -0.0677,0.40926 -0.23671,1.8603 -0.37563,3.2245 -0.46352,4.55112 -0.56656,5.20771 -0.84604,5.3911 -0.15644,0.10254 -0.16933,0.18427 -0.0296,0.18662 0.13652,0.002 0.26806,0.45078 0.29237,0.99627 0.041,0.91624 -0.0413,1.05062 -1.07941,1.76486 -0.95236,0.6552 -1.2801,0.75208 -2.15004,0.6354 -0.60192,-0.0809 -1.19423,-0.34493 -1.43223,-0.63883 -0.22324,-0.27568 -0.45213,-0.45482 -0.50876,-0.39822 -0.0565,0.0565 -2.16331,0.17607 -4.68154,0.26571 -2.51824,0.0893 -5.86221,0.24345 -7.43108,0.3418 -1.56883,0.0984 -6.87743,0.20244 -11.79684,0.23085 -4.9194,0.0293 -9.55156,0.0984 -10.29366,0.15556 -0.74213,0.0571 -5.25036,0.16406 -10.01827,0.23789 -8.42295,0.13037 -9.35454,0.19394 -21.34391,1.45728 -1.500664,0.15819 -3.007509,0.25634 -3.348545,0.21796 z m 68.341665,-7.44798 c -0.0765,-0.0765 -0.27655,-1.4e-4 -0.44477,0.16933 -0.24316,0.24492 -0.21474,0.27334 0.13886,0.13887 0.24463,-0.0932 0.38229,-0.23173 0.30591,-0.30823 z"
       id="path836"
       sodipodi:nodetypes="ssssscssssccssssssccscssscssccscscsssccscssssscscssscssscssssssssssssssssscssscssscscsccssccscssssssssscscsssccsssss" />
  </g>
</svg>
