<?xml version="1.0" encoding="UTF-8" standalone="no"?>
<!-- Created with Inkscape (http://www.inkscape.org/) -->

<svg
   width="72.602577mm"
   height="89.336258mm"
   viewBox="0 0 72.602577 89.336258"
   version="1.1"
   id="svg5"
   inkscape:version="1.1.1 (c3084ef, 2021-09-22)"
   sodipodi:docname="signature copy 4.svg"
   xmlns:inkscape="http://www.inkscape.org/namespaces/inkscape"
   xmlns:sodipodi="http://sodipodi.sourceforge.net/DTD/sodipodi-0.dtd"
   xmlns="http://www.w3.org/2000/svg"
   xmlns:svg="http://www.w3.org/2000/svg">
  <sodipodi:namedview
     id="namedview7"
     pagecolor="#ffffff"
     bordercolor="#666666"
     borderopacity="1.0"
     inkscape:pageshadow="2"
     inkscape:pageopacity="0.0"
     inkscape:pagecheckerboard="0"
     inkscape:document-units="mm"
     showgrid="false"
     inkscape:zoom="1.8392013"
     inkscape:cx="-39.147428"
     inkscape:cy="209.05814"
     inkscape:window-width="2560"
     inkscape:window-height="1387"
     inkscape:window-x="0"
     inkscape:window-y="25"
     inkscape:window-maximized="1"
     inkscape:current-layer="layer1" />
  <defs
     id="defs2" />
  <g
     inkscape:label="Layer 1"
     inkscape:groupmode="layer"
     id="layer1"
     transform="translate(-80.596407,-73.812166)">
    <path
       style="fill:#000000;stroke-width:0.140582"
       d="m 106.1269,162.97262 c -0.58393,-0.30682 -0.91378,-0.73676 -0.91378,-1.19103 0,-0.68041 0.35628,-0.84052 2.19208,-0.9852 0.92067,-0.0726 2.36982,-0.25708 3.22035,-0.41009 1.99154,-0.35822 4.46126,-0.68419 5.97475,-0.78858 0.65721,-0.0453 1.92245,-0.17275 2.81164,-0.28319 0.88919,-0.11042 1.86975,-0.22895 2.17902,-0.26341 0.30929,-0.0344 1.51127,-0.19651 2.67108,-0.36014 1.1598,-0.16355 2.36178,-0.32684 2.67107,-0.3627 1.60048,-0.18559 2.00349,-0.2362 2.38989,-0.30014 0.23196,-0.0384 0.89621,-0.1242 1.47612,-0.19067 0.5799,-0.0664 2.16145,-0.24808 3.51456,-0.4036 1.3531,-0.15558 2.83975,-0.31335 3.30368,-0.35073 0.46392,-0.0374 0.84349,-0.0767 0.84349,-0.0873 0,-0.01 0.22142,-0.0498 0.49205,-0.0873 2.65463,-0.36689 5.98049,-0.32535 6.53708,0.0817 0.32553,0.23805 2.79017,1.00942 3.02718,0.94743 0.14346,-0.0375 0.2917,0.0194 0.3333,0.12786 0.12187,0.31752 0.49052,0.23858 0.40542,-0.0868 -0.0405,-0.15525 0.005,-0.47309 0.10195,-0.70651 0.14745,-0.35601 0.14114,-0.46339 -0.0392,-0.66678 -0.15127,-0.17066 -0.24075,-0.70033 -0.30203,-1.78884 -0.0478,-0.85053 -0.11756,-1.89434 -0.15492,-2.31961 -0.16554,-1.88421 -0.21084,-6.3405 -0.0673,-6.60886 0.0824,-0.15375 0.0938,-0.27968 0.0254,-0.27968 -0.0683,0 -0.13732,-1.62899 -0.15326,-3.61998 -0.0166,-1.99102 -0.053,-4.18936 -0.0822,-4.88525 -0.30847,-7.34162 -0.38162,-15.82275 -0.17337,-20.10328 0.0601,-1.23712 0.16963,-3.76761 0.24322,-5.6233 0.0736,-1.85568 0.16555,-3.81681 0.20438,-4.35805 0.0389,-0.54124 0.1076,-1.55343 0.15276,-2.24932 0.13201,-2.03092 0.67505,-6.928864 0.91817,-8.279918 0.16454,-0.914334 0.0471,-1.137176 -0.4916,-0.933079 -0.42109,0.159533 -3.10773,0.429143 -4.01834,0.403247 -0.42525,-0.01212 -1.34931,0.019 -2.05346,0.06909 -1.16804,0.0831 -1.33774,0.062 -1.93571,-0.240731 -0.36047,-0.182499 -0.68049,-0.291238 -0.71114,-0.24164 -0.0739,0.119534 -0.22195,4.376978 -0.21901,6.297331 0.005,3.27438 -0.0262,15.29605 -0.0533,20.49849 -0.0149,3.01549 0.0149,5.83065 0.0681,6.25592 0.0531,0.42527 0.13665,1.56398 0.18567,2.53048 0.049,0.9665 0.11723,2.04195 0.1516,2.3899 0.0636,0.64309 0.26654,7.36212 0.26121,8.64583 -0.008,2.10075 -0.10211,4.56036 -0.17706,4.66263 -0.20807,0.284 -0.97309,0.58221 -1.45824,0.56841 -0.35166,-0.01 -0.62775,-0.12021 -0.82395,-0.32909 -0.27055,-0.288 -0.28275,-0.382 -0.14694,-1.13191 0.17831,-0.98422 0.0968,-9.36342 -0.12636,-12.97819 -0.0835,-1.35311 -0.2041,-3.31424 -0.26798,-4.35806 -0.0639,-1.04383 -0.0852,-4.36508 -0.0473,-7.38058 0.0379,-3.01549 0.0842,-9.78928 0.10295,-15.05287 0.0188,-5.2636 0.0687,-9.628679 0.11091,-9.70019 0.10677,-0.180751 0.22353,-1.631948 0.38944,-4.839527 0.25698,-4.968241 0.27875,-5.899149 0.14595,-6.248241 -0.14164,-0.372605 -0.1071,-0.371484 -1.54932,-0.05036 -0.42527,0.09469 -1.53236,0.173708 -2.4602,0.175594 -1.44176,0.003 -1.78075,-0.0408 -2.33208,-0.300823 -0.77797,-0.366924 -1.1226,-0.825702 -0.95684,-1.273791 0.0643,-0.173571 0.16625,-0.319827 0.22672,-0.325016 0.0604,-0.0051 0.83748,-0.02721 1.72667,-0.04893 1.4728,-0.03598 3.04925,-0.269098 4.14782,-0.613343 0.30698,-0.0962 0.61721,-0.07053 1.13548,0.09395 0.95242,0.302259 1.30092,0.56723 1.38348,1.051905 0.0756,0.443519 0.1684,0.580228 0.39402,0.580228 0.0819,0 0.2701,0.162389 0.41827,0.360861 0.23251,0.311419 0.26871,0.600357 0.26416,2.108736 -0.005,1.93057 -0.27644,7.020799 -0.38238,7.192208 -0.0369,0.05978 0,0.108675 0.0817,0.108675 0.0819,0 0.14894,-0.08134 0.14894,-0.180747 0,-0.09941 0.11075,-0.187972 0.24601,-0.1968 0.13533,-0.0088 0.46744,-0.05889 0.73806,-0.111248 0.27063,-0.05235 1.68456,-0.117475 3.1421,-0.144689 1.45752,-0.02722 2.88091,-0.08754 3.1631,-0.134063 0.28217,-0.04651 0.70284,-0.113506 0.9348,-0.148873 0.23196,-0.03537 0.73806,-0.130958 1.12466,-0.21243 0.38659,-0.08146 0.93272,-0.152842 1.2136,-0.158603 0.52431,-0.01079 1.5994,0.278599 1.47973,0.398262 -0.0369,0.03678 -0.0149,0.249747 0.0496,0.473275 0.0903,0.314843 0.0535,0.486675 -0.16355,0.762622 -0.15409,0.195913 -0.37476,0.356207 -0.49034,0.356207 -0.14031,0 -0.18278,0.08622 -0.12785,0.259429 0.0453,0.14268 0.0202,0.69623 -0.0556,1.230095 -0.0759,0.533867 -0.17316,1.223715 -0.2161,1.532996 -0.043,0.309282 -0.1066,0.752117 -0.1413,0.984078 -0.0347,0.23196 -0.0986,0.864583 -0.1418,1.405823 -0.0432,0.54125 -0.14081,1.64833 -0.2169,2.4602 -0.1516,1.61818 -0.20723,2.52998 -0.34713,5.69358 -0.0513,1.15981 -0.11656,2.5832 -0.14496,3.16311 -0.0284,0.5799 -0.0865,2.09819 -0.12885,3.37397 -0.0425,1.27579 -0.1129,3.30018 -0.15657,4.49864 -0.10295,2.82418 -0.10096,8.46338 0.003,10.61396 0.24556,5.05016 0.32768,7.88739 0.42518,14.69087 0.0382,2.66755 0.10594,5.38782 0.1506,6.04504 0.0445,0.65723 0.10477,1.73269 0.13383,2.3899 0.0875,1.97798 0.16956,2.36515 0.61569,2.90639 0.29103,0.35308 0.39433,0.60705 0.34885,0.8578 -0.16913,0.93274 -0.97251,1.71852 -1.75697,1.71852 h -0.53048 l 0.23949,0.42442 c 0.19234,0.34089 0.20343,0.4472 0.0563,0.54009 -0.10078,0.0636 -0.16728,0.1731 -0.14794,0.24333 0.0815,0.29511 -0.19513,0.73841 -0.51015,0.81748 -0.18648,0.0468 -0.62936,-0.0133 -0.98421,-0.134 -0.35485,-0.12054 -0.81681,-0.24363 -1.02659,-0.27372 -0.43364,-0.0621 -1.05095,-0.26611 -2.06841,-0.68338 -0.97451,-0.39964 -3.71628,-0.43106 -6.88854,-0.0789 -3.83549,0.42578 -4.81283,0.53542 -6.74795,0.75691 -1.00515,0.11506 -2.58671,0.27763 -3.51455,0.36135 -0.92784,0.0837 -1.84514,0.17795 -2.03845,0.20945 -0.19331,0.0315 -0.60451,0.0941 -0.91378,0.13931 -0.30929,0.0452 -0.91028,0.14064 -1.33554,0.21242 -1.32275,0.22301 -1.83703,0.27843 -3.86601,0.41661 -2.76497,0.18828 -5.28049,0.41149 -5.38998,0.47824 -0.051,0.031 -0.66209,0.0933 -1.35798,0.13814 -0.69588,0.0448 -1.61319,0.14313 -2.03845,0.21837 -1.4952,0.26458 -1.77177,0.29422 -3.44427,0.36899 -1.37044,0.0613 -1.76612,0.0339 -2.10873,-0.14612 z m 33.38832,-54.33739 c 0,-0.0773 -0.0671,-0.14058 -0.14894,-0.14058 -0.0819,0 -0.10976,0.0633 -0.0619,0.14058 0.0478,0.0773 0.11474,0.14059 0.14894,0.14059 0.034,0 0.0619,-0.0633 0.0619,-0.14059 z m -0.8435,-11.027415 c 0,-0.0341 -0.0633,-0.101086 -0.14063,-0.148873 -0.0774,-0.04779 -0.14064,-0.01989 -0.14064,0.062 0,0.08189 0.0633,0.148873 0.14064,0.148873 0.0774,0 0.14063,-0.0279 0.14063,-0.062 z M 103.8799,161.21681 c -0.0465,-0.0752 -0.29811,-0.23815 -0.55913,-0.36202 -0.38968,-0.18492 -0.50246,-0.34278 -0.63041,-0.88241 -0.17592,-0.74196 -0.13898,-9.11753 0.0415,-9.40958 0.27352,-0.44257 1.77446,0.0299 2.19973,0.69236 0.1682,0.26203 0.23113,1.1621 0.31287,4.47517 0.0563,2.28095 0.12636,4.40023 0.15575,4.70952 0.0486,0.51191 0.0166,0.57808 -0.36416,0.73806 -0.49913,0.21002 -1.03921,0.22819 -1.15621,0.0388 z M 92.121494,150.08627 c -0.538126,-0.31206 -0.966614,-1.0216 -0.966614,-1.60069 0,-0.19069 -0.06326,-0.3467 -0.140638,-0.3467 -0.07737,0 -0.140638,-0.0995 -0.140638,-0.22092 0,-0.12154 -0.07904,-0.29997 -0.175722,-0.39662 -0.13383,-0.13383 -0.150932,-0.62583 -0.07173,-2.06354 0.05712,-1.03831 0.09,-2.90003 0.07273,-4.13716 -0.0171,-1.23713 0.01893,-2.32839 0.08003,-2.42504 0.214725,-0.33911 1.587994,-0.1662 2.042418,0.25718 0.374226,0.34864 0.456765,1.11652 0.512938,4.7717 0.02557,1.66071 0.06741,3.19342 0.09332,3.40606 0.0538,0.44456 0.222048,0.47013 1.610211,0.24481 0.47327,-0.0769 3.256801,-0.16943 6.185641,-0.20583 4.64372,-0.0578 8.65905,-0.21806 10.52671,-0.42038 0.947,-0.10262 2.73674,-0.22336 4.28776,-0.28933 0.81186,-0.0345 1.69753,-0.094 1.96815,-0.13217 0.27063,-0.0382 1.21956,-0.10295 2.10873,-0.14412 0.88919,-0.0412 1.90139,-0.10428 2.24933,-0.14031 0.34794,-0.036 1.01219,-0.0991 1.47611,-0.13997 3.05734,-0.26944 6.8735,-0.65288 6.94649,-0.69798 0.0477,-0.0296 0.52865,-0.0956 1.06877,-0.14711 0.54012,-0.0515 1.16468,-0.12254 1.38793,-0.15807 0.22324,-0.0355 0.97373,-0.0931 1.66776,-0.12802 1.49996,-0.0754 1.92708,0.10477 2.35765,0.99419 0.36253,0.74889 0.35123,0.93683 -0.0825,1.37061 -0.37465,0.37466 -0.8408,0.4037 -1.08312,0.0674 -0.0917,-0.12719 -0.1061,-0.10776 -0.0498,0.0671 0.0707,0.21994 -0.0364,0.24602 -1.0098,0.24602 -0.59893,0 -1.97289,0.12204 -3.05325,0.27125 -1.08038,0.14911 -2.43879,0.31051 -3.01869,0.35855 -0.57991,0.048 -1.33905,0.11424 -1.68699,0.14711 -1.0334,0.0978 -4.56216,0.35024 -9.84076,0.70419 -4.1751,0.27996 -5.02313,0.34329 -5.69359,0.42522 -1.85306,0.2264 -4.94014,0.3479 -10.47339,0.41223 -2.512905,0.0292 -5.011757,0.11839 -5.553005,0.1982 -1.672941,0.24666 -3.017401,0.19157 -3.602318,-0.14761 z m -8.265496,-12.80743 c -0.306166,-0.11191 -0.561323,-0.34068 -0.702907,-0.63024 -0.156744,-0.32055 -0.284463,-0.42555 -0.433154,-0.35611 -0.395795,0.18483 -1.35605,0.10244 -1.740288,-0.14928 l -0.383242,-0.2511 0.03487,-4.94744 c 0.0191,-2.72109 0.0792,-6.1178 0.133498,-7.54822 0.0543,-1.43042 0.141136,-4.40373 0.19314,-6.60737 0.05197,-2.20363 0.150268,-4.37313 0.218528,-4.82112 0.06824,-0.448 0.07538,-0.94607 0.0166,-1.10684 -0.05944,-0.16076 -0.06243,-0.64826 -0.0066,-1.08333 0.05579,-0.43507 0.145785,-2.05566 0.199798,-3.60131 0.05413,-1.54566 0.116562,-2.9058 0.138812,-3.02253 0.02225,-0.11672 0.08169,-1.12953 0.132003,-2.25068 0.05031,-1.121141 0.150268,-2.797587 0.222098,-3.725431 0.355197,-4.59063 0.463806,-7.2995 0.543689,-13.561074 l 0.08684,-6.813117 0.524261,-0.123834 c 0.431428,-0.101917 0.610637,-0.07047 1.011978,0.17758 0.268224,0.165777 0.523514,0.414259 0.567283,0.552172 0.09199,0.290041 0.125361,0.298253 1.340757,0.330027 0.864715,0.02262 4.013406,-0.150434 4.525945,-0.248735 0.131007,-0.02512 0.668735,-0.08423 1.194955,-0.131339 0.526205,-0.04711 1.178169,-0.116628 1.448801,-0.154469 0.950741,-0.132983 1.481977,-0.200697 2.108736,-0.268804 0.347942,-0.03781 0.759145,-0.09378 0.91378,-0.124366 0.154585,-0.03059 0.565839,-0.106781 0.91378,-0.169328 0.347941,-0.06253 0.664252,-0.120978 0.702923,-0.129878 0.03869,-0.009 0.702906,-0.07009 1.476115,-0.135955 0.773193,-0.06587 1.500703,-0.142049 1.616693,-0.16929 0.2412,-0.05664 1.49736,-0.230306 3.2334,-0.447029 2.78192,-0.347291 3.59652,-0.457054 3.79573,-0.511451 0.11606,-0.03168 0.62207,-0.09577 1.12465,-0.142448 0.97666,-0.09069 1.79472,-0.173444 2.81164,-0.284395 1.50837,-0.164565 1.82687,-0.193089 3.09282,-0.276952 0.73454,-0.04867 1.99978,-0.146267 2.81165,-0.216886 0.81186,-0.07063 2.01264,-0.166969 2.66841,-0.214093 0.65575,-0.04712 1.23977,-0.115034 1.29782,-0.150899 0.0581,-0.03587 1.73567,-0.09426 3.72808,-0.129779 2.70454,-0.04818 3.81852,-0.01757 4.39577,0.120812 0.87124,0.208871 1.54641,0.596191 1.54641,0.887109 0,0.107081 0.0565,0.194706 0.12536,0.194706 0.0689,0 0.1257,0.300495 0.12603,0.667765 0,0.367272 0.01,1.153766 0.0203,1.747765 0.0116,0.593999 -0.0116,1.22662 -0.0488,1.405823 -0.0375,0.179204 -0.11075,0.990078 -0.16239,1.801941 -0.0516,0.811863 -0.11772,1.792427 -0.14645,2.179028 -0.26324,3.525622 -0.33964,14.308911 -0.13051,18.416294 0.17172,3.37228 0.13616,8.37042 -0.0837,11.73863 -0.18421,2.82377 -0.22373,10.12134 -0.0651,12.00863 0.0686,0.81432 0.0475,1.06604 -0.089,1.06768 -0.12719,0.002 -0.13267,0.0319 -0.0191,0.10544 0.0975,0.0631 0.19671,0.84125 0.25517,2.00114 0.16355,3.24433 0.21459,3.99385 0.29909,4.39321 0.045,0.21263 0.0435,0.56078 -0.003,0.77367 -0.16818,0.76572 -2.07817,1.18324 -2.57296,0.56242 -0.0775,-0.0973 -0.18605,-1.6576 -0.24209,-3.47998 -0.0559,-1.81703 -0.12735,-3.55674 -0.1589,-3.86601 -0.0981,-0.96395 -0.11689,-10.93124 -0.0217,-11.59805 0.16355,-1.14688 0.31744,-5.6439 0.29358,-8.57552 -0.0133,-1.58507 -0.052,-6.26646 -0.0867,-10.4031 -0.0689,-8.195895 0.0691,-12.995209 0.47449,-16.518431 0.241,-2.093943 0.27661,-2.941177 0.133,-3.163104 -0.20654,-0.319116 -4.78131,-0.246345 -9.2838,0.147678 -0.88918,0.07781 -1.77485,0.16981 -1.96814,0.20444 -0.19331,0.03462 -0.88919,0.0984 -1.54642,0.1417 -1.05799,0.06972 -1.83291,0.146665 -4.21748,0.418793 -0.34794,0.0397 -1.01219,0.109389 -1.47611,0.154835 -0.46392,0.04546 -1.06491,0.132435 -1.33553,0.193288 -0.27061,0.06085 -0.77216,0.121626 -1.11454,0.135042 -0.34238,0.01345 -0.65869,0.04671 -0.70291,0.07397 -0.0442,0.02726 -0.71303,0.120995 -1.48624,0.208298 -1.43688,0.162223 -1.91108,0.22589 -5.34213,0.717151 -2.061212,0.295128 -5.926325,0.803618 -6.88854,0.906245 -3.003836,0.320388 -6.030801,0.51392 -7.402675,0.473298 l -1.664888,-0.0493 -0.0166,2.741358 c -0.0083,1.507746 -0.0083,2.789561 0,2.848476 0.01,0.05891 -0.04765,1.260894 -0.126856,2.671065 -0.0792,1.410172 -0.176104,3.259829 -0.215224,4.110353 -0.03919,0.850523 -0.134494,2.495337 -0.21177,3.655141 -0.07738,1.159805 -0.169761,2.551571 -0.205344,3.092813 -0.03553,0.541243 -0.0968,1.458551 -0.135989,2.038451 -0.03919,0.5799 -0.102448,1.65536 -0.140471,2.3899 -0.03802,0.73454 -0.106267,1.93825 -0.151597,2.6749 -0.04533,0.73666 -0.110584,2.12842 -0.144789,3.09282 -0.03437,0.96439 -0.08933,2.41769 -0.122207,3.22955 -0.08269,2.04384 -0.202721,8.0913 -0.301549,15.19914 -0.06144,4.42414 -0.03885,6.20735 0.08684,6.81824 0.203385,0.98924 0.254908,1.0909 0.467691,0.92304 0.08983,-0.0707 0.669316,-0.14014 1.287873,-0.15425 0.618557,-0.0133 2.136847,-0.11374 3.373977,-0.22163 1.237131,-0.10793 2.850313,-0.2324 3.584851,-0.2767 0.734537,-0.0443 1.74673,-0.1134 2.249323,-0.15358 0.502577,-0.0402 1.393294,-0.10046 1.979356,-0.134 1.284552,-0.0736 2.656924,-0.23425 5.822948,-0.68212 1.31446,-0.18595 2.4848,-0.34113 2.60078,-0.34487 0.49068,-0.0166 5.58659,-0.78755 9.62989,-1.45845 7.43798,-1.23414 9.0053,-1.42713 10.82486,-1.333 0.77319,0.04 1.59118,0.14346 1.81774,0.23002 0.56621,0.21624 1.01183,0.696 1.11405,1.19939 0.10195,0.50221 -0.0915,0.78764 -0.7024,1.03652 -0.37157,0.15143 -0.54754,0.14396 -1.10878,-0.0465 -1.21036,-0.41092 -2.29159,-0.3444 -6.8142,0.41921 -4.29254,0.72476 -4.6833,0.7849 -5.42983,0.83577 -0.37703,0.0257 -1.24731,0.14795 -1.93395,0.27155 -0.68665,0.1237 -1.57232,0.25678 -1.96816,0.2958 -0.39583,0.039 -1.44723,0.16439 -2.33641,0.27852 -0.88918,0.11424 -1.95416,0.23997 -2.36659,0.27955 -0.41245,0.0395 -0.79592,0.10046 -0.85219,0.13516 -0.12636,0.078 -2.62525,0.45633 -3.10743,0.47033 -0.45265,0.0133 -1.10098,0.10162 -1.546399,0.21112 -0.596407,0.14662 -3.547608,0.3768 -7.591449,0.59224 -0.889172,0.0473 -2.154414,0.14164 -2.811642,0.2096 -2.341693,0.24197 -4.962204,0.29333 -5.471306,0.10726 z M 123.27795,75.598373 c 0.0478,-0.07733 0.0199,-0.140588 -0.0619,-0.140588 -0.0819,0 -0.14894,0.06326 -0.14894,0.140588 0,0.07733 0.0279,0.140588 0.0619,0.140588 0.034,0 0.10112,-0.06326 0.14894,-0.140588 z"
       id="path836"
       sodipodi:nodetypes="csssssccsssssscsssscssssscccsscssssssscssscsssssssscscssssssssssscssssssssssscsscsssscsscscscsssscsscsccsssssscssscsccsssssssssscsssssscccssssscccsscssssssssssssssscsssssssssscsssccssscscsscccssssssssssssssssssssssssscccscsccsssscscccccsssssssssssssscccsccssssccccscsssssssssssssssssssssssccsssss" />
  </g>
</svg>
