<?xml version="1.0" encoding="UTF-8" standalone="no"?>
<!-- Created with Inkscape (http://www.inkscape.org/) -->

<svg
   width="137.11473mm"
   height="50.067776mm"
   viewBox="0 0 137.11473 50.067776"
   version="1.1"
   id="svg5"
   inkscape:version="1.1.1 (c3084ef, 2021-09-22)"
   sodipodi:docname="fairdata.svg"
   xmlns:inkscape="http://www.inkscape.org/namespaces/inkscape"
   xmlns:sodipodi="http://sodipodi.sourceforge.net/DTD/sodipodi-0.dtd"
   xmlns="http://www.w3.org/2000/svg"
   xmlns:svg="http://www.w3.org/2000/svg">
  <sodipodi:namedview
     id="namedview7"
     pagecolor="#ffffff"
     bordercolor="#666666"
     borderopacity="1.0"
     inkscape:pageshadow="2"
     inkscape:pageopacity="0.0"
     inkscape:pagecheckerboard="0"
     inkscape:document-units="mm"
     showgrid="false"
     inkscape:zoom="0.49264169"
     inkscape:cx="444.54215"
     inkscape:cy="11.164301"
     inkscape:window-width="2560"
     inkscape:window-height="1387"
     inkscape:window-x="0"
     inkscape:window-y="25"
     inkscape:window-maximized="1"
     inkscape:current-layer="layer1" />
  <defs
     id="defs2" />
  <g
     inkscape:label="Layer 1"
     inkscape:groupmode="layer"
     id="layer1"
     transform="translate(-50.924599,-119.83897)">
    <path
       style="fill:#000000;stroke-width:0.0846667"
       d="m 179.06492,169.70092 c -0.0741,-0.11315 -0.20422,-0.40657 -0.28906,-0.65205 -0.12522,-0.36225 -0.23323,-0.5014 -0.57344,-0.73875 -0.23055,-0.16083 -0.74303,-0.58341 -1.13885,-0.93907 -0.39581,-0.35565 -0.98636,-0.85422 -1.31233,-1.10793 -0.52298,-0.40705 -1.02037,-0.83164 -1.36041,-1.16131 -0.06,-0.0582 -0.14998,-0.10583 -0.19988,-0.10583 -0.0499,0 -0.0907,-0.0295 -0.0907,-0.0655 0,-0.0361 -0.21907,-0.22599 -0.48683,-0.42207 -0.26776,-0.19609 -0.62611,-0.48092 -0.79633,-0.63295 -0.66576,-0.59462 -3.41927,-2.57401 -3.99352,-2.87078 -0.14795,-0.0764 -0.34156,-0.21933 -0.43028,-0.3175 -0.0887,-0.0982 -0.20935,-0.17849 -0.26811,-0.17849 -0.0587,0 -0.11951,-0.0286 -0.13504,-0.0635 -0.0389,-0.0874 -0.72369,-0.61383 -0.7986,-0.61383 -0.0333,0 -0.2603,-0.15403 -0.50432,-0.34229 -0.43197,-0.33327 -0.72091,-0.51434 -3.76933,-2.3622 -0.80222,-0.48628 -1.7885,-1.13913 -2.19173,-1.45077 -0.96607,-0.74663 -1.76513,-1.25347 -2.77554,-1.76052 -0.45545,-0.22856 -1.24673,-0.69966 -1.75839,-1.04689 -0.51168,-0.34724 -1.17796,-0.75097 -1.48064,-0.89718 -0.66725,-0.32231 -1.80949,-1.00689 -3.13267,-1.87749 -0.34925,-0.22979 -1.0047,-0.62959 -1.45655,-0.88845 -0.78616,-0.45037 -1.23875,-0.87542 -1.12614,-1.05764 0.029,-0.0469 0.003,-0.0909 -0.0582,-0.0978 -0.0609,-0.007 -0.16798,-0.0187 -0.23783,-0.0262 -0.24026,-0.0258 -0.55072,-0.19774 -0.75661,-0.41906 -0.16249,-0.17466 -0.21284,-0.33387 -0.23715,-0.74982 -0.017,-0.29044 -0.0518,-0.81696 -0.0774,-1.17003 -0.0543,-0.74911 0.11734,-1.55641 0.43253,-2.03394 l 0.20147,-0.30523 -0.64924,-0.13573 c -0.35709,-0.0746 -1.33505,-0.25671 -2.17325,-0.4046 -0.8382,-0.14789 -1.7907,-0.32314 -2.11667,-0.38946 -0.32597,-0.0663 -1.08797,-0.19196 -1.69333,-0.27922 -0.60537,-0.0873 -1.42453,-0.21578 -1.82034,-0.28559 -0.39582,-0.0698 -0.85302,-0.1499 -1.016,-0.178 -0.16299,-0.0281 -0.37254,-0.0645 -0.46567,-0.0809 -0.0931,-0.0164 -0.35983,-0.0751 -0.59267,-0.13042 -0.37755,-0.0897 -1.51074,-0.29242 -2.20133,-0.39372 -0.1397,-0.0205 -0.50165,-0.0738 -0.80433,-0.11852 -0.89966,-0.13283 -1.47717,-0.16969 -3.25967,-0.20804 -2.42379,-0.0521 -3.81871,-0.11918 -5.842,-0.28078 -2.2849,-0.18249 -6.76153,-0.17106 -8.80533,0.0225 -0.83586,0.0792 -2.0415,0.22167 -2.54976,0.30139 -0.28477,0.0447 -0.66859,0.0812 -0.85292,0.0812 -0.18434,0 -0.71335,0.0557 -1.17558,0.12387 -0.46222,0.0681 -1.08806,0.14413 -1.39074,0.16888 -0.30269,0.0247 -0.75989,0.0629 -1.016,0.0847 -0.25612,0.0219 -0.96097,0.0799 -1.56634,0.12899 -1.54797,0.12553 -2.58009,0.2295 -2.89217,0.29132 -0.38754,0.0768 -0.94569,0.13797 -1.63749,0.17956 -0.39582,0.0238 -0.83397,0.0618 -0.97367,0.0844 -0.1397,0.0226 -0.41771,0.0593 -0.61781,0.0815 -0.20009,0.0222 -0.43572,0.0788 -0.5236,0.12588 -0.0879,0.047 -0.27091,0.0855 -0.40672,0.0855 -0.13581,0 -0.35739,0.036 -0.4924,0.08 -0.13501,0.044 -0.37882,0.0992 -0.5418,0.1226 -0.16299,0.0234 -0.620186,0.10102 -1.015996,0.17239 -0.39582,0.0714 -1.11972,0.18793 -1.60867,0.25903 -0.48895,0.0711 -1.0795,0.16632 -1.31233,0.21162 -0.43334,0.0843 -0.67583,0.12571 -1.27,0.21696 -0.18627,0.0286 -0.51012,0.10321 -0.71967,0.1658 -0.20955,0.0626 -0.6858,0.17612 -1.05833,0.2523 -0.67273,0.13755 -2.54723,0.69338 -2.70933,0.80337 -0.0466,0.0316 -0.27517,0.1248 -0.508,0.20711 -0.23284,0.0823 -0.59479,0.22792 -0.80434,0.32356 -0.20955,0.0956 -0.5334,0.22191 -0.71966,0.2806 -0.18627,0.0587 -0.52242,0.18937 -0.74701,0.29038 -0.22458,0.10103 -0.46077,0.16355 -0.52485,0.13897 -0.0693,-0.0266 -0.10019,-0.002 -0.0762,0.0603 0.0266,0.0693 -0.17671,0.1689 -0.59698,0.29255 -0.35051,0.10312 -0.63729,0.223 -0.63729,0.26641 0,0.0434 0.11719,0.20509 0.26043,0.35931 0.65898,0.70949 1.29926,2.64484 1.17586,3.55422 -0.12056,0.88841 -0.20771,0.97942 -1.28556,1.34259 -0.67387,0.22705 -1.39769,0.5451 -1.84407,0.81028 -0.41107,0.2442 -1.80154,0.88097 -1.92374,0.88097 -0.0467,0 -0.36635,0.14429 -0.71039,0.32065 -0.34404,0.17636 -0.75888,0.37351 -0.92186,0.43811 -0.16299,0.0646 -0.40249,0.19059 -0.53223,0.27996 -0.12973,0.0894 -0.28213,0.17007 -0.33866,0.17935 -0.38977,0.0639 -2.45751,1.13195 -3.35603,1.73345 -0.39229,0.26261 -0.77329,0.51691 -0.84667,0.5651 -0.0734,0.0482 -0.47631,0.31488 -0.89541,0.59266 -0.4191,0.27778 -0.80103,0.5241 -0.84874,0.54738 -0.59988,0.2928 -3.6811,2.29505 -4.63586,3.01249 -0.31566,0.2372 -0.88716,0.61081 -1.27,0.83026 -1.01068,0.57933 -1.90033,1.13907 -2.53126,1.5926 -0.30428,0.21872 -0.70164,0.46291 -0.88303,0.54264 -0.69734,0.30652 -1.25573,0.58873 -1.40622,0.71068 -0.0862,0.0699 -0.19239,0.127 -0.23599,0.127 -0.0436,0 -0.29954,0.19148 -0.56875,0.42552 -0.26922,0.23403 -0.66094,0.55538 -0.87049,0.71409 -0.20955,0.15872 -0.63817,0.51304 -0.9525,0.78739 -0.31432,0.27434 -0.5715,0.46959 -0.5715,0.43389 0,-0.0357 -0.0476,-8.5e-4 -0.10583,0.0782 -0.16197,0.21898 -1.08068,0.22844 -1.70042,0.0175 -0.87817,-0.29889 -1.238,-0.78116 -1.06518,-1.42765 0.0517,-0.19337 0.12384,-0.38968 0.16034,-0.43624 0.0365,-0.0466 0.20731,-0.52282 0.37961,-1.05834 0.38477,-1.19592 0.75149,-2.17915 1.04207,-2.794 0.12104,-0.25611 0.22436,-0.48471 0.2296,-0.508 0.005,-0.0233 0.0911,-0.17239 0.19082,-0.33137 0.0997,-0.15897 0.30298,-0.59712 0.45172,-0.97367 0.14873,-0.37654 0.29848,-0.72272 0.33276,-0.76929 0.0343,-0.0466 0.11054,-0.29422 0.16945,-0.55033 0.0589,-0.25612 0.15372,-0.56092 0.21067,-0.67734 0.057,-0.11641 0.1267,-0.3336 0.15501,-0.48263 0.0898,-0.47259 0.86693,-1.94081 1.70808,-3.22692 0.84022,-1.28469 1.43804,-2.24973 2.28168,-3.68325 l 0.48914,-0.83115 -0.1051,-0.37535 c -0.11632,-0.41545 -0.17803,-0.43794 -0.54875,-0.19988 -0.58079,0.37294 -1.91514,0.92011 -2.47739,1.01589 -0.0344,0.006 -0.12826,0.0458 -0.2085,0.0887 -0.0802,0.0429 -0.34694,0.11595 -0.59267,0.16227 -0.6573,0.12386 -1.19551,0.3383 -3.02911,1.20689 -0.53551,0.25367 -1.25941,0.58198 -1.60866,0.72958 -0.34925,0.14759 -0.69215,0.30475 -0.762,0.34924 -0.0699,0.0445 -0.33701,0.18589 -0.59369,0.31423 -0.55817,0.27909 -2.00218,1.17225 -2.2481,1.39053 -0.0961,0.0853 -0.2153,0.15515 -0.2648,0.15515 -0.0495,0 -0.13744,0.0571 -0.19541,0.127 -0.16485,0.19862 -0.44076,0.14956 -0.74092,-0.13177 -0.59479,-0.55745 -0.67482,-1.11434 -0.23623,-1.64378 0.58737,-0.70905 3.31919,-3.37987 4.33252,-4.23579 1.21822,-1.02898 2.53586,-1.9949 2.6192,-1.92006 0.0351,0.0316 0.0391,0.0139 0.009,-0.0392 -0.0303,-0.0531 0.0331,-0.1544 0.14097,-0.2251 0.10789,-0.0707 0.51372,-0.39718 0.90184,-0.72554 0.38812,-0.32836 0.74356,-0.5736 0.78986,-0.54498 0.0463,0.0286 0.0616,0.0154 0.0339,-0.0293 -0.0719,-0.11626 0.95633,-0.8676 1.80212,-1.3169 0.95944,-0.50966 1.98289,-1.11804 2.47801,-1.47302 0.22201,-0.15918 0.69712,-0.4458 1.05578,-0.63694 0.94151,-0.50172 1.54984,-0.847 1.86086,-1.0562 l 0.27231,-0.18316 -0.33581,-0.47938 c -0.1847,-0.26366 -0.33581,-0.4994 -0.33581,-0.52387 0,-0.0245 -0.10815,-0.20375 -0.24034,-0.3984 -0.13218,-0.19466 -0.40466,-0.78381 -0.6055,-1.30921 -0.20547,-0.53748 -0.40584,-0.94063 -0.45817,-0.92178 -0.19866,0.0716 -0.54486,-0.19571 -0.60434,-0.46653 -0.12875,-0.58618 -0.005,-1.37034 0.24148,-1.52689 0.0553,-0.0352 0.16852,-0.0645 0.25161,-0.0652 0.0831,-8.5e-4 0.42044,-0.268 0.74966,-0.59397 0.32922,-0.32596 0.63883,-0.59266 0.68803,-0.59266 0.0492,0 0.18811,-0.10478 0.30868,-0.23284 0.25072,-0.26629 0.90108,-0.78316 0.98542,-0.78316 0.031,0 0.29046,-0.18283 0.57646,-0.40629 0.65884,-0.51476 0.9459,-0.69438 1.1097,-0.69438 0.0715,0 0.12997,-0.0292 0.12997,-0.0649 0,-0.0909 0.84773,-0.58824 1.11845,-0.65618 0.12307,-0.0309 0.28962,-0.12893 0.37011,-0.21787 0.0805,-0.0889 0.21665,-0.16173 0.30257,-0.16173 0.0859,0 0.15621,-0.0291 0.15621,-0.0646 0,-0.0735 -0.0548,-0.0435 1.45255,-0.79511 0.62138,-0.30986 1.33933,-0.62999 1.59545,-0.71142 0.25611,-0.0814 0.50376,-0.17567 0.55033,-0.20943 0.0466,-0.0338 0.17992,-0.0901 0.29633,-0.12519 0.11642,-0.0351 0.31122,-0.13388 0.43289,-0.21953 0.12168,-0.0856 0.24076,-0.1362 0.26462,-0.11233 0.0239,0.0239 0.48245,-0.16607 1.01907,-0.42207 0.53662,-0.25602 1.07693,-0.49089 1.20069,-0.52196 0.12377,-0.0311 0.43939,-0.1661 0.70138,-0.30009 0.26199,-0.13398 0.51756,-0.24361 0.56794,-0.24361 0.0504,0 0.23376,-0.0762 0.40753,-0.16933 0.17376,-0.0931 0.39279,-0.16934 0.48672,-0.16934 0.0939,0 0.23695,-0.0371 0.31781,-0.0824 0.0809,-0.0453 0.47087,-0.20191 0.86669,-0.34796 0.39581,-0.14605 0.81011,-0.30843 0.92066,-0.36083 0.11055,-0.0524 0.2439,-0.0981 0.29633,-0.10157 0.0524,-0.003 0.26679,-0.0863 0.47634,-0.18416 0.64415,-0.30076 1.23594,-0.44697 1.35118,-0.33382 0.0764,0.075 0.0938,0.0707 0.073,-0.018 -0.015,-0.0642 0.0677,-0.1454 0.18445,-0.18109 0.91472,-0.2795 1.53351,-0.42627 1.60665,-0.38107 0.0477,0.0295 0.0867,0.0168 0.0867,-0.0281 0,-0.0925 0.70553,-0.35162 0.95732,-0.35162 0.17767,0 1.2237,-0.32488 2.04834,-0.63617 0.64009,-0.24162 1.96702,-0.58537 2.62467,-0.67993 0.0466,-0.007 0.18546,-0.0538 0.30866,-0.10458 0.12319,-0.0508 0.61849,-0.19541 1.10067,-0.32132 0.48217,-0.1259 1.14337,-0.29916 1.46934,-0.38501 0.32596,-0.0859 0.68564,-0.15675 0.79929,-0.15754 0.11364,-8.5e-4 0.51369,-0.0958 0.889,-0.21118 0.72808,-0.22378 3.042746,-0.69671 3.707476,-0.75752 0.22025,-0.0201 0.4298,-0.0542 0.46567,-0.0756 0.0359,-0.0215 0.42717,-0.0635 0.86956,-0.0933 1.24357,-0.084 1.85337,-0.1286 2.49766,-0.18282 1.48855,-0.12524 1.77255,-0.12835 8.97467,-0.0981 2.6482,0.0111 6.00973,-0.0574 8.04333,-0.16403 2.10756,-0.11047 7.16004,-0.0526 8.95676,0.10252 0.26956,0.0233 0.99345,0.0777 1.60867,0.12096 0.61521,0.0433 1.78532,0.1396 2.60024,0.21412 1.58805,0.14522 2.73023,0.23867 4.61433,0.37752 2.19701,0.1619 3.30714,0.30627 4.95301,0.64415 0.58208,0.11949 1.25472,0.24917 1.49476,0.28818 0.24004,0.039 0.56389,0.11118 0.71967,0.16037 0.26244,0.0829 1.87513,0.39285 2.53585,0.48741 0.54796,0.0784 1.90761,0.4513 2.74642,0.75319 0.46363,0.16685 0.93608,0.32272 1.0499,0.34637 0.1138,0.0237 0.4186,0.11386 0.67733,0.20047 0.25872,0.0866 0.67995,0.21383 0.93607,0.2827 0.44561,0.11982 0.84889,0.25369 2.159,0.7167 0.32596,0.1152 0.97366,0.42907 1.43933,0.69749 0.46567,0.26842 0.98954,0.5685 1.16417,0.66686 0.17462,0.0984 0.46037,0.2595 0.635,0.35808 0.17462,0.0986 0.41863,0.25099 0.54223,0.33867 0.12361,0.0877 0.24819,0.15942 0.27685,0.15942 0.0287,0 0.21328,0.10227 0.41027,0.22729 0.19697,0.12501 0.54865,0.32553 0.78148,0.4456 0.23283,0.12009 0.51858,0.2798 0.635,0.35494 0.11642,0.0751 0.48011,0.309 0.8082,0.5197 0.32809,0.21071 0.64708,0.44401 0.70887,0.51845 0.0618,0.0744 0.14731,0.13535 0.19005,0.13535 0.15091,0 0.71081,0.44147 1.61071,1.27 0.27818,0.25612 0.5723,0.50377 0.65359,0.55033 0.0813,0.0466 0.20206,0.13318 0.26836,0.19247 0.0663,0.0593 0.31084,0.24979 0.54342,0.42333 0.23257,0.17354 0.49335,0.40233 0.5795,0.5084 0.16176,0.19918 0.73136,0.5268 0.91587,0.5268 0.0576,0 0.25035,0.10097 0.42843,0.22437 0.17806,0.1234 0.43728,0.23104 0.57604,0.23918 0.6161,0.0362 0.68304,0.0486 0.63966,0.11881 -0.0253,0.0409 0.0592,0.0954 0.18776,0.12111 0.12853,0.0257 0.33525,0.12661 0.45935,0.22424 0.19877,0.15634 0.22231,0.22683 0.19751,0.59145 -0.0201,0.2959 -0.11148,0.54274 -0.32032,0.86557 -1.41842,2.19257 -1.51149,2.46897 -0.924,2.74442 0.16976,0.0796 0.48011,0.28603 0.68966,0.45874 0.20955,0.17271 0.4678,0.3596 0.57388,0.41531 0.10681,0.0561 0.16709,0.14302 0.13508,0.1948 -0.0359,0.058 -0.0188,0.0694 0.0448,0.0301 0.13038,-0.0806 0.59278,0.23019 1.19353,0.80216 0.25611,0.24384 0.55106,0.49951 0.65544,0.56815 0.10437,0.0686 0.16516,0.16464 0.13508,0.2133 -0.0312,0.0505 -0.014,0.0634 0.0399,0.03 0.1234,-0.0763 0.60894,0.23454 1.33635,0.85543 0.32169,0.27457 0.71823,0.59138 0.88122,0.70403 0.16298,0.11264 0.35348,0.26835 0.42333,0.34602 0.0699,0.0777 0.42323,0.3452 0.7853,0.59452 0.36206,0.24932 0.78116,0.53961 0.93133,0.6451 0.15017,0.1055 0.34564,0.23885 0.43438,0.29633 0.0887,0.0575 0.47732,0.35219 0.86353,0.65488 0.65491,0.51328 1.24548,0.95211 2.10789,1.56633 1.21568,0.86582 2.71393,2.26841 2.60734,2.44088 -0.0282,0.0456 -0.0124,0.0589 0.0352,0.0295 0.0475,-0.0294 0.1582,0.0274 0.24593,0.12609 0.0877,0.0987 0.38807,0.34682 0.66747,0.5513 0.64704,0.47354 1.57793,1.37928 1.51773,1.47669 -0.0253,0.041 -0.004,0.0745 0.0477,0.0745 0.0516,0 0.19034,0.10477 0.30845,0.23283 0.11811,0.12806 0.36935,0.39829 0.55831,0.60052 0.2086,0.22324 0.35539,0.46918 0.37365,0.62605 0.0165,0.14209 0.0709,0.30758 0.12086,0.36773 0.0647,0.078 0.0639,0.15957 -0.003,0.28413 -0.0514,0.0961 -0.0676,0.17474 -0.0359,0.17474 0.0317,0 -0.0465,0.0965 -0.1738,0.21452 -0.21855,0.20255 -0.26769,0.21162 -0.88019,0.16242 -0.3568,-0.0286 -0.94299,-0.12518 -1.30265,-0.21452 -0.44393,-0.11026 -0.95071,-0.16242 -1.57814,-0.16242 -0.50833,0 -1.22371,-0.0553 -1.58975,-0.12292 -0.36604,-0.0676 -1.12272,-0.14655 -1.68152,-0.17542 -0.5588,-0.0289 -1.1684,-0.085 -1.35466,-0.1247 -0.18627,-0.0397 -1.31022,-0.0567 -2.49767,-0.0377 -2.05708,0.0328 -2.50675,0.0606 -2.60738,0.16126 -0.0475,0.0475 0.10029,0.77303 0.28517,1.40018 0.20275,0.68776 0.36292,1.30237 0.50751,1.94733 0.0783,0.34925 0.19138,0.7493 0.25133,0.889 0.17805,0.41498 0.54737,1.37987 0.54737,1.4301 0,0.0256 0.0976,0.26002 0.21698,0.52092 0.11935,0.26091 0.31324,0.76096 0.43088,1.11123 0.11764,0.35027 0.42224,1.1571 0.67688,1.79296 0.25465,0.63587 0.46871,1.22016 0.4757,1.29842 0.007,0.0783 0.0399,0.1255 0.0732,0.10494 0.0332,-0.0206 0.16158,0.27737 0.28517,0.66203 0.25496,0.79354 0.79887,1.97434 1.14117,2.4774 0.5619,0.82581 1.27206,2.41415 1.27206,2.8451 0,0.30983 -0.37315,0.69682 -0.61395,0.63671 -0.0815,-0.0204 -0.12694,-0.002 -0.10084,0.0398 0.0261,0.0422 -0.0838,0.0768 -0.24415,0.0768 -0.21535,0 -0.32683,-0.0538 -0.42639,-0.20572 z M 59.461814,165.69451 c 0.36684,-0.31433 0.93859,-0.78105 1.27056,-1.03717 0.33196,-0.25612 0.70571,-0.55315 0.83056,-0.66009 0.12484,-0.10693 0.72228,-0.44252 1.32765,-0.74576 0.60536,-0.30323 1.2391,-0.65389 1.40831,-0.77924 1.07076,-0.79323 1.46346,-1.04889 2.10535,-1.37064 0.65035,-0.32599 1.58557,-0.89286 1.69334,-1.02639 0.21909,-0.27148 3.76574,-2.69921 3.94325,-2.69921 0.0402,0 1.59955,-1.03146 3.42917,-2.26827 0.82356,-0.55672 1.59735,-0.99346 2.23724,-1.26274 0.76571,-0.32222 1.88788,-0.87379 2.43351,-1.19612 0.26739,-0.15797 0.78174,-0.3906 1.143,-0.51696 0.36125,-0.12636 0.86638,-0.3401 1.12249,-0.47496 0.25612,-0.13487 0.57621,-0.29449 0.71131,-0.35471 0.3922,-0.17484 0.19885,-0.21267 -0.35433,-0.0693 -0.27963,0.0725 -0.61722,0.13216 -0.7502,0.13266 -0.13298,8.4e-4 -0.43228,0.0601 -0.66511,0.13235 -0.60189,0.18687 -2.64791,0.2384 -3.25967,0.0821 -0.86901,-0.22204 -1.05774,-0.29594 -1.524,-0.5968 -0.33467,-0.21596 -0.46566,-0.35342 -0.46566,-0.48869 0,-0.13748 -0.0509,-0.18887 -0.18871,-0.19066 -0.10379,-0.001 -0.23524,-0.049 -0.2921,-0.10583 -0.0569,-0.0569 -0.15885,-0.10339 -0.22662,-0.10339 -0.21458,0 -2.16975,-2.12749 -2.06335,-2.24519 0.0338,-0.0374 0.0183,-0.0433 -0.0344,-0.0132 -0.1051,0.06 -1.08485,-1.13227 -2.49254,-3.03327 -0.48275,-0.65194 -0.92653,-1.23568 -0.98616,-1.29722 -0.0596,-0.0615 -0.10846,-0.13773 -0.10852,-0.16933 -5e-5,-0.0316 -0.0991,-0.17175 -0.21999,-0.31145 -0.12093,-0.1397 -0.34895,-0.44764 -0.5067,-0.6843 -0.15774,-0.23667 -0.36667,-0.50257 -0.46428,-0.5909 -0.17473,-0.15814 -0.18292,-0.15749 -0.53036,0.0419 -0.19409,0.11135 -0.77445,0.41916 -1.28969,0.684 -0.51524,0.26485 -1.33439,0.72844 -1.82033,1.0302 -1.1003,0.68326 -1.32963,0.82077 -2.06888,1.24053 -0.32596,0.18509 -0.9988,0.6355 -1.4952,1.0009 -0.82717,0.6089 -1.32089,1.00714 -3.10813,2.50703 -0.34319,0.28801 -0.81944,0.66892 -1.05833,0.84645 -0.46183,0.34322 -1.1805,0.9752 -2.03098,1.78599 -0.39437,0.37597 -0.46888,0.48088 -0.30836,0.43415 0.11642,-0.0339 0.24977,-0.0909 0.29634,-0.12671 0.19702,-0.15147 3.60413,-1.85436 4.12512,-2.06177 0.31302,-0.12462 0.76912,-0.2645 1.01355,-0.31086 0.82413,-0.15629 2.18381,-0.7027 2.81578,-1.13157 0.16609,-0.11271 0.53511,-0.28366 0.82005,-0.37989 0.50707,-0.17124 0.52277,-0.1716 0.74011,-0.0172 0.12213,0.0867 0.36412,0.21697 0.53777,0.28936 0.17364,0.0724 0.46891,0.27336 0.65616,0.44661 0.28369,0.26248 0.34046,0.36921 0.34046,0.64007 0,0.17879 -0.0306,0.32507 -0.0679,0.32507 -0.0991,0 -0.10101,0.61722 -0.002,0.73677 0.0462,0.056 0.0581,0.18372 0.0263,0.28389 -0.0877,0.27629 -0.4697,0.80275 -0.56338,0.7764 -0.0455,-0.0128 -0.0579,0.0169 -0.0275,0.066 0.0303,0.0491 -0.0906,0.30213 -0.26888,0.56227 -0.17823,0.26013 -0.35313,0.51617 -0.38867,0.56897 -0.0355,0.0528 -0.17879,0.34365 -0.31833,0.64633 -0.26676,0.57865 -0.39853,0.81039 -0.56377,0.99153 -0.055,0.0603 -0.26222,0.40482 -0.46043,0.76557 -0.19822,0.36075 -0.5183,0.90355 -0.71129,1.20624 -0.40846,0.64063 -0.99433,1.83217 -1.15522,2.3495 -0.0616,0.1979 -0.14073,0.35983 -0.17596,0.35983 -0.0352,0 -0.0641,0.0816 -0.0641,0.18137 0,0.23487 -0.3313,1.36071 -0.43123,1.4654 -0.0422,0.0442 -0.0768,0.13536 -0.0768,0.2025 0,0.0671 -0.23553,0.60245 -0.5234,1.18957 -0.62009,1.2647 -1.88136,4.91983 -1.69768,4.91983 0.0632,0 0.41515,-0.25718 0.78199,-0.5715 z M 176.6095,164.68598 c -0.11735,-0.31844 -0.28743,-0.76947 -0.37796,-1.00231 -0.0905,-0.23283 -0.38345,-0.99483 -0.65091,-1.69333 -0.26745,-0.6985 -0.56066,-1.45572 -0.65156,-1.68272 -0.0909,-0.227 -0.1788,-0.47465 -0.19532,-0.55034 -0.0165,-0.0757 -0.24299,-0.69006 -0.50327,-1.36527 -0.52699,-1.36711 -1.48571,-5.0287 -1.48366,-5.66644 0.002,-0.48665 0.14233,-0.76929 0.46565,-0.93501 0.13902,-0.0712 0.27182,-0.15415 0.2951,-0.18421 0.0762,-0.0984 1.02223,-0.1583 3.29762,-0.20882 2.33992,-0.052 2.95524,-0.0105 5.88872,0.39632 0.65193,0.0904 1.57338,0.16419 2.04765,0.16394 0.47428,0 0.95871,0.0362 1.07651,0.081 0.14743,0.056 0.23238,0.052 0.27259,-0.0131 0.0321,-0.052 0.0215,-0.0717 -0.0235,-0.0439 -0.0451,0.0278 -0.33254,-0.19154 -0.63887,-0.48751 -0.30634,-0.29597 -0.83734,-0.74608 -1.18001,-1.00026 -0.34267,-0.25417 -1.04561,-0.89831 -1.56209,-1.4314 -0.51647,-0.5331 -1.06892,-1.06064 -1.22766,-1.17232 -0.15874,-0.11169 -0.34547,-0.25845 -0.41495,-0.32613 -0.0695,-0.0677 -0.48858,-0.38916 -0.93133,-0.71439 -0.44275,-0.32522 -0.92177,-0.70925 -1.06449,-0.85338 -0.32987,-0.33317 -0.71004,-0.62384 -1.78223,-1.36274 -0.47301,-0.32596 -1.19773,-0.86752 -1.61049,-1.20346 -0.41276,-0.33593 -1.17622,-0.94553 -1.69659,-1.35467 -0.52037,-0.40912 -1.30903,-1.03979 -1.75257,-1.40147 -0.44354,-0.36168 -1.08913,-0.83793 -1.43464,-1.05834 -1.10829,-0.70696 -1.67191,-1.12753 -1.62115,-1.20967 0.11554,-0.18695 -0.12628,-0.0601 -0.29116,0.15278 -0.22219,0.28681 -1.27802,1.89671 -1.27802,1.94869 0,0.0207 -0.0952,0.1509 -0.21167,0.28925 -0.11642,0.13836 -0.21167,0.3026 -0.21167,0.365 0,0.0624 -0.0348,0.12614 -0.0773,0.14167 -0.0425,0.0155 -0.51816,0.69497 -1.05699,1.50989 -0.53882,0.81492 -1.02161,1.53114 -1.07286,1.5916 -0.13673,0.16131 -0.58684,1.17768 -0.58684,1.32512 0,0.43954 -0.68128,1.47274 -0.97782,1.4829 -0.0488,0.002 -0.18219,0.15963 -0.29633,0.351 -0.11413,0.19137 -0.27588,0.41045 -0.35944,0.48683 -0.21187,0.1937 -0.73708,1.30875 -0.73708,1.56487 0,0.16504 -0.0545,0.22352 -0.24778,0.26597 -0.13627,0.0299 -0.30375,0.13987 -0.37217,0.24429 -0.0684,0.10442 -0.29464,0.28017 -0.5027,0.39054 l -0.3783,0.20069 -1.0784,-0.1854 c -0.69221,-0.11901 -1.40129,-0.30897 -1.98003,-0.53046 -0.9164,-0.35069 -1.17648,-0.43893 -2.68017,-0.90918 -0.46597,-0.14572 -0.94173,-0.33115 -1.05724,-0.41205 -0.1155,-0.0809 -0.34386,-0.15115 -0.50744,-0.15611 -0.31693,-0.01 -1.88691,-0.53579 -1.93432,-0.64831 -0.0155,-0.0368 -0.18328,-0.067 -0.37279,-0.067 H 150.537 l 0.19524,0.16934 c 0.10739,0.0931 0.22713,0.16933 0.26609,0.16933 0.039,0 0.33832,0.17145 0.66525,0.381 0.32692,0.20955 0.61517,0.381 0.64055,0.381 0.0254,0 0.35837,0.19925 0.73996,0.44279 0.65646,0.41895 0.76696,0.49533 1.01426,0.7012 0.0566,0.0471 0.19814,0.13331 0.31456,0.19157 0.11642,0.0582 0.36407,0.19268 0.55033,0.29873 0.18627,0.10606 0.47202,0.2675 0.635,0.35877 0.16299,0.0913 0.31539,0.18499 0.33867,0.20827 0.0233,0.0233 0.19473,0.12272 0.381,0.22096 0.51105,0.26953 1.755,1.0298 1.81229,1.10762 0.063,0.0855 0.99744,0.53409 1.11266,0.53409 0.11709,0 1.09859,0.62173 1.83304,1.16115 0.33513,0.24614 0.64946,0.44752 0.6985,0.44752 0.049,0 0.09,0.0286 0.091,0.0635 0.001,0.0349 0.16981,0.17621 0.37508,0.31398 0.20527,0.13777 0.35485,0.28022 0.33241,0.31654 -0.0225,0.0363 0.0101,0.0465 0.0724,0.0226 0.0622,-0.0239 0.19371,0.0316 0.2921,0.12324 0.0984,0.0917 0.3066,0.22413 0.46269,0.29437 0.42364,0.19063 1.04964,0.56375 1.8078,1.07752 0.37253,0.25246 0.88688,0.5694 1.143,0.70432 0.25611,0.13492 0.67521,0.40187 0.93133,0.59323 0.25612,0.19134 0.73237,0.5286 1.05833,0.74944 0.55571,0.3765 1.44283,1.04144 1.89103,1.41742 0.10873,0.0912 0.23541,0.16585 0.2815,0.16585 0.0884,0 1.26856,0.74162 1.34114,0.84276 0.0233,0.0324 0.16616,0.13101 0.3175,0.21903 0.15134,0.088 0.27517,0.18895 0.27517,0.22428 0,0.0353 0.10477,0.11914 0.23283,0.18624 0.12806,0.0671 0.30903,0.19369 0.40217,0.28132 0.0931,0.0876 0.47413,0.40089 0.84666,0.6961 0.37254,0.29522 0.7555,0.61727 0.85103,0.71568 0.42492,0.43771 2.0041,1.7433 2.05545,1.69934 0.0153,-0.0131 -0.0682,-0.28435 -0.18555,-0.60278 z M 57.556554,150.60267 c 0.0288,-0.0466 0.012,-0.0847 -0.0373,-0.0847 -0.0493,0 -0.0897,0.0381 -0.0897,0.0847 0,0.0466 0.0168,0.0847 0.0373,0.0847 0.0205,0 0.0609,-0.0381 0.0897,-0.0847 z m 22.43666,-0.45848 c 0.2794,-0.0345 0.67945,-0.11485 0.889,-0.17862 0.20955,-0.0638 0.49542,-0.13219 0.63527,-0.15207 0.13985,-0.0199 0.52085,-0.0944 0.84667,-0.16566 0.32582,-0.0712 0.8972,-0.19022 1.26973,-0.2644 0.37253,-0.0742 0.93601,-0.20166 1.25218,-0.28331 0.54454,-0.14063 0.57216,-0.15962 0.52385,-0.36012 -0.1038,-0.43086 -0.45333,-1.08871 -0.75709,-1.42494 l -0.31284,-0.34627 -0.35305,0.13942 c -0.40875,0.16141 -2.11061,1.03235 -2.17338,1.11224 -0.0233,0.0296 -0.23284,0.1468 -0.46567,0.26036 -0.23283,0.11357 -0.48479,0.25763 -0.55991,0.32013 -0.0751,0.0625 -0.21367,0.1285 -0.3079,0.14664 -0.0942,0.0182 -0.24233,0.0723 -0.3291,0.12027 -0.52013,0.28774 -1.47015,0.6119 -1.5914,0.543 -0.0497,-0.0282 -0.0631,-0.0211 -0.0297,0.0158 0.0804,0.0891 -0.33124,0.40923 -0.43985,0.3421 -0.0482,-0.0298 -0.0637,0.002 -0.036,0.0742 0.0735,0.19165 0.86936,0.23317 1.9392,0.10118 z m -2.61665,-1.83018 c 0.34715,-0.11553 0.63837,-0.16349 0.78082,-0.12858 0.37322,0.0915 0.47905,0.0707 1.08579,-0.21328 0.31939,-0.14948 0.73311,-0.34075 0.91938,-0.42505 0.18626,-0.0843 0.47201,-0.22743 0.635,-0.31807 0.16298,-0.0907 0.48683,-0.25763 0.71966,-0.37106 0.23284,-0.11344 0.70909,-0.35244 1.05834,-0.53112 0.34925,-0.17868 0.70452,-0.35861 0.78949,-0.39985 0.35222,-0.17098 2.92263,-1.16633 3.01192,-1.16633 0.0533,0 0.42373,-0.1524 0.82316,-0.33866 0.39943,-0.18627 0.79641,-0.33867 0.88217,-0.33867 0.0858,0 0.17884,-0.0371 0.20683,-0.0824 0.0514,-0.0831 0.70931,-0.29897 0.82693,-0.27127 0.0349,0.008 0.0635,-0.0216 0.0635,-0.0663 0,-0.0447 0.23812,-0.1553 0.52916,-0.24577 0.29104,-0.0905 0.73872,-0.24832 0.99483,-0.35076 0.41661,-0.16662 0.96709,-0.33198 1.53784,-0.46196 0.10881,-0.0248 0.52168,-0.12414 0.9175,-0.22082 1.21826,-0.29757 2.13852,-0.49347 2.58176,-0.5496 0.23315,-0.0295 0.44344,-0.0657 0.46731,-0.0803 0.0239,-0.0147 0.28915,-0.0518 0.58949,-0.0825 0.30035,-0.0307 0.57223,-0.072 0.60419,-0.0918 0.032,-0.0198 0.22389,-0.0558 0.42651,-0.0802 0.32232,-0.0387 0.74008,-0.11123 1.5114,-0.26224 0.11642,-0.0228 0.42626,-0.0965 0.688536,-0.16383 0.90022,-0.23104 3.2807,-0.56556 4.79949,-0.67447 0.29427,-0.0211 0.56337,-0.0559 0.598,-0.0773 0.0542,-0.0335 0.68684,-0.10636 3.05797,-0.35211 0.25612,-0.0265 0.96097,-0.0839 1.56634,-0.12749 1.13013,-0.0814 1.34053,-0.10032 2.794,-0.25189 1.78326,-0.18595 2.30733,-0.23735 2.9599,-0.29028 0.37065,-0.0301 0.69542,-0.068 0.72172,-0.0842 0.30895,-0.19093 8.914,-0.18728 9.23589,0.004 0.10155,0.0603 3.04477,0.18885 5.8294,0.25457 1.04402,0.0246 1.92366,0.0605 1.95473,0.0797 0.0311,0.0192 0.28177,0.0562 0.5571,0.0822 0.4597,0.0434 2.46655,0.31771 3.16759,0.43297 0.16298,0.0268 0.80012,0.16069 1.41585,0.29755 0.61573,0.13684 1.41583,0.28731 1.778,0.33438 1.61916,0.2104 1.88956,0.25373 2.64815,0.42439 0.86346,0.19425 1.47722,0.3091 2.87867,0.53867 2.55162,0.41799 2.68181,0.45279 3.63239,0.97102 0.4935,0.26904 1.16254,0.59508 1.48676,0.72453 0.99055,0.39548 1.93301,0.73273 2.28918,0.81912 0.8396,0.20368 1.46281,0.43974 2.06219,0.78112 1.6909,0.96308 1.94281,1.11865 2.30433,1.42314 0.21294,0.17936 0.84445,0.55064 1.40335,0.82507 0.55889,0.27442 1.23055,0.63609 1.49258,0.80371 0.54065,0.34585 0.56922,0.35453 0.56922,0.17305 0,-0.12366 0.86824,-1.92812 1.0162,-2.11196 0.0375,-0.0466 0.3244,-0.59236 0.6376,-1.21287 0.3132,-0.62053 0.76553,-1.40158 1.00517,-1.73567 0.23965,-0.3341 0.88319,-1.27421 1.43008,-2.08913 0.5469,-0.81491 1.06478,-1.57691 1.15085,-1.69333 0.20737,-0.28047 1.46086,-2.23914 1.60155,-2.50254 0.0607,-0.11374 0.14648,-0.20679 0.1905,-0.20679 0.044,0 0.08,-0.05 0.08,-0.11103 0,-0.0611 0.0668,-0.1849 0.14844,-0.27517 0.0817,-0.0903 0.37279,-0.50361 0.64698,-0.91852 0.44473,-0.67298 0.48353,-0.76534 0.35955,-0.856 -0.0764,-0.0559 -0.14017,-0.15457 -0.14165,-0.21928 -0.003,-0.11163 -0.68563,-0.58334 -0.84474,-0.58334 -0.1533,0 -0.81209,-0.39835 -1.05758,-0.63949 -0.1397,-0.13723 -0.36532,-0.32571 -0.50137,-0.41884 -0.13605,-0.0931 -0.37545,-0.29316 -0.53199,-0.4445 -0.15654,-0.15134 -0.31193,-0.2749 -0.34529,-0.27459 -0.0334,0 -0.28929,-0.24033 -0.56869,-0.53476 -0.2794,-0.29444 -0.73659,-0.70522 -1.01599,-0.91285 -0.573,-0.42582 -1.45478,-1.0083 -1.5264,-1.0083 -0.026,0 -0.15005,-0.0952 -0.2756,-0.21167 -0.12555,-0.11641 -0.27046,-0.21166 -0.32202,-0.21166 -0.0516,0 -0.18529,-0.0755 -0.2972,-0.16777 -0.31757,-0.26186 -0.35623,-0.28721 -0.71276,-0.46723 -0.18444,-0.0931 -0.85989,-0.48366 -1.50099,-0.86784 -0.6411,-0.38417 -1.20352,-0.6985 -1.24983,-0.6985 -0.0463,0 -0.0842,-0.0327 -0.0842,-0.0727 0,-0.13029 -1.54264,-0.82135 -2.54,-1.13787 -0.53552,-0.16995 -1.88807,-0.60176 -3.00567,-0.9596 -2.03827,-0.65261 -3.09356,-0.91468 -5.37633,-1.33513 -0.67522,-0.12437 -1.57057,-0.30146 -1.98967,-0.39353 -1.46154,-0.32111 -4.26454,-0.70512 -5.842,-0.80034 -0.4191,-0.0253 -1.143,-0.0838 -1.60867,-0.12998 -4.6539,-0.46159 -6.94389,-0.65896 -8.382,-0.72239 -0.60537,-0.0267 -1.23402,-0.0628 -1.397,-0.0801 -0.41521,-0.0443 -5.90882,-0.0457 -6.731,-0.002 -2.57685,0.13766 -4.07328,0.1653 -9.56733,0.17669 -3.39937,0.007 -6.33307,0.0357 -6.51934,0.0637 -0.18626,0.028 -0.98636,0.0929 -1.778,0.14413 -0.79163,0.0513 -1.64888,0.12513 -1.905,0.16413 -0.25611,0.039 -0.54186,0.0723 -0.635,0.074 -0.32439,0.006 -2.712996,0.56055 -5.672656,1.31731 -0.65194,0.16669 -1.60444,0.39638 -2.11667,0.51042 -0.51223,0.11404 -1.17898,0.28301 -1.48167,0.37548 -1.12523,0.34379 -5.04808,1.4743 -5.33399,1.5372 -0.16299,0.0359 -0.91546,0.27675 -1.67217,0.53533 -0.75671,0.25858 -1.37583,0.44889 -1.37583,0.42292 0,-0.026 -0.0476,-0.009 -0.10584,0.0386 -0.0582,0.0472 -0.27728,0.14425 -0.48683,0.21565 -0.90181,0.30729 -2.665,1.0028 -3.67305,1.44888 -0.59894,0.26504 -1.14345,0.46099 -1.21003,0.43544 -0.0667,-0.0256 -0.098,-0.009 -0.0697,0.0366 0.0425,0.0687 -1.45924,0.84519 -1.63786,0.84686 -0.0306,0 -0.15093,0.0497 -0.26734,0.10973 -0.11642,0.0601 -0.44027,0.20099 -0.71967,0.31315 -0.7778,0.31225 -2.98818,1.45525 -4.14867,2.14531 -0.2794,0.16614 -0.65844,0.38467 -0.84231,0.48564 -0.72882,0.4002 -1.25619,0.77035 -2.12102,1.48869 -0.32597,0.27075 -0.63077,0.5212 -0.67733,0.55657 -0.0466,0.0353 -0.27022,0.22639 -0.497,0.42451 -0.22678,0.19812 -0.46839,0.39263 -0.53691,0.43225 -0.10145,0.0587 -0.0778,0.11367 0.12757,0.29634 0.1809,0.16091 0.31991,0.43458 0.49202,0.96861 0.13194,0.40937 0.37438,0.98859 0.53877,1.28716 0.32126,0.58349 1.58246,2.48559 1.74065,2.62518 0.0528,0.0466 0.25679,0.31327 0.45339,0.59267 0.36187,0.51429 0.75378,1.03368 1.17538,1.55769 0.1273,0.15823 0.33512,0.44398 0.46182,0.635 0.31208,0.47052 0.43639,0.63953 1.12431,1.52864 0.32596,0.4213 0.79721,1.04347 1.04722,1.38259 0.50665,0.68726 0.73349,0.96539 1.25994,1.54489 0.19791,0.21784 0.35984,0.43351 0.35984,0.47924 0,0.0457 0.13796,0.26024 0.30658,0.47669 l 0.30659,0.39351 0.41543,-0.3735 c 0.27903,-0.25087 0.5972,-0.434 0.96907,-0.55775 z m 0.55908,-4.41121 c -0.43491,-0.12536 -0.9451,-1.02025 -1.92444,-3.37546 -0.2271,-0.54615 -0.23142,-0.55037 -0.56872,-0.55485 -0.24932,-0.003 -0.38202,-0.0566 -0.49807,-0.19988 -0.21863,-0.27 -0.19995,-0.38301 0.11148,-0.67406 l 0.26968,-0.25204 -0.15418,-0.36608 c -0.0848,-0.20136 -0.20329,-0.48039 -0.26332,-0.62009 -0.06,-0.1397 -0.24069,-0.57785 -0.40146,-0.97367 -0.49381,-1.21573 -0.44971,-1.15664 -0.87513,-1.17273 -0.49399,-0.0187 -0.7926,-0.21493 -0.7926,-0.52088 0,-0.19737 0.0885,-0.29031 0.55522,-0.58293 0.30538,-0.19147 0.58836,-0.34813 0.62886,-0.34813 0.0405,0 0.14307,-0.0863 0.22794,-0.19171 0.0849,-0.10543 0.40196,-0.37271 0.70465,-0.59393 0.66591,-0.4867 1.33657,-1.01145 1.56633,-1.22554 0.0931,-0.0868 0.33755,-0.28889 0.54316,-0.44914 0.2056,-0.16024 0.46693,-0.37576 0.58073,-0.47894 0.1138,-0.10318 0.40278,-0.30861 0.64217,-0.45651 0.2394,-0.14791 0.59212,-0.37653 0.78383,-0.50807 0.19171,-0.13153 0.37268,-0.21503 0.40217,-0.18554 0.0295,0.0295 0.0536,0.0135 0.0536,-0.0355 0,-0.11198 0.51778,-0.36243 0.74926,-0.36243 0.16702,0 0.6054,0.33498 0.6054,0.46261 0,0.16366 -1.40242,1.3865 -2.794,2.43623 -0.34925,0.26344 -0.8636,0.69202 -1.143,0.95237 -0.2794,0.26035 -0.80216,0.68328 -1.1617,0.93984 -0.35953,0.25656 -0.67198,0.49605 -0.69432,0.53221 -0.0223,0.0362 0.0945,0.32958 0.25974,0.65207 0.16521,0.32248 0.28715,0.58782 0.27099,0.58964 -0.0162,0.002 0.10811,0.28756 0.27614,0.635 0.16803,0.34743 0.33948,0.71695 0.381,0.82114 0.0719,0.1804 0.10386,0.1622 0.66955,-0.381 0.32673,-0.31374 0.84108,-0.76781 1.143,-1.00904 0.30192,-0.24123 0.63466,-0.51609 0.73944,-0.61081 0.10477,-0.0947 0.1905,-0.15508 0.1905,-0.13414 0,0.0209 0.19327,-0.0381 0.42949,-0.13122 0.23622,-0.0931 0.46482,-0.14745 0.508,-0.12076 0.0432,0.0267 0.0785,0.008 0.0785,-0.0411 0,-0.15011 0.3345,-0.10014 0.5264,0.0786 0.16461,0.15336 0.17002,0.18817 0.0609,0.39202 -0.0659,0.12304 -0.20589,0.26297 -0.3112,0.31095 -0.1053,0.048 -0.19146,0.13568 -0.19146,0.19488 0,0.0592 -0.12382,0.19379 -0.27516,0.29907 -0.3224,0.22429 -0.28959,0.19434 -1.73567,1.58389 -0.61701,0.59289 -1.12183,1.12814 -1.12183,1.18947 0,0.12417 0.0804,0.31548 0.69792,1.66108 0.45515,0.99175 1.02821,2.03229 1.16625,2.1176 0.11395,0.0704 -0.05,0.37348 -0.32987,0.60985 -0.12209,0.10311 -0.24102,0.1854 -0.2643,0.18287 -0.0233,-0.003 -0.16814,-0.0409 -0.32191,-0.0852 z m 79.210066,-1.11481 c -0.12806,-0.0506 -0.23283,-0.1418 -0.23283,-0.20266 0,-0.0609 -0.034,-0.11066 -0.0756,-0.11066 -0.1735,0 -0.15469,-0.28666 0.0704,-1.07276 0.13105,-0.45773 0.30245,-1.15609 0.38089,-1.5519 0.13772,-0.69496 0.37702,-1.72195 0.44582,-1.91329 0.0184,-0.0511 -0.16846,-0.15686 -0.4152,-0.23496 -0.24674,-0.0781 -0.60101,-0.23424 -0.78728,-0.34696 -0.7074,-0.42805 -0.8395,-0.48964 -0.86783,-0.40466 -0.0157,0.0472 -0.16411,0.30942 -0.32974,0.58269 -0.16562,0.27326 -0.33311,0.57904 -0.3722,0.67951 -0.0391,0.10047 -0.35389,0.61482 -0.69955,1.143 -0.34566,0.52818 -0.6737,1.04712 -0.72899,1.1532 -0.0553,0.10608 -0.137,0.17033 -0.18158,0.14278 -0.0446,-0.0276 -0.14065,0.009 -0.21347,0.0823 -0.26205,0.26205 -0.93207,0.0893 -1.02052,-0.26311 -0.0827,-0.32954 0.0364,-0.60508 0.69332,-1.60416 0.34663,-0.52714 0.63023,-0.98394 0.63023,-1.01512 0,-0.0487 0.84595,-1.35819 1.03336,-1.59954 0.0975,-0.12553 1.53219,-1.847 1.63227,-1.95852 0.0473,-0.0527 0.34233,-0.37657 0.65558,-0.71966 0.85038,-0.93143 1.42012,-1.61416 1.42012,-1.70175 0,-0.0429 0.17018,-0.29909 0.37817,-0.56939 0.35979,-0.46758 0.40063,-0.49427 0.84056,-0.54924 0.71392,-0.0892 0.93945,0.0674 1.23629,0.85814 0.14402,0.38366 -0.0418,1.81614 -0.28713,2.21304 -0.17293,0.27981 -1.06722,3.8742 -1.06722,4.28946 0,0.11125 -0.0317,0.22185 -0.0704,0.24579 -0.0387,0.0239 -0.11899,0.37861 -0.17834,0.78816 -0.23213,1.60177 -0.39986,2.25789 -0.82228,3.2168 -0.21998,0.49934 -0.54665,0.62902 -1.06678,0.42349 z m 1.0222,-6.72775 c 0.10818,-0.45351 0.26766,-1.01507 0.35441,-1.2479 0.26395,-0.70851 0.61271,-1.91241 0.56719,-1.95793 -0.0469,-0.0469 -0.0492,-0.0444 -0.63137,0.6816 -0.22124,0.27592 -0.63691,0.75217 -0.92369,1.05833 -0.28678,0.30617 -0.65701,0.70828 -0.82274,0.89358 l -0.30132,0.3369 0.23008,0.24201 c 0.23106,0.24303 1.0878,0.80149 1.24608,0.81224 0.0466,0.003 0.17317,-0.36531 0.28136,-0.81883 z m -72.349516,4.29007 c -0.2322,-0.0868 -0.4311,-0.34404 -0.56975,-0.73702 -0.11249,-0.31883 -0.40507,-1.78658 -0.50977,-2.55729 -0.0221,-0.16298 -0.10034,-0.62018 -0.17378,-1.016 -0.65246,-3.51679 -0.80349,-4.77677 -0.63505,-5.29813 0.11196,-0.34657 0.34423,-0.62853 0.51775,-0.62853 0.0645,0 0.0504,-0.0563 -0.0388,-0.15483 -0.22036,-0.2435 -0.1828,-0.67602 0.0686,-0.79059 0.4699,-0.2141 1.72977,0.29194 2.02605,0.8138 0.0514,0.0906 0.12263,0.20489 0.15821,0.254 0.24028,0.33163 0.49851,0.77197 0.73808,1.25862 0.15268,0.31014 0.3298,0.60721 0.39358,0.66014 0.0638,0.0529 0.11598,0.1296 0.11598,0.17036 0,0.0408 0.13335,0.25972 0.29633,0.48658 0.16299,0.22686 0.29634,0.45674 0.29634,0.51085 0,0.0541 0.0571,0.12031 0.127,0.14712 0.0698,0.0268 0.127,0.0856 0.127,0.13068 0,0.0451 0.16472,0.33659 0.36605,0.6478 0.60645,0.93749 1.45295,2.62601 1.7898,3.57014 0.4182,1.17213 0.42152,1.18533 0.29899,1.18533 -0.072,0 -0.0787,0.0332 -0.0214,0.10583 0.0459,0.0582 0.0823,0.17447 0.0809,0.25835 -0.004,0.21382 -0.44073,0.56218 -0.64003,0.51006 -0.19799,-0.0518 -0.51519,-0.63105 -0.78008,-1.42457 -0.22861,-0.68484 -0.74253,-1.8331 -1.1094,-2.47877 l -0.25386,-0.44676 -0.26766,0.16491 c -0.39722,0.24474 -1.13265,0.52013 -1.70374,0.63798 l -0.50475,0.10416 0.022,0.41657 c 0.0121,0.22911 0.0797,0.6213 0.15032,0.87153 0.0706,0.25022 0.14224,0.57407 0.15922,0.71966 0.017,0.1456 0.10958,0.53964 0.20576,0.87567 0.13898,0.48552 0.15544,0.65362 0.0802,0.81879 -0.0559,0.12272 -0.14241,0.18955 -0.21117,0.16317 -0.0641,-0.0246 -0.11646,-0.005 -0.11646,0.0438 0,0.0954 -0.23627,0.0986 -0.48249,0.007 z m 1.19472,-5.41442 c 0.447,-0.0498 0.85061,-0.0672 0.89691,-0.0386 0.15214,0.094 0.088,-0.1485 -0.10991,-0.41564 -0.10676,-0.14409 -0.36235,-0.54774 -0.56797,-0.89699 -0.20563,-0.34925 -0.49523,-0.7874 -0.64357,-0.97367 -0.14834,-0.18626 -0.3442,-0.47201 -0.43523,-0.635 -0.091,-0.16298 -0.29002,-0.49825 -0.44218,-0.74504 -0.25677,-0.41646 -0.28724,-0.43912 -0.42398,-0.31537 -0.081,0.0733 -0.13454,0.21811 -0.11889,0.32171 0.22529,1.49165 0.29246,1.91469 0.3324,2.09337 0.026,0.11642 0.0995,0.51647 0.16321,0.889 0.15476,0.90446 0.19216,0.99113 0.38353,0.88871 0.0841,-0.045 0.51869,-0.12264 0.96568,-0.17249 z m 7.11109,4.0696 c -0.17963,-0.18509 -0.35058,-0.40417 -0.37989,-0.48683 -0.0718,-0.20248 0.0587,-0.46818 0.28641,-0.58316 0.10257,-0.0518 0.53349,-0.27182 0.95759,-0.48894 l 0.77111,-0.39478 -0.11628,-0.73873 c -0.15869,-1.00823 -0.40101,-2.17725 -0.78493,-3.78671 -0.17772,-0.74507 -0.36571,-1.60232 -0.41775,-1.905 -0.22463,-1.30664 -0.46053,-2.51116 -0.52512,-2.6813 -0.0662,-0.17441 -0.088,-0.17807 -0.43425,-0.073 -0.2005,0.0608 -0.59315,0.21578 -0.87255,0.34431 -0.2794,0.12853 -0.6604,0.24858 -0.84666,0.26677 -0.29515,0.0288 -0.38012,-0.006 -0.66123,-0.27228 -0.46013,-0.43559 -0.41576,-0.68442 0.17646,-0.9896 0.24561,-0.12656 0.60756,-0.27344 0.80433,-0.32637 0.19677,-0.0529 0.46627,-0.15231 0.59888,-0.22084 0.13262,-0.0685 0.30407,-0.13853 0.381,-0.15558 0.43353,-0.0961 2.34589,-0.93883 2.89469,-1.27565 0.5898,-0.36198 1.34374,-0.70915 1.57839,-0.72679 0.33977,-0.0255 0.68821,0.23559 0.89156,0.6682 0.13096,0.27862 0.1508,0.39681 0.0787,0.46893 -0.053,0.053 -0.0964,0.1634 -0.0964,0.24525 0,0.12029 -0.0609,0.1437 -0.3175,0.12208 -0.2557,-0.0215 -0.5647,0.0961 -1.5875,0.6042 -0.6985,0.34703 -1.28124,0.64179 -1.29498,0.65503 -0.0232,0.0223 0.0101,0.19131 0.24409,1.24028 0.048,0.21521 0.1044,0.53906 0.12531,0.71967 0.0209,0.18061 0.0625,0.44268 0.0923,0.58238 0.0299,0.1397 0.0657,0.3302 0.0795,0.42334 0.0832,0.55879 0.22736,1.22164 0.46038,2.11666 0.361,1.38655 0.69586,2.93779 0.79961,3.70417 0.0658,0.4863 0.0774,0.48791 1.10241,0.15377 0.96182,-0.31353 1.68312,-0.36016 2.099796,-0.13576 0.30837,0.16607 0.45711,0.42904 0.28304,0.50041 -0.0533,0.0219 -0.0302,0.0427 0.0513,0.0464 0.19185,0.009 0.18701,0.0445 -0.0423,0.3134 -0.22271,0.26109 -0.611706,0.4422 -1.094976,0.5098 -0.90675,0.12683 -3.66332,1.19238 -4.05464,1.56731 -0.16007,0.15337 -0.55611,0.32551 -0.7489,0.32551 -0.0849,0 -0.30135,-0.15144 -0.48099,-0.33652 z m 53.136676,-0.0622 c -0.65396,-0.24047 -0.5683,-0.68993 0.59364,-3.11494 0.29007,-0.60537 0.63888,-1.34629 0.77515,-1.64651 0.13627,-0.30022 0.30047,-0.66217 0.36489,-0.80434 0.10298,-0.22725 0.28382,-0.69204 0.67705,-1.74015 0.20121,-0.5363 0.58164,-1.30262 0.95105,-1.91572 0.19995,-0.33187 0.36355,-0.63667 0.36354,-0.67733 0,-0.104 -2.18925,-0.79837 -2.49765,-0.79221 -0.90167,0.018 -0.90281,0.0178 -1.15016,-0.27129 -0.13198,-0.15425 -0.24151,-0.32678 -0.24341,-0.38342 -0.005,-0.15095 0.27034,-0.70137 0.35091,-0.70137 0.0379,0 0.069,-0.051 0.069,-0.11341 0,-0.12459 0.34607,-0.30992 0.57875,-0.30992 0.0811,0 0.2935,0.0745 0.47202,0.16547 0.17851,0.091 0.539,0.20775 0.80107,0.25941 0.26207,0.0516 0.81939,0.20482 1.23849,0.34037 0.4191,0.13556 1.04775,0.28784 1.397,0.33839 0.96441,0.13961 1.4983,0.31442 2.26762,0.74251 0.53045,0.29516 0.71284,0.44267 0.7487,0.60554 0.0261,0.11842 0.0641,0.27757 0.0845,0.35368 0.021,0.0785 -0.0983,0.28911 -0.27576,0.48684 -0.42646,0.47504 -0.69867,0.46951 -1.55341,-0.0316 -0.7805,-0.45758 -1.18696,-0.56893 -1.18696,-0.32517 0,0.0894 -0.17145,0.4958 -0.381,0.90304 -0.20955,0.40724 -0.381,0.78352 -0.381,0.83616 0,0.10963 -0.41131,1.16666 -0.50366,1.29435 -0.0337,0.0466 -0.12952,0.31327 -0.213,0.59267 -0.0835,0.2794 -0.18497,0.54419 -0.22555,0.58843 -0.0406,0.0442 -0.0738,0.15928 -0.0738,0.25563 0,0.0964 -0.1905,0.56627 -0.42333,1.04426 -0.23284,0.47799 -0.42334,0.88461 -0.42334,0.90362 0,0.019 -0.1489,0.35109 -0.33088,0.73796 -0.18199,0.38689 -0.47003,1.02479 -0.64007,1.41756 -0.17006,0.39278 -0.38894,0.7833 -0.48641,0.86783 -0.17217,0.14933 -0.48532,0.18874 -0.74397,0.0936 z m -42.5216,-2.3236 c -0.2315,-0.0846 -0.40283,-0.46223 -0.40393,-0.89025 -6.8e-4,-0.27087 -0.088,-0.45143 -0.21822,-0.45143 -0.15242,0 -0.21676,-0.13395 -0.57553,-1.19812 -0.42312,-1.25506 -1.07793,-4.85397 -1.07116,-5.8872 9.8e-4,-0.14831 -0.0335,-0.36246 -0.0766,-0.47589 -0.0431,-0.11344 -0.0979,-0.41119 -0.12176,-0.66168 -0.0908,-0.95345 -0.16321,-1.27457 -0.29919,-1.326 -0.19256,-0.0728 -0.3473,-0.24067 -0.3473,-0.37671 0,-0.064 0.1176,-0.27627 0.26132,-0.47172 0.23794,-0.32354 0.29454,-0.35534 0.6324,-0.35534 0.20565,0 0.5151,-0.0751 0.69417,-0.16841 0.26757,-0.13947 0.50449,-0.17036 1.37844,-0.17971 1.637,-0.0175 2.71905,0.29926 3.4214,1.00161 0.44474,0.44473 0.51013,0.66432 0.51142,1.71717 0.001,1.10879 -0.10324,1.47289 -0.66881,2.32834 -0.3598,0.54421 -0.43356,0.62714 -0.68321,0.76804 -0.23871,0.13475 -0.24197,0.25097 -0.008,0.27037 0.34365,0.0284 1.0805,0.42206 1.53011,0.81739 1.15063,1.01169 1.55689,1.39887 1.90584,1.81635 0.20909,0.25016 0.4282,0.50502 0.48691,0.56637 0.0587,0.0614 0.20832,0.31389 0.33246,0.56118 0.12414,0.2473 0.33343,0.59843 0.46509,0.78031 0.28634,0.39554 0.29091,0.75863 0.0118,0.94149 -0.233,0.15267 -0.45209,0.15848 -0.71612,0.019 -0.47863,-0.25285 -0.75232,-0.56258 -1.2747,-1.44254 -0.30759,-0.51816 -1.03746,-1.30953 -1.81211,-1.96481 -0.27493,-0.23257 -0.57608,-0.49433 -0.66921,-0.58169 -0.44372,-0.41621 -1.6477,-0.65916 -1.76404,-0.35597 -0.079,0.20582 -0.89998,0.80601 -1.03281,0.75503 -0.1487,-0.0571 -0.14807,-0.0674 -0.0302,0.49548 0.0517,0.24677 0.16204,0.52486 0.24529,0.618 0.0832,0.0931 0.25568,0.49318 0.38316,0.889 0.12748,0.39581 0.26184,0.78117 0.29858,0.85634 0.0593,0.12135 0.10572,0.8234 0.0866,1.31024 -0.004,0.10322 -0.0967,0.21783 -0.22259,0.27516 -0.25148,0.11458 -0.3379,0.11467 -0.64994,8.5e-4 z m 1.02601,-7.11176 c 1.03734,-1.00776 1.39874,-1.81129 1.26255,-2.80711 -0.11616,-0.84941 -0.3406,-1.09473 -1.2113,-1.32395 -0.5581,-0.14692 -1.7557,-0.10336 -1.92924,0.0702 -0.0519,0.0519 -0.16778,0.0943 -0.2576,0.0943 -0.14813,0 -0.15776,0.0413 -0.10365,0.4445 0.0328,0.24447 0.0787,0.61595 0.10187,0.8255 0.0232,0.20955 0.0939,0.70485 0.15714,1.10066 0.0632,0.39582 0.13864,0.94827 0.16762,1.22767 0.029,0.2794 0.0895,0.64844 0.13458,0.82008 0.045,0.17166 0.0766,0.34311 0.0701,0.381 -0.0274,0.15978 0.0296,0.16266 0.4438,0.0224 0.3336,-0.11293 0.60615,-0.31317 1.16417,-0.85527 z m 36.96592,6.72918 c -0.51792,-0.11396 -0.6046,-0.19856 -0.79217,-0.77308 -0.18717,-0.57326 -0.2541,-1.06297 -0.30317,-2.21802 -0.0148,-0.34925 -0.0316,-0.67805 -0.0373,-0.73068 -0.007,-0.0611 -0.36641,-0.11793 -0.9949,-0.1572 -0.5415,-0.0338 -1.0943,-0.093 -1.22843,-0.13146 -0.213,-0.0611 -0.2587,-0.0412 -0.36091,0.1572 -0.0644,0.12493 -0.17408,0.41977 -0.24379,0.65519 -0.0697,0.23544 -0.30245,0.8723 -0.5172,1.41526 -0.21474,0.54296 -0.39044,1.11988 -0.39044,1.28205 v 0.29486 l -0.48253,-0.0279 c -0.39904,-0.023 -0.51623,-0.067 -0.67733,-0.25433 -0.26905,-0.31278 -0.24706,-0.55097 0.14939,-1.61851 0.30759,-0.82826 0.83541,-2.278 1.26221,-3.46686 0.0836,-0.23283 0.40049,-1.05458 0.70423,-1.82611 0.30373,-0.77151 0.66676,-1.83831 0.80671,-2.37066 0.4184,-1.59136 0.45314,-1.638 1.04657,-1.40489 l 0.34418,0.1352 -0.0514,-0.32154 c -0.0661,-0.41365 0.0796,-0.61696 0.45952,-0.64091 0.35086,-0.0221 0.69817,0.19646 0.82819,0.52122 0.0783,0.19566 0.43335,2.04159 0.56481,2.93682 0.13033,0.88747 0.1971,2.47212 0.17333,4.11387 -0.0317,2.19057 0.0452,3.23218 0.27742,3.75714 0.09,0.20351 0.13938,0.40342 0.10969,0.44427 -0.0551,0.0758 -0.41454,0.29391 -0.455,0.2761 -0.0123,-0.005 -0.0985,-0.0266 -0.19165,-0.0471 z m -1.06447,-5.8486 c 0.0104,-1.05029 -0.0649,-1.97893 -0.27314,-3.3655 -0.10378,-0.69103 -0.20833,-0.84378 -0.31876,-0.46566 -0.034,0.11641 -0.14488,0.49741 -0.2464,0.84666 -0.17938,0.61704 -0.78072,2.32557 -0.9387,2.667 -0.14507,0.31355 -0.33563,0.91512 -0.30088,0.94987 0.019,0.019 0.33368,0.0868 0.6994,0.15078 0.36572,0.064 0.7602,0.1544 0.87662,0.20097 0.48766,0.19504 0.49019,0.19008 0.50186,-0.98412 z m -12.19181,4.94879 c -0.16626,-0.0559 -0.39486,-0.16017 -0.508,-0.23173 -0.43177,-0.27309 -0.65537,-0.33233 -0.91404,-0.24216 -0.32962,0.11491 -0.86286,-0.0287 -1.01492,-0.2734 -0.23181,-0.37299 -0.19042,-5.25072 0.0613,-7.22833 0.0474,-0.37253 0.10924,-1.36313 0.13735,-2.20133 0.0365,-1.08916 0.0829,-1.55613 0.16261,-1.63658 0.16846,-0.17012 1.60196,-0.25071 2.84361,-0.15986 0.84174,0.0616 1.18605,0.17143 2.0875,0.666 0.85557,0.46939 0.9844,0.58447 1.46922,1.31248 0.51916,0.77953 0.74035,1.45892 0.85077,2.61314 0.0984,1.02835 0.0762,1.24092 -0.22295,2.13844 -0.11287,0.33858 -0.20521,0.67294 -0.20521,0.743 0,0.24878 -0.76529,1.73828 -1.28758,2.50606 -0.64742,0.95171 -1.18277,1.49101 -1.7763,1.7894 -0.52369,0.26329 -1.24758,0.35138 -1.6834,0.20487 z m 0.79154,-1.5038 c 0.35929,-0.23798 0.5735,-0.45004 1.03474,-1.02429 0.54093,-0.67346 1.33446,-2.44551 1.60532,-3.58486 0.0839,-0.353 0.0631,-1.53614 -0.0363,-2.06013 -0.0455,-0.23977 -0.22589,-0.72558 -0.40093,-1.07959 -0.29328,-0.59313 -0.36159,-0.66913 -0.87018,-0.96817 -0.30355,-0.17849 -0.72336,-0.37062 -0.93291,-0.42694 -0.38745,-0.10414 -1.77957,-0.14086 -1.92533,-0.0508 -0.044,0.0272 -0.10496,0.61285 -0.13554,1.3015 -0.0306,0.68866 -0.095,1.57595 -0.14324,1.97176 -0.0962,0.78939 -0.16818,4.2985 -0.10566,5.1482 l 0.0393,0.53386 0.43674,0.19617 c 0.84299,0.37864 0.92399,0.38108 1.43401,0.0433 z m 28.46529,14.67101 c -0.71815,-0.37579 -1.0548,-0.60578 -1.85514,-1.26733 -0.18309,-0.15134 -0.37544,-0.27516 -0.42745,-0.27516 -0.052,0 -0.35948,-0.17438 -0.68326,-0.3875 -0.7945,-0.52295 -1.36566,-0.7744 -2.21986,-0.97728 -0.3945,-0.0937 -0.77943,-0.20515 -0.8554,-0.24768 -0.076,-0.0425 -0.5191,-0.23407 -0.98477,-0.42566 -0.46567,-0.19159 -1.09048,-0.45975 -1.38848,-0.59592 -0.298,-0.13616 -0.54873,-0.23738 -0.55719,-0.22493 -0.29246,0.43038 -0.49261,0.95431 -0.52923,1.38538 l -0.0438,0.51607 0.49737,0.0949 c 0.27356,0.0522 0.70693,0.11956 0.96305,0.14969 0.5185,0.061 1.49222,0.30075 2.20133,0.54205 0.39939,0.1359 1.3499,0.44359 3.96173,1.28244 0.29301,0.0941 0.70192,0.24594 0.9087,0.33741 0.20678,0.0915 0.40521,0.16806 0.44094,0.1702 0.0357,0.002 0.11259,0.0434 0.1708,0.0917 0.0582,0.0483 0.10583,0.0661 0.10583,0.0396 0,-0.0265 0.14287,0.004 0.3175,0.0683 0.17462,0.0641 0.41275,0.11808 0.52917,0.11989 0.14417,0.002 -0.0318,-0.12408 -0.55179,-0.3962 z"
       id="path836"
       sodipodi:nodetypes="cssssssssscssssssssssssscsssssccssssssssccscsscccssssscssssssssssscssscsssssssssscssscsssscssssscssssscsssscssscsscscsssssscsssccssscsscscsssscsccsssssssscsssssscssssssssssccsccsssscssccccccsscscssssssscssssssssssssssssssssscssssssssssssscssssssssscsssssssccsccssssscssssssssscsssccscccssssssssssssssccssscsssssssssssssssssssssssscsssscsscccsssscsssssscccsssssccscsccscssssssssssssssscssssscsssssscsssscssccssssscsssscssssscsssssssssssssssssccssssscsscsssscscssccccssccccsscssssssccsssssscsscscsscssccccsssssssssssssssssssscssssscsssscssscssssssssssscscccscscssccsscssscccsssscscsssssssssssscscccsccscssssssssscssssssssssscscsssssssssscsssssssscccsssssssssssssscssssssssssssssssssssssscscscsccsscccsscssssssssscssscsscsssssssccsssssssscscssssssscsssscsscssssscssscscssccsssscccssssscsssssssscsssscssssscsssssscsssssscccsssssssssscsscsscsscssssssssssssscccccsssssscscsccccsscsssssscccssscscssssssscccssssssssscssssscssssssssccssssssssssscssscssssssssscssssscsscccc" />
  </g>
</svg>
