<?xml version="1.0" encoding="UTF-8" standalone="no"?>
<!-- Created with Inkscape (http://www.inkscape.org/) -->

<svg
   width="87.157928mm"
   height="172.72429mm"
   viewBox="0 0 87.157928 172.72429"
   version="1.1"
   id="svg5"
   sodipodi:docname="datalad copy 3.svg"
   inkscape:version="1.1.1 (c3084ef, 2021-09-22)"
   xmlns:inkscape="http://www.inkscape.org/namespaces/inkscape"
   xmlns:sodipodi="http://sodipodi.sourceforge.net/DTD/sodipodi-0.dtd"
   xmlns="http://www.w3.org/2000/svg"
   xmlns:svg="http://www.w3.org/2000/svg">
  <sodipodi:namedview
     id="namedview7"
     pagecolor="#ffffff"
     bordercolor="#666666"
     borderopacity="1.0"
     inkscape:pageshadow="2"
     inkscape:pageopacity="0.0"
     inkscape:pagecheckerboard="0"
     inkscape:document-units="mm"
     showgrid="false"
     inkscape:zoom="0.42851776"
     inkscape:cx="822.60301"
     inkscape:cy="372.21328"
     inkscape:window-width="1606"
     inkscape:window-height="1319"
     inkscape:window-x="0"
     inkscape:window-y="25"
     inkscape:window-maximized="0"
     inkscape:current-layer="layer1" />
  <defs
     id="defs2" />
  <g
     inkscape:label="Layer 1"
     inkscape:groupmode="layer"
     id="layer1"
     transform="translate(-76.046508,-65.980035)">
    <path
       style="fill:#007c00;fill-opacity:0.489879;stroke-width:0.547987"
       d="m 77.801032,237.73533 c -0.198052,-0.5275 -0.74496,-1.26255 -1.215755,-1.63355 -0.668846,-0.52684 -0.704767,-0.77466 -0.164396,-1.13239 0.539142,-0.35662 0.553381,-0.85447 0.06472,-2.25669 -0.60969,-1.74933 -0.423935,-20.55495 0.311964,-31.55551 0.526197,-7.86824 1.376203,-56.96126 1.693475,-97.8157 0.130093,-16.727309 0.255008,-30.844866 0.278308,-31.372293 0.02589,-0.640109 0.532669,-0.990131 1.515228,-1.052718 0.810136,-0.05178 1.966087,-0.128798 2.568916,-0.170868 0.60257,-0.04531 2.134107,0.414226 3.403,1.014272 1.729913,0.818551 2.40905,1.512445 2.714672,2.774023 0.638815,2.63571 0.235591,27.889424 -0.451766,28.314264 -0.412285,0.25501 -0.411638,0.4207 0,0.56438 0.402576,0.1398 0.636873,8.37469 0.746967,26.23277 l 0.160512,26.02941 3.543837,0.56244 c 2.232681,0.35468 5.071233,0.38446 7.671866,0.0816 2.27035,-0.26471 10.66264,-0.54561 18.64958,-0.62457 19.78306,-0.19547 17.93212,0 18.35605,-1.93095 0.39999,-1.82156 4.13023,-5.33284 6.2235,-5.85819 2.33365,-0.58575 10.69591,2.72464 9.61452,3.80603 -0.16051,0.16051 0.10744,0.255 0.59545,0.2097 0.5359,-0.0518 1.68972,1.20022 2.91343,3.15615 1.86681,2.98372 2.02149,3.5439 1.96752,7.12385 -0.0705,4.65934 -0.20259,5.29045 -1.84765,8.81733 -1.39646,2.99369 -1.96039,3.5683 -5.18592,5.28307 -1.80719,0.96081 -2.72063,1.0911 -5.58824,0.79732 -6.66594,-0.68296 -10.06104,-4.02305 -10.06104,-9.89781 0,-2.0123 -0.17993,-2.38938 -1.23297,-2.5805 -1.80901,-0.32815 -24.72939,-0.0718 -33.10867,0.37086 -4.202656,0.222 -8.260457,0.15857 -9.716593,-0.1521 -1.820655,-0.38834 -2.646131,-0.35792 -3.036474,0.11262 -0.314553,0.37927 -0.561148,6.4031 -0.597392,14.59002 -0.03236,7.66928 -0.276367,16.41004 -0.539142,19.42399 -0.50678,5.81386 -0.868581,12.76847 -1.38164,26.57735 -0.398693,10.73209 -0.519077,11.3335 -2.463806,12.33929 -2.24336,1.16003 -5.945185,1.07537 -6.403682,-0.14627 z"
       id="path836"
       sodipodi:nodetypes="cssssscscssscscsssssscsssssssssscssscc" />
    <path
       style="fill:#000000;stroke-width:0.547987"
       d="m 82.034383,232.9728 c -0.19805,-0.5275 -0.74496,-1.26255 -1.21575,-1.63355 -0.66885,-0.52684 -0.70477,-0.77466 -0.1644,-1.13239 0.53914,-0.35662 0.55338,-0.85447 0.0647,-2.25668 -0.60969,-1.74933 -0.42394,-20.55495 0.31196,-31.55551 0.5262,-7.86825 1.37621,-56.96127 1.69348,-97.815691 0.13009,-16.727292 0.25501,-30.844852 0.27831,-31.372282 0.0259,-0.64011 0.53266,-0.99013 1.51522,-1.05272 0.81014,-0.0518 1.96609,-0.12879 2.56892,-0.17086 0.60257,-0.0453 2.13411,0.41422 3.403,1.01427 1.72991,0.81855 2.40905,1.51244 2.71467,2.77402 0.63882,2.63571 0.23559,27.889418 -0.45176,28.314245 -0.41229,0.25501 -0.41164,0.420697 0,0.564377 0.40257,0.1398 0.63687,8.374681 0.74696,26.232761 l 0.16052,26.02941 3.54383,0.56245 c 2.23268,0.35468 5.071247,0.38445 7.671897,0.0816 2.27035,-0.26471 10.66264,-0.54561 18.64958,-0.62457 19.78306,-0.19547 17.93212,0 18.35605,-1.93095 0.39999,-1.82156 4.13023,-5.33284 6.2235,-5.85819 2.33365,-0.58575 10.69591,2.72464 9.61452,3.80603 -0.16051,0.1605 0.10744,0.25499 0.59545,0.20969 0.5359,-0.0518 1.68972,1.20023 2.91343,3.15615 1.86681,2.98373 2.02149,3.54391 1.96752,7.12385 -0.0705,4.65935 -0.20259,5.29045 -1.84765,8.81733 -1.39646,2.99369 -1.96039,3.5683 -5.18592,5.28308 -1.80719,0.96081 -2.72063,1.0911 -5.58824,0.79732 -6.66594,-0.68296 -10.06104,-4.02305 -10.06104,-9.89781 0,-2.0123 -0.17993,-2.38938 -1.23297,-2.5805 -1.80901,-0.32815 -24.72939,-0.0718 -33.10867,0.37086 -4.20268,0.222 -8.260487,0.15857 -9.716617,-0.1521 -1.82066,-0.38834 -2.64614,-0.35792 -3.03648,0.11262 -0.31455,0.37927 -0.56115,6.4031 -0.59739,14.59002 -0.0324,7.66928 -0.27637,16.41004 -0.53914,19.42399 -0.50678,5.81386 -0.86858,12.76847 -1.38164,26.57735 -0.3987,10.73209 -0.51908,11.3335 -2.46381,12.33929 -2.24336,1.16003 -5.94518,1.07537 -6.40368,-0.14627 z"
       id="path836-3"
       sodipodi:nodetypes="cssssscscssscscsssssscsssssssssscssscc" />
  </g>
</svg>
