<?xml version="1.0" encoding="UTF-8" standalone="no"?>
<!-- Created with Inkscape (http://www.inkscape.org/) -->

<svg
   width="515.1825mm"
   height="705.18536mm"
   viewBox="0 0 515.1825 705.18536"
   version="1.1"
   id="svg15443"
   inkscape:version="1.1.1 (c3084ef, 2021-09-22)"
   sodipodi:docname=" filetree_3d_diamond.svg"
   xmlns:inkscape="http://www.inkscape.org/namespaces/inkscape"
   xmlns:sodipodi="http://sodipodi.sourceforge.net/DTD/sodipodi-0.dtd"
   xmlns="http://www.w3.org/2000/svg"
   xmlns:svg="http://www.w3.org/2000/svg">
  <sodipodi:namedview
     id="namedview15445"
     pagecolor="#ffffff"
     bordercolor="#666666"
     borderopacity="1.0"
     inkscape:pageshadow="2"
     inkscape:pageopacity="0.0"
     inkscape:pagecheckerboard="0"
     inkscape:document-units="mm"
     showgrid="false"
     inkscape:zoom="0.45583868"
     inkscape:cx="184.27572"
     inkscape:cy="1304.1894"
     inkscape:window-width="1440"
     inkscape:window-height="775"
     inkscape:window-x="491"
     inkscape:window-y="260"
     inkscape:window-maximized="0"
     inkscape:current-layer="layer1" />
  <defs
     id="defs15440">
    <clipPath
       clipPathUnits="userSpaceOnUse"
       id="clipPath16615">
      <rect
         style="fill:#e6e6e6;stroke-width:1.19827;stroke-dasharray:0, 13.1809"
         id="rect16617"
         width="790.22479"
         height="1226.9279"
         x="-1668.83"
         y="-280.73773" />
    </clipPath>
    <clipPath
       clipPathUnits="userSpaceOnUse"
       id="clipPath16723">
      <rect
         style="fill:#e6e6e6;stroke-width:0.765;stroke-dasharray:0, 8.41499"
         id="rect16725"
         width="779.82703"
         height="829.21613"
         x="-317.12967"
         y="1138.5472" />
    </clipPath>
    <clipPath
       clipPathUnits="userSpaceOnUse"
       id="clipPath16615-6">
      <rect
         style="fill:#e6e6e6;stroke-width:1.19827;stroke-dasharray:0, 13.1809"
         id="rect16617-4"
         width="790.22479"
         height="1226.9279"
         x="-1668.83"
         y="-280.73773" />
    </clipPath>
  </defs>
  <g
     inkscape:label="Layer 1"
     inkscape:groupmode="layer"
     id="layer1"
     transform="translate(1810.1755,-1012.5785)">
    <g
       id="g18494"
       transform="matrix(215.89999,0,0,-294.30133,0,294.30133)" />
    <path
       style="fill:#000000;stroke-width:0.68923"
       d="m -1641.776,1522.7539 c -1.4623,-0.5291 -3.6334,-1.5703 -4.8246,-2.3062 -1.1913,-0.7326 -6.1851,-3.0901 -11.0973,-5.2319 -4.9123,-2.1425 -11.9765,-5.4508 -15.6985,-7.3517 -3.7219,-1.9016 -7.1464,-3.515 -7.6101,-3.585 -0.464,-0.081 -1.3083,-0.4233 -1.8769,-0.7815 -0.5682,-0.3582 -3.2049,-1.7779 -5.8585,-3.1512 -6.281,-3.2505 -11.628,-6.2519 -12.0614,-6.7705 -0.1897,-0.2279 -1.4302,-0.9768 -2.757,-1.6655 -4.6531,-2.4177 -7.2434,-3.848 -7.9637,-4.3967 -1.462,-1.1136 -3.4852,-2.2533 -6.8547,-3.8619 -1.8954,-0.9052 -4.6868,-2.4747 -6.203,-3.489 -1.5164,-1.0135 -3.3377,-2.2248 -4.0476,-2.692 -0.7098,-0.464 -1.6403,-1.1592 -2.0677,-1.5378 -1.719,-1.5247 -6.6296,-3.6689 -7.0064,-3.0592 -0.7115,1.1519 -6.0884,0.692 -8.3983,-0.7163 -1.2218,-0.7408 -2.4081,-2.0979 -2.6361,-3.0063 -0.5845,-2.3298 0.883,-7.3509 2.1489,-7.3509 1.691,0 1.9298,-1.9668 0.5975,-4.9209 -0.8969,-1.9888 -1.0562,-3.0918 -0.5609,-3.8774 0.381,-0.6024 3.6622,-2.0799 7.2915,-3.2806 3.6292,-1.1999 8.1887,-3.1601 10.132,-4.356 1.9434,-1.1958 3.7009,-2.1743 3.9055,-2.1743 0.2043,0 1.8121,-0.6594 3.5722,-1.458 5.0201,-2.2866 8.1415,-1.9228 11.3928,1.3286 2.2931,2.2931 2.6427,3.0152 2.2708,4.6938 -0.3826,1.7258 -1.4975,2.4975 -8.5905,5.9474 -4.483,2.1809 -9.1258,4.3047 -10.3175,4.7199 -2.5757,0.8979 -2.678,1.3399 -0.6162,2.6603 5.8409,3.7414 20.2292,12.3785 23.9507,14.3778 2.464,1.3236 5.2554,2.9419 6.2031,3.5964 7.0803,4.8909 24.6366,13.9814 51.6922,26.766 2.4639,1.1641 5.7066,2.9843 7.2059,4.0442 l 2.7261,1.9261 4.5109,-2.9868 c 4.7896,-3.1707 12.1795,-6.8624 17.2765,-8.6289 3.6393,-1.2618 9.3306,-3.5835 19.2835,-7.8662 3.9803,-1.7127 12.3803,-4.9046 18.6664,-7.0928 6.2863,-2.1882 13.1097,-4.9185 15.1631,-6.0671 2.0534,-1.1486 8.1417,-3.9742 13.5295,-6.2796 5.3878,-2.3054 12.6764,-5.7659 16.1969,-7.6912 3.5205,-1.9244 7.758,-4.0417 9.4167,-4.7044 l 3.0158,-1.2039 -4.0497,-2.2818 c -2.2272,-1.2545 -4.7138,-2.9347 -5.5256,-3.7333 -0.8116,-0.7977 -5.1539,-3.3262 -9.6492,-5.6185 l -8.1732,-4.1663 0.065,-3.0023 c 0.057,-2.4095 0.4673,-3.3547 2.0946,-4.7931 1.115,-0.985 1.7051,-1.5923 1.3112,-1.3505 -1.7885,1.1014 -14.6106,6.313 -15.5345,6.3138 -0.5682,0 -1.1889,0.1872 -1.3785,0.4151 -0.442,0.5373 -13.258,6.278 -13.9947,6.2723 -1.0737,0 -25.3132,11.5441 -25.9806,12.3833 -1.7021,2.1394 -12.6181,6.5849 -17.7192,7.2158 -1.8986,0.2361 -5.0253,2.2354 -5.0253,3.2155 0,0.8336 -5.6231,0.5861 -6.2597,-0.2768 -0.2206,-0.3012 -2.0818,-0.635 -4.1361,-0.7489 -2.877,-0.1628 -5.3974,-1.0436 -10.9712,-3.8464 -3.9799,-2.0009 -8.8839,-4.0686 -10.8979,-4.5945 -4.465,-1.1649 -8.5965,-3.0087 -14.9474,-6.6712 -2.6535,-1.5296 -6.9957,-3.8252 -9.6491,-5.1 -2.6536,-1.2748 -5.2899,-2.6066 -5.8585,-2.9599 -0.569,-0.35 -3.1454,-1.7266 -5.7263,-3.0535 -2.5809,-1.3261 -6.7679,-3.7845 -9.3046,-5.4622 -2.5366,-1.6786 -7.2485,-4.5172 -10.4706,-6.3081 -5.8793,-3.2684 -12.3158,-6.9553 -17.0852,-9.7882 -1.4069,-0.8352 -5.8145,-3.1365 -9.7948,-5.113 -8.6801,-4.3104 -10.0865,-5.3329 -11.7048,-8.5068 -1.205,-2.364 -1.2028,-2.4886 0.073,-4.1086 0.8067,-1.0265 1.244,-2.5203 1.1323,-3.8724 -0.1677,-2.0319 0.1237,-2.3689 3.781,-4.3641 2.1796,-1.1885 7.2651,-4.5636 11.3011,-7.4982 4.036,-2.9355 7.9714,-5.3378 8.7452,-5.3378 0.7742,0 2.4189,0.692 3.6557,1.541 3.9582,2.7124 3.8306,6.7257 -0.302,9.4902 -1.4029,0.9386 -3.9846,2.8199 -5.7371,4.1794 l -3.1863,2.4739 1.8079,0.7815 c 3.165,1.361 20.1711,10.3994 21.2459,11.2908 0.5682,0.4722 1.3897,0.924 1.8253,1.0046 1.8966,0.35 9.847,3.9506 11.3696,5.148 0.9184,0.7245 2.0932,1.3131 2.6107,1.3131 0.5177,0 0.9409,0.2361 0.9409,0.521 0,0.5128 2.9385,2.1401 8.96,4.9632 4.0529,1.9 9.1952,4.9259 10.7919,6.3496 0.6985,0.6187 3.8131,2.4096 6.9218,3.9702 3.1087,1.5613 6.0632,3.2195 6.5654,3.6844 0.8893,0.8246 5.1525,2.9745 8.9762,4.5269 1.0424,0.4233 1.8954,1.1201 1.8954,1.5475 0,0.4314 0.455,0.6024 1.0118,0.3907 0.5568,-0.2116 1.1797,-0.1139 1.3849,0.2117 0.5682,0.9191 6.146,3.9058 8.3082,4.4488 1.0533,0.2686 2.0995,0.2116 2.325,-0.114 0.2255,-0.3256 1.1495,-1.1022 2.0534,-1.7201 1.5083,-1.0314 1.8762,-1.0338 4.4799,0 1.5603,0.6024 3.1314,1.3587 3.4915,1.681 1.4171,1.2675 0.041,1.9065 59.6528,-27.6687 2.8431,-1.4108 8.1727,-3.7105 11.8437,-5.1106 3.671,-1.401 6.7725,-2.7637 6.8923,-3.0283 0.3444,-0.7571 10.2697,-5.507 14.717,-7.0375 2.2228,-0.7652 5.2199,-1.4368 6.6603,-1.4929 1.4404,-0.081 2.6189,-0.1954 2.6189,-0.3175 0,-0.114 -0.8867,-0.6757 -1.9703,-1.2325 -1.0837,-0.5617 -4.4179,-3.3612 -7.4093,-6.2242 -2.9914,-2.863 -5.9816,-5.3801 -6.645,-5.5934 -0.6634,-0.2116 -1.2061,-0.6756 -1.2061,-1.0297 0,-0.3501 -0.372,-0.6431 -0.8271,-0.6431 -0.6431,0 -0.6431,0.1872 0,0.8271 1.3568,1.357 0.9439,2.2687 -1.0699,2.3631 -1.0415,0.081 -2.359,0.2036 -2.9276,0.3419 -0.6977,0.171 -1.105,-0.3581 -1.2524,-1.6443 -0.1685,-1.4653 0.1473,-2.036 1.3784,-2.4943 0.8784,-0.3256 1.9847,-0.4477 2.4586,-0.2686 1.0555,0.3989 1.0915,-0.171 0.1245,-1.9765 -0.5364,-1.003 -0.5136,-1.6469 0.085,-2.3673 0.6488,-0.7815 0.6146,-0.9899 -0.1587,-0.9899 -0.5389,0 -1.2751,0.2686 -1.6351,0.6024 -0.3599,0.3338 -2.5158,1.2862 -4.7902,2.1198 -2.2745,0.8336 -5.0659,1.944 -6.2031,2.4666 -1.1372,0.521 -3.3083,1.3985 -4.8246,1.9447 -1.5163,0.5455 -9.6676,3.8171 -18.114,7.2679 -8.4463,3.4507 -17.2857,6.921 -19.643,7.7123 -2.3573,0.7896 -8.9383,3.3099 -14.6244,5.5966 -13.0697,5.2571 -14.8311,5.774 -15.5834,4.5684 -0.464,-0.7407 -0.81,-0.757 -1.8,-0.081 -3.1305,2.2045 -4.3086,2.2916 -7.2963,0.5454 -3.0869,-1.8088 -11.3668,-5.8847 -11.9544,-5.8847 -0.5706,0 -9.6246,-4.0402 -17.9819,-8.0233 -4.2616,-2.0319 -7.9093,-3.6933 -8.1059,-3.6933 -0.197,0 -1.6724,-0.6106 -3.2794,-1.3465 -1.6069,-0.7408 -4.6025,-1.9977 -6.6569,-2.793 -2.0544,-0.7978 -5.0432,-2.0424 -6.6419,-2.771 -1.5987,-0.7245 -6.5675,-2.7385 -11.0418,-4.4683 -4.4744,-1.7291 -8.464,-3.4028 -8.8658,-3.7194 -0.4021,-0.3175 -1.9712,-0.9704 -3.4875,-1.4539 -1.5163,-0.4803 -6.0056,-2.5399 -9.9761,-4.5701 -3.9707,-2.0294 -7.4591,-3.6901 -7.7521,-3.6901 -0.293,0 -2.4719,-0.8784 -4.8422,-1.9521 -2.3703,-1.0737 -5.24,-2.259 -6.3772,-2.6343 -1.1372,-0.3744 -2.0062,-0.9996 -1.931,-1.3879 0.073,-0.3908 -1.0701,-1.3831 -2.5451,-2.2118 -1.475,-0.8287 -2.8678,-2.0929 -3.0949,-2.8085 -1.1046,-3.48 -0.9474,-4.312 1.2251,-6.479 1.486,-1.4832 2.1359,-2.7271 1.9828,-3.7951 -0.1253,-0.8743 0.289,-2.1605 0.9201,-2.8581 1.0111,-1.1177 15.8268,-6.9813 22.3968,-8.8642 6.165,-1.7665 33.4064,-11.2567 35.7601,-12.4574 10.8122,-5.516 52.0262,-20.011 57.3313,-20.1633 1.6808,-0.081 4.6068,0.4071 6.5022,1.0062 4.66,1.48 41.4134,16.2338 47.5568,19.0903 6.5211,3.0332 10.4692,4.6743 12.3437,5.1318 1.1029,0.2686 7.1509,2.6701 13.44,5.3353 6.2891,2.666 12.055,5.1073 12.8132,5.4264 3.4102,1.4352 22.9313,10.4769 24.5739,11.3821 1.0063,0.5535 2.4174,1.0086 3.1361,1.0086 4.5783,0 3.7398,6.221 -1.4551,10.7967 -1.362,1.1991 -2.4765,2.6929 -2.4765,3.3181 0,1.0168 -4.6503,3.5118 -13.2677,7.1181 -1.0425,0.4396 -1.8953,1.0542 -1.8953,1.3749 0,0.3175 2.7138,3.1732 6.0307,6.3406 3.3169,3.1675 7.8141,7.4632 9.9938,9.5456 2.1797,2.0823 3.9631,4.1867 3.9631,4.6767 0,0.4884 0.639,1.2333 1.4203,1.6517 1.9238,1.029 1.5908,5.4965 -0.4868,6.5328 -1.0816,0.5372 -1.2509,0.9622 -0.7204,1.8031 1.2157,1.9269 -1.4986,7.2792 -4.3479,8.5736 -3.689,1.6753 -5.0929,2.351 -15.306,7.3631 -5.2135,2.5585 -9.7771,4.6523 -10.1412,4.6523 -0.3639,0 -0.884,0.3581 -1.1553,0.7977 -0.337,0.5454 -0.033,0.6757 0.9729,0.4152 1.9414,-0.5047 10.2609,3.6974 16.78,8.4808 2.7824,2.0416 5.2139,3.8854 5.4035,4.0971 0.1896,0.2116 1.9453,1.3969 3.9018,2.6343 3.322,2.101 4.7711,3.7885 4.4541,5.1871 -0.073,0.3256 0.1938,0.9834 0.5927,1.4645 0.921,1.1095 -2.4578,5.183 -4.2995,5.183 -2.0522,0 -2.2226,1.9879 -0.3435,4.0035 3.9345,4.2217 3.8055,5.271 -0.8602,6.9952 -4.3109,1.593 -13.3502,6.3813 -17.1706,9.0953 -2.0519,1.458 -4.0094,2.6506 -4.3502,2.6506 -0.6016,0 -8.7494,3.7096 -13.6299,6.2055 -7.1669,3.6657 -18.8472,8.5874 -26.0635,10.9823 -4.5036,1.4955 -9.8639,3.4972 -11.9117,4.4488 -2.0477,0.9525 -6.9797,2.9982 -10.96,4.5465 -3.9803,1.5483 -8.1674,3.2472 -9.3046,3.7756 -1.1372,0.5291 -3.7933,1.6142 -5.9025,2.4144 -2.1091,0.7978 -5.8309,2.6823 -8.2707,4.1834 -4.9295,3.0316 -8.4404,3.5241 -11.3834,1.5956 -1.6547,-1.0843 -1.8102,-1.0575 -3.5942,0.6105 -2.4918,2.3323 -4.105,2.6669 -7.2802,1.5109 z m 12.0743,-120.7424 c 1.2931,-1.5206 2.0893,-1.8519 4.0243,-1.6745 1.3268,0.1222 2.6875,0.4885 3.0237,0.8182 0.346,0.3419 1.694,0.1791 3.1016,-0.3582 1.3695,-0.5292 7.96,-2.9664 14.6455,-5.4224 11.4255,-4.1973 40.6444,-15.5622 43.6721,-16.9868 0.7579,-0.3582 4.1699,-1.7152 7.5816,-3.0185 8.2437,-3.1496 26.7458,-10.7284 27.13,-11.1126 0.3273,-0.3256 -14.725,-7.6838 -16.447,-8.0379 -0.569,-0.114 -1.1889,-0.4071 -1.3784,-0.6431 -0.6154,-0.7734 -11.9314,-5.9345 -16.8862,-7.7001 -2.6534,-0.9451 -5.755,-2.1044 -6.8922,-2.5757 -5.0862,-2.1076 -6.5072,-2.6652 -11.3723,-4.4634 -2.8431,-1.051 -5.4921,-2.1605 -5.8868,-2.4666 -0.3948,-0.3012 -4.5817,-1.9423 -9.3046,-3.638 -4.7229,-1.6957 -13.2393,-5.004 -18.9254,-7.3525 -8.4122,-3.4744 -11.0448,-4.2681 -14.1293,-4.2624 -3.8489,0.01 -13.3548,2.7613 -27.9137,8.086 -3.7908,1.3863 -9.3392,3.2953 -12.3297,4.242 -2.9904,0.9468 -7.6427,2.7987 -10.3384,4.115 -2.6956,1.3164 -10.0186,4.1061 -16.2733,6.199 -6.2548,2.093 -11.667,4.0923 -12.0272,4.4431 -0.3598,0.3501 -1.2755,0.635 -2.0342,0.635 -2.9722,0 -23.9186,8.4799 -23.0142,9.3176 0.1107,0.1058 2.0627,0.9663 4.3371,1.9195 2.2745,0.9533 6.8676,3.0014 10.2069,4.5522 3.3394,1.5508 6.2273,2.8199 6.4175,2.8199 0.1905,0 2.9816,1.2406 6.203,2.7563 3.2214,1.5166 6.1115,2.7572 6.4224,2.7572 0.3109,0 2.2309,0.7408 4.2669,1.6403 2.0359,0.902 6.4931,2.7906 9.9048,4.1965 3.4117,1.405 7.1335,2.9688 8.2707,3.4743 1.1373,0.5048 3.6185,1.5345 5.5138,2.2859 3.2061,1.2707 15.2408,7.0334 17.5754,8.4157 0.5682,0.3337 5.0658,2.193 9.9938,4.1247 4.928,1.9318 9.2547,3.8049 9.6148,4.1615 1.0049,0.9956 1.5022,0.8059 3.247,-1.2463 z"
       id="path20085"
       sodipodi:nodetypes="ccsscssssssscsscssssssscssssssssscsssssssscsssccscsccsssscsssscssssssssssscssccsssssscsssssccsscssssscscssssccsssssssssssssssccssscscsscssssssssssssccsssssssscsssssssssssssssssssssssssssssssccssscssssccssscssssssssssssssssssssssss" />
    <path
       style="fill:#ff00ff;stroke-width:23.8275;stroke-dasharray:0, 262.103"
       d="m 597.47202,1440.709 c -33.9941,-15.9325 -110.01726,-49.3338 -168.94036,-74.2251 -58.92311,-24.8913 -110.25567,-48.2383 -114.07236,-51.8822 -3.8167,-3.6439 7.30865,-11.1972 24.72298,-16.7852 17.41433,-5.588 95.76697,-33.9196 174.11697,-62.9591 78.35001,-29.0395 154.37317,-53.1179 168.94036,-53.5076 26.02797,-0.6963 262.32198,87.6007 339.78769,126.9699 l 39.4164,20.0319 -64.0609,26.6686 c -129.33344,53.8417 -273.04378,105.7051 -305.13935,110.1213 -26.47506,3.6428 -45.13069,-1.1667 -94.77143,-24.4325 z"
       id="path1328"
       transform="matrix(0.26458333,0,0,0.26458333,-1810.1755,1012.5785)" />
    <path
       style="fill:#ff00ff;stroke-width:10.9737;stroke-dasharray:0, 120.71"
       d="m 630.02899,1452.1521 c -14.61212,-5.8829 -42.79263,-17.9661 -62.62336,-26.8515 -19.83074,-8.8855 -74.48385,-32.8482 -121.45138,-53.2504 -103.7645,-45.0742 -129.04208,-56.9721 -129.04208,-60.7388 0,-3.7011 -2.52403,-2.7313 151.81422,-58.3318 72.01687,-25.9442 149.3306,-52.6236 171.8083,-59.2876 l 40.86854,-12.1163 35.03856,10.0382 c 70.51672,20.2024 244.45694,88.4458 311.52791,122.2244 l 29.7912,15.0036 -96.20993,38.534 c -175.77213,70.4003 -251.69807,95.8291 -285.45345,95.603 -12.31469,-0.082 -29.29147,-4.0723 -46.06853,-10.8268 z"
       id="path1367"
       transform="matrix(0.26458333,0,0,0.26458333,-1810.1755,1012.5785)" />
  </g>
</svg>
