<?xml version="1.0" encoding="UTF-8" standalone="no"?>
<!-- Created with Inkscape (http://www.inkscape.org/) -->

<svg
   width="515.1825mm"
   height="705.18536mm"
   viewBox="0 0 515.1825 705.18536"
   version="1.1"
   id="svg15443"
   inkscape:version="1.1.1 (c3084ef, 2021-09-22)"
   sodipodi:docname="filetree.svg"
   xmlns:inkscape="http://www.inkscape.org/namespaces/inkscape"
   xmlns:sodipodi="http://sodipodi.sourceforge.net/DTD/sodipodi-0.dtd"
   xmlns="http://www.w3.org/2000/svg"
   xmlns:svg="http://www.w3.org/2000/svg">
  <sodipodi:namedview
     id="namedview15445"
     pagecolor="#ffffff"
     bordercolor="#666666"
     borderopacity="1.0"
     inkscape:pageshadow="2"
     inkscape:pageopacity="0.0"
     inkscape:pagecheckerboard="0"
     inkscape:document-units="mm"
     showgrid="false"
     inkscape:zoom="0.18390424"
     inkscape:cx="5897.0908"
     inkscape:cy="1895.008"
     inkscape:window-width="1440"
     inkscape:window-height="775"
     inkscape:window-x="414"
     inkscape:window-y="394"
     inkscape:window-maximized="0"
     inkscape:current-layer="layer1" />
  <defs
     id="defs15440">
    <clipPath
       clipPathUnits="userSpaceOnUse"
       id="clipPath16615">
      <rect
         style="fill:#e6e6e6;stroke-width:1.19827;stroke-dasharray:0, 13.1809"
         id="rect16617"
         width="790.22479"
         height="1226.9279"
         x="-1668.83"
         y="-280.73773" />
    </clipPath>
    <clipPath
       clipPathUnits="userSpaceOnUse"
       id="clipPath16723">
      <rect
         style="fill:#e6e6e6;stroke-width:0.765;stroke-dasharray:0, 8.41499"
         id="rect16725"
         width="779.82703"
         height="829.21613"
         x="-317.12967"
         y="1138.5472" />
    </clipPath>
    <clipPath
       clipPathUnits="userSpaceOnUse"
       id="clipPath16615-6">
      <rect
         style="fill:#e6e6e6;stroke-width:1.19827;stroke-dasharray:0, 13.1809"
         id="rect16617-4"
         width="790.22479"
         height="1226.9279"
         x="-1668.83"
         y="-280.73773" />
    </clipPath>
  </defs>
  <g
     inkscape:label="Layer 1"
     inkscape:groupmode="layer"
     id="layer1"
     transform="translate(1810.1755,-1012.5785)">
    <g
       id="g18494"
       transform="matrix(215.89999,0,0,-294.30133,0,294.30133)" />
    <path
       style="fill:#000000;stroke-width:0.529727"
       d="m -255.71853,1734.1379 c -2.36294,-1.2044 -3.89087,-3.5888 -4.61294,-7.1995 -0.28343,-1.4183 -0.6276,-1.6067 -4.98265,-2.7222 -4.27771,-1.0956 -5.7355,-1.1894 -17.04009,-1.0962 -11.25415,0.094 -18.49337,0.4943 -22.51456,1.2551 -0.82594,0.1564 -3.05111,0.5443 -4.94492,0.8622 -1.89375,0.3191 -3.68158,0.6356 -3.97295,0.7051 -2.32991,0.5568 -5.73169,1.5723 -7.94591,2.37 -5.90387,2.126 -6.03313,2.1473 -8.32987,1.3364 -1.19702,-0.4192 -2.61877,-0.6269 -3.15947,-0.4567 -0.54057,0.1689 -1.65018,0.1626 -2.46561,0 -1.2425,-0.2753 -1.58086,-0.7295 -2.08965,-2.8205 -0.7349,-3.0207 -1.03559,-5.0529 -1.46517,-9.9036 -0.18019,-2.0353 -0.40543,-3.8259 -0.50053,-3.9798 -0.0951,-0.1502 -0.31909,-1.8257 -0.49803,-3.7159 -0.17894,-1.8901 -0.4292,-4.0323 -0.55621,-4.7606 -0.54933,-3.1508 -0.88431,-12.6171 -1.05837,-29.9298 -0.24776,-24.6386 -0.80047,-56.1607 -1.07914,-61.5345 -0.12326,-2.3781 -0.35475,-16.9191 -0.5143,-32.3135 -0.30407,-29.296 -0.51617,-38.5658 -1.31407,-57.3889 -0.54683,-12.9036 -0.53932,-12.4506 -0.77126,-44.7617 -0.0939,-13.1107 -0.35099,-27.6517 -0.57123,-32.3135 -0.2196,-4.6619 -0.42983,-30.0487 -0.46612,-56.416 -0.0563,-40.5829 0.0501,-48.0827 0.6821,-48.8673 0.92348,-1.1437 3.30781,-1.1925 5.58022,-0.1126 1.61702,0.7671 1.75229,1.0561 2.41893,5.1648 0.74742,4.6062 1.12838,38.1516 0.56059,49.3785 -0.16204,3.2047 -0.22523,7.7939 -0.14077,10.197 l 0.15391,4.3703 h 3.28936 c 1.80916,0 6.38826,-0.3441 10.17582,-0.7746 3.78751,-0.4254 13.56097,-1.0329 21.71879,-1.3439 8.15782,-0.3128 18.24267,-0.8371 22.41083,-1.1687 l 7.57846,-0.6007 1.3117,-2.238 c 0.72145,-1.2313 2.13663,-2.7998 3.14489,-3.4868 1.00825,-0.6863 1.83481,-1.5397 1.83682,-1.897 0.005,-0.9216 2.83137,-2.2649 4.76597,-2.2649 2.82068,0 8.01329,3.2103 10.37855,6.4162 0.70437,0.9548 1.28467,1.511 1.28955,1.2357 0.005,-0.2753 0.45548,0.2127 1.00137,1.0886 1.30394,2.0885 2.27866,8.0298 1.8838,11.4834 -0.27153,2.375 -0.65106,3.0852 -2.79602,5.2287 -3.07913,3.0764 -4.02206,3.5725 -7.58802,3.9886 -3.38978,0.3941 -4.37851,0.3879 -6.78806,-0.063 -4.36192,-0.8046 -8.25473,-4.2157 -9.76301,-8.5547 -0.79503,-2.2868 0.0826,-2.1491 -9.59666,-1.5072 -6.6347,0.438 -8.51663,0.5318 -21.71878,1.0367 -9.52689,0.3629 -12.39368,0.5381 -19.86477,1.1976 -2.18512,0.1939 -5.92677,0.3566 -8.31473,0.3566 l -4.34178,0.01 0.2584,12.2161 c 0.14202,6.7189 0.36726,14.362 0.50053,16.9842 0.2171,4.2751 0.5731,28.761 0.83882,57.6472 0.11638,12.6459 0.20334,13.2909 1.72614,12.7867 0.6169,-0.2065 1.95613,-0.4317 2.9759,-0.5131 1.0197,-0.075 3.04591,-0.4254 4.50264,-0.7714 8.8533,-2.1166 22.42228,-2.9369 48.58408,-2.9369 h 11.50317 l 0.66433,-1.3245 c 1.08214,-2.1573 2.34867,-3.1289 4.76985,-3.6601 3.12375,-0.6858 6.11616,-0.4317 8.64039,0.7301 2.49633,1.15 7.681,6.4324 7.681,7.8258 0,0.5318 0.36101,1.5191 0.80185,2.1923 0.95176,1.4528 0.69849,4.4209 -0.61315,7.1864 -1.34504,2.8361 -4.92133,8.6059 -6.205,10.0112 -2.50252,2.7391 -6.87246,3.6639 -10.40332,2.2017 -2.54919,-1.0561 -4.76253,-5.9219 -5.2259,-11.4897 -0.19833,-2.3856 -0.55433,-4.531 -0.79033,-4.7675 -0.54058,-0.5443 -11.13622,-0.5506 -30.53662,0 -14.36801,0.3942 -19.2874,0.8021 -23.18534,1.9314 -0.95232,0.2753 -1.84977,0.4943 -1.99436,0.488 -0.14453,0 -1.86841,0.2565 -3.83074,0.5819 -2.90507,0.488 -4.04221,0.4505 -6.12179,-0.1752 l -2.55407,-0.7746 0.30344,3.2704 c 0.16705,1.7987 0.42921,12.2098 0.58312,23.1351 0.15391,10.9259 0.41481,29.6382 0.57999,41.5833 0.27404,19.8554 0.43483,27.6812 0.64981,31.6516 0.10511,1.9402 0.74166,1.8364 2.2522,-0.3691 0.68772,-1.0036 1.84883,-2.0972 2.5801,-2.4307 l 1.32966,-0.6069 -1.39041,1.2882 c -1.42501,1.3208 -2.38646,3.4074 -1.82756,3.9661 0.17206,0.1752 0.31346,0 0.31346,-0.3378 0,-0.3567 0.19771,-0.5256 0.43921,-0.3754 0.24151,0.1501 1.52205,-0.063 2.84539,-0.4505 1.32333,-0.4004 5.47604,-1.3227 9.2282,-2.0534 7.93914,-1.5473 22.42991,-2.253 29.04147,-1.4147 2.26427,0.2878 8.84235,0.5631 14.61796,0.6132 8.92582,0.075 10.69919,-0.063 11.82138,-0.7746 0.72608,-0.4755 1.45986,-1.3051 1.6306,-1.8426 0.17081,-0.538 1.08271,-1.5572 2.02664,-2.2655 1.45773,-1.0936 2.30813,-1.2876 5.64516,-1.2876 2.6722,0 3.99942,0.2127 4.14952,0.662 0.12138,0.3628 0.52055,0.6619 0.88681,0.6619 1.10686,0 5.26219,4.3515 6.45927,6.764 1.09635,2.2093 1.10142,2.3356 0.22211,5.5622 -0.85371,3.132 -3.27703,7.3903 -5.03777,8.8512 -0.44484,0.3692 -0.80879,0.9811 -0.80879,1.3602 0,0.9435 -2.8527,1.7919 -6.35672,1.8914 -5.5286,0.1564 -9.88715,-3.3179 -10.87538,-8.6692 -0.24464,-1.3264 -0.65532,-1.9921 -1.23487,-2.004 -0.47738,0 -4.0862,0 -8.01942,-0.063 -3.93323,0 -9.65428,-0.2627 -12.71345,-0.5505 -7.69627,-0.7189 -9.3258,-0.7452 -17.48099,-0.2816 -7.95129,0.4505 -8.70759,0.5819 -17.74584,3.037 -6.78036,1.8407 -6.79844,1.8432 -10.12233,1.2845 l -2.17643,-0.3629 0.33473,2.3112 c 0.18395,1.2707 0.26466,2.9068 0.17894,3.6351 -0.20209,1.7124 -0.20459,1.5034 0.10323,7.6812 0.14516,2.9131 0.41044,14.2363 0.58938,25.1616 0.37039,22.6002 0.51116,26.9561 0.90639,28.076 0.24652,0.6982 0.52869,3.4749 1.74479,17.1963 0.15391,1.7375 0.36851,3.2472 0.47675,3.3554 0.10824,0.1064 2.779,-0.6519 5.93491,-1.6899 5.26675,-1.7324 10.18984,-2.6878 20.83516,-4.043 5.01743,-0.6388 33.62889,-0.9247 35.75658,-0.3566 0.87404,0.2315 2.85383,0.7495 4.39952,1.1487 l 2.81041,0.7257 0.50429,-1.4139 c 2.56365,-7.1927 6.85944,-8.9376 14.26966,-5.7968 3.0964,1.3126 4.61338,2.7742 5.92332,5.7067 0.58562,1.3113 1.39636,3.0701 1.80166,3.9085 0.73803,1.5266 0.63423,2.9193 -0.43921,5.8918 -0.66909,1.8532 -4.11367,6.6214 -4.78313,6.6214 -0.25214,0 -1.50058,0.7176 -2.77499,1.5942 -3.26146,2.2442 -7.56382,2.6422 -10.78911,0.9985 z m -73.59516,-110.1621 c 0.122,-0.3692 0.62666,-0.7264 1.12074,-0.799 1.21291,-0.1814 1.13064,0.1439 -0.22273,0.8665 -0.87224,0.4693 -1.07145,0.4505 -0.89833,-0.069 z"
       id="path20085"
       sodipodi:nodetypes="cssssssscscssssssssssssssssscscsccsssssscssscscssccssscccscsssssssssscsccccsssssscscsscssccssssssssssscccssccssssssssssscsssssssccsccss" />
    <path
       style="fill:#00c300;fill-opacity:0.307692;stroke-width:0.529727"
       d="m -261.52532,1742.8097 c -2.36294,-1.2044 -3.89087,-3.5888 -4.61294,-7.1995 -0.28343,-1.4183 -0.6276,-1.6067 -4.98265,-2.7222 -4.27771,-1.0956 -5.7355,-1.1894 -17.04009,-1.0962 -11.25415,0.094 -18.49337,0.4943 -22.51456,1.2551 -0.82594,0.1564 -3.05111,0.5443 -4.94492,0.8622 -1.89375,0.3191 -3.68158,0.6356 -3.97295,0.7051 -2.32991,0.5568 -5.73169,1.5723 -7.94591,2.37 -5.90387,2.126 -6.03313,2.1473 -8.32987,1.3364 -1.19702,-0.4192 -2.61877,-0.6269 -3.15947,-0.4567 -0.54057,0.1689 -1.65018,0.1626 -2.46561,0 -1.2425,-0.2753 -1.58086,-0.7295 -2.08965,-2.8205 -0.7349,-3.0207 -1.03559,-5.0529 -1.46517,-9.9036 -0.18019,-2.0353 -0.40543,-3.8259 -0.50053,-3.9798 -0.0951,-0.1502 -0.31909,-1.8257 -0.49803,-3.7159 -0.17894,-1.8901 -0.4292,-4.0323 -0.55621,-4.7606 -0.54933,-3.1508 -0.88431,-12.6171 -1.05837,-29.9298 -0.24776,-24.6386 -0.80047,-56.1607 -1.07914,-61.5345 -0.12326,-2.3781 -0.35475,-16.9191 -0.5143,-32.3135 -0.30407,-29.296 -0.51617,-38.5658 -1.31407,-57.3889 -0.54683,-12.9036 -0.53932,-12.4506 -0.77126,-44.7617 -0.0939,-13.1107 -0.35099,-27.6517 -0.57123,-32.3135 -0.2196,-4.6619 -0.42983,-30.0487 -0.46612,-56.416 -0.0563,-40.5829 0.0501,-48.0827 0.6821,-48.8673 0.92348,-1.1437 3.30781,-1.1925 5.58022,-0.1126 1.61702,0.7671 1.75229,1.0561 2.41893,5.1648 0.74742,4.6062 1.12838,38.1516 0.56059,49.3785 -0.16204,3.2047 -0.22523,7.7939 -0.14077,10.197 l 0.15391,4.3703 h 3.28936 c 1.80916,0 6.38826,-0.3441 10.17582,-0.7746 3.78751,-0.4254 13.56097,-1.0329 21.71879,-1.3439 8.15782,-0.3128 18.24267,-0.8371 22.41083,-1.1687 l 7.57846,-0.6007 1.3117,-2.238 c 0.72145,-1.2313 2.13663,-2.7998 3.14489,-3.4868 1.00825,-0.6863 1.83481,-1.5397 1.83682,-1.897 0.005,-0.9216 2.83137,-2.2649 4.76597,-2.2649 2.82068,0 8.01329,3.2103 10.37855,6.4162 0.70437,0.9548 1.28467,1.511 1.28955,1.2357 0.005,-0.2753 0.45548,0.2127 1.00137,1.0886 1.30394,2.0885 2.27866,8.0298 1.8838,11.4834 -0.27153,2.375 -0.65106,3.0852 -2.79602,5.2287 -3.07913,3.0764 -4.02206,3.5725 -7.58802,3.9886 -3.38978,0.3941 -4.37851,0.3879 -6.78806,-0.063 -4.36192,-0.8046 -8.25473,-4.2157 -9.76301,-8.5547 -0.79503,-2.2868 0.0826,-2.1491 -9.59666,-1.5072 -6.6347,0.438 -8.51663,0.5318 -21.71878,1.0367 -9.52689,0.3629 -12.39368,0.5381 -19.86477,1.1976 -2.18512,0.1939 -5.92677,0.3566 -8.31473,0.3566 l -4.34178,0.01 0.2584,12.2161 c 0.14202,6.7189 0.36726,14.362 0.50053,16.9842 0.2171,4.2751 0.5731,28.761 0.83882,57.6472 0.11638,12.6459 0.20334,13.2909 1.72614,12.7867 0.6169,-0.2065 1.95613,-0.4317 2.9759,-0.5131 1.0197,-0.075 3.04591,-0.4254 4.50264,-0.7714 8.8533,-2.1166 22.42228,-2.9369 48.58408,-2.9369 h 11.50317 l 0.66433,-1.3245 c 1.08214,-2.1573 2.34867,-3.1289 4.76985,-3.6601 3.12375,-0.6858 6.11616,-0.4317 8.64039,0.7301 2.49633,1.15 7.681,6.4324 7.681,7.8258 0,0.5318 0.36101,1.5191 0.80185,2.1923 0.95176,1.4528 0.69849,4.4209 -0.61315,7.1864 -1.34504,2.8361 -4.92133,8.6059 -6.205,10.0112 -2.50252,2.7391 -6.87246,3.6639 -10.40332,2.2017 -2.54919,-1.0561 -4.76253,-5.9219 -5.2259,-11.4897 -0.19833,-2.3856 -0.55433,-4.531 -0.79033,-4.7675 -0.54058,-0.5443 -11.13622,-0.5506 -30.53662,0 -14.36801,0.3942 -19.2874,0.8021 -23.18534,1.9314 -0.95232,0.2753 -1.84977,0.4943 -1.99436,0.488 -0.14453,0 -1.86841,0.2565 -3.83074,0.5819 -2.90507,0.488 -4.04221,0.4505 -6.12179,-0.1752 l -2.55407,-0.7746 0.30344,3.2704 c 0.16705,1.7987 0.42921,12.2098 0.58312,23.1351 0.15391,10.9259 0.41481,29.6382 0.57999,41.5833 0.27404,19.8554 0.43483,27.6812 0.64981,31.6516 0.10511,1.9402 0.74166,1.8364 2.2522,-0.3691 0.68772,-1.0036 1.84883,-2.0972 2.5801,-2.4307 l 1.32966,-0.6069 -1.39041,1.2882 c -1.42501,1.3208 -2.38646,3.4074 -1.82756,3.9661 0.17206,0.1752 0.31346,0 0.31346,-0.3378 0,-0.3567 0.19771,-0.5256 0.43921,-0.3754 0.24151,0.1501 1.52205,-0.063 2.84539,-0.4505 1.32333,-0.4004 5.47604,-1.3227 9.2282,-2.0534 7.93914,-1.5473 22.42991,-2.253 29.04147,-1.4147 2.26427,0.2878 8.84235,0.5631 14.61796,0.6132 8.92582,0.075 10.69919,-0.063 11.82138,-0.7746 0.72608,-0.4755 1.45986,-1.3051 1.6306,-1.8426 0.17081,-0.538 1.08271,-1.5572 2.02664,-2.2655 1.45773,-1.0936 2.30813,-1.2876 5.64516,-1.2876 2.6722,0 3.99942,0.2127 4.14952,0.662 0.12138,0.3628 0.52055,0.6619 0.88681,0.6619 1.10686,0 5.26219,4.3515 6.45927,6.764 1.09635,2.2093 1.10142,2.3356 0.22211,5.5622 -0.85371,3.132 -3.27703,7.3903 -5.03777,8.8512 -0.44484,0.3692 -0.80879,0.9811 -0.80879,1.3602 0,0.9435 -2.8527,1.7919 -6.35672,1.8914 -5.5286,0.1564 -9.88715,-3.3179 -10.87538,-8.6692 -0.24464,-1.3264 -0.65532,-1.9921 -1.23487,-2.004 -0.47738,0 -4.0862,0 -8.01942,-0.063 -3.93323,0 -9.65428,-0.2627 -12.71345,-0.5505 -7.69627,-0.7189 -9.3258,-0.7452 -17.48099,-0.2816 -7.95129,0.4505 -8.70759,0.5819 -17.74584,3.037 -6.78036,1.8407 -6.79844,1.8432 -10.12233,1.2845 l -2.17643,-0.3629 0.33473,2.3112 c 0.18395,1.2707 0.26466,2.9068 0.17894,3.6351 -0.20209,1.7124 -0.20459,1.5034 0.10323,7.6812 0.14516,2.9131 0.41044,14.2363 0.58938,25.1616 0.37039,22.6002 0.51116,26.9561 0.90639,28.076 0.24652,0.6982 0.52869,3.4749 1.74479,17.1963 0.15391,1.7375 0.36851,3.2472 0.47675,3.3554 0.10824,0.1064 2.779,-0.6519 5.93491,-1.6899 5.26675,-1.7324 10.18984,-2.6878 20.83516,-4.043 5.01743,-0.6388 33.62889,-0.9247 35.75658,-0.3566 0.87404,0.2315 2.85383,0.7495 4.39952,1.1487 l 2.81041,0.7257 0.50429,-1.4139 c 2.56365,-7.1927 6.85944,-8.9376 14.26966,-5.7968 3.0964,1.3126 4.61338,2.7742 5.92332,5.7067 0.58562,1.3113 1.39636,3.0701 1.80166,3.9085 0.73803,1.5266 0.63423,2.9193 -0.43921,5.8918 -0.66909,1.8532 -4.11367,6.6214 -4.78313,6.6214 -0.25214,0 -1.50058,0.7176 -2.77499,1.5942 -3.26146,2.2442 -7.56382,2.6422 -10.78911,0.9985 z m -73.59516,-110.1621 c 0.122,-0.3692 0.62666,-0.7264 1.12074,-0.799 1.21291,-0.1814 1.13064,0.1439 -0.22273,0.8665 -0.87224,0.4693 -1.07145,0.4505 -0.89833,-0.069 z"
       id="path20085-4"
       sodipodi:nodetypes="cssssssscscssssssssssssssssscscsccsssssscssscscssccssscccscsssssssssscsccccsssssscscsscssccssssssssssscccssccssssssssssscsssssssccsccss" />
  </g>
</svg>
