<?xml version="1.0" encoding="UTF-8" standalone="no"?>
<!-- Created with Inkscape (http://www.inkscape.org/) -->

<svg
   width="515.1825mm"
   height="705.18536mm"
   viewBox="0 0 515.1825 705.18536"
   version="1.1"
   id="svg15443"
   inkscape:version="1.1.1 (c3084ef, 2021-09-22)"
   sodipodi:docname="folder_closed.svg"
   xmlns:inkscape="http://www.inkscape.org/namespaces/inkscape"
   xmlns:sodipodi="http://sodipodi.sourceforge.net/DTD/sodipodi-0.dtd"
   xmlns="http://www.w3.org/2000/svg"
   xmlns:svg="http://www.w3.org/2000/svg">
  <sodipodi:namedview
     id="namedview15445"
     pagecolor="#ffffff"
     bordercolor="#666666"
     borderopacity="1.0"
     inkscape:pageshadow="2"
     inkscape:pageopacity="0.0"
     inkscape:pagecheckerboard="0"
     inkscape:document-units="mm"
     showgrid="false"
     inkscape:zoom="0.3723587"
     inkscape:cx="6111.043"
     inkscape:cy="1698.6309"
     inkscape:window-width="1440"
     inkscape:window-height="775"
     inkscape:window-x="434"
     inkscape:window-y="189"
     inkscape:window-maximized="0"
     inkscape:current-layer="layer1" />
  <defs
     id="defs15440">
    <clipPath
       clipPathUnits="userSpaceOnUse"
       id="clipPath16615">
      <rect
         style="fill:#e6e6e6;stroke-width:1.19827;stroke-dasharray:0, 13.1809"
         id="rect16617"
         width="790.22479"
         height="1226.9279"
         x="-1668.83"
         y="-280.73773" />
    </clipPath>
    <clipPath
       clipPathUnits="userSpaceOnUse"
       id="clipPath16723">
      <rect
         style="fill:#e6e6e6;stroke-width:0.765;stroke-dasharray:0, 8.41499"
         id="rect16725"
         width="779.82703"
         height="829.21613"
         x="-317.12967"
         y="1138.5472" />
    </clipPath>
    <clipPath
       clipPathUnits="userSpaceOnUse"
       id="clipPath16615-6">
      <rect
         style="fill:#e6e6e6;stroke-width:1.19827;stroke-dasharray:0, 13.1809"
         id="rect16617-4"
         width="790.22479"
         height="1226.9279"
         x="-1668.83"
         y="-280.73773" />
    </clipPath>
  </defs>
  <g
     inkscape:label="Layer 1"
     inkscape:groupmode="layer"
     id="layer1"
     transform="translate(1810.1755,-1012.5785)">
    <g
       id="g18494"
       transform="matrix(215.89999,0,0,-294.30133,0,294.30133)" />
    <path
       id="path20085-9"
       style="fill:#009600;fill-opacity:0.502024;stroke-width:0.427299"
       d="m -218.39676,1374.7013 c -0.38298,0.1455 -0.76028,0.2999 -1.14824,0.4961 -2.21006,1.1174 -2.59995,1.53 -3.92998,4.1579 -0.91395,1.8058 -1.46722,3.5075 -1.45212,4.4664 0.0132,0.8519 0.0387,9.7212 0.0589,19.7094 0.0188,9.9882 0.0724,21.0442 0.11782,24.5695 0.0727,5.5369 -0.0143,26.5346 -0.15711,37.8158 -0.0254,1.9976 0.0111,4.113 0.0796,4.701 0.0666,0.5874 0.0968,6.342 0.0615,12.7889 -0.0797,14.706 0.80767,23.7437 2.75177,28.0179 4.02612,8.8527 6.2764,12.5402 8.78036,14.3904 1.98017,1.4636 11.26659,3.239 17.51417,3.3501 2.30161,0.04 10.67597,-0.1529 28.20189,-0.6526 8.77943,-0.2503 17.4041,0.077 33.7566,1.2795 12.53625,0.9205 45.491512,0.7089 64.308758,-0.4139 6.674855,-0.3985 22.935088,-0.7269 23.913279,-0.4796 0.779119,0.1958 0.905008,0.4658 0.738982,1.5958 -0.16555,1.1421 -0.07967,1.314 0.499692,1.0919 0.384519,-0.1463 0.699188,-0.096 0.699188,0.1157 0,0.209 0.336444,0.4666 0.747765,0.5674 v 0.049 c 1.106329,0.2731 2.817918,-0.1417 3.358965,-0.8144 0.260905,-0.322 0.768244,-0.5896 1.127574,-0.5896 0.411216,0 0.774965,-0.5936 0.982901,-1.6025 0.371713,-1.8057 0.359013,-1.7527 1.033013,-4.3796 0.271515,-1.0578 0.513239,-2.1645 0.538453,-2.4572 0.02461,-0.2917 0.182272,-0.5338 0.34933,-0.5338 0.04956,0 0.139647,-0.1296 0.217037,-0.2165 -0.861351,0.01 -1.722464,0.012 -2.583815,0.01 -1.885182,-0.01 -3.76936,-0.1509 -5.655468,-0.1117 -0.04469,0 -0.08451,0 -0.125572,-0.01 l -0.03101,0.2087 h -10.128566 c -5.570617,0.01 -13.877607,0.217 -18.460376,0.4693 -4.582795,0.2523 -10.159365,0.55 -12.392025,0.6661 l 0.0026,0.01 c -2.23266,0.116 -13.192971,0.2874 -24.356175,0.3834 -15.57176,0.1363 -22.48469,0.022 -29.69689,-0.4899 -9.99966,-0.7066 -25.98174,-0.8729 -51.71932,-0.5297 l -15.82592,0.2119 -1.33067,-1.0676 c -1.90198,-1.5272 -5.23962,-7.1811 -7.44191,-12.606 -0.71453,-1.7603 -1.21192,-4.4048 -1.64848,-8.7597 -0.24744,-2.4674 -0.56298,-5.4479 -0.70176,-6.6228 -0.2826,-2.374 -0.50318,-58.9575 -0.2372,-60.1421 0.0326,-0.1444 0.11909,-0.257 0.19844,-0.372 -0.0782,-0.089 -0.11837,-0.1972 -0.10181,-0.3261 -0.004,-0.2484 0.0169,-0.4883 0.0169,-0.7364 0,-0.7009 -0.0302,-0.142 0.20463,-1.4273 -0.01,0.016 -0.0225,0.031 -0.0382,0.044 -0.0201,0.016 0.0464,-0.091 0.0424,-0.066 -0.003,0.01 -0.003,0.013 -0.004,0.022 0.003,0 0.004,-0.01 0.007,-0.015 v -0.6904 -0.6888 -0.9235 -0.2149 c -0.11377,-1.799 -0.11615,-3.7012 0.004,-5.7093 0,-0.1171 0,-0.2342 -0.004,-0.3514 -0.0143,-0.4182 -0.0257,-0.8201 0.0269,-1.2309 -0.13047,-0.5601 -0.26591,-1.1287 -0.25633,-1.7032 v -0.6502 -1.5011 -1.7446 c -0.33636,-0.013 -0.44143,-3.0076 -0.47387,-12.8132 -0.0246,-7.4032 -0.19081,-14.4859 -0.36896,-15.7391 -0.19235,-1.3523 -0.19084,-1.9865 0.10851,-2.6619 -0.009,-0.2814 -0.0116,-0.5628 0,-0.8433 -0.12822,0.017 -0.17619,-0.026 -0.17881,-0.2398 -0.014,0 0,-0.029 0,-0.043 v -0.1002 -0.045 -0.2057 -1.4939 z" />
    <path
       style="fill:#000000;stroke-width:0.427299"
       d="m -36.503752,1526.4483 c -0.411318,-0.1009 -0.747791,-0.3583 -0.747791,-0.5673 0,-0.2119 -0.314923,-0.2624 -0.699441,-0.1161 -0.579378,0.2221 -0.665174,0.051 -0.499638,-1.0916 0.166041,-1.13 0.04038,-1.4 -0.738706,-1.5958 -0.978179,-0.2473 -17.2388,0.081 -23.913652,0.4795 -18.817251,1.1229 -51.77227,1.3343 -64.30852,0.4138 -16.35248,-1.2027 -24.97723,-1.5297 -33.75666,-1.2794 -17.52592,0.4997 -25.90014,0.693 -28.20176,0.6526 -6.24758,-0.1111 -15.53417,-1.8865 -17.51435,-3.3501 -2.50394,-1.8502 -4.75393,-5.5379 -8.78004,-14.3906 -1.9441,-4.2742 -2.83179,-13.3115 -2.75205,-28.0175 0.0353,-6.4469 0.005,-12.2018 -0.0616,-12.7892 -0.0686,-0.588 -0.10447,-2.7031 -0.0792,-4.7007 0.14282,-11.2812 0.22963,-32.279 0.15695,-37.8159 -0.0454,-3.5253 -0.0994,-14.5814 -0.11809,-24.5696 -0.0202,-9.9882 -0.0454,-18.8575 -0.0585,-19.7094 -0.0151,-0.9589 0.53779,-2.6607 1.45173,-4.4665 1.33004,-2.6279 1.72016,-3.0402 3.93023,-4.1576 2.05532,-1.0391 3.40782,-1.3364 8.33233,-1.832 3.23331,-0.323 7.41699,-0.5914 9.29709,-0.5909 h 20.37713 16.9587 l 1.51728,1.4736 c 2.61391,2.5381 3.78574,6.9001 3.70499,13.7905 l -0.056,4.7592 1.15618,0.2877 c 1.15966,0.2927 18.43309,0.3129 23.64112,0.05 1.52763,-0.081 4.89261,0 7.47776,0.2372 2.58514,0.212 7.29612,0.588 10.46881,0.8348 3.1727,0.2473 7.11454,0.6303 8.75966,0.8519 3.359073,0.4492 14.667329,0.5763 20.510361,0.2271 2.115131,-0.1262 6.922248,-0.4239 10.682498,-0.6571 10.381859,-0.6485 30.051521,-0.6349 31.62013,0 0.705043,0.2927 1.600757,0.4996 1.990424,0.4492 0.389616,-0.05 1.473879,0.6434 2.409362,1.5357 1.589806,1.5166 2.902842,4.5043 3.689948,8.396 0.101946,0.5051 0.390625,1.9536 0.641403,3.2193 0.273034,1.3778 0.467842,9.0944 0.486011,19.2285 0.05148,28.9194 0.616875,61.0426 1.495732,85.012 0.183201,5.0004 0.109517,7.3341 -0.259407,8.2254 -0.283633,0.6843 -0.652355,1.2445 -0.819759,1.2445 -0.16705,0 -0.324512,0.2423 -0.349241,0.534 -0.02523,0.2927 -0.266978,1.3995 -0.538498,2.4573 -0.674006,2.6269 -0.66154,2.5739 -1.03324,4.3796 -0.20793,1.0089 -0.571707,1.6024 -0.982923,1.6024 -0.359335,0 -0.866593,0.2675 -1.127515,0.5895 -0.541022,0.6727 -2.252355,1.0876 -3.358673,0.8145 z m -41.768521,-9.3104 c 2.232673,-0.1161 7.808928,-0.4139 12.391713,-0.6662 4.582784,-0.2523 12.890038,-0.4643 18.460641,-0.4694 h 10.128304 l 0.284138,-1.8945 c 0.156452,-1.0422 0.169069,-3.3794 0.03028,-5.1938 -0.140302,-1.8143 -0.362364,-10.4131 -0.493077,-19.1088 -0.292212,-19.4425 -0.617935,-33.2698 -0.83071,-35.2507 -0.08832,-0.8221 0.04038,-1.7351 0.283633,-2.0298 0.244267,-0.2927 0.272024,-0.5355 0.06157,-0.5355 -0.213481,0 -0.265968,-1.2753 -0.119105,-2.8843 0.144844,-1.5862 0.197331,-3.2688 0.117591,-3.7387 -0.08024,-0.4693 -0.273034,-5.0367 -0.428477,-10.1482 -0.245781,-8.0926 -0.370438,-9.2942 -0.962231,-9.2957 -0.818648,0 -3.457238,-2.3907 -3.457238,-3.1296 0,-0.2877 0.297259,-0.9488 0.661036,-1.4681 0.626363,-0.8943 0.591792,-0.9857 -0.659976,-1.7467 -0.726543,-0.4441 -2.70647,-1.0366 -4.399887,-1.3213 -2.6451,-0.4441 -3.302754,-0.4239 -4.667572,0.1565 -1.71633,0.7282 -4.613419,0.8988 -5.269508,0.3078 -1.397723,-1.2541 -8.8079,-2.0954 -21.343599,-2.422 -5.170287,-0.1362 -12.092536,-0.4592 -15.382774,-0.7267 -3.290187,-0.2675 -8.097299,-0.5425 -10.682449,-0.6162 -6.76847,-0.1918 -52.39399,-0.1413 -64.73584,0.076 -23.02995,0.4037 -27.50776,0.2019 -33.64557,-1.4994 -1.57265,-0.4341 -2.98526,-0.7152 -3.13909,-0.6203 -0.61365,0.3785 -3.36745,6.5145 -3.80103,8.4686 -0.25386,1.1446 -0.37599,2.8273 -0.27152,3.7387 0.13475,1.1714 0.0303,1.6574 -0.36388,1.6574 -0.30483,0 -0.62999,0.3381 -0.72235,0.7479 -0.26597,1.1845 -0.0454,57.7682 0.2372,60.1422 0.13879,1.1749 0.45422,4.1556 0.70166,6.623 0.43655,4.3549 0.93417,6.9995 1.64871,8.7598 2.20229,5.4249 5.54007,11.0783 7.44207,12.6055 l 1.3305,1.0679 15.82593,-0.2119 c 25.73759,-0.3432 41.71942,-0.1767 51.71908,0.5299 7.21219,0.5117 14.12556,0.6258 29.69733,0.4895 11.163161,-0.096 22.123387,-0.2675 24.35606,-0.3835 z m 39.414018,-108.4254 c -0.09942,-3.1144 -0.368924,-6.4312 -0.599666,-7.3709 -0.230641,-0.9402 -0.623033,-2.6228 -0.872195,-3.7392 -0.46431,-2.0798 -0.806485,-2.2973 -3.330916,-2.1186 -0.352774,0 -4.3905,0.1514 -8.973284,0.2775 -11.022151,0.3079 -20.953428,0.7202 -21.974505,0.9165 -3.594108,0.6904 -28.389849,-0.066 -29.750529,-0.9039 -0.16251,-0.1009 -3.733,-0.4996 -7.93484,-0.8867 -5.48567,-0.5057 -11.43494,-0.6833 -21.09969,-0.6288 -12.02672,0.066 -18.10837,-0.2524 -20.23486,-1.07 -0.46733,-0.1816 -0.70277,-0.05 -0.70277,0.3988 0,0.9281 -2.44464,1.3131 -4.61927,0.7277 -1.56947,-0.4239 -1.81631,-0.6682 -2.2354,-2.2246 -0.38861,-1.4434 -0.63873,-9.7632 -0.32855,-10.9254 0.12466,-0.4694 -0.48147,-4.2889 -0.99246,-6.2546 -0.40829,-1.5706 -0.49409,-1.6367 -1.7884,-1.3732 -1.77427,0.3633 -22.43442,0.2775 -27.52876,-0.1111 -5.35101,-0.4088 -16.39274,0.3584 -17.42255,1.2093 -0.42696,0.3532 -1.28846,1.3459 -1.91472,2.2079 -1.03087,1.4187 -1.10794,1.7826 -0.81451,3.8457 0.17815,1.2532 0.34419,8.3354 0.36892,15.7386 0.0353,10.6706 0.15292,13.3206 0.56535,12.7867 0.28615,-0.3684 1.00124,-0.9801 1.58879,-1.3556 0.96753,-0.6177 1.43083,-0.6223 4.91391,-0.051 4.53636,0.7505 16.94503,0.8964 37.38872,0.4391 33.66895,-0.753 57.18117,-0.7878 68.896964,-0.1009 6.283822,0.3684 14.167494,0.6727 17.519253,0.6778 7.298642,0 17.698164,0.9579 20.978207,1.9117 2.173069,0.6314 2.64187,0.6324 5.66725,0 3.04481,-0.6288 3.531023,-0.6263 6.328891,0.051 4.216384,0.9927 6.48494,1.8143 7.617098,2.7586 0.532643,0.4441 1.080175,0.814 1.216743,0.8221 0.136769,0 0.16705,-2.5335 0.06763,-5.6474 z"
       id="path20085"
       sodipodi:nodetypes="csscsscssssscssssssccccssccccscsccssssssssssssccccsccsssscsssscsscsscsssscssssssssscsccccsssccsssccssssscssssssscsscsccscss" />
  </g>
</svg>
