<?xml version="1.0" encoding="UTF-8" standalone="no"?>
<!-- Created with Inkscape (http://www.inkscape.org/) -->

<svg
   width="468.15863mm"
   height="314.19171mm"
   viewBox="0 0 468.15863 314.19171"
   version="1.1"
   id="svg15443"
   inkscape:version="1.1.1 (c3084ef, 2021-09-22)"
   sodipodi:docname="folder_open.svg"
   xmlns:inkscape="http://www.inkscape.org/namespaces/inkscape"
   xmlns:sodipodi="http://sodipodi.sourceforge.net/DTD/sodipodi-0.dtd"
   xmlns="http://www.w3.org/2000/svg"
   xmlns:svg="http://www.w3.org/2000/svg">
  <sodipodi:namedview
     id="namedview15445"
     pagecolor="#ffffff"
     bordercolor="#666666"
     borderopacity="1.0"
     inkscape:pageshadow="2"
     inkscape:pageopacity="0.0"
     inkscape:pagecheckerboard="0"
     inkscape:document-units="mm"
     showgrid="false"
     inkscape:zoom="0.058396902"
     inkscape:cx="659.28155"
     inkscape:cy="-813.39932"
     inkscape:window-width="1440"
     inkscape:window-height="775"
     inkscape:window-x="380"
     inkscape:window-y="162"
     inkscape:window-maximized="0"
     inkscape:current-layer="layer1" />
  <defs
     id="defs15440">
    <clipPath
       clipPathUnits="userSpaceOnUse"
       id="clipPath16615">
      <rect
         style="fill:#e6e6e6;stroke-width:1.19827;stroke-dasharray:0, 13.1809"
         id="rect16617"
         width="790.22479"
         height="1226.9279"
         x="-1668.83"
         y="-280.73773" />
    </clipPath>
    <clipPath
       clipPathUnits="userSpaceOnUse"
       id="clipPath16723">
      <rect
         style="fill:#e6e6e6;stroke-width:0.765;stroke-dasharray:0, 8.41499"
         id="rect16725"
         width="779.82703"
         height="829.21613"
         x="-317.12967"
         y="1138.5472" />
    </clipPath>
    <clipPath
       clipPathUnits="userSpaceOnUse"
       id="clipPath16615-6">
      <rect
         style="fill:#e6e6e6;stroke-width:1.19827;stroke-dasharray:0, 13.1809"
         id="rect16617-4"
         width="790.22479"
         height="1226.9279"
         x="-1668.83"
         y="-280.73773" />
    </clipPath>
  </defs>
  <g
     inkscape:label="Layer 1"
     inkscape:groupmode="layer"
     id="layer1"
     transform="translate(1585.0344,-1171.7759)">
    <g
       id="g18494"
       transform="matrix(215.89999,0,0,-294.30133,0,294.30133)" />
    <path
       style="fill:#000000;stroke-width:0.703482"
       d="m -1226.2621,1484.8573 c -3.5678,-1.3062 -47.529,-1.7482 -62.9619,-0.6315 -5.7846,0.4154 -13.55,0.5068 -17.9388,0.2077 -4.2557,-0.2908 -21.0338,-0.7146 -37.2842,-0.9389 -16.2505,-0.2243 -33.0285,-0.7395 -37.2843,-1.1391 -4.2566,-0.3989 -16.6027,-1.0037 -27.4358,-1.3394 -10.8339,-0.3324 -22.5468,-0.9821 -26.0291,-1.4374 -6.3388,-0.8309 -18.7015,-0.5983 -34.1186,0.648 -9.9465,0.806 -53.6294,0.4903 -61.6458,-0.4403 -6.8897,-0.7977 -13.9904,-2.6738 -15.7926,-4.1694 -1.2638,-1.0494 -2.7585,-1.2189 -2.7585,-0.3157 0,0.9173 -6.4842,1.631 -7.311,0.8059 -0.3905,-0.3905 -1.2828,-0.7062 -1.9849,-0.7062 -1.1525,0 -3.0868,-0.8666 -5.09,-2.2808 -7.7347,-5.4597 -13.4811,-11.7454 -15.9206,-17.417 -2.5035,-5.8195 -2.9231,-10.0146 -2.4611,-24.6016 0.2493,-7.9425 0.6813,-17.6073 0.9597,-21.4759 0.2742,-3.8694 0.2576,-11.3092 -0.083,-16.5321 -0.2991,-5.2238 -0.6564,-30.707 -0.7977,-56.6306 -0.1412,-25.9227 -0.4403,-49.1908 -0.673,-51.7059 -0.6314,-7.0251 -2.1569,-72.9741 -2.1611,-93.6573 0,-6.6038 0.7312,-8.347 3.5163,-8.347 0.8974,0 1.8088,-0.2908 2.0257,-0.6398 0.7478,-1.2148 9.9108,-5.0917 14.4615,-6.1203 2.5151,-0.565 5.8395,-1.5313 7.3866,-2.1395 1.5479,-0.6066 5.0302,-1.2048 7.7388,-1.3253 2.7079,-0.1163 6.7352,-0.4071 8.9487,-0.6398 2.2134,-0.2326 7.4364,-0.091 11.6074,0.3075 16.3078,1.5737 26.0283,2.0572 48.0334,2.3896 24.4397,0.3739 26.4388,0.6481 28.3357,3.8943 1.9816,3.3934 3.0319,11.4264 3.2537,24.8667 l 0.083,4.0631 h 3.3418 c 1.8371,0 10.3055,0.1994 18.8179,0.4653 21.8938,0.6813 49.357,0.4237 58.0372,-0.5318 7.434,-0.8226 8.2407,-0.899 17.2351,-1.695 12.2148,-1.0802 19.3903,-1.9351 24.3947,-2.9064 3.1773,-0.6149 10.9968,-1.16 18.994,-1.3187 7.7331,-0.1578 15.565,-0.6896 18.1665,-1.238 4.7601,-1.0062 11.2385,-0.9571 13.2526,0.1 2.5076,1.317 8.9112,1.5546 21.7359,0.806 9.5602,-0.5567 14.2447,-0.565 16.449,0 1.695,0.4154 3.4008,0.8309 3.7905,0.9198 1.41,0.3323 3.5329,2.2841 4.486,4.1311 0.5317,1.0386 1.8379,2.2467 2.8956,2.6846 2.8533,1.1824 3.9284,3.7664 4.535,10.9045 0.6564,7.6807 1.2596,14.0453 1.5097,15.8284 0.8824,6.3022 1.0494,20.0135 0.3074,24.973 -1.9202,12.7624 -1.9708,14.3536 -0.4902,15.3365 2.3049,1.5305 2.3913,15.0149 0.1662,26.1695 -0.1579,0.7728 -0.3324,1.4067 -0.3906,1.4067 -0.083,0 -0.2326,0.4736 -0.3739,1.0552 -0.1412,0.5817 -0.4736,1.7673 -0.7311,2.6381 -0.4487,1.523 -0.2991,1.5837 4.0098,1.6127 2.4628,0 7.1689,0.1247 10.4584,0.2493 36.1135,1.3219 49.2755,1.8894 59.4439,2.5641 13.4744,0.8932 12.4126,0.8625 16.1798,0.4736 2.761,-0.2825 8.0903,1.7864 8.0903,3.1466 0,0.3157 0.4736,0.5733 1.0552,0.5733 0.5817,0 1.0038,0.2326 0.9414,0.5234 -0.2991,1.381 1.6568,4.3971 3.5895,5.5387 1.184,0.698 2.1519,1.8363 2.1519,2.5267 0,0.6897 0.2992,1.2555 0.6648,1.2555 0.7561,0 -6.6396,14.6967 -13.2792,26.3806 -1.3195,2.3215 -3.39,6.1203 -4.6023,8.4418 -3.0776,5.8934 -4.8765,9.084 -5.3526,9.4961 -0.2243,0.1911 -0.8873,1.302 -1.4748,2.4628 -1.8994,3.7531 -5.6807,10.5231 -6.4825,11.6074 -1.3544,1.8305 -2.54,4.1719 -2.54,5.0161 0,0.4486 -1.5388,3.38 -3.42,6.5166 -1.8803,3.1366 -3.9824,6.8108 -4.6704,8.1651 -0.6896,1.3543 -1.4789,2.6206 -1.7581,2.8142 -0.2825,0.1911 -1.0104,1.3344 -1.6261,2.5359 -0.6148,1.2014 -2.3996,4.1137 -3.9658,6.4709 -1.5654,2.3572 -3.2271,5.1731 -3.6924,6.2574 -0.7312,1.7008 -5.7871,9.5327 -13.8284,21.4168 -1.2156,1.7956 -3.0809,4.1993 -4.1461,5.341 -1.0644,1.1416 -2.658,3.5262 -3.5413,5.2993 -2.5134,5.0452 -8.2224,11.7662 -21.74,25.5938 -4.6339,4.7402 -7.3991,6.6279 -9.5876,6.5473 -0.457,0 -2.1005,-0.4985 -3.6476,-1.061 z m -61.2029,-13.6639 c 6.5773,-0.4238 20.8228,-0.7478 31.6567,-0.7146 10.8339,0 22.728,-0.083 26.4313,-0.1495 l 6.7334,-0.1995 4.088,-3.8694 c 2.2484,-2.1279 5.6342,-5.768 7.5236,-8.0895 1.8895,-2.3215 3.8412,-4.6961 4.3373,-5.2761 1.0469,-1.2247 10.3303,-14.9268 11.413,-16.8453 0.3988,-0.7146 1.1815,-1.8379 1.7315,-2.501 0.5484,-0.6647 1.3295,-1.7673 1.7316,-2.4536 0.3988,-0.6896 2.0249,-3.1067 3.606,-5.3775 1.5812,-2.27 3.9069,-6.0272 5.1681,-8.3487 1.2613,-2.3215 3.6468,-6.279 5.3003,-8.7932 1.6542,-2.5151 4.3787,-7.1058 6.0538,-10.2008 1.675,-3.0951 3.2986,-5.7331 3.6077,-5.8627 0.3074,-0.1247 0.565,-0.6897 0.565,-1.2447 0,-0.5567 0.7395,-2.1919 1.646,-3.6351 0.9056,-1.4433 3.4847,-6.1062 5.7314,-10.362 2.2467,-4.2558 4.8191,-8.9021 5.7165,-10.3254 0.8973,-1.4224 2.9513,-5.0634 4.5632,-8.0895 1.6127,-3.0269 3.9475,-7.4089 5.1889,-9.7387 1.2413,-2.329 3.0377,-5.4947 3.9915,-7.0343 0.9539,-1.5405 2.6215,-4.5416 3.7066,-6.6695 1.0851,-2.1279 2.3331,-4.3439 2.7735,-4.9238 0.8541,-1.1259 2.56,-4.0639 2.56,-4.4104 0,-0.1163 -0.7146,-0.2659 -1.5829,-0.3323 -15.7693,-1.2439 -25.2871,-1.7839 -41.6813,-2.3622 -10.8339,-0.3822 -22.8634,-0.9348 -26.7329,-1.2281 -3.8685,-0.2908 -24.762,-0.4819 -46.4298,-0.4237 l -39.3947,0.108 -14.0768,2.1545 c -7.743,1.1848 -16.9234,2.3323 -20.4015,2.5491 -3.4781,0.2161 -9.4896,0.5816 -13.3582,0.806 -3.8694,0.2243 -8.46,0.5567 -10.2007,0.7229 -1.7416,0.1744 -6.8066,-0.1662 -11.256,-0.7478 -10.7151,-1.4042 -20.9956,-1.9568 -35.5253,-1.9069 -8.4409,0 -13.098,-0.2659 -15.8283,-0.9971 -2.285,-0.6148 -8.6238,-1.1865 -15.4769,-1.4 -6.3845,-0.1994 -13.6656,-0.6315 -16.1798,-0.968 -2.5151,-0.3324 -5.3642,-0.5152 -6.3314,-0.3988 -0.9679,0.1163 -3.429,0.2492 -5.4697,0.2991 -3.1839,0.083 -3.7979,0.3157 -4.3264,1.7091 -0.3406,0.8916 -1.7382,2.3888 -3.11,3.3294 -1.3718,0.9397 -3.2238,2.9588 -4.1153,4.4867 -0.8916,1.528 -4.4411,5.4905 -7.8876,8.8066 -3.4474,3.3152 -7.0875,6.9603 -8.0903,8.1011 -1.0029,1.14 -3.5645,4.0148 -5.6924,6.3878 -6.3339,7.0642 -13.349,15.8143 -13.3598,16.6643 0,1.6509 -6.977,10.7441 -13.1969,17.2499 -0.87,0.9107 -1.5829,1.7997 -1.5829,1.9759 0,0.1745 -0.5567,0.9007 -1.2305,1.6102 -0.6813,0.7063 -2.4977,2.8201 -4.0456,4.6887 -1.5471,1.8678 -4.1386,4.8632 -5.758,6.6554 -1.6194,1.793 -4.3098,5.0044 -5.9799,7.1373 -1.6692,2.1329 -3.4399,4.3347 -3.9342,4.8922 -1.6211,1.828 -8.598,11.4513 -8.6005,11.8651 -0.01,0.6231 -5.596,6.6952 -13.8209,15.0007 -5.3418,5.3941 -7.9682,7.5628 -9.1614,7.5628 -1.6609,0 -1.6642,0 -0.4902,2.2865 2.722,5.2662 10.1758,11.944 14.0852,12.6195 0.6979,0.1163 1.842,0.6896 2.5433,1.2738 0.6979,0.5816 2.7652,1.1009 4.5881,1.1565 1.823,0.083 7.1132,0.5567 11.7562,1.1118 11.664,1.3975 57.2878,0.781 69.2933,-0.9389 5.4996,-0.7894 21.8422,-0.3989 32.0081,0.7644 3.095,0.3573 11.3258,0.6647 18.2903,0.6896 6.9644,0 16.3036,0.3905 20.7529,0.8143 4.4494,0.4237 21.3862,0.8865 37.6366,1.0386 16.2504,0.1496 32.5532,0.5151 36.229,0.8059 7.9848,0.6398 15.2966,0.5152 31.3053,-0.5068 z m -271.5437,-42.5338 c 1.9343,-2.2309 5.0999,-6.1884 7.0342,-8.7949 8.0688,-10.8688 10.7899,-14.3078 21.1868,-26.7753 5.3234,-6.3845 8.4617,-10.0827 10.445,-12.3112 2.4436,-2.746 8.1153,-10.5888 8.1153,-11.2227 0,-0.457 5.4647,-7.9026 7.5136,-10.2332 0.5069,-0.5816 2.5899,-3.1083 4.6214,-5.6176 4.0913,-5.0543 9.1348,-10.622 15.9189,-17.5724 2.4686,-2.5284 6.5142,-7.2029 8.991,-10.3877 5.1972,-6.6836 7.2877,-9.0068 8.4634,-9.4039 0.457,-0.1579 1.5812,-1.3909 2.4902,-2.7444 1.1092,-1.6527 2.2217,-2.4794 3.3833,-2.5143 0.9522,0 3.5088,-0.2825 5.6816,-0.565 2.1728,-0.2825 6.6047,-0.1911 9.8485,0.1994 3.2446,0.3905 11.1795,0.8542 17.6338,1.0228 6.4543,0.1662 12.1359,0.5567 12.627,0.8575 0.4902,0.2991 10.2631,0.6232 21.7176,0.7146 14.7997,0.1163 23.2581,0.5068 29.2305,1.3377 8.6487,1.2064 8.3512,1.2122 34.4327,-0.7312 5.7132,-0.4237 10.8597,-1.0644 24.9739,-3.1 10.1492,-1.4632 24.2128,-2.555 30.2492,-2.3481 7.8319,0.2659 28.8582,0.1994 32.3604,-0.1163 2.1279,-0.1911 4.2201,-0.3573 4.6488,-0.3656 0.6979,0 1.3136,-3.616 2.8258,-16.3834 0.2161,-1.8371 0.7063,-3.5329 1.086,-3.7672 0.3905,-0.241 0.01,-1.1566 -0.894,-2.1138 -1.4773,-1.572 -1.5779,-2.2666 -1.4931,-10.3021 0.1,-9.0766 1.0618,-15.9596 2.3514,-16.7565 0.5567,-0.3489 0.5567,-0.6065 -0.01,-0.9571 -0.4819,-0.2991 -0.673,-2.1188 -0.4985,-4.8366 0.3323,-5.1191 -1.2613,-24.2194 -2.7569,-33.0227 -0.5733,-3.3858 -1.0461,-6.2773 -1.0461,-6.4252 0,-0.85 -4.2059,-0.9389 -15.3173,-0.324 -11.7961,0.6481 -13.9788,0.565 -27.7649,-1.1516 -1.0602,-0.133 -5.3334,0.1 -9.497,0.5151 -4.1627,0.4154 -10.892,0.7063 -14.9551,0.6481 -4.0622,-0.083 -12.135,0.5068 -17.9387,1.258 -5.8038,0.7477 -14.9842,1.7506 -20.4007,2.2292 -13.5393,1.1965 -14.1658,1.2596 -19.3455,1.9642 -8.3662,1.1375 -28.0781,1.4707 -41.7345,0.7063 -7.419,-0.4155 -18.871,-0.8907 -25.4483,-1.0561 -14.5671,-0.3656 -18.552,-0.8059 -21.495,-2.3697 -0.5982,-0.324 -3.2529,-0.5982 -5.8918,-0.6065 -2.6397,0 -5.129,-0.3573 -5.532,-0.7644 -0.4071,-0.4071 -0.8442,-4.3048 -0.9796,-8.6703 -0.133,-4.3646 -0.5816,-10.5173 -1.0004,-13.673 -0.7478,-5.675 -0.781,-5.7423 -2.9771,-6.1544 -1.2222,-0.2243 -10.7699,-0.5982 -21.2166,-0.8142 -10.4467,-0.2161 -21.0521,-0.7063 -23.5664,-1.0785 -21.2698,-3.1607 -33.1381,-3.1316 -47.0563,0.1163 -5.2661,1.2289 -9.9564,2.5392 -10.4234,2.9122 -0.6232,0.4986 -0.8733,6.4211 -0.9422,22.6017 -0.1994,46.9782 0,57.0884 1.1533,70.8146 0.6563,7.5902 1.1017,37.8285 1.0327,70.3485 0,16.1906 0.3906,32.6488 1.2522,48.8917 0.8309,15.5567 0.4404,34.6911 -0.7395,36.0853 -0.5567,0.6564 -0.8807,1.7814 -0.7229,2.4927 0.3075,1.3851 2.6805,-0.8309 10.3645,-9.6906 z"
       id="path20085"
       sodipodi:nodetypes="ccssscssssssssssssssssccscsccsscsscsscsssccssssssssssccsssssssssssssssssssssssscccscccsssssssssscsssssssssscssscsssccccscscsssssscssssssssssccsccsccsscsscsssssssssscssssscsssscsssscsssscssccssssccssscscsssssssscc" />
  </g>
</svg>
