<?xml version="1.0" encoding="UTF-8" standalone="no"?>
<!-- Created with Inkscape (http://www.inkscape.org/) -->

<svg
   width="4.8416471mm"
   height="8.7823839mm"
   viewBox="0 0 4.841647 8.7823839"
   version="1.1"
   id="svg5"
   inkscape:version="1.1.1 (c3084ef, 2021-09-22)"
   sodipodi:docname="git_branches.svg"
   xmlns:inkscape="http://www.inkscape.org/namespaces/inkscape"
   xmlns:sodipodi="http://sodipodi.sourceforge.net/DTD/sodipodi-0.dtd"
   xmlns="http://www.w3.org/2000/svg"
   xmlns:svg="http://www.w3.org/2000/svg">
  <sodipodi:namedview
     id="namedview7"
     pagecolor="#ffffff"
     bordercolor="#666666"
     borderopacity="1.0"
     inkscape:pageshadow="2"
     inkscape:pageopacity="0.0"
     inkscape:pagecheckerboard="0"
     inkscape:document-units="mm"
     showgrid="false"
     inkscape:zoom="0.69967654"
     inkscape:cx="-654.58819"
     inkscape:cy="40.733108"
     inkscape:window-width="2560"
     inkscape:window-height="1387"
     inkscape:window-x="0"
     inkscape:window-y="25"
     inkscape:window-maximized="1"
     inkscape:current-layer="layer1" />
  <defs
     id="defs2" />
  <g
     inkscape:label="Layer 1"
     inkscape:groupmode="layer"
     id="layer1"
     transform="translate(-162.68013,-114.34434)">
    <path
       style="fill:#000000;stroke-width:0.156584"
       d="m 162.91166,125.28403 c -0.88356,-0.28424 -1.87043,-1.29269 -2.31785,-2.36857 -0.18236,-0.43867 -0.41181,-1.46038 -0.5097,-2.27047 -0.0978,-0.81008 -0.18875,-1.48228 -0.2019,-1.49377 -0.0129,-0.0115 -0.44488,0.0374 -0.95935,0.10869 -0.51449,0.0713 -1.71235,0.13519 -2.66192,0.14206 -0.94958,0.007 -1.83219,0.0275 -1.96137,0.0458 -0.12928,0.0183 -0.93951,-0.0234 -1.80072,-0.0927 -1.70729,-0.13737 -4.15029,-0.87681 -6.09578,-1.84506 -1.08986,-0.54241 -2.50607,-1.78033 -2.93593,-2.56633 -0.39124,-0.71537 -0.61167,-2.22916 -0.68073,-4.67489 -0.0344,-1.21776 -0.0986,-2.70734 -0.14259,-3.31019 -0.044,-0.60285 -0.12261,-1.86614 -0.17477,-2.80731 -0.10597,-1.91479 -0.37197,-2.68254 -1.2387,-3.57499 -0.77566,-0.79866 -2.66624,-2.020704 -4.04296,-2.613277 -0.67031,-0.288523 -1.24484,-0.566893 -1.27675,-0.618601 -0.0318,-0.05171 -1.45362,-0.0422 -3.15942,0.0211 l -3.10149,0.115107 -0.40615,-0.389127 c -0.22339,-0.21402 -0.43753,-0.388934 -0.47589,-0.388697 -0.0383,1.55e-4 -0.0908,0.440626 -0.11633,0.978647 -0.066,1.386174 -0.58354,3.455148 -1.07954,4.316138 -0.59841,1.03884 -1.15168,1.75105 -1.36022,1.75105 -0.0984,0 -0.35417,0.1616 -0.56861,0.35912 -0.21442,0.19751 -0.7774,0.47545 -1.25107,0.61764 -1.90053,0.57053 -3.47277,-0.28311 -4.13479,-2.24494 -0.29905,-0.88617 -0.56272,-3.012519 -0.56272,-4.537945 v -1.195123 l -5.12811,0.06364 c -4.67504,0.05802 -8.37764,0.220333 -10.21709,0.447907 -0.38754,0.04796 -1.79679,0.22723 -3.13166,0.398406 -2.110236,0.270603 -6.387486,0.423492 -6.707566,0.239758 -0.0571,-0.03277 -0.77322,0.02732 -1.59138,0.133565 -0.81814,0.10623 -1.98529,0.205365 -2.59367,0.220286 -1.06952,0.02622 -1.12498,0.0089 -1.67552,-0.52585 -0.31316,-0.304136 -0.60612,-0.552973 -0.65105,-0.552973 -0.0449,0 -0.19304,0.405161 -0.32916,0.900356 -0.35146,1.278757 -1.01614,3.166933 -1.3091,3.718863 -0.41629,0.78423 -1.29178,1.81811 -1.80424,2.13059 -0.70512,0.42999 -1.94728,0.39349 -2.89142,-0.0849 -0.6817,-0.34544 -0.98497,-0.62524 -1.97716,-1.8242 -0.56608,-0.68407 -1.21016,-2.219527 -1.37341,-3.274179 l -0.16034,-1.036256 -1.42527,0.0033 c -0.78389,0.0018 -4.17332,-0.01609 -7.53204,-0.03991 -3.35872,-0.02373 -6.4943,-0.0052 -6.96796,0.04132 -0.47367,0.04646 -1.77723,0.163728 -2.89681,0.260587 -1.11956,0.09685 -2.59927,0.227489 -3.28826,0.290288 -0.68896,0.06281 -4.94444,0.102236 -9.45662,0.08763 l -8.20398,-0.02656 -0.44307,-0.534264 c -0.49479,-0.596642 -0.56063,-0.953381 -0.22705,-1.230232 0.32365,-0.268596 1.30676,-0.365886 5.72575,-0.566629 1.33487,-0.06064 2.63843,-0.129071 2.89679,-0.152077 0.25836,-0.02301 0.93656,-0.04881 1.50713,-0.05735 1.00367,-0.01498 1.04018,-0.02963 1.12422,-0.449849 0.0904,-0.451868 0.50738,-0.675134 1.6747,-0.896644 1.0593,-0.201011 2.50261,-0.690508 2.75065,-0.932889 0.68066,-0.665112 1.72238,-3.537505 1.86276,-5.136295 0.0547,-0.623517 0.16294,-1.662135 0.24063,-2.308043 0.0777,-0.645907 0.1884,-1.879004 0.24623,-2.740213 0.0579,-0.861211 0.1241,-1.671531 0.1474,-1.800713 0.0231,-0.129182 0.0895,-0.939502 0.14758,-1.800713 0.20128,-2.991573 0.43893,-3.862711 1.43199,-5.249161 1.3747,-1.919272 2.59411,-2.841014 5.38643,-4.071566 2.04799,-0.902521 5.79361,-1.615389 5.79361,-1.102639 0,0.08032 0.14092,0.19076 0.31316,0.245428 0.17218,0.05467 0.31318,0.20034 0.31318,0.32372 0,0.123374 0.0705,0.224323 0.15664,0.224323 0.0862,0 0.15665,-0.236106 0.15665,-0.524677 0,-0.706421 0.26297,-1.430749 0.86367,-2.378934 0.28479,-0.449548 0.54963,-1.12405 0.61477,-1.565838 0.15664,-1.062262 0.51539,-1.764265 1.04024,-2.035672 0.48454,-0.250566 2.80515,-0.324043 2.80515,-0.08881 0,0.07655 0.23726,0.183666 0.52727,0.238072 0.87129,0.163451 3.07319,2.746068 3.57946,4.198363 0.15868,0.454965 0.43421,0.592678 0.43421,0.216964 0,-0.377798 0.3857,-0.48762 2.50533,-0.713347 0.81816,-0.08713 1.73417,-0.232266 2.03559,-0.322526 0.30142,-0.09027 2.66192,-0.274331 5.24555,-0.409043 2.58363,-0.134711 5.28727,-0.281221 6.00808,-0.325578 1.21878,-0.07499 4.41997,0.161695 4.952946,0.366221 0.15812,0.06072 0.23471,-0.0078 0.23471,-0.209929 0,-0.165004 0.10116,-0.436768 0.22481,-0.60394 0.15092,-0.204126 0.1963,-0.516081 0.13797,-0.949863 -0.21531,-1.601605 0.66187,-2.424783 2.58391,-2.424857 1.19291,-4.6e-5 1.40319,0.0371 2.37714,0.419822 1.09182,0.429057 2.11738,1.252163 2.81522,2.259488 0.20881,0.301423 0.4219,0.583274 0.47352,0.626336 0.18589,0.155018 0.62584,1.50717 0.62584,1.923384 0,0.233953 0.0705,0.425371 0.15665,0.425371 0.0862,0 0.15664,-0.177192 0.15664,-0.393762 0,-0.655551 0.71687,-0.960079 2.55384,-1.084879 0.8776,-0.05962 2.05364,-0.215054 2.61342,-0.345397 0.65068,-0.151504 1.66734,-0.226852 2.81851,-0.208895 0.9904,0.01553 1.90641,0.02957 2.0356,0.03138 0.65086,0.0091 5.47461,-0.37024 6.38831,-0.50239 0.57717,-0.08348 1.82449,-0.157015 2.77183,-0.163414 0.94733,-0.0065 2.32135,-0.102735 3.05338,-0.214081 1.47547,-0.22442 2.54733,-0.202558 2.63275,0.05371 0.0307,0.09227 0.12521,0.125002 0.20967,0.07274 0.0845,-0.05226 0.19245,0.053 0.23976,0.233901 0.12817,0.489898 0.28873,0.401069 0.51512,-0.284893 0.38815,-1.176161 2.18014,-3.017393 3.52816,-3.625145 0.62823,-0.283238 0.83498,-0.290876 2.07301,-0.07658 0.75214,0.13018 0.83862,0.217946 0.85717,0.869783 0.009,0.32828 0.10967,0.494635 0.34177,0.566828 0.50152,0.15598 1.49584,0.896848 1.49959,1.117373 0.002,0.107655 0.10912,0.195729 0.23823,0.195729 0.12927,0 0.23487,0.05718 0.23487,0.127055 0,0.06989 0.1585,0.293913 0.35232,0.497846 0.19378,0.203935 0.46886,0.543326 0.6113,0.754204 0.24621,0.364497 0.35226,0.386557 2.14939,0.44713 2.58618,0.08716 4.43118,0.583004 5.57739,1.498906 0.0862,0.06882 0.39849,0.282442 0.69418,0.474722 0.5733,0.372822 1.25122,1.407705 1.51119,2.306898 0.0871,0.301423 0.14629,1.041281 0.13149,1.644127 -0.0551,2.240317 -0.27502,5.245555 -0.38396,5.245555 -0.062,0 -0.12576,0.475623 -0.14185,1.056938 -0.0287,1.035416 -0.0479,1.249586 -0.24188,2.694533 -0.0525,0.391138 -0.12336,1.274863 -0.15738,1.963833 -0.034,0.688968 -0.10487,1.902318 -0.15739,2.696336 -0.0557,0.842782 -0.022,1.849127 0.0812,2.417816 0.0971,0.535781 0.20993,1.250274 0.25059,1.587763 0.0407,0.337484 0.24942,1.168955 0.46382,1.847704 0.43269,1.369673 0.36322,1.320883 2.06038,1.447383 0.63939,0.04766 0.97865,0.01461 0.97865,-0.09556 0,-0.09267 0.22097,-0.622099 0.49106,-1.176488 0.37996,-0.779961 0.65256,-1.11041 1.20502,-1.460774 0.3927,-0.249035 0.80877,-0.452792 0.92461,-0.452792 0.11578,0 0.63147,-0.219023 1.14583,-0.486716 1.23794,-0.644277 1.78892,-0.751557 2.95408,-0.575203 1.53485,0.232305 1.93787,0.46139 3.18331,1.809393 0.15072,0.163118 0.27402,0.355594 0.27402,0.42771 0,0.07211 0.11448,0.257642 0.25445,0.41228 0.14,0.154648 0.25446,0.460941 0.25446,0.680666 0,0.219729 0.0616,0.43761 0.13704,0.48418 0.0754,0.04657 0.13704,0.265683 0.13704,0.48691 0,0.388172 0.0233,0.397918 0.66549,0.278888 0.86989,-0.161232 1.96445,-0.21407 6.25006,-0.30173 1.95193,-0.03993 4.13627,-0.141628 4.85408,-0.226006 0.71781,-0.08437 2.13678,-0.201477 3.15323,-0.260223 1.80318,-0.104215 1.86355,-0.119676 2.48103,-0.635561 0.64465,-0.538582 0.70943,-0.560729 1.74011,-0.594751 0.68062,-0.02247 1.25788,0.389735 1.536,1.096804 0.20179,0.512983 0.17384,0.549827 0.68765,-0.903899 0.19831,-0.560997 0.49542,-0.930564 1.2588,-1.565837 0.54957,-0.457344 1.00338,-0.891116 1.00847,-0.963942 0.0194,-0.277573 0.66638,-1.041407 0.80799,-0.953878 0.0817,0.05047 0.12908,0.0022 0.10541,-0.107174 -0.11781,-0.544961 3.3845,-0.967422 5.20253,-0.627535 1.49919,0.280278 1.76991,0.371114 2.65656,0.891358 2.06773,1.213274 3.52668,3.568627 3.43709,5.548862 -0.0364,0.807216 -0.42915,2.154728 -0.73649,2.527607 -1.54267,1.871703 -3.9659,3.555838 -6.14007,4.267343 -1.0761,0.35215 -2.83338,0.47755 -3.54342,0.25286 -2.57294,-0.81422 -3.88336,-2.30973 -4.38875,-5.008694 -0.0399,-0.213363 -0.086,-0.398299 -0.10227,-0.410969 -0.0167,-0.01276 -0.73426,-0.07117 -1.59546,-0.130014 l -1.56584,-0.10697 -0.56675,0.596228 c -0.84966,0.893852 -1.83231,3.716077 -1.93911,5.569139 -0.0335,0.58207 -0.0999,1.12119 -0.1474,1.19804 -0.0475,0.0769 -0.12317,1.22126 -0.1683,2.54311 -0.16256,4.77059 -0.30589,6.57574 -0.55941,7.04945 -0.0782,0.14616 -0.14222,0.40544 -0.14222,0.57619 0,0.35931 -0.94634,2.20965 -1.51781,2.96767 -0.98988,1.31308 -3.27635,2.83343 -5.20867,3.46343 -2.06127,0.67203 -4.98092,0.8624 -6.38616,0.4164 -0.25074,-0.0796 -0.39128,0.0754 -0.80237,0.88485 -0.88527,1.74313 -2.69182,3.93784 -3.71386,4.51189 -0.76817,0.43146 -2.1043,0.53369 -3.04018,0.23261 z m 1.41356,-2.3833 c 0.86318,-0.5892 1.9405,-1.96219 2.61849,-3.33715 0.52586,-1.06645 0.57828,-1.28951 0.57025,-2.42705 -0.0111,-1.55023 -0.45708,-2.82504 -0.98248,-2.80732 -1.41247,0.0476 -1.5551,0.0838 -1.99162,0.50475 -1.29838,1.25208 -1.82494,2.49518 -1.86765,4.40912 -0.0333,1.48937 0.1352,2.33484 0.6799,3.41302 0.29306,0.5801 0.4309,0.61475 0.97311,0.24463 z m 10.4868,-5.77046 c 1.51841,-0.46465 3.64244,-1.70023 4.22776,-2.45935 0.12928,-0.16753 0.40136,-0.49163 0.60484,-0.72022 0.4731,-0.53147 1.07983,-1.89264 1.34204,-3.01082 0.12132,-0.51752 0.21342,-1.98354 0.2262,-3.60143 0.0111,-1.50073 0.0553,-3.01046 0.0965,-3.35495 0.0412,-0.34448 0.1069,-0.97864 0.14592,-1.40925 0.16978,-1.87572 0.43881,-3.655353 0.66254,-4.382594 0.13278,-0.431568 0.38255,-1.229562 0.55508,-1.773319 0.17255,-0.543758 0.28877,-1.013577 0.25831,-1.044043 -0.0305,-0.03046 -0.80755,0.0048 -1.72684,0.0784 -2.13825,0.171145 -11.2205,0.252532 -11.65149,0.104418 -0.28074,-0.09648 -0.35361,-0.02286 -0.51695,0.522369 -0.35821,1.195581 -1.62486,3.623258 -2.16326,4.146159 -1.3978,1.35752 -3.59385,1.54372 -5.87913,0.49848 -0.40908,-0.18711 -0.74376,-0.39345 -0.74376,-0.45855 0,-0.0651 -0.0751,-0.11836 -0.16664,-0.11836 -0.41504,0 -1.47228,-1.666454 -1.64655,-2.595411 -0.0869,-0.463467 -0.14629,-0.504152 -0.83079,-0.569928 -0.40545,-0.03897 -1.15664,-0.265062 -1.66934,-0.502453 -0.92772,-0.429561 -0.94374,-0.431146 -3.35922,-0.332619 -2.16803,0.08844 -4.81356,0.22422 -9.395,0.4822 -0.81816,0.04607 -1.94557,0.126426 -2.50535,0.178579 -0.91505,0.08524 -0.97826,0.1125 -0.62634,0.27005 0.49611,0.222081 1.72761,1.016813 2.00416,1.293348 0.11577,0.115718 0.25819,0.210902 0.31663,0.211514 0.0984,0.0011 1.004,0.863976 1.47787,1.408138 0.89051,1.022592 1.30584,2.185592 1.45388,4.071182 0.17385,2.21364 0.19304,2.42873 0.29393,3.28825 0.0557,0.47367 0.12872,1.742 0.16238,2.81851 0.0338,1.07651 0.10153,2.13345 0.15072,2.34875 0.0492,0.21531 0.13427,0.63808 0.18918,0.93951 0.1376,0.75508 0.44728,1.32325 0.9272,1.70076 0.53471,0.42059 3.0257,1.37934 4.30259,1.656 1.06164,0.23002 5.22275,0.23343 7.45101,0.006 0.76856,-0.0784 1.14766,-0.0591 1.22276,0.0624 0.19931,0.3225 0.38599,0.18259 0.69823,-0.52331 0.17014,-0.38467 0.51511,-1.00122 0.76654,-1.3701 0.25145,-0.36889 0.50535,-0.86824 0.56426,-1.10968 0.15942,-0.65374 0.96058,-1.67851 1.70754,-2.18419 0.59696,-0.40414 0.76427,-0.44177 1.75591,-0.39489 1.80888,0.0855 3.1612,1.01213 3.8905,2.66575 0.14241,0.32295 0.37025,0.83861 0.50626,1.14591 0.13593,0.3073 0.28642,0.93787 0.33424,1.40128 l 0.0869,0.84255 0.64437,0.0567 c 1.2355,0.10877 2.99927,-0.0203 3.85438,-0.28192 z m -50.73994,-15.29979 c 1.03353,-1.05174 1.63529,-3.219512 1.60581,-5.784571 -0.0216,-1.889056 -0.59913,-3.670063 -1.43488,-4.425934 -0.4179,-0.377927 -0.7902,-0.19832 -0.98498,0.475148 -0.70385,2.433734 -0.82652,3.326912 -0.81559,5.938199 0.006,1.476315 0.13963,3.096738 0.29331,3.562278 0.0498,0.15071 0.12354,0.37972 0.16386,0.5089 0.12132,0.38807 0.64129,0.26654 1.17247,-0.27402 z m -40.977706,-0.39146 c 0.55794,-0.62281 1.26061,-2.397399 1.84453,-4.658367 0.57442,-2.224264 0.33393,-4.577622 -0.56984,-5.576291 -0.27821,-0.307408 -1.00191,-0.410118 -1.00191,-0.142201 0,0.08437 -0.27253,0.292435 -0.60561,0.462366 -0.42882,0.218764 -0.70309,0.516329 -0.9395,1.019269 -0.18364,0.390669 -0.33389,0.788213 -0.33389,0.883434 0,0.09523 -0.13945,0.642074 -0.30978,1.215229 -0.73834,2.483805 -0.43367,4.549016 0.97956,6.639971 0.33702,0.49863 0.59183,0.54123 0.93644,0.15659 z m 81.697976,-2.679548 c 0.54999,-0.502358 0.80296,-0.928313 1.36113,-2.291985 0.49562,-1.210856 0.6376,-3.539956 0.25294,-4.149469 -0.79325,-1.256954 -1.63769,-1.636444 -2.61231,-1.173958 -0.59661,0.283105 -1.66536,1.215766 -1.66536,1.453288 0,0.07908 -0.36147,0.476749 -0.80328,0.883718 l -0.80327,0.739943 0.078,1.514698 c 0.0906,1.758491 0.26728,2.223572 1.04217,2.743226 0.95329,0.639292 1.16546,0.71908 1.92509,0.724005 0.59301,0.0039 0.82842,-0.08139 1.22486,-0.443466 z m 31.11932,-0.166465 c 0.10764,-0.0065 0.19572,-0.117327 0.19572,-0.246511 0,-0.321594 -0.31412,-0.288989 -0.78291,0.08126 l -0.39146,0.309175 0.39146,-0.06615 c 0.21531,-0.03638 0.47954,-0.07139 0.58719,-0.07779 z M 78.663744,93.492396 c 0.63398,-1.932105 1.95428,-3.672941 3.00271,-3.95909 0.31337,-0.08554 0.71852,-0.304277 0.90035,-0.486109 0.1818,-0.181835 0.52943,-0.330603 0.77246,-0.330603 0.62048,0 1.93362,0.461848 2.25296,0.792403 0.14721,0.152447 0.39389,0.372283 0.54804,0.488538 0.32231,0.243068 0.58156,0.623383 0.90739,1.331128 0.12613,0.274004 0.30088,0.542398 0.38831,0.59643 0.0875,0.05404 0.15905,0.224181 0.15905,0.378109 0,0.153927 0.1154,0.511134 0.25638,0.793789 0.34654,0.694684 0.44933,1.755201 0.21294,2.196933 -0.16663,0.311211 -0.15868,0.346832 0.0583,0.263603 0.13796,-0.05293 0.90358,-0.144106 1.70148,-0.202633 0.79789,-0.05851 1.62687,-0.17612 1.84216,-0.26135 0.21531,-0.08522 1.56597,-0.177673 3.00147,-0.205455 2.66064,-0.05149 4.93159,-0.243311 8.194266,-0.692174 2.20833,-0.303811 5.13843,-0.4582 10.72599,-0.565157 3.14341,-0.06016 5.90344,-0.101589 6.13338,-0.09203 0.37467,0.01553 0.42853,-0.05093 0.51878,-0.640814 0.13889,-0.908231 0.55556,-2.116899 0.95679,-2.775784 0.72924,-1.197497 2.31014,-1.830039 3.00413,-1.201984 0.16183,0.1464 0.42134,0.266192 0.5768,0.266192 0.36755,0 2.13544,1.813927 2.48422,2.548914 0.1487,0.313202 0.33758,0.611091 0.41991,0.661973 0.0823,0.05088 0.33808,0.705659 0.56827,1.455051 0.4675,1.521736 0.49788,1.583638 0.6536,1.33167 0.14666,-0.237263 2.73573,-0.516192 4.83809,-0.521218 1.65859,-0.0039 3.50987,-0.143053 6.15209,-0.462234 1.91239,-0.231008 7.34966,-0.627165 10.15056,-0.739562 2.34473,-0.09408 2.39727,-0.103807 2.2937,-0.423878 -0.0582,-0.18017 -0.3134,-1.173135 -0.56686,-2.206587 -0.50448,-2.056811 -0.69926,-5.083589 -0.4434,-6.889682 0.0732,-0.516726 0.24549,-2.489681 0.38283,-4.384344 0.13741,-1.894662 0.32315,-4.380434 0.41296,-5.523936 0.0899,-1.143502 0.11836,-2.306136 0.0634,-2.583631 -0.16164,-0.817718 -0.58606,-1.502595 -1.09334,-1.764566 -0.26069,-0.134619 -0.69931,-0.386173 -0.97477,-0.558995 -0.36514,-0.229113 -0.9377,-0.349345 -2.11388,-0.443898 -0.88718,-0.07131 -1.67451,-0.07246 -1.74963,-0.0026 -0.0751,0.06995 -0.16368,0.361654 -0.19698,0.648256 -0.12669,1.092147 -2.04241,3.331214 -3.47137,4.057272 -0.62124,0.315647 -0.96799,0.374314 -2.22355,0.376193 -1.30624,0.002 -1.59364,-0.04992 -2.35795,-0.425574 -1.08059,-0.531122 -2.09759,-1.729176 -2.41567,-2.845751 -0.12502,-0.438695 -0.24704,-1.312782 -0.27129,-1.942417 -0.0436,-1.134478 -0.0475,-1.143918 -0.43553,-1.048092 -1.01896,0.251694 -2.29476,0.392042 -4.30605,0.473698 -1.20569,0.04895 -2.96725,0.155203 -3.9146,0.236111 -2.93496,0.25068 -5.07179,0.358096 -7.5943,0.381759 -1.33487,0.01258 -2.88189,0.110762 -3.43778,0.218313 -0.5559,0.107543 -1.26053,0.223109 -1.56585,0.2568 -0.3053,0.0337 -0.88429,0.109115 -1.28665,0.167612 -1.06593,0.154963 -2.1373,-0.04727 -2.57637,-0.486335 l -0.37178,-0.371791 -0.006,0.658364 c -0.007,0.856626 -0.76749,3.033192 -1.40922,4.033223 -0.96781,1.508216 -2.3983,2.363355 -3.94648,2.359207 -2.5649,-0.0068 -4.29299,-2.052866 -4.551196,-5.388419 -0.0387,-0.498861 -0.0965,-0.927849 -0.12872,-0.953308 -0.22619,-0.178727 -4.28045,-0.43397 -5.49402,-0.345877 -2.27513,0.165152 -3.46181,0.230881 -6.07346,0.336386 -1.42356,0.05752 -3.0399,0.225579 -3.90929,0.406492 -1.67727,0.349025 -4.24222,0.449435 -4.56897,0.178857 -0.17533,-0.145179 -0.21442,0.04709 -0.2253,1.108211 -0.0111,1.148288 -0.0745,1.409654 -0.59388,2.475054 -0.3194,0.655153 -0.75377,1.392418 -0.96529,1.638366 -0.21151,0.245948 -0.38467,0.490048 -0.38477,0.542446 -3.1e-4,0.132307 -1.65237,1.216736 -2.13078,1.398628 -0.21566,0.082 -0.81391,0.158624 -1.32941,0.170276 -0.78597,0.01775 -1.12175,-0.06998 -2.07989,-0.543517 -2.0458,-1.011088 -2.6356,-1.94056 -2.66373,-4.197801 -0.0166,-1.356723 -0.0192,-1.364167 -0.33019,-1.080071 -0.2069,0.188992 -0.79141,0.352336 -1.72242,0.481345 -1.37156,0.190051 -2.56238,0.514882 -2.73382,0.745734 -0.0466,0.06271 -0.47223,0.318785 -0.9459,0.569051 -1.4107,0.745353 -2.10234,1.275365 -2.96746,2.273993 -0.89817,1.036763 -1.15683,1.750722 -1.33628,3.688521 -0.0558,0.602846 -0.1276,1.307472 -0.15941,1.565836 -0.0318,0.258363 -0.10209,1.209609 -0.15628,2.113879 -0.054,0.904271 -0.16552,2.102136 -0.24767,2.661923 -0.0821,0.559787 -0.21792,1.722421 -0.30161,2.583631 -0.20336,2.092985 -0.23021,2.249001 -0.51208,2.97509 -0.13371,0.344485 -0.38372,1.093819 -0.55551,1.665187 -0.37277,1.239713 -0.58123,1.522013 -2.06269,2.793176 l -0.39146,0.335889 1.25266,-0.08091 c 0.68898,-0.0445 2.20393,-0.198495 3.36656,-0.342215 1.60848,-0.198833 3.88904,-0.277238 9.53861,-0.327938 7.81833,-0.07017 8.02735,-0.05493 8.69872,0.633687 0.30819,0.316109 0.30867,0.315583 0.48148,-0.536101 0.0951,-0.468886 0.26546,-1.134371 0.3785,-1.478856 z m -3.54621,-19.281751 c 0.59917,-0.752687 1.03898,-1.626193 1.37382,-2.72859 0.30977,-1.019844 0.31342,-1.11362 0.0749,-1.933758 -0.39378,-1.354606 -2.64549,-4.186418 -3.10365,-3.903258 -0.0917,0.0567 -0.002,0.216787 0.20958,0.37694 0.31711,0.239204 0.34741,0.340711 0.21534,0.721368 -0.0908,0.2615 -0.37497,0.553766 -0.69379,0.713378 -0.92311,0.462152 -1.23544,1.450586 -1.32466,4.192247 -0.0496,1.520688 0.29835,2.183516 1.54189,2.938177 0.49439,0.300017 1.31144,0.119749 1.7065,-0.376504 z m 30.029256,-1.618529 c 1.20691,-1.26872 1.97932,-3.631398 1.549,-4.738148 -0.29844,-0.767534 -0.93801,-1.691829 -1.63838,-2.367721 l -0.62588,-0.604006 -0.4863,0.562579 c -0.9288,1.074458 -1.36896,3.306865 -1.01413,5.143366 0.2354,1.218231 1.02752,2.626624 1.47731,2.626624 0.0803,0 0.41259,-0.280212 0.73838,-0.622694 z m 35.76487,-1.389405 c 1.30315,-0.800366 2.21307,-2.294908 2.04501,-3.358985 -0.12262,-0.776669 -0.68121,-1.645224 -1.51944,-2.362709 -0.81717,-0.699463 -1.23515,-0.821062 -1.89872,-0.552365 -0.46975,0.190214 -1.05389,0.695489 -1.05389,0.911595 0,0.05145 -0.10505,0.58675 -0.23334,1.189565 -0.38233,1.796093 0.10116,3.515878 1.16119,4.130749 0.69177,0.401241 0.90477,0.407229 1.49919,0.04215 z M 27.545084,107.5168 c -1.82837,-0.44511 -3.10195,-1.99509 -3.82916,-4.66021 -0.60696,-2.22444 -0.72994,-4.218835 -0.40896,-6.632244 0.0701,-0.52704 0.55618,-2.19896 0.72599,-2.497075 0.0736,-0.129181 0.29498,-0.551957 0.49198,-0.939502 0.19702,-0.387545 0.76338,-1.115424 1.25858,-1.617508 0.49518,-0.502086 0.90035,-0.986337 0.90035,-1.076113 0,-0.106193 0.0749,-0.101144 0.21411,0.01443 0.16256,0.134915 0.25999,0.122376 0.40474,-0.05202 0.31808,-0.383274 1.43424,-0.963799 2.57295,-1.338211 1.29423,-0.425561 2.26538,-0.372774 3.54131,0.19249 1.07808,0.477624 2.55387,1.811268 2.86095,2.58537 0.54489,1.373687 0.80041,4.643049 0.54151,6.928555 -0.25212,2.225428 -1.21377,4.608158 -2.63018,6.516798 -1.55294,2.09264 -4.28184,3.15033 -6.64417,2.57522 z m 6.13911,-12.248747 c 0.0416,-0.273073 0.0111,-0.297467 -0.17736,-0.14111 -0.1252,0.103974 -0.18803,0.292632 -0.13944,0.419232 0.10911,0.284166 0.24992,0.160492 0.31687,-0.278131 z"
       id="path901"
       sodipodi:nodetypes="ssssssssssssssssscsscsssssscsssssssssssssscsssssscsssssssssssccsssssssssssssssssssssssssssssssssssssssssssssssssssssssssssssssssssssssssssssssssssssssssssssscscssscssssssssssscssssssssscscsssssssssssssssssssssscsssssssssssssscssssssscscsssssssscsssssssscsssssssscssscssssssssssssssssssssssssssssssssscsssscsssssssssssssccssscsssscsssssscssssssscssssscsssssccsscscssssssssscssssssssssssssssssssssssssssssssss" />
    <path
       style="fill:#000000;stroke-width:0.0846667"
       id="path881"
       d="" />
    <path
       style="fill:#00ff00;stroke-width:1.04816;stroke-dasharray:0, 11.5298"
       d="m 190.53542,15.606003 c -0.53882,0.753497 1.15613,1.458076 1.29076,2.283443 0.74381,2.523222 -2.23316,4.084468 -3.81777,5.497256 -3.3024,3.041887 -3.21612,8.072149 -3.53409,12.225615 0.0259,3.804531 -0.67404,8.382434 2.54566,11.197905 2.04602,2.322626 5.88851,4.004871 8.51706,1.590975 3.62205,-3.490903 5.39808,-8.493974 6.65349,-13.261669 0.82693,-4.657967 -2.27779,-8.886023 -4.65397,-12.596815 -2.01025,-2.477798 -3.98919,-5.640899 -7.00114,-6.93671 z"
       id="path1224"
       transform="matrix(0.26458333,0,0,0.26458333,23.13476,61.54693)" />
    <path
       style="fill:#00ff00;stroke-width:2.17082;stroke-dasharray:0, 23.879"
       d="m 307.27714,12.828143 c -6.19985,7.707032 -7.57545,19.578376 -2.66886,28.243031 1.0087,1.96193 3.7365,3.18021 5.01071,0.699477 3.86415,-5.468147 8.62995,-13.043736 4.84649,-19.739327 -1.77251,-3.480514 -4.49109,-6.54019 -7.18834,-9.203181 z"
       id="path1263"
       transform="matrix(0.26458333,0,0,0.26458333,23.13476,61.54693)" />
    <path
       style="fill:#00ff00;stroke-width:2.17082;stroke-dasharray:0, 23.879"
       d="m 441.477,12.729894 c -5.73864,1.126553 -6.55932,8.708994 -6.4698,13.530552 0.0817,4.698322 2.9771,11.21368 8.48464,10.72678 5.53591,-2.967612 11.55687,-9.737678 7.76464,-16.265405 -2.09264,-3.50783 -5.246,-7.974458 -9.77948,-7.991927 z"
       id="path1302"
       transform="matrix(0.26458333,0,0,0.26458333,23.13476,61.54693)" />
    <path
       style="fill:#ffcc00;stroke-width:2.17082;stroke-dasharray:0, 23.879"
       d="m 226.94727,112.66418 c -6.61249,3.87836 -7.44321,12.57855 -8.41425,19.45778 -0.39354,6.76807 1.14039,14.71494 6.70442,19.06477 3.29228,-2.1454 4.00271,-7.08988 5.67637,-10.50134 2.91339,-8.73908 5.83287,-19.50539 0.45908,-27.87897 -1.21633,-2.91363 -2.5191,-1.11788 -4.42562,-0.14224 z"
       id="path1454"
       transform="matrix(0.26458333,0,0,0.26458333,23.13476,61.54693)" />
    <path
       style="fill:#ffcc00;stroke-width:2.17082;stroke-dasharray:0, 23.879"
       d="m 380.25003,113.79625 c -2.83782,2.34154 -2.53788,7.01937 -3.5663,10.36604 -1.47144,9.5239 -1.56423,19.51513 0.65402,28.87799 2.74276,1.87378 5.16212,-2.56992 6.2513,-4.5488 4.60847,-10.49477 5.7813,-24.03917 -1.17606,-33.7758 -0.54818,-0.59408 -1.31916,-1.09054 -2.16296,-0.91943 z"
       id="path1493"
       transform="matrix(0.26458333,0,0,0.26458333,23.13476,61.54693)" />
    <path
       style="fill:#ffcc00;stroke-width:2.17082;stroke-dasharray:0, 23.879"
       d="m 534.5089,111.40747 c -6.56197,1.90756 -10.65435,8.20277 -15.18173,12.8604 0.49852,5.85908 0.27565,14.3484 7.16927,16.62907 3.31195,2.16153 7.64171,1.47262 9.83227,-1.8858 4.03321,-6.14848 6.86984,-14.07829 5.17496,-21.42863 -1.40841,-2.60303 -3.80432,-5.88382 -6.99477,-6.17504 z"
       id="path1532"
       transform="matrix(0.26458333,0,0,0.26458333,23.13476,61.54693)" />
    <path
       style="fill:#ff00ff;stroke-width:0.52501;stroke-dasharray:0, 5.77511"
       d="m 540.50905,199.55478 c -2.02872,0.10488 -4.41076,0.0496 -5.86589,1.72324 -3.91712,3.56899 -6.65477,8.50862 -7.05394,13.84139 -0.26837,3.85734 -0.34282,7.8307 0.65785,11.59578 0.68225,1.99215 1.38467,4.09923 2.75775,5.72723 0.97335,0.85538 2.15867,-0.33827 2.98096,-0.84424 5.19984,-4.27866 8.91546,-10.17627 11.26244,-16.44134 0.82063,-4.04804 0.5249,-8.3248 -0.62276,-12.28255 -0.46998,-1.20436 -0.94479,-2.81286 -2.285,-3.27482 -0.6062,-0.0772 -1.22192,-0.0415 -1.83141,-0.0447 z"
       id="path1997"
       transform="matrix(0.26458333,0,0,0.26458333,23.13476,61.54693)" />
  </g>
</svg>
