<?xml version="1.0" encoding="UTF-8" standalone="no"?>
<!-- Created with Inkscape (http://www.inkscape.org/) -->

<svg
   width="146.03059mm"
   height="71.60437mm"
   viewBox="0 0 146.03059 71.60437"
   version="1.1"
   id="svg5"
   inkscape:version="1.1.1 (c3084ef, 2021-09-22)"
   sodipodi:docname="console_perspective copy 6.svg"
   xmlns:inkscape="http://www.inkscape.org/namespaces/inkscape"
   xmlns:sodipodi="http://sodipodi.sourceforge.net/DTD/sodipodi-0.dtd"
   xmlns="http://www.w3.org/2000/svg"
   xmlns:svg="http://www.w3.org/2000/svg">
  <sodipodi:namedview
     id="namedview7"
     pagecolor="#ffffff"
     bordercolor="#666666"
     borderopacity="1.0"
     inkscape:pageshadow="2"
     inkscape:pageopacity="0.0"
     inkscape:pagecheckerboard="0"
     inkscape:document-units="mm"
     showgrid="false"
     inkscape:zoom="0.81338511"
     inkscape:cx="177.03791"
     inkscape:cy="241.58298"
     inkscape:window-width="1946"
     inkscape:window-height="1223"
     inkscape:window-x="0"
     inkscape:window-y="25"
     inkscape:window-maximized="0"
     inkscape:current-layer="layer1" />
  <defs
     id="defs2" />
  <g
     inkscape:label="Layer 1"
     inkscape:groupmode="layer"
     id="layer1"
     transform="translate(-19.933402,-183.23491)">
    <g
       id="g2450">
      <path
         style="fill:#000000;stroke-width:0.219749"
         d="m 24.065833,254.80655 c -0.271952,-0.0423 -0.494435,-0.1687 -0.494435,-0.28124 0,-0.11238 -0.123544,-0.20452 -0.274703,-0.20478 -0.151056,-1.6e-4 -0.546629,-0.23411 -0.878978,-0.52 -0.445847,-0.38343 -0.604326,-0.72209 -0.604326,-1.29132 0,-0.94259 0.450935,-1.35789 1.443801,-1.32976 0.700436,0.0208 0.729687,-0.008 0.481587,-0.45143 -1.393683,-2.49298 -3.016544,-9.94802 -3.022203,-13.88328 0,-0.74479 -0.13133,-1.51427 -0.297387,-1.75801 -0.58974,-0.86514 -0.661868,-2.52104 -0.109788,-2.52104 0.113422,0 0.661842,-0.44912 1.218619,-0.99801 0.556752,-0.54889 1.318467,-1.20946 1.69268,-1.46799 0.374187,-0.25851 0.828704,-0.60295 1.009996,-0.76545 0.371203,-0.33269 4.678001,-3.14551 5.436472,-3.55066 0.270732,-0.14457 0.637859,-0.54456 0.815882,-0.88885 0.31065,-0.60071 5.666351,-6.07082 8.824088,-9.01257 4.084524,-3.80509 12.682133,-12.20552 20.617069,-20.14422 4.843072,-4.84536 9.398905,-9.24523 10.124075,-9.77751 0.725171,-0.53227 1.400639,-1.09744 1.501057,-1.25591 0.346572,-0.54707 1.186228,-0.70576 1.979789,-0.37422 0.41164,0.17208 0.79081,0.27037 0.84259,0.21854 0.146384,-0.14638 3.030352,-0.3053 9.96025,-0.54858 3.504984,-0.12302 8.202113,-0.33247 10.438048,-0.46544 5.12076,-0.30447 15.204554,-0.40188 18.239164,-0.17623 1.26905,0.0945 3.74122,0.23593 5.4937,0.31444 1.7525,0.0786 3.35943,0.19128 3.57093,0.2502 0.28408,0.0794 0.38455,0.33666 0.38455,0.98461 0,0.52205 -0.088,0.82282 -0.21724,0.7429 -0.11939,-0.0737 -0.16689,-0.003 -0.10564,0.15677 0.13185,0.34382 -0.96709,1.05022 -1.63394,1.05022 -0.36773,0 -0.46578,0.14405 -0.48655,0.7142 -0.0156,0.39279 0.002,0.81305 0.0363,0.93392 0.1604,0.56472 -0.0358,4.16096 -0.24034,4.40737 -0.15443,0.1861 -0.15728,0.32352 -0.008,0.41551 0.21621,0.13366 0.12952,7.53988 -0.1007,8.62429 -0.095,0.44717 -0.0234,0.48021 0.97942,0.45737 1.71085,-0.0389 2.83484,0.9196 2.37708,2.02723 -0.35779,0.8658 -0.40575,1.44264 -0.17104,2.0596 l 0.21724,0.57176 2.60306,-0.11187 c 5.60466,-0.2406 8.57928,-0.2726 9.51165,-0.10226 0.53537,0.0978 1.54796,0.23437 2.25026,0.30372 1.60002,0.15806 2.74127,0.46277 4.28004,1.1433 0.6633,0.29334 2.04169,0.73537 3.06313,0.98228 1.86284,0.45034 5.9321,2.25106 6.77062,2.99617 0.58338,0.51836 2.18706,2.69035 2.40305,3.25462 0.0927,0.24164 0.29158,1.06985 0.44232,1.84026 0.59623,3.04707 -0.2284,3.93952 -5.80401,6.28173 -1.01838,0.42781 -2.00009,0.77784 -2.18156,0.77784 -0.18142,0 -1.12819,0.28257 -2.10385,0.62792 -0.97566,0.34537 -2.56502,0.85177 -3.5319,1.12536 -0.96691,0.27356 -1.95578,0.57448 -2.1975,0.66864 -0.98684,0.38452 -4.87432,2.13848 -5.38383,2.42909 -0.18143,0.10356 -1.10022,0.60827 -2.04203,1.12191 -0.94179,0.51362 -1.90182,1.11037 -2.13334,1.32608 -0.23151,0.21568 -0.48514,0.39219 -0.56352,0.39219 -0.33791,0 -2.36504,1.80216 -2.88903,2.56839 -1.12329,1.64254 -2.26078,4.71917 -2.26078,6.11485 0,0.48571 1.30015,1.84643 2.20565,2.30837 1.22404,0.62447 3.25636,0.74049 6.25466,0.35698 1.45034,-0.18557 3.42808,-0.40037 4.39499,-0.47751 0.96689,-0.0771 1.99612,-0.17779 2.28717,-0.22347 0.29108,-0.0457 1.82383,-0.0877 3.40613,-0.0932 1.58229,-0.005 3.16697,-0.013 3.52154,-0.0156 0.60386,-0.005 1.58266,-0.6621 3.15639,-2.12057 0.97719,-0.90563 2.35047,-1.56734 3.78846,-1.82546 0.7811,-0.14015 1.8652,-0.4507 2.40907,-0.68995 1.11712,-0.49145 2.03199,-0.44076 4.83449,0.26777 0.90646,0.22918 1.99422,0.41629 2.41722,0.41577 1.68272,-0.002 2.91239,0.47411 3.30519,1.27979 0.1591,0.32633 0.29635,0.65928 0.30496,0.73986 0.008,0.0805 0.0898,0.22062 0.18039,0.3113 0.5337,0.53371 -0.36251,5.03693 -1.29706,6.51733 l -0.527,0.8348 0.55493,0.55494 c 0.65642,0.65641 0.70708,1.2618 0.1521,1.81689 -0.35078,0.35081 -0.81038,0.40599 -3.54981,0.42633 -1.73076,0.013 -3.20578,0.11343 -3.27783,0.22347 -0.22814,0.3486 -1.07026,0.70534 -1.66478,0.70534 -0.32329,0 -0.82048,-0.24656 -1.13876,-0.56495 -0.31072,-0.31073 -0.72652,-0.55429 -0.92395,-0.54126 -4.65075,0.30689 -6.74905,-0.88274 -6.64497,-3.7673 l 0.047,-1.30207 -1.1656,0.12095 c -0.6411,0.0667 -1.90727,0.16949 -2.81373,0.22866 -0.90647,0.0592 -2.04367,0.15962 -2.52712,0.22321 -0.48343,0.0636 -1.37341,0.16429 -1.97774,0.22347 -0.6043,0.0594 -2.23594,0.26668 -3.62586,0.46064 -3.66904,0.51211 -7.2116,0.46861 -9.03203,-0.11082 -2.97019,-0.94553 -5.65771,-3.45066 -6.34089,-5.91067 -0.36154,-1.30164 -0.27083,-3.3736 0.20868,-4.76733 0.42166,-1.22555 1.45961,-3.50514 1.80311,-3.96007 0.81952,-1.08535 1.48845,-1.67794 1.72741,-1.53026 0.16897,0.10434 0.21932,0.0802 0.13055,-0.0633 -0.41083,-0.66477 6.01827,-4.92314 9.20383,-6.09623 1.64327,-0.60511 1.64495,-0.60584 3.92841,-1.63478 0.83558,-0.37655 2.48915,-0.93044 3.67457,-1.23095 1.1854,-0.30047 3.14518,-0.89836 4.35505,-1.32861 1.20987,-0.43025 2.31569,-0.71064 2.4574,-0.62304 0.15625,0.0966 0.19908,0.0644 0.10875,-0.0818 -0.0893,-0.14457 0.23463,-0.41083 0.8081,-0.66454 1.24224,-0.54948 2.26176,-1.55888 2.45273,-2.42834 0.12484,-0.56866 0.0353,-0.83747 -0.5051,-1.51444 -0.5153,-0.64562 -1.09949,-0.99734 -2.70958,-1.6313 -1.12897,-0.44455 -2.5471,-0.95466 -3.1514,-1.13362 -0.6043,-0.17909 -1.74664,-0.62314 -2.53847,-0.98713 -2.40225,-1.10416 -3.61238,-1.24312 -10.76878,-1.23663 l -6.495,0.005 -1.74558,0.83171 c -0.96006,0.45745 -1.89388,0.90789 -2.07517,1.00099 -0.18142,0.0932 -0.50788,0.54053 -0.72577,0.99435 -0.33863,0.70534 -0.47422,0.80555 -0.93392,0.69016 -0.46397,-0.11654 -0.53778,-0.0589 -0.53778,0.41857 0,0.50837 -0.0797,0.55358 -0.97452,0.55358 -0.53599,0 -1.69789,0.15884 -2.58204,0.35309 -0.9354,0.20556 -2.889,0.37686 -4.67239,0.40992 l -3.06485,0.0568 -1.29295,1.40297 c -0.71113,0.77166 -2.29856,2.44946 -3.52764,3.72848 -1.22906,1.27901 -2.778519,2.94992 -3.443267,3.71306 -0.664723,0.76319 -1.380472,1.5846 -1.590522,1.82539 -0.209973,0.24085 -0.778897,0.99263 -1.264066,1.67077 -0.485195,0.67814 -1.447539,2.02407 -2.138605,2.99095 -1.360202,1.90317 -3.340432,4.47815 -4.633437,6.02494 -0.932211,1.11524 -2.226565,3.04499 -3.033727,4.523 -0.198033,0.36259 -0.792574,1.2703 -1.321269,2.01714 -0.528695,0.74682 -0.96128,1.41979 -0.96128,1.49545 0,0.0758 -0.486492,0.8985 -1.081086,1.82847 -0.594619,0.93001 -1.14727,2.04987 -1.228144,2.48858 -0.09525,0.51642 -0.31649,0.87488 -0.62766,1.01667 -0.43967,0.20037 -1.042725,1.14602 -1.322645,2.07408 -0.06566,0.21802 -0.413145,0.41704 -0.838073,0.48 -2.579548,0.38234 -8.127701,0.61977 -16.43776,0.70342 -19.755922,0.19882 -25.176691,0.34938 -27.563889,0.76509 -0.816712,0.14223 -1.945191,0.20582 -2.507731,0.14146 -0.562565,-0.0644 -1.863383,-0.0327 -2.890691,0.0703 -2.369133,0.23775 -5.018654,0.35963 -5.658538,0.26022 z m 7.637523,-3.79591 c 0.78632,0.0208 2.1038,-0.0683 2.927754,-0.19985 0.823928,-0.13159 2.553878,-0.23722 3.844314,-0.23463 1.290435,0.003 3.483441,-0.0942 4.873361,-0.21516 1.389893,-0.12095 7.125335,-0.26206 12.745409,-0.31379 10.309755,-0.095 13.059979,-0.18713 16.984207,-0.57061 1.18314,-0.1155 2.666444,-0.21257 3.296231,-0.21542 1.082696,-0.005 1.165465,-0.0465 1.519771,-0.75899 0.310053,-0.62361 0.338551,-0.97322 0.16533,-2.02726 -0.115238,-0.70054 -0.259546,-1.9664 -0.32085,-2.81299 -0.09577,-1.32467 -0.773654,-6.58501 -1.142105,-8.86465 l -0.118872,-0.73498 -4.203707,0.12847 c -2.312034,0.0706 -7.021985,0.17857 -10.466546,0.23982 -10.361352,0.18402 -15.941404,0.33596 -20.106984,0.54764 -2.175512,0.11057 -5.685999,0.25669 -7.801089,0.32495 -3.71519,0.11965 -8.757463,0.34401 -9.888693,0.43986 -0.382726,0.0324 -0.546344,0.17415 -0.539388,0.46731 0.02076,0.86151 0.359289,3.75041 0.551846,4.70587 0.109528,0.54388 0.246569,1.23609 0.304343,1.53825 0.263517,1.37817 1.005533,4.5787 1.222772,5.27397 0.385841,1.23492 0.308964,2.84649 -0.153651,3.2231 -0.352203,0.28664 -0.09941,0.30597 2.24001,0.1713 1.450342,-0.0836 3.280321,-0.13393 4.066615,-0.11213 z m -2.936527,-9.67739 c -0.820398,-0.22451 -1.459711,-0.81672 -1.459711,-1.35185 0,-0.5684 1.237748,-1.7022 1.858296,-1.7022 1.264481,0 2.316939,0.73103 2.316939,1.60934 0,0.94223 -1.546244,1.76486 -2.715524,1.44471 z m 7.44302,-0.0997 c -1.890739,-0.65042 -1.933019,-2.38325 -0.06956,-2.84828 0.78279,-0.19544 2.092821,0.25306 2.475521,0.84742 0.24553,0.38137 0.253057,1.68346 0.01038,1.68346 -0.03166,0 -0.39085,0.13912 -0.798441,0.30941 -0.631163,0.26354 -0.870854,0.26473 -1.6171,0.008 z m 117.562651,6.3215 c 1.28055,-0.41603 1.82772,-0.7626 1.93569,-1.22597 0.06,-0.25773 0.36677,-1.44844 0.68162,-2.64604 0.31488,-1.19762 0.53199,-2.21795 0.48255,-2.26739 -0.0493,-0.0493 -0.61204,0.0651 -1.25021,0.25461 -0.63814,0.18947 -1.45441,0.34458 -1.81383,0.34458 -0.71637,0 -1.90403,0.77557 -2.82189,1.84277 -0.54481,0.6334 -0.56236,0.71334 -0.23592,1.07403 0.24682,0.27288 0.34275,0.76405 0.31973,1.63874 -0.0182,0.68699 0.0703,1.31289 0.19648,1.39088 0.23826,0.14717 1.36422,-0.0353 2.50573,-0.40626 z m 7.81243,0.27618 c 0.0864,-0.0535 0.22347,-0.62903 0.30473,-1.2792 0.0812,-0.65021 0.2894,-1.71456 0.46259,-2.36524 0.47827,-1.79701 0.44954,-1.89338 -0.61385,-2.05877 -0.51367,-0.0799 -1.08641,-0.18765 -1.27271,-0.2393 -0.2685,-0.0745 -0.41397,0.30401 -0.70103,1.82458 -0.19933,1.05529 -0.4615,1.95179 -0.58278,1.9922 -0.12147,0.0405 -0.1739,0.19518 -0.1168,0.34382 0.0571,0.14872 -0.0478,0.69984 -0.23307,1.22487 l -0.33679,0.95459 1.46641,-0.15028 c 0.80649,-0.0825 1.53703,-0.19388 1.62341,-0.24735 z m -2.06232,-0.24942 c -0.28566,-0.28563 -0.14094,-0.93982 0.25487,-1.15163 0.55431,-0.29666 1.29542,0.5126 0.90273,0.98573 -0.27092,0.32645 -0.9061,0.41745 -1.15768,0.16584 z m 1.11706,-3.101 c -0.49958,-0.10512 -0.52761,-1.26532 -0.035,-1.45432 0.48413,-0.18583 0.7499,0.026 0.74593,0.59449 -0.005,0.6573 -0.25202,0.95643 -0.71082,0.85983 z m -77.984913,-3.52718 c 0.620263,-1.0067 1.127778,-1.8742 1.127778,-1.92785 0,-0.21413 3.65347,-5.10298 4.596478,-6.15072 0.553897,-0.61546 1.748767,-2.18158 2.655231,-3.4803 2.911844,-4.17191 4.537145,-6.13247 4.898563,-5.90908 0.130811,0.0807 0.155987,0.0288 0.06073,-0.12536 -0.18246,-0.29523 0.394718,-0.96608 4.419683,-5.1368 1.48893,-1.54289 2.70719,-2.90844 2.70719,-3.03453 0,-0.12614 -0.0844,-0.17701 -0.18765,-0.11342 -0.1033,0.0639 -0.8474,-0.14587 -1.65375,-0.46568 -1.1683,-0.46355 -1.493457,-0.69651 -1.60065,-1.14683 -0.07397,-0.31083 -0.210232,-0.66402 -0.302786,-0.78489 -0.09266,-0.12095 -0.236186,-0.76807 -0.319007,-1.43825 -0.139636,-1.12767 -0.104338,-1.27317 0.473255,-1.95147 1.630958,-1.91573 2.568778,-2.85259 3.637538,-3.63387 0.63892,-0.46708 1.79647,-1.57474 2.57231,-2.46148 0.77588,-0.88674 1.54883,-1.61222 1.71775,-1.61222 0.16896,0 0.65187,-0.263 1.0733,-0.58445 0.76156,-0.58086 0.77118,-0.58211 1.57129,-0.20063 0.44273,0.21127 0.93112,0.56397 1.08529,0.78404 0.18142,0.25903 0.4426,0.35773 0.7403,0.27989 0.25306,-0.0662 0.9707,-0.008 1.59483,0.13237 0.62416,0.13886 1.54458,0.28514 2.04543,0.3249 l 0.91061,0.0724 0.14483,-4.96399 c 0.0797,-2.73021 0.18947,-5.75509 0.24423,-6.72198 l 0.0994,-1.758 -0.6784,0.76914 c -0.37315,0.423 -1.23889,1.40946 -1.92388,2.19212 -0.68502,0.78263 -1.44323,1.6294 -1.68495,1.88171 -0.24164,0.25227 -0.77422,0.84804 -1.18332,1.32383 -0.40915,0.47586 -1.4151,1.60683 -2.23552,2.51329 -0.82037,0.90646 -2.15374,2.43921 -2.96292,3.4061 -0.80924,0.96688 -2.03393,2.3513 -2.72157,3.07647 -0.68764,0.72517 -1.82902,2.0107 -2.53636,2.85674 -0.70739,0.84604 -1.510379,1.76715 -1.78446,2.04688 -0.274106,0.27974 -0.925618,1.07084 -1.447798,1.75799 -0.52218,0.68714 -1.332897,1.64489 -1.801533,2.12835 -0.468662,0.48345 -1.259887,1.42288 -1.758267,2.0876 -0.498379,0.66475 -1.013526,1.30752 -1.144752,1.42839 -0.13133,0.12095 -1.227055,1.5547 -2.435162,3.18634 -2.033152,2.74589 -3.205053,4.36304 -6.82107,9.41227 -0.750269,1.04763 -1.450705,1.88557 -1.556548,1.86208 -0.105895,-0.0234 -0.192324,0.0786 -0.192324,0.22711 0,0.14846 -0.472762,0.87874 -1.050563,1.62278 l -1.050537,1.3528 0.23956,1.05695 c 0.13185,0.58131 0.29949,1.49984 0.372812,2.04117 0.07319,0.54134 0.164033,1.03577 0.201667,1.09874 0.03763,0.0631 0.134704,0.95505 0.215942,1.98238 0.140414,1.77514 0.30616,2.7555 0.439541,2.59863 0.03348,-0.0395 0.568249,-0.89515 1.188538,-1.90185 z m -42.162715,-9.82285 c 2.477676,-0.0664 4.801519,-0.16585 5.164104,-0.22139 0.575543,-0.088 19.131663,-0.37873 26.644267,-0.41753 1.480423,-0.008 2.691775,-0.0893 2.691931,-0.18168 1.29e-4,-0.0924 -0.122506,-0.36456 -0.272835,-0.60505 -0.196995,-0.31538 -0.208156,-0.54022 -0.04023,-0.80639 0.473567,-0.75079 0.87742,-0.82582 1.615542,-0.30021 0.385452,0.27447 0.646555,0.55332 0.580215,0.61966 -0.06644,0.0665 -0.01817,0.24294 0.104856,0.39238 0.124063,0.1495 0.197255,0.39991 0.162995,0.55652 -0.124842,0.56768 0.678894,0.44735 1.077167,-0.16118 0.219056,-0.33489 0.665112,-0.90109 0.991049,-1.25827 0.325964,-0.35717 0.708794,-0.92975 0.850713,-1.2724 0.141972,-0.34268 0.340213,-0.62307 0.440631,-0.62307 0.100444,0 0.48356,-0.43757 0.851544,-0.97239 0.367958,-0.53482 0.796987,-1.1034 0.953363,-1.26354 0.156247,-0.16014 0.82167,-1.08226 1.478451,-2.04917 0.656806,-0.96688 2.012518,-2.82038 3.012703,-4.11888 1.000186,-1.29846 1.818533,-2.40984 1.818533,-2.46963 0,-0.16508 1.612091,-2.10391 3.916883,-4.71089 0.68598,-0.77589 1.730496,-2.01197 2.32117,-2.74688 0.590674,-0.73487 1.282883,-1.53433 1.538224,-1.77661 0.255393,-0.24216 0.956036,-1.03336 1.557015,-1.75798 0.87062,-1.04971 3.105387,-3.61187 4.620747,-5.29772 0.43435,-0.48322 2.64511,-3.02161 3.02329,-3.47135 0.70002,-0.83249 1.53327,-1.75832 2.88997,-3.21118 0.73617,-0.78829 1.68455,-1.86771 2.10756,-2.39869 0.82131,-1.03089 1.5737,-1.88464 2.67745,-3.03809 0.37743,-0.39441 0.64632,-0.75634 0.59758,-0.80433 -0.33041,-0.32527 -10.61467,-0.49449 -14.921707,-0.24553 -5.859141,0.33865 -13.122088,0.58351 -16.481155,0.55566 -4.368882,-0.0363 -4.949615,-0.0716 -6.496352,-0.39615 l -1.112543,-0.23333 -3.502181,3.38671 c -1.926219,1.86268 -3.625828,3.38936 -3.77691,3.39263 -0.151055,0.003 -0.274677,0.11627 -0.274677,0.2515 0,0.21283 -16.733694,16.99975 -25.625316,25.70676 -3.350242,3.28068 -6.607412,6.7193 -6.957825,7.3454 -0.336241,0.60088 -1.31992,1.40781 -1.725693,1.4157 -0.196736,0.003 -0.481588,0.15624 -0.633084,0.33883 -0.312026,0.37595 -2.73948,2.01099 -4.063475,2.73699 l -0.879003,0.48198 4.2851,-0.1251 c 2.356805,-0.0688 6.312283,-0.17935 8.789958,-0.24579 z m 37.654405,-27.74432 c -0.492591,-0.0511 -0.728986,-0.21075 -0.821073,-0.55408 -0.284254,-1.06004 -0.276675,-1.07888 1.604434,-3.99817 0.311507,-0.48343 0.619666,-0.92842 0.684786,-0.98887 0.359575,-0.33372 3.069206,-3.99106 3.069206,-4.14266 0,-0.40702 1.845319,-1.79712 2.686117,-2.02353 0.730051,-0.19647 1.139795,-0.17337 2.13043,0.12043 2.72998,0.80945 3.660088,1.41009 4.180166,2.69946 0.159361,0.39539 0.366608,0.76626 0.460304,0.82416 0.0937,0.0579 0.477279,-0.35809 0.8524,-0.92445 0.43313,-0.6539 0.596462,-1.08259 0.447535,-1.17462 -0.133666,-0.0828 -0.172598,-0.39129 -0.09058,-0.7184 0.333023,-1.3268 2.741322,-1.25519 5.160885,0.15339 0.90309,0.52579 1.349586,0.97223 1.789693,1.78973 0.32257,0.59905 0.59301,1.3364 0.60101,1.63856 0.0208,0.82369 -0.49049,2.12137 -1.092585,2.76743 -1.117707,1.19923 -5.11915,4.10916 -5.893739,4.28599 -0.798492,0.1822 -2.30487,-0.082 -2.806079,-0.49262 -0.171819,-0.14068 -0.43832,-0.0234 -0.819411,0.35648 -0.438659,0.43861 -0.701034,0.53425 -1.173874,0.42786 -0.846846,-0.1905 -1.660781,-1.13073 -1.537445,-1.77594 0.118872,-0.62192 -0.05269,-0.64627 -0.744897,-0.10563 -0.288251,0.22502 -0.771292,0.48441 -1.073455,0.57627 -0.302163,0.0919 -0.663399,0.25799 -0.802749,0.36907 -0.853931,0.68102 -3.381077,0.56475 -4.283621,-0.19699 -0.199072,-0.16793 -0.397702,-0.22529 -0.441617,-0.12718 -0.04386,0.0981 -0.375537,0.42755 -0.736954,0.73231 -0.466741,0.39355 -0.857565,0.53323 -1.348886,0.48218 z m 4.537353,-3.12973 c 0,-0.0838 1.013579,-0.9012 2.252416,-1.81649 2.577368,-1.90423 3.64314,-2.92682 3.338745,-3.20334 -0.113941,-0.10355 -0.528695,-0.29554 -0.921517,-0.42661 -0.789123,-0.26334 -2.032659,0.026 -2.032659,0.47261 0,0.22061 -0.645412,1.26962 -2.010467,3.26773 -0.223729,0.32747 -0.406786,0.69483 -0.406786,0.81632 0,0.12147 -0.197774,0.32677 -0.439489,0.45613 -0.518572,0.27753 -0.576399,0.586 -0.109788,0.586 0.181423,0 0.329623,-0.0685 0.329623,-0.15235 z m 13.604013,-3.49045 c 1.491921,-1.43799 1.476348,-1.53226 -0.309222,-1.8693 -0.595502,-0.11239 -0.726235,-0.0234 -1.351896,0.91754 -1.317974,1.98267 -2.054201,3.28954 -2.054201,3.64644 0,0.42329 1.940935,-0.98448 3.715319,-2.69468 z m -30.06578,5.41911 c -0.244752,-0.64965 0.262349,-1.53774 2.338897,-4.09678 0.451869,-0.5568 0.921906,-1.14893 1.044567,-1.31584 0.525425,-0.71503 3.60099,-3.79339 4.508103,-4.51226 1.159365,-0.91874 1.528413,-0.96426 2.317068,-0.28589 0.441955,0.38018 0.583615,0.7055 0.583615,1.34048 0,0.46116 -0.10875,0.94724 -0.241637,1.0802 -0.367595,0.3676 -0.288771,0.81363 0.14275,0.80833 0.21153,-0.003 0.908644,-0.6504 1.549229,-1.43952 1.550422,-1.90997 2.501424,-2.22612 3.251719,-1.08098 0.252538,0.38558 0.27613,0.70007 0.10823,1.44785 -0.118093,0.52542 -0.346078,1.05692 -0.506711,1.18114 -0.160659,0.12432 -0.683254,0.72029 -1.161389,1.32462 -1.16684,1.47482 -2.381956,2.82321 -3.878834,4.30428 -1.125961,1.11407 -1.334221,1.23043 -2.226124,1.24392 -0.801166,0.013 -1.032654,-0.076 -1.245949,-0.47465 -0.219057,-0.40905 -0.183499,-0.62245 0.214904,-1.29791 0.262323,-0.44461 0.565031,-0.75396 0.672664,-0.68744 0.107712,0.0664 0.139636,-0.026 0.07112,-0.20348 -0.220614,-0.57495 -1.63859,-0.17182 -2.529221,0.7191 -1.505054,1.50547 -3.112006,2.43923 -4.197764,2.43923 -0.450701,0 -0.681878,-0.14015 -0.815285,-0.49443 z"
         id="path1001"
         sodipodi:nodetypes="cssssccccsssssssssssssssccsscsccscsssccsssssscssssssssssssssssccssssssccscssssssssccsscsssssscssssssssssssccsssssssscssssssssssssssssssscccssssscsscscscscscsssssccssssscssscccsssssssssssscssssssssccccssssssscsscsssssssccssccsssscsscscsccssssssssssssssscsscccssscccccsssssccssssssssssscsssssssssscscssscsscscccssssscsssccsscssscsssscsssccssssssssssssscsssssssscsssssssccsscssss" />
      <path
         id="path1001-9"
         style="fill:#00006c;fill-opacity:0.345946;stroke-width:0.219749"
         d="m 131.68701,208.33956 c -1.56077,0.0168 -3.70588,0.0849 -6.50811,0.20515 l -0.89969,0.0388 c -0.93512,0.30754 -1.88495,0.58065 -2.84014,0.82579 l -1.19632,4.408 c 0.0548,-0.0558 0.10655,-0.10023 0.14883,-0.12195 0.18129,-0.0931 1.11474,-0.54353 2.07481,-1.00098 l 1.74564,-0.83199 6.4952,-0.005 c 7.1564,-0.006 8.36661,0.13245 10.76886,1.23661 0.79182,0.36399 1.93403,0.80793 2.53834,0.98702 0.60431,0.17896 2.02226,0.68923 3.15124,1.13378 1.61007,0.63396 2.19408,0.98529 2.70938,1.63091 0.54042,0.67697 0.63011,0.94598 0.50541,1.51464 -0.19098,0.86946 -1.21034,1.87879 -2.45258,2.42827 -0.57346,0.25371 -0.89752,0.51999 -0.80822,0.66456 0.0903,0.1462 0.0472,0.17825 -0.10904,0.0816 -0.14171,-0.0876 -1.24735,0.19297 -2.45721,0.62322 -1.20986,0.43025 -3.16989,1.02813 -4.35528,1.3286 -1.18544,0.30051 -2.83861,0.85438 -3.67419,1.23093 -2.28346,1.02894 -2.28518,1.02993 -3.92845,1.63504 -3.18556,1.1731 -9.61494,5.43099 -9.20409,6.09576 0.0888,0.1435 0.0387,0.1679 -0.13023,0.0636 -0.23897,-0.14768 -0.90802,0.44479 -1.72754,1.53014 -0.34351,0.45493 -1.38134,2.73441 -1.80298,3.95996 -0.47953,1.39373 -0.57033,3.46603 -0.20878,4.76767 0.68318,2.46001 3.3705,4.96522 6.34069,5.91075 1.82043,0.57943 5.36297,0.6227 9.03202,0.11059 1.38991,-0.19396 3.02184,-0.40104 3.62612,-0.46044 0.60433,-0.0592 1.49423,-0.16016 1.97765,-0.22376 0.48348,-0.0636 1.62052,-0.16404 2.52699,-0.22324 0.90646,-0.0592 2.17267,-0.16171 2.81379,-0.22841 l 1.1658,-0.12092 -0.047,1.30173 c -0.10409,2.88456 1.99432,4.07462 6.64506,3.76773 0.19743,-0.013 0.61275,0.23032 0.92348,0.54105 0.31826,0.31839 0.81565,0.56482 1.13895,0.56482 0.59452,0 1.43687,-0.35678 1.66499,-0.70538 0.072,-0.11004 1.54707,-0.21024 3.27785,-0.22324 2.73944,-0.0204 3.19886,-0.0755 3.54965,-0.42634 0.55499,-0.55508 0.5045,-1.16053 -0.15193,-1.81694 l -0.55501,-0.555 0.10956,-0.17312 h -5.52887 l -0.0656,0.007 0.003,-0.007 h -8.20155 v -5.73505 h -4.26175 c -0.24207,0.11372 -0.45201,0.17632 -0.62632,0.17777 -0.35457,0.003 -1.93948,0.0105 -3.52176,0.0155 -1.58229,0.006 -3.11492,0.0473 -3.40599,0.093 -0.29104,0.0457 -1.32032,0.14666 -2.28719,0.22376 -0.96692,0.0771 -2.94476,0.29192 -4.3951,0.47749 -2.99828,0.38351 -5.03086,0.26737 -6.2549,-0.35708 -0.90551,-0.46194 -2.20554,-1.82268 -2.20554,-2.30839 0,-1.39568 1.13755,-4.47233 2.26083,-6.11487 0.52398,-0.76623 2.55133,-2.56832 2.88923,-2.56832 0.0784,0 0.33176,-0.17655 0.56327,-0.39223 0.23154,-0.21571 1.19142,-0.81239 2.1332,-1.32601 0.94181,-0.51364 1.86082,-1.01834 2.04227,-1.1219 0.50951,-0.29061 4.39679,-2.04479 5.38363,-2.42931 0.24173,-0.0942 1.2309,-0.39513 2.19782,-0.66869 0.96686,-0.27359 2.5559,-0.77963 3.53155,-1.125 0.97568,-0.34535 1.92286,-0.62838 2.10426,-0.62838 0.18148,0 1.16289,-0.34992 2.18128,-0.77773 5.57561,-2.34221 6.40053,-3.23472 5.80429,-6.28179 -0.15073,-0.77041 -0.34964,-1.59857 -0.44235,-1.84019 -0.21598,-0.56428 -1.81957,-2.73623 -2.40295,-3.25459 -0.83852,-0.74511 -4.90781,-2.54587 -6.77066,-2.9962 -1.02142,-0.24691 -2.40006,-0.68903 -3.06337,-0.98237 -1.53877,-0.68053 -2.67984,-0.98502 -4.27985,-1.14308 -0.70228,-0.0694 -1.71514,-0.20606 -2.25049,-0.30386 -0.4662,-0.0852 -1.44267,-0.11963 -3.00345,-0.10283 z" />
      <path
         style="fill:#c87137;fill-opacity:0.537838;stroke:#cdcdcd;stroke-width:1.50285;stroke-opacity:0.239216"
         d="m 408.31761,705.37337 c -41.1687,0.10875 -82.6195,3.53984 -123.62915,0.90557 -18.16751,12.56507 -32.35836,30.24843 -48.5866,45.18017 -40.11355,39.28726 -78.88543,80.11457 -120.91372,117.33405 -12.79081,6.59711 -4.07225,5.9653 4.99164,4.98957 52.92259,-1.91534 105.9235,-2.57455 158.83496,-3.86844 3.88836,-0.54397 2.22402,-7.51205 7.33247,-6.3126 4.06688,-0.53035 4.82236,6.14575 7.26505,6.36829 20.9855,-26.25718 39.40174,-54.64381 62.11497,-79.58746 24.07123,-28.01541 48.89104,-55.67347 72.77371,-83.66984 -6.49823,-2.16045 -13.47415,-1.04476 -20.18333,-1.33931 z m -122.89357,17.96191 c 6.57072,-0.18903 6.73288,8.12872 6.49139,12.58418 4.68928,-2.48459 8.26,-12.00227 14.51546,-10.16933 3.17949,1.13882 2.59071,6.60605 4.73299,7.54933 4.29266,-9.12424 17.026,-12.81884 25.47021,-6.87821 4.81941,1.89076 9.08026,5.26829 11.37676,9.63888 6.12732,-2.03008 2.07378,-14.07671 11.11299,-12.60176 11.37498,0.52187 26.27577,10.18155 21.44058,23.2693 -4.26618,9.82882 -15.10786,15.0085 -23.71769,20.44416 -6.44059,1.59743 -13.29756,0.35812 -19.79062,1.85802 -4.18791,0.0865 -6.06677,-3.70927 -6.75807,-6.86942 -7.43332,1.76299 -14.57659,8.63059 -22.69195,4.43406 -5.67251,-3.07772 -10.60843,6.8202 -15.50017,0.73266 -3.388,-3.21099 1.8606,-7.74342 0.72386,-10.3774 -5.1467,2.96458 -11.25464,11.75894 -17.80364,6.3888 -3.24768,-3.50656 1.17504,-6.08984 1.87853,-9.05862 -4.30131,-0.8533 -8.67567,5.39916 -12.66624,7.16249 -3.54378,1.93648 -10.44403,8.28604 -13.97623,3.67796 0.6008,-11.57706 11.44935,-19.75973 18.36341,-28.14589 5.23199,-4.73454 10.12729,-11.02321 16.79843,-13.63921 z"
         id="path2038"
         transform="scale(0.26458333)" />
      <path
         style="fill:#c87137;fill-opacity:0.537838;stroke:#cdcdcd;stroke-width:1.50285;stroke-opacity:0.239216"
         d="m 276.91054,885.6577 c -62.6576,0.98426 -125.40911,3.47463 -187.947961,5.64441 1.742412,18.93471 7.003829,37.67797 9.952461,56.21266 15.01515,2.49053 30.83792,-0.77222 46.09208,-0.7497 48.10353,-2.67048 96.38305,-2.39562 144.42898,-5.55998 8.66894,-1.5158 3.14874,-12.05702 3.77094,-17.62964 -1.57247,-12.57702 -2.01608,-25.76968 -4.98422,-37.92948 -3.76592,-0.15869 -7.54413,0.004 -11.31228,0.0117 z m -137.62297,14.86422 c 6.75278,-1.63326 12.12192,10.21189 4.3227,11.98046 -6.04874,2.73299 -15.36802,-4.6269 -10.84045,-10.63823 1.97069,-1.0634 4.30843,-1.32944 6.51775,-1.34223 z m -27.87627,0.1436 c 5.78461,-0.97693 10.95882,6.70425 4.94399,10.22208 -4.59175,4.62958 -16.923027,-0.27847 -11.68154,-6.99545 1.538,-2.13537 4.13789,-3.27005 6.73755,-3.22663 z"
         id="path2077"
         transform="scale(0.26458333)" />
      <path
         style="fill:#c87137;fill-opacity:0.537838;stroke:#cdcdcd;stroke-width:1.50285;stroke-opacity:0.239216"
         d="m 366.66732,801.28744 c -21.15569,26.55268 -41.93149,53.57247 -61.14493,81.54512 -3.30379,8.52693 1.39848,17.99092 1.44481,26.84761 -0.15281,3.33404 2.07164,5.66592 3.73364,1.25139 23.75993,-33.87784 48.74788,-67.26652 77.62392,-96.86359 -6.70709,-1.95503 -13.96944,-5.64261 -14.09914,-13.66419 -1.37546,-11.22539 -2.87096,-2.60914 -7.5583,0.88366 z"
         id="path2116"
         transform="scale(0.26458333)" />
      <path
         style="fill:#c87137;fill-opacity:0.537838;stroke:#cdcdcd;stroke-width:1.50285;stroke-opacity:0.239216"
         d="m 417.43483,743.12298 c -7.06542,8.61758 -16.28197,17.26317 -21.90655,26.18236 6.74235,-4.23709 14.71024,-15.34579 23.55357,-9.13482 6.10738,1.68872 14.04849,5.1865 19.97819,2.25953 2.82467,-14.38642 0.4387,-29.83183 0.507,-44.25563 -7.3774,8.31618 -14.7548,16.63237 -22.13221,24.94856 z"
         id="path2155"
         transform="scale(0.26458333)" />
      <path
         style="fill:#c87137;fill-opacity:0.537838;stroke:#cdcdcd;stroke-width:0.273566;stroke-opacity:0.239216"
         d="m 327.06739,736.07395 c -1.81795,0.12535 -4.36356,0.34072 -4.77591,2.57673 -2.63372,5.34227 -6.62447,9.9647 -9.17642,15.35314 -0.7251,1.19019 -2.6099,1.60475 -2.92768,3.0013 0.83188,1.04809 2.13314,0.16481 2.7431,-0.65137 6.43087,-5.64879 13.90363,-10.08641 19.84449,-16.28679 0.52711,-0.59067 1.57121,-1.81243 0.37343,-2.30939 -1.79668,-1.19662 -3.91587,-1.83254 -6.08101,-1.68362 z"
         id="path2194"
         transform="scale(0.26458333)" />
      <path
         style="fill:#c87137;fill-opacity:0.537838;stroke:#cdcdcd;stroke-width:0.273566;stroke-opacity:0.239216"
         d="m 361.18324,736.60955 c -1.82649,0.34299 -2.55431,2.50332 -3.65266,3.77696 -2.7515,4.26878 -5.65596,8.52828 -7.59819,13.23588 0.12336,0.99129 1.48165,0.0129 1.94173,-0.21391 5.7312,-3.75805 10.79054,-8.49386 15.45574,-13.49036 1.09833,-0.85853 0.16114,-2.29686 -0.97144,-2.43208 -1.68041,-0.48045 -3.42434,-0.83194 -5.17518,-0.87649 z"
         id="path2233"
         transform="scale(0.26458333)" />
    </g>
  </g>
</svg>
