<?xml version="1.0" encoding="UTF-8" standalone="no"?>
<!-- Created with Inkscape (http://www.inkscape.org/) -->

<svg
   width="63.55574mm"
   height="61.491417mm"
   viewBox="0 0 63.55574 61.491417"
   version="1.1"
   id="svg5"
   inkscape:version="1.1.1 (c3084ef, 2021-09-22)"
   sodipodi:docname="fairdata copy 5.svg"
   xmlns:inkscape="http://www.inkscape.org/namespaces/inkscape"
   xmlns:sodipodi="http://sodipodi.sourceforge.net/DTD/sodipodi-0.dtd"
   xmlns="http://www.w3.org/2000/svg"
   xmlns:svg="http://www.w3.org/2000/svg">
  <sodipodi:namedview
     id="namedview7"
     pagecolor="#ffffff"
     bordercolor="#666666"
     borderopacity="1.0"
     inkscape:pageshadow="2"
     inkscape:pageopacity="0.0"
     inkscape:pagecheckerboard="0"
     inkscape:document-units="mm"
     showgrid="false"
     inkscape:zoom="0.49264169"
     inkscape:cx="347.10826"
     inkscape:cy="98.448834"
     inkscape:window-width="2560"
     inkscape:window-height="1387"
     inkscape:window-x="0"
     inkscape:window-y="25"
     inkscape:window-maximized="1"
     inkscape:current-layer="layer1" />
  <defs
     id="defs2" />
  <g
     inkscape:label="Layer 1"
     inkscape:groupmode="layer"
     id="layer1"
     transform="translate(-62.966768,-91.549792)">
    <path
       style="fill:#000000;stroke-width:0.265627"
       d="m 89.069391,152.91642 c -1.81915,-0.18353 -5.4619,-0.92388 -6.50786,-1.32266 -1.22607,-0.46746 -3.13846,-1.95917 -3.79711,-2.96192 -0.54602,-0.83121 -0.82628,-4.31885 -0.99667,-12.40391 -0.11702,-5.54793 -0.12078,-5.57861 -0.71659,-5.6578 -1.09945,-0.1462 -4.43813,-1.18669 -4.33639,-1.35156 0.0552,-0.0894 -0.17161,-0.17883 -0.50401,-0.19891 -0.53354,-0.032 -1.35426,-0.34363 -4.8654,-1.84792 -0.47977,-0.20549 -1.04078,-0.37372 -1.24665,-0.37372 -0.20581,0 -0.56046,-0.26573 -0.78788,-0.59035 -0.3901,-0.55697 -0.41404,-0.5607 -0.42307,-0.0665 -0.0157,0.9109 -1.24988,-0.87155 -1.5932,-2.30258 -0.48833,-2.03572 -0.41648,-8.78471 0.11859,-11.14671 0.461,-2.03454 1.62812,-3.9566 2.40257,-3.9566 0.47593,0 1.27721,-1.25311 0.93605,-1.46397 -0.87898,-0.54323 -1.91298,-4.48933 -1.88136,-7.17987 0.0251,-2.25317 0.59183,-3.888409 1.87371,-5.419458 1.1348,-1.355452 3.37162,-2.686496 4.55913,-2.713069 0.34822,-0.0063 1.17098,-0.133023 1.82841,-0.277967 0.87604,-0.19326 1.40819,-0.175063 1.9922,0.06871 0.43829,0.182906 0.94638,0.36346 1.1291,0.401171 1.37835,0.284242 4.90333,4.726105 5.3616,6.756146 0.47753,2.115507 0.35311,5.727227 -0.23718,6.884307 l -0.52001,1.01938 1.50591,0.57627 1.50595,0.57629 2.15579,-2.2703 c 1.18566,-1.24865 2.35008,-2.27029 2.58761,-2.27029 0.49024,0 1.3919,-1.68635 1.12906,-2.11165 -0.0948,-0.15341 -0.0756,-0.29428 0.0423,-0.3131 2.86765,-0.45711 4.40742,-0.25914 6.31673,0.81178 0.73464,0.41209 1.65523,0.82405 2.04573,0.91548 1.01333,0.23718 2.220009,1.33452 3.362309,3.05754 0.94528,1.42586 1.24878,2.00068 1.83948,3.48388 l 0.26448,0.66408 0.49786,-0.89806 c 0.62499,-1.12749 1.3963,-1.98938 2.12322,-2.3726 l 0.56287,-0.2968 -0.73702,-2.08265 c -1.30319,-3.68266 -0.79102,-7.292285 1.41349,-9.962028 0.65087,-0.788254 1.58375,-1.522044 2.46494,-1.938901 1.33421,-0.6312 1.51627,-0.652534 3.09093,-0.362519 2.41803,0.445376 4.12207,1.253207 5.83992,2.768569 1.53804,1.356738 2.10599,2.494052 2.44649,4.899349 0.16816,1.18754 -0.54778,4.69476 -1.18319,5.79634 -0.40063,0.69458 -0.4236,0.8633 -0.11765,0.8633 1.0005,0 2.22001,0.9258 2.99355,2.27259 0.4466,0.77756 0.89747,1.68999 1.00194,2.02763 0.10447,0.33763 0.41959,1.06896 0.70025,1.62514 0.50477,1.00025 1.81219,7.6731 1.81219,9.24901 0,2.22729 -2.89902,5.77184 -5.0469,6.17069 -0.36525,0.0678 -0.86496,0.2033 -1.11043,0.30118 -0.24534,0.0979 -1.91895,0.22621 -3.71877,0.2855 -1.79985,0.0593 -3.69082,0.13397 -4.20214,0.16628 -0.51132,0.0323 -1.42109,-0.0336 -2.02163,-0.14589 l -1.09198,-0.20455 0.2124,1.34453 c 0.11702,0.73947 0.28894,1.46815 0.38231,1.61921 0.0935,0.15122 0.21804,0.77894 0.27671,1.39527 0.46213,4.83707 0.54373,5.9998 0.47029,6.69873 -0.0461,0.43828 -0.12832,2.1715 -0.18291,3.8516 -0.0988,3.04588 -0.46599,4.51565 -1.12765,4.51565 -0.1873,0 -0.53664,0.32873 -0.77608,0.73047 -1.04536,1.75433 -4.87798,3.80815 -7.78566,4.17218 -4.694829,0.58771 -9.015719,0.77068 -11.731139,0.4967 z m 9.29698,-4.55741 c 2.224579,-0.2673 4.195109,-1.17075 5.378949,-2.4661 0.40173,-0.4396 0.73046,-0.66382 0.73046,-0.49827 0,0.16597 0.20111,0.0998 0.44855,-0.14745 0.29836,-0.29836 0.42771,-0.8014 0.3863,-1.5031 -0.0452,-0.76378 0.0251,-1.00024 0.25663,-0.85752 0.19922,0.12298 0.24942,0.0847 0.13334,-0.10291 -0.10197,-0.16502 -0.23311,-2.18552 -0.29146,-4.4903 -0.0584,-2.30478 -0.22244,-4.85392 -0.36443,-5.6648 -0.46213,-2.63705 -1.36192,-6.14304 -1.87327,-7.29906 -0.4578,-1.03491 -0.57482,-1.12435 -1.38727,-1.06045 -0.48804,0.0383 -1.14296,-0.0467 -1.4554,-0.18918 -0.471759,-0.2149 -0.726639,-0.10478 -1.502909,0.64896 -1.09794,1.06625 -3.07029,1.77526 -5.5297,1.98778 -2.08407,0.18008 -3.29244,-0.16094 -5.05421,-1.42673 -0.74988,-0.53874 -1.32251,-0.79177 -1.42322,-0.62885 -0.0926,0.14997 -0.61052,0.25538 -1.15083,0.23405 -1.33233,-0.0521 -2.60126,0.644 -2.82922,1.55229 -0.10102,0.40179 -0.41692,1.24329 -0.70241,1.86997 -0.98679,2.16614 -1.09656,5.79876 -0.36064,11.93807 0.21303,1.77699 0.38727,3.89403 0.38727,4.70456 0,1.16266 0.11985,1.58516 0.56711,2.00202 0.85511,0.79663 2.1667,1.34177 3.87385,1.61011 1.74231,0.27389 8.76818,0.14651 11.76232,-0.21334 z m -19.74793,-21.76008 c 0.80253,-2.36916 1.41155,-3.24861 2.66212,-3.84411 0.70452,-0.33547 1.69934,-0.65018 2.21066,-0.69931 0.51135,-0.0493 0.96457,-0.12267 1.00721,-0.16377 0.0427,-0.0408 -0.3437,-0.79296 -0.8585,-1.67138 -1.36753,-2.33333 -1.48973,-2.79307 -1.4998,-5.64355 l -0.009,-2.58771 -1.03927,-0.46865 c -0.57159,-0.25789 -1.37107,-0.8005 -1.77664,-1.20606 -0.48305,-0.48309 -0.83917,-0.65291 -1.03246,-0.49247 -0.1622,0.13459 -1.4102,0.43643 -2.77315,0.67057 -2.33113,0.40039 -4.06965,0.39383 -5.07306,-0.0188 -0.51616,-0.2124 -0.70396,-0.0188 -2.12705,2.18996 -1.04476,1.62182 -1.07817,1.74467 -1.1556,4.25002 -0.0988,3.19719 0.11482,6.16592 0.44368,6.16592 0.13616,0 0.74976,0.24942 1.36361,0.55452 1.1486,0.57072 1.96073,0.8901 6.2958,2.47567 2.94385,1.07673 3.15242,1.1071 3.36168,0.48939 z m 30.372999,-1.62639 c 0,-0.3233 2.28375,-0.60645 5.57817,-0.69163 2.79734,-0.0725 4.38407,-0.4753 5.29795,-1.34532 0.22714,-0.21616 0.70656,-0.61617 1.06531,-0.88858 l 0.65225,-0.49535 -0.43468,-2.89344 c -0.71612,-4.76676 -1.95901,-7.94182 -3.50556,-8.95514 -0.60365,-0.39556 -0.91296,-0.4183 -2.28987,-0.16848 -1.60606,0.29115 -3.50681,0.10259 -5.09935,-0.50577 -0.40036,-0.1531 -0.71494,-0.192 -0.699,-0.0866 0.0819,0.54135 -0.074,0.85577 -0.42404,0.85577 -0.2146,0 -0.86722,0.64595 -1.45042,1.43539 -1.60622,2.17428 -3.32824,3.16078 -3.90064,2.23464 -0.27044,-0.43744 -0.59171,0.45379 -0.61524,1.70614 -0.0188,0.92163 -1.13129,4.19521 -1.66375,4.88931 -0.16848,0.21962 0.15843,0.30935 1.1706,0.32249 2.45979,0.0317 4.15222,1.17625 5.25892,3.5567 0.52572,1.13075 1.05935,1.64957 1.05935,1.02989 z m -15.679749,-2.81886 c 2.21106,-1.1434 5.10233,-8.24236 4.66634,-11.45732 -0.27671,-2.04106 -1.30002,-3.7189 -2.87471,-4.71397 -0.76199,-0.48152 -1.61491,-0.95955 -1.89538,-1.06236 -0.86035,-0.31533 -3.3209,0.38511 -4.00452,1.13998 -1.75876,1.94191 -1.9934,2.25762 -1.9934,2.68173 0,0.25286 -0.1873,0.61529 -0.41595,0.80516 -0.56936,0.47251 -1.07535,1.52829 -1.2661,2.64174 -0.2171,1.26754 0.19326,4.22984 0.74813,5.39894 0.83607,1.76195 4.56795,4.95566 5.79481,4.95917 0.2629,0 0.82125,-0.176 1.24078,-0.39307 z m -18.9341,-16.35121 c 1.26509,-0.44102 1.94169,-1.93144 1.94169,-4.27719 0,-2.053665 -0.37921,-3.076498 -2.10236,-5.670787 -0.67427,-1.015209 -1.82053,-1.670911 -1.5568,-0.890594 0.0665,0.19671 -0.20142,0.596469 -0.59487,0.888648 -0.39361,0.292086 -1.05515,0.934799 -1.47009,1.428019 -0.64384,0.765289 -0.74838,1.108513 -0.71302,2.341139 0.0549,1.917595 0.49827,4.244145 0.91855,4.821225 1.17737,1.61664 1.97247,1.91886 3.5769,1.35954 z m 39.542589,-1.22513 c 0.8382,-0.90443 1.71537,-3.74174 1.69997,-5.498833 -0.0126,-1.277772 -0.10511,-1.46758 -1.44641,-2.920917 -1.31812,-1.428332 -1.49365,-1.534562 -2.16523,-1.310714 -0.4033,0.134592 -1.10926,0.792772 -1.57531,1.469055 -1.03604,1.503377 -1.35094,3.230885 -0.8174,4.484309 0.20988,0.49288 0.57607,1.57215 0.81395,2.39843 0.39891,1.38576 0.50928,1.52273 1.42287,1.76553 1.41111,0.37501 1.35112,0.38624 2.06756,-0.38686 z"
       id="path836"
       sodipodi:nodetypes="cssssssssscsssscscssssscccssscsssscsscsssssssssssssssscccscssssscccssssssscssssssscsssscsccsssssccsssssssssssssssscsssssssscscssscssssssssccsssssssssscsssssss" />
  </g>
</svg>
