<?xml version="1.0" encoding="UTF-8" standalone="no"?>
<!-- Created with Inkscape (http://www.inkscape.org/) -->

<svg
   width="76.435448mm"
   height="68.494873mm"
   viewBox="0 0 76.435448 68.494873"
   version="1.1"
   id="svg5"
   inkscape:version="1.1.1 (c3084ef, 2021-09-22)"
   sodipodi:docname="fairdata copy 4.svg"
   xmlns:inkscape="http://www.inkscape.org/namespaces/inkscape"
   xmlns:sodipodi="http://sodipodi.sourceforge.net/DTD/sodipodi-0.dtd"
   xmlns="http://www.w3.org/2000/svg"
   xmlns:svg="http://www.w3.org/2000/svg">
  <sodipodi:namedview
     id="namedview7"
     pagecolor="#ffffff"
     bordercolor="#666666"
     borderopacity="1.0"
     inkscape:pageshadow="2"
     inkscape:pageopacity="0.0"
     inkscape:pagecheckerboard="0"
     inkscape:document-units="mm"
     showgrid="false"
     inkscape:zoom="0.49264169"
     inkscape:cx="357.25762"
     inkscape:cy="100.47871"
     inkscape:window-width="2560"
     inkscape:window-height="1387"
     inkscape:window-x="0"
     inkscape:window-y="25"
     inkscape:window-maximized="1"
     inkscape:current-layer="layer1" />
  <defs
     id="defs2" />
  <g
     inkscape:label="Layer 1"
     inkscape:groupmode="layer"
     id="layer1"
     transform="translate(-50.713382,-90.975073)">
    <path
       style="fill:#000000;stroke-width:0.331772"
       d="m 68.270075,158.80505 c -2.85072,-0.57462 -5.3144,-1.46602 -8.41653,-3.04528 -1.83154,-0.93238 -6.01406,-5.28074 -6.93947,-7.21455 -1.979,-4.13558 -2.24099,-5.26197 -2.19624,-9.44273 0.0462,-4.3069 0.32563,-5.48063 2.54644,-10.69475 1.86343,-4.37496 4.58978,-8.9917 7.69289,-13.02698 0.63144,-0.82113 1.15171,-1.67961 1.15613,-1.90767 0.004,-0.22807 0.13206,-0.41475 0.28371,-0.41475 0.15165,0 0.48759,-0.40612 0.74649,-0.90244 0.44675,-0.85644 2.03796,-2.86357 6.12307,-7.72362 0.99696,-1.18607 3.11949,-3.86539 4.71674,-5.953946 2.93462,-3.837374 4.07562,-4.810746 6.31481,-5.386933 1.43381,-0.369129 5.60539,-0.819529 9.85794,-1.064635 1.64227,-0.09483 4.02637,-0.391465 5.29798,-0.659338 1.27166,-0.26803 2.39139,-0.439428 2.48829,-0.380885 0.44985,0.271165 5.089565,0.565606 7.475225,0.474578 6.63468,-0.25314 9.9744,0.248829 11.57474,1.739687 0.36325,0.338172 0.79002,0.614941 0.94884,0.614941 0.15871,0 0.2069,0.132447 0.10698,0.294284 -0.0999,0.161837 0.0502,0.486843 0.33425,0.722349 0.79927,0.663296 1.49404,2.213285 1.67472,3.736275 0.19475,1.639963 0.87643,2.797233 1.88366,3.196883 1.01643,0.40334 2.72109,2.04902 3.31201,3.19744 0.85609,1.66362 1.89608,5.45335 1.89608,6.90917 0,1.75376 -0.69328,4.2029 -2.21403,7.82195 -0.65178,1.55101 -1.31605,3.15598 -1.47617,3.56652 -0.16027,0.41059 -0.42532,1.08243 -0.58939,1.49298 -0.16419,0.41059 -0.48766,1.26903 -0.71913,1.90771 -0.23159,0.63865 -0.54935,1.33087 -0.7064,1.53824 -0.15714,0.20729 -0.93611,1.63098 -1.73123,3.16353 -0.79515,1.53252 -1.91065,3.51954 -2.47892,4.41564 -0.56827,0.89606 -1.03321,1.8027 -1.03321,2.01473 0,0.7162 -3.559,7.10727 -4.33186,7.77887 -0.43555,0.37853 -2.30361,3.29673 -2.30361,3.59866 0,0.17986 -0.11481,0.37696 -0.2547,0.4379 -0.14029,0.0607 -0.57364,0.52289 -0.96319,1.0269 -0.54629,0.70663 -0.66835,1.21444 -0.53355,2.21939 0.16144,1.20226 0.0882,1.35591 -0.94449,1.98546 -0.9338,0.56933 -1.67386,0.68254 -4.4669,0.6836 -2.821255,0 -3.808655,0.15517 -6.279425,0.97999 -3.09453,1.03313 -4.34056,1.23129 -9.49316,1.50967 -1.75736,0.0948 -4.37007,0.47473 -5.80603,0.8439 -3.24778,0.83505 -8.25391,0.81408 -12.55301,-0.0525 z m 10.77163,-6.77955 c 1.18611,-0.27626 4.24671,-0.63516 6.80134,-0.7972 5.84987,-0.37109 7.75743,-0.96432 3.15182,-0.98042 -1.98526,-0.008 -4.31838,0.24256 -6.30364,0.67407 -3.69533,0.80323 -8.83355,1.10985 -12.10971,0.72262 -1.27729,-0.15086 -2.84491,-0.18887 -3.4836,-0.0839 l -1.16119,0.19045 1.49297,0.3417 c 2.37885,0.54452 9.15538,0.50522 11.61201,-0.0674 z m 25.451805,-7.07055 c 1.49235,-1.98162 3.3358,-4.78097 4.09655,-6.22073 0.76075,-1.43972 1.87221,-3.51346 2.46995,-4.60831 2.34146,-4.28907 3.69976,-7.07066 4.61721,-9.4555 0.52646,-1.36856 1.46409,-3.75732 2.08366,-5.30837 0.61952,-1.55106 1.15633,-2.96939 1.19289,-3.15184 0.0353,-0.1826 0.15517,-0.40643 0.26372,-0.49765 0.10854,-0.0913 0.52575,-1.25606 0.92717,-2.58845 0.70068,-2.32583 0.70883,-2.50455 0.20377,-4.47595 -0.28919,-1.12941 -0.64857,-2.1759 -0.79825,-2.32559 -0.23825,-0.23825 -2.02296,3.95587 -2.02296,4.75432 0,0.89159 -6.99136,15.12549 -8.85177,18.02163 -4.1884,6.5201 -6.37798,9.50632 -6.97027,9.50632 -0.23904,0 -0.43481,0.1493 -0.43481,0.33191 0,0.1826 -0.11207,0.31426 -0.24883,0.29271 -0.87493,-0.13832 -1.107895,0.0568 -0.63382,0.53109 0.78927,0.78927 0.0478,2.82591 -1.029105,2.82591 -0.95115,0 -1.35649,0.99253 -0.83344,2.04099 0.25941,0.51971 0.60546,0.94496 0.76937,0.94496 0.47297,0 0.929135,2.09714 0.5593,2.57121 -0.24491,0.31387 -0.0502,0.41474 0.801315,0.41474 1.04304,0 1.32232,-0.26216 3.83827,-3.60305 z m -44.031025,0.92929 c 0,-0.37579 -0.1493,-0.59084 -0.3319,-0.47811 -0.18261,0.11286 -0.3319,0.42019 -0.3319,0.68313 0,0.26293 0.14929,0.4781 0.3319,0.4781 0.1826,0 0.3319,-0.30761 0.3319,-0.68312 z m 20.23811,-0.30918 c 1.91598,-0.34875 5.34982,-0.71098 7.63074,-0.80479 4.70162,-0.19358 6.30357,-0.44284 6.30388,-0.98156 1.2e-4,-0.24492 -0.76432,-0.35346 -2.22653,-0.31623 -1.22471,0.0314 -2.51364,-0.0964 -2.86432,-0.2841 -0.47379,-0.25353 -1.27816,-0.15126 -3.13081,0.39891 -1.99369,0.59186 -2.86565,0.68959 -4.35193,0.48751 -3.23756,-0.44006 -7.86178,-0.10384 -9.4575,0.68747 -0.52983,0.26294 -1.46296,0.47779 -2.07355,0.47779 -0.89876,0 -1.11024,0.12971 -1.11024,0.68144 0,0.65985 0.12304,0.67517 3.8983,0.48449 2.14409,-0.10854 5.46597,-0.48229 7.38196,-0.83108 z m -7.88694,-2.80569 c 0.96201,-0.44656 2.17731,-0.9017 2.70067,-1.01142 1.60489,-0.33661 0.75872,-0.53218 -2.30129,-0.53218 -2.68543,0 -8.10575,0.91181 -8.10575,1.36358 0,0.10619 0.52211,0.22806 1.16024,0.27077 0.6381,0.0431 1.49658,0.21317 1.90768,0.37854 1.30155,0.52309 2.83442,0.36795 4.63845,-0.46953 z m -14.44122,-3.25923 c 0.95065,-1.51096 10.3415,-3.14257 18.40869,-3.19837 2.49025,-0.0157 4.56717,-0.21984 5.80602,-0.5662 1.44525,-0.40412 3.54051,-0.55001 8.35729,-0.58191 l 6.42849,-0.0423 1.45637,-1.99063 c 0.80103,-1.09485 1.767355,-2.47587 2.147425,-3.0689 0.3801,-0.59304 0.8256,-1.07827 0.99006,-1.07827 0.16458,0 0.29899,-0.18927 0.29899,-0.42066 0,-0.2312 0.3754,-0.97302 0.83414,-1.64819 2.09432,-3.08203 6.83281,-13.34152 9.6128,-20.81309 1.80058,-4.83916 1.92194,-6.494365 0.61447,-8.381037 l -0.88239,-1.273299 -3.7389,0.115205 c -2.05634,0.06309 -5.05432,-0.0772 -6.66215,-0.311918 -1.8681,-0.272732 -3.343605,-0.322106 -4.087735,-0.136758 -0.64049,0.159486 -2.43351,0.387939 -3.98456,0.50722 -1.55104,0.119516 -3.71586,0.302905 -4.8107,0.408315 -1.09485,0.105409 -2.43504,0.175159 -2.97819,0.155175 -2.69026,-0.09875 -4.77913,1.35457 -6.80906,4.737897 -0.72615,1.21021 -2.5044,3.69447 -2.98407,4.16873 -0.53637,0.53034 -2.61259,2.99955 -3.31962,3.94796 -0.45619,0.61196 -1.09484,1.39646 -1.41926,1.74341 -0.32446,0.34679 -1.50955,1.93295 -2.63363,3.52455 -1.12412,1.59157 -2.1277,2.96845 -2.23025,3.05968 -0.31153,0.27704 -3.00649,4.24051 -3.00649,4.42128 0,0.0929 -0.6419,1.26342 -1.42647,2.60146 -1.52479,2.60036 -2.02186,3.61327 -3.31037,6.74581 -1.19297,2.90033 -1.53126,4.10423 -1.7014,6.05481 -0.11638,1.33431 -0.0447,1.74181 0.30643,1.74181 0.25236,0 0.57791,-0.18966 0.72384,-0.42172 z m 12.53331,-15.19534 c -0.21278,-0.67067 0.59123,-1.96685 1.2202,-1.96685 0.52901,0 0.30565,2.24173 -0.24452,2.45279 -0.73214,0.28096 -0.73238,0.28096 -0.97576,-0.48594 z m 26.54931,-4.31293 c -0.91236,-0.15126 -2.1152,-0.3468 -2.67301,-0.43375 -2.93403,-0.45816 -9.40033,-0.50804 -11.38078,-0.0878 -2.69472,0.57183 -5.75935,0.45949 -6.84354,-0.25079 -0.61713,-0.40444 -0.83371,-0.83642 -0.83371,-1.66313 0,-1.73797 0.87443,-2.55036 2.89551,-2.69014 0.94472,-0.0654 2.06073,-0.30526 2.47998,-0.53296 1.15033,-0.62505 11.7557,-0.50428 16.18968,0.18417 3.755245,0.5832 4.461015,0.92827 5.702655,2.78806 1.33611,2.00127 -1.46794,3.36168 -5.536785,2.68619 z m -17.72674,-10.21819 c -0.60009,-1.12126 -0.41035,-1.65101 1.13815,-3.17757 0.82114,-0.80954 1.49297,-1.61167 1.49297,-1.7826 0,-0.97819 5.66688,-1.43388 11.28027,-0.90703 1.36856,0.12853 4.05591,0.27744 5.97189,0.33151 3.645965,0.10267 5.308335,0.5102 5.308335,1.30175 0,0.25863 0.22414,0.55628 0.49766,0.66134 0.73257,0.28096 0.60608,1.32502 -0.27587,2.27665 -0.73873,0.79711 -0.95131,0.83626 -4.72775,0.87012 -2.174815,0.0196 -4.775325,-0.11051 -5.778955,-0.2888 -1.00362,-0.1783 -3.8762,-0.37148 -6.3835,-0.4292 -4.12002,-0.0948 -4.57669,-0.0486 -4.74472,0.48073 -0.18887,0.59538 -0.48911,0.73653 -2.36842,1.11404 -0.84633,0.17007 -1.12541,0.0807 -1.41002,-0.4511 z m 12.75016,29.81643 c 0.55608,-0.23903 0.48888,-0.2888 -0.4147,-0.30839 -0.59304,-0.0118 -1.07828,0.12618 -1.07828,0.30839 0,0.39385 0.57639,0.39385 1.49298,0 z"
       id="path836"
       sodipodi:nodetypes="sssssscssssssscsssscsssssssssssssscssscssssssscssccsssssssscssssssssccssssssssssssscsssssssscsscsssccccscsccsssssssccsscscssssssssssssssssssscsssscsssscssscscssssssccscss" />
  </g>
</svg>
