<?xml version="1.0" encoding="UTF-8" standalone="no"?>
<!-- Created with Inkscape (http://www.inkscape.org/) -->

<svg
   width="50.64986mm"
   height="63.717735mm"
   viewBox="0 0 50.64986 63.717735"
   version="1.1"
   id="svg5"
   sodipodi:docname="datalad copy 7.svg"
   inkscape:version="1.1.1 (c3084ef, 2021-09-22)"
   xmlns:inkscape="http://www.inkscape.org/namespaces/inkscape"
   xmlns:sodipodi="http://sodipodi.sourceforge.net/DTD/sodipodi-0.dtd"
   xmlns="http://www.w3.org/2000/svg"
   xmlns:svg="http://www.w3.org/2000/svg">
  <sodipodi:namedview
     id="namedview7"
     pagecolor="#ffffff"
     bordercolor="#666666"
     borderopacity="1.0"
     inkscape:pageshadow="2"
     inkscape:pageopacity="0.0"
     inkscape:pagecheckerboard="0"
     inkscape:document-units="mm"
     showgrid="false"
     inkscape:zoom="0.81802608"
     inkscape:cx="48.286969"
     inkscape:cy="209.65102"
     inkscape:window-width="1606"
     inkscape:window-height="1319"
     inkscape:window-x="0"
     inkscape:window-y="25"
     inkscape:window-maximized="0"
     inkscape:current-layer="layer1" />
  <defs
     id="defs2" />
  <g
     inkscape:label="Layer 1"
     inkscape:groupmode="layer"
     id="layer1"
     transform="translate(-78.794093,-48.530607)">
    <path
       style="fill:#008900;fill-opacity:0.51417;stroke-width:0.362872"
       d="m 80.854153,112.14692 c -0.38616,-0.10929 -0.57984,-0.4003 -0.46498,-0.69959 0.10801,-0.28201 -0.0171,-0.51254 -0.27815,-0.51254 -0.57581,0 -1.31693,-1.52638 -1.31693,-2.71233 0,-0.52892 0.42302,-1.19473 1.09055,-1.71731 l 1.09059,-0.85345 -0.52755,-9.424011 c -0.50102,-8.949492 -0.66483,-13.52652 -1.11652,-31.196251 -0.10715,-4.19117 -0.2803,-8.355125 -0.3853,-9.253233 -0.28973,-2.487101 0.165,-2.837815 3.851,-2.970335 3.08618,-0.111004 3.10079,-0.107147 4.71735,1.206349 2.2554,1.832646 10.653979,7.445831 12.666667,8.465744 1.81165,0.918037 9.33445,5.838451 10.13137,6.626583 0.69016,0.68257 5.55087,3.85087 11.11909,7.247651 l 4.71735,2.877717 0.31459,1.971551 c 0.17315,1.084373 0.32315,2.527003 0.33344,3.205845 0.0214,1.288337 -0.11229,1.440444 -4.1691,4.805509 -1.62559,1.348469 -8.62398,5.390704 -9.33299,5.390704 -0.21473,0 -0.39088,0.155578 -0.39088,0.345443 0,0.300012 -2.22167,2.001424 -4.05033,3.101826 -0.98164,0.59072 -5.8535,3.356968 -6.83582,3.881348 -0.80541,0.42997 -5.460597,3.09469 -6.894567,3.9466 -0.29959,0.17786 -1.44242,0.76396 -2.54012,1.30239 -1.09766,0.53852 -3.09968,1.68453 -4.44888,2.54681 -1.3492,0.86223 -2.7644,1.56769 -3.1449,1.56769 -0.38059,0 -0.7475,0.16715 -0.81556,0.37158 -0.14401,0.43241 -2.35467,0.75059 -3.31989,0.47784 z m 10.92224,-11.92736 c 2.11329,-1.103438 4.04712,-2.176288 4.29746,-2.384058 0.2503,-0.20787 1.910909,-1.14198 3.69006,-2.076046 9.976517,-5.237656 13.052927,-7.057058 18.352897,-10.853969 0.77129,-0.55258 1.58775,-0.950267 1.81434,-0.88375 0.22673,0.06643 0.27601,-0.01714 0.10972,-0.181293 -0.16629,-0.166293 -0.41144,-0.304727 -0.54431,-0.307299 -0.13286,-0.0036 -1.20167,-0.737472 -2.37476,-1.632923 -2.46833,-1.884248 -2.49662,-1.903663 -5.84775,-4.018406 -1.39562,-0.880707 -4.44023,-3.023437 -6.76575,-4.761622 -2.32552,-1.738142 -6.082391,-4.38352 -8.348637,-5.87861 -2.26621,-1.495046 -5.5084,-3.697521 -7.20484,-4.894312 -2.88307,-2.034083 -3.91134,-2.602563 -3.49823,-1.934136 0.18258,0.295726 0.45769,5.982971 0.82877,17.137424 0.123,3.69225 0.34887,8.264435 0.50209,10.160426 0.28329,3.502642 0.82177,12.210237 0.8471,13.698434 0.009,0.44903 0.078,0.81647 0.15687,0.81647 0.0784,0 1.87194,-0.90287 3.98519,-2.00628 z"
       id="path836"
       sodipodi:nodetypes="csssscsscssssscscssssssssssccsssssccsssssssscsss" />
    <path
       style="fill:#000000;stroke-width:0.362872"
       d="m 83.499768,107.91351 c -0.38616,-0.10929 -0.57984,-0.4003 -0.46498,-0.69959 0.10801,-0.28201 -0.0171,-0.51254 -0.27815,-0.51254 -0.57581,0 -1.31693,-1.52638 -1.31693,-2.71233 0,-0.52892 0.42302,-1.19473 1.09055,-1.71731 l 1.09059,-0.85345 -0.52755,-9.423987 c -0.50102,-8.949492 -0.66483,-13.52652 -1.11652,-31.196251 -0.10715,-4.19117 -0.2803,-8.355125 -0.3853,-9.253233 -0.28973,-2.487101 0.165,-2.837815 3.851,-2.970335 3.08618,-0.111004 3.10079,-0.107147 4.71735,1.206349 2.2554,1.832646 10.653982,7.445831 12.666682,8.465744 1.81165,0.918037 9.33445,5.838451 10.13137,6.626583 0.69016,0.68257 5.55087,3.85087 11.11909,7.247651 l 4.71735,2.877717 0.31459,1.971551 c 0.17315,1.084373 0.32315,2.527003 0.33344,3.205845 0.0214,1.288337 -0.11229,1.440444 -4.1691,4.805509 -1.62559,1.348469 -8.62398,5.390704 -9.33299,5.390704 -0.21473,0 -0.39088,0.155578 -0.39088,0.345443 0,0.300012 -2.22167,2.001424 -4.05033,3.101826 -0.98164,0.59072 -5.8535,3.356963 -6.83582,3.881343 -0.80541,0.42996 -5.460612,3.094671 -6.894582,3.946581 -0.29959,0.17786 -1.44242,0.76396 -2.54012,1.30239 -1.09766,0.53852 -3.09968,1.68453 -4.44888,2.54681 -1.3492,0.86223 -2.7644,1.56769 -3.1449,1.56769 -0.38059,0 -0.7475,0.16715 -0.81556,0.37158 -0.14401,0.43241 -2.35467,0.75059 -3.31989,0.47784 z m 10.92224,-11.927334 c 2.11329,-1.10344 4.04712,-2.17629 4.29746,-2.38406 0.2503,-0.20787 1.910912,-1.14198 3.690072,-2.076046 9.97652,-5.237656 13.05293,-7.057058 18.3529,-10.853969 0.77129,-0.55258 1.58775,-0.950267 1.81434,-0.88375 0.22673,0.06643 0.27601,-0.01714 0.10972,-0.181293 -0.16629,-0.166293 -0.41144,-0.304727 -0.54431,-0.307299 -0.13286,-0.0036 -1.20167,-0.737472 -2.37476,-1.632923 -2.46833,-1.884248 -2.49662,-1.903663 -5.84775,-4.018406 -1.39562,-0.880707 -4.44023,-3.023437 -6.76575,-4.761622 -2.32552,-1.738142 -6.0824,-4.38352 -8.348652,-5.87861 -2.26621,-1.495046 -5.5084,-3.697521 -7.20484,-4.894312 -2.88307,-2.034083 -3.91134,-2.602563 -3.49823,-1.934136 0.18258,0.295726 0.45769,5.982971 0.82877,17.137424 0.123,3.69225 0.34887,8.264435 0.50209,10.160426 0.28329,3.502642 0.82177,12.210236 0.8471,13.698429 0.009,0.44903 0.078,0.81646 0.15687,0.81646 0.0784,0 1.87194,-0.90286 3.98519,-2.006263 z"
       id="path836-0"
       sodipodi:nodetypes="csssscsscssssscscssssssssssccsssssccsssssssscsss" />
  </g>
</svg>
