<?xml version="1.0" encoding="UTF-8" standalone="no"?>
<!-- Created with Inkscape (http://www.inkscape.org/) -->

<svg
   width="125.56285mm"
   height="73.769821mm"
   viewBox="0 0 125.56285 73.769821"
   version="1.1"
   id="svg5"
   inkscape:version="1.1.1 (c3084ef, 2021-09-22)"
   sodipodi:docname="console_perspective copy 2.svg"
   xmlns:inkscape="http://www.inkscape.org/namespaces/inkscape"
   xmlns:sodipodi="http://sodipodi.sourceforge.net/DTD/sodipodi-0.dtd"
   xmlns="http://www.w3.org/2000/svg"
   xmlns:svg="http://www.w3.org/2000/svg">
  <sodipodi:namedview
     id="namedview7"
     pagecolor="#ffffff"
     bordercolor="#666666"
     borderopacity="1.0"
     inkscape:pageshadow="2"
     inkscape:pageopacity="0.0"
     inkscape:pagecheckerboard="0"
     inkscape:document-units="mm"
     showgrid="false"
     inkscape:zoom="0.51580387"
     inkscape:cx="96.93607"
     inkscape:cy="481.77227"
     inkscape:window-width="1946"
     inkscape:window-height="1223"
     inkscape:window-x="0"
     inkscape:window-y="25"
     inkscape:window-maximized="0"
     inkscape:current-layer="layer1" />
  <defs
     id="defs2" />
  <g
     inkscape:label="Layer 1"
     inkscape:groupmode="layer"
     id="layer1"
     transform="translate(-76.631262,-15.739716)">
    <path
       style="fill:#000000;stroke-width:0.496003"
       d="m 80.332326,89.255231 c -0.618871,-0.122262 -1.301891,-0.890139 -1.70459,-1.916467 -0.369659,-0.941834 -0.81946,-1.712429 -0.999837,-1.712429 -0.619223,0 -0.424141,-3.224311 0.258937,-4.271043 0.930943,-1.427516 8.271573,-3.665752 13.641645,-4.159478 2.32147,-0.213418 6.899207,-0.42871 10.172829,-0.47833 3.27362,-0.0498 6.62164,-0.171121 7.44004,-0.269951 5.90277,-0.712662 32.24692,-2.08016 47.61629,-2.471712 9.97699,-0.254191 24.7446,-0.800162 27.77615,-1.026943 2.90771,-0.217518 11.15773,0.793396 12.99225,1.591977 2.02534,0.88161 4.70082,4.084508 4.34599,5.202607 -0.14646,0.461693 -0.0603,0.96693 0.19215,1.122802 0.26187,0.161806 0.11717,1.037201 -0.33744,2.040031 -1.02456,2.260391 -2.72944,2.731915 -6.7398,1.86403 -4.71207,-1.019749 -11.02041,-0.998067 -47.90112,0.164619 -5.04681,0.159111 -10.06884,0.363449 -11.16007,0.454135 -1.09123,0.09069 -5.77845,0.41137 -10.41606,0.712628 -4.63761,0.301292 -9.03538,0.667805 -9.77282,0.814527 -0.73751,0.146691 -6.87554,0.456537 -13.64013,0.688438 -8.874975,0.30428 -12.977135,0.639973 -14.734098,1.205697 -2.310105,0.743847 -4.738782,0.897539 -7.029906,0.44488 z M 78.105233,59.153634 c -0.320449,-1.271785 -0.777982,-2.433311 -1.017235,-2.58118 -0.878922,-0.543182 -0.411253,-3.915778 0.737677,-5.319662 1.859601,-2.272289 6.786552,-2.866473 23.641885,-2.851171 14.0331,0.01289 24.53569,-0.673717 41.07186,-2.684457 5.99117,-0.728503 11.87379,-1.029356 29.34612,-1.500815 4.77405,-0.128824 10.59023,-0.380438 12.92494,-0.559175 3.92448,-0.300472 4.38014,-0.236265 6.0378,0.850356 1.98034,1.298106 3.3574,3.280837 3.3574,4.833868 0,0.555601 0.23433,1.154847 0.52021,1.331633 0.3269,0.202229 0.34857,0.53498 0.0586,0.897281 -0.25484,0.3167 -0.61413,1.283988 -0.79908,2.149494 -0.43644,2.043464 -0.47042,2.047864 -18.13039,2.383714 -19.32537,0.36755 -24.02004,0.632633 -35.21625,1.988695 -15.46188,1.872712 -23.85256,2.368606 -35.8059,2.11616 -6.08648,-0.128531 -12.628799,-0.04628 -14.538372,0.183013 -1.909631,0.229177 -5.302057,0.564741 -7.538816,0.745669 L 78.688896,61.466 Z m 1.409625,-29.481513 c -1.208626,-1.427253 -2.341446,-5.21058 -2.149118,-7.177599 0.346811,-3.548 -0.162861,-3.440154 15.630949,-3.305689 12.215211,0.103985 25.003181,-0.280261 25.820001,-0.77585 0.13826,-0.08389 3.93268,-0.309084 8.43203,-0.500358 4.49936,-0.191273 8.30227,-0.419747 8.45102,-0.50768 0.1488,-0.08793 5.50551,-0.3109 11.90407,-0.495378 6.3985,-0.184537 12.07168,-0.419103 12.60701,-0.521331 0.53545,-0.102227 7.7336,-0.326542 15.99621,-0.498483 12.97726,-0.270068 15.24325,-0.208087 16.64098,0.45519 3.29219,1.562252 4.78606,4.46633 4.12103,8.011347 -0.5665,3.019704 -1.40271,3.233555 -10.45139,2.672945 -5.39773,-0.33445 -11.74344,-0.321972 -19.84014,0.03867 -6.54724,0.291802 -14.91729,0.642919 -18.60012,0.780232 -12.7435,0.475109 -18.14562,0.820866 -27.63877,1.76902 -13.15646,1.314035 -39.827087,1.349777 -40.923762,0.05507 z"
       id="path1001"
       sodipodi:nodetypes="ssscsssssssssssssssssscssssssssscssssssccsssssssssssssssss" />
  </g>
</svg>
