<?xml version="1.0" encoding="UTF-8" standalone="no"?>
<!-- Created with Inkscape (http://www.inkscape.org/) -->

<svg
   width="71.42569mm"
   height="63.813492mm"
   viewBox="0 0 71.42569 63.813492"
   version="1.1"
   id="svg5"
   inkscape:version="1.1.1 (c3084ef, 2021-09-22)"
   sodipodi:docname="fairdata copy 7.svg"
   xmlns:inkscape="http://www.inkscape.org/namespaces/inkscape"
   xmlns:sodipodi="http://sodipodi.sourceforge.net/DTD/sodipodi-0.dtd"
   xmlns="http://www.w3.org/2000/svg"
   xmlns:svg="http://www.w3.org/2000/svg">
  <sodipodi:namedview
     id="namedview7"
     pagecolor="#ffffff"
     bordercolor="#666666"
     borderopacity="1.0"
     inkscape:pageshadow="2"
     inkscape:pageopacity="0.0"
     inkscape:pagecheckerboard="0"
     inkscape:document-units="mm"
     showgrid="false"
     inkscape:zoom="0.49264169"
     inkscape:cx="412.06419"
     inkscape:cy="128.89693"
     inkscape:window-width="2560"
     inkscape:window-height="1387"
     inkscape:window-x="0"
     inkscape:window-y="25"
     inkscape:window-maximized="1"
     inkscape:current-layer="layer1" />
  <defs
     id="defs2" />
  <g
     inkscape:label="Layer 1"
     inkscape:groupmode="layer"
     id="layer1"
     transform="translate(-49.823555,-91.634694)">
    <path
       style="fill:#000000;stroke-width:0.246457"
       d="m 78.310128,155.23584 c -8.08575,-0.24219 -16.0084,-1.06455 -17.45357,-1.81189 -0.41786,-0.21599 -1.13412,-0.39289 -1.59166,-0.39289 -0.88564,0 -1.90362,-0.81581 -1.90362,-1.52558 0,-0.54061 1.12268,-2.927 1.67934,-3.56955 0.25528,-0.29462 1.16974,-0.8327 2.03233,-1.19578 2.50053,-1.05246 5.69039,-1.40835 12.84991,-1.43368 l 6.33364,-0.0233 0.1275,-0.87082 c 0.0702,-0.47894 0.0914,-3.58799 0.0474,-6.90898 -0.0841,-6.34534 -0.3347,-8.20249 -1.02842,-7.62672 -0.19445,0.16132 -0.3535,0.39197 -0.3535,0.51251 0,0.12051 -0.3604,0.76374 -0.80088,1.4294 -0.61499,0.92941 -1.02965,1.27879 -1.78681,1.50556 -2.3367,0.69984 -2.71066,0.90602 -2.72725,1.50366 -0.009,0.31938 -0.0937,0.88436 -0.18892,1.25547 -0.0996,0.38945 -0.0533,0.86611 0.11003,1.12728 0.23084,0.36977 0.15952,0.63856 -0.39044,1.46957 -0.97853,1.47862 -1.4903,1.74072 -3.0155,1.54427 -0.7513,-0.0966 -1.4661,-0.06 -1.7252,0.0885 -0.25267,0.14496 -1.64886,0.22588 -3.25585,0.18891 -2.43876,-0.0562 -2.99675,-0.15078 -4.18976,-0.71011 -0.75698,-0.35484 -1.43179,-0.71571 -1.49955,-0.80193 -0.0678,-0.0862 -0.53308,-0.46443 -1.03399,-0.84049 -0.73058,-0.54845 -1.145,-0.67563 -2.09489,-0.64282 -2.7883,0.0964 -3.24846,0.0175 -4.00567,-0.68069 -1.15453,-1.06536 -1.17589,-1.72014 -0.10683,-3.27418 1.11016,-1.61388 1.70521,-2.13406 2.68196,-2.34443 0.40666,-0.0876 1.10615,-0.37033 1.55446,-0.62829 0.44828,-0.25797 0.97506,-0.46903 1.17065,-0.46903 0.19561,0 0.35559,-0.167 0.35559,-0.37112 0,-0.31295 -0.31871,-0.34706 -2.03327,-0.21753 -2.34822,0.17739 -3.98357,-0.16505 -4.63899,-0.97149 -0.23899,-0.29412 -0.62442,-1.14474 -0.85639,-1.89027 -0.232,-0.74554 -0.51535,-1.60375 -0.62972,-1.90714 -0.28527,-0.75642 -0.0661,-1.19916 0.7633,-1.54269 0.38642,-0.16005 1.01617,-0.61075 1.39942,-1.00155 0.57126,-0.58248 0.90779,-0.71177 1.86749,-0.71737 0.64389,-0.004 1.17068,-0.11774 1.17068,-0.2533 0,-0.13556 -0.15486,-0.24647 -0.34416,-0.24647 -0.33309,0 -1.25151,-0.95596 -2.22151,-2.31241 -0.25907,-0.36212 -0.73198,-0.94013 -1.0511,-1.28448 -0.31915,-0.34437 -0.74799,-1.02758 -0.953,-1.51822 -0.51576,-1.23438 -0.0967,-1.64037 1.65421,-1.60264 1.17824,0.0253 1.35042,-0.0446 2.01024,-0.817 0.39687,-0.46462 0.90157,-0.84947 1.12154,-0.85521 0.36628,-0.01 1.50899,-1.4836 1.50899,-1.94654 0,-0.10869 -0.36779,-0.44961 -0.8173,-0.75763 -0.9064,-0.62107 -1.64728,-2.31241 -1.64728,-3.76052 0,-0.71221 0.2288,-1.0954 1.30525,-2.18503 2.20187,-2.22906 3.95753,-3.5301 4.4885,-3.32633 0.36198,0.13891 0.82778,-1.075098 1.02447,-2.670043 0.16883,-1.36794 0.9493,-2.442923 2.55589,-3.519674 0.85956,-0.576095 1.82278,-1.047444 2.14048,-1.047444 0.3177,0 0.96296,-0.161002 1.43391,-0.357773 1.01929,-0.425884 2.01988,-0.33713 3.12416,0.277118 1.30397,0.725293 1.48786,1.150388 0.6248,1.444293 -0.54349,0.185076 -1.05791,0.308597 -3.48401,0.836537 -0.66231,0.144119 -1.32775,0.408977 -1.47874,0.588542 -0.15107,0.179574 -0.57717,0.513865 -0.94712,0.742887 -0.36997,0.22903 -0.89042,0.894367 -1.15656,1.478546 -0.67454,1.480761 -1.2514,3.205171 -1.11712,3.339471 0.062,0.0619 -0.72601,0.6552 -1.75088,1.31844 -2.11897,1.37129 -3.80555,2.9927 -3.80555,3.65848 0,0.38075 1.87122,1.95379 2.32413,1.95379 0.0771,0 0.14031,-0.31914 0.14031,-0.70921 0,-0.85902 0.2122,-1.02748 2.04619,-1.62486 1.67348,-0.54509 1.90944,-0.80365 1.23315,-1.3513 -0.70971,-0.57469 -1.20925,-1.56411 -0.8501,-1.68382 0.15486,-0.0517 0.28177,-0.22906 0.28177,-0.39418 0,-0.40414 3.38294,-0.37292 4.11195,0.0379 0.29607,0.16688 0.76743,0.30338 1.04746,0.30338 0.28003,0 0.50912,0.11091 0.50912,0.24647 0,0.13556 0.22181,0.24647 0.4929,0.24647 0.37871,0 0.49291,0.16432 0.49291,0.7092 0,0.39004 -0.16272,0.84431 -0.3618,1.00946 -0.19911,0.16517 -0.35222,0.37282 -0.34049,0.46147 0.0716,0.54159 -0.2253,0.85136 -1.91328,1.99667 -1.13735,0.77168 -2.63571,1.51795 -3.80479,1.89503 -1.27751,0.41208 -1.88839,0.72663 -1.80965,0.93185 0.0655,0.17038 -0.31642,0.83658 -0.84847,1.48044 -0.53206,0.64385 -1.27781,1.78418 -1.65721,2.53405 -0.88,1.7393 -2.12927,3.0901 -2.66698,2.88374 -0.60669,-0.23281 -0.47613,0.26795 0.15836,0.60754 0.4277,0.22892 1.21495,0.23622 3.38541,0.0316 1.9554,-0.1844 2.85452,-0.18752 2.91364,-0.0102 0.0472,0.14112 0.24015,0.25657 0.42899,0.25657 0.43229,0 1.07924,0.96986 1.24062,1.85986 0.24714,1.36274 -0.11876,2.07196 -1.53774,2.97959 -1.21007,0.77405 -1.46829,0.84606 -2.58754,0.72143 -1.16043,-0.12922 -2.67547,-0.90021 -2.67547,-1.36153 0,-0.45919 -0.79066,-0.4556 -1.575,0.007 -0.46028,0.27156 -0.9319,0.46978 -1.04805,0.4405 -0.4238,-0.1068 -1.77341,0.89639 -1.74331,1.29582 0.0175,0.22597 0.15486,0.36333 0.30631,0.30521 0.28702,-0.11009 0.8561,0.90509 0.8561,1.52695 0,0.42735 1.08181,0.46593 2.68732,0.0959 0.59691,-0.13763 1.59352,-0.26041 2.21462,-0.27284 0.62113,-0.0125 1.37287,-0.18225 1.67054,-0.37728 0.66747,-0.43736 3.03934,-0.69493 3.03934,-0.33008 0,0.14115 0.11876,0.25663 0.26402,0.25663 1.02359,0 1.26115,1.91231 0.29051,2.33816 -0.30501,0.13381 -0.55453,0.3265 -0.55453,0.42822 0,0.29885 -1.9194,1.42338 -2.4295,1.42338 -0.25733,0 -0.59074,0.14831 -0.74121,0.32962 -0.209,0.25176 -0.13273,0.46186 0.32227,0.88936 0.63036,0.59216 0.79992,1.9477 0.28643,2.28925 -0.14962,0.0995 -0.85682,0.18281 -1.57136,0.18484 -1.14841,0.003 -1.33177,-0.0678 -1.57996,-0.61235 -0.48629,-1.06736 -1.80971,-0.60853 -2.67247,0.9265 l -0.56146,0.99899 0.59196,-0.18833 c 0.32559,-0.10363 1.21644,-0.30626 1.97971,-0.45029 1.68408,-0.31775 2.85106,0.0571 3.21987,1.03413 0.13216,0.35012 0.63682,0.96805 1.1214,1.37316 0.78516,0.65629 1.07145,0.73972 2.62844,0.76592 1.13898,0.0204 1.88044,-0.085 2.12985,-0.29933 0.21046,-0.18077 0.62346,-0.36555 0.91787,-0.41047 0.2944,-0.0448 0.61207,-0.15835 0.70595,-0.25237 0.0937,-0.094 0.54032,-0.17058 0.99218,-0.17058 0.62678,0 0.82152,-0.10508 0.82152,-0.44362 0,-0.24394 0.12313,-0.56682 0.27362,-0.7174 0.20086,-0.20085 0.12692,-0.74804 -0.27624,-2.05124 l -0.55013,-1.77747 0.54623,-2.24944 c 0.30043,-1.23716 0.66881,-2.60963 0.8186,-3.04993 0.37269,-1.09535 -0.42971,-2.80135 -1.53244,-3.25813 -1.05725,-0.43793 -1.37806,-1.80121 -0.71603,-3.04291 0.15981,-0.29984 0.33429,-0.37134 0.52932,-0.21698 0.1601,0.12663 0.69565,0.3031 1.19033,0.39214 0.49471,0.089 1.01596,0.30226 1.15834,0.47384 0.14234,0.1716 0.91335,0.62477 1.71324,1.00707 1.5739,0.75226 2.26716,1.60964 2.26716,2.80392 0,0.40303 -0.17291,0.87635 -0.38436,1.0518 -0.29461,0.24452 -0.36811,0.71778 -0.31469,2.02652 0.0565,1.38523 -0.0117,1.76613 -0.35499,2.01806 -0.42051,0.30748 -0.5961,1.1232 -0.23986,1.11408 0.10159,-0.003 0.60649,-0.72569 1.12181,-1.60692 0.83359,-1.42543 0.93108,-1.76485 0.88375,-3.0766 -0.0291,-0.81091 -0.009,-1.50629 0.0489,-1.54528 0.61709,-0.42859 1.6421,-0.53553 2.13536,-0.2228 0.30497,0.1934 0.55452,0.24114 0.55452,0.10616 0,-0.38314 -1.22121,-3.53242 -1.55203,-4.00239 -0.87394,-1.24157 -5.22674,-4.18838 -6.18676,-4.18838 -0.37527,0 -2.61239,-2.15953 -2.61239,-2.52178 0,-0.11323 0.33653,-0.53483 0.74787,-0.93693 0.94086,-0.91975 1.96611,-0.95425 4.20658,-0.14158 1.44838,0.52535 3.5856,1.67603 3.91799,2.10947 0.2649,0.34539 2.46988,1.8141 2.5713,1.71268 0.0591,-0.0592 0.18455,-0.68781 0.27857,-1.39699 0.18368,-1.38447 0.13099,-1.43887 -1.28121,-1.32288 -0.67664,0.0555 -4.14621,-1.27655 -4.65809,-1.78842 -0.5871,-0.58711 -0.74112,-2.00404 -0.29228,-2.68901 0.20783,-0.31742 0.52041,-1.05201 0.69431,-1.63241 0.38421,-1.28237 0.7442,-1.45765 1.60428,-0.7811 0.36113,0.28408 0.80548,0.5165 0.98738,0.5165 0.18194,0 0.51608,0.28283 0.74258,0.62852 0.5857,0.8939 1.26845,0.68837 2.2469,-0.6764 0.79025,-1.10226 0.81624,-1.20602 0.54972,-2.19574 -0.15399,-0.57134 -0.21017,-1.40931 -0.12517,-1.86215 0.0952,-0.50692 0.0556,-0.82337 -0.10304,-0.82337 -0.39347,0 -0.30908,-0.35817 0.23112,-0.98104 0.39402,-0.4543 0.65531,-0.53651 1.34787,-0.42413 1.3242,0.21488 1.96006,0.94107 1.78241,2.03571 -0.14904,0.91901 0.13273,1.6035 1.12396,2.72828 0.35821,0.40655 0.4173,0.69459 0.26256,1.28024 -0.20114,0.76091 -1.93759,3.00111 -2.32637,3.00111 -0.11498,0 -0.43404,0.1941 -0.7091,0.4313 -0.27508,0.23721 -0.80314,0.49705 -1.1735,0.57742 -0.71026,0.15413 -0.52667,0.29962 0.72188,0.57185 0.38159,0.0832 0.9838,0.58135 1.44014,1.19125 0.76382,1.02093 0.78068,1.09834 0.64503,2.96799 -0.1275,1.75824 -0.67501,3.53091 -1.20311,3.89601 -0.20405,0.14109 0.3648,2.10077 1.13785,3.9193 l 0.36665,0.86261 0.27479,-0.73938 c 0.87418,-2.35129 1.31795,-3.0953 3.27539,-5.4915 1.18607,-1.4519 2.15651,-2.82797 2.15651,-3.05791 0,-0.22993 -0.23636,-0.81893 -0.52559,-1.30886 -0.42179,-0.7149 -0.49695,-1.13247 -0.3806,-2.11485 0.0798,-0.67324 0.21948,-1.34471 0.31068,-1.49217 0.24393,-0.3945 2.73197,-1.44535 3.42224,-1.44535 0.32701,0 0.6631,-0.1109 0.74688,-0.24646 0.0838,-0.13556 0.0434,-0.24647 -0.0897,-0.24647 -0.13303,0 -0.56055,-0.26798 -0.94977,-0.59549 -0.38925,-0.32751 -1.13391,-0.67544 -1.65482,-0.77316 -2.14243,-0.40192 -3.06228,-2.37212 -1.88158,-4.03021 0.6158,-0.86484 2.79851,-2.0659 4.56089,-2.50967 1.06633,-0.268501 1.18707,-0.249871 1.65797,0.25555 0.38305,0.41114 0.66747,0.50506 1.15717,0.38218 0.84716,-0.21264 0.84038,-0.19948 0.49407,-0.959579 -0.33059,-0.72552 -0.54786,-0.803867 -3.09089,-1.114601 -3.4689,-0.423831 -4.33274,-2.153091 -2.49345,-4.991575 1.02892,-1.587915 2.25557,-2.074208 4.57446,-1.813527 0.91248,0.10258 2.13664,0.216688 2.72039,0.253569 0.6009,0.03796 1.18896,0.233193 1.35549,0.450003 0.23782,0.309456 0.506992,0.340553 1.403232,0.16205 3.29664,-0.656538 4.24699,-0.0379 4.54207,2.956708 0.12255,1.245292 0.31365,1.903122 0.65009,2.239568 0.48417,0.484162 1.21574,0.646184 1.21574,0.269259 0,-0.113875 0.6087,-0.353122 1.35273,-0.531602 1.21149,-0.290654 1.45604,-0.277904 2.34267,0.121909 1.37057,0.618018 2.51232,1.79566 3.73289,3.850198 0.97585,1.64259 1.02001,1.7963 0.72511,2.52342 -0.82126,2.02494 -0.85677,4.4019 -0.0745,4.99596 0.23316,0.17715 0.72179,0.32561 1.08574,0.32993 0.88334,0.0105 1.71269,0.35039 2.21298,0.90701 0.2256,0.25098 0.75236,0.82531 1.17065,1.27628 0.4183,0.45096 0.76057,1.07472 0.76057,1.3861 0,0.78074 -1.16081,2.78811 -1.88767,3.26439 -0.56643,0.37111 -0.63513,0.35877 -1.26569,-0.22752 -0.87589,-0.81444 -1.7519,-0.99933 -2.61446,-0.55184 -1.4864,0.77116 -3.29005,0.25404 -4.09227,-1.17333 -0.48147,-0.85669 -0.61455,-0.94198 -1.25131,-0.80212 -1.68591,0.37028 -3.07107,-1.95837 -1.57137,-2.64167 0.34427,-0.15687 1.14172,-1.00804 1.77216,-1.89151 0.97265,-1.36303 1.15188,-1.79495 1.18358,-2.85185 0.0204,-0.68505 0.11905,-1.64187 0.2189,-2.12628 0.22938,-1.11406 -0.51602,-2.6122 -1.24084,-2.49365 -1.62591,0.26594 -4.10653,0.40118 -4.6573,0.25389 -0.77634,-0.20761 -1.84499,-1.29701 -1.84715,-1.882934 0,-0.230252 -0.17902,-0.751325 -0.39574,-1.157979 -0.21686,-0.406654 -0.52434,-1.177349 -0.68342,-1.712659 -0.28731,-0.966552 -0.30081,-0.975183 -1.9639,-1.24735 -0.921102,-0.150727 -1.749632,-0.378188 -1.841242,-0.505453 -0.0917,-0.127265 -0.59187,-0.24012 -1.11167,-0.250745 -0.51986,-0.01077 -1.02994,-0.156491 -1.13348,-0.32406 -0.24335,-0.393715 -2.28291,-0.26009 -2.4206,0.158586 -0.0667,0.20257 0.16389,0.308073 0.67269,0.308073 1.05526,0 3.01904,0.513921 3.39391,0.888173 0.16883,0.168426 0.56373,0.508848 0.87778,0.756476 0.31409,0.24763 0.8706,1.060213 1.236732,1.805746 0.36614,0.745533 0.9046,1.656266 1.19659,2.023826 0.65754,0.82785 0.6829,1.99093 0.0585,2.68348 -0.42601,0.47245 -0.61755,0.50459 -1.951122,0.32729 -0.81331,-0.10811 -2.24184,-0.17032 -3.17447,-0.13824 -1.45999,0.0502 -1.77676,-0.0178 -2.2788,-0.48949 -0.52152,-0.4899 -0.64838,-0.5129 -1.2002,-0.21756 -0.33935,0.18161 -0.61702,0.40554 -0.61702,0.4976 0,0.27636 1.75047,0.90427 3.32717,1.19346 1.1891,0.21812 1.63564,0.44045 2.27973,1.13513 0.52816,0.56964 0.801,1.11202 0.801,1.59234 0,0.40064 0.0998,0.79016 0.2221,0.8656 0.40549,0.25063 0.12866,1.59776 -0.4564,2.22048 -0.31712,0.33755 -0.67624,0.55216 -0.79803,0.4769 -0.12167,-0.0753 -0.35897,-0.0227 -0.52708,0.11681 -0.31015,0.25741 -0.54099,0.24891 -1.6444,-0.0605 -0.33888,-0.095 -1.22613,-0.0169 -1.97164,0.17308 -1.06155,0.27086 -1.37264,0.46056 -1.43441,0.8747 -0.11585,0.77659 0.56003,0.9028 1.44815,0.27037 1.04175,-0.74179 2.68944,-0.90639 3.79958,-0.37959 0.86817,0.41197 0.96193,0.57064 0.88549,1.49845 -0.0445,0.5409 -1.40634,1.84843 -1.9251,1.84843 -0.31597,0 -1.3988,1.00616 -2.40403,2.23389 -1.13022,1.38035 -2.09489,2.65044 -2.09489,2.75814 0,0.0634 0.26955,0.0637 0.59912,0 0.96532,-0.18455 1.7023,0.67855 1.56269,1.83007 -0.0963,0.79615 0.52513,2.69456 1.23222,3.76298 0.0405,0.0613 0.34686,-0.18322 0.68072,-0.54327 0.74446,-0.80286 1.85768,-1.03181 4.15086,-0.85365 2.110212,0.16397 2.531422,0.30979 2.694342,0.93294 0.16039,0.61316 0.90998,0.62398 0.90998,0.0131 0,-0.92986 1.38766,-1.41839 2.56503,-0.90295 0.41917,0.1835 1.37212,0.84483 2.11766,1.46957 0.74551,0.62477 1.96445,1.36446 2.70869,1.6438 0.78745,0.29555 1.62222,0.83011 1.99665,1.27864 l 0.64345,0.77074 1.57699,-0.44312 c 2.97285,-0.83537 3.42159,-1.41289 2.44626,-3.14822 -0.29211,-0.5198 -0.44088,-0.94563 -0.33053,-0.94632 0.11032,0 -0.0926,-0.25019 -0.45084,-0.55453 -0.62611,-0.53178 -1.18276,-2.40172 -0.71495,-2.40172 0.31057,0 0.54877,-0.793 0.30993,-1.03182 -0.11557,-0.11571 -0.6756,-0.0457 -1.24695,0.15582 -0.74103,0.26146 -1.21545,0.298 -1.66251,0.12802 -0.94258,-0.35837 -2.82826,-0.28622 -4.13215,0.15804 -1.38707,0.47263 -2.271,0.21657 -3.24391,-0.93967 -0.50921,-0.60512 -0.61118,-0.98565 -0.61118,-2.28063 0,-1.37188 0.0608,-1.57021 0.51774,-1.68971 0.62398,-0.16319 1.70038,0.2843 1.70038,0.70688 0,0.16689 0.28876,0.37592 0.64197,0.46453 0.49645,0.12461 0.61207,0.2754 0.5101,0.66526 -0.11585,0.4435 -0.0524,0.48268 0.52874,0.32576 0.36328,-0.0981 1.52436,-0.21462 2.58017,-0.25889 1.4453,-0.0606 2.09411,-0.20478 2.62584,-0.58339 0.90201,-0.64229 1.88543,-0.63724 2.95559,0.0151 1.21059,0.73802 2.46473,2.21237 2.49433,2.93237 0.0146,0.33888 0.0515,1.22612 0.0836,1.97165 0.032,0.74553 0.1959,1.60984 0.36438,1.92067 0.47859,0.8831 1.00077,3.99736 0.76877,4.58496 -0.48635,1.23196 -0.58206,1.52781 -0.62476,1.93108 -0.0262,0.23477 -0.18485,0.59522 -0.35566,0.80099 -0.17087,0.20577 -0.2416,0.37412 -0.15719,0.37412 0.0844,0 -0.0442,0.19407 -0.28556,0.4313 -0.48458,0.47619 -2.00829,1.21541 -2.39533,1.16209 -0.72542,-0.0999 -1.00962,-0.42561 -0.96272,-1.10306 0.0524,-0.75591 -0.0262,-0.77886 -1.27902,-0.37341 -0.45181,0.14619 -0.50243,0.31418 -0.40389,1.33983 0.11469,1.19429 -0.27421,2.33463 -1.00261,2.93914 -0.35868,0.2977 -3.0212,1.16041 -6.27414,2.03301 -1.60257,0.42991 -1.8477,0.44173 -2.34866,0.11352 -0.49777,-0.32613 -0.63994,-0.32308 -1.29143,0.0291 -1.06423,0.57305 -7.931202,0.71655 -9.186652,0.19212 -2.41663,-1.00976 -3.15245,-2.3918 -2.17916,-4.09317 0.4943,-0.86407 0.49817,-0.9261 0.0859,-1.38175 -0.27421,-0.30297 -0.64308,-0.43669 -1.01081,-0.36639 -0.90305,0.17261 -1.69878,-0.82103 -1.5018,-1.87535 0.0853,-0.45722 0.24597,-1.01175 0.35703,-1.23228 0.1109,-0.22053 0.44746,-1.14748 0.74789,-2.05989 l 0.54627,-1.65892 -0.76333,-1.63118 c -0.52708,-1.12636 -0.71486,-1.8242 -0.60675,-2.25491 0.28207,-1.12441 -0.47142,-0.49367 -0.97111,0.81277 -0.25587,0.66856 -0.67035,1.71465 -0.92142,2.32463 -0.25092,0.60998 -0.75619,2.66173 -1.12253,4.55945 -0.58442,3.02729 -0.66928,4.08508 -0.69207,8.62601 -0.0145,2.84658 0.0652,5.60691 0.1764,6.13407 l 0.20231,0.95848 1.68853,-0.14147 c 2.01711,-0.16913 10.34889,0.21278 12.443342,0.57045 0.81561,0.13914 2.20385,0.37559 3.08493,0.52521 0.88107,0.14962 1.79652,0.44196 2.03428,0.64966 0.47716,0.41675 0.82886,1.54054 1.03323,3.30155 0.11993,1.03244 0.0658,1.20736 -0.51421,1.66358 -0.35647,0.28032 -0.91487,0.50982 -1.24086,0.50982 -0.32597,0 -1.03658,0.22647 -1.57905,0.50318 -1.15063,0.58701 -2.1964,0.79479 -7.373572,1.46503 -4.0753,0.52757 -7.17498,0.56777 -18.23779,0.23666 z m 23.448032,-20.06096 c 0.22792,-0.28963 0.81246,-0.74123 1.29893,-1.00321 0.48653,-0.26198 0.88454,-0.56204 0.88454,-0.66674 0,-0.50279 1.05116,-1.17626 1.83588,-1.17626 0.6767,0 0.9801,0.17046 1.48765,0.83591 0.35064,0.45975 0.62046,0.93112 0.5995,1.04743 -0.17466,0.96992 -0.0175,1.05664 1.19097,0.65545 1.49093,-0.49511 2.03551,-0.97285 2.02453,-1.776 -0.0146,-1.1199 -0.83473,-2.07367 -3.30204,-3.8435 -0.37793,-0.27109 -0.83331,-0.63155 -1.01195,-0.80098 -0.17873,-0.16945 -0.4098,-0.30807 -0.51372,-0.30807 -0.10392,0 -0.47229,-0.26929 -0.8186,-0.5984 -0.34628,-0.32912 -0.79596,-0.63411 -0.99929,-0.67776 -0.20347,-0.0436 -0.55182,-0.27665 -0.77445,-0.51775 -0.38383,-0.41575 -0.44388,-0.38391 -1.16168,0.61614 -1.48491,2.06878 -1.79091,2.25875 -2.835812,1.76049 -0.81304,-0.38773 -0.87924,-0.38218 -1.60437,0.13416 -0.416,0.29622 -1.3927,0.70433 -2.17049,0.90689 -0.77777,0.2026 -1.4453,0.39953 -1.48343,0.43768 -0.0381,0.0381 0.0681,0.36538 0.23607,0.7272 0.24423,0.52567 0.47885,0.65986 1.16809,0.66765 0.95242,0.0108 1.49807,0.33496 1.93052,1.14689 0.24364,0.45741 0.1863,0.65766 -0.38707,1.35552 -0.37012,0.45037 -0.73017,0.87432 -0.80009,0.94208 -1.02897,0.99687 -0.96022,1.02601 1.98079,0.83992 2.458172,-0.15545 2.863052,-0.24394 3.225462,-0.70474 z m 14.3253,-21.11275 c 0.65757,0.0348 0.97236,-0.0664 1.08015,-0.34731 0.20813,-0.54228 -0.1109,-0.78824 -1.25018,-0.96426 -0.53196,-0.0822 -1.11316,-0.27057 -1.29157,-0.41861 -0.24044,-0.19954 -0.61134,-0.13431 -1.43306,0.25194 -0.60978,0.28664 -1.30095,0.52116 -1.53592,0.52116 -0.37629,0 -0.36927,0.0398 0.0588,0.33368 0.84295,0.5786 1.93852,0.87014 2.70427,0.7196 0.40665,-0.08 1.15697,-0.12325 1.66739,-0.0962 z m -36.294592,-2.79684 c 0,-0.063 -0.22181,-0.23328 -0.49291,-0.37836 -0.39344,-0.21055 -0.49293,-0.18744 -0.49293,0.11454 0,0.21404 0.21395,0.37836 0.49293,0.37836 0.27101,0 0.49291,-0.0515 0.49291,-0.11454 z m -3.13354,-1.86095 c -0.16999,-0.65028 -0.47628,-0.82492 -0.6505,-0.37094 -0.10566,0.27514 0.32992,0.78011 0.74188,0.86021 0.0204,0.004 -0.0204,-0.21605 -0.0914,-0.48927 z m -1.95502,-5.6465 c -0.48362,-0.29489 -0.89545,-0.82805 -1.09395,-1.41621 -0.38587,-1.14342 -0.42933,-3.42573 -0.0719,-3.783044 0.39711,-0.397092 1.52663,-0.528947 2.06462,-0.241023 0.40438,0.216426 0.4585,0.429746 0.33589,1.324384 -0.19328,1.409093 0.17553,2.101363 1.0316,1.937693 0.35498,-0.0679 1.08946,0.0233 1.6322,0.20228 0.9232,0.3047 0.97722,0.37425 0.83872,1.0801 -0.0815,0.41496 -0.33411,0.89308 -0.56154,1.06252 -0.6588,0.49087 -3.26799,0.38672 -4.17552,-0.16668 z m 2.11137,-3.74267 c -0.57005,-0.800591 -0.58707,-0.958176 -0.10363,-0.958176 0.20347,0 0.36968,-0.08925 0.36968,-0.198291 0,-0.218172 1.02825,-1.317453 2.77803,-2.969818 0.78909,-0.745152 1.063,-1.159528 0.89603,-1.355514 -0.13215,-0.155268 -0.38688,-0.494188 -0.56582,-0.753189 -0.30521,-0.441788 -0.44569,-0.452241 -2.27129,-0.169007 -2.86233,0.444062 -2.80862,0.415599 -2.80862,1.488947 0,0.954239 -0.54626,1.757684 -0.8552,1.25782 -0.0879,-0.142139 -0.37774,-0.25843 -0.64424,-0.25843 -0.34118,0 -0.52827,-0.218726 -0.63239,-0.73937 -0.0812,-0.406654 -0.23113,-0.739371 -0.33272,-0.739371 -0.25936,0 -0.50984,-1.394281 -0.33312,-1.854845 0.29592,-0.77121 1.40006,-1.060755 4.16274,-1.091634 1.48582,-0.01659 2.92328,-0.03429 3.1944,-0.03933 0.82161,-0.01514 2.68042,0.613992 3.19726,1.082261 0.48117,0.435981 1.10474,2.100968 1.11199,2.969018 0.002,0.247136 -0.46429,0.857111 -1.03631,1.35551 -0.57202,0.4984 -1.69232,1.516062 -2.48958,2.261447 -1.16972,1.093652 -1.615,1.357342 -2.30681,1.365912 -0.65673,0.008 -0.96799,-0.14484 -1.33052,-0.65395 z"
       id="path836"
       sodipodi:nodetypes="csssssccsssssssccsssssssscssssssssssssssssssssssssssssssssssssssssssssssssssssssssssssssssssscssssssssssssscsscsssscssssssccssssssssssscssscsssssssssssssssssssssssssssssssssscssscsssssssssssssssssssssssssssssssssssssscsscssssssssssssssssssssscsssscssssssscsssssssssscsscsssssssssssssssscssscssssssssssccsssssscssssscscsssssssssccssssssscssssssssssssssscssssssssssssssssssssssssssssscsssssssssssssssssssscsssss" />
  </g>
</svg>
