<?xml version="1.0" encoding="UTF-8" standalone="no"?>
<!-- Created with Inkscape (http://www.inkscape.org/) -->

<svg
   width="57.270988mm"
   height="60.998154mm"
   viewBox="0 0 57.270988 60.998154"
   version="1.1"
   id="svg5"
   inkscape:version="1.1.1 (c3084ef, 2021-09-22)"
   sodipodi:docname="fairdata copy.svg"
   xmlns:inkscape="http://www.inkscape.org/namespaces/inkscape"
   xmlns:sodipodi="http://sodipodi.sourceforge.net/DTD/sodipodi-0.dtd"
   xmlns="http://www.w3.org/2000/svg"
   xmlns:svg="http://www.w3.org/2000/svg">
  <sodipodi:namedview
     id="namedview7"
     pagecolor="#ffffff"
     bordercolor="#666666"
     borderopacity="1.0"
     inkscape:pageshadow="2"
     inkscape:pageopacity="0.0"
     inkscape:pagecheckerboard="0"
     inkscape:document-units="mm"
     showgrid="false"
     inkscape:zoom="0.49264169"
     inkscape:cx="304.48093"
     inkscape:cy="47.702012"
     inkscape:window-width="2560"
     inkscape:window-height="1387"
     inkscape:window-x="0"
     inkscape:window-y="25"
     inkscape:window-maximized="1"
     inkscape:current-layer="layer1" />
  <defs
     id="defs2" />
  <g
     inkscape:label="Layer 1"
     inkscape:groupmode="layer"
     id="layer1"
     transform="translate(-80.819455,-102.83323)">
    <path
       style="fill:#000000;stroke-width:0.197839"
       d="m 109.44068,163.74264 c -1.63848,-0.44471 -2.91463,-1.61459 -3.15421,-2.89166 -0.14931,-0.79592 0.18624,-2.21189 0.64614,-2.72687 0.54811,-0.61371 1.52431,-0.92259 2.25417,-0.71325 0.94299,0.27042 0.92581,0.28117 1.4518,-0.90822 0.5469,-1.23659 0.58064,-1.67748 0.25077,-3.27467 -0.19792,-0.95848 -0.18413,-1.25741 0.0925,-1.99031 0.25035,-0.66305 0.28244,-1.04531 0.1388,-1.65373 -0.10281,-0.43526 -0.18904,-1.17252 -0.19161,-1.63839 -0.002,-0.56711 -0.10281,-0.88466 -0.30147,-0.96091 -0.1631,-0.0626 -0.30379,-0.26014 -0.31239,-0.43892 -0.009,-0.17876 -0.21615,0.0928 -0.46112,0.60354 -0.24503,0.51073 -0.53578,1.04489 -0.64612,1.18703 -0.11029,0.14207 -0.31526,0.70358 -0.45542,1.24765 -0.1402,0.54405 -0.42207,1.28536 -0.62651,1.64735 -0.38244,0.6772 -0.34309,1.02347 0.11637,1.02347 0.16918,0 0.31001,0.38181 0.3967,1.07571 0.2075,1.66068 -0.45339,2.40846 -2.26504,2.56275 -0.61732,0.0526 -0.89118,0.16544 -0.89326,0.36807 -0.002,0.16077 -0.10001,0.41563 -0.21871,0.56641 -0.11871,0.15072 -0.58368,1.03882 -1.03342,1.97347 -1.94793,4.04827 -4.561188,5.42511 -6.397048,3.37044 -1.10036,-1.23152 -0.53587,-3.51434 1.10716,-4.47721 0.83593,-0.48986 1.0209,-0.52236 2.263498,-0.39756 l 1.35321,0.13599 0.45002,-0.9568 c 0.2475,-0.52624 0.4647,-1.04585 0.48262,-1.15466 0.0187,-0.10889 0.12828,-0.36553 0.24542,-0.57048 0.12197,-0.21357 0.15259,-0.6395 0.0717,-0.99792 -0.0776,-0.34392 -0.0701,-0.817 0.0163,-1.05132 0.15376,-0.41565 1.35724,-1.2019 1.37296,-0.89701 0.0164,0.3331 0.57758,-0.92121 0.68568,-1.53468 0.0633,-0.35893 0.16567,-0.7346 0.22759,-0.83482 0.0619,-0.10025 -0.0421,-0.5251 -0.23086,-0.94414 -0.40899,-0.90693 -0.28564,-1.60469 0.40592,-2.29625 0.47049,-0.47046 0.4858,-0.57276 0.46316,-3.09892 -0.0117,-1.4368 -0.0876,-2.87944 -0.16614,-3.20587 l -0.14277,-0.59352 -0.22946,0.55695 c -0.12618,0.30629 -0.22947,0.65462 -0.22947,0.77402 0,0.34604 -1.17679,2.08495 -1.49313,2.20634 -0.30854,0.11847 -0.40607,1.1119 -0.10912,1.1119 0.0981,0 0.16917,0.32272 0.15796,0.71713 -0.0339,1.1975 -1.14414,2.02036 -2.78444,2.06373 -0.26306,0.007 -0.79061,0.45222 -1.4096,1.18979 l -0.989178,1.17864 v 1.46176 c 0,1.3383 -0.0516,1.52608 -0.6123,2.22295 -0.68301,0.8491 -1.53941,1.22792 -2.81343,1.2446 -0.96362,0.0117 -1.56375,-0.2364 -2.05193,-0.85139 -0.30536,-0.38466 -0.38978,-0.3984 -0.98919,-0.161 -0.36045,0.14278 -0.78888,0.28368 -0.9521,0.31305 -0.1631,0.0294 -0.32442,0.28498 -0.35823,0.56805 -0.0339,0.28304 -0.40404,0.87838 -0.82272,1.32293 -0.72271,0.76739 -0.80471,0.80188 -1.62016,0.68156 -1.07057,-0.15796 -2.08974,-0.93871 -2.67839,-2.05188 -0.24753,-0.46806 -0.5408,-0.96042 -0.65175,-1.0941 -0.39597,-0.47711 -0.77264,-2.10743 -0.59494,-2.57488 0.0946,-0.24916 0.12969,-0.49556 0.0778,-0.54753 -0.0519,-0.0519 0.26713,-0.23918 0.70909,-0.41602 1.56908,-0.62782 2.9963,-0.32457 4.28446,0.91037 1.05812,1.01437 1.51437,0.95317 1.67198,-0.22433 0.15002,-1.12109 0.59167,-1.45493 1.70407,-1.28813 0.77501,0.11636 0.85826,0.0848 1.08331,-0.40916 0.22105,-0.48514 0.31526,-0.5236 1.00984,-0.41254 0.70755,0.1131 0.83048,0.058 1.61002,-0.72306 0.46415,-0.46507 1.32027,-1.45792 1.90245,-2.20638 0.891738,-1.14642 0.982358,-1.33343 0.57533,-1.18703 -0.42006,0.15118 -1.07349,0.1673 -3.00559,0.0748 -1.10899,-0.0533 -3.50883,0.33036 -3.84145,0.61387 -0.66806,0.56949 -1.93729,1.03473 -2.82303,1.03482 -0.76372,9e-5 -0.95855,-0.0935 -1.5005,-0.72037 -0.47554,-0.55013 -0.86322,-0.77202 -1.63969,-0.93855 -0.55931,-0.11988 -1.31597,-0.42103 -1.6815,-0.66909 -0.65506,-0.44453 -0.67457,-0.44586 -1.36156,-0.0935 -0.86452,0.44352 -1.84735,0.20819 -2.65607,-0.63591 -0.61523,-0.64214 -0.65925,-1.29823 -0.18156,-2.70514 0.41572,-1.22442 1.09155,-1.96342 1.94131,-2.12283 0.63216,-0.1187 0.77734,-0.0458 1.73837,0.87072 0.57671,0.5501 1.06183,1.17993 1.078,1.39964 0.0164,0.21965 0.19137,0.5784 0.38913,0.79697 0.37688,0.41647 1.7461,0.89724 1.83672,0.6449 0.25657,-0.71434 0.67497,-1.2017 1.35272,-1.57557 0.85111,-0.46951 0.78744,-0.47502 2.8371,0.24631 0.43495,0.15305 0.81109,0.48182 1.04027,0.90922 0.42569,0.79382 1.0715,0.89644 2.13338,0.33898 0.37922,-0.19908 0.84457,-0.36199 1.03408,-0.36199 0.1895,0 0.48675,-0.21685 0.66046,-0.48208 0.17361,-0.26515 0.56809,-0.53746 0.87639,-0.60518 0.84653,-0.186 2.665728,-1.34798 3.375118,-2.15593 0.3463,-0.39441 0.85186,-0.77291 1.12347,-0.84104 0.303,-0.076 0.59415,-0.36399 0.75339,-0.74512 0.1853,-0.44374 0.40483,-0.63322 0.76812,-0.66329 0.44901,-0.0372 0.52311,0.0488 0.63293,0.73572 0.10212,0.63852 0.2318,0.81525 0.72391,0.98683 0.7518,0.26208 0.73834,0.26322 0.73834,-0.0631 0,-0.15936 0.20796,-0.27201 0.50231,-0.27201 0.35317,0 0.58962,0.16894 0.79641,0.56877 0.1617,0.31285 0.37009,0.56879 0.46292,0.56879 0.31721,0 0.56749,1.08765 0.77391,3.36325 0.21357,2.35394 0.59216,4.15461 0.87364,4.15461 0.25229,0 0.54755,-0.93981 0.54788,-1.74396 1.8e-4,-0.40097 -0.27807,-2.18257 -0.61834,-3.95914 -0.47964,-2.50459 -0.57115,-3.3343 -0.4073,-3.69392 0.29856,-0.65525 0.84915,-0.44901 1.60275,0.60037 0.72827,1.01409 1.94741,3.53873 2.0506,4.24637 0.0397,0.27203 0.17268,0.85071 0.29577,1.28594 0.12291,0.43525 0.27241,1.03027 0.33202,1.32223 0.0596,0.29199 0.27662,0.58427 0.48224,0.64953 0.61333,0.19464 0.80394,1.41626 0.356,2.28179 -0.16871,0.3262 -0.204,0.7303 -0.10352,1.18703 0.0839,0.38083 0.2054,1.36013 0.27028,2.17622 0.0647,0.81608 0.14698,1.5777 0.18273,1.6925 0.0358,0.11473 0.43037,0.32933 0.87717,0.47677 0.76526,0.25257 0.81239,0.31258 0.81239,1.03417 0,1.38065 -0.90474,2.73171 -1.82931,2.73171 -0.22573,0 -0.38198,0.3982 -0.87876,2.23957 -0.0664,0.24635 0.0334,0.39426 0.31627,0.46822 0.22736,0.0596 0.41341,0.23133 0.41341,0.38179 0,0.15048 0.0748,0.27367 0.16613,0.27367 0.40215,0 0.58015,0.91455 0.32338,1.66143 -0.66841,1.9443 -3.51081,3.59544 -5.33651,3.09997 z M 102.7,140.8252 c 0.42647,-0.89439 0.39684,-0.94175 -0.25607,-0.4089 -0.31188,0.25449 -0.70851,0.55174 -0.88142,0.66056 -0.17292,0.10889 -0.37469,0.45121 -0.44841,0.76092 l -0.13389,0.56304 0.70446,-0.4618 c 0.38747,-0.25399 0.8444,-0.75521 1.01542,-1.11382 z m 20.34208,18.94769 c -0.24482,-0.10188 -0.44514,-0.31452 -0.44514,-0.47236 0,-0.15796 -0.29571,-0.46977 -0.65714,-0.69315 -0.52489,-0.3244 -0.70407,-0.60941 -0.89028,-1.4161 -0.12828,-0.55545 -0.2325,-1.29248 -0.2318,-1.63785 0.002,-0.69742 0.47136,-1.7315 0.89472,-1.96841 0.33758,-0.18881 0.16029,-0.73507 -0.35976,-1.10885 -0.20913,-0.15025 -0.5079,-0.57896 -0.6641,-0.95273 -0.23475,-0.56188 -0.2407,-0.79917 -0.0343,-1.36983 0.16473,-0.45535 0.18179,-0.73704 0.0502,-0.82779 -0.31725,-0.21895 -1.47515,-2.0649 -1.59516,-2.54305 -0.10936,-0.43575 -0.882,-0.90719 -1.90437,-1.16208 -0.66716,-0.16637 -1.17224,-1.13182 -1.10606,-2.11448 0.0346,-0.51197 -0.0932,-0.86401 -0.48007,-1.3238 -0.28987,-0.34449 -0.72968,-1.06805 -0.97732,-1.60787 -0.24764,-0.53979 -0.50465,-0.98147 -0.5711,-0.98147 -0.0666,0 -0.37411,-0.40062 -0.6836,-0.89027 -0.30949,-0.48965 -0.63401,-0.89028 -0.72112,-0.89028 -0.0872,0 -0.15843,-0.13015 -0.15843,-0.28904 0,-0.1589 -0.15983,-0.44832 -0.35522,-0.64296 -0.61216,-0.60995 -0.85504,-1.37432 -0.52398,-1.64909 0.15703,-0.13039 0.28569,-0.34541 0.28569,-0.47783 0,-0.1423 0.23764,-0.22665 0.58117,-0.20609 0.38401,0.0234 1.03842,0.41483 1.92893,1.15544 1.62362,1.35029 1.51466,1.22449 2.812,3.24718 0.74975,1.16897 1.16776,1.63935 1.47293,1.65743 1.73297,0.10258 3.01987,0.53858 3.28078,1.11123 0.30281,0.66465 0.26181,1.4722 -0.11286,2.22333 -0.31582,0.63309 -0.30905,0.68013 0.24732,1.72093 0.31458,0.58852 0.70551,1.18239 0.86873,1.31967 0.41922,0.3526 1.43687,0.76813 1.2869,0.52544 -0.20937,-0.33888 0.30435,-0.22011 0.90824,0.20984 0.5365,0.382 0.57461,0.4972 0.57461,1.73652 0,0.87261 -0.10398,1.47578 -0.30341,1.76052 -0.41998,0.59964 -0.32431,1.83112 0.1423,1.83112 0.22011,0 0.39976,0.20329 0.48075,0.54407 0.071,0.29923 0.26341,0.69848 0.42735,0.88723 0.50316,0.57927 -0.0418,3.17779 -0.75944,3.62132 -0.10188,0.0631 -0.1853,0.27748 -0.1853,0.47663 0,0.9217 -1.48818,1.62822 -2.52244,1.19755 z m 6.65235,-8.792 c -1.02225,-0.69465 -1.4343,-1.68007 -1.30391,-3.11818 0.058,-0.63922 0.20983,-1.28816 0.33767,-1.4421 0.35917,-0.43278 0.0731,-0.998 -0.53014,-1.04793 -1.16404,-0.0963 -1.73192,-1.24419 -1.24681,-2.52018 0.18624,-0.48988 0.10422,-0.61398 -1.21687,-1.84289 -1.33982,-1.2462 -1.47075,-1.31903 -2.41533,-1.34349 -0.84478,-0.021 -1.068,-0.11287 -1.4482,-0.5896 -0.24722,-0.31005 -0.50507,-0.81678 -0.573,-1.12609 -0.075,-0.34183 -0.36828,-0.70731 -0.74762,-0.93191 -0.34326,-0.20329 -0.71313,-0.44444 -0.82195,-0.53596 -0.68177,-0.5734 -1.7261,-1.0441 -2.31655,-1.0441 -0.40353,0 -1.34668,-0.32664 -2.28488,-0.79136 -0.8787,-0.43523 -1.69061,-0.79134 -1.80421,-0.79134 -0.38796,0 -0.97113,-0.81104 -0.86764,-1.20671 0.27868,-1.06562 2.11862,-1.30963 3.41356,-0.45268 0.53875,0.35651 1.19708,0.56475 2.12252,0.67137 1.57962,0.18203 1.88063,0.28832 2.90447,1.02578 0.85195,0.61363 1.50355,0.72173 1.50355,0.24944 0,-0.51921 1.11334,-0.85735 2.04455,-0.621 1.25521,0.31861 1.7144,0.94874 1.7144,2.35262 0,1.0769 0.0666,1.25423 0.8408,2.23606 0.46245,0.58655 0.99463,1.12085 1.18259,1.18743 0.18787,0.0666 0.7083,0.42723 1.15628,0.8015 0.44799,0.37429 0.97008,0.68053 1.16016,0.68053 0.2372,0 0.42077,0.26381 0.58508,0.84081 0.4293,1.50767 0.8281,2.08569 1.52976,2.21732 0.7046,0.13225 1.58207,1.02694 1.77982,1.81489 0.20913,0.8334 -0.0337,2.31493 -0.57218,3.49128 -0.39932,0.87223 -0.72624,1.25872 -1.45652,1.72183 -1.14053,0.72329 -1.73604,0.74888 -2.6694,0.11473 z m 4.41665,-9.96591 c -0.36478,-0.34078 -0.71813,-0.97357 -0.91133,-1.63216 -0.51486,-1.75527 -0.91324,-2.3475 -1.72624,-2.56645 -0.83013,-0.22362 -1.35876,-1.08947 -1.35876,-2.22577 0,-0.51919 -0.12361,-0.77022 -0.50091,-1.01744 -0.27774,-0.18203 -0.44042,-0.42609 -0.36511,-0.54793 0.0851,-0.13786 0.0451,-0.1638 -0.10725,-0.0694 -0.14067,0.0869 -0.42434,-0.0163 -0.67355,-0.24306 -0.83653,-0.76418 -1.72706,-1.08538 -2.65605,-0.95806 -0.89168,0.12221 -1.59544,-0.10071 -1.88944,-0.59847 -0.1173,-0.19861 -0.70275,-0.26787 -2.26323,-0.26787 -1.15775,0 -2.6193,-0.10632 -3.24789,-0.23608 -0.98079,-0.20259 -1.29723,-0.1874 -2.23155,0.10726 -1.00295,0.31615 -1.1367,0.31834 -1.69841,0.0278 -0.7934,-0.41027 -0.91422,-0.77547 -0.52599,-1.58961 0.57978,-1.21582 2.57154,-1.75286 4.83108,-1.30259 0.62677,0.12502 2.60855,0.25484 4.40394,0.28875 l 3.26433,0.0617 1.48379,0.72285 c 0.81609,0.39754 1.73449,0.8809 2.04088,1.07412 0.53814,0.33933 0.56676,0.33821 0.84083,-0.0327 0.25857,-0.35004 0.38053,-0.28391 0.29872,0.16193 -0.0164,0.0956 0.15609,0.12454 0.38574,0.0645 0.66663,-0.17432 1.44297,0.20983 1.92568,0.95318 0.24581,0.37849 0.3554,0.68817 0.24352,0.68817 -0.33134,0 0.014,1.0295 0.57607,1.71681 0.35896,0.43906 0.69303,0.63391 1.10751,0.64599 0.74423,0.021 0.91112,0.12992 1.66512,1.07859 0.53341,0.67123 0.61003,0.92172 0.61003,1.99494 0,3.33934 -1.83938,5.27257 -3.52153,3.7012 z m -44.068598,-2.99646 c -0.22315,-0.0902 -0.57047,-0.52944 -0.77194,-0.97624 -0.20142,-0.44679 -0.43582,-0.81234 -0.52078,-0.81234 -0.0851,0 -0.21193,-0.18086 -0.28201,-0.40186 -0.0701,-0.22105 -0.51052,-0.58188 -0.97862,-0.80193 -0.49458,-0.2325 -1.17185,-0.80914 -1.61687,-1.37677 -0.60157,-0.76724 -0.85919,-0.95563 -1.20135,-0.87833 -1.74529,0.39415 -3.43052,-2.63213 -2.69022,-4.83096 0.22269,-0.66158 0.24133,-0.98475 0.0773,-1.34471 -0.33205,-0.72876 -0.26176,-1.1617 0.29629,-1.82492 0.46373,-0.55108 1.05977,-0.87359 0.78101,-0.42257 -0.0678,0.10983 0.15842,0.14184 0.55122,0.078 1.13504,-0.18413 2.77613,0.92796 3.25943,2.20886 0.12314,0.32643 0.26961,1.3302 0.32545,2.23057 0.10983,1.76944 0.21965,2.08083 1.05868,2.99947 0.52056,0.56996 0.57499,0.58602 0.99278,0.29339 1.10189,-0.77178 4.19172,0.30249 4.19172,1.45737 0,0.54458 1.03333,0.72986 1.85112,0.33194 0.98813,-0.48079 1.25322,-0.74794 1.3985,-1.40934 0.13622,-0.62022 0.70301,-1.30127 1.0286,-1.23596 0.0953,0.0187 0.46554,-0.0334 0.82293,-0.11683 0.58728,-0.13693 0.61581,-0.17502 0.29676,-0.39717 -0.19418,-0.13506 -1.10976,-0.34669 -2.03464,-0.47014 -1.35569,-0.18086 -1.83501,-0.33992 -2.473,-0.82006 -2.5509,-1.91983 -3.14516,-2.24905 -4.04488,-2.24084 -1.23874,0.0117 -1.63635,-0.41126 -1.74552,-1.85481 -0.0675,-0.89177 -0.21754,-1.3088 -0.68602,-1.90491 -1.22701,-1.5615 -1.89385,-3.43622 -2.49377,-7.01061 -0.22853,-1.36186 -0.0428,-2.26181 0.51839,-2.51125 0.24166,-0.10749 0.43934,-0.34772 0.43934,-0.53402 0,-0.18624 0.27274,-0.59364 0.60609,-0.90518 0.4964,-0.46393 0.75591,-0.55719 1.43432,-0.51541 0.45554,0.028 1.11761,0.0558 1.47124,0.0617 0.63219,0.0117 0.86946,0.18039 1.8049,1.29237 0.44506,0.529 0.45852,0.6242 0.25867,1.83034 -0.23227,1.40201 -0.83597,2.37633 -1.83523,2.96209 -0.55433,0.32499 -0.59646,0.42137 -0.48685,1.11399 0.0659,0.41705 0.34053,1.19336 0.60999,1.72517 0.40156,0.79239 0.68582,1.06279 1.57523,1.4983 1.23722,0.6058 1.78384,1.29286 1.7118,2.15161 -0.0444,0.5293 0.0858,0.68401 1.19762,1.42348 0.68607,0.45628 1.50131,1.053 1.81165,1.32599 0.34821,0.30632 0.91632,0.54333 1.48378,0.61899 0.50576,0.0675 1.17881,0.20562 1.49569,0.30676 0.31687,0.10117 0.620498,0.13973 0.674738,0.0855 0.13973,-0.13973 -0.573588,-0.89238 -0.845618,-0.89238 -0.4786,0 -2.42666,-1.68126 -2.59301,-2.23786 -0.0713,-0.23813 -0.39728,-1.01164 -0.7247,-1.7189 -0.82386,-1.77973 -0.90546,-1.99092 -1.04552,-2.70662 -0.0678,-0.34611 -0.24526,-0.73063 -0.39448,-0.85448 -0.44567,-0.36987 -0.52578,-1.226 -0.28879,-3.08642 0.12338,-0.96834 0.26666,-2.10834 0.31851,-2.53333 0.0519,-0.42502 0.25638,-1.19949 0.45458,-1.72108 0.35062,-0.92273 0.35029,-0.95748 -0.0117,-1.2858 -0.42736,-0.38675 -0.50596,-1.63084 -0.14628,-2.31696 0.68596,-1.30889 2.27553,-2.69827 2.75092,-2.40446 0.0879,0.0542 0.21661,-0.0808 0.28611,-0.30015 0.13015,-0.41027 0.84267,-0.90843 1.03054,-0.72053 0.0579,0.058 0.23956,-0.0285 0.40338,-0.19231 0.3209,-0.3209 1.161698,-0.30571 1.103428,0.021 -0.0187,0.10889 0.0918,0.26904 0.24729,0.35604 0.15562,0.0869 0.28271,0.27005 0.28271,0.4067 0,0.13669 0.21895,0.54538 0.48671,0.90819 0.3665,0.49678 0.43978,0.74734 0.29675,1.01463 -0.10444,0.19512 -0.18997,0.66941 -0.18997,1.05377 0,0.53615 -0.16263,0.86158 -0.69904,1.39787 -0.38447,0.38448 -0.87064,0.69904 -1.080408,0.69904 -0.7281,0 -1.43266,1.05368 -2.05048,3.06649 -0.40644,1.32422 -0.46266,1.76887 -0.22572,1.78583 0.72122,0.0516 1.72197,0.66759 1.66173,1.02277 -0.014,0.0874 -0.014,0.38155 0,0.65359 0.021,0.39518 0.065,0.43495 0.21824,0.19791 0.10539,-0.16333 0.19325,-0.51857 0.19488,-0.78968 0.005,-0.78689 1.924328,-4.45475 3.087478,-5.89961 0.58582,-0.72774 1.06627,-1.43444 1.06765,-1.57046 0.002,-0.13599 0.13786,-0.24729 0.30351,-0.24729 0.79949,0 3.26008,-2.0301 3.26008,-2.68975 0,-0.85017 0.42231,-1.56587 1.57927,-2.67661 1.05066,-1.0087 1.26496,-1.12605 2.2905,-1.25417 1.06997,-0.13366 1.15941,-0.11122 1.64787,0.41432 1.09195,1.17488 1.19554,1.73863 0.70316,3.82771 -0.2522,1.07003 -0.43944,1.406 -1.13465,2.03594 -0.94785,0.85885 -1.61784,1.09684 -2.15082,0.764 -0.42971,-0.26836 -1.24984,-0.11309 -1.921,0.36371 -0.33284,0.23647 -0.48276,0.55281 -0.51519,1.087 -0.0573,0.94341 -0.61793,1.4034 -1.92119,1.57629 -0.66593,0.0883 -0.95201,0.21685 -0.95201,0.4279 0,0.18529 0.0953,0.24673 0.24731,0.15936 0.14371,-0.0827 0.17829,-0.0668 0.0825,0.0379 -0.0907,0.0991 -0.26874,0.18226 -0.3957,0.18483 -0.12688,0.002 -0.21847,0.15843 -0.20329,0.34623 0.014,0.18787 -0.0327,0.34143 -0.10608,0.34143 -0.0734,0 -0.14254,0.15586 -0.15352,0.34623 -0.0117,0.19044 -0.0741,0.81849 -0.13997,1.39572 -0.0771,0.67378 -0.0498,1.00601 0.0764,0.92806 0.10796,-0.0668 0.19652,0.0164 0.19652,0.18693 0,0.16964 0.0806,0.30844 0.17922,0.30844 0.35552,0 -0.0472,0.82973 -0.50353,1.0377 -0.33333,0.15188 -0.47437,0.38793 -0.49239,0.82407 -0.0628,1.52101 -0.33589,2.88636 -0.57723,2.88636 -0.10398,0 -0.1888,0.17268 -0.1888,0.38401 0,0.21123 -0.089,0.43901 -0.19792,0.50626 -0.24974,0.15422 -0.26007,0.69243 -0.014,0.69243 0.10142,0 0.24103,-0.17806 0.31011,-0.39567 0.0692,-0.21754 0.23806,-0.39567 0.37557,-0.39567 0.1374,0 0.3745,-0.24484 0.52671,-0.54407 0.15212,-0.29924 0.47881,-0.81954 0.72586,-1.15624 0.24704,-0.33671 0.44916,-0.67544 0.44916,-0.75276 0,-0.0773 0.35043,-0.65658 0.77872,-1.28729 0.62378,-0.91855 0.75881,-1.27319 0.6786,-1.78219 -0.0551,-0.34949 -0.002,-0.75208 0.11496,-0.89464 0.11824,-0.14254 0.1617,-0.39859 0.0963,-0.569 -0.0734,-0.19091 0.0393,-0.40857 0.29332,-0.56726 0.22666,-0.1416 0.41224,-0.35473 0.41224,-0.47364 0,-0.11894 0.11123,-0.22035 0.24731,-0.22526 1.16236,-0.0428 2.02153,-0.27334 2.19031,-0.58786 0.299,-0.55718 2.64068,-2.72367 3.70279,-3.42575 0.0822,-0.0545 0.18109,-0.32148 0.21942,-0.59352 0.0818,-0.57933 0.64165,-0.97231 1.39917,-0.98217 0.2959,-0.005 0.89878,-0.19511 1.33978,-0.42493 0.44098,-0.22993 1.26172,-0.52005 1.8238,-0.64487 0.8874,-0.19698 1.08104,-0.33095 1.47001,-1.01641 0.47574,-0.8384 0.58832,-1.07775 0.89445,-1.90138 0.21685,-0.58316 0.79309,-0.90282 1.96594,-1.09036 1.79817,-0.28755 3.34481,0.88553 3.34269,2.53529 -0.002,1.36053 -0.3623,2.30553 -1.19876,3.14199 -0.71909,0.71909 -0.86235,0.77854 -1.87647,0.77854 -0.61801,0 -1.36464,-0.13787 -1.70809,-0.31553 -0.56078,-0.29 -0.7,-0.28862 -1.72124,0.0164 -0.61114,0.18296 -1.1818,0.34847 -1.26816,0.36786 -0.0865,0.0187 0.0163,0.22222 0.23016,0.45077 0.27923,0.29973 0.36765,0.62488 0.3173,1.16677 -0.10352,1.11355 -0.63773,1.53424 -2.08086,1.63862 -1.02498,0.0741 -1.3026,0.021 -1.80525,-0.35153 l -0.59398,-0.43915 -0.52704,0.45628 c -0.28988,0.25094 -1.02947,0.97907 -1.64352,1.61806 -1.03564,1.07762 -1.10922,1.21591 -1.01627,1.90913 0.0902,0.67236 0.0315,0.7997 -0.58379,1.2691 -0.37623,0.28696 -0.8717,0.52175 -1.10105,0.52175 -0.27533,0 -0.6352,0.31917 -1.05956,0.93974 -0.35342,0.51685 -0.88123,1.18077 -1.1729,1.47538 -1.16488,1.17663 -2.27428,3.91571 -1.58597,3.91571 0.0981,0 0.49367,-0.47467 0.87878,-1.05485 0.38508,-0.58017 1.1266,-1.40368 1.64782,-1.83001 0.52125,-0.42633 1.50452,-1.33964 2.18508,-2.02957 0.96654,-0.97984 1.19862,-1.32693 1.06024,-1.5855 -0.20049,-0.37455 0.14511,-1.36787 0.61032,-1.75389 0.15982,-0.13272 0.81895,-0.29732 1.46465,-0.36585 0.64569,-0.0685 1.39656,-0.27959 1.6686,-0.46895 0.57096,-0.39749 2.97715,-1.33331 4.8965,-1.90432 0.136,-0.0404 0.24729,-0.28909 0.24729,-0.55248 0,-0.2634 0.16614,-0.68393 0.36896,-0.93454 0.51335,-0.63394 2.14117,-0.6459 2.98515,-0.021 0.32267,0.23856 0.68119,0.43374 0.79672,0.43374 0.11543,0 0.30879,0.21661 0.42938,0.48128 0.12946,0.28412 0.59375,0.63955 1.13336,0.86761 1.62261,0.68586 1.68514,0.6868 2.07235,0.0313 0.94865,-1.60595 3.04098,-1.61233 4.56423,-0.014 0.47208,0.49538 0.59046,0.81036 0.64224,1.70907 0.0731,1.26854 -0.21568,1.96783 -1.13013,2.73735 -0.7759,0.65287 -1.4772,0.65639 -2.42522,0.0117 -0.53858,-0.36597 -0.86602,-0.46472 -1.18348,-0.35688 -0.63873,0.21684 -0.9428,0.10912 -1.75005,-0.62015 -1.01734,-0.91911 -1.41189,-0.99688 -2.46676,-0.48624 -1.20956,0.58555 -2.53936,0.45824 -3.19676,-0.30606 -0.53206,-0.61854 -0.72481,-0.59803 -2.69667,0.28669 -1.2643,0.56725 -1.53435,0.83662 -1.10482,1.10209 0.35814,0.22128 -0.021,1.54985 -0.57078,2.00188 -0.29678,0.24385 -0.92899,0.47196 -1.49312,0.53879 -0.53808,0.0638 -1.06977,0.20726 -1.18147,0.31895 -0.11169,0.1117 -0.37555,0.20306 -0.58636,0.20306 -0.55952,0 -2.49073,1.64294 -4.82547,4.10517 -1.43222,1.5104 -1.95996,1.73103 -2.73625,1.14385 -0.49421,-0.3738 -0.68079,-0.37553 -0.68079,-0.007 0,0.16333 -0.078,0.29676 -0.17361,0.29676 -0.0953,0 -0.12735,0.40983 -0.0708,0.91074 0.072,0.63945 0.0236,0.9596 -0.16286,1.0748 -0.14908,0.0921 -0.25669,0.47343 -0.24542,0.87022 0.0117,0.38841 -0.0617,0.75667 -0.16147,0.81836 -0.0998,0.0617 -0.13459,0.18786 -0.0776,0.28049 0.0573,0.0925 -0.1194,0.34405 -0.39246,0.55884 -0.59296,0.46645 -0.62516,0.63036 -0.12385,0.63036 0.24774,0 0.40686,0.17899 0.47477,0.53424 0.0799,0.4177 -0.0407,0.67689 -0.55192,1.18827 -0.35971,0.35973 -0.9193,0.70708 -1.24354,0.77194 -0.35858,0.0717 -0.67429,0.30389 -0.80589,0.59272 -0.11894,0.26118 -0.48241,0.63666 -0.80761,0.83441 -0.74128,0.45079 -2.351068,0.54458 -2.867348,0.16707 -0.31557,-0.23086 -0.48634,-0.23565 -0.9879,-0.0283 -0.79723,0.32954 -2.77116,0.49399 -3.48207,0.29012 -0.47267,-0.13553 -0.61312,-0.0858 -0.87175,0.30891 -0.16964,0.25878 -0.46408,0.55096 -0.65452,0.64927 -0.55889,0.28858 -1.69849,0.41599 -2.13671,0.2389 z m 11.781338,-12.89803 c 0,-0.19277 -0.17782,-0.80143 -0.39495,-1.35254 -0.21731,-0.55108 -0.45432,-1.77454 -0.52689,-2.71879 -0.14464,-1.88109 -0.10235,-1.89222 -0.925228,0.24395 -0.44133,1.14584 -0.59513,2.89832 -0.30938,3.52546 0.23063,0.5061 0.879498,0.88394 1.114518,0.64894 0.18437,-0.18436 0.65327,0.29889 0.53048,0.54669 -0.0612,0.12361 0.0287,0.0521 0.20002,-0.15913 0.17127,-0.21123 0.31145,-0.54178 0.31145,-0.73455 z m -3.561098,-4.4351 c 0,-0.17105 0.2311,-0.70524 0.51339,-1.18703 0.28239,-0.48185 0.42544,-0.87607 0.31793,-0.87607 -0.10748,0 -0.24888,0.13926 -0.31414,0.3093 -0.0664,0.17315 -0.21988,0.24678 -0.34849,0.16731 -0.14651,-0.0904 -0.17619,-0.0554 -0.0822,0.097 0.0857,0.1388 -0.021,0.38581 -0.25669,0.58957 -0.27103,0.23507 -0.36725,0.49252 -0.29185,0.78085 0.12969,0.49558 0.46203,0.58131 0.46203,0.11917 z m 0.3957,-11.95502 c 0,-0.21755 -0.0753,-0.39567 -0.16708,-0.39567 -0.0918,0 -0.32832,0.17805 -0.52526,0.39567 -0.34954,0.38623 -0.34555,0.39567 0.16707,0.39567 0.39336,0 0.52527,-0.0993 0.52527,-0.39567 z m 24.531968,-1.47758 c 0,-0.35284 -0.0823,-0.45679 -0.29676,-0.37452 -0.33852,0.12992 -0.33821,0.12898 -0.17665,0.54996 0.18389,0.4793 0.47343,0.37202 0.47343,-0.17548 z m -12.18696,-0.0729 c 0.23857,-0.38604 0.46093,-1.82252 0.29771,-1.92339 -0.0963,-0.0596 -0.33187,0.2304 -0.5233,0.64415 -0.19137,0.41383 -0.4148,0.78211 -0.49642,0.81838 -0.0815,0.0362 -0.14838,0.19207 -0.14838,0.34622 0,0.29945 0.69923,0.39156 0.87039,0.11473 z m 22.57348,22.62211 c -0.43523,-0.161 -0.81304,-0.29395 -0.83957,-0.29557 -0.0264,-0.002 -0.30827,-0.36199 -0.62618,-0.80082 -0.38945,-0.53765 -0.65826,-1.24737 -0.82426,-2.17622 -0.15235,-0.85202 -0.34216,-1.3784 -0.49727,-1.3784 -0.29659,0 -0.87272,0.53841 -0.87272,0.81559 0,0.35377 -1.27487,0.73484 -2.17891,0.65125 -0.67004,-0.0619 -0.99647,-0.21544 -1.33174,-0.62608 -0.2443,-0.29919 -0.44598,-0.67755 -0.44817,-0.84076 -0.009,-0.68386 -0.31326,-0.83955 -1.35857,-0.69577 -0.70117,0.0965 -1.01344,0.22993 -1.01344,0.4328 0,0.16146 -0.27094,0.56435 -0.60209,0.8955 -0.55489,0.55487 -0.68649,0.59509 -1.67893,0.51279 -0.78757,-0.0654 -1.17764,-0.20563 -1.45227,-0.52223 -0.43298,-0.49923 -0.57243,-0.46626 -2.83737,0.67042 -1.81586,0.91133 -4.59335,1.62098 -4.83213,1.23461 -0.0615,-0.0996 -0.22222,-0.13857 -0.3571,-0.0869 -0.8498,0.32611 -1.09333,-1.43712 -0.2779,-2.01206 0.25533,-0.17993 0.53099,-0.33908 0.61261,-0.3535 0.0815,-0.014 0.17058,-0.0435 0.19792,-0.0645 0.0271,-0.021 0.30024,-0.0713 0.60676,-0.11146 0.3065,-0.0402 1.15226,-0.3766 1.87946,-0.74743 0.72717,-0.37081 1.92308,-0.88235 2.65757,-1.13679 1.22963,-0.42591 1.33541,-0.50739 1.33541,-1.02847 0,-0.73577 0.79492,-1.53723 1.52424,-1.53681 0.53596,0 1.30987,0.34737 2.26597,1.01625 0.39894,0.27909 0.65576,0.29463 1.84819,0.11169 0.92883,-0.14254 1.46966,-0.33017 1.64231,-0.56992 0.46318,-0.64307 0.93449,-0.77528 1.66932,-0.46822 0.37217,0.15539 0.79602,0.42652 0.94189,0.6023 0.14581,0.17572 0.56169,0.44804 0.924,0.60497 0.3623,0.15679 0.97077,0.42025 1.35218,0.58515 0.46991,0.20329 0.6772,0.22596 0.64299,0.071 -0.0278,-0.12594 0.21661,-0.38884 0.54302,-0.58431 0.54797,-0.32811 0.7056,-0.33393 2.05452,-0.0757 0.80356,0.15375 1.53695,0.23273 1.62981,0.17525 0.0928,-0.0575 0.41375,0.12291 0.71318,0.40048 0.29944,0.27767 0.59779,0.50482 0.66305,0.50482 0.0652,0 0.22339,0.24481 0.35146,0.54404 0.22362,0.52234 0.21988,0.52826 -0.0937,0.14838 l -0.3266,-0.39567 0.14791,0.39567 c 0.0813,0.21755 0.19278,0.55148 0.24753,0.7419 0.0547,0.19044 0.17548,0.34622 0.26809,0.34622 0.0928,0 0.1201,-0.15585 0.061,-0.34622 -0.0883,-0.28377 -0.0734,-0.29269 0.0825,-0.0495 0.27012,0.42163 -0.0423,2.40112 -0.54171,3.43286 -0.4758,0.98285 -1.72083,2.06964 -2.52936,2.20785 -0.30323,0.0519 -0.90743,-0.0374 -1.34268,-0.19838 z m 0.84997,-3.67947 c 0.0423,-0.4904 -0.0678,-0.81557 -0.39569,-1.16855 l -0.45428,-0.48907 -0.0685,0.48271 c -0.0963,0.67841 0.33903,2.02541 0.62433,1.93176 0.12969,-0.0425 0.26197,-0.38312 0.29419,-0.75685 z"
       id="path836"
       sodipodi:nodetypes="sssssssscscssssssscssssscscssccsscscscsssscsscsscssssssssssssscssssscsssssssssscsssssssssssssssssssssssssscsssscssssssssssssssscssssssscssssssssssssssssscsssssssssssssssssssscssscsssssssssssssssssssssssssssssssccssssssssscssscsssscssssssssssssssscssssssscsssscssssssscssssssssssssssssssssccsssscssssssssscccsscssssssssssssssccsccsssssssssssssssscssscssccssssscssscccssccsssssssssssssssssccssssssscsssssssssssssscscscssssssssssssssscsssssssssssssscssssssssssssssssssssscsssssssssssssscscssssscssssssssssssssscssscssssssscssss" />
  </g>
</svg>
