<?xml version="1.0" encoding="UTF-8" standalone="no"?>
<!-- Created with Inkscape (http://www.inkscape.org/) -->

<svg
   width="96.554825mm"
   height="91.013138mm"
   viewBox="0 0 96.554825 91.013138"
   version="1.1"
   id="svg5"
   inkscape:version="1.1.1 (c3084ef, 2021-09-22)"
   sodipodi:docname="signature copy 10.svg"
   xmlns:inkscape="http://www.inkscape.org/namespaces/inkscape"
   xmlns:sodipodi="http://sodipodi.sourceforge.net/DTD/sodipodi-0.dtd"
   xmlns="http://www.w3.org/2000/svg"
   xmlns:svg="http://www.w3.org/2000/svg">
  <sodipodi:namedview
     id="namedview7"
     pagecolor="#ffffff"
     bordercolor="#666666"
     borderopacity="1.0"
     inkscape:pageshadow="2"
     inkscape:pageopacity="0.0"
     inkscape:pagecheckerboard="0"
     inkscape:document-units="mm"
     showgrid="false"
     inkscape:zoom="0.51580387"
     inkscape:cx="-618.45213"
     inkscape:cy="192.90278"
     inkscape:window-width="2560"
     inkscape:window-height="1387"
     inkscape:window-x="0"
     inkscape:window-y="25"
     inkscape:window-maximized="1"
     inkscape:current-layer="layer1" />
  <defs
     id="defs2" />
  <g
     inkscape:label="Layer 1"
     inkscape:groupmode="layer"
     id="layer1"
     transform="translate(-110.8822,-132.3933)">
    <path
       style="fill:#000000;stroke-width:0.233161"
       d="m 164.33879,222.95716 c -0.72669,-0.4431 -1.21806,-1.59439 -0.90013,-2.10886 0.0812,-0.13136 0.038,-0.23876 -0.0961,-0.23876 -0.13411,0 -0.77125,-1.10169 -1.41584,-2.44819 -0.64463,-1.34651 -1.27516,-2.44819 -1.40117,-2.44819 -0.12585,0 -0.88529,0.22857 -1.6873,0.50825 -1.35074,0.47077 -1.89306,0.53095 -3.07241,0.34087 -0.24675,-0.0396 -0.8675,0.006 -1.37972,0.098 -0.60637,0.11098 -1.33097,0.0515 -2.07663,-0.16991 l -1.14531,-0.34013 -1.20553,1.12126 c -0.66305,0.6167 -1.97629,1.93016 -2.91828,2.91877 -1.58292,1.66128 -1.76851,1.78696 -2.44819,1.65839 -0.40452,-0.0766 -0.84037,-0.21123 -0.96862,-0.29965 -0.12833,-0.0884 -0.81022,-0.39741 -1.51554,-0.68693 -0.70532,-0.28949 -1.70208,-0.70086 -2.21502,-0.91412 -0.97798,-0.40663 -5.5765,-2.67337 -6.17877,-3.0457 -0.1925,-0.11896 -1.18912,-0.71765 -2.21502,-1.33056 -2.55568,-1.52677 -2.74211,-1.76644 -2.58371,-3.32133 0.0911,-0.89594 0.35632,-1.60162 0.92153,-2.45326 0.43638,-0.65751 1.1122,-1.85374 1.50188,-2.6582 l 0.7084,-1.46266 -1.3242,-0.66845 c -0.92516,-0.46702 -2.04411,-1.41397 -3.71318,-3.14235 -1.31395,-1.36064 -2.38898,-2.5923 -2.38898,-2.73699 0,-0.18313 -0.37252,-0.2126 -1.2241,-0.0972 -2.11948,0.28739 -3.70816,0.39606 -6.39228,0.43712 l -2.60337,0.0399 -0.62389,-0.69948 c -1.18323,-1.3266 -1.55296,-2.76147 -1.01546,-3.94109 0.21205,-0.46549 0.18699,-0.74716 -0.1253,-1.40506 -1.005,-2.11783 -1.12879,-2.78956 -1.21071,-6.57004 -0.0449,-2.06554 -0.17157,-4.00661 -0.2815,-4.31347 -0.39816,-1.1102 -0.33424,-2.65435 0.13383,-3.23236 0.39439,-0.48704 0.67415,-0.55686 2.52137,-0.62909 1.14277,-0.0446 2.31382,-0.0914 2.60237,-0.10382 0.28853,-0.0138 0.52462,-0.10602 0.52462,-0.20764 0,-0.10162 0.4459,-0.41688 0.99092,-0.70034 0.54502,-0.28345 1.04358,-0.59905 1.10788,-0.70133 0.0644,-0.10217 0.48402,-0.28552 0.93266,-0.40718 0.5286,-0.14321 0.78132,-0.33562 0.71807,-0.54629 -0.25529,-0.85023 0.0989,-2.44376 0.97911,-4.40542 0.88173,-1.96491 2.03302,-5.44247 2.03302,-6.14088 0,-0.74787 -0.51534,-1.72841 -2.50525,-4.76692 -1.15118,-1.7578 -1.25257,-2.01754 -1.12992,-2.89449 0.0741,-0.52987 0.29282,-1.13803 0.48601,-1.35151 0.19332,-0.21343 0.35122,-0.49567 0.35122,-0.62717 0,-0.13136 0.23601,-0.50448 0.52462,-0.82891 0.28855,-0.32444 0.9443,-1.19202 1.45726,-1.92796 0.51297,-0.73594 1.03758,-1.45776 1.1658,-1.60402 0.12833,-0.14623 0.59109,-0.78918 1.02857,-1.42865 0.43745,-0.63948 1.81133,-2.15945 3.05302,-3.37771 1.85658,-1.82152 2.28816,-2.37807 2.42933,-3.13288 0.16991,-0.90842 1.28749,-2.78138 1.987,-3.32993 0.48415,-0.37964 1.79825,-0.37604 1.94459,0.006 0.0642,0.16744 0.54488,0.44552 1.06814,0.61822 0.52326,0.17267 1.14578,0.49509 1.38338,0.71645 0.23766,0.22141 0.64474,0.47 0.90476,0.55253 0.25996,0.0826 0.77659,0.45968 1.14792,0.83809 0.3713,0.37846 0.79091,0.69097 0.93249,0.69455 0.14155,0.003 0.53634,0.26492 0.87727,0.58093 0.57269,0.53078 1.19592,0.58063 1.54668,0.12365 0.27098,-0.3528 4.33407,-2.33033 4.78813,-2.33033 0.20048,0 0.6728,-0.15945 1.0495,-0.3542 0.8488,-0.43894 1.82604,-2.4711 4.0063,-8.33106 0.21012,-0.56512 0.4263,-0.72994 0.89584,-0.68343 0.0719,0.008 0.51266,-0.0732 0.97924,-0.17845 0.46659,-0.1052 0.91418,-0.12558 0.9947,-0.0449 0.14871,0.14871 1.05955,0.18011 10.36923,0.35792 2.88537,0.0551 5.59212,0.10933 6.015,0.12062 0.51776,0.0138 0.95887,0.22527 1.35042,0.64779 0.53615,0.57851 0.57021,0.74677 0.43684,2.15675 -0.18864,1.99268 -0.29276,6.34362 -0.16082,6.71713 0.0565,0.16028 0.39956,0.29147 0.76221,0.29147 0.68153,0 1.87085,0.37423 2.08394,0.65578 0.0666,0.0881 1.03102,0.61929 2.1429,1.18034 l 2.02153,1.02006 0.6598,-0.46838 c 0.3629,-0.25749 1.39426,-0.8627 2.29194,-1.34466 1.8048,-0.96898 3.1361,-1.8468 4.19689,-2.76723 0.38472,-0.33385 0.86703,-0.60709 1.07184,-0.60725 0.45612,0 1.37635,0.76745 1.37635,1.14833 0,0.15284 0.10107,0.21536 0.22472,0.13907 0.12365,-0.0763 0.45141,0.0879 0.72854,0.36503 0.41913,0.41914 0.48253,0.68519 0.377,1.58235 l -0.12695,1.07847 1.17488,0.69948 c 1.10273,0.65655 3.68399,3.22093 3.68399,3.65995 0,0.24592 1.07002,1.4506 2.9145,3.28112 2.02889,2.0135 2.32077,2.26881 2.59387,2.26881 0.36395,0 0.78698,1.07288 0.78698,1.99597 0,0.99054 -0.26796,1.44997 -1.70333,2.91924 -0.61623,0.63083 -1.06547,1.14696 -0.99825,1.14696 0.13164,0 -1.47775,2.83784 -1.71905,3.03111 -0.0801,0.0642 -0.28948,0.56355 -0.46534,1.10989 -0.24069,0.74762 -0.25611,1.12253 -0.0625,1.51556 0.14155,0.2872 0.48416,1.20421 0.76167,2.03776 0.27748,0.83354 0.59365,1.72538 0.70259,1.98187 0.38857,0.91465 0.60723,2.11503 0.58269,3.19893 -0.0281,1.24805 -0.11841,1.199 2.69467,1.46522 3.06827,0.29034 4.15724,0.90751 4.16729,2.36177 0.002,0.29852 0.18891,0.54588 0.46695,0.61863 0.4998,0.13081 0.96313,1.09224 0.97897,2.03162 0.0165,1.00813 -0.73192,6.23195 -1.07748,7.51531 -0.18176,0.67552 -0.74646,2.39438 -1.25466,3.81972 -0.5082,1.42532 -0.9971,3.05162 -1.08643,3.61399 -0.28417,1.78847 -1.08269,3.69181 -1.74739,4.16509 -0.6566,0.46758 -1.04944,0.4697 -3.62112,0.0193 -0.76943,-0.13467 -2.51852,-0.24565 -3.88689,-0.2462 l -2.48799,-0.002 -0.15504,0.70571 c -0.48669,2.21595 -2.25539,3.91611 -5.76938,5.54585 -1.41935,0.65826 -2.10286,1.11105 -2.24614,1.48789 -0.31281,0.82277 -0.45147,4.79509 -0.22031,6.313 0.33316,2.18809 -0.52872,3.14035 -3.53737,3.90826 -1.39803,0.35682 -2.06992,0.64722 -6.17875,2.67071 -5.75292,2.83309 -8.01795,3.85054 -8.57005,3.84963 -0.2878,0 -0.85425,-0.20268 -1.25876,-0.44938 z m 3.88321,-4.6793 c 0.50272,-0.25638 1.04939,-0.46697 1.21481,-0.46777 0.16551,0 0.5822,-0.14816 0.92621,-0.32777 0.34401,-0.17955 0.94733,-0.39702 1.34067,-0.48341 0.39336,-0.0865 0.7152,-0.23821 0.7152,-0.33718 0,-0.0991 0.76068,-0.52536 1.69041,-0.94734 3.50595,-1.59115 4.56493,-2.13587 4.89939,-2.52009 0.22058,-0.25363 0.40228,-1.19171 0.50539,-2.61075 0.0884,-1.21828 0.20626,-2.82393 0.26189,-3.56813 0.10134,-1.35664 0.41492,-2.2609 0.7843,-2.2609 0.10878,0 0.61723,-0.41969 1.13019,-0.93266 0.51296,-0.51293 1.07354,-0.93262 1.24577,-0.93262 0.41872,0 3.26088,-1.12598 3.71893,-1.47332 0.19966,-0.15147 0.60591,-0.7807 0.90258,-1.39831 0.58388,-1.21545 1.95693,-2.31622 2.88912,-2.31622 0.4548,0 0.53981,-0.11153 0.50687,-0.66553 -0.049,-0.82401 0.53153,-2.07411 0.96322,-2.07411 0.17625,0 0.32069,-0.0788 0.32075,-0.17487 1.9e-4,-0.22086 4.26885,-0.1969 6.3502,0.0358 1.50587,0.16827 1.57885,0.15312 1.7719,-0.36728 0.1107,-0.29855 0.65971,-1.95927 1.21999,-3.69049 0.56027,-1.73122 1.08783,-3.20013 1.17238,-3.26427 0.13824,-0.10492 0.22912,-0.55584 0.58756,-2.9145 0.0584,-0.38472 0.15064,-0.85687 0.20489,-1.04923 0.0542,-0.19249 0.15477,-0.97388 0.22389,-1.73675 0.0688,-0.76282 0.18093,-1.562 0.24867,-1.77595 0.10685,-0.33641 -0.27899,-0.44221 -2.85521,-0.78306 -1.63828,-0.21673 -3.53908,-0.39824 -4.22408,-0.4033 -1.19061,-0.008 -1.25987,-0.0438 -1.57383,-0.79527 -0.36051,-0.86281 -0.43646,-2.10569 -0.1399,-2.28898 0.10382,-0.0642 0.17652,-1.14572 0.16193,-2.40364 -0.022,-1.84853 -0.12475,-2.48561 -0.53827,-3.32188 -0.28139,-0.56909 -0.51165,-1.18929 -0.51165,-1.37817 0,-0.18892 -0.29967,-0.61511 -0.66594,-0.94714 -0.77989,-0.707 -1.07866,-1.24651 -1.28107,-2.31323 -0.15642,-0.82489 0.0567,-1.39384 0.90385,-2.41299 0.28582,-0.34382 0.74754,-1.07828 1.02606,-1.63214 0.57149,-1.13649 0.79747,-1.52165 1.70751,-2.91048 0.35266,-0.53813 0.64121,-1.08552 0.64121,-1.21633 0,-0.13081 0.17873,-0.3379 0.39717,-0.46014 0.42517,-0.23794 0.55705,-0.0408 -1.90899,-2.85425 -0.38265,-0.4366 -1.27953,-1.55434 -1.99308,-2.48391 -1.2225,-1.59259 -3.17976,-3.2551 -4.84775,-4.11764 -0.40735,-0.21067 -0.74063,-0.474 -0.74063,-0.58523 0,-0.56143 -0.8752,-0.40437 -2.29152,0.41127 -0.8556,0.49269 -1.73111,0.95829 -1.94558,1.03463 -0.21453,0.0763 -0.42432,0.37862 -0.46631,0.6718 -0.10878,0.75985 -1.03094,1.16233 -2.4344,1.06261 -0.94763,-0.0672 -1.40196,-0.25501 -2.21502,-0.9153 -0.56256,-0.45687 -1.70483,-1.17095 -2.53838,-1.58687 -0.83354,-0.41589 -1.77784,-0.93975 -2.09844,-1.16417 -0.36131,-0.2528 -1.16803,-0.44447 -2.12205,-0.50393 -1.33197,-0.0829 -1.62278,-0.18616 -2.16041,-0.76626 -0.44679,-0.48212 -0.57631,-0.80697 -0.4612,-1.15693 0.0881,-0.26768 0.14926,-1.56376 0.13632,-2.8803 -0.0138,-1.31652 0.0479,-2.34927 0.13494,-2.29505 0.0873,0.0542 0.12282,-0.46722 0.079,-1.1588 -0.0796,-1.25675 -0.0801,-1.25758 -1.04477,-1.51733 -0.53078,-0.14292 -1.36055,-0.20681 -1.84393,-0.14182 -0.49372,0.0661 -0.82192,0.0248 -0.74892,-0.0925 0.0713,-0.11566 -0.14513,-0.10575 -0.48146,0.022 -0.89071,0.33864 -2.99409,0.28472 -5.12767,-0.13136 -1.22578,-0.23904 -2.3691,-0.31223 -3.3348,-0.21315 l -1.46952,0.15064 -0.58721,1.32081 c -0.32297,0.72641 -0.91076,1.94299 -1.30616,2.70342 -0.47168,0.90712 -0.75035,1.82493 -0.81019,2.66864 -0.087,1.22649 -0.45023,2.27373 -1.06853,3.08072 -0.36092,0.47111 -5.42603,2.16956 -5.7932,1.94261 -0.16138,-0.0997 -0.21315,-0.07 -0.12531,0.0721 0.0824,0.13329 -0.18423,0.38037 -0.59197,0.54932 -0.4079,0.16881 -1.24431,0.75362 -1.85867,1.2993 -2.09977,1.86489 -2.34503,1.85622 -4.51205,-0.15973 -0.79925,-0.7436 -1.8067,-1.53332 -2.23876,-1.75498 -0.43202,-0.22169 -1.03573,-0.59806 -1.34154,-0.83641 -0.82286,-0.64129 -1.0703,-0.54827 -1.87429,0.70461 -0.40159,0.62587 -1.04206,1.46431 -1.42325,1.86318 -0.38117,0.39887 -0.69304,0.83107 -0.69304,0.96047 0,0.12943 -0.11236,0.23518 -0.24978,0.23518 -0.41792,0 -2.51362,2.14193 -3.30784,3.38084 -0.41101,0.64119 -0.82792,1.20077 -0.9264,1.24351 -0.0986,0.0427 -0.179,0.18011 -0.179,0.30544 0,0.1253 -0.36723,0.70868 -0.81608,1.29649 -0.83409,1.09235 -1.05091,2.02751 -0.51756,2.23218 0.16413,0.0631 0.50517,0.52012 0.75778,1.01587 0.25253,0.49573 0.51192,0.95381 0.57625,1.01792 0.0644,0.0642 0.46994,0.52755 0.90137,1.02981 l 0.78444,0.91329 -0.16579,2.1177 c -0.0911,1.16472 -0.24261,2.17021 -0.33655,2.2344 -0.0939,0.0642 -0.49713,0.90363 -0.89589,1.86542 -0.39876,0.96179 -1.04638,2.45464 -1.43914,3.31742 -0.39281,0.86282 -0.71422,1.78297 -0.71422,2.04481 0,0.7629 -1.12986,2.33952 -1.91237,2.66852 -0.55843,0.23491 -0.64438,0.34831 -0.3843,0.50762 0.6015,0.36842 0.98814,2.02258 0.68643,2.93684 -0.30645,0.92855 -1.02832,1.32362 -4.77557,2.61373 l -2.30546,0.79372 0.0468,3.76699 0.0468,3.76699 0.84389,1.61553 0.8439,1.61556 1.64797,-0.0165 c 0.90638,-0.008 2.22504,-0.11951 2.93036,-0.24509 3.19028,-0.56719 2.85976,-0.63832 4.41988,0.95113 0.77502,0.78962 1.40913,1.58334 1.40913,1.76383 0,0.55377 2.49492,3.04005 3.67008,3.65738 0.61034,0.32064 1.50317,0.81856 1.98408,1.10651 0.48088,0.28794 0.87436,0.40892 0.87436,0.26878 0,-0.14018 0.18451,-0.22665 0.41021,-0.19222 0.52194,0.0796 1.49263,0.75183 1.32616,0.9183 -0.0691,0.0694 0.12309,0.18864 0.42784,0.26492 0.30458,0.0766 0.67442,0.4038 0.82189,0.72749 0.3295,0.72312 -0.32961,2.7192 -2.09864,6.35577 -1.27934,2.62989 -1.27879,2.63735 0.25941,3.43273 0.42578,0.22031 1.27259,0.75839 1.88172,1.19603 0.60916,0.43762 1.16607,0.7957 1.23754,0.7957 0.0716,0 0.95082,0.38001 1.95403,0.84445 1.00321,0.46444 2.19252,0.89459 2.64286,0.9559 0.74016,0.10079 0.94943,-0.0138 2.17771,-1.19419 0.74737,-0.7181 1.45434,-1.30564 1.57105,-1.30564 0.11677,0 0.21233,-0.13962 0.21233,-0.31022 0,-0.17047 0.45835,-0.6394 1.0186,-1.04174 0.85312,-0.61265 1.13002,-0.69956 1.70448,-0.5348 0.3772,0.10823 1.09921,0.14926 1.60443,0.0914 1.20016,-0.13769 1.3535,-0.13577 3.09794,0.0383 1.33116,0.13274 1.63249,0.0763 2.99896,-0.5632 0.83553,-0.39099 1.77487,-0.71088 2.08744,-0.71088 0.31256,0 0.87187,-0.15697 1.24293,-0.34886 0.47851,-0.2473 0.93262,-0.29651 1.56224,-0.16881 0.803,0.16303 0.9692,0.33473 1.74273,1.80125 0.47031,0.89165 0.81066,1.69305 0.75633,1.78093 -0.0543,0.0879 -0.0138,0.19497 0.0923,0.23793 0.1052,0.043 0.5904,0.89135 1.07847,1.88519 0.4881,0.99387 0.93158,1.80701 0.98553,1.80701 0.054,0 0.50941,-0.20985 1.01216,-0.46632 z m -13.8876,-8.40563 c -3.79616,-0.35368 -8.24096,-1.56731 -8.97371,-2.45023 -0.15339,-0.18479 -0.41578,-0.33586 -0.58327,-0.33586 -0.16743,0 -0.44535,-0.14073 -0.61747,-0.31295 -0.17212,-0.17212 -0.57305,-0.44949 -0.89099,-0.6164 -1.32488,-0.6956 -4.70347,-3.50304 -6.99232,-5.81034 -3.02345,-3.04779 -3.26089,-3.33711 -4.99359,-6.08418 -2.80857,-4.45276 -4.1261,-9.34859 -3.98438,-14.80574 0.0399,-1.53886 0.19442,-3.16516 0.3431,-3.61398 0.14871,-0.44883 0.32027,-1.06016 0.38125,-1.35846 0.17872,-0.87515 2.6778,-5.89053 3.51928,-7.06318 0.42508,-0.59239 0.7729,-1.15522 0.7729,-1.25073 0,-0.34442 2.46375,-3.0897 5.1803,-5.7723 2.33462,-2.3054 6.84284,-6.00614 7.31676,-6.00614 0.076,0 0.41671,-0.19745 0.75712,-0.43877 4.18335,-2.96584 12.76215,-6.19976 17.01721,-6.41492 1.90504,-0.0964 4.6981,0.27153 5.71185,0.75216 1.3014,0.61712 2.25573,1.66136 2.31978,2.5383 0.049,0.6728 0.11539,0.71818 1.21776,0.83498 0.64119,0.068 1.48057,0.28921 1.86528,0.49175 0.38472,0.20269 0.92976,0.36899 1.21118,0.36977 0.84434,0.002 3.80899,1.49039 5.55048,2.78587 2.38375,1.77327 4.8879,4.22636 5.84515,5.72595 0.24564,0.38472 0.63093,0.90289 0.85637,1.15148 0.22554,0.24867 0.40991,0.58208 0.40991,0.74112 0,0.1589 0.13521,0.42776 0.30028,0.59723 0.16523,0.16936 0.46816,0.67533 0.67335,1.12416 0.5643,1.23445 2.22827,6.0974 2.39818,7.00857 0.0823,0.44128 0.1779,0.9597 0.21232,1.15205 0.0344,0.19222 0.1209,0.50713 0.19167,0.69949 0.3927,1.0645 0.86084,4.06474 0.98223,6.29534 0.0878,1.61506 -0.49741,6.22479 -0.88119,6.93964 -0.18836,0.35096 -0.61739,1.35797 -0.95333,2.23777 -0.33595,0.87981 -1.00007,2.18222 -1.4758,2.89418 -0.47576,0.71199 -0.99511,1.52562 -1.15415,1.80808 -0.56818,1.0093 -4.53075,4.80774 -4.87685,4.67492 -0.18561,-0.0713 -0.27666,-0.0311 -0.20241,0.0892 0.0744,0.12035 -0.0854,0.33694 -0.35531,0.4813 -0.26988,0.1443 -0.67662,0.43816 -0.90412,0.65288 -0.99803,0.94194 -4.9836,3.77124 -5.31246,3.77124 -0.081,0 -0.32964,0.16495 -0.55226,0.36629 -0.43027,0.38939 -2.35814,1.48414 -3.71228,2.108 -0.44882,0.20682 -1.69208,0.78389 -2.76279,1.28245 -1.0707,0.49856 -2.13331,0.90647 -2.36133,0.90647 -0.22802,0 -0.54081,0.15201 -0.695,0.33781 -0.44871,0.54067 -1.52181,0.82622 -4.33514,1.15365 -0.26299,0.0306 -0.57881,0.11787 -0.7019,0.19388 -0.42091,0.26024 -4.64653,0.36516 -6.76199,0.16798 z m 5.4938,-3.72371 c 1.46963,-0.22746 2.87121,-0.6436 4.31347,-1.28065 0.38472,-0.16992 1.53886,-0.63976 2.56476,-1.04411 2.87807,-1.13434 3.74058,-1.59239 6.87826,-3.65278 4.87289,-3.19986 9.03605,-6.84938 10.86294,-9.52269 0.95576,-1.39861 2.30722,-4.46786 2.72063,-6.17878 0.75663,-3.13123 0.37076,-8.53242 -0.87082,-12.18945 -0.20737,-0.61059 -0.31337,-1.21295 -0.23574,-1.3386 0.0777,-0.12558 0.0432,-0.22858 -0.0765,-0.22858 -0.1198,0 -0.28145,-0.31837 -0.35927,-0.70749 -0.22499,-1.12559 -1.79233,-4.66341 -2.63028,-5.93759 -0.42167,-0.64119 -1.42634,-1.85336 -2.23256,-2.69373 -3.60217,-3.75468 -8.19095,-6.27216 -11.44726,-6.28017 -0.78766,-0.002 -1.07178,-0.0829 -0.95493,-0.27208 0.0928,-0.15009 0.065,-0.20654 -0.0631,-0.12751 -0.12612,0.0779 -0.73164,-0.008 -1.34554,-0.19415 -0.61386,-0.18478 -1.20159,-0.28309 -1.30605,-0.21838 -0.33501,0.20709 -0.50558,-0.3648 -0.2137,-0.7165 0.22334,-0.26905 0.21535,-0.3403 -0.0383,-0.3431 -0.26437,-0.003 -0.26602,-0.0377 -0.008,-0.20104 0.17129,-0.1085 0.27619,-0.2818 0.23325,-0.38504 -0.043,-0.10327 0.23656,-0.29081 0.62128,-0.41691 0.38471,-0.12613 0.75194,-0.30631 0.81605,-0.4005 0.0642,-0.0942 0.32529,-0.21067 0.58038,-0.25914 0.40529,-0.0768 0.36414,-0.15889 -0.32611,-0.65043 -0.62359,-0.44404 -1.16316,-0.5828 -2.56226,-0.65906 -1.89229,-0.10327 -2.26668,-0.0361 -6.13799,1.09775 -3.50835,1.02758 -6.85653,2.52483 -9.62398,4.30366 -0.89767,0.577 -2.18299,1.37664 -2.85623,1.77697 -0.67326,0.40033 -1.22409,0.80578 -1.22409,0.90098 0,0.0953 -0.39347,0.39482 -0.87436,0.66578 -1.50003,0.84519 -6.83953,6.29229 -8.40068,8.5699 -1.71654,2.50443 -3.29963,5.53186 -3.97066,7.59347 -0.84448,2.5945 -1.00495,4.23611 -0.69552,7.11503 0.28365,2.63876 0.32749,2.93524 0.49705,3.36149 0.71132,1.78808 1.37051,3.6866 1.39263,4.01092 0.0138,0.21839 0.0743,0.34961 0.13218,0.29175 0.0578,-0.0578 0.41741,0.44555 0.79896,1.11862 0.3816,0.6731 0.99379,1.60614 1.36044,2.07342 0.36662,0.4673 0.6666,0.91321 0.6666,0.99092 0,0.35823 5.63742,6.1131 6.95781,7.10278 0.40325,0.30227 0.66526,0.65947 0.58223,0.79381 -0.0914,0.14788 -0.0377,0.17432 0.13604,0.0669 0.17267,-0.10685 0.66409,0.12557 1.23459,0.58417 1.01538,0.81598 4.16321,2.49093 5.61244,2.98633 0.48575,0.16606 1.6399,0.3596 2.56476,0.43013 0.92489,0.0705 1.72533,0.16716 1.77878,0.2148 0.19883,0.17762 3.68633,0.0749 5.14896,-0.15147 z m 24.71505,-59.91743 c 0,-0.12833 -0.11126,-0.23325 -0.24702,-0.23325 -0.13577,0 -0.18204,0.10492 -0.10272,0.23325 0.0793,0.12833 0.19029,0.23325 0.24702,0.23325 0.0565,0 0.10272,-0.10492 0.10272,-0.23325 z"
       id="path836"
       sodipodi:nodetypes="csssscscscssssssssssscssscscsscscsscssccssssscssssssssssssscscssccscsssccsssccsscsssscsssssssssssscscscsssssccsssssscccccsssscsssssssssssssssssccscsscsssssssssssssssscsssssscssscccsccsssssscsssssssssssssssscssssssssscccccccssssssccsssssssssssscsssccsscsscccsssssssscsssscsssssssssscssscsssssssssscsssssccccssssssssssscssccscsssscscssssssssscssssssscsscccsssss" />
  </g>
</svg>
