<?xml version="1.0" encoding="UTF-8" standalone="no"?>
<!-- Created with Inkscape (http://www.inkscape.org/) -->

<svg
   width="60.574425mm"
   height="46.218979mm"
   viewBox="0 0 60.574425 46.218979"
   version="1.1"
   id="svg5"
   inkscape:version="1.1.1 (c3084ef, 2021-09-22)"
   sodipodi:docname="fairdata copy 8.svg"
   xmlns:inkscape="http://www.inkscape.org/namespaces/inkscape"
   xmlns:sodipodi="http://sodipodi.sourceforge.net/DTD/sodipodi-0.dtd"
   xmlns="http://www.w3.org/2000/svg"
   xmlns:svg="http://www.w3.org/2000/svg">
  <sodipodi:namedview
     id="namedview7"
     pagecolor="#ffffff"
     bordercolor="#666666"
     borderopacity="1.0"
     inkscape:pageshadow="2"
     inkscape:pageopacity="0.0"
     inkscape:pagecheckerboard="0"
     inkscape:document-units="mm"
     showgrid="false"
     inkscape:zoom="0.49264169"
     inkscape:cx="322.74979"
     inkscape:cy="92.359215"
     inkscape:window-width="2560"
     inkscape:window-height="1387"
     inkscape:window-x="0"
     inkscape:window-y="25"
     inkscape:window-maximized="1"
     inkscape:current-layer="layer1" />
  <defs
     id="defs2" />
  <g
     inkscape:label="Layer 1"
     inkscape:groupmode="layer"
     id="layer1"
     transform="translate(-69.432192,-92.769197)">
    <path
       style="fill:#000000;stroke-width:0.329339"
       d="m 114.95446,138.90915 c -4.72994,-0.40101 -9.453,-1.26841 -13.7808,-3.28499 -2.595507,-1.25438 -5.194639,-2.54573 -7.727788,-3.87735 -2.74326,-2.66619 1.866401,-5.15094 4.217748,-3.46346 2.68409,0.69815 4.85011,2.43168 7.53436,3.10011 3.39713,1.20975 7.11965,2.05576 10.71337,1.68574 -2.33552,-1.65538 -4.41573,-3.71378 -6.55222,-5.61791 -2.49718,0.0654 -3.75494,-3.39848 -0.68577,-4.03283 2.62485,-0.70345 5.18017,1.62459 7.6358,0.13136 1.33001,0.0232 3.3095,-3.73276 2.78482,-3.33107 -0.52888,0.77084 -1.78893,1.76005 -0.48603,0.17203 1.35638,-0.94953 1.75651,-3.07132 3.01362,-2.72606 1.3695,-1.74802 2.16563,-5.03141 1.34166,-6.79229 -1.27943,3.20873 -0.49821,-1.84313 -0.52184,-2.85923 0.26884,-3.11202 -1.44775,-6.31013 -4.45276,-7.40366 -3.22464,-1.173523 -6.57969,-2.313578 -10.03961,-2.393113 -2.17973,0.401219 -5.61192,1.72817 -6.96553,-0.713785 -0.0269,-2.705482 3.71148,-3.523752 5.79204,-4.387087 2.37443,-1.034138 5.05367,0.545656 7.49095,0.871898 4.3275,1.208339 9.25323,1.932628 12.32542,5.566338 1.43337,1.454309 1.75013,3.597479 2.75131,5.345909 0.46246,0.83715 0.85013,1.68751 0.56745,2.65622 -0.44919,4.25722 -0.33797,8.7837 -2.76132,12.51193 -1.52376,2.56058 -3.78947,4.59492 -5.56057,6.95299 -1.23703,1.09986 -6.26005,1.26021 -2.87447,2.82782 2.81437,1.84289 6.08116,2.92107 8.82403,4.84692 1.56783,1.2754 0.17149,3.42347 -1.03561,4.27797 -3.84894,-0.008 -7.70332,0.0682 -11.54826,-0.0644 z m -41.621485,-1.74778 c -3.166974,-0.0948 -4.306041,-4.32521 -1.569383,-5.95495 1.363406,-2.13192 3.954979,-4.68498 4.1559,-6.8899 -4.692494,-3.19485 -7.193306,-9.14389 -6.312515,-14.73806 0.06039,-2.81785 1.235423,-5.42238 3.00011,-7.58607 1.510756,-2.185297 3.365693,-4.242179 5.978892,-5.076653 6.230335,-2.57384 13.788437,-3.088322 19.736906,0.509698 3.820355,1.910754 7.526105,4.728595 8.879035,8.959965 2.57792,5.6471 -0.4684,12.41789 -5.41325,15.66288 -0.83373,2.09962 -3.604634,2.22832 -5.390625,3.3391 -2.263074,1.37594 -5.207355,1.90341 -6.488782,4.48705 -2.937305,2.93273 -6.761539,4.79969 -10.436531,6.63323 -1.91578,0.8737 -4.080346,1.22894 -6.139757,0.65371 z m 7.87188,-8.44177 c 1.687903,-0.76747 3.130488,-1.56532 2.22761,-3.4136 1.677604,-1.91323 4.22481,-3.41858 6.80181,-3.88229 2.309972,-1.40478 5.060443,-2.10048 7.022096,-4.06896 2.193947,-1.76239 4.088399,-4.47364 3.248659,-7.41902 -0.575799,-2.76215 -2.300154,-5.64728 -5.005115,-6.6954 -2.202475,-1.34309 -4.678953,-2.30878 -7.308796,-2.25277 -3.255967,-0.16721 -6.608673,0.84031 -8.831089,3.31955 -1.895848,1.71934 -3.599352,3.91149 -3.506064,6.60654 -0.140497,3.21637 0.228778,6.92984 2.951858,9.07082 2.16651,1.49422 4.276668,4.03699 1.461485,6.02016 -0.702472,1.1104 -3.624144,5.69812 -0.349482,3.45659 0.430592,-0.24445 0.858833,-0.49301 1.287028,-0.74162 z m 40.527075,-13.8152 c 0.35463,-1.24823 0.16626,1.47149 0,0 z"
       id="path836"
       sodipodi:nodetypes="cssssssscsssssscssscssscssssssssssscsssccsssssssssssccccssssssssssssssssssssssssssssssssscscssssscscsccc" />
  </g>
</svg>
