<?xml version="1.0" encoding="UTF-8" standalone="no"?>
<!-- Created with Inkscape (http://www.inkscape.org/) -->

<svg
   width="103.92649mm"
   height="121.88226mm"
   viewBox="0 0 103.92649 121.88226"
   version="1.1"
   id="svg5"
   sodipodi:docname="datalad copy 2.svg"
   inkscape:version="1.1.1 (c3084ef, 2021-09-22)"
   xmlns:inkscape="http://www.inkscape.org/namespaces/inkscape"
   xmlns:sodipodi="http://sodipodi.sourceforge.net/DTD/sodipodi-0.dtd"
   xmlns="http://www.w3.org/2000/svg"
   xmlns:svg="http://www.w3.org/2000/svg">
  <sodipodi:namedview
     id="namedview7"
     pagecolor="#ffffff"
     bordercolor="#666666"
     borderopacity="1.0"
     inkscape:pageshadow="2"
     inkscape:pageopacity="0.0"
     inkscape:pagecheckerboard="0"
     inkscape:document-units="mm"
     showgrid="false"
     inkscape:zoom="0.65611856"
     inkscape:cx="322.35028"
     inkscape:cy="6.8585165"
     inkscape:window-width="1606"
     inkscape:window-height="1319"
     inkscape:window-x="0"
     inkscape:window-y="25"
     inkscape:window-maximized="0"
     inkscape:current-layer="layer1" />
  <defs
     id="defs2" />
  <g
     inkscape:label="Layer 1"
     inkscape:groupmode="layer"
     id="layer1"
     transform="translate(-42.615038,-73.559162)">
    <path
       id="path836-0"
       style="opacity:0.491961;fill:#008600;fill-opacity:1;stroke-width:0.343763"
       d="m 50.940861,84.215632 c -0.521084,0.304408 -1.0493,0.615426 -1.468128,0.84129 -3.288869,2.915314 -5.700077,7.324034 -5.125267,11.947594 0.638198,9.579364 -0.117886,19.144764 -0.256316,28.724884 0.843709,10.21514 -0.01605,20.44428 -0.389122,30.66273 -0.8543,7.42989 -0.868865,14.89857 -0.778764,22.36969 -1.620052,5.35211 3.471116,8.74754 7.688934,9.90947 3.617312,2.67719 8.862806,3.02417 13.285494,4.11758 3.71897,1.05004 9.470048,0.8733 11.697478,1.62884 8.88747,0.61769 17.830799,0.46026 26.72703,1.02371 8.76874,-0.48273 17.66058,-0.36678 26.09246,-2.9838 5.82749,-0.64082 8.99834,-5.04916 11.6391,-9.37927 0.01,-0.3234 0.0152,-0.64704 0.0243,-0.97048 h -6.82027 c -0.004,0.58339 -0.0132,1.1669 -0.0155,1.75028 -7.50956,3.67663 -16.03366,3.66468 -24.20058,4.3093 -2.80796,0.0982 -5.62106,0.21322 -8.43256,0.26252 -13.252263,-0.36603 -26.622733,-0.2798 -39.681283,-2.87993 -3.5419,-0.19682 -6.80113,-1.74385 -9.899652,-3.44217 h -0.08733 v -0.047 c -0.467839,-0.25708 -0.932259,-0.51677 -1.393195,-0.77618 0.837149,-7.23213 -0.658006,-14.67979 0.799433,-21.8183 0.19843,0.0616 0.395555,0.12867 0.593762,0.1912 v -6.69261 c -0.219731,-0.17055 -0.438626,-0.34239 -0.647507,-0.5271 -0.01478,-4.69141 0.595773,-9.4036 0.647507,-14.10974 v -1.57716 c -0.0229,-1.20694 -0.09139,-2.41307 -0.226343,-3.61838 -0.476636,-1.82361 -0.309441,-2.53989 0.226343,-2.65049 v -6.30556 c -0.227097,-0.11789 -0.455163,-0.23581 -0.682128,-0.35346 0.522809,-8.23672 0.385948,-16.4932 0.343647,-24.741154 0.112096,0.0548 0.226007,0.10439 0.338481,0.15813 z" />
    <path
       style="fill:#000000;stroke-width:0.343763"
       d="m 106.02639,191.20806 c -8.896245,-0.56345 -17.839485,-0.40567 -26.726955,-1.02336 -2.22743,-0.75554 -7.97848,-0.57905 -11.69745,-1.62909 -4.42269,-1.09341 -9.66811,-1.4401 -13.28542,-4.11729 -4.21782,-1.16193 -9.30906,-4.55762 -7.68901,-9.90973 -0.0901,-7.47112 -0.0753,-14.93966 0.779,-22.36955 0.37307,-10.21845 1.23285,-20.44752 0.38914,-30.66266 0.13843,-9.58012 0.89436,-19.14578 0.25616,-28.725126 -0.57481,-4.623564 1.83665,-9.03242 5.12552,-11.947732 2.28104,-1.230117 6.26866,-3.894607 9.89341,-5.057941 3.5581,-0.554556 8.96467,-1.471811 13.22612,-1.959435 4.44943,-0.269745 9.7438,-0.366648 13.7184,-0.04253 10.277075,0.422675 20.552545,1.185218 30.727975,2.858827 4.81466,1.321355 12.7629,-0.662805 14.68086,5.296866 1.82716,-0.785159 8.81519,1.242507 9.14001,5.439436 0.3314,5.552713 2.69768,10.514875 1.75842,16.199995 -0.65508,11.73271 -0.63086,23.50115 -1.81066,35.20508 -0.53162,13.34867 -0.35017,26.7318 -0.75358,40.08113 -2.64075,4.33011 -5.81175,8.73893 -11.63925,9.37976 -8.43189,2.61702 -17.32395,2.50062 -26.09269,2.98335 z m 6.71995,-7.27392 c 8.16692,-0.64462 16.69076,-0.63277 24.20034,-4.3094 0.0272,-6.97993 0.21056,-13.96069 0.0352,-20.93977 -5.55189,0.59848 -11.05866,1.46583 -16.50063,2.78509 -9.28798,2.71994 -19.12556,3.06446 -28.715755,2.22911 -3.85693,-0.25241 -8.65945,-0.92607 -12.8796,-1.77838 -8.64339,-0.77041 -16.63848,-4.14304 -24.83442,-6.68775 -1.45744,7.13851 0.0377,14.58611 -0.79945,21.81824 3.53928,1.99183 7.26973,4.03716 11.38002,4.26556 13.05855,2.60013 26.42937,2.51368 39.681645,2.87971 2.8115,-0.0493 5.62469,-0.16422 8.43265,-0.26241 z m -6.87529,-25.74358 c 6.76509,-0.12617 13.14923,-1.70545 19.63183,-3.27158 3.73805,-0.10232 7.3032,-2.02256 11.25449,-1.88513 1.56889,-2.45976 0.39125,-7.56363 0.88149,-10.86111 -1.1251,-3.20246 2.57764,-10.81988 -0.80623,-11.35254 -4.01458,0.79717 -9.24493,2.5593 -13.94299,2.5552 -13.84129,1.92153 -27.950665,1.60817 -41.814565,0.15979 -6.91657,-0.90571 -14.23741,-1.16912 -20.58028,-4.50986 -2.73176,-0.6826 -7.57299,-5.85335 -6.076,-0.1259 0.71973,6.42836 -0.44111,12.88611 -0.42089,19.3052 4.18302,3.69905 10.62853,4.4543 15.86522,6.41267 10.08604,2.62478 20.5606,3.57149 30.944535,3.80254 1.68671,-0.0914 3.38056,-0.1575 5.06339,-0.22928 z m 7.73467,-29.03262 c 8.27807,-0.55043 16.81249,-1.50221 24.43996,-4.95001 2.02472,-4.96071 0.65683,-11.44543 1.59339,-16.97505 -0.10138,-2.38087 0.79731,-6.17087 0.16634,-7.8997 -3.89521,1.7277 -7.93572,2.45109 -12.11427,3.0107 -16.82549,1.74508 -34.008845,2.01176 -50.696195,-1.06912 -7.68208,-1.642136 -15.57323,-2.946841 -22.68837,-6.425825 0.0423,8.247925 0.17933,16.504365 -0.34348,24.741075 4.24516,2.20057 8.50871,4.45791 12.96156,6.20029 4.44884,2.0853 10.08765,1.41386 14.54609,2.71306 9.37314,0.43897 18.771865,0.73202 28.147675,1.17177 1.13011,-0.63717 2.70593,-0.40076 3.9873,-0.51719 z m -1.54694,-32.182395 c 8.75783,-0.325715 17.71789,-0.61008 26.12259,-3.30344 6.27946,-3.594846 -3.98991,-7.07967 -6.70921,-8.91811 -4.3719,-3.015627 -10.41463,-1.238653 -15.29301,-3.181704 -12.79718,-1.350504 -25.702195,-2.718895 -38.591195,-1.975737 -4.5075,0.564458 -8.48904,0.602897 -13.01105,2.211559 -2.82278,1.317745 -12.69446,3.75227 -7.43976,7.298798 6.38951,3.151252 13.60624,4.218171 20.54098,5.628289 8.33022,1.761111 16.87701,2.063532 25.344575,2.528983 3.01067,-0.115412 6.02779,-0.195431 9.03608,-0.288638 z"
       id="path836"
       sodipodi:nodetypes="csssssssssscsccssssssssssssscsscssccsssscsssscsssssscscscsssssccscccssscccccssccssssscsssscsssscssscssssccssccccsccssscssscscssssssssscssscssssscssccssssssccccsssssscsssscssssccscsssssscssccsscssccccscssssssssccssscsssssscccc" />
  </g>
</svg>
