<?xml version="1.0" encoding="UTF-8" standalone="no"?>
<!-- Created with Inkscape (http://www.inkscape.org/) -->

<svg
   width="94.149467mm"
   height="80.036827mm"
   viewBox="0 0 94.149467 80.036827"
   version="1.1"
   id="svg5"
   sodipodi:docname="datalad copy.svg"
   inkscape:version="1.1.1 (c3084ef, 2021-09-22)"
   xmlns:inkscape="http://www.inkscape.org/namespaces/inkscape"
   xmlns:sodipodi="http://sodipodi.sourceforge.net/DTD/sodipodi-0.dtd"
   xmlns="http://www.w3.org/2000/svg"
   xmlns:svg="http://www.w3.org/2000/svg">
  <sodipodi:namedview
     id="namedview7"
     pagecolor="#ffffff"
     bordercolor="#666666"
     borderopacity="1.0"
     inkscape:pageshadow="2"
     inkscape:pageopacity="0.0"
     inkscape:pagecheckerboard="0"
     inkscape:document-units="mm"
     showgrid="false"
     inkscape:zoom="0.61620378"
     inkscape:cx="396.78433"
     inkscape:cy="81.953409"
     inkscape:window-width="1606"
     inkscape:window-height="1319"
     inkscape:window-x="0"
     inkscape:window-y="25"
     inkscape:window-maximized="0"
     inkscape:current-layer="layer1" />
  <defs
     id="defs2" />
  <g
     inkscape:label="Layer 1"
     inkscape:groupmode="layer"
     id="layer1"
     transform="translate(-75.472636,-79.188112)">
    <path
       style="fill:#000000;stroke-width:0.384603"
       d="m 164.70056,158.64393 c -2.25461,-0.72082 -2.81362,-1.19047 -3.62687,-3.04679 -2.05346,-4.68732 -8.7243,-17.73904 -10.41844,-20.38394 -1.08395,-1.69228 -2.38066,-4.11528 -2.88162,-5.38447 -1.20714,-3.05851 -4.26764,-8.65357 -4.73348,-8.65357 -0.64486,0 -1.34995,1.19169 -4.55132,7.69209 -1.71895,3.49027 -3.38706,6.64812 -3.70686,7.01748 -0.63959,0.73857 -2.22058,4.33014 -2.83646,6.44361 -0.21577,0.74035 -0.54929,1.51054 -0.74117,1.7115 -0.19169,0.20078 -0.34886,0.61701 -0.34886,0.92454 0,0.30754 -0.649,1.70074 -1.44227,3.09603 -0.79322,1.39534 -1.72312,3.22617 -2.06645,4.06867 -1.0034,2.46239 -3.87771,3.49278 -5.64699,2.02439 -0.84182,-0.69864 0.0363,-4.30089 1.87617,-7.68014 0.42836,-0.78745 0.79236,-1.56627 0.80894,-1.73071 0.0409,-0.38612 0.0659,-0.47443 1.30703,-4.33728 0.57777,-1.79803 1.61415,-4.51121 2.30312,-6.02929 l 1.25256,-2.76015 -1.52648,-1.05782 c -1.47678,-1.02344 -3.56627,-4.15662 -5.10315,-7.65221 -0.89138,-2.02738 -1.78109,-3.90242 -6.20508,-13.07647 -2.04011,-4.23066 -3.89465,-8.08148 -4.12115,-8.55745 -0.22622,-0.47592 -0.52475,-0.86535 -0.66276,-0.86535 -0.23439,0 -3.64503,5.71912 -3.66765,6.14971 -0.005,0.10811 -0.58926,1.40774 -1.29695,2.88847 -2.85917,5.98291 -3.88488,8.25042 -3.88488,8.5887 0,0.19533 -0.25984,0.57073 -0.57691,0.83406 -0.31707,0.26347 -0.5769,0.79136 -0.5769,1.17343 0,0.38203 -0.21623,0.92337 -0.48079,1.20292 -0.26437,0.27937 -0.87544,1.287 -1.357904,2.23889 -0.48242,0.95189 -1.55297,2.94221 -2.37894,4.42295 -0.82597,1.48073 -1.6777,3.07113 -1.89279,3.53429 -0.21486,0.46311 -1.11688,2.02075 -2.00395,3.46142 -0.88707,1.44063 -2.09221,3.55201 -2.67802,4.69183 -0.58585,1.13986 -1.20959,2.17829 -1.3862,2.30762 -0.17671,0.12946 -1.27292,2.08894 -2.43636,4.35467 -1.16339,2.26574 -2.54796,4.62137 -3.07681,5.23475 -0.52884,0.61343 -1.42413,1.67589 -1.98959,2.36108 -1.22018,1.47852 -3.06863,1.6728 -5.16661,0.54293 -1.07463,-0.57872 -1.30508,-0.92505 -1.30508,-1.96147 0,-0.80258 0.18897,-1.25866 0.52122,-1.25866 0.28663,0 1.20763,-0.99513 2.04669,-2.21145 1.40683,-2.03942 2.31847,-3.6772 4.76355,-8.5574 0.15899,-0.31752 0.47202,-0.5357 0.6956,-0.48537 0.22349,0.0504 0.31934,-0.13537 0.21305,-0.41292 -0.20578,-0.53625 2.94821,-6.86871 5.20349,-10.44742 0.39975,-0.6346 1.45875,-2.66239 2.35305,-4.50617 0.89425,-1.84378 1.73712,-3.28363 1.87303,-3.1996 0.13582,0.084 0.26983,-0.15172 0.29799,-0.52398 0.0273,-0.37204 0.58317,-1.57926 1.23362,-2.68247 0.6505,-1.1032 1.1827,-2.14945 1.1827,-2.32492 0,-0.17535 0.69229,-1.87881 1.53843,-3.785 0.84614,-1.90624 1.53843,-3.73516 1.53843,-4.06422 0,-0.32888 0.17034,-0.70355 0.37839,-0.8322 0.20805,-0.12855 1.011274,-1.48014 1.784734,-3.00335 0.77346,-1.52321 2.06427,-4.06754 2.86844,-5.654031 0.80421,-1.58649 2.08081,-3.55837 2.83682,-4.38207 l 1.37467,-1.49745 2.72017,0.22803 c 2.11325,0.17716 3.01317,0.45153 4.03339,1.22967 1.36894,1.04416 3.70504,4.38393 4.19041,5.990821 0.63569,2.10456 5.49817,12.07797 6.73625,13.81668 0.42246,0.59326 0.76805,1.19246 0.76805,1.3316 0,0.67653 4.58589,10.1339 5.05768,10.43039 0.25439,0.1599 0.51413,-0.29663 3.85241,-6.76373 1.03729,-2.00953 2.17261,-3.87003 2.52284,-4.13445 1.24444,-0.93954 6.9477,-0.14491 7.33673,1.02217 0.0691,0.20714 0.33933,0.29481 0.60062,0.19442 0.45425,-0.17444 1.9989,1.21649 4.47623,4.03042 0.63196,0.71782 1.60575,2.27546 2.16403,3.46143 0.55828,1.18602 1.1216,2.24293 1.25183,2.34868 0.38294,0.31072 2.06042,4.36417 2.09794,5.06854 0.0182,0.35523 0.16353,0.6147 0.32161,0.57691 0.432,-0.10312 3.97864,5.24447 4.79512,7.22984 0.39293,0.95521 0.8441,1.73743 1.00273,1.73821 0.15853,0 0.28845,0.17988 0.28845,0.39792 0,0.21805 0.70255,1.63619 1.56123,3.15154 2.06014,3.63559 3.90056,8.00303 3.64885,8.65906 -0.11084,0.28845 -0.0272,0.41837 0.1817,0.28845 0.21078,-0.13037 0.49451,0.0772 0.63097,0.46076 0.13627,0.38384 0.5019,0.99341 0.81216,1.35509 0.39656,0.46215 0.48655,1.07113 0.30299,2.04837 -0.20805,1.10929 -0.52612,1.50154 -1.57173,1.9384 -0.72095,0.30117 -1.35967,0.53566 -1.41936,0.52089 -0.0595,-0.0136 -0.8873,-0.27573 -1.83919,-0.58013 z M 151.81637,99.870889 c -2.12028,-0.92913 -3.48132,-2.59516 -4.43244,-5.42562 -1.41633,-4.215 -1.41156,-9.92476 0.009,-11.34581 0.10584,-0.10584 0.53648,-0.86735 0.95712,-1.69251 1.10888,-2.17502 2.30344,-2.54819 6.35035,-1.9836 1.79799,0.25075 3.70178,0.69629 4.23062,0.98992 0.52885,0.29345 1.17725,0.57009 1.44095,0.61433 0.76369,0.1281 3.46379,2.23185 4.41245,3.4379 2.33419,2.96742 0.10312,10.05226 -4.26791,13.55358 -2.776,2.223531 -6.19287,2.950791 -8.70063,1.85181 z m 4.18778,-7.05004 c 1.91065,-1.96711 2.7954,-4.33687 2.17679,-5.83033 -0.75706,-1.82765 -2.05786,-2.80988 -3.53415,-2.66857 -1.12905,0.10812 -1.36113,0.32343 -1.84014,1.70914 -0.48765,1.41046 -0.47388,1.87739 0.12492,4.23062 0.37022,1.45484 0.73335,2.90474 0.80716,3.22203 0.0736,0.31753 0.14718,0.6202 0.16354,0.67307 0.11947,0.38975 0.91941,-0.11856 2.10188,-1.33596 z"
       id="path836"
       sodipodi:nodetypes="sssssssssssssscsscssssscsssssssssssssssssssscssscsssssssscssssssssssssscsscssscsssscsscssssssssccsssssscs" />
  </g>
</svg>
