<?xml version="1.0" encoding="UTF-8" standalone="no"?>
<!-- Created with Inkscape (http://www.inkscape.org/) -->

<svg
   width="29.567774mm"
   height="35.932247mm"
   viewBox="0 0 29.567774 35.932247"
   version="1.1"
   id="svg5"
   inkscape:version="1.1.1 (c3084ef, 2021-09-22)"
   sodipodi:docname="music copy.svg"
   xmlns:inkscape="http://www.inkscape.org/namespaces/inkscape"
   xmlns:sodipodi="http://sodipodi.sourceforge.net/DTD/sodipodi-0.dtd"
   xmlns="http://www.w3.org/2000/svg"
   xmlns:svg="http://www.w3.org/2000/svg">
  <sodipodi:namedview
     id="namedview7"
     pagecolor="#ffffff"
     bordercolor="#666666"
     borderopacity="1.0"
     inkscape:pageshadow="2"
     inkscape:pageopacity="0.0"
     inkscape:pagecheckerboard="0"
     inkscape:document-units="mm"
     showgrid="false"
     inkscape:zoom="2.2662313"
     inkscape:cx="131.93711"
     inkscape:cy="128.18639"
     inkscape:window-width="1946"
     inkscape:window-height="1223"
     inkscape:window-x="0"
     inkscape:window-y="25"
     inkscape:window-maximized="0"
     inkscape:current-layer="layer1" />
  <defs
     id="defs2" />
  <g
     inkscape:label="Layer 1"
     inkscape:groupmode="layer"
     id="layer1"
     transform="translate(-90.279747,-140.55235)">
    <path
       id="path836-4"
       style="fill:#009e00;fill-opacity:0.505405;stroke-width:0.0846667"
       d="m 91.99434,144.29031 c -0.07708,0.0403 -0.185155,0.0926 -0.234095,0.12196 -0.747861,0.44806 -1.236787,1.13876 -1.410766,1.99212 -0.11194,0.54907 -0.107265,0.5796 0.149344,1.08469 0.145161,0.28592 0.338045,0.63947 0.428913,0.78548 0.232021,0.37294 0.301315,0.66345 0.572577,2.39934 0.13154,0.84181 0.362159,1.97327 0.51263,2.51406 0.150461,0.54078 0.401606,1.45967 0.558104,2.04225 0.156512,0.58257 0.311031,1.13933 0.343133,1.23713 0.653569,1.99326 1.219753,3.59767 1.441773,4.08451 0.153538,0.33667 0.272582,0.66507 0.264583,0.72967 -0.008,0.0647 0.01225,0.13326 0.04496,0.15296 0.03273,0.0197 0.157356,0.30572 0.276985,0.63511 0.119631,0.3294 0.257643,0.5805 0.306443,0.5581 0.0493,-0.0225 0.05706,-0.001 0.01704,0.0486 -0.06738,0.0838 0.658429,2.27476 2.052587,6.19497 0.652891,1.83585 0.866182,2.32057 0.984954,2.23707 0.0421,-0.0297 0.04186,-0.007 -0.0011,0.0491 -0.04701,0.0622 0.01336,0.30525 0.152964,0.61599 0.12686,0.28244 0.276796,0.64914 0.332796,0.81442 0.09902,0.29178 0.09523,0.30675 -0.137459,0.52245 -0.27445,0.25434 -0.267791,0.23402 -0.20619,0.64957 0.07699,0.5194 1.003628,1.23533 2.333704,1.80247 0.24084,0.1027 0.88375,0.24639 3.02979,0.678 v -5.2e-4 c 0.96625,0.19433 1.97164,0.28968 2.36678,0.22428 0.23627,-0.0389 0.50528,-0.0605 0.59738,-0.047 0.78905,0.11416 3.00404,-0.0927 3.80649,-0.35553 0.24932,-0.0816 0.47766,-0.1456 0.50746,-0.1416 0.14897,0.0185 1.28994,-0.38186 1.26194,-0.44286 -0.0178,-0.0389 0.0347,-0.0441 0.11679,-0.0114 0.0876,0.0349 0.27064,-0.0195 0.44286,-0.13126 0.23599,-0.15313 0.30153,-0.25403 0.33383,-0.51366 0.0508,-0.408 -0.0324,-0.75388 -0.23564,-0.97979 -0.0594,-0.0661 -0.0936,-0.11355 -0.11007,-0.14418 h -0.94413 c -0.46105,0.26398 -3.16128,0.85426 -4.36097,0.94155 -0.0881,0.0166 -0.17634,0.0321 -0.2651,0.0455 -0.0332,0.005 -0.0672,0.003 -0.10077,0.005 -0.0586,0.005 -0.1173,0.009 -0.1757,0.015 -0.0568,0.006 -0.11302,0.0197 -0.17002,0.0227 -0.12066,0.007 -0.2409,0.008 -0.36122,0.006 -0.0856,0.022 -0.1705,0.0385 -0.2651,0.0444 -0.0528,0.003 -0.13614,0.0484 -0.15864,5.3e-4 -0.009,-0.0196 -0.0169,-0.0397 -0.0243,-0.0599 -0.031,-0.002 -0.062,-0.003 -0.093,-0.004 -0.006,0.0259 -0.0109,0.0519 -0.0176,0.0775 -0.003,0.009 -0.0167,0.003 -0.0289,-0.001 -0.003,0.003 -0.0104,0.002 -0.0243,-0.004 -0.035,-0.004 -0.07,-0.007 -0.10491,-0.0114 -0.13446,-0.0158 -0.26958,-0.0366 -0.40514,-0.0403 -0.0314,0.0149 -0.0476,0.0318 -0.0393,0.0501 h 5.3e-4 c 0.0389,0.0848 0.003,0.11126 -0.0574,0.0419 -0.006,-0.007 -0.19973,-0.0432 -0.38861,-0.078 -0.0307,-4e-5 -0.058,-1.7e-4 -0.0703,-0.002 -0.0997,-0.0153 -0.16865,-0.0309 -0.23048,-0.0517 -0.29044,-0.0501 -0.62311,-0.10643 -1.01544,-0.16847 -0.92041,-0.14551 -1.86761,-0.31179 -2.1053,-0.36949 l -0.43253,-0.1049 -0.42116,-1.1715 c -0.23166,-0.6443 -0.52132,-1.37587 -0.643889,-1.62574 -0.122539,-0.24987 -0.238466,-0.55207 -0.257866,-0.6718 -0.01934,-0.11972 -0.133768,-0.44113 -0.254248,-0.71417 -0.120489,-0.27308 -0.359781,-0.89789 -0.531749,-1.38854 -2.039671,-5.81914 -2.702452,-7.65519 -3.062862,-8.48631 -0.250081,-0.57671 -1.026126,-2.7755 -1.291394,-3.65869 -0.08784,-0.29248 -0.320691,-1.08952 -0.517282,-1.77095 -0.196569,-0.68138 -0.406122,-1.39854 -0.466121,-1.5937 -0.241528,-0.78662 -0.487379,-2.14091 -0.514697,-2.69958 l -0.445968,-2.42155 c -0.102508,-0.10324 -0.181716,-0.21928 -0.264584,-0.36484 -0.14284,-0.2509 -0.350028,-0.4899 -0.461986,-0.5333 -0.111641,-0.0433 -0.201472,-0.0919 -0.199472,-0.10801 0.0021,-0.0161 0.110146,-0.15031 0.240294,-0.29868 0.131482,-0.14991 0.250929,-0.26807 0.37569,-0.37828 z m 13.91181,30.49633 c 0.005,5.3e-4 0.01,0.001 0.015,0.002 0.003,2.1e-4 0.006,0.001 0.009,0.002 0.005,-0.007 -0.006,-0.0328 -0.0124,-0.0791 -0.0138,-7.9e-4 -0.0276,-7.9e-4 -0.0413,-0.002 -0.005,0.0193 -0.009,0.0386 -0.0139,0.0579 0.0198,0.009 0.0329,0.015 0.0434,0.0191 z" />
    <path
       style="fill:#000000;stroke-width:0.0846667"
       d="m 104.86638,175.18163 c -2.14604,-0.43161 -2.78893,-0.57552 -3.02977,-0.67822 -1.33008,-0.56714 -2.257141,-1.283 -2.334137,-1.8024 -0.0616,-0.41555 -0.06816,-0.39493 0.206258,-0.6493 0.23269,-0.2157 0.236695,-0.23088 0.137679,-0.52266 -0.05602,-0.16528 -0.205753,-0.53161 -0.332614,-0.81405 -0.139587,-0.31074 -0.199993,-0.55412 -0.15298,-0.61627 0.0427,-0.0565 0.04312,-0.0785 0.001,-0.0488 -0.118764,0.0835 -0.332194,-0.40125 -0.985091,-2.2371 -1.394157,-3.92021 -2.120222,-6.11134 -2.052833,-6.19513 0.03993,-0.0496 0.03244,-0.0712 -0.01692,-0.0487 -0.04884,0.0224 -0.186714,-0.22878 -0.306342,-0.55818 -0.11963,-0.32939 -0.2443,-0.61502 -0.277037,-0.63473 -0.03272,-0.0197 -0.05295,-0.0887 -0.0449,-0.1534 0.008,-0.0646 -0.111,-0.39301 -0.26454,-0.72968 -0.222016,-0.48684 -0.788382,-2.09101 -1.441951,-4.08427 -0.03207,-0.0978 -0.186387,-0.65455 -0.342891,-1.23712 -0.156504,-0.58258 -0.407664,-1.5017 -0.558122,-2.04248 -0.150468,-0.54079 -0.381206,-1.67201 -0.512745,-2.51382 -0.271257,-1.73589 -0.340612,-2.02649 -0.572635,-2.39943 -0.09085,-0.14601 -0.283937,-0.4994 -0.429099,-0.78532 -0.256616,-0.50509 -0.260848,-0.53595 -0.148915,-1.08502 0.173984,-0.85336 0.662918,-1.54368 1.410787,-1.99175 0.495206,-0.29668 2.576885,-1.22628 3.060628,-1.36675 0.181966,-0.0528 0.587549,-0.15345 0.901285,-0.22356 0.313738,-0.0701 0.986719,-0.2332 1.495521,-0.36239 1.865554,-0.4737 4.901724,-0.8833 6.274264,-0.84644 0.47685,0.0128 1.11728,0.0175 1.42317,0.0104 0.3059,-0.007 0.84197,0.004 1.19127,0.0257 0.34931,0.0212 1.07771,0.0299 1.61867,0.0194 0.76598,-0.0149 1.34471,0.036 2.61623,0.23046 0.89797,0.13731 1.74352,0.28442 1.87899,0.32708 0.13547,0.0427 0.57912,0.15669 0.9859,0.25346 0.40677,0.0968 0.7735,0.21957 0.81499,0.27283 0.0414,0.0532 0.40117,0.13738 0.79933,0.18692 1.32174,0.16443 2.00865,0.48826 2.49653,1.17691 0.25537,0.36047 0.7798,1.57775 0.85767,1.99079 0.0373,0.1981 0.14985,0.39462 0.2861,0.49978 0.44049,0.33999 0.43851,0.85872 -0.01,2.58588 -0.15928,0.61368 -0.36663,1.37496 -0.46065,1.69174 -0.094,0.31679 -0.23077,0.99087 -0.30386,1.49795 -0.0732,0.50708 -0.21211,1.37285 -0.30888,1.92391 -0.0968,0.55107 -0.23346,1.34034 -0.30376,1.75392 -0.15016,0.883 -0.4214,2.36184 -0.57381,3.12809 -0.0592,0.29766 -0.16639,0.91782 -0.23817,1.37814 -0.16487,1.05792 -0.41831,2.12496 -0.6396,2.69331 -0.061,0.15665 -0.16639,0.52747 -0.23414,0.82407 -0.0678,0.29657 -0.15697,0.65022 -0.19813,0.78588 -0.21046,0.69304 -0.41439,1.96175 -0.79931,4.97307 -0.29085,2.27308 -0.46284,3.38257 -0.54861,3.53366 -0.12659,0.22295 -0.26635,0.2803 -0.69081,0.28347 -0.12899,9.8e-4 -0.25008,0.002 -0.2691,0.003 -0.019,6.6e-4 0.0368,0.0809 0.12392,0.17777 0.20323,0.22591 0.28645,0.57197 0.23569,0.97997 -0.0323,0.25963 -0.0979,0.36061 -0.33389,0.51377 -0.17222,0.11178 -0.35545,0.16599 -0.44302,0.13107 -0.0821,-0.0328 -0.13474,-0.0278 -0.11693,0.0111 0.028,0.061 -1.11277,0.46156 -1.26174,0.44302 -0.0298,-0.004 -0.25814,0.0601 -0.50746,0.14174 -0.80245,0.26282 -3.01747,0.46971 -3.80652,0.35555 -0.0921,-0.0135 -0.36095,0.008 -0.59722,0.0469 -0.39514,0.0654 -1.40066,-0.0298 -2.36691,-0.22413 z m 1.54881,-1.45516 c -0.0216,-0.0472 0.0971,-0.0943 0.26395,-0.10463 0.16682,-0.0103 0.304,-0.0243 0.30483,-0.0309 8.6e-4,-0.007 -0.023,-0.14938 -0.0531,-0.31705 -0.03,-0.16767 -0.0494,-0.45777 -0.0431,-0.64469 0.0141,-0.41776 0.009,-1.50715 -0.0105,-2.29068 -0.008,-0.32165 0.0154,-0.62221 0.0523,-0.6679 0.0375,-0.0466 0.0247,-0.0637 -0.0294,-0.039 -0.0617,0.0283 -0.10272,-0.17894 -0.11428,-0.57694 -0.01,-0.34158 -0.0266,-0.83329 -0.037,-1.09268 -0.0105,-0.25939 -0.0141,-0.72057 -0.008,-1.02485 0.006,-0.30428 0.006,-0.63068 -9.6e-4,-0.72533 -0.0103,-0.1518 -0.0584,-1.68464 -0.0672,-2.14134 -0.002,-0.0941 -0.0148,-0.28766 -0.0289,-0.4302 -0.0364,-0.36697 -0.0662,-0.8258 -0.11463,-1.76331 -0.0232,-0.44867 -0.12707,-1.53025 -0.23084,-2.4035 -0.10377,-0.87325 -0.16287,-1.63608 -0.13134,-1.69517 0.0315,-0.0591 0.0105,-0.1571 -0.0464,-0.21777 -0.057,-0.0607 -0.13126,-0.37027 -0.165,-0.68799 -0.0337,-0.3177 -0.11379,-0.94892 -0.17791,-1.40268 -0.0641,-0.45378 -0.13078,-1.15316 -0.14814,-1.55418 -0.029,-0.67115 -0.0192,-0.7361 0.12355,-0.8165 0.2,-0.11266 0.72925,-0.0468 0.87954,0.10943 0.10369,0.10782 0.3682,1.96693 0.30239,2.1255 -0.0144,0.0348 0.0196,0.18405 0.0756,0.33179 0.0891,0.23505 0.10817,0.44196 0.11153,1.20834 4.1e-4,0.0939 0.0178,0.19206 0.0388,0.21812 0.0377,0.0469 0.1786,0.98283 0.23558,1.56506 0.0163,0.16626 0.0615,0.51742 0.10041,0.78036 0.0812,0.54822 0.11005,0.88558 0.10714,1.25312 -0.001,0.14209 0.0372,0.5692 0.0853,0.94912 0.093,0.73585 0.15323,1.55913 0.1447,1.97769 -0.003,0.14042 0.0133,0.31974 0.036,0.39848 0.0227,0.0787 0.0325,0.31033 0.022,0.51466 -0.0105,0.20432 -0.001,0.88842 0.0202,1.52022 0.0217,0.63181 0.0414,1.26777 0.044,1.41324 0.0128,0.72717 0.0911,1.79171 0.17382,2.36327 0.0508,0.35132 0.0869,0.85493 0.0802,1.11913 -0.007,0.26418 -0.002,0.67356 0.0101,0.90972 0.0123,0.23617 0.0148,0.48604 0.006,0.55528 -0.009,0.0693 -0.0186,0.36633 -0.0207,0.66021 l -0.004,0.53431 0.30939,-0.0141 c 1.22238,-0.0559 4.54457,-0.79536 4.57223,-1.0177 0.005,-0.0381 0.0654,-0.0622 0.13465,-0.0536 0.0694,0.009 0.13073,-0.0221 0.13648,-0.0684 0.006,-0.0463 0.0659,-0.0772 0.13366,-0.0687 0.0974,0.0121 0.0932,-0.0539 -0.0209,-0.31668 -0.0896,-0.20646 -0.10794,-0.33926 -0.0486,-0.35116 0.0644,-0.013 0.0845,-0.12323 0.0618,-0.33944 -0.0329,-0.31333 0.32449,-2.97357 0.72371,-5.38791 0.23234,-1.40508 0.6272,-3.1496 0.93911,-4.14914 0.51646,-1.655 0.68375,-2.38892 1.03067,-4.52167 0.20196,-1.24187 0.39177,-2.33167 0.42171,-2.42181 0.049,-0.14761 0.19481,-0.94215 0.55884,-3.04463 0.33772,-1.95076 0.46897,-2.64958 0.53636,-2.85545 0.0902,-0.2755 0.002,-0.29603 -0.27845,-0.0651 -0.37015,0.30451 -1.2007,0.52094 -2.93317,0.76436 -0.26269,0.0369 -0.65457,0.10072 -0.87084,0.14179 -0.21628,0.0411 -0.47869,0.0639 -0.58313,0.0507 -0.10445,-0.0132 -0.35914,0.028 -0.56598,0.0916 -0.20683,0.0635 -0.51112,0.12108 -0.67619,0.12776 -0.16506,0.007 -0.55325,0.0408 -0.86264,0.0759 -0.30937,0.0351 -0.81218,0.0647 -1.11733,0.0659 -0.30517,0.001 -0.78679,0.0148 -1.07027,0.0303 -0.28349,0.0155 -1.02486,0.0261 -1.64752,0.0235 -0.62265,-0.003 -1.62489,0.0295 -2.22719,0.0715 -0.60231,0.0419 -1.30486,0.0649 -1.56123,0.0511 -0.25637,-0.0139 -0.82913,-0.0392 -1.27279,-0.0563 -1.62504,-0.0627 -4.957277,-0.56291 -5.612968,-0.84249 -0.126273,-0.0538 -0.248447,-0.0832 -0.271535,-0.0652 -0.0231,0.018 -0.457598,-0.0967 -0.96556,-0.25496 -0.507963,-0.15822 -0.956318,-0.27263 -0.99636,-0.25428 -0.129881,0.0595 0.18708,1.97042 0.491018,2.9603 0.05996,0.19516 0.269787,0.91235 0.466356,1.59376 0.196588,0.68143 0.429294,1.47825 0.517138,1.77073 0.265264,0.88319 1.041446,3.08206 1.29153,3.65877 0.360411,0.83112 1.023059,2.66723 3.062731,8.48637 0.17197,0.49065 0.41127,1.11553 0.53176,1.38861 0.12048,0.27307 0.23489,0.59446 0.25423,0.71418 0.0194,0.11973 0.13545,0.42212 0.25799,0.67199 0.12257,0.24987 0.41237,0.98148 0.64403,1.62578 l 0.4212,1.17145 0.43217,0.10476 c 0.23769,0.0577 1.18522,0.22393 2.10563,0.36944 0.9204,0.14554 1.68746,0.28077 1.70457,0.30044 0.0603,0.0694 0.0965,0.0429 0.0576,-0.0419 z m -1.94007,-0.6936 c -0.0541,-0.1123 -0.16647,-0.51983 -0.24984,-0.9056 -0.0834,-0.38577 -0.19971,-0.86097 -0.25855,-1.056 -0.16715,-0.55403 -0.29639,-1.23441 -0.33706,-1.7745 -0.005,-0.0618 -0.0542,-0.3944 -0.11003,-0.7389 -0.14544,-0.897 -0.21396,-1.3511 -0.39617,-2.62536 -0.0888,-0.62107 -0.24701,-1.71578 -0.35155,-2.43267 -0.32854,-2.25284 -0.36356,-2.50679 -0.41915,-3.03833 -0.0298,-0.28526 -0.0993,-0.80213 -0.1543,-1.14859 -0.055,-0.34647 -0.0884,-0.72316 -0.0743,-0.83709 0.0142,-0.11394 10e-4,-0.29841 -0.0287,-0.40992 -0.03,-0.11152 -0.12295,-0.63362 -0.20666,-1.16021 -0.23872,-1.50183 -0.49659,-2.85102 -0.607,-3.17603 -0.12464,-0.36683 -0.0793,-0.62605 0.12985,-0.74238 0.23059,-0.12826 0.75486,-0.0399 0.93061,0.15679 0.16965,0.18987 0.31732,0.78903 0.31999,1.29826 10e-4,0.18784 0.0744,0.71528 0.16308,1.1721 0.0887,0.45684 0.16637,0.88897 0.17256,0.96032 0.006,0.0713 0.0361,0.30542 0.0664,0.52018 0.0303,0.21475 0.0542,0.46714 0.0531,0.56085 -0.001,0.0937 0.028,0.25091 0.0648,0.34933 0.0367,0.0984 0.0996,0.43259 0.13972,0.74259 0.0401,0.31002 0.11836,0.91485 0.17389,1.34409 0.0555,0.42924 0.16351,1.11457 0.23993,1.52293 0.22653,1.21047 0.39694,2.39265 0.41326,2.86696 0.0115,0.33511 0.10473,0.97902 0.16645,1.15003 0.0308,0.0854 0.0464,0.23176 0.0348,0.32544 -0.0117,0.0937 0.004,0.24017 0.0356,0.32553 0.0717,0.19605 0.30038,1.77322 0.28079,1.93646 -0.008,0.067 0.0259,0.2305 0.0755,0.3633 0.0496,0.13282 0.12567,0.46863 0.16915,0.74626 0.10298,0.65753 0.43349,2.05912 0.61397,2.60369 0.20915,0.63105 0.01,1.07588 -0.54839,1.22242 -0.42395,0.11135 -0.38486,0.12085 -0.50168,-0.12197 z m -2.24399,-0.79109 c -0.14792,-0.21238 -0.5417,-1.356 -0.52185,-1.51558 0.006,-0.0475 -0.0444,-0.25103 -0.1118,-0.45226 -0.31825,-0.95009 -0.90896,-3.60007 -1.2345,-5.53804 -0.0724,-0.43135 -0.19342,-1.02885 -0.26879,-1.32778 -0.0754,-0.29894 -0.134458,-0.57504 -0.131257,-0.61357 0.0028,-0.0386 -0.04843,-0.23037 -0.114706,-0.42631 -0.06632,-0.19596 -0.118398,-0.38385 -0.115798,-0.41754 0.0022,-0.0338 -0.07789,-0.32303 -0.178861,-0.64295 -0.100975,-0.31994 -0.178741,-0.62068 -0.172814,-0.66832 0.01011,-0.0813 -0.253362,-0.88304 -0.421483,-1.28265 -0.0417,-0.099 -0.200012,-0.59865 -0.351872,-1.11026 -0.291207,-0.98108 -0.917517,-2.88362 -1.025023,-3.11371 -0.03495,-0.0747 -0.121275,-0.31584 -0.191921,-0.53579 -0.07068,-0.21996 -0.208685,-0.64575 -0.306751,-0.94621 -0.211546,-0.6481 -0.184713,-1.11529 0.06972,-1.21326 0.238993,-0.0921 0.799053,-0.0115 0.944138,0.1358 0.06585,0.0668 0.167671,0.28108 0.226256,0.47608 0.05858,0.19498 0.326084,0.99614 0.594462,1.78034 0.268368,0.7842 0.558106,1.7033 0.643872,2.04244 0.08577,0.33916 0.182478,0.65641 0.214924,0.70503 0.03245,0.0486 0.05294,0.14715 0.04542,0.21895 -0.0079,0.0718 0.05594,0.33117 0.140811,0.57637 0.08492,0.24518 0.149503,0.48782 0.143553,0.53919 -0.006,0.0513 0.0621,0.23611 0.15124,0.41053 0.0891,0.17442 0.26912,0.74928 0.39996,1.27746 0.13082,0.52819 0.26237,1.04017 0.2923,1.13775 0.03,0.0975 0.13446,0.43692 0.23228,0.75411 0.21776,0.70605 0.27398,0.99147 0.3724,1.89081 0.0422,0.38622 0.13102,0.87719 0.19723,1.09103 0.0662,0.21384 0.14152,0.60081 0.16736,0.85996 0.0258,0.25914 0.11435,0.68475 0.19671,0.94582 0.0823,0.26105 0.15356,0.52124 0.15823,0.5782 0.005,0.0569 0.0357,0.20291 0.069,0.32437 0.0333,0.12146 0.0997,0.41096 0.14754,0.64336 0.0479,0.23239 0.27134,0.94271 0.49661,1.57849 0.22528,0.63579 0.39859,1.23996 0.38512,1.3426 -0.035,0.26515 -0.26707,0.58305 -0.41282,0.56491 -0.068,-0.008 -0.17938,0.0257 -0.24764,0.0758 -0.18089,0.13296 -0.31588,0.0922 -0.48125,-0.14522 z m 7.34275,0.48691 c -0.0433,-0.17836 0.14436,-1.69174 0.84729,-6.82679 0.1263,-0.9228 0.32462,-2.72183 0.44084,-3.99783 0.25929,-2.84725 0.75352,-6.86277 1.00319,-8.15117 0.15865,-0.81845 0.21365,-0.97617 0.37719,-1.08232 0.14169,-0.0919 0.22907,-0.0977 0.33591,-0.0222 0.0795,0.0561 0.21832,0.11121 0.30868,0.12245 0.0903,0.0112 0.2367,0.0967 0.32525,0.18977 0.15847,0.16668 0.15695,0.19091 -0.097,1.54502 -0.14189,0.75662 -0.38233,2.39683 -0.53428,3.64492 -0.15224,1.24805 -0.30203,2.41963 -0.33395,2.60335 -0.0319,0.18373 -0.0586,0.37238 -0.0602,0.41911 -0.002,0.0467 -0.13567,1.29704 -0.2987,2.77838 -0.16303,1.48134 -0.41281,3.83819 -0.55524,5.23743 -0.2537,2.49364 -0.26305,2.54936 -0.47234,2.80951 -0.11742,0.14598 -0.22585,0.36493 -0.24098,0.48655 -0.0151,0.12163 -0.0653,0.21643 -0.11156,0.21068 -0.0463,-0.006 -0.0905,0.0415 -0.0984,0.10507 -0.013,0.10421 -0.36649,0.17837 -0.67017,0.14059 -0.0647,-0.008 -0.13924,-0.10368 -0.1657,-0.21258 z m -2.2299,-5.46057 c 0.006,-0.0462 -0.0296,-0.089 -0.0786,-0.0951 -0.0489,-0.006 -0.0703,0.0296 -0.0475,0.0794 0.0228,0.0498 0.0581,0.0926 0.0785,0.0951 0.0204,0.003 0.0417,-0.0332 0.0475,-0.0795 z m -5.71947,-18.83481 c 0.14093,-0.001 0.61874,0.0158 1.06181,0.0377 1.13239,0.0559 1.61143,0.0482 3.03491,-0.0488 0.68718,-0.0468 1.08804,-0.0556 1.75383,-0.0384 0.40295,0.0104 1.29625,-0.009 2.39533,-0.0515 0.16504,-0.006 0.43021,-0.0119 0.58926,-0.0121 0.15905,-2.7e-4 0.33071,-0.0195 0.38148,-0.0428 0.0507,-0.0232 0.30965,-0.064 0.57532,-0.0905 2.36787,-0.23636 4.70064,-0.77905 5.30943,-1.23517 0.69243,-0.51878 1.14748,-1.40985 1.07325,-2.10162 -0.0186,-0.17364 -0.47211,-0.72538 -0.75642,-0.92031 -0.22125,-0.1517 -1.29497,-0.43794 -1.6842,-0.44899 -0.1052,-0.003 -0.18688,-0.0409 -0.18149,-0.0842 0.005,-0.0434 -0.0956,-0.0808 -0.22431,-0.0833 -0.12876,-0.003 -0.26925,-0.0305 -0.31223,-0.062 -0.0429,-0.0316 -0.29983,-0.094 -0.57081,-0.13863 -0.27099,-0.0446 -0.5776,-0.12607 -0.68136,-0.181 -0.10378,-0.0549 -0.19145,-0.0776 -0.19484,-0.0503 -0.003,0.0273 -0.10136,-0.0339 -0.21772,-0.13585 -0.1908,-0.16724 -0.38488,-0.20621 -1.97696,-0.39695 -0.97092,-0.11675 -1.99744,-0.19801 -2.28105,-0.18145 -0.28361,0.0165 -0.72629,0.0258 -0.98372,0.0205 -0.25744,-0.005 -0.65957,-0.0133 -0.8936,-0.0181 -0.395,-0.008 -1.10322,0.003 -2.68733,0.0419 -0.7862,0.0192 -3.65298,0.3312 -4.396941,0.47849 -0.542272,0.10735 -1.920565,0.49428 -2.097595,0.58885 -0.05029,0.0268 -0.289,0.0941 -0.530512,0.14948 -0.394739,0.0905 -1.625177,0.51794 -1.996989,0.69377 -1.377093,0.65123 -1.622851,0.81022 -2.108647,1.36409 -0.130144,0.14838 -0.238249,0.2829 -0.240245,0.29895 -0.002,0.0161 0.08771,0.0645 0.199342,0.10783 0.111954,0.0434 0.319098,0.28264 0.461935,0.53354 0.379206,0.6661 0.604122,0.75216 3.934857,1.50543 0.661232,0.14957 3.681415,0.50626 4.246225,0.50156 z"
       id="path836"
       sodipodi:nodetypes="sssscsscsssssssssssscssssssssssssssssssscscscscccssscsssssssssscsssssssssssssssscsssssscsssssssssscssscccsssssssssssssssssssssssssssssssssssssssscssscccsssssssssssssssscscssssssscccsssccsscsscscssssssssssssscccsscsssssscsscsssscsscssssscscscsssssccssssssssssssssssssssssssssssssssssssssss" />
  </g>
</svg>
