<?xml version="1.0" encoding="UTF-8" standalone="no"?>
<!-- Created with Inkscape (http://www.inkscape.org/) -->

<svg
   width="43.076969mm"
   height="99.920502mm"
   viewBox="0 0 43.076969 99.920502"
   version="1.1"
   id="svg5"
   inkscape:version="1.1.1 (c3084ef, 2021-09-22)"
   sodipodi:docname="globe copy 6.svg"
   xmlns:inkscape="http://www.inkscape.org/namespaces/inkscape"
   xmlns:sodipodi="http://sodipodi.sourceforge.net/DTD/sodipodi-0.dtd"
   xmlns="http://www.w3.org/2000/svg"
   xmlns:svg="http://www.w3.org/2000/svg">
  <sodipodi:namedview
     id="namedview7"
     pagecolor="#ffffff"
     bordercolor="#666666"
     borderopacity="1.0"
     inkscape:pageshadow="2"
     inkscape:pageopacity="0.0"
     inkscape:pagecheckerboard="0"
     inkscape:document-units="mm"
     showgrid="false"
     inkscape:zoom="0.51580387"
     inkscape:cx="-182.23981"
     inkscape:cy="357.6941"
     inkscape:window-width="2560"
     inkscape:window-height="1387"
     inkscape:window-x="0"
     inkscape:window-y="25"
     inkscape:window-maximized="1"
     inkscape:current-layer="layer1" />
  <defs
     id="defs2" />
  <g
     inkscape:label="Layer 1"
     inkscape:groupmode="layer"
     id="layer1"
     transform="translate(-89.737209,-64.897497)">
    <path
       style="fill:#000000;stroke-width:0.232965"
       d="m 104.08173,164.20922 c -2.34704,-0.64377 -6.236765,-2.47 -7.894685,-3.70661 -2.70637,-2.01857 -4.9196,-6.15119 -6.20058,-11.57781 -0.37683,-1.59623 -0.31533,-6.72474 0.10978,-9.15496 0.36772,-2.10238 1.09842,-4.5165 1.44154,-4.76266 0.10098,-0.0725 0.28564,-0.35751 0.41023,-0.63338 0.23856,-0.52797 1.50196,-2.1515 2.37084,-3.04637 0.30341,-0.31247 0.79264,-0.52893 1.19544,-0.52893 0.49954,0 0.84084,-0.20849 1.27663,-0.77986 0.59789,-0.78386 2.14214,-2.30951 3.14354,-3.10568 0.503085,-0.39997 0.520445,-0.49576 0.267165,-1.47437 -0.14913,-0.57564 -0.271015,-1.3087 -0.271015,-1.62903 -1.1e-4,-0.32032 -0.0993,-1.52586 -0.22068,-2.67897 -0.12134,-1.15311 -0.21407,-4.35186 -0.20636,-7.10832 l 0.0137,-5.01177 -1.99787,-1.97728 c -2.5607,-2.53437 -3.43775,-3.79393 -3.24688,-4.66292 0.15354,-0.6989 1.87851,-2.556071 2.37415,-2.556071 0.16701,0 0.30349,-0.06612 0.30349,-0.146932 0,-0.358153 -3.32092,-3.39614 -4.04158,-3.697256 -0.85111,-0.355612 -1.41887,-1.419565 -1.15331,-2.161214 0.31761,-0.887017 2.25428,-2.875654 3.23604,-3.322902 0.56483,-0.257324 1.02698,-0.545007 1.02698,-0.639308 0,-0.22692 -1.00827,-1.042105 -2.44612,-1.977662 -1.51891,-0.98829 -1.54076,-1.528652 -0.123,-3.04273 1.08062,-1.154066 1.99686,-2.440417 1.84109,-2.584791 -0.60061,-0.556775 -2.49004,-1.837203 -3.64976,-2.47341 -2.14032,-1.174146 -2.20336,-2.24159 -0.23196,-3.928972 0.51919,-0.444416 1.22565,-1.196846 1.5699,-1.672071 0.34425,-0.47522 1.40153,-1.529751 2.34955,-2.343398 0.94796,-0.813646 2.5657,-2.274586 3.59492,-3.246535 1.02919,-0.971948 2.333525,-2.203748 2.898445,-2.737333 1.2953,-1.223377 1.92964,-1.243964 3.96223,-0.12858 0.84349,0.462857 1.58605,0.91462 1.65011,1.003916 0.0641,0.08929 0.60371,0.431057 1.19926,0.759477 2.08108,1.14769 8.27327,5.965287 9.25967,7.204155 0.53515,0.672135 1.20306,1.336752 1.48424,1.476929 0.32108,0.160086 0.53015,0.501429 0.56217,0.917876 0.0281,0.364654 0.10209,0.714081 0.16455,0.776503 0.0625,0.06243 0.011,0.382149 -0.11337,0.710505 -0.23856,0.627207 -0.3118,14.662829 -0.10125,19.390022 0.19893,4.467202 0.66711,9.342172 0.93957,9.783052 0.0688,0.11121 0.0165,0.26913 -0.11557,0.3509 -0.13235,0.0818 -0.19371,0.22456 -0.13648,0.3173 0.0572,0.0927 0.16207,2.31323 0.23251,4.9344 0.19316,7.17646 0.35855,10.22738 0.62807,11.58765 0.134,0.6769 0.18325,1.67751 0.10923,2.22358 l -0.13455,0.99285 1.97135,0.40973 c 2.47813,0.51506 3.97167,1.30874 5.7022,3.03025 1.81726,1.80774 2.93626,3.97849 3.38892,6.57428 0.59339,3.40274 0.39704,7.75522 -0.48791,10.81522 -0.44223,1.52906 -2.34534,5.54849 -3.27343,6.91359 -1.07701,1.5841 -3.16549,3.66382 -4.62203,4.60263 -0.38433,0.24772 -0.83889,0.59003 -1.01014,0.76066 -0.45448,0.45281 -3.00728,1.6827 -3.16508,1.52487 -0.074,-0.074 -0.13455,-0.0275 -0.13455,0.10335 0,0.13081 -0.76004,0.45896 -1.68899,0.72921 -4.66104,1.35596 -10.37325,1.60271 -14.01005,0.60518 z m 7.77827,-3.36506 c 4.97141,-0.77542 7.47862,-2.01407 10.94932,-5.40935 2.61146,-2.55471 3.97219,-5.55359 4.75806,-10.48625 0.41884,-2.62867 0.0737,-7.08776 -0.67526,-8.7262 -0.77954,-1.70516 -2.43672,-3.41208 -3.67148,-3.78166 -1.29677,-0.38814 -2.98906,-1.18286 -3.47919,-1.63389 -0.2138,-0.19677 -0.46328,-0.65486 -0.55435,-1.01799 -0.0911,-0.36313 -0.39664,-0.89133 -0.67909,-1.17378 -0.38133,-0.38133 -0.52458,-0.82503 -0.55636,-1.72335 -0.0248,-0.66538 -0.13317,-1.4476 -0.24351,-1.73827 -0.31219,-0.82266 -0.45838,-2.69637 -0.61379,-7.86686 -0.15464,-5.14116 -0.36078,-7.96645 -0.92364,-12.65217 -0.42979,-3.5777 -0.54343,-6.664545 -0.69581,-18.89808 l -0.11584,-9.30215 -0.86126,-0.71532 c -0.86294,-0.71674 -2.98579,-2.332798 -5.07091,-3.860342 -0.61214,-0.448456 -1.52755,-1.043673 -2.03428,-1.322702 -0.5067,-0.279029 -1.17285,-0.672157 -1.4803,-0.873617 -0.30746,-0.201468 -0.69378,-0.364764 -0.85843,-0.362899 -0.28528,0.0033 -2.20936,1.634651 -5.978975,5.069571 -0.94554,0.861589 -1.83663,1.53158 -1.98018,1.488871 -0.14363,-0.0427 -0.18325,4.1e-5 -0.0883,0.09501 0.0949,0.09495 -0.18876,0.613705 -0.63046,1.152758 l -0.80313,0.980101 1.1094,0.603814 c 0.61018,0.332098 1.31323,0.829168 1.56233,1.104603 0.24901,0.275438 0.83914,0.697917 1.31119,0.938842 0.472055,0.240926 1.139365,0.698561 1.482945,1.016964 0.80078,0.742161 0.63533,1.61993 -0.411,2.180231 -0.743795,0.398294 -2.512625,2.076153 -2.512625,2.38338 0,0.09253 0.28828,0.351912 0.64064,0.576388 1.627325,1.036707 3.528335,2.601113 3.673975,3.023432 0.34406,0.997606 -0.17857,2.73459 -0.79401,2.639458 -0.37033,-0.05723 -3.306865,0.998817 -3.986555,1.433672 -0.29361,0.187848 -0.25644,0.286546 0.23306,0.617753 0.79071,0.535162 4.796325,4.595616 5.107965,5.177885 0.13758,0.257127 0.25012,0.679997 0.25012,0.939687 0,0.60688 -0.87334,1.42218 -1.52342,1.42218 -0.69042,0 -1.971045,0.46567 -1.971045,0.71674 0,0.21008 1.517425,1.76607 3.190475,3.2716 0.51545,0.46383 1.01111,1.13788 1.10144,1.49789 0.0905,0.36001 0.19206,3.44004 0.22618,6.8445 0.0633,6.32702 0.15519,7.50905 0.62768,8.07847 0.17583,0.21193 0.18436,0.32463 0.0248,0.32463 -0.15519,0 -0.18023,0.23515 -0.0677,0.64065 0.0977,0.35236 0.20389,1.26757 0.23608,2.03379 0.0322,0.76623 0.10869,1.47386 0.1695,1.57251 0.0611,0.0987 -1.7e-4,0.17938 -0.13593,0.17938 -0.13565,0 -0.24819,0.23589 -0.25039,0.52417 -0.002,0.28829 -0.0806,0.629 -0.17472,0.75713 -0.22921,0.31213 -1.14635,0.81538 -1.48581,0.81538 -0.14996,0 -1.169,0.90244 -2.26455,2.00542 -1.328855,1.33785 -2.403065,2.19348 -3.226955,2.57033 -2.08502,0.9537 -2.84786,2.61684 -3.37508,7.35824 -0.21132,1.9004 -0.21572,3.2013 -0.0193,5.36321 0.61428,6.71671 3.50503,11.06202 8.855905,13.3121 2.40318,1.01053 5.58859,1.3166 8.68169,0.83415 z m -1.53644,-1.28021 c -1.49291,-0.31522 -3.88373,-1.24197 -4.01588,-1.55666 -0.0426,-0.1017 -0.15739,-0.18491 -0.2548,-0.18491 -0.22617,0 -1.7089,-1.24665 -2.89441,-2.43346 -1.33926,-1.34075 -2.48087,-3.98239 -2.48087,-5.74068 0,-0.79475 0.16619,-1.76412 0.38697,-2.2585 0.2127,-0.47637 0.41642,-1.3903 0.45239,-2.03096 0.1029,-1.83411 0.13812,-1.96152 0.71375,-2.58249 0.29895,-0.32259 0.54357,-0.67379 0.54357,-0.78043 0,-0.30706 2.23046,-1.12289 4.8906,-1.78881 5.53509,-1.38562 10.30507,-0.0929 13.83016,3.74802 0.23828,0.25953 0.53424,0.44305 0.65795,0.40784 0.12382,-0.0352 0.16454,0.0339 0.0905,0.15349 -0.074,0.11961 0.0325,0.86914 0.23664,1.6656 0.53605,2.09252 0.37341,5.57629 -0.32598,6.98109 -0.59942,1.20402 -2.06889,2.86969 -3.42174,3.87865 -1.25531,0.9362 -3.05249,1.95439 -3.65414,2.07026 -0.26993,0.052 -0.81636,0.19274 -1.21401,0.31273 -1.35585,0.40914 -2.12018,0.43919 -3.54075,0.13923 z m 3.09789,-4.55141 c 1.82119,-0.94855 3.44617,-2.42868 4.20444,-3.82966 0.2669,-0.49297 0.37232,-1.25528 0.35806,-2.58728 -0.022,-2.00589 -0.39341,-3.09357 -1.31232,-3.83765 -1.76286,-1.4275 -9.24366,-0.69596 -11.01695,1.07733 -0.31481,0.31479 -0.5622,0.42067 -0.61475,0.26304 -0.0589,-0.1767 -0.29354,-0.12904 -0.71081,0.14435 -0.34257,0.22447 -0.62287,0.30088 -0.62287,0.1698 0,-0.13109 -0.20967,-0.23834 -0.46594,-0.23834 -0.55675,0 -0.58468,0.14751 -0.1164,0.61569 0.22508,0.22499 0.34945,0.80093 0.34945,1.61727 0,0.6973 0.0883,1.44986 0.19646,1.67235 0.74707,1.53727 1.64878,3.09858 1.98194,3.43174 0.15959,0.1597 0.61602,0.45876 1.01406,0.66458 0.39801,0.20582 0.89827,0.54882 1.11165,0.76222 0.21352,0.21338 0.77371,0.52574 1.24513,0.6941 1.49277,0.53309 2.44252,0.39932 4.39879,-0.61956 z m -11.72559,-14.58133 c -0.34975,-0.18143 -0.79415,-0.55587 -0.98758,-0.83205 -0.19344,-0.27617 -0.55774,-0.70815 -0.809555,-0.95995 -0.25177,-0.2518 -0.48444,-0.67751 -0.51697,-0.94601 -0.0325,-0.26849 -0.11996,-0.64543 -0.19453,-0.83763 -0.33808,-0.87268 0.81061,-1.27828 1.794445,-0.63363 0.34535,0.22626 0.6279,0.60582 0.6279,0.84344 0,0.23763 0.15739,0.56254 0.34945,0.72205 0.19233,0.15951 0.34945,0.42729 0.34945,0.59507 0,0.16779 0.30977,0.52563 0.68835,0.79522 0.76986,0.54818 0.74149,0.92857 -0.0985,1.31962 -0.44072,0.20516 -0.7079,0.19049 -1.20251,-0.0661 z m 18.08494,-1.23281 c 0,-0.56306 -0.47509,-1.64393 -0.72256,-1.64393 -0.0999,0 -0.24654,0.10483 -0.32578,0.23297 -0.18408,0.29771 -2.04795,0.305 -2.34377,0.009 -0.14308,-0.14308 -0.68123,-0.0897 -1.49214,0.14801 -0.86233,0.25278 -1.29513,0.29132 -1.35211,0.1204 -0.0462,-0.13826 -0.23416,-0.19365 -0.41818,-0.12307 -0.1838,0.0706 -0.3344,-0.005 -0.3344,-0.1684 0,-0.16319 -0.0702,-0.22659 -0.15573,-0.1409 -0.21297,0.21305 -1.00902,-0.53679 -1.00902,-0.95055 0,-0.18383 0.2358,-0.52548 0.52417,-0.75921 0.2883,-0.23375 0.44891,-0.50053 0.35693,-0.59287 -0.20224,-0.2029 -1.58,0.33481 -1.58,0.6166 0,0.10963 -0.26277,0.37147 -0.58377,0.58185 -0.49816,0.32639 -0.68929,0.33881 -1.30283,0.0847 -0.55872,-0.23143 -0.75777,-0.23515 -0.89279,-0.0168 -0.13015,0.21057 -0.24902,0.19065 -0.47294,-0.0793 -0.36127,-0.43532 -0.97341,-0.46611 -1.3769,-0.0693 -0.23746,0.23358 -0.37955,0.18914 -0.71782,-0.22464 -0.41981,-0.51345 -0.42143,-0.51101 -0.35165,0.52408 0.0564,0.83673 -0.0248,1.10606 -0.41312,1.37838 -0.71766,0.50268 -1.19315,0.12266 -2.05174,-1.63972 l -0.75041,-1.54033 0.69769,-0.69768 c 0.62636,-0.62635 0.74858,-0.66589 1.19549,-0.38678 0.27378,0.17098 0.49781,0.44292 0.49781,0.60429 0,0.16138 0.10483,0.29341 0.23305,0.29341 0.12823,0 0.20665,-0.13103 0.17473,-0.29121 -0.0848,-0.42327 1.26508,-0.27471 1.51195,0.16642 0.31612,0.56491 0.66664,0.41667 0.50812,-0.2149 -0.0974,-0.38765 0.0165,-0.79661 0.34989,-1.26587 0.43637,-0.6128 0.59436,-0.67824 1.36235,-0.56417 1.09561,0.16273 1.91274,0.66397 1.93186,1.18501 0.011,0.28298 0.0817,0.23512 0.23993,-0.16135 0.14914,-0.37324 0.14419,-0.64476 -0.0138,-0.80373 -0.43048,-0.43046 -0.27076,-0.88252 0.28409,-0.80374 0.43714,0.0621 0.53617,0.24118 0.59651,1.07863 0.0691,0.95743 0.66967,1.90787 1.20584,1.90787 0.1263,0 0.37751,-0.34071 0.55801,-0.75713 0.18051,-0.41642 0.63391,-1.11417 1.00759,-1.55054 0.5554,-0.64859 0.78904,-0.76589 1.27997,-0.64268 0.64672,0.16232 0.95627,0.88033 0.73849,1.71307 -0.0905,0.346 -0.011,0.51993 0.26222,0.57539 0.34733,0.0704 0.33492,0.14509 -0.10924,0.65588 l -0.50122,0.57639 0.70299,0.23898 c 0.38668,0.13144 0.8313,0.36789 0.98811,0.52545 0.22535,0.2264 0.44729,0.10423 1.05844,-0.58241 0.42531,-0.47788 0.77341,-0.94751 0.77349,-1.04361 1.1e-4,-0.0961 0.10511,-0.17472 0.23305,-0.17472 0.34648,0 0.28179,0.75846 -0.11281,1.32166 -0.31901,0.45544 -0.29953,0.52366 0.25259,0.88548 0.52263,0.34245 0.64736,0.34968 0.9863,0.0571 0.69561,-0.6004 1.4138,-0.63255 2.01149,-0.09 0.67487,0.61253 0.49484,1.30568 -0.50442,1.9419 -0.35924,0.22874 -0.7154,0.50281 -0.79145,0.60904 -0.0762,0.10624 -0.52161,0.24071 -0.99012,0.29881 -0.72696,0.0902 -0.8518,0.0386 -0.8518,-0.35153 z m -6.06065,-3.49933 c 0.003,-0.28443 -0.0591,-0.27846 -0.37344,0.0359 -0.20774,0.20771 -0.29925,0.50284 -0.20389,0.65721 0.20169,0.32618 0.57128,-0.11766 0.57731,-0.6931 z m -0.67894,-8.83034 c -0.12822,-0.23941 -0.15794,-0.5182 -0.0663,-0.61953 0.0916,-0.10131 -0.008,-0.12159 -0.2226,-0.045 -0.23664,0.0847 -0.62978,-0.0838 -1.0033,-0.42993 -0.50348,-0.46661 -0.80205,-0.55348 -1.65745,-0.48222 -1.38199,0.11513 -1.54841,-0.22466 -1.63657,-3.34215 -0.0649,-2.29734 -0.11281,-3.79317 -0.44401,-13.8654 -0.0715,-2.17822 -0.17142,-4.53699 -0.22178,-5.2417 -0.0504,-0.70472 -0.15876,-3.482819 -0.24048,-6.173558 -0.082,-2.690739 -0.24902,-5.835759 -0.37116,-6.988932 -0.67996,-6.413622 -0.9197,-8.794124 -1.04405,-10.366917 -0.0759,-0.960979 -0.18105,-2.009318 -0.2336,-2.329645 -0.52756,-3.215468 -0.30925,-4.992495 0.62201,-5.062645 0.50037,-0.0377 1.37569,1.134064 1.37726,1.843686 0,0.215583 0.21022,0.458457 0.46625,0.539696 0.2559,0.08123 0.51116,0.376597 0.56707,0.656352 0.0558,0.279753 0.17004,0.875562 0.25342,1.324017 0.0834,0.448456 0.19508,2.964472 0.24819,5.591146 0.0966,4.779219 0.13152,5.358736 0.51847,8.619684 0.11419,0.960978 0.23223,3.214909 0.2625,5.008734 0.0303,1.793828 0.10318,3.733256 0.16179,4.309843 0.0586,0.576589 0.14198,1.693539 0.18518,2.482119 0.0432,0.78857 0.14528,1.54211 0.22728,1.67452 0.0817,0.1324 0.13565,0.53554 0.11969,0.89586 -0.0165,0.36032 0.0286,1.59863 0.0991,2.75181 0.0704,1.15317 0.19619,3.564 0.27907,5.35738 0.0828,1.79339 0.20499,3.34835 0.2713,3.45548 0.0663,0.10712 0.14473,1.604 0.17472,3.32638 0.0481,2.7741 0.10484,3.16864 0.49817,3.45616 0.24406,0.17852 0.47786,0.29058 0.51941,0.24904 0.10648,-0.10649 0.0597,-4.47109 -0.06,-5.594 -0.0545,-0.51252 -0.16207,-2.66162 -0.23884,-4.77577 -0.13427,-3.6944 -0.49277,-8.0977 -0.72272,-8.87471 -0.16592,-0.56061 -0.46518,-5.631586 -0.6793,-11.509679 -0.0699,-1.921957 -0.1761,-4.385555 -0.23554,-5.474662 -0.0594,-1.08911 -0.17279,-3.34304 -0.25176,-5.008737 -0.079,-1.665696 -0.22838,-3.492193 -0.33206,-4.05888 -0.17802,-0.972658 -0.11639,-2.437805 0.11832,-2.817767 0.0586,-0.0949 0.32198,-0.228846 0.58522,-0.297684 0.70655,-0.184767 1.39237,0.666587 1.39237,1.728429 0,0.480021 0.10676,1.153562 0.23718,1.496754 0.34142,0.897998 0.49047,3.930204 0.58355,11.869939 0.0451,3.843913 0.098,8.299357 0.11749,9.900987 0.0193,1.60163 0.17555,3.54106 0.34662,4.30984 0.17114,0.76878 0.32504,2.02679 0.34223,2.79558 0.0165,0.76878 0.0732,1.7647 0.12465,2.21316 0.0514,0.44845 0.14556,2.38788 0.20912,4.30984 0.0636,1.92196 0.22342,4.75247 0.35489,6.29004 0.36816,4.30367 0.32295,6.31195 -0.15464,6.86979 -0.50287,0.58729 -1.14172,0.602 -1.4461,0.0333 z"
       id="path836"
       sodipodi:nodetypes="ssssscssssccsccsssssssssssssssssssssssscsscsccscsssssssssssscssssssscscsscssssssssscsssssssssscsssssccsscscscssssscsccssssssssssssscsssssssscssssssssssscssssssscsscssssscsssscsscssssssscssscscsssscsccscccssssssssscsssssssssscsccsscsscscsssssccssscsssscsssccsssccsccscsssssscscscsscscc" />
  </g>
</svg>
