<?xml version="1.0" encoding="UTF-8" standalone="no"?>
<!-- Created with Inkscape (http://www.inkscape.org/) -->

<svg
   width="120.58051mm"
   height="89.001083mm"
   viewBox="0 0 120.58051 89.001083"
   version="1.1"
   id="svg5"
   inkscape:version="1.1.1 (c3084ef, 2021-09-22)"
   sodipodi:docname="laptop_front.svg"
   xmlns:inkscape="http://www.inkscape.org/namespaces/inkscape"
   xmlns:sodipodi="http://sodipodi.sourceforge.net/DTD/sodipodi-0.dtd"
   xmlns="http://www.w3.org/2000/svg"
   xmlns:svg="http://www.w3.org/2000/svg">
  <sodipodi:namedview
     id="namedview7"
     pagecolor="#ffffff"
     bordercolor="#666666"
     borderopacity="1.0"
     inkscape:pageshadow="2"
     inkscape:pageopacity="0.0"
     inkscape:pagecheckerboard="0"
     inkscape:document-units="mm"
     showgrid="false"
     inkscape:zoom="0.6608818"
     inkscape:cx="882.91129"
     inkscape:cy="374.49965"
     inkscape:window-width="2560"
     inkscape:window-height="1387"
     inkscape:window-x="0"
     inkscape:window-y="25"
     inkscape:window-maximized="1"
     inkscape:current-layer="layer1" />
  <defs
     id="defs2" />
  <g
     inkscape:label="Layer 1"
     inkscape:groupmode="layer"
     id="layer1"
     transform="translate(-43.933161,-80.349123)">
    <path
       style="fill:#000000;stroke-width:0.175638"
       d="m 55.3609,169.00108 c -0.31395,-0.19148 -0.57083,-0.44052 -0.57083,-0.55349 0,-0.12032 -0.14376,-0.0753 -0.34679,0.10849 -0.30569,0.27665 -0.41497,0.28653 -0.9221,0.0832 -0.7178,-0.28775 -1.77833,-1.33442 -1.66125,-1.63957 0.13028,-0.33936 -0.06,-0.52134 -0.93388,-0.89381 -1.65239,-0.70419 -3.10825,-1.83843 -4.03968,-3.14729 -0.1448,-0.20371 -0.42153,-0.39329 -0.61473,-0.42153 -0.69977,-0.10227 -1.87645,-0.81887 -2.12097,-1.29168 -0.39832,-0.77029 -0.31185,-1.00628 0.78656,-2.14697 1.29724,-1.34715 3.70306,-3.88816 4.35496,-4.59966 1.99351,-2.17572 4.87944,-5.26162 5.75978,-6.15887 0.58046,-0.59164 1.54075,-1.5796 2.13396,-2.19547 0.59319,-0.6159 3.31997,-3.30966 6.0595,-5.98613 4.95562,-4.84158 4.98085,-4.86994 4.96149,-5.57955 -0.0104,-0.39226 -0.14853,-0.85595 -0.30646,-1.03035 -0.25103,-0.27739 -0.29882,-1.14079 -0.38145,-6.89074 -0.0519,-3.61548 -0.17197,-8.54952 -0.26679,-10.96453 -0.0948,-2.41502 -0.21484,-5.69506 -0.26678,-7.28897 -0.0519,-1.59392 -0.12613,-3.37225 -0.16492,-3.95185 -0.0388,-0.57961 -0.12468,-4.531461 -0.19085,-8.781891 -0.12011,-7.71827 -0.1199,-7.72849 0.25078,-8.05864 0.45808,-0.40802 2.01412,-0.41972 2.77233,-0.0208 0.31708,0.16681 0.76772,0.23409 1.20825,0.18038 1.19106,-0.14519 4.90071,-0.29035 9.22099,-0.3608 3.79971,-0.062 4.55742,-0.1047 6.58641,-0.37158 2.10353,-0.27666 -0.49183,-0.31819 -4.2153,-0.0674 -4.22576,0.28458 -10.3976,0.24343 -12.47028,-0.0831 -1.28446,-0.20238 -1.79995,-0.94524 -1.26625,-1.824805 0.36898,-0.608112 0.86071,-0.679069 3.46172,-0.499531 1.2075,0.08335 2.39305,0.159568 2.63456,0.16938 1.00081,0.04062 4.97931,-0.08673 7.02552,-0.224899 1.20751,-0.08153 2.98584,-0.187324 3.95183,-0.235084 2.31141,-0.114282 6.46291,-0.470038 6.62032,-0.567315 0.0682,-0.04222 1.97347,-0.07707 4.2337,-0.07742 3.88192,-5.27e-4 4.94426,-0.074 11.10072,-0.766834 3.00536,-0.338218 6.5674,-0.592873 9.92352,-0.709439 5.04406,-0.175188 6.93124,-0.302158 8.34281,-0.561277 0.77279,-0.141872 1.56316,-0.284827 1.75638,-0.317701 0.19313,-0.03288 1.0626,-0.18106 1.93201,-0.329278 2.41577,-0.411872 5.51388,-0.689943 6.2951,-0.565021 0.85613,0.136894 1.40765,0.703823 1.25939,1.29457 -0.0994,0.395557 -0.0649,0.415417 0.64909,0.375013 0.93843,-0.05311 1.82236,0.148988 2.0965,0.479298 0.15579,0.187843 0.218,3.240933 0.2452,12.053923 0.0336,10.910121 0.15289,18.207871 0.35801,21.901551 0.0456,0.8211 0.15787,2.67846 0.24954,4.12748 0.0917,1.44901 0.16865,4.34104 0.17114,6.42674 l 0.004,3.7922 0.74645,0.79784 c 1.04856,1.12075 2.11309,2.37875 3.90522,4.61497 0.85159,1.06263 1.71431,2.09812 1.91718,2.3011 0.66111,0.66151 1.52101,1.65075 1.4349,1.65075 -0.0463,0 0.0902,0.1838 0.30312,0.40838 0.21295,0.22461 0.5081,0.56052 0.65584,0.74646 0.45997,0.57883 2.0861,2.37308 3.75318,4.14118 3.26309,3.46079 5.00504,5.35137 5.63926,6.12046 0.98728,1.19717 2.16711,2.28327 2.48033,2.28327 0.15393,0 0.73048,0.24029 1.28146,0.53395 0.78425,0.418 1.05115,0.67057 1.22935,1.16332 0.18628,0.51517 0.18628,0.6549 1.2e-4,0.76995 -0.18234,0.11265 -0.184,0.19293 -0.008,0.4051 0.18297,0.22044 0.10061,0.39081 -0.49428,1.02234 -0.39261,0.41682 -0.71384,0.82319 -0.71384,0.90308 0,0.20831 -0.46786,0.64704 -0.69001,0.64704 -0.10352,0 -0.18815,0.0705 -0.18815,0.15662 0,0.0861 -0.17944,0.20164 -0.39867,0.25666 -0.21927,0.055 -0.55951,0.24142 -0.75606,0.41422 -0.37648,0.33096 -0.5583,0.45313 -1.83111,1.23022 -0.4347,0.26541 -1.0387,0.72972 -1.34222,1.03178 -0.65244,0.64937 -1.26494,0.74178 -5.06855,0.76465 -1.35243,0.008 -3.2098,0.0898 -4.1275,0.18172 -0.9177,0.0919 -2.93314,0.25269 -4.47876,0.35753 -3.6812,0.2497 -4.5923,0.3386 -5.47888,0.53447 -0.40517,0.0896 -1.39313,0.20454 -2.19549,0.25567 -0.80234,0.051 -2.20965,0.16617 -3.12736,0.25581 -0.9177,0.0896 -2.34036,0.21151 -3.16148,0.27096 -0.82111,0.0595 -1.92763,0.18255 -2.45892,0.27344 -0.53131,0.0911 -1.99349,0.32726 -3.24931,0.52513 -1.2558,0.1979 -2.77688,0.47287 -3.38013,0.61111 -1.5251,0.34951 -6.76839,0.96261 -9.09015,1.06294 -2.27819,0.0983 -7.21599,0.40149 -8.3428,0.51201 -3.06321,0.30053 -7.56382,0.47375 -11.15299,0.42923 -2.31842,-0.0288 -5.63798,-0.0307 -7.37679,-0.004 -8.92818,0.13567 -10.86479,0.089 -14.75358,-0.35562 -1.64258,-0.18774 -7.86181,0.004 -8.10816,0.25132 -0.0469,0.0469 -0.33635,0.0124 -0.64304,-0.0763 -0.30667,-0.089 -1.56539,-0.18048 -2.79712,-0.20351 l -2.23953,-0.0417 1.5e-4,0.44787 c 1.4e-4,0.463 -0.28358,0.86991 -0.60581,0.86875 -0.10144,0 -0.4413,-0.15725 -0.75525,-0.34868 z m 0.0736,-3.52688 c 0.10331,-0.10331 0.33646,-0.21581 0.51814,-0.25001 0.18172,-0.0342 0.33032,-0.0749 0.33032,-0.0905 0,-0.0166 1.46218,-0.0554 3.24929,-0.0886 1.78713,-0.0332 3.48643,-0.10165 3.77623,-0.15206 0.96653,-0.16844 5.41038,-0.13878 8.32222,0.0556 1.58261,0.10579 4.03276,0.18151 5.44478,0.16865 1.41202,-0.0125 6.71674,-0.0357 11.78828,-0.0506 5.07154,-0.0145 9.30002,-0.0751 9.39663,-0.1338 0.0967,-0.0587 1.12408,-0.15724 2.28329,-0.219 1.15921,-0.0618 2.50284,-0.14874 2.98584,-0.19313 1.32237,-0.12177 3.42846,-0.24755 5.97169,-0.35652 2.37483,-0.10165 4.92861,-0.3382 6.58642,-0.60987 0.53129,-0.0871 1.36118,-0.19998 1.8442,-0.25091 0.48299,-0.051 2.01656,-0.29364 3.40792,-0.5394 4.89434,-0.86445 9.1021,-1.40713 12.31165,-1.58779 1.0143,-0.057 2.7136,-0.21568 3.77622,-0.35247 1.0626,-0.13671 2.48527,-0.28848 3.16148,-0.3371 2.58238,-0.18567 5.85874,-0.46265 7.40673,-0.62614 0.88585,-0.0936 2.34804,-0.17405 3.24929,-0.17882 0.90125,-0.004 2.50802,-0.10559 3.57064,-0.22412 1.58361,-0.17675 2.05422,-0.29916 2.60968,-0.67918 l 0.67766,-0.46364 -3.13658,0.0278 c -1.72515,0.0145 -4.95446,0.002 -7.17627,-0.0305 -3.8796,-0.056 -5.50652,0.0396 -9.92355,0.58382 -1.88,0.23157 -4.7507,0.52264 -7.02549,0.7123 -1.21635,0.10145 -2.83911,0.25023 -3.86404,0.35434 -0.43471,0.0442 -1.38315,0.12032 -2.10766,0.16949 -3.08844,0.20902 -6.9063,0.54025 -10.27481,0.89137 -1.3524,0.14107 -2.77507,0.28646 -3.16148,0.32329 -0.87015,0.083 -5.51166,0.39008 -9.48444,0.6276 -1.64221,0.0981 -3.77621,0.25325 -4.74222,0.34461 -0.96602,0.0913 -2.6963,0.25 -3.8451,0.35254 -1.36375,0.12177 -6.02735,0.15123 -13.43629,0.0853 -9.84254,-0.0877 -12.89359,-0.0896 -18.15354,-0.0104 -0.55545,0.008 -1.00991,0.0695 -1.00991,0.13587 0,0.0664 -2.33159,0.0919 -5.18132,0.0564 -2.84971,-0.0353 -5.1813,-0.0334 -5.1813,0.004 0,0.0944 1.49867,0.75608 2.45892,1.08558 0.93397,0.32049 2.09859,1.10347 2.1039,1.41446 0.004,0.26912 0.22068,0.28364 0.47258,0.0317 z m 4.7125,-5.83625 c 1.12929,-0.17799 3.38309,-0.35083 4.30312,-0.3299 0.53131,0.0124 3.2976,0.008 6.14731,-0.008 2.84973,-0.0166 6.28784,0.002 7.64025,0.0421 6.23869,0.18421 14.2216,0.0579 16.07086,-0.25454 0.2415,-0.0409 1.14089,-0.12094 1.99862,-0.17819 0.85774,-0.0573 1.6086,-0.13256 1.66857,-0.1672 0.0599,-0.0346 1.33409,-0.11534 2.83141,-0.17924 1.49731,-0.0639 2.91997,-0.14832 3.16148,-0.18774 0.24149,-0.0394 1.42704,-0.11886 2.63457,-0.17653 1.2075,-0.0577 2.63017,-0.17633 3.16148,-0.26352 0.53129,-0.0873 1.4007,-0.20434 1.93201,-0.26014 0.53131,-0.0558 1.24264,-0.14127 1.58074,-0.19002 0.33809,-0.0485 0.89135,-0.12716 1.22947,-0.17446 0.48495,-0.0678 5.94551,-0.53988 10.01135,-0.8654 5.61296,-0.44938 9.58589,-0.84193 11.67991,-1.15405 0.57961,-0.0863 2.75312,-0.32137 4.83003,-0.5222 3.06417,-0.29626 4.43861,-0.34463 7.28898,-0.25647 5.62519,0.17405 8.86972,0.0718 8.86972,-0.27928 0,-0.0786 -0.13982,-0.24626 -0.31093,-0.37249 -0.17093,-0.12634 -1.09419,-1.09891 -2.05153,-2.16151 -0.95735,-1.06262 -2.3389,-2.56644 -3.07011,-3.34186 -0.73122,-0.77539 -1.80372,-1.95841 -2.38332,-2.6289 -0.57961,-0.67049 -1.41394,-1.61679 -1.85405,-2.10292 -0.44012,-0.48613 -1.07036,-1.23952 -1.40056,-1.67422 -0.33019,-0.4347 -0.64192,-0.82989 -0.6927,-0.8782 -0.34115,-0.32436 -2.36532,-2.74396 -3.08566,-3.6884 -0.47891,-0.62789 -0.95722,-1.22067 -1.06293,-1.31728 -0.1058,-0.0967 -0.74706,-0.84744 -1.4252,-1.66855 -0.67814,-0.82112 -1.39037,-1.63314 -1.58271,-1.80456 -0.34509,-0.30749 -0.34859,-0.29976 -0.26387,0.58183 0.0761,0.79244 0.0386,0.92691 -0.33275,1.18981 -0.49903,0.35336 -1.59449,0.75736 -1.45897,0.53807 0.17322,-0.2804 -10.74795,-0.24696 -14.15229,0.0434 -1.2075,0.10289 -2.74872,0.21558 -3.42494,0.25022 -0.67619,0.0346 -1.90682,0.10559 -2.73472,0.15766 -0.8279,0.0521 -4.22649,0.10704 -7.55243,0.12239 -3.32592,0.0145 -6.91657,0.0909 -7.97917,0.16783 -1.0626,0.077 -2.52479,0.18317 -3.24929,0.23572 -0.72451,0.0527 -1.94958,0.13816 -2.7224,0.19002 -0.7728,0.0519 -2.27451,0.17197 -3.33711,0.26681 -3.45744,0.3085 -4.49953,0.35609 -9.30881,0.425 -2.96312,0.0425 -5.40114,-0.008 -6.49859,-0.13816 -0.96601,-0.11327 -2.13012,-0.18214 -2.58692,-0.15268 -0.7529,0.0483 -0.85737,0.10995 -1.11774,0.65864 -0.15786,0.33289 -0.35195,0.60527 -0.43107,0.60527 -0.079,0 -1.31494,1.14657 -2.74628,2.54793 -1.43133,1.40137 -3.19521,3.07975 -3.91971,3.72974 -0.72451,0.64999 -1.81213,1.69671 -2.41694,2.32601 -0.60479,0.62931 -2.46216,2.5345 -4.12747,4.23375 -1.66532,1.69926 -3.58922,3.7147 -4.27535,4.47877 -1.71529,1.91016 -3.22875,3.58759 -3.70772,4.10942 -0.36592,0.39867 -0.37415,0.44659 -0.094,0.54735 0.34169,0.12281 9.48781,0.0604 10.31838,-0.0707 z m -0.61475,-0.44663 c -0.50969,-0.0695 -1.05383,-0.50511 -1.05383,-0.84352 0,-0.3611 1.60259,-2.38447 1.96332,-2.47877 0.17591,-0.0461 0.31998,-0.16264 0.31998,-0.25929 0,-0.0967 0.53349,-0.70497 1.18556,-1.35193 2.34586,-2.32757 4.08358,-4.20896 4.08358,-4.42113 0,-0.11887 0.0502,-0.16617 0.1114,-0.10476 0.0614,0.0614 0.34386,-0.18235 0.62791,-0.54156 0.28404,-0.35918 1.6019,-1.75954 2.92861,-3.11195 2.19214,-2.23465 3.6323,-3.92075 4.4631,-5.22523 0.36056,-0.56615 0.63879,-0.60342 1.18752,-0.15912 0.77347,0.62631 0.42558,1.61902 -1.14811,3.27616 -0.195,0.20537 -1.26117,1.33676 -2.36916,2.51417 -1.10799,1.1774 -2.0889,2.14074 -2.1798,2.14074 -0.18836,0 -1.16263,1.04779 -1.16263,1.25036 0,0.0732 -0.65302,0.79014 -1.45117,1.593 -2.34512,2.35899 -4.16924,4.4547 -4.16924,4.79006 0,0.0575 0.49399,0.0593 1.09775,0.004 0.60375,-0.0552 3.07364,-0.12655 5.48867,-0.15849 3.07757,-0.0407 4.8375,-0.14231 5.88386,-0.34015 2.26567,-0.42819 6.07973,-0.6016 13.43629,-0.61093 7.40952,-0.008 7.65396,-0.0214 10.88956,-0.52976 3.14298,-0.49393 3.21888,-0.50158 8.16716,-0.8248 0.82109,-0.0537 1.76953,-0.13069 2.10765,-0.17115 4.43555,-0.53137 10.75179,-1.10606 13.5241,-1.23051 1.01431,-0.0456 3.22735,-0.15911 4.91787,-0.25246 1.6905,-0.0933 4.33824,-0.21885 5.88386,-0.27895 1.54562,-0.0602 3.08684,-0.13546 3.42494,-0.16762 0.65409,-0.062 7.55218,-0.12944 7.82812,-0.0765 0.0898,0.0166 0.67713,0.0187 1.30505,0.006 0.93118,-0.0214 1.07951,-0.0622 0.8046,-0.22178 -0.57799,-0.33557 -7.65448,-7.55548 -7.65448,-7.80971 0,-0.0479 -0.52784,-0.57575 -1.17298,-1.17298 -0.64512,-0.59724 -1.59704,-1.50083 -2.11535,-2.00798 -0.88407,-0.86503 -1.38387,-1.07799 -2.20748,-0.94054 -0.0763,0.0125 -0.30027,-0.0633 -0.4976,-0.16886 -0.27777,-0.14874 -0.42574,-0.13131 -0.65532,0.0763 -0.2937,0.26578 -3.38061,0.41056 -10.28707,0.48248 -1.15193,0.0125 -2.32529,0.088 -2.6075,0.16886 -0.48098,0.13795 -4.2386,0.3287 -8.64656,0.43894 -1.06262,0.0266 -2.40625,0.0923 -2.98586,0.14583 -1.07289,0.0994 -6.34686,0.32571 -7.4646,0.32038 -0.33809,-0.002 -1.00991,-0.0104 -1.49293,-0.0218 -2.94876,-0.0629 -10.30814,0.27296 -12.38246,0.56516 -0.43471,0.0612 -1.18556,0.16721 -1.66855,0.23539 -0.483,0.0682 -2.41941,0.13298 -4.30312,0.14397 -1.88372,0.0104 -3.72219,0.0842 -4.08551,0.16285 -1.00682,0.21786 -1.54516,-0.38845 -0.9094,-1.02423 0.64729,-0.64727 4.62908,-1.2984 5.89444,-0.96388 0.25322,0.067 1.43878,-0.0207 2.63456,-0.19313 1.19576,-0.17322 3.28064,-0.37373 4.63306,-0.44574 1.35241,-0.072 2.69604,-0.14604 2.98584,-0.1645 1.03269,-0.0658 5.8403,-0.2702 8.51843,-0.36235 1.49732,-0.0514 2.9594,-0.1253 3.24908,-0.16409 0.28968,-0.0388 2.06801,-0.11804 3.95185,-0.17612 3.1944,-0.0985 8.1957,-0.36571 10.01159,-0.5349 1.88176,-0.17529 3.64922,-0.2909 7.02549,-0.45943 1.98033,-0.099 4.37637,-0.22033 5.32455,-0.26993 1.49548,-0.0782 1.77043,-0.0481 2.07446,0.22701 0.23906,0.21634 0.38898,0.2552 0.47152,0.12218 0.0666,-0.10725 0.27908,-0.22267 0.47228,-0.25648 0.20537,-0.0359 0.38777,-0.23983 0.43912,-0.49072 0.10911,-0.53365 1.09011,-1.13689 1.62806,-1.00124 0.52629,0.13277 5.7487,5.2966 5.7487,5.68426 0,0.0809 0.13837,0.27536 0.30736,0.43232 0.16907,0.15703 0.54448,0.57145 0.83428,0.9211 0.40544,0.48912 4.13702,4.41506 4.79697,5.04681 0.0666,0.0637 0.81196,0.77044 1.65662,1.57066 0.84466,0.80022 1.58305,1.604 1.64086,1.78615 0.0734,0.23145 -0.0608,0.47927 -0.44541,0.82274 -0.43628,0.38952 -0.49453,0.51299 -0.28071,0.59501 0.22184,0.0851 0.23375,0.18256 0.067,0.54857 -0.18857,0.41382 -0.29007,0.44568 -1.44795,0.45458 -1.08889,0.008 -6.56511,-0.0207 -7.04122,-0.0363 -0.71005,-0.0245 -10.40482,0.22132 -11.24083,0.28507 -0.5796,0.0442 -1.6466,0.1253 -2.37111,0.18006 -0.72451,0.0548 -2.70043,0.13567 -4.39095,0.17945 -2.96698,0.077 -4.29939,0.18587 -11.50426,0.93987 -1.83543,0.1921 -4.40413,0.40004 -5.70824,0.46211 -2.46782,0.11741 -4.28636,0.30858 -7.55241,0.79373 -2.71919,0.4039 -4.95048,0.49959 -9.48444,0.40672 -2.65654,-0.0543 -5.02765,-0.0919 -5.26914,-0.0832 -1.86116,0.0664 -8.0537,0.56347 -9.04536,0.72596 -1.7508,0.28686 -6.12877,0.46472 -7.46964,0.30345 -0.62514,-0.0751 -1.65034,-0.0788 -2.27826,-0.008 -1.86776,0.21033 -3.37052,0.12923 -3.55002,-0.19148 -0.16886,-0.30187 -0.38919,-0.13463 -1.36782,1.03914 -0.31698,0.38017 -0.56122,0.50997 -0.8782,0.46669 z m 22.13036,-25.92524 c 5.04059,-0.1726 7.61027,-0.3883 7.46315,-0.62636 -0.13235,-0.21421 -9.07612,-0.0378 -12.55664,0.24787 -1.59391,0.13069 -2.81898,0.25832 -2.7224,0.28342 0.2394,0.0622 4.34706,0.27046 4.5666,0.23151 0.0967,-0.0166 1.55877,-0.0786 3.24929,-0.1365 z m 10.36263,-0.62587 0.61474,-0.034 -0.53282,-0.12778 c -0.66644,-0.15974 -2.71649,-0.0226 -2.71649,0.18172 0,0.0834 0.45447,0.12052 1.00993,0.0828 0.55546,-0.0378 1.28654,-0.084 1.62464,-0.10289 z m 19.49579,-0.87629 c 0.21305,-0.13774 0.18774,-0.17073 -0.13173,-0.17301 -0.21734,-0.002 -0.39518,0.0763 -0.39518,0.17301 0,0.22006 0.18629,0.22006 0.52691,0 z m 1.31729,0.0207 c 0.0967,-0.0145 0.068,-0.0933 -0.0633,-0.17653 -0.26143,-0.16575 -0.90264,-0.0566 -0.90264,0.1533 0,0.11368 0.28538,0.12053 0.96599,0.0232 z m 1.53925,-0.14334 c -0.21602,-0.0417 -0.6112,-0.0427 -0.87818,-0.002 -0.26699,0.0405 -0.0902,0.0745 0.39275,0.0757 0.48302,0.002 0.70146,-0.0317 0.48543,-0.0734 z m 1.53442,0.0562 c 0,-0.0371 -0.19749,-0.10518 -0.43911,-0.15123 -0.24148,-0.0463 -0.43908,-0.0166 -0.43908,0.0674 0,0.0832 0.19749,0.15123 0.43908,0.15123 0.24151,0 0.43911,-0.0303 0.43911,-0.0674 z m 21.11377,-0.63682 c -0.0427,-0.2907 0.0187,-0.64367 0.13484,-0.7844 0.2118,-0.2552 0.17591,-6.52665 -0.0857,-15.02139 -0.0552,-1.7871 -0.1253,-4.5751 -0.156,-6.19552 -0.0307,-1.62043 -0.10662,-2.997 -0.16865,-3.05903 -0.062,-0.062 -0.12447,0.94762 -0.13878,2.24366 -0.0319,2.89572 -0.0328,2.91022 -0.18733,3.06626 -0.0691,0.0697 -0.0639,0.25471 0.0125,0.41106 0.25968,0.53788 0.22309,6.08738 -0.0678,10.29562 -0.16036,2.31841 -0.30356,4.63011 -0.31833,5.13709 -0.0145,0.50698 -0.0861,0.92193 -0.1587,0.9221 -0.29665,0 -0.11596,0.97954 0.21954,1.18902 0.39894,0.24916 0.48715,1.23976 0.14127,1.58572 -0.16305,0.16305 -0.13359,0.26802 0.13173,0.46864 0.53343,0.40342 0.7282,0.32496 0.64253,-0.25883 z m -5.8772,-0.11949 c -0.16907,-0.0442 -0.44568,-0.0442 -0.61473,0 -0.16907,0.0442 -0.0307,0.0803 0.30738,0.0803 0.33809,0 0.47642,-0.0361 0.30735,-0.0803 z m 1.31728,0.004 c -0.12073,-0.0487 -0.31833,-0.0487 -0.43908,0 -0.12073,0.0488 -0.022,0.0886 0.21954,0.0886 0.24151,0 0.3403,-0.0398 0.21954,-0.0886 z m -48.05436,-0.27846 c 0.1112,-0.0722 1.25721,-0.16824 2.54676,-0.21317 1.28955,-0.045 2.84743,-0.13442 3.46197,-0.19852 0.8565,-0.0894 1.15313,-0.0602 1.27067,0.12529 0.11098,0.17529 0.15413,0.18152 0.156,0.0226 0.002,-0.14977 0.32376,-0.21987 1.0126,-0.22057 0.55546,0 1.48416,-0.0795 2.06376,-0.1753 0.5796,-0.0958 2.2789,-0.18587 3.77621,-0.19997 1.4973,-0.0145 3.39419,-0.0911 4.2153,-0.17094 0.82112,-0.0799 2.12523,-0.18732 2.89803,-0.23873 0.7728,-0.0514 1.72124,-0.13235 2.10765,-0.18006 0.38641,-0.0477 2.91559,-0.12634 5.6204,-0.17467 7.26722,-0.12966 12.74011,-0.27543 13.4363,-0.35766 1.0392,-0.12281 6.8428,-0.10746 7.04674,0.0187 0.13318,0.0824 0.14604,-0.008 0.0415,-0.29849 -0.14956,-0.41471 -0.12197,-5.47777 0.0363,-6.65233 0.0456,-0.33809 0.16326,-3.06487 0.26142,-6.05948 0.21375,-6.51738 0.2725,-7.9043 0.46122,-10.88956 0.25731,-4.07028 0.13214,-18.110981 -0.16306,-18.293451 -0.0724,-0.0448 -0.21037,-0.0328 -0.30648,0.0266 -0.096,0.0594 -1.10384,0.14517 -2.23938,0.19058 -1.13554,0.0454 -3.2897,0.19986 -4.78701,0.34318 -2.5721,0.2462 -3.50816,0.33007 -5.79604,0.5193 -0.53132,0.0439 -2.78387,0.12605 -5.00568,0.18245 -2.22183,0.0564 -5.02765,0.14055 -6.23515,0.18702 -1.2075,0.0464 -3.93428,0.0874 -6.0595,0.0911 -3.98523,0.007 -7.36959,0.18127 -10.27482,0.52959 -0.9177,0.11003 -1.9847,0.21862 -2.37111,0.2413 -0.38639,0.0227 -1.09772,0.0912 -1.58074,0.15228 -0.48299,0.0611 -1.31288,0.15818 -1.84419,0.21577 -0.53129,0.0576 -1.24263,0.1374 -1.58074,0.17729 -0.3381,0.0399 -1.60269,0.10623 -2.81019,0.14741 -1.83555,0.0626 -5.79342,0.26167 -7.11334,0.35782 -0.19313,0.0141 -1.07453,0.0402 -1.95847,0.058 l -1.60721,0.0324 -0.0208,4.41134 c -0.0104,2.42623 -0.0539,4.4669 -0.096,4.53482 -0.0973,0.15745 -0.10351,5.157671 -0.0207,16.389841 0.0365,4.9026 0.004,8.95179 -0.0701,8.99815 -0.0751,0.0465 -0.15226,1.17257 -0.17176,2.50261 -0.0187,1.33006 -0.0436,2.57636 -0.0533,2.76955 -0.0104,0.19314 -0.004,0.54886 0.0145,0.79037 l 0.0313,0.4391 h 5.75207 c 3.16363,0 5.84303,-0.0591 5.9542,-0.13131 z m -13.11149,-4.68868 c 0,-0.0909 -0.079,-0.21412 -0.17571,-0.27382 -0.0967,-0.0597 -0.1757,0.0145 -0.1757,0.16533 0,0.15061 0.079,0.27383 0.1757,0.27383 0.0967,0 0.17571,-0.0743 0.17571,-0.16534 z m 0,-1.06419 c 0,-0.18173 -0.079,-0.3794 -0.17571,-0.43909 -0.10268,-0.0635 -0.1757,0.11866 -0.1757,0.43909 0,0.32038 0.0728,0.5026 0.1757,0.4391 0.0967,-0.0597 0.17571,-0.2573 0.17571,-0.4391 z M 70.7376,102.03656 c 0.0288,-4.853931 0.0712,-9.635461 0.0942,-10.625621 0.0405,-1.73296 0.028,-1.80029 -0.3322,-1.80029 -0.35926,0 -0.37633,0.089 -0.42993,2.23939 -0.15911,6.38024 0.22875,19.017321 0.58344,19.012321 0.0166,0 0.0556,-3.97185 0.0844,-8.8258 z m 66.01962,3.34856 c -0.056,-0.14003 -0.0977,-0.0985 -0.10621,0.10621 -0.008,0.18504 0.0338,0.28889 0.0923,0.23053 0.0583,-0.0583 0.0645,-0.20985 0.0145,-0.33666 z M 89.17428,86.674949 c -0.26393,-0.0401 -0.73815,-0.0409 -1.05382,-0.002 -0.3157,0.0391 -0.0998,0.0719 0.47986,0.0729 0.57961,10e-4 0.83788,-0.031 0.57396,-0.0711 z m 1.48978,-0.16646 c -0.12074,-0.0487 -0.31835,-0.0487 -0.4391,0 -0.12074,0.0487 -0.022,0.0886 0.21956,0.0886 0.24149,0 0.34029,-0.0399 0.21954,-0.0886 z m 4.25922,-0.24475 c 0.6513,-0.11285 0.42444,-0.1281 -0.8782,-0.059 -0.966,0.0512 -1.81843,0.15366 -1.89428,0.22767 -0.15869,0.15494 1.48047,0.0552 2.77248,-0.16861 z m 15.8074,-0.70695 c 2.12521,-0.10256 5.76091,-0.21341 8.07933,-0.24631 2.31842,-0.0329 5.32182,-0.181955 6.67423,-0.331202 1.35242,-0.149258 3.24931,-0.322004 4.21531,-0.383892 0.96601,-0.06188 2.11205,-0.177553 2.54675,-0.257044 0.4347,-0.07949 1.16906,-0.09989 1.63192,-0.04535 0.71027,0.0837 0.89627,0.04043 1.1924,-0.277424 0.50494,-0.541995 1.32014,-0.507175 1.46312,0.06248 0.16263,0.648224 0.4625,0.534537 0.34737,-0.131729 -0.0541,-0.313953 -0.1224,-0.652777 -0.15144,-0.752942 -0.12592,-0.434644 -5.23117,0.118099 -8.52309,0.922779 -0.24151,0.05904 -0.49897,0.09416 -0.57216,0.07808 -0.0732,-0.01618 -0.46837,0.04338 -0.8782,0.132144 -0.99139,0.214725 -3.30858,0.350387 -6.62899,0.388092 -2.61617,0.02971 -7.80056,0.331574 -10.187,0.593138 -0.6279,0.0688 -1.6949,0.18503 -2.37111,0.25822 -1.8405,0.19924 -1.11073,0.19714 3.16148,-0.009 z m -35.95854,-1.24486 c 0.10207,-0.102064 0.28924,-0.151021 0.41595,-0.108785 0.13152,0.04385 0.0519,0.123472 -0.18545,0.185581 -0.29215,0.0764 -0.36073,0.05354 -0.23039,-0.0768 z m 1.41284,-0.09041 c 0.12675,-0.05074 0.27828,-0.0445 0.33664,0.0139 0.0583,0.05836 -0.0454,0.09987 -0.23054,0.09225 -0.20454,-0.0085 -0.24621,-0.05004 -0.10621,-0.106109 z m -4.83767,-0.177367 c 0.17093,-0.04454 0.408,-0.04159 0.52691,0.0064 0.11887,0.04811 -0.0209,0.08455 -0.31071,0.08097 -0.2898,-0.0035 -0.3871,-0.04294 -0.2162,-0.08748 z m 48.57148,-2.281556 c 0.12675,-0.05074 0.27827,-0.0445 0.33664,0.0139 0.0583,0.05836 -0.0454,0.09987 -0.23053,0.09225 -0.20455,-0.0085 -0.24622,-0.05004 -0.10622,-0.106109 z"
       id="path901"
       sodipodi:nodetypes="cssssscssssssscssssssssssssssssssssssssssssssssccsssssssssssscsssssssscsssssscssssscsscccsccccsssccccsscsssssssscsscccssscsssssssscsscccscscsssssscscsssssscsssssssssssssssscscsssccssssssssssscssssscssssssssssssccsscssscccsssscsscsscccsscssscssssssssssssssssssssssscssssssscsscssccsssscssccsssccscssssssscccccscssscccsssscsccsssccsssssssscsssscscssscsscssssssssssssssssssscccccccccsccssssssssssscsscssccsccsssssssssssssssssssssssssssssssscssccsssssssssssssss" />
    <path
       style="fill:#000000;stroke-width:0.0846667"
       id="path881"
       d="" />
  </g>
</svg>
