<?xml version="1.0" encoding="UTF-8" standalone="no"?>
<!-- Created with Inkscape (http://www.inkscape.org/) -->

<svg
   width="171.79259mm"
   height="103.53681mm"
   viewBox="0 0 171.79259 103.53681"
   version="1.1"
   id="svg5"
   inkscape:version="1.1.1 (c3084ef, 2021-09-22)"
   sodipodi:docname="signature copy 3.svg"
   xmlns:inkscape="http://www.inkscape.org/namespaces/inkscape"
   xmlns:sodipodi="http://sodipodi.sourceforge.net/DTD/sodipodi-0.dtd"
   xmlns="http://www.w3.org/2000/svg"
   xmlns:svg="http://www.w3.org/2000/svg">
  <sodipodi:namedview
     id="namedview7"
     pagecolor="#ffffff"
     bordercolor="#666666"
     borderopacity="1.0"
     inkscape:pageshadow="2"
     inkscape:pageopacity="0.0"
     inkscape:pagecheckerboard="0"
     inkscape:document-units="mm"
     showgrid="false"
     inkscape:zoom="0.85798801"
     inkscape:cx="671.33806"
     inkscape:cy="287.30005"
     inkscape:window-width="2560"
     inkscape:window-height="1387"
     inkscape:window-x="0"
     inkscape:window-y="25"
     inkscape:window-maximized="1"
     inkscape:current-layer="layer1" />
  <defs
     id="defs2" />
  <g
     inkscape:label="Layer 1"
     inkscape:groupmode="layer"
     id="layer1"
     transform="translate(-17.124795,-18.42169)">
    <g
       id="g3393">
      <path
         style="fill:#000000;stroke-width:0.244638"
         d="m 138.88254,121.87389 c -0.17568,-0.17582 -4.14271,-0.39503 -7.63637,-0.42201 -1.58118,-0.0121 -2.82739,-0.099 -2.76934,-0.19298 0.0581,-0.0939 -0.24444,-0.14025 -0.67234,-0.10289 -0.83394,0.0728 -11.02806,0.27822 -15.43685,0.31108 -1.46945,0.011 -3.50606,-0.0868 -4.52581,-0.21714 -1.01976,-0.13037 -2.95498,-0.30485 -4.30048,-0.38771 -2.50675,-0.15438 -2.85098,-0.18313 -5.382035,-0.44967 -0.807304,-0.085 -2.183392,-0.21272 -3.057971,-0.28377 -1.581037,-0.12847 -5.325494,-0.52247 -6.72754,-0.70792 -1.220891,-0.16149 -3.846163,-0.4393 -5.015073,-0.53071 -3.177437,-0.24849 -4.557919,-0.40965 -9.369146,-1.09386 -1.856534,-0.26401 -3.893144,-0.48205 -4.525797,-0.48452 -0.632654,-0.002 -2.306193,-0.16926 -3.718976,-0.37065 -2.849759,-0.40623 -3.529539,-0.49059 -5.935865,-0.73661 -0.91009,-0.093 -1.715826,-0.26808 -1.790529,-0.38894 -0.07469,-0.12086 -0.236643,-0.15744 -0.35988,-0.0813 -0.123234,0.0762 -1.078887,0.0217 -2.123676,-0.12115 -1.04479,-0.1428 -2.365663,-0.30577 -2.935272,-0.36218 -0.569612,-0.0564 -1.132758,-0.16256 -1.251432,-0.23592 -0.118669,-0.0733 -0.973678,-0.18261 -1.900001,-0.24286 -1.638967,-0.10656 -5.596337,-0.99455 -6.087698,-1.36603 -0.13456,-0.10171 -0.684986,-0.27334 -1.223191,-0.38136 -0.538201,-0.10804 -1.033592,-0.21061 -1.100869,-0.22795 -0.06727,-0.0173 -0.760774,-0.11705 -1.541109,-0.22156 -1.493218,-0.20001 -3.108391,-0.82047 -4.631134,-1.77907 -0.50189,-0.31596 -1.090384,-0.57446 -1.307761,-0.57446 -0.428577,0 -1.729834,-0.66986 -2.257339,-1.16203 -0.180271,-0.16819 -0.418966,-0.3058 -0.530454,-0.3058 -0.111474,0 -0.597264,-0.39456 -1.079506,-0.87681 -0.985663,-0.98566 -1.484952,-2.44481 -1.302364,-3.8061 0.09336,-0.696 0.02953,-0.92437 -0.281169,-1.00601 -0.709781,-0.18651 -2.302717,-8.602728 -3.715572,-19.63109 -0.599122,-4.676559 -1.09423,-8.153649 -1.828811,-12.843485 -0.303982,-1.940727 -2.133656,-12.925395 -2.444905,-14.678266 -0.4238,-2.386727 -1.006134,-7.989612 -1.220466,-11.742613 -0.08067,-1.412783 -0.248288,-3.55948 -0.372484,-4.770437 -0.284753,-2.776813 -0.444648,-4.788703 -0.604204,-7.602798 -0.138115,-2.43572 -0.257332,-3.554348 -0.642094,-6.024203 -0.324641,-2.083947 -0.183854,-2.502347 0.951429,-2.827693 1.37542,-0.394166 1.905944,-0.326941 2.512139,0.318325 0.606883,0.645994 1.033316,3.185276 1.313023,7.818684 0.180242,2.985883 0.401922,5.62301 0.555214,6.60522 0.06299,0.403652 0.163513,2.054957 0.223382,3.669567 0.117744,3.175397 0.253344,4.794537 0.480722,5.739707 0.07969,0.331278 0.191973,1.267018 0.24953,2.079422 0.05756,0.812408 0.207114,2.247717 0.33235,3.18957 0.125257,0.941857 0.236384,1.877596 0.246959,2.079422 0.01069,0.201826 0.334586,2.128349 0.719998,4.281162 1.78807,9.987765 2.006848,11.294712 2.442273,14.589777 0.118033,0.893187 0.271259,1.71884 0.340521,1.834784 0.06926,0.115952 0.19911,0.981415 0.288595,1.923272 0.08946,0.941856 0.211131,1.878898 0.270364,2.08232 0.05923,0.203415 0.153977,0.698809 0.210581,1.10087 0.548727,3.898689 1.670545,10.661951 1.862013,11.225784 0.13248,0.390095 0.242047,1.105661 0.243492,1.590148 0.0015,0.484486 0.161749,1.40525 0.356228,2.046144 0.194458,0.640891 0.340825,1.191326 0.325236,1.223188 -0.08203,0.167673 0.650817,2.840109 0.930628,3.39363 0.179231,0.354579 0.827655,0.938729 1.440918,1.298129 0.613262,0.3594 1.049134,0.76006 0.9686,0.89037 -0.08053,0.13031 -0.05568,0.21612 0.05525,0.19073 0.349955,-0.0802 1.54717,0.32326 1.54717,0.52134 0,0.10428 0.247682,0.2465 0.550435,0.31604 1.656726,0.38056 3.515306,0.96356 3.718493,1.1664 0.127828,0.12763 0.526809,0.23203 0.886634,0.23203 0.359826,0 1.133801,0.1692 1.719943,0.376 0.586143,0.2068 1.618285,0.42993 2.293656,0.49585 0.675367,0.0659 1.503161,0.18154 1.839539,0.25692 0.336375,0.0754 1.05194,0.17805 1.590144,0.2281 3.842453,0.35727 10.689407,1.37241 17.246963,2.55706 3.94047,0.71186 8.841462,1.41469 11.008699,1.57872 3.528988,0.2671 4.78526,0.4056 6.727538,0.74178 7.169059,1.24083 10.804556,1.55931 19.448694,1.70377 6.14986,0.10277 7.83167,0.21514 11.37567,0.76006 3.72758,0.57316 5.02837,0.64959 12.54408,0.73704 l 8.38525,0.0976 -0.16066,-1.64731 c -0.0884,-0.90602 -0.29842,-1.81245 -0.46675,-2.01427 -0.34867,-0.41807 -0.5325,-0.97528 -0.72632,-2.20174 -0.30743,-1.94544 -0.42243,-2.38971 -0.98165,-3.79189 -0.65989,-1.65461 -1.45274,-5.339504 -1.81638,-8.441784 -0.21988,-1.877085 -1.16478,-9.298225 -2.44451,-19.202281 -0.26091,-2.018262 -0.5938,-5.210785 -0.74001,-7.094497 -0.1462,-1.88371 -0.31497,-3.975363 -0.37504,-4.648116 -0.0601,-0.672756 -0.17713,-2.269017 -0.26005,-3.547249 -0.0829,-1.278234 -0.19446,-2.874495 -0.24791,-3.547248 -0.0535,-0.672753 -0.15517,-3.479971 -0.22567,-6.238263 -0.0708,-2.758292 -0.19475,-6.941598 -0.27536,-9.296237 -0.0806,-2.354637 -0.16354,-5.051768 -0.18435,-5.993625 l -0.0376,-1.712465 -2.44639,-0.05273 C 119.7591,34.360257 103.12666,33.865946 100.72786,33.759295 99.44963,33.70246 96.312151,33.597227 93.755685,33.525454 91.19937,33.45368 87.016064,33.232862 84.459601,33.034726 71.821415,32.055229 66.93589,31.631475 64.555355,31.308299 c -1.431336,-0.194314 -3.408284,-0.460733 -4.393216,-0.59204 -0.984935,-0.131295 -1.86772,-0.286284 -1.961745,-0.344393 -0.229247,-0.141669 -8.621132,-1.496551 -11.537328,-1.862707 -3.494268,-0.438741 -5.295361,-0.784602 -6.23826,-1.197917 -0.751337,-0.329342 -7.75616,-1.986755 -8.378845,-1.982516 -0.30274,0.002 -0.550435,-0.112832 -0.550435,-0.255339 0,-0.142477 -0.08865,-0.204282 -0.196972,-0.137334 -0.108354,0.06695 -0.576212,0.02572 -1.039713,-0.09177 -0.463498,-0.117426 -1.555307,-0.390341 -2.426236,-0.606458 -3.192266,-0.792144 -7.903781,-2.412876 -8.496558,-2.92276 -0.569788,-0.490113 -0.591297,-0.59074 -0.332058,-1.553475 0.331995,-1.232946 0.746234,-1.392818 3.43995,-1.327612 2.382924,0.05767 2.935653,0.117657 2.935653,0.318513 0,0.09079 0.192609,0.149758 0.427999,0.131064 0.260105,-0.02051 0.456294,0.163541 0.500136,0.469488 0.05314,0.370819 0.439882,0.628556 1.467942,0.978251 0.767696,0.261146 1.450851,0.484429 1.518125,0.496215 0.06727,0.01185 0.28744,0.08472 0.489278,0.162039 0.338143,0.129562 2.891508,0.642007 4.036523,0.810087 2.2856,0.335511 8.539113,1.884351 8.354308,2.069156 -0.06498,0.06498 0.285475,0.129446 0.778833,0.143229 0.493354,0.01387 2.163007,0.257389 3.710339,0.541376 1.547335,0.283973 3.473857,0.629198 4.281162,0.767142 3.5145,0.60052 9.470284,1.727499 9.620956,1.820515 0.492383,0.303979 6.46434,1.005069 11.662529,1.369144 2.018262,0.141351 4.164958,0.311272 4.770437,0.377584 1.299668,0.142333 10.42104,0.789778 13.577393,0.963721 1.210957,0.06675 5.284176,0.190124 9.051598,0.274235 3.76742,0.08408 7.07003,0.195152 7.33913,0.246843 0.2691,0.05166 4.88554,0.156723 10.25876,0.233437 9.11177,0.130082 9.81387,0.171083 10.42857,0.608784 0.79719,0.567667 1.04288,1.342116 0.57438,1.810625 -0.53188,0.531879 -0.42829,0.624765 0.69685,0.624765 1.5563,0 1.67161,0.327519 1.79788,5.10608 0.10893,4.12082 0.11442,4.478339 0.10373,6.881172 -0.003,0.740027 0.0361,1.565679 0.0875,1.834783 0.0514,0.269092 0.16845,2.30571 0.26005,4.525798 0.0916,2.220087 0.20602,4.201653 0.25427,4.403479 0.0745,0.311688 0.18405,1.910486 0.48562,7.094497 0.10576,1.81691 0.39337,4.853358 0.63732,6.727538 0.14014,1.076408 0.28944,2.507539 0.33185,3.180292 0.0425,0.672753 0.19793,1.663536 0.34581,2.20174 0.14765,0.538204 0.27132,1.311636 0.2745,1.718741 l 0.006,0.740183 4.0977,-0.01503 c 2.25372,-0.0084 5.25357,0.116646 6.66636,0.277674 1.41278,0.160999 4.33008,0.364365 6.48291,0.451888 2.15282,0.08752 4.29952,0.251756 4.77043,0.364986 0.47092,0.113208 4.81936,0.207374 9.66319,0.209223 13.9616,0.0055 20.6383,0.329689 20.87116,1.013861 0.0422,0.124361 0.24618,0.16123 0.4528,0.08191 0.45246,-0.173625 0.8069,0.320862 0.81202,1.132891 0.002,0.364706 0.33815,0.90052 0.86951,1.387235 1.06938,0.979491 0.98989,1.535601 -0.50157,3.509703 -0.5646,0.74728 -1.16759,1.626979 -1.34003,1.954879 -0.1725,0.327904 -0.43628,0.751158 -0.58627,0.940562 -0.71426,0.902009 -4.60579,4.667518 -8.58805,8.309924 -0.18377,0.168194 -0.40588,0.305797 -0.49331,0.305797 -0.0875,0 -0.58274,0.412826 -1.10073,0.917391 -1.1256,1.096542 -3.00826,2.507542 -3.34569,2.507542 -0.13291,0 -0.52796,0.30274 -0.87815,0.67275 -0.78804,0.83267 -1.046,1.0423 -2.31957,1.88513 -0.55807,0.3693 -1.19339,0.94427 -1.41189,1.27771 -0.24011,0.36622 -0.54035,0.55134 -0.75868,0.46756 -0.19879,-0.0763 -0.30087,-0.0407 -0.22682,0.0792 0.074,0.11982 -0.25311,0.44667 -0.72703,0.7263 -0.47393,0.27963 -0.92592,0.67571 -1.00437,0.88018 -0.0786,0.20448 -0.25195,0.37176 -0.3853,0.37176 -0.13349,0 -0.53798,0.30274 -0.89899,0.67276 -0.77069,0.78993 -3.19038,2.83777 -3.49371,2.95682 -0.11529,0.0453 -0.52857,0.37554 -0.91823,0.73392 -1.33194,1.22499 -2.21411,1.78639 -2.52542,1.60713 -0.16989,-0.0978 -0.22999,-0.0906 -0.13378,0.0159 0.29969,0.33197 -0.21555,0.96523 -1.19356,1.46722 -0.8431,0.4327 -1.74752,1.05539 -2.75865,1.89932 -0.5205,0.43445 -3.36366,1.93921 -5.5654,2.94553 -0.29469,0.13471 -0.87402,0.17727 -1.28738,0.0946 -0.6238,-0.12477 -0.85975,-0.0289 -1.38788,0.56382 -0.34996,0.39277 -0.92655,0.80916 -1.28131,0.9253 -0.73871,0.24184 -4.00737,0.40999 -4.20122,0.21613 z m -0.43197,-3.54107 c -0.65292,-0.34814 -1.4977,-0.43895 -4.40348,-0.47337 -1.97758,-0.0234 -4.92999,-0.1126 -6.5609,-0.19818 -2.06781,-0.1085 -3.01624,-0.0732 -3.13358,0.11667 -0.11904,0.19247 0.53495,0.27672 2.23142,0.28753 2.74677,0.0176 5.82918,0.17325 9.00485,0.45504 1.21096,0.10746 2.53201,0.20611 2.93566,0.21922 l 0.73391,0.024 -0.80788,-0.43078 z m -20.20469,-0.7294 c -0.0705,-0.11387 -0.63492,-0.22621 -1.25453,-0.24965 -0.61961,-0.0234 -2.30307,-0.21575 -3.74102,-0.42735 -4.51296,-0.66412 -5.68338,-0.75955 -9.94555,-0.81097 -2.28293,-0.0275 -5.255274,-0.0904 -6.605221,-0.13974 -4.705968,-0.17189 -1.096967,0.32243 5.217021,0.71456 3.412,0.21191 6.32359,0.45942 6.47021,0.55004 0.24647,0.15227 3.42992,0.35197 8.07516,0.50652 1.05155,0.035 1.85431,-0.0296 1.78393,-0.14343 z m 5.29796,0.0299 c -0.30088,-0.0581 -0.85131,-0.0596 -1.22318,-0.003 -0.37187,0.0562 -0.12569,0.10373 0.54708,0.10558 0.67274,0.002 0.977,-0.0442 0.6761,-0.10223 z m 23.24898,-1.13417 c 1.41524,-0.9087 5.69696,-4.21885 6.51409,-5.03599 0.28966,-0.28967 0.6585,-0.44886 0.82221,-0.35487 0.16326,0.0938 0.21382,0.0788 0.11211,-0.0331 -0.1017,-0.11197 0.33873,-0.57558 0.97856,-1.03026 1.23182,-0.8754 3.39831,-2.77486 5.58812,-4.8994 0.7281,-0.70639 1.38357,-1.28434 1.45661,-1.28434 0.17106,0 0.67963,-0.4134 1.73805,-1.41248 0.46664,-0.44049 0.96926,-0.72621 1.11691,-0.63496 0.15689,0.097 0.19908,0.0537 0.10141,-0.10425 -0.0919,-0.14857 0.0402,-0.38104 0.29343,-0.51655 0.25311,-0.13552 0.90386,-0.60891 1.44589,-1.05199 0.54203,-0.443069 1.56124,-1.245935 2.26487,-1.784136 0.70367,-0.538204 1.7349,-1.398576 2.29169,-1.91194 0.55677,-0.513363 1.33154,-1.173885 1.72169,-1.467826 0.39013,-0.293941 1.27126,-1.084874 1.95796,-1.757627 0.68676,-0.672756 2.0504,-1.951883 3.03037,-2.842507 l 1.78174,-1.619313 -1.27531,-0.122541 c -1.09206,-0.104944 -1.44639,-0.02167 -2.46612,0.579604 -0.65498,0.38618 -1.29611,0.702144 -1.42472,0.702144 -0.12858,0 -0.23375,0.08674 -0.23375,0.192753 0,0.106013 -0.7106,0.659933 -1.57907,1.230929 -0.8685,0.570999 -1.88679,1.337436 -2.26291,1.70319 -0.37612,0.365761 -0.99945,0.885189 -1.38519,1.15429 -1.1087,0.773458 -3.25736,2.568237 -5.28363,4.413405 -1.42853,1.300844 -4.44202,3.922395 -5.26834,4.583155 -0.269,0.21517 -1.03973,0.83738 -1.71247,1.38268 -0.67275,0.54529 -1.82866,1.42022 -2.5687,1.94429 -0.74004,0.52406 -2.28126,1.91252 -3.42492,3.08547 -1.14369,1.17294 -3.20783,3.24076 -4.58696,4.59514 -1.37915,1.35438 -2.50755,2.54601 -2.50755,2.64806 0,0.181 0.53544,0.38065 1.1738,0.43769 0.17452,0.0156 0.8902,-0.33932 1.59013,-0.78872 z m -2.57242,-5.76626 c 2.77341,-3.2908 4.8501,-5.17348 5.25736,-4.76622 0.0708,0.0709 0.1124,-0.0626 0.0922,-0.29658 -0.0202,-0.24375 0.44708,-0.79925 1.09602,-1.30066 0.62299,-0.48136 1.49007,-1.15043 1.9269,-1.4868 0.43682,-0.33638 1.00046,-0.80425 1.25253,-1.03971 0.25196,-0.23546 0.56838,-0.42812 0.70294,-0.42812 0.13465,0 0.24531,-0.0826 0.24618,-0.18348 0,-0.10093 0.36869,-0.43335 0.8173,-0.73875 0.44859,-0.30541 1.46852,-1.186101 2.26655,-1.957106 0.79803,-0.771005 1.89827,-1.787131 2.44497,-2.258058 0.54671,-0.470926 1.98897,-1.752741 3.20501,-2.84847 1.21607,-1.095733 2.52772,-2.194063 2.91485,-2.44073 0.38712,-0.24667 0.7589,-0.513774 0.8262,-0.593568 0.1176,-0.139675 1.96322,-1.440438 4.52579,-3.189963 0.67274,-0.459303 1.27822,-0.890142 1.34552,-0.957419 0.0673,-0.06727 0.50761,-0.33055 0.97853,-0.585059 0.47094,-0.2545 1.14534,-0.729923 1.49871,-1.056477 0.54529,-0.503912 0.78584,-0.56711 1.59014,-0.417741 0.52122,0.0968 1.16784,0.317521 1.43697,0.490503 0.42835,0.275362 0.58872,0.225086 1.28819,-0.403864 0.61469,-0.552703 0.69929,-0.71998 0.36695,-0.72534 -0.23751,-0.0038 -2.46857,-0.120373 -4.95775,-0.259008 -2.48921,-0.138634 -7.44313,-0.299448 -11.0087,-0.35739 -3.56561,-0.05793 -6.92326,-0.171169 -7.46148,-0.251639 -0.53818,-0.08044 -2.62983,-0.246237 -4.64809,-0.368399 -2.01826,-0.122165 -4.7154,-0.346641 -5.99365,-0.498836 -1.27822,-0.152186 -3.97535,-0.306432 -5.99361,-0.342757 -2.01827,-0.03632 -3.94479,-0.131007 -4.28117,-0.210408 -2.15652,-0.509035 -2.04098,-0.518467 -1.87249,0.152821 0.0855,0.340458 0.2219,1.319597 0.30301,2.175863 0.0812,0.856263 0.21988,1.621714 0.30813,1.701003 0.53058,0.476598 4.89598,0.952047 8.60048,0.936713 3.71828,-0.01531 5.23026,0.0707 6.84987,0.390037 0.33638,0.06631 2.10731,0.225173 3.93542,0.353021 3.67479,0.256957 4.64862,0.599665 5.15262,1.813214 0.26207,0.631024 0.23202,0.747213 -0.30065,1.156589 -0.32563,0.250311 -0.97734,0.456755 -1.44826,0.458783 -0.6559,0.0028 -1.05658,0.207952 -1.71247,0.87668 -0.47092,0.480147 -1.91771,1.743136 -3.21507,2.806643 -1.29737,1.063507 -2.77583,2.326924 -3.2855,2.807597 -0.50967,0.480673 -1.0777,0.815993 -1.26227,0.745162 -0.18464,-0.07082 -0.27132,-0.02485 -0.19273,0.102285 0.0786,0.127106 -0.16354,0.425786 -0.53775,0.66375 -0.37429,0.237973 -0.90072,0.67203 -1.16981,0.964593 -0.269,0.292566 -0.92071,0.759325 -1.44803,1.037245 -0.52732,0.27794 -1.02604,0.61418 -1.10827,0.74724 -0.0824,0.13306 -0.60363,0.54979 -1.1586,0.92606 -1.64145,1.11285 -3.42807,2.92026 -3.55786,3.59924 -0.0665,0.34768 -0.0428,0.63214 0.0529,0.63214 0.0954,0 0.34832,0.4448 0.56188,0.98845 0.36141,0.92006 0.35664,1.0843 -0.0688,2.37396 -0.25138,0.76203 -0.41084,1.46033 -0.35433,1.55178 0.0566,0.0915 0.21584,0.9625 0.35373,1.93567 0.13811,0.97316 0.31058,1.86591 0.38348,1.98387 0.13176,0.21307 2.71548,-2.34305 4.45613,-4.40839 z m -58.944687,4.25996 c -0.11734,-0.11734 -7.137108,-1.01144 -12.436407,-1.58403 -3.794618,-0.41001 -7.230022,-0.92071 -11.620292,-1.72745 -2.152813,-0.3956 -4.299509,-0.7675 -4.770436,-0.82646 -0.470927,-0.0589 -1.847014,-0.28137 -3.057971,-0.49426 -1.210957,-0.21289 -3.853045,-0.6083 -5.871307,-0.8787 -5.361176,-0.71827 -7.762878,-1.2012 -9.394821,-1.88909 -0.98896,-0.41686 -4.008438,-1.52994 -4.150309,-1.52994 -0.05071,0 0.04487,0.16513 0.212373,0.36695 0.1675,0.20183 0.517738,0.36696 0.778303,0.36696 0.260569,0 0.41207,0.0998 0.336667,0.22182 -0.07541,0.12199 0.05606,0.17132 0.292124,0.10957 0.236066,-0.0617 0.957612,0.16871 1.603427,0.51209 0.645815,0.34338 1.333515,0.62433 1.528221,0.62433 0.194718,0 0.354012,0.14303 0.354012,0.31784 0,0.21757 0.263082,0.28712 0.833934,0.22046 0.7522,-0.0878 2.368618,0.29584 5.526647,1.31175 0.605479,0.19478 3.192523,0.62902 5.748989,0.96498 2.556463,0.33597 5.528811,0.7738 6.605219,0.97297 1.076406,0.19917 3.773537,0.5366 5.993625,0.74984 2.220088,0.21323 4.862175,0.49349 5.871306,0.62277 1.009131,0.12927 2.264169,0.28117 2.788969,0.33755 2.696568,0.28964 3.733166,0.45487 4.122047,0.65705 0.235459,0.12242 0.428117,0.12835 0.428117,0.0133 0,-0.11517 0.577957,-0.12023 1.284349,-0.0113 0.706391,0.10896 2.165044,0.26828 3.241449,0.35406 1.076405,0.0858 2.002971,0.19703 2.059034,0.2473 0.155191,0.1391 1.832114,0.10908 1.692731,-0.0303 z m 54.793977,-14.5566 c 1.10127,-1.076408 2.16741,-1.957104 2.36918,-1.957104 0.20168,0 0.36684,-0.107833 0.36684,-0.239677 0,-0.208126 0.66014,-0.632215 2.4782,-1.591968 0.25167,-0.132827 0.45745,-0.325473 0.45745,-0.428117 0,-0.102633 0.16499,-0.186628 0.36696,-0.186628 0.20197,0 0.36696,-0.09633 0.36696,-0.214048 0,-0.333414 -1.45694,-0.542908 -1.948,-0.280101 -1.69363,0.906412 -4.47383,1.466671 -6.12505,1.234309 -1.82586,-0.256927 -2.26898,-0.0043 -2.05097,1.169009 0.0925,0.497298 0.48117,1.674787 0.86399,2.616645 0.38282,0.94185 0.69641,1.73998 0.69687,1.77362 0.002,0.17868 0.32515,-0.10489 2.15757,-1.89594 z m 8.66662,-6.576993 c 2.80615,-2.342527 4.09954,-3.512775 4.09954,-3.709247 0,-0.128261 -0.46786,-0.235488 -1.0397,-0.23829 -0.57185,-0.0028 -1.74126,-0.152071 -2.59872,-0.331683 -0.9759,-0.204427 -2.61678,-0.292479 -4.38724,-0.235401 -2.78561,0.08983 -3.32246,0.188448 -2.85362,0.524314 0.50978,0.365197 0.32907,0.866437 -0.74166,2.057353 -0.61256,0.681335 -1.06484,1.287723 -1.00503,1.347534 0.0598,0.05981 0.94478,-0.120633 1.9666,-0.400951 2.54185,-0.697347 3.28527,-0.659071 4.51605,0.232512 0.5635,0.408209 0.95883,0.848557 0.8785,0.978552 -0.25745,0.416603 0.59366,0.252478 1.16528,-0.224681 z M 138.3456,92.0702 c 0.78921,-0.752781 1.62275,-1.655327 1.85229,-2.005658 l 0.41735,-0.636964 -0.92303,-0.004 c -0.50767,-0.0022 -1.74449,-0.217516 -2.74848,-0.478211 -1.00401,-0.260713 -1.85446,-0.445029 -1.88991,-0.40959 -0.0355,0.03542 0.0364,0.718504 0.15979,1.517923 0.12337,0.799422 0.27883,1.827993 0.3454,2.285715 0.2352,1.614375 0.87702,1.552415 2.78661,-0.269034 z"
         id="path836"
         sodipodi:nodetypes="ccsssssssssssssssssssssssssssssssssscsssssssssscssscscssssssssssssssssssssssccsssccsssscsccssssssssscsscssssscssccsscssssssssssssccssscsccsccsssccccsssscscssscscscssssccsssssscccssccsccccsssccscssscccccsssssssssscsssssscsssssssscsssssssscccsscscssssscssssssscsssssssccccssssssssssscsccssssccccccsssssssssssssssssssscsssscccssssssssscsssssssssssssssscscsscsccc" />
      <path
         style="fill:#ffdd55;stroke:#000000;stroke-width:0.264583px;stroke-linecap:butt;stroke-linejoin:miter;stroke-opacity:1"
         d="m 21.420332,20.019002 c -1.863257,2.794885 -0.921005,1.721765 -2.60247,3.40323"
         id="path1041" />
      <path
         style="opacity:0.442396;fill:#ffdd55;fill-opacity:0.627027;stroke:#cdcdcd;stroke-width:0.757815;stroke-opacity:0.239216"
         d="m 77.348518,83.624652 c -2.13423,0.44634 -1.058106,3.092629 0.561557,3.52303 5.193837,7.501323 3.954714,17.404128 5.335427,26.034188 2.458217,27.75728 3.477617,55.62931 7.250831,83.26395 5.418245,37.36716 12.545177,74.46621 17.937727,111.84097 3.94288,22.04835 6.15062,44.5394 12.53559,66.06461 1.95634,5.10532 7.21931,7.88976 11.19714,11.23852 19.07449,8.45124 39.78768,12.58684 60.47734,14.6579 38.28187,4.602 76.01619,13.14347 114.4896,16.21915 20.91692,2.86697 41.7628,6.70404 62.94197,7.02629 24.50893,0.93665 49.15521,0.82959 73.40525,4.9296 22.70805,1.39178 45.60741,1.64434 68.27154,1.70737 0.009,-9.38716 -4.75489,-17.66628 -6.12983,-26.79807 -3.26006,-11.83239 -7.2485,-23.48355 -8.53342,-35.77161 -8.07955,-58.23688 -15.83191,-116.66922 -17.22625,-175.52218 -0.75993,-20.45008 -1.12836,-41.01178 -1.97532,-61.39665 -53.57102,-1.45738 -107.1835,-2.53754 -160.68011,-5.76393 -37.78887,-3.02811 -75.78262,-5.15322 -113.03787,-12.57883 -21.24361,-3.56655 -42.8071,-5.67181 -63.49831,-11.90884 -20.87523,-4.861034 -41.756091,-9.83934 -62.083004,-16.650201 -0.407333,-0.07716 -0.823508,-0.146525 -1.239858,-0.115267 z"
         id="path1117"
         transform="scale(0.26458333)" />
      <path
         style="opacity:0.442396;fill:#ffdd55;fill-opacity:0.627027;stroke:#cdcdcd;stroke-width:0.757815;stroke-opacity:0.239216"
         d="m 672.90743,335.57296 c -8.15256,1.05947 -14.74865,7.00717 -21.18694,11.68037 -24.42826,18.73826 -46.67888,40.08372 -71.09012,58.83932 -12.10276,11.11134 -24.1625,22.44465 -34.87858,34.90075 -1.23884,2.23544 3.30143,2.47166 4.48063,1.43197 13.08831,-7.49886 24.23907,-17.87831 36.35803,-26.75281 12.35699,-9.74365 23.17317,-21.39225 35.89066,-30.63533 2.45495,-0.51874 3.12528,-3.61062 5.47814,-4.64171 17.91541,-13.76923 35.14026,-28.86814 51.15042,-44.55509 -2.06729,-0.0809 -4.13236,-0.27318 -6.20224,-0.26747 z"
         id="path1156"
         transform="scale(0.26458333)" />
      <path
         style="opacity:0.442396;fill:#ffdd55;fill-opacity:0.627027;stroke:#cdcdcd;stroke-width:0.195976;stroke-opacity:0.239216"
         d="m 359.63627,438.27999 c -0.41654,0.026 -2.19838,-0.0168 -1.48268,0.35317 10.26851,1.44758 20.64631,1.89506 30.97996,2.66988 7.52893,0.60456 15.11679,0.83812 22.55696,2.1526 9.18022,0.95455 18.42018,1.18429 27.63737,1.56 2.43204,-0.0655 4.95029,0.2255 7.32915,-0.34548 0.42421,-0.39657 -0.64253,-0.5839 -0.88738,-0.6558 -4.0976,-0.70481 -8.27715,-0.74642 -12.38716,-1.39462 -11.42693,-1.47952 -22.83707,-3.41733 -34.38835,-3.58906 -12.52367,-0.28073 -25.04966,-0.47064 -37.57351,-0.74536 -0.59475,-0.006 -1.18959,-0.009 -1.78436,-0.005 z"
         id="path1195"
         transform="scale(0.26458333)" />
      <path
         style="opacity:0.442396;fill:#ffdd55;fill-opacity:0.627027;stroke:#cdcdcd;stroke-width:0.195976;stroke-opacity:0.239216"
         d="m 475.23185,444.66404 c -1.65495,0.13431 -3.43492,-0.16891 -5.02317,0.35656 -0.69049,0.40595 0.43382,0.78039 0.79682,0.78382 6.33886,0.6414 12.73433,0.42205 19.0937,0.74718 11.39681,0.26394 22.72846,1.60893 34.10121,2.26143 1.48876,0.24965 2.16255,-0.19073 0.43423,-0.84173 -4.16843,-2.55169 -9.24185,-2.15053 -13.92226,-2.43503 -9.90682,-0.20507 -19.81,-0.48971 -29.71161,-0.83308 -1.92269,-0.0372 -3.8459,-0.0522 -5.76892,-0.0392 z"
         id="path1234"
         transform="scale(0.26458333)" />
      <path
         style="opacity:0.442396;fill:#ffdd55;fill-opacity:0.627027;stroke:#cdcdcd;stroke-width:0.195976;stroke-opacity:0.239216"
         d="m 128.61287,400.97844 c -0.17115,0.5477 0.55994,1.18032 0.96497,1.56038 0.99423,0.88273 2.31408,1.12749 3.56979,1.2921 0.65362,0.16224 0.0208,1.23165 0.86293,1.06624 3.00441,-0.16641 5.67742,1.70472 8.38087,2.79935 1.49887,0.75568 3.11572,1.23317 4.69986,1.73541 0.75158,0.3415 0.31398,1.57178 1.30968,1.65095 2.49197,0.36238 5.04789,0.0297 7.52099,0.6428 7.88157,1.50199 15.28529,4.92093 23.27604,5.94046 13.92546,2.28155 27.95385,3.88645 41.86713,6.24098 16.22482,2.36711 32.60028,3.46992 48.85571,5.59806 5.8843,0.79029 11.85925,1.13214 17.66023,2.3728 1.09123,0.14433 2.13353,1.01199 3.23578,0.78687 1.19487,-0.82451 2.79996,-0.26313 4.1442,-0.28356 6.73322,0.8653 13.50852,1.37016 20.24134,2.22611 2.21641,0.48372 4.60437,0.64574 6.81131,0.16777 -0.11551,-0.53065 -1.12173,-0.3186 -1.53915,-0.51995 -20.50864,-3.11476 -41.1843,-4.949 -61.74006,-7.68854 -17.64306,-2.4085 -35.07742,-6.10723 -52.6844,-8.74318 -15.67249,-2.79349 -31.52511,-4.46414 -47.19919,-7.21573 -6.17865,-1.04623 -12.23724,-2.75726 -18.0054,-5.22833 -4.05598,-1.50757 -8.08614,-3.18005 -12.23263,-4.40099 z"
         id="path1273"
         transform="scale(0.26458333)" />
      <path
         style="opacity:0.442396;fill:#ff7f2a;fill-opacity:0.627027;stroke:#cdcdcd;stroke-width:1.16735;stroke-opacity:0.239216"
         d="m 542.14318,338.4599 c -2.54336,-0.45153 -5.38433,0.29344 -4.22728,3.2507 -1.18721,3.96102 -4.93449,6.7836 -6.80416,10.13681 7.00292,-1.08844 14.68888,-3.8981 21.64402,-1.73917 2.66829,2.35023 6.38452,7.03177 10.03438,3.25526 3.95253,-3.84458 9.89813,-6.89866 12.07858,-12.01257 -4.89523,-3.24357 -12.18894,-1.4424 -17.88242,-2.49519 -4.94521,-0.18896 -9.89362,-0.40196 -14.84312,-0.39584 z"
         id="path1349"
         transform="scale(0.26458333)" />
      <path
         style="opacity:0.442396;fill:#ff7f2a;fill-opacity:0.627027;stroke:#cdcdcd;stroke-width:1.16735;stroke-opacity:0.239216"
         d="m 548.91092,361.44927 c -9.27405,2.87442 -18.77291,5.06244 -28.57794,5.22434 -5.65748,-0.21644 -4.24991,6.26842 -2.53635,9.49651 1.72232,7.32715 4.00857,13.42155 9.72101,4.51894 6.73888,-7.26238 15.64549,-11.91064 23.32139,-17.87167 0.81155,-1.27609 -1.10431,-1.50855 -1.92811,-1.36812 z"
         id="path1388"
         transform="scale(0.26458333)" />
      <path
         style="opacity:0.442396;fill:#ff7f2a;fill-opacity:0.627027;stroke:#cdcdcd;stroke-width:1.16735;stroke-opacity:0.239216"
         d="m 511.83972,335.43911 c -1.86273,4.21025 1.09081,9.94603 1.22471,14.55076 0.24385,4.88061 5.50129,1.14271 7.00676,-0.79902 1.97082,-3.14067 13.35762,-9.21486 8.14038,-10.48452 -5.4866,-0.90265 -10.96509,-2.14224 -16.37185,-3.26722 z"
         id="path1427"
         transform="scale(0.26458333)" />
      <path
         style="opacity:1;fill:#ffdf53;fill-opacity:0.278431;stroke:#cdcdcd;stroke-width:1.16735;stroke-opacity:0.239216"
         d="m 507.72399,306.52881 c -2.04569,2.68212 1.55745,7.5222 0.95381,10.72186 -0.16085,7.9741 10.34345,6.0581 15.44766,7.15928 24.88283,2.1514 50.51393,0.60802 74.77523,7.14562 5.97,2.07764 3.47258,11.00736 -2.56323,10.40771 -10.00318,4.12001 -17.39204,13.28891 -26.06481,19.65541 -13.68242,12.9735 -31.03818,21.66989 -43.57486,35.82732 -2.79839,5.52509 3.87007,11.14839 0.61691,16.90227 -1.29689,6.05765 -1.21923,13.53725 1.78697,18.85316 6.83429,-3.64668 11.21088,-11.28574 16.86634,-16.59731 5.77779,-6.8702 12.63067,-12.94005 19.40357,-18.57992 17.77825,-16.0694 36.79725,-30.87139 54.5881,-46.97809 15.29668,-11.90445 30.36314,-24.95239 47.94101,-33.27416 3.75205,-0.81215 10.53963,5.17605 11.86688,-0.75804 -17.05792,-3.01916 -34.81041,-1.9261 -52.13415,-3.01623 -38.47759,-0.9967 -76.86271,-4.52803 -115.24736,-6.6949 -1.5543,-0.19038 -3.07844,-0.88451 -4.66207,-0.77398 z"
         id="path1466"
         transform="scale(0.26458333)" />
    </g>
  </g>
</svg>
