<?xml version="1.0" encoding="UTF-8" standalone="no"?>
<!-- Created with Inkscape (http://www.inkscape.org/) -->

<svg
   width="120.26276mm"
   height="51.072971mm"
   viewBox="0 0 120.26276 51.072971"
   version="1.1"
   id="svg5"
   inkscape:version="1.1.1 (c3084ef, 2021-09-22)"
   sodipodi:docname="console_perspective copy 4.svg"
   xmlns:inkscape="http://www.inkscape.org/namespaces/inkscape"
   xmlns:sodipodi="http://sodipodi.sourceforge.net/DTD/sodipodi-0.dtd"
   xmlns="http://www.w3.org/2000/svg"
   xmlns:svg="http://www.w3.org/2000/svg">
  <sodipodi:namedview
     id="namedview7"
     pagecolor="#ffffff"
     bordercolor="#666666"
     borderopacity="1.0"
     inkscape:pageshadow="2"
     inkscape:pageopacity="0.0"
     inkscape:pagecheckerboard="0"
     inkscape:document-units="mm"
     showgrid="false"
     inkscape:zoom="0.51580387"
     inkscape:cx="19.387214"
     inkscape:cy="303.4099"
     inkscape:window-width="1946"
     inkscape:window-height="1223"
     inkscape:window-x="0"
     inkscape:window-y="25"
     inkscape:window-maximized="0"
     inkscape:current-layer="layer1" />
  <defs
     id="defs2" />
  <g
     inkscape:label="Layer 1"
     inkscape:groupmode="layer"
     id="layer1"
     transform="translate(-96.819977,-63.174985)">
    <path
       style="fill:#000000;stroke-width:0.270249"
       d="m 188.74446,114.10558 c -0.0894,-0.1446 -0.27579,-0.19279 -0.41403,-0.10725 -0.13853,0.0855 -0.25152,0.0409 -0.25152,-0.0993 0,-0.29206 -0.84972,-0.58744 -2.02687,-0.70417 -6.38058,-0.63292 -11.11921,-0.74378 -24.59264,-0.57553 -8.0264,0.10022 -15.0191,0.22758 -15.53935,0.2828 -1.93596,0.20556 -22.09066,0.11427 -23.7819,-0.10789 -0.96616,-0.12703 -3.8024,-0.20172 -6.30279,-0.16597 -4.92711,0.0702 -4.94811,0.0648 -5.62885,-1.47311 -0.19886,-0.44923 -0.45345,-0.81675 -0.5658,-0.81675 -0.34438,0 -0.22631,-2.07915 0.13342,-2.35155 0.18577,-0.14076 0.88506,-0.3077 1.55392,-0.3709 1.7335,-0.16406 8.26263,-0.0491 9.86408,0.17396 1.94315,0.27068 28.70828,0.32255 29.99765,0.0584 2.67202,-0.54764 29.0418,-0.41444 33.5109,0.16917 0.59453,0.0776 1.76535,0.21992 2.60183,0.31632 1.77943,0.20492 1.7493,0.18768 2.87767,1.63812 1.11976,1.43917 1.20256,2.83133 0.19567,3.29004 -0.37161,0.16917 -0.67564,0.41907 -0.67564,0.55498 0,0.36362 -0.7665,0.59516 -0.95588,0.28887 z m 0.53008,-9.32321 c -0.79463,-0.55658 -4.98447,-1.05327 -11.46515,-1.35918 -2.0066,-0.0948 -3.72743,-0.21897 -3.82401,-0.27611 -0.53104,-0.31408 -20.64894,-0.0798 -25.83405,0.30132 -2.10951,0.15481 -2.74479,-0.13151 -3.66336,-1.65236 -0.90463,-1.49768 -0.91711,-2.081066 -0.059,-2.756029 0.98103,-0.771678 3.73023,-0.923485 16.34402,-0.902387 13.55254,0.02234 17.72811,0.170129 24.60337,0.868872 3.56732,0.36257 4.51628,0.65961 5.38601,1.686004 1.21453,1.43336 1.23652,2.6334 0.0731,3.99213 -0.52306,0.6109 -0.80338,0.62849 -1.56091,0.098 z m 25.55897,-11.758231 c -0.78748,-0.637203 -1.75045,-1.080464 -2.70251,-1.243922 -1.47208,-0.2528 -5.71308,-0.669856 -8.91822,-0.877044 -3.53348,-0.228541 -32.9442,-0.160553 -42.96957,0.09927 -3.19572,0.08267 -9.51954,0.211305 -14.05296,0.285677 -4.53342,0.07437 -12.25579,0.200771 -17.16081,0.280569 -4.90502,0.08012 -10.19514,0.195984 -11.75583,0.257588 -8.22149,0.324459 -16.21715,0.465094 -17.09375,0.300679 -1.25506,-0.235564 -2.403991,-1.375813 -3.025329,-3.002829 -0.408343,-1.069293 -0.429633,-1.368886 -0.135976,-1.917513 0.3363,-0.62833 0.451465,-0.650194 3.426145,-0.650194 1.71042,0 3.01262,0.105972 2.93072,0.238436 -0.15034,0.243544 6.89368,0.208432 19.03296,-0.09416 7.317,-0.182578 18.8306,-0.371827 34.45676,-0.566757 5.64823,-0.07054 12.58012,-0.186089 15.4042,-0.256631 6.62929,-0.166299 28.898,-0.168852 30.43705,-0.0032 0.65016,0.0699 2.21579,0.190558 3.47922,0.268122 2.26412,0.139167 5.55847,0.521782 7.73347,0.89779 0.77404,0.133742 1.32989,0.451976 1.82747,1.046024 0.81235,0.969737 1.64707,3.064912 1.22107,3.064912 -0.15066,0 -0.20205,0.116824 -0.11395,0.259184 0.16215,0.262695 -0.26972,1.187936 -0.85224,1.824724 -0.39886,0.436143 -0.36018,0.443102 -1.16786,-0.210348 z M 143.77569,79.006191 c -0.92246,-1.519353 -0.93743,-2.069735 -0.0855,-3.147486 1.8236,-2.307438 6.84155,-2.780289 28.30902,-2.667518 16.03572,0.08427 19.35286,0.223434 20.31283,0.852401 0.37036,0.242586 0.95671,1.028436 1.30291,1.746107 l 0.62948,1.304825 -0.8765,0.985026 c -0.87641,0.984834 -0.87673,0.984962 -2.20441,0.691976 -1.96893,-0.434452 -8.21864,-0.664686 -19.43457,-0.715884 -12.83626,-0.05873 -20.03034,0.321043 -23.37655,1.233677 -3.59069,0.979344 -3.81862,0.965236 -4.57654,-0.283124 z m 41.87091,-9.672502 c -0.3716,-0.04724 -1.16208,-0.203963 -1.7566,-0.348078 -1.11919,-0.271313 -1.59912,-0.323118 -7.7021,-0.829867 -5.12511,-0.425547 -18.36499,-0.349675 -29.59228,0.169491 -5.32243,0.246097 -13.64015,0.406714 -21.17573,0.408757 -6.91877,0.0019 -7.7449,-0.04565 -8.50375,-0.488779 -0.55999,-0.327044 -0.8997,-0.780232 -1.0178,-1.357682 -0.0977,-0.476745 -0.29813,-1.019563 -0.44575,-1.20629 -0.14779,-0.186727 -0.32957,-0.678219 -0.4042,-1.092274 -0.20205,-1.119981 0.53947,-1.539303 2.16578,-1.224835 1.61732,0.312808 16.93479,0.335758 27.35458,0.04118 12.82654,-0.36273 33.60918,-0.283762 37.83486,0.143636 4.07679,0.412364 4.61025,0.67675 5.54411,2.747731 l 0.47365,1.050301 -0.77934,0.933348 c -0.89871,1.076379 -1.0767,1.170317 -1.99543,1.053429 z m -3.78347,-4.937706 c 0,-0.148743 -0.12161,-0.270355 -0.27036,-0.270355 -0.14874,0 -0.27035,0.121612 -0.27035,0.270355 0,0.148744 0.12161,0.270356 0.27035,0.270356 0.14875,0 0.27036,-0.121612 0.27036,-0.270356 z"
       id="path1001"
       sodipodi:nodetypes="ccscssccssscscscccscccsscsscssscccsccscscsssccscscssscsccccssscsscsccsssssscccccsscssssssss" />
  </g>
</svg>
