<?xml version="1.0" encoding="UTF-8" standalone="no"?>
<!-- Created with Inkscape (http://www.inkscape.org/) -->

<svg
   width="256.10184mm"
   height="240.8905mm"
   viewBox="0 0 256.10184 240.8905"
   version="1.1"
   id="svg15443"
   inkscape:version="1.1.1 (c3084ef, 2021-09-22)"
   sodipodi:docname="right_angle_lines.svg"
   xmlns:inkscape="http://www.inkscape.org/namespaces/inkscape"
   xmlns:sodipodi="http://sodipodi.sourceforge.net/DTD/sodipodi-0.dtd"
   xmlns="http://www.w3.org/2000/svg"
   xmlns:svg="http://www.w3.org/2000/svg">
  <sodipodi:namedview
     id="namedview15445"
     pagecolor="#ffffff"
     bordercolor="#666666"
     borderopacity="1.0"
     inkscape:pageshadow="2"
     inkscape:pageopacity="0.0"
     inkscape:pagecheckerboard="0"
     inkscape:document-units="mm"
     showgrid="false"
     inkscape:zoom="0.18390424"
     inkscape:cx="133.22151"
     inkscape:cy="530.16722"
     inkscape:window-width="2560"
     inkscape:window-height="1387"
     inkscape:window-x="0"
     inkscape:window-y="25"
     inkscape:window-maximized="1"
     inkscape:current-layer="layer1" />
  <defs
     id="defs15440">
    <clipPath
       clipPathUnits="userSpaceOnUse"
       id="clipPath16615">
      <rect
         style="fill:#e6e6e6;stroke-width:1.19827;stroke-dasharray:0, 13.1809"
         id="rect16617"
         width="790.22479"
         height="1226.9279"
         x="-1668.83"
         y="-280.73773" />
    </clipPath>
    <clipPath
       clipPathUnits="userSpaceOnUse"
       id="clipPath16723">
      <rect
         style="fill:#e6e6e6;stroke-width:0.765;stroke-dasharray:0, 8.41499"
         id="rect16725"
         width="779.82703"
         height="829.21613"
         x="-317.12967"
         y="1138.5472" />
    </clipPath>
    <clipPath
       clipPathUnits="userSpaceOnUse"
       id="clipPath16615-6">
      <rect
         style="fill:#e6e6e6;stroke-width:1.19827;stroke-dasharray:0, 13.1809"
         id="rect16617-4"
         width="790.22479"
         height="1226.9279"
         x="-1668.83"
         y="-280.73773" />
    </clipPath>
  </defs>
  <g
     inkscape:label="Layer 1"
     inkscape:groupmode="layer"
     id="layer1"
     transform="translate(164.69128,-1341.6005)">
    <g
       id="g18494"
       transform="matrix(215.89999,0,0,-294.30133,0,294.30133)" />
    <path
       style="fill:#000000;stroke-width:0.693688"
       d="m -152.01635,1581.1374 c -1.5771,-0.7374 -3.04933,-1.8189 -3.27153,-2.3973 -0.22204,-0.5817 -0.58172,-5.0347 -0.79965,-9.9023 -0.21794,-4.8667 -0.52027,-10.4094 -0.67266,-12.3176 -0.34821,-4.3653 -0.97343,-17.3056 -1.42406,-29.4814 -0.1909,-5.1511 -0.50224,-13.5794 -0.69232,-18.7296 -0.19008,-5.151 -0.49569,-10.1456 -0.67839,-11.0993 -0.30643,-1.6009 -0.63743,-14.093 -1.42447,-53.7602 -0.44734,-22.5312 -0.92967,-38.3522 -1.3014,-42.6618 -0.18107,-2.0991 -0.51125,-6.625 -0.73329,-10.0588 -0.22203,-3.4337 -0.75868,-8.8617 -1.1921,-12.062 -0.73001,-5.3911 -0.69314,-5.8884 0.50388,-6.7634 0.71035,-0.5162 2.32464,-0.9447 3.58705,-0.9447 1.57784,0 2.29531,-0.3277 2.29531,-1.0405 0,-0.5735 0.46865,-1.0405 1.04053,-1.0405 0.57271,0 1.04053,-0.3114 1.04053,-0.6965 0,-0.385 1.73384,-0.6964 3.85292,-0.6964 2.119,0 6.56723,-0.7374 9.88505,-1.6435 10.87135,-2.9619 31.80045,-5.9139 46.95969,-6.6234 1.144584,-0.082 3.017542,-0.2294 4.162126,-0.3851 5.875809,-0.8201 18.191772,-1.8565 24.789316,-2.0851 4.095844,-0.1393 7.997838,-0.4179 8.67107,-0.6063 0.673478,-0.1885 5.594292,-0.5653 10.935661,-0.83 14.468388,-0.721 16.210828,-0.8201 21.504349,-1.2544 2.670643,-0.2212 7.665195,-0.5653 11.09895,-0.7783 12.7016147,-0.7784 39.639014,-3.206 42.661799,-3.8508 1.716878,-0.3687 6.243191,-0.9889 10.058501,-1.383 7.643156,-0.7865 10.910589,-1.2036 13.526912,-1.7124 0.953848,-0.1884 2.826805,-0.4752 4.162127,-0.639 1.335321,-0.1639 7.266352,-1.1504 13.180095,-2.1852 5.913661,-1.0348 11.727366,-1.8934 12.919307,-1.9081 2.746676,0 5.917512,2.4669 7.800383,6.1514 2.633528,5.1543 -0.200733,9.1583 -6.506764,9.1911 -3.133148,0 -11.892786,0.9995 -16.293989,1.8287 -0.953848,0.1802 -5.324081,0.8209 -9.711684,1.4248 -4.387521,0.6063 -10.006392,1.3871 -12.48638,1.7402 -2.479907,0.3523 -6.225821,0.8357 -8.324254,1.0717 -2.098351,0.2376 -4.595627,0.5489 -5.549475,0.6882 -0.953848,0.1393 -7.665277,0.7456 -14.91426,1.3388 -7.2490651,0.5899 -14.1165743,1.2265 -15.2611592,1.4051 -1.14458487,0.1802 -4.890499,0.4916 -8.3242536,0.6964 -8.4601782,0.508 -16.5743592,1.034 -37.1123242,2.4235 -5.532106,0.3769 -14.740811,0.9947 -20.463736,1.379 -5.722924,0.385 -11.653955,0.8504 -13.180095,1.0348 -2.88342,0.3523 -5.589786,0.5735 -20.99072,1.7738 -16.007312,1.2429 -25.758242,2.861 -39.106542,6.4873 -3.67578,0.9988 -7.73385,1.9352 -9.01788,2.0803 -2.63263,0.2949 -2.51719,-0.3687 -1.76285,10.1472 0.95754,13.3426 1.23635,20.9302 1.63151,44.3955 0.65627,38.9806 0.86307,47.2852 1.26838,50.986 0.20893,1.9082 0.51044,7.3706 0.6702,12.1398 0.15977,4.7693 0.458,11.9489 0.66201,15.9546 0.20401,4.0064 0.54485,11.3418 0.75623,16.3019 0.38999,9.1526 0.82907,16.2044 1.35965,21.8512 0.64726,6.8929 1.3468,19.9331 1.20858,22.5451 -0.15321,2.893 -1.49747,4.5087 -3.75255,4.5087 -0.68987,0 -1.25487,0.3113 -1.25487,0.6964 0,1.0987 -2.86564,0.762 -5.98904,-0.7046 z"
       id="path20085"
       sodipodi:nodetypes="ssssssssssssssssscccsscscsccsscscssssscscssccssssssssssssss" />
  </g>
</svg>
