<?xml version="1.0" encoding="UTF-8" standalone="no"?>
<!-- Created with Inkscape (http://www.inkscape.org/) -->

<svg
   width="70.455696mm"
   height="128.74365mm"
   viewBox="0 0 70.455696 128.74365"
   version="1.1"
   id="svg5"
   inkscape:version="1.1.1 (c3084ef, 2021-09-22)"
   sodipodi:docname="console_perspective copy 5.svg"
   xmlns:inkscape="http://www.inkscape.org/namespaces/inkscape"
   xmlns:sodipodi="http://sodipodi.sourceforge.net/DTD/sodipodi-0.dtd"
   xmlns="http://www.w3.org/2000/svg"
   xmlns:svg="http://www.w3.org/2000/svg">
  <sodipodi:namedview
     id="namedview7"
     pagecolor="#ffffff"
     bordercolor="#666666"
     borderopacity="1.0"
     inkscape:pageshadow="2"
     inkscape:pageopacity="0.0"
     inkscape:pagecheckerboard="0"
     inkscape:document-units="mm"
     showgrid="false"
     inkscape:zoom="0.51580387"
     inkscape:cx="-106.62968"
     inkscape:cy="404.22341"
     inkscape:window-width="1946"
     inkscape:window-height="1223"
     inkscape:window-x="0"
     inkscape:window-y="25"
     inkscape:window-maximized="0"
     inkscape:current-layer="layer1" />
  <defs
     id="defs2" />
  <g
     inkscape:label="Layer 1"
     inkscape:groupmode="layer"
     id="layer1"
     transform="translate(-119.86369,-36.627417)">
    <path
       style="fill:#000000;stroke-width:0.175642"
       d="m 123.94199,165.12887 c -0.1365,-0.1587 -0.36723,-0.53576 -0.51292,-0.83777 -0.35864,-0.74353 -0.0187,-1.64642 0.61858,-1.64642 0.23215,0 1.44131,-0.0834 2.68703,-0.18504 6.82873,-0.55813 10.44233,-0.81147 13.59384,-0.95293 1.01434,-0.0454 2.59512,-0.12924 3.51284,-0.18588 0.91774,-0.0568 2.56428,-0.13214 3.659,-0.1672 2.55126,-0.0821 5.3394,-0.2434 6.36923,-0.36831 0.44384,-0.0537 1.47135,-0.12779 2.28336,-0.16451 0.81196,-0.0367 1.87152,-0.10455 2.35453,-0.15102 1.70377,-0.16389 3.00198,-0.26733 4.47887,-0.35672 0.82113,-0.0498 1.7696,-0.12758 2.1077,-0.17301 0.33811,-0.0454 1.00994,-0.1363 1.49297,-0.20185 0.48301,-0.0656 2.42434,-0.14024 4.31407,-0.16617 l 3.43589,-0.0471 0.38433,0.56091 c 0.21139,0.3085 0.38434,0.69434 0.38434,0.85741 0,0.16306 0.079,0.29651 0.17571,0.29651 0.2299,0 0.22588,0.80744 -0.006,1.24104 -0.20559,0.38409 -0.86679,0.45052 -1.19666,0.12011 -0.24453,-0.24483 -3.84235,-0.30698 -5.82283,-0.10061 -2.76426,0.28811 -5.83863,0.51186 -5.91966,0.43081 -0.0485,-0.0485 -0.26452,-0.0214 -0.47994,0.0606 -0.2154,0.0819 -1.13598,0.195 -2.04574,0.25151 -0.90975,0.0564 -2.24688,0.14211 -2.97141,0.19044 -1.72906,0.11535 -5.09371,0.2472 -9.2212,0.3613 -1.83545,0.0508 -3.81142,0.12572 -4.39104,0.16658 -0.57962,0.0409 -2.19992,0.12157 -3.60067,0.17924 -1.40075,0.0579 -2.65801,0.14231 -2.79391,0.18774 -0.13588,0.0454 -1.00537,0.12655 -1.93208,0.18028 -0.9267,0.0537 -1.97319,0.17094 -2.32551,0.26029 -0.35231,0.0894 -1.1427,0.17052 -1.75642,0.18007 -0.61371,0.0104 -1.39248,0.0848 -1.7306,0.16741 -0.33811,0.0826 -1.57833,0.18401 -2.75608,0.22542 -1.83036,0.0645 -2.17734,0.0334 -2.38936,-0.21328 z m -1.35331,-5.92657 c -0.14501,-0.0471 -0.4323,-0.45392 -0.6387,-0.90401 -0.2946,-0.64254 -0.33572,-0.90505 -0.19127,-1.22189 0.17219,-0.37779 0.29133,-0.40486 1.86818,-0.42415 0.92638,-0.0104 2.07952,-0.0394 2.56252,-0.0625 2.31255,-0.11015 5.06783,-0.29391 6.49877,-0.43332 0.86943,-0.0846 2.16884,-0.16596 2.88753,-0.18027 0.71874,-0.0145 1.3719,-0.0666 1.45148,-0.11576 0.0797,-0.0492 0.95377,-0.1224 1.94261,-0.16244 1.83771,-0.0747 4.36708,-0.24854 5.31075,-0.36507 0.28981,-0.0357 1.67299,-0.0958 3.07375,-0.13318 1.40073,-0.0376 2.74439,-0.11514 2.9859,-0.17239 0.24152,-0.0573 1.45399,-0.14481 2.6944,-0.19459 1.24041,-0.0498 2.30744,-0.12116 2.37117,-0.15829 0.0637,-0.0373 1.25846,-0.12198 2.65496,-0.18816 1.3965,-0.0662 2.58603,-0.14936 2.64341,-0.18484 0.0575,-0.0355 1.18888,-0.10559 2.51447,-0.15559 1.32559,-0.0502 2.47324,-0.13027 2.5503,-0.17778 0.32359,-0.19998 6.74173,-0.47633 7.01082,-0.30188 0.27217,0.17654 1.08611,2.00368 0.97363,2.18568 -0.0566,0.0917 -0.11161,0.33379 -0.12219,0.53801 -0.0166,0.32267 -0.12281,0.3692 -0.80918,0.3553 -0.43449,-0.008 -1.54085,-0.0315 -2.45857,-0.0506 -0.91772,-0.0187 -1.99203,0.004 -2.38731,0.051 -0.73875,0.0882 -3.55872,0.24415 -6.65825,0.36831 -0.96604,0.0388 -2.54682,0.11763 -3.51285,0.1753 -0.96602,0.0577 -2.30968,0.13297 -2.98591,0.1672 -0.67623,0.0342 -1.70374,0.10726 -2.28336,0.16223 -0.57962,0.055 -2.47655,0.14771 -4.21541,0.206 -3.37981,0.11327 -4.79581,0.18007 -7.02566,0.33202 -0.77284,0.0527 -1.99795,0.13568 -2.72247,0.18443 -2.48442,0.16762 -3.77688,0.27415 -4.30322,0.35497 -1.4275,0.21921 -11.25347,0.64546 -11.68019,0.5067 z m 15.60127,-6.96441 c -0.15061,-0.12073 -0.41907,-0.47523 -0.5968,-0.78771 -0.31603,-0.5557 -0.3154,-0.57881 0.0286,-1.05385 0.90816,-1.25394 5.98582,-2.89127 7.97837,-2.57265 1.22284,0.19563 2.21537,1.66718 1.93251,2.8654 -0.11866,0.50247 -0.69896,0.60277 -1.41647,0.24484 -0.63159,-0.3151 -1.6609,-0.20331 -3.50431,0.38065 -0.82114,0.26008 -1.66422,0.48533 -1.87354,0.50052 -0.20927,0.0145 -0.34883,0.0593 -0.31007,0.0981 0.0388,0.0388 -0.0666,0.17447 -0.2342,0.3018 -0.38888,0.29529 -1.6467,0.3097 -2.00412,0.023 z m 0.54253,-5.8929 c -0.57802,-0.0485 -0.66111,-0.1282 -1.00668,-0.96602 -0.47857,-1.16029 -0.36814,-1.59959 0.46548,-1.85187 0.6432,-0.19459 2.78962,-0.51172 3.45456,-0.51033 0.19314,0 1.02311,-0.0805 1.84424,-0.17986 2.52533,-0.30545 3.7975,-0.0425 4.36946,0.90299 0.40238,0.66515 0.65279,1.42575 0.4226,1.28346 -0.09,-0.0556 -0.15766,0.072 -0.15061,0.28334 0.0104,0.28979 -0.095,0.391 -0.42608,0.4111 -0.24152,0.0145 -0.53788,-0.0533 -0.6586,-0.15123 -0.35573,-0.28817 -4.22153,0.0595 -6.63055,0.59632 -0.57962,0.12924 -1.33736,0.21106 -1.68386,0.18193 z m 8.53114,-5.27279 c -0.55989,-0.21232 -1.70425,-0.26937 -5.72327,-0.28528 -4.174,-0.0166 -5.06503,-0.0637 -5.26926,-0.27826 -0.45772,-0.48108 -0.86615,-1.57995 -0.75373,-2.0279 0.11285,-0.4494 0.66376,-0.86451 0.9295,-0.70025 0.083,0.0512 2.15326,0.10912 4.60065,0.12862 4.81785,0.0384 5.99295,0.16949 6.63672,0.74089 0.83289,0.73919 1.21792,2.4421 0.58932,2.60648 -0.17052,0.0446 -0.62507,-0.0384 -1.00993,-0.18421 z m 12.91245,-7.14605 c -3.67006,-1.08246 -5.94109,-1.54116 -8.69428,-1.75607 -0.67621,-0.0527 -1.57476,-0.13983 -1.99674,-0.19314 -2.85822,-0.36234 -5.08218,-0.43604 -15.30399,-0.50716 -5.36148,-0.0373 -10.11481,-0.0726 -10.56298,-0.0786 -1.10678,-0.0145 -1.51471,-0.3892 -1.65746,-1.52209 -0.10538,-0.83655 -0.0853,-0.90447 0.30143,-1.01427 1.79564,-0.50984 15.62639,-0.74645 21.96432,-0.37578 6.61777,0.38706 8.64491,0.60673 12.26122,1.32866 1.40075,0.27965 2.94319,0.53759 3.42765,0.57321 1.47793,0.10871 2.07358,0.62665 2.29163,1.9928 0.0875,0.54875 0.0367,0.86466 -0.20455,1.2734 -0.35577,0.60229 -0.60245,0.64 -1.82615,0.27908 z m -39.51944,-12.16339 c -0.41872,-0.46921 -0.69886,-1.09341 -0.77834,-1.73429 -0.0917,-0.73942 0.22513,-0.94056 1.62256,-1.02999 0.54999,-0.0353 1.78589,-0.11389 2.74638,-0.17468 0.9605,-0.0608 1.79813,-0.14272 1.86138,-0.18172 0.0633,-0.0392 2.63656,-0.15518 5.71844,-0.25772 3.08185,-0.10269 5.88002,-0.22303 6.21812,-0.26751 2.10053,-0.27641 9.88018,-0.63905 13.52445,-0.63042 5.02323,0.0124 6.45991,0.20309 6.79602,0.90434 0.11721,0.24465 0.24417,0.72589 0.28203,1.06945 0.0378,0.34356 0.12178,0.71029 0.1865,0.81493 0.0651,0.10539 -0.0463,0.24226 -0.24948,0.30676 -0.20185,0.0641 -0.3145,0.16866 -0.25021,0.2322 0.0643,0.0637 -0.17654,0.19895 -0.53524,0.30091 -0.49637,0.14107 -0.93003,0.12219 -1.81613,-0.079 -0.87184,-0.19791 -2.11202,-0.25589 -4.94035,-0.23112 -4.22968,0.0371 -7.15763,0.14273 -7.55262,0.27232 -0.42515,0.13961 -3.01648,0.29533 -6.41093,0.38532 -1.73885,0.046 -3.81743,0.12364 -4.61904,0.17239 -0.90285,0.0548 -1.59599,0.0145 -1.82151,-0.10621 -0.20019,-0.10726 -0.31893,-0.12178 -0.26377,-0.0326 0.10538,0.17031 -5.80411,0.58439 -8.13742,0.57007 -1.00508,-0.006 -1.37976,-0.078 -1.58078,-0.30331 z m 2.70713,-8.82157 c -0.35501,-0.14169 -1.12635,-1.63345 -1.12635,-2.17834 0,-0.27201 0.76943,-1.206 0.95614,-1.16061 0.0568,0.0145 0.34466,-0.0278 0.63934,-0.0925 0.38721,-0.0851 0.62951,-0.033 0.87366,0.18816 0.3892,0.35221 1.26311,0.28093 7.63027,-0.6225 1.93205,-0.27415 4.33961,-0.50861 5.35008,-0.52104 1.0105,-0.0124 1.86493,-0.0502 1.89874,-0.084 0.0338,-0.0338 0.45434,0.0421 0.93449,0.16886 0.48016,0.12675 1.24601,0.20517 1.70193,0.17426 0.45591,-0.0307 0.97439,0.0218 1.15222,0.117 0.21913,0.11721 0.48278,0.10684 0.81817,-0.0319 0.79024,-0.32734 1.31171,0.12654 1.5587,1.35633 0.12282,0.61155 0.13713,1.05802 0.0369,1.15812 -0.0896,0.0896 -0.12406,0.26423 -0.0765,0.3881 0.0577,0.14999 -0.17882,0.2818 -0.70871,0.39478 -0.97648,0.20826 -1.67905,0.0892 -2.03413,-0.34464 -0.382,-0.46676 -1.57509,-0.63588 -1.84845,-0.26201 -0.16534,0.22596 -0.36536,0.25948 -0.94969,0.15891 -0.686,-0.11804 -2.23303,-0.062 -5.98962,0.21658 -0.82113,0.061 -1.60897,0.15081 -1.75074,0.19998 -0.36959,0.128 -2.70645,0.4261 -4.04544,0.51622 -0.62794,0.0423 -1.65544,0.14708 -2.28336,0.2328 -1.47462,0.20144 -2.28182,0.20965 -2.73775,0.0276 z m -2.00458,-8.12284 c -0.24149,-0.12841 -0.6209,-0.58082 -0.84312,-1.0051 -0.34387,-0.65656 -0.37377,-0.84455 -0.20061,-1.26242 0.11182,-0.27002 0.35387,-0.53873 0.5378,-0.59711 0.18401,-0.0583 2.68492,-0.14086 5.55774,-0.18318 2.87285,-0.0423 5.73709,-0.11596 6.365,-0.16347 4.87079,-0.36825 9.33688,-0.52257 14.49047,-0.5007 19.38902,0.0824 31.75268,0.0444 32.61897,-0.1 1.14011,-0.19003 2.5178,-0.12116 2.83449,0.14168 0.11742,0.0975 0.23251,0.42762 0.25587,0.73376 0.0232,0.30614 0.12385,0.70872 0.22332,0.89463 0.29236,0.54628 -0.0301,1.88424 -0.45295,1.87918 -0.0967,-0.002 -1.08459,0.0606 -2.19552,0.13712 -1.11094,0.0765 -2.21748,0.12862 -2.459,0.11556 -0.24149,-0.0125 -2.12299,-0.0303 -4.18107,-0.0382 -2.65824,-0.0104 -3.70766,-0.0699 -3.62339,-0.2062 0.0768,-0.12406 -0.0216,-0.11701 -0.27832,0.0207 -0.28451,0.15227 -1.0987,0.18339 -2.87537,0.11016 -1.36315,-0.0562 -2.87366,-0.0894 -3.35667,-0.0739 -1.39034,0.045 -1.72572,0.0409 -9.04556,-0.11161 -8.32161,-0.17343 -12.31067,-0.18131 -14.66612,-0.0293 -0.96603,0.0624 -2.27018,0.14542 -2.89809,0.18463 -0.62791,0.0392 -4.34274,0.11991 -8.25517,0.17924 -5.74358,0.0871 -7.19808,0.0631 -7.55262,-0.12572 z m 45.11907,-9.214316 c -1.24776,-0.616753 -10.54786,-1.151666 -13.67054,-0.786303 -2.36347,0.276533 -3.01134,-0.135258 -3.26957,-2.078578 -0.0448,-0.338105 -0.0125,-0.719255 0.0709,-0.847003 0.33661,-0.512052 2.78211,-0.822856 6.43935,-0.818354 2.44479,0.0021 6.26719,0.17094 7.28913,0.320388 0.24152,0.03527 0.95287,0.124471 1.58078,0.198116 0.62794,0.07364 1.29968,0.163471 1.49276,0.199568 0.52906,0.09895 1.19892,0.65316 1.48255,1.226493 0.30358,0.613724 0.35327,2.257817 0.0765,2.534951 -0.28803,0.288523 -0.9644,0.311488 -1.49207,0.05062 z m -14.89218,-7.99903 c -0.32906,-0.122604 -0.7402,-0.420525 -0.91365,-0.662039 -0.36103,-0.502717 -0.57487,-1.73448 -0.3596,-2.071318 0.0853,-0.133391 0.64605,-0.263442 1.35964,-0.315243 0.66797,-0.04854 2.43958,-0.20351 3.93692,-0.344473 1.49734,-0.140859 3.72133,-0.275723 4.94218,-0.299497 2.55756,-0.04979 2.78903,0.05145 3.11923,1.362706 0.42449,1.685852 0.096,2.567105 -0.89828,2.410438 -0.31711,-0.05 -1.07143,-0.09916 -1.67627,-0.109327 -0.77684,-0.01245 -1.07597,-0.08028 -1.01888,-0.22913 0.0483,-0.12613 -0.0212,-0.171355 -0.17363,-0.112853 -0.14003,0.05373 -0.25452,0.163679 -0.25452,0.244149 0,0.0807 -0.37543,0.141482 -0.83429,0.135258 -0.45886,-0.0062 -2.13845,0.03942 -3.7324,0.101651 -2.14932,0.08381 -3.05267,0.05539 -3.49638,-0.109949 z m 36.69274,-8.579644 c -1.57361,-0.382955 -12.05211,-0.828187 -22.65783,-0.962761 -4.29885,-0.05456 -8.25079,-0.167413 -8.7821,-0.250746 -0.53132,-0.0834 -1.55841,-0.160775 -2.28242,-0.172185 -0.724,-0.01245 -1.49464,-0.05684 -1.71251,-0.101029 -0.21786,-0.04419 -0.57474,-0.116587 -0.79308,-0.160982 -0.55,-0.111609 -1.03792,-1.017797 -1.05209,-1.953776 -0.0145,-0.970934 0.35337,-1.301196 1.36123,-1.22141 0.74703,0.05912 8.08207,0.209629 17.47638,0.358579 3.13961,0.04979 6.18261,0.12696 6.76223,0.171562 0.57961,0.0446 2.23943,0.124679 3.68848,0.178201 1.44905,0.05352 3.89925,0.171355 5.44489,0.261866 1.54566,0.09045 2.93631,0.167413 3.09034,0.171147 0.15393,0.0041 0.50068,0.196249 0.77035,0.427993 0.36936,0.317379 0.46902,0.532693 0.40397,0.872892 -0.0475,0.248382 -0.0272,0.415006 0.0452,0.37028 0.20496,-0.126545 0.35456,0.700957 0.23496,1.29908 -0.10165,0.508505 -0.27558,0.633764 -1.11982,0.80682 -0.14501,0.02966 -0.5401,-0.01245 -0.8782,-0.09564 z m -1.20849,-9.562092 c -1.74357,-0.53622 -6.03694,-0.675648 -26.87037,-0.87254 -7.12419,-0.06742 -9.66619,-0.146046 -10.0116,-0.310181 -0.32869,-0.156211 -0.55132,-0.486059 -0.76757,-1.137518 -0.3702,-1.115299 -0.20558,-1.728795 0.51792,-1.930894 0.26909,-0.0751 2.42569,-0.124471 4.79248,-0.109534 2.36677,0.01452 8.68988,0.04771 14.05136,0.07302 14.13276,0.06659 18.51641,0.287423 19.64266,0.98919 0.47156,0.293854 0.86298,1.129011 0.96561,2.060405 0.13629,1.237406 -0.7628,1.717157 -2.32049,1.238111 z M 128.69223,59.249073 c -0.45886,-0.139407 -0.83429,-0.328084 -0.83429,-0.419051 0,-0.231702 -1.94854,-0.206622 -2.85847,0.03672 -1.15484,0.308874 -1.97238,0.08319 -2.49756,-0.689776 -0.81639,-1.201454 -0.43777,-2.32335 0.75176,-2.22759 0.31746,0.02552 1.02881,-0.05581 1.58078,-0.180898 1.21929,-0.276408 2.86961,-0.211185 4.51644,0.178408 0.95722,0.226454 1.65204,0.264978 3.13751,0.173844 1.04937,-0.06431 1.99784,-0.148327 2.10771,-0.186498 0.30545,-0.106215 4.1702,-0.577088 6.43499,-0.783876 1.11092,-0.101443 2.44359,-0.224545 2.96143,-0.273545 5.12929,-0.485477 17.21762,-0.659902 19.16947,-0.276615 3.05103,0.599119 3.11214,0.634406 3.46981,2.003128 0.32343,1.237737 0.24265,2.381022 -0.15103,2.137723 -0.0865,-0.05352 -0.15725,-0.02614 -0.15725,0.06058 0,0.226599 -0.86254,0.1253 -1.58077,-0.185669 -1.79162,-0.77566 -10.18329,-0.867561 -19.49627,-0.21353 -2.22917,0.156626 -5.29789,0.430731 -5.79619,0.517882 -1.0959,0.191685 -3.91801,0.379283 -7.55262,0.502177 -1.75771,0.05933 -2.58702,0.01452 -3.20547,-0.173429 z m 29.6396,-8.940153 c -0.57962,-0.126752 -2.59511,-0.315823 -4.47887,-0.420213 -1.88377,-0.104348 -3.82022,-0.224836 -4.30323,-0.267716 -0.48301,-0.04294 -2.06379,-0.123848 -3.51283,-0.17986 -1.44905,-0.05601 -2.83223,-0.134636 -3.07375,-0.174674 -0.24151,-0.04004 -1.38757,-0.119077 -2.54681,-0.175296 -2.71633,-0.132147 -6.748,-0.404883 -8.86991,-0.600032 -0.91775,-0.08443 -1.78717,-0.154136 -1.93208,-0.154759 -0.6772,-0.0041 -6.33317,-0.396792 -7.10234,-0.4939 -0.57769,-0.07302 -0.96934,-0.234357 -1.17353,-0.483672 -0.63279,-0.772549 -0.81912,-2.701638 -0.26763,-2.770367 0.77124,-0.09605 6.00847,0.09501 6.05562,0.221019 0.0324,0.08651 0.11576,0.122396 0.18526,0.07925 0.0695,-0.04294 0.43822,0 0.81928,0.09377 1.25417,0.311115 3.45546,0.494294 9.29934,0.773897 1.06262,0.05083 2.68292,0.130695 3.60067,0.177371 5.19673,0.264397 9.61914,0.469628 11.24107,0.521657 2.84026,0.09107 6.35293,0.279955 6.93788,0.373018 0.56727,0.09024 1.13144,0.66847 1.13777,1.166146 0.002,0.169073 0.083,0.30738 0.17965,0.30738 0.19023,0 0.23263,0.911437 0.0705,1.515452 -0.09,0.33576 -0.77344,0.803376 -1.08874,0.745041 -0.0678,-0.01245 -0.59771,-0.126545 -1.17733,-0.253277 z M 120.97666,39.839499 c -0.34648,-0.27284 -0.72129,-1.566153 -0.56893,-1.963173 0.16015,-0.417372 1.93029,-1.022901 3.41043,-1.166686 0.72453,-0.07033 2.81906,-0.101651 4.65452,-0.0697 1.83547,0.03215 8.7909,0.09584 15.45651,0.141689 l 12.1193,0.08339 0.38518,0.662703 c 0.25541,0.439444 0.32864,0.730851 0.21739,0.864927 -0.11078,0.133391 -0.0799,0.27506 0.0907,0.416604 0.22391,0.185876 0.20663,0.269811 -0.12965,0.629552 -0.37124,0.397228 -0.44851,0.40872 -1.79309,0.266907 -0.77282,-0.08153 -5.11996,-0.158078 -9.66032,-0.170318 -7.99243,-0.02137 -11.13575,-0.0836 -14.36066,-0.283918 -0.84634,-0.05248 -1.83433,-0.0166 -2.19552,0.078 -0.36122,0.09543 -1.88184,0.255995 -3.37918,0.356629 -1.49736,0.100614 -2.99908,0.228529 -3.3372,0.284229 -0.38561,0.06348 -0.72459,0.01452 -0.90945,-0.130901 z"
       id="path1001"
       sodipodi:nodetypes="csscccccsssssscsssssssssssscssscsccccssccscscccsscssccsscccccssssscscccsssssscsccccssccssccccccsscssssssssccscsssssscssssssccccscsscssccscssssscscscsssscccsscsscsccsccccsscsccsscscsccscsccssscccscccssssscccssscssscssssccccsscsccssssscsssssccscsssccssssssssscsscscssssscscsscsssscsccsssccscsscssccccsscscssssscccsscc" />
  </g>
</svg>
