<?xml version="1.0" encoding="UTF-8" standalone="no"?>
<!-- Created with Inkscape (http://www.inkscape.org/) -->

<svg
   width="189.1223mm"
   height="164.16393mm"
   viewBox="0 0 189.1223 164.16392"
   version="1.1"
   id="svg15443"
   inkscape:version="1.1.1 (c3084ef, 2021-09-22)"
   sodipodi:docname="link.svg"
   xmlns:inkscape="http://www.inkscape.org/namespaces/inkscape"
   xmlns:sodipodi="http://sodipodi.sourceforge.net/DTD/sodipodi-0.dtd"
   xmlns="http://www.w3.org/2000/svg"
   xmlns:svg="http://www.w3.org/2000/svg">
  <sodipodi:namedview
     id="namedview15445"
     pagecolor="#ffffff"
     bordercolor="#666666"
     borderopacity="1.0"
     inkscape:pageshadow="2"
     inkscape:pageopacity="0.0"
     inkscape:pagecheckerboard="0"
     inkscape:document-units="mm"
     showgrid="false"
     inkscape:zoom="0.057153973"
     inkscape:cx="848.58493"
     inkscape:cy="-1338.4896"
     inkscape:window-width="2560"
     inkscape:window-height="1387"
     inkscape:window-x="0"
     inkscape:window-y="25"
     inkscape:window-maximized="1"
     inkscape:current-layer="layer1" />
  <defs
     id="defs15440">
    <clipPath
       clipPathUnits="userSpaceOnUse"
       id="clipPath16615">
      <rect
         style="fill:#e6e6e6;stroke-width:1.19827;stroke-dasharray:0, 13.1809"
         id="rect16617"
         width="790.22479"
         height="1226.9279"
         x="-1668.83"
         y="-280.73773" />
    </clipPath>
    <clipPath
       clipPathUnits="userSpaceOnUse"
       id="clipPath16723">
      <rect
         style="fill:#e6e6e6;stroke-width:0.765;stroke-dasharray:0, 8.41499"
         id="rect16725"
         width="779.82703"
         height="829.21613"
         x="-317.12967"
         y="1138.5472" />
    </clipPath>
    <clipPath
       clipPathUnits="userSpaceOnUse"
       id="clipPath16615-6">
      <rect
         style="fill:#e6e6e6;stroke-width:1.19827;stroke-dasharray:0, 13.1809"
         id="rect16617-4"
         width="790.22479"
         height="1226.9279"
         x="-1668.83"
         y="-280.73773" />
    </clipPath>
  </defs>
  <g
     inkscape:label="Layer 1"
     inkscape:groupmode="layer"
     id="layer1"
     transform="translate(1533.5819,-1451.3291)">
    <g
       id="g18494"
       transform="matrix(215.89999,0,0,-294.30133,0,294.30133)" />
    <path
       style="fill:#000000;stroke-width:0.93038"
       d="m -1388.4067,1609.2104 c -4.6053,-3.6834 -10.0838,-8.2097 -12.1743,-10.058 -3.3179,-2.9351 -5.7592,-4.9878 -13.3978,-11.2701 -3.2599,-2.6812 -7.0397,-5.6493 -13.5038,-10.6041 -6.642,-5.0911 -10.2523,-9.169 -12.3275,-13.9249 -1.7556,-4.0241 -1.4207,-6.268 1.3701,-9.1811 l 2.5329,-2.6439 -4.6263,-4.1471 c -2.5445,-2.2813 -6.0917,-5.5603 -7.8827,-7.2867 -5.2274,-5.0394 -6.8478,-5.5746 -10.9212,-3.6098 -6.8342,3.2977 -16.7167,2.1351 -20.272,-2.3834 -0.8055,-1.022 -2.1483,-1.5407 -5.1185,-1.9703 -0.6736,-0.1099 -22.4142,-18.4237 -35.6672,-30.0652 -3.0011,-2.6362 -7.1203,-6.9976 -9.1536,-9.6899 -3.0666,-4.0625 -3.593,-5.3702 -3.0874,-7.6723 0.3351,-1.5263 0.1483,-3.6373 -0.4154,-4.6911 -0.6857,-1.2802 -0.7055,-1.9153 -0.066,-1.9153 0.5297,0 0.967,-1.3604 0.9725,-3.023 0.011,-4.29 3.8031,-11.8876 7.9292,-15.8952 1.9346,-1.8791 5.7672,-4.5175 8.5169,-5.8625 4.6782,-2.289 5.338,-2.378 10.2715,-1.3868 8.7599,1.7593 13.8145,4.7526 27.2354,16.1304 1.2791,1.0879 5.2565,4.0614 8.8385,6.6163 10.3301,7.3657 22.7943,18.4688 22.7943,20.3039 0,0.4395 0.6274,0.7912 1.3956,0.7912 0.767,0 1.3955,0.6263 1.3955,1.3955 0,0.7692 0.3517,1.3956 0.7813,1.3956 2.3799,0 3.1936,8.3064 1.595,16.282 -0.2055,1.022 -0.4043,2.6175 -0.4439,3.5439 -0.044,1.0989 -0.478,1.4362 -1.2342,0.978 -0.6395,-0.3846 0.088,0.7582 1.6282,2.545 3.4537,4.0218 11.9434,11.0755 13.3302,11.0755 0.5637,0 2.4012,-1.2 4.0821,-2.6659 4.0622,-3.5438 10.3002,-6.6382 13.3817,-6.6382 1.569,0 3.9288,1.2922 6.3727,3.4889 2.1347,1.9186 4.9028,4.379 6.1515,5.4669 1.2488,1.0879 3.4193,3.2449 4.8233,4.7944 1.4041,1.5494 6.0115,5.1185 10.2387,7.9316 4.2272,2.812 8.4814,5.9933 9.4536,7.0669 0.9725,1.0769 2.1696,1.9538 2.6603,1.9538 0.9692,0 10.8759,8.2228 14.6357,12.148 5.4538,5.6933 8.3734,9.802 8.3734,11.7832 0,1.166 0.3736,2.1198 0.8307,2.1198 1.0605,0 1.9508,2.3307 2.5646,6.7196 0.6868,4.9065 -2.9142,12.1975 -8.857,17.9347 -6.1413,5.9295 -10.9098,8.5932 -16.5625,9.2547 -2.4705,0.2857 -5.7477,0.7582 -7.2829,1.0439 -2.4168,0.4506 -3.9139,-0.3846 -11.1645,-6.1789 z m 23.6843,-11.8074 c 3.9266,-1.9208 4.6687,-5.046 2.3014,-9.6921 -2.9272,-5.7438 -8.8352,-11.4371 -23.1945,-22.3533 -0.5121,-0.3846 -2.1864,-1.7032 -3.7216,-2.9208 -1.5351,-1.2175 -5.0938,-3.6856 -7.9081,-5.4845 -2.8145,-1.7988 -5.9545,-4.2064 -6.9779,-5.3482 -3.289,-3.6724 -12.4738,-10.203 -13.0461,-9.2767 -0.3044,0.4945 -0.178,0.9011 0.2813,0.9011 0.4593,0 1.3394,1.1044 1.9547,2.4549 0.6153,1.3505 2.1478,3.2648 3.4056,4.2548 4.0504,3.1857 2.6516,7.7636 -3.0572,10.0042 -2.5722,1.0109 -3.358,0.967 -5.317,-0.3187 -5.6215,-3.6834 -3.7631,-0.7692 2.5881,4.057 15.046,11.4349 19.4157,14.9458 28.4388,22.8489 2.3592,2.0659 5.7712,4.8461 7.5824,6.1779 1.8111,1.3318 4.3231,3.5274 5.5822,4.879 2.5626,2.7516 5.1897,2.7098 11.0874,-0.1758 z m -103.1353,-77.0058 c -1.5881,-1.8087 -2.8876,-4.101 -2.8876,-5.0933 0,-2.7922 5.0326,-4.9328 10.3884,-4.4185 2.4737,0.2417 4.4978,0.1428 4.4978,-0.2088 0,-0.5934 -6.9264,-7.3185 -14.9412,-14.5139 -2.9381,-2.6384 -14.9714,-12.0338 -21.4917,-16.7798 -1.4933,-1.0879 -4.1593,-3.2912 -5.9242,-4.8977 -1.765,-1.6055 -3.4384,-2.8988 -3.7187,-2.8736 -0.2802,0 -1.1369,-0.5824 -1.9035,-1.3483 -1.2853,-1.2857 -6.9588,-3.3076 -9.3145,-3.3197 -1.2363,-0.01 -2.788,3.001 -4.0321,7.8141 -0.8692,3.3626 -0.7175,3.912 2.0495,7.4097 4.4548,5.6306 6.2053,7.3284 11.827,11.4679 2.8144,2.0724 7.9298,6.4844 11.3676,9.8063 3.4377,3.3208 7.5571,7.0372 9.1541,8.2591 1.597,1.222 3.8082,2.9626 4.914,3.867 2.0194,1.6527 11.9583,8.0558 12.5737,8.0998 0.1813,0 -0.9703,-1.456 -2.5586,-3.2648 z"
       id="path20085"
       sodipodi:nodetypes="cssssscsssscsssssssssssssssssscsssssssssssssssscccscsssssssscssssccsscsssscsssssssscss" />
  </g>
</svg>
