<?xml version="1.0" encoding="UTF-8" standalone="no"?>
<!-- Created with Inkscape (http://www.inkscape.org/) -->

<svg
   width="158.28149mm"
   height="242.65919mm"
   viewBox="0 0 158.2815 242.65919"
   version="1.1"
   id="svg15443"
   inkscape:version="1.1.1 (c3084ef, 2021-09-22)"
   sodipodi:docname="lock_closed.svg"
   xmlns:inkscape="http://www.inkscape.org/namespaces/inkscape"
   xmlns:sodipodi="http://sodipodi.sourceforge.net/DTD/sodipodi-0.dtd"
   xmlns="http://www.w3.org/2000/svg"
   xmlns:svg="http://www.w3.org/2000/svg">
  <sodipodi:namedview
     id="namedview15445"
     pagecolor="#ffffff"
     bordercolor="#666666"
     borderopacity="1.0"
     inkscape:pageshadow="2"
     inkscape:pageopacity="0.0"
     inkscape:pagecheckerboard="0"
     inkscape:document-units="mm"
     showgrid="false"
     inkscape:zoom="0.029416113"
     inkscape:cx="4028.4044"
     inkscape:cy="1138.8316"
     inkscape:window-width="1440"
     inkscape:window-height="775"
     inkscape:window-x="453"
     inkscape:window-y="310"
     inkscape:window-maximized="0"
     inkscape:current-layer="layer1" />
  <defs
     id="defs15440">
    <clipPath
       clipPathUnits="userSpaceOnUse"
       id="clipPath16615">
      <rect
         style="fill:#e6e6e6;stroke-width:1.19827;stroke-dasharray:0, 13.1809"
         id="rect16617"
         width="790.22479"
         height="1226.9279"
         x="-1668.83"
         y="-280.73773" />
    </clipPath>
    <clipPath
       clipPathUnits="userSpaceOnUse"
       id="clipPath16723">
      <rect
         style="fill:#e6e6e6;stroke-width:0.765;stroke-dasharray:0, 8.41499"
         id="rect16725"
         width="779.82703"
         height="829.21613"
         x="-317.12967"
         y="1138.5472" />
    </clipPath>
    <clipPath
       clipPathUnits="userSpaceOnUse"
       id="clipPath16615-6">
      <rect
         style="fill:#e6e6e6;stroke-width:1.19827;stroke-dasharray:0, 13.1809"
         id="rect16617-4"
         width="790.22479"
         height="1226.9279"
         x="-1668.83"
         y="-280.73773" />
    </clipPath>
  </defs>
  <g
     inkscape:label="Layer 1"
     inkscape:groupmode="layer"
     id="layer1"
     transform="translate(257.39503,-1407.4999)">
    <g
       id="g18494"
       transform="matrix(215.89999,0,0,-294.30133,0,294.30133)" />
    <path
       style="fill:#000000;stroke-width:0.449011"
       d="m -235.44915,1649.8891 c -1.1113,-0.2281 -2.2208,-0.3553 -2.46555,-0.2705 -0.24501,0.08 -0.70178,-0.1114 -1.01563,-0.4243 -0.31395,-0.3129 -1.52798,-0.7101 -2.69804,-0.8803 -3.96087,-0.5759 -5.61857,-2.1717 -4.83182,-4.6505 0.24023,-0.7562 0.10076,-0.9328 -0.74522,-0.9445 -2.25787,-0.053 -2.59262,-0.8055 -2.82856,-6.5447 -0.29645,-7.2152 -0.86719,-15.5222 -1.61565,-23.5249 -0.24236,-2.5933 -0.63167,-11.0796 -0.86491,-18.8585 -0.23334,-7.7793 -0.63416,-16.6698 -0.89105,-19.7563 -0.25668,-3.087 -0.66557,-8.9466 -0.90819,-13.0216 -0.24236,-4.0746 -0.64615,-8.9239 -0.89679,-10.7763 -0.25084,-1.8519 -0.76012,-6.0951 -1.13198,-9.4293 -0.37176,-3.3336 -0.79539,-6.9833 -0.94112,-8.1103 -0.24183,-1.8699 -0.15857,-2.1192 0.94886,-2.8446 0.75657,-0.4986 1.62063,-0.6932 2.29399,-0.5251 0.95761,0.2387 1.08022,0.122 1.08022,-1.05 0,-1.0978 0.24608,-1.3969 1.45931,-1.7724 2.91611,-0.9026 4.69924,-1.094 9.87025,-1.0596 2.8974,0 5.37992,-0.1485 5.5168,-0.3659 0.37812,-0.6115 -1.46806,-2.2459 -2.21391,-1.9601 -0.48419,0.1856 -0.88279,-0.4879 -1.53318,-2.5944 -0.80095,-2.5933 -0.88146,-4.2792 -0.90697,-19.0075 -0.0159,-8.8888 0.17448,-18.2836 0.42214,-20.8763 0.639,-6.6875 1.29459,-11.6455 1.78116,-13.4704 0.2307,-0.8644 0.91397,-3.6932 1.51886,-6.2859 1.12658,-4.8292 4.73016,-16.4927 5.96535,-19.3077 2.09692,-4.7788 2.65763,-5.8262 4.31995,-8.0711 1.9227,-2.5965 1.94641,-2.6262 5.76583,-7.1955 4.08263,-4.8843 10.33127,-9.3539 15.82982,-11.323 1.22151,-0.4349 3.87002,-1.5035 5.88548,-2.369 2.01551,-0.866 3.90512,-1.574 4.19914,-1.574 0.2938,0 1.38362,-0.419 2.42121,-0.9339 4.00605,-1.9824 5.72686,-2.2931 14.00995,-2.5265 6.93738,-0.1962 8.90898,-0.09 13.91931,0.751 6.70733,1.1253 12.30569,2.6373 14.84887,4.0103 6.02554,3.253 12.36546,8.6131 16.22381,13.7164 3.94262,5.2153 7.77344,15.3477 8.83648,23.3732 0.131,0.9874 0.86184,5.0285 1.62445,8.98 1.83844,9.5252 2.15367,11.5055 2.46635,15.4909 0.14531,1.8519 0.47305,5.5902 0.72819,8.3065 0.37547,3.9982 0.6741,15.5222 0.82859,31.9921 l 0.0159,1.9086 h 6.84738 c 7.62018,0 10.84902,0.6163 10.94458,2.063 0.0318,0.4667 0.10289,1.4552 0.15963,2.1961 0.1819,2.361 0.0371,2.711 -1.33844,3.2302 -1.20183,0.4508 -1.35089,0.7181 -1.38276,2.4555 -0.0212,1.0712 -0.0976,3.2609 -0.17289,4.8657 -0.0753,1.6053 -0.17077,6.3035 -0.2116,10.4395 -0.0424,4.1366 -0.21584,7.5211 -0.3882,7.5211 -0.38078,0 -0.34418,33.7942 0.0371,35.6964 0.14902,0.7409 0.39404,3.7717 0.54407,6.7352 0.15008,2.9635 0.35531,5.9943 0.45661,6.7352 0.10129,0.7408 0.30388,3.3676 0.45025,5.8373 0.14637,2.4692 0.4529,5.3993 0.68057,6.5103 0.52873,2.5779 1.3116,9.8938 1.586,14.8174 0.18031,3.2329 0.59646,6.4445 1.751883,13.5159 0.277361,1.6981 -0.183494,3.0293 -1.155533,3.3374 -0.46722,0.1485 -0.84953,0.5759 -0.84953,0.9503 0,0.3766 -0.25085,0.5972 -0.55727,0.4932 -0.30653,-0.1007 -0.85197,0.1114 -1.21223,0.4667 -0.64106,0.6412 -2.98696,0.5982 -8.10877,-0.1485 -0.86433,-0.1272 -6.92598,-0.3394 -13.47034,-0.4773 -6.5443,-0.1378 -13.41417,-0.281 -15.26634,-0.3288 -1.85217,-0.053 -5.18608,0.1061 -7.40869,0.3341 -2.2226,0.2281 -7.98117,0.4455 -12.79682,0.4826 -4.81564,0.053 -10.47319,0.297 -12.57233,0.5802 -2.09915,0.2811 -7.95874,0.603 -13.02131,0.7112 -5.06262,0.1061 -9.70989,0.297 -10.32729,0.4242 -0.61736,0.1273 -2.33483,0.3554 -3.81656,0.5145 -5.77586,0.6173 -6.90907,0.7849 -12.12331,1.7919 -2.96347,0.5723 -8.11588,1.2755 -11.44978,1.5629 -3.33391,0.2864 -6.9709,0.6004 -8.08221,0.6958 -1.1113,0.096 -2.9298,0 -4.0411,-0.2439 z m 11.00081,-7.8287 c 3.45737,-0.366 7.70053,-0.9631 9.42924,-1.3243 7.47853,-1.5634 21.19287,-3.0181 30.08372,-3.1909 4.93916,-0.096 10.89978,-0.3819 13.24585,-0.6301 2.34606,-0.2492 7.49847,-0.4614 11.44978,-0.472 3.95127,0 9.10367,-0.2227 11.44979,-0.4826 4.94505,-0.5388 12.22385,-0.6114 16.94452,-0.1697 1.81165,0.1697 7.58709,0.1644 12.83426,0 l 9.54023,-0.3235 -0.0912,-2.5355 c -0.19994,-5.5403 -0.66376,-11.7849 -1.27263,-17.1285 -1.45522,-12.7703 -2.55284,-27.925 -3.00823,-41.5332 -0.16706,-4.9824 -0.0424,-15.7799 0.25561,-22.6752 0.23176,-5.3187 0.79565,-21.3887 0.88984,-25.3694 l 0.053,-2.2448 -3.14304,0.1219 c -3.29207,0.1273 -6.51068,0.8793 -6.51068,1.5221 0,0.6035 -1.99313,0.4348 -3.79959,-0.3182 -1.14572,-0.4773 -2.3169,-0.6062 -3.75918,-0.4084 -2.43102,0.3341 -3.58549,0.4932 -6.34267,0.8889 -6.40212,0.9153 -15.60862,1.4472 -26.27692,1.5188 -6.66336,0.053 -14.54351,0.2705 -17.51144,0.4985 -2.96793,0.2334 -8.32604,0.4349 -11.90693,0.4561 -7.46511,0.053 -11.5769,0.4137 -18.85847,1.7061 -2.84001,0.5038 -6.88111,1.0336 -8.98021,1.1789 -2.09914,0.1432 -5.12997,0.472 -6.73516,0.7303 -4.48727,0.7175 -21.24745,0.4773 -22.54203,-0.3235 -0.3235,-0.2016 -0.40093,0.064 -0.22857,0.7753 0.86629,3.5893 2.50373,15.2745 2.82511,20.1599 0.10553,1.6053 0.31661,3.2217 0.46881,3.5924 0.1522,0.3713 0.46085,3.0982 0.68534,6.0617 0.22486,2.9635 0.48578,6.2971 0.58045,7.4087 0.21531,2.5286 0.69664,9.2394 0.91768,12.7968 0.0917,1.4817 0.27365,5.6236 0.40411,9.2044 0.31501,8.6634 0.619,13.1861 1.63431,24.2986 0.26198,2.8685 0.55425,6.4042 0.64923,7.8573 0.0949,1.4536 0.40093,4.7788 0.67929,7.3896 0.507,4.7512 0.43169,8.4831 -0.20099,9.958 -0.28691,0.6692 -0.0801,0.7891 1.39482,0.8055 0.95252,0 2.74211,0.2917 3.97693,0.6258 1.23476,0.3341 2.75017,0.525 3.36758,0.4296 0.61736,-0.1008 3.95127,-0.4773 7.40869,-0.8454 z m 42.10982,-36.0417 c -0.90162,-0.3129 -1.97473,-0.8697 -2.38473,-1.2409 -1.12817,-1.0209 -1.75576,-4.6203 -2.23061,-12.7916 -0.84418,-14.5272 -1.46753,-20.6483 -2.10276,-20.6483 -0.32615,0 -0.59338,-0.2015 -0.59338,-0.4508 0,-0.2492 -0.28532,-0.4507 -0.63358,-0.4507 -0.34843,0 -1.1567,-0.6216 -1.79607,-1.3816 -0.90193,-1.0717 -1.16242,-1.8709 -1.16242,-3.5653 0,-1.2012 -0.16706,-2.2874 -0.37123,-2.4136 -0.93025,-0.5748 -0.55361,-5.1601 0.68677,-8.3617 1.13957,-2.9412 1.46424,-3.3617 3.50112,-4.5385 4.16997,-2.4093 6.54653,-2.7264 10.9148,-1.4568 1.90981,0.5552 3.01894,1.2961 5.22336,3.4901 3.19512,3.1793 3.57563,4.3423 2.9247,8.9387 -0.49691,3.5107 -0.76605,4.3009 -1.88818,5.5493 -1.02804,1.1439 -1.02151,1.041 -0.63374,10.0259 0.38184,8.8437 0.6749,13.1256 1.24527,18.1849 0.99876,8.8586 0.99908,8.6041 -0.0106,9.6165 -0.51442,0.5144 -1.23842,0.9604 -1.60886,0.9911 -0.75895,0.064 -0.69605,0.053 -3.14309,0.734 -2.13208,0.5966 -3.71002,0.5346 -5.93438,-0.2333 z m -42.78333,-81.8461 c 2.83996,-0.2545 6.27489,-0.6751 7.63317,-0.9317 1.35828,-0.2546 3.17677,-0.5611 4.0411,-0.6757 0.86433,-0.1167 2.5031,-0.3924 3.64171,-0.6205 1.13862,-0.228 5.28075,-0.525 9.2047,-0.6624 7.41075,-0.2598 10.34787,-0.4242 20.15592,-1.1179 3.21045,-0.228 10.3834,-0.4561 15.93986,-0.5091 9.13888,-0.085 18.78062,-0.6496 19.27521,-1.1269 0.10553,-0.1008 -0.14903,-3.1635 -0.5656,-6.8031 -0.41684,-3.6396 -0.7624,-8.5372 -0.76802,-10.8834 -0.0106,-4.8658 -0.96918,-13.0429 -1.76117,-15.0417 -0.2938,-0.7409 -0.8246,-3.5532 -1.18019,-6.2494 -0.35532,-2.6956 -0.81978,-5.1203 -1.03154,-5.3881 -0.2116,-0.2652 -0.5245,-1.4961 -0.69542,-2.7312 -0.34949,-2.5297 -2.82485,-13.5578 -3.2751,-14.5925 -0.16122,-0.3712 -0.32403,-0.8756 -0.36221,-1.1227 -0.0371,-0.2493 -0.18668,-0.752 -0.33039,-1.1227 -0.14372,-0.3713 -0.71764,-2.1887 -1.27497,-4.0411 -0.55727,-1.8519 -1.45734,-3.9738 -2.00008,-4.7146 -0.54284,-0.7409 -1.1245,-1.8 -1.29272,-2.3536 -0.35426,-1.1662 -6.00645,-5.1124 -8.50297,-5.936 -1.07736,-0.3553 -2.45107,-0.4402 -3.7892,-0.228 -1.15452,0.1803 -2.53793,0.3818 -3.07425,0.4507 -2.03472,0.2546 -4.09276,0.7669 -8.0051,1.9941 -2.2226,0.6968 -5.85959,1.8147 -8.0822,2.484 -10.16517,3.06 -13.69122,6.5018 -17.93549,17.5077 -0.66667,1.7289 -1.37291,3.5474 -1.5694,4.0411 -0.52396,1.3169 -2.32522,7.6983 -2.97848,10.552 -0.31077,1.3582 -0.59678,2.4692 -0.63512,2.4692 -0.0371,0 -0.166,0.7997 -0.28426,1.7766 -0.11826,0.9774 -0.42426,2.0296 -0.68015,2.3377 -0.25614,0.3076 -0.36539,0.7234 -0.24289,0.9217 0.12251,0.1962 0.0212,1.2675 -0.21902,2.3769 -0.24289,1.1089 -0.52397,3.0266 -0.62467,4.2617 -0.10077,1.2346 -0.29115,3.1539 -0.42268,4.2655 -0.13152,1.111 -0.39085,7.3747 -0.57572,13.9195 -0.30706,10.8648 -0.41366,12.0029 -1.22803,13.1018 -0.49055,0.6618 -1.29601,1.3162 -1.78991,1.4531 -3.3678,0.937 -3.70084,-0.2228 -3.7744,-13.1511 -0.053,-9.3126 0.88077,-25.5348 1.5799,-27.4466 0.13577,-0.3713 0.52131,-2.0879 0.85728,-3.8168 0.33623,-1.7283 0.9381,-4.3551 1.33796,-5.8368 0.39987,-1.4817 0.77635,-2.9974 0.8366,-3.3676 0.25455,-1.5644 1.29697,-4.8461 2.0915,-6.5829 0.46988,-1.0273 1.09147,-2.8458 1.38098,-4.0411 0.71806,-2.964 4.25938,-9.6923 6.3537,-12.0714 1.87689,-2.1324 3.74014,-3.3644 8.86847,-5.8649 5.86103,-2.8569 6.89124,-3.2694 9.89741,-3.9642 1.61575,-0.3712 5.05069,-1.3693 7.63317,-2.213 5.32864,-1.7411 12.09059,-2.7673 15.37003,-2.3324 2.24541,0.297 7.94845,2.2449 8.3917,2.8648 0.13258,0.1856 1.60159,1.3264 3.26433,2.535 2.24541,1.6318 3.58513,3.0716 5.20745,5.596 3.01094,4.6849 3.48967,5.6941 4.50976,9.5035 0.48949,1.8286 1.20517,4.3349 1.58997,5.5695 0.38502,1.2351 1.0256,4.0639 1.42388,6.2865 0.39828,2.2226 0.99256,4.8642 1.32062,5.8697 0.52238,1.601 1.02258,4.6223 1.75884,10.6198 0.11296,0.9196 0.39138,2.0306 0.61926,2.4692 1.27846,2.4623 2.27188,13.9095 2.51434,28.9729 0.0212,1.1726 0.13577,2.1325 0.25986,2.1325 0.1241,5e-4 0.18031,1.0245 0.12463,2.2761 l -0.10129,2.2762 2.5697,-0.2811 c 1.41338,-0.1538 3.12539,-0.3871 3.80452,-0.5144 l 1.23477,-0.2333 0.0536,-5.0159 c 0.0318,-2.7588 0.0265,-6.1269 -0.004,-7.485 -0.49268,-21.5605 -0.89069,-28.1106 -2.07619,-34.1664 -0.54512,-2.7848 -1.739,-9.651 -3.62325,-20.8377 -0.12463,-0.7409 -0.4126,-1.9532 -0.64011,-2.6941 -0.22698,-0.7408 -0.93751,-3.0647 -1.57831,-5.1638 -3.19417,-10.4628 -9.40993,-18.0439 -18.19508,-22.191 -4.40677,-2.0805 -9.52655,-3.0362 -17.53117,-3.2722 -6.88414,-0.2015 -9.96938,0.2599 -14.0616,2.1076 -4.06359,1.8349 -6.0809,2.6246 -7.50239,2.9369 -0.82026,0.1803 -1.80111,0.4826 -2.17965,0.6693 -0.37866,0.1856 -2.50676,1.2102 -4.72937,2.2725 -4.46902,2.1356 -8.25996,4.8297 -11.1327,7.9119 -1.0387,1.1142 -2.49477,2.675 -3.23564,3.4678 -0.74087,0.7929 -1.65011,1.906 -2.02055,2.4746 -0.3707,0.5679 -1.02836,1.4976 -1.46201,2.0651 -0.97458,1.2765 -3.60252,7.9909 -5.35414,13.6808 -0.7223,2.3462 -1.43416,4.5688 -1.58197,4.9395 -0.14796,0.3712 -0.32509,0.9525 -0.39403,1.2935 -0.0689,0.3394 -0.34153,0.8358 -0.60569,1.0999 -0.2641,0.2651 -0.47995,1.0993 -0.47995,1.8561 0,0.7568 -0.37282,2.0805 -0.82906,2.9412 -0.99336,1.8747 -1.30482,3.0738 -1.90107,7.3196 -1.30725,9.3078 -1.41109,10.9364 -1.99467,31.2889 -0.14531,5.0625 -0.46085,9.9547 -0.70104,10.8717 -0.34153,1.3035 -0.27259,2.0386 0.31608,3.3676 0.41418,0.9355 0.78531,1.9023 0.82434,2.1494 0.0371,0.2492 0.23388,0.8061 0.43275,1.242 0.1994,0.4349 0.26622,1.2951 0.14902,1.9087 -0.25084,1.3109 -0.59402,1.2765 6.39746,0.647 z"
       id="path20085"
       sodipodi:nodetypes="ccssscsssssssscsssccssssssssscsscssssssssccssscsssssssssssssccsscscccscssscccsssccsccssssscssssccccsccscsssssssssscsccccsssssssssssssssssscccsccssscssssssssssssssccssssssssscsssscssssssssscssssssssssscsscscccssssssssssssssssssssssssscssss" />
  </g>
</svg>
