<?xml version="1.0" encoding="UTF-8" standalone="no"?>
<!-- Created with Inkscape (http://www.inkscape.org/) -->

<svg
   width="156.60478mm"
   height="185.08687mm"
   viewBox="0 0 156.60478 185.08687"
   version="1.1"
   id="svg15443"
   inkscape:version="1.1.1 (c3084ef, 2021-09-22)"
   sodipodi:docname="lock_open.svg"
   xmlns:inkscape="http://www.inkscape.org/namespaces/inkscape"
   xmlns:sodipodi="http://sodipodi.sourceforge.net/DTD/sodipodi-0.dtd"
   xmlns="http://www.w3.org/2000/svg"
   xmlns:svg="http://www.w3.org/2000/svg">
  <sodipodi:namedview
     id="namedview15445"
     pagecolor="#ffffff"
     bordercolor="#666666"
     borderopacity="1.0"
     inkscape:pageshadow="2"
     inkscape:pageopacity="0.0"
     inkscape:pagecheckerboard="0"
     inkscape:document-units="mm"
     showgrid="false"
     inkscape:zoom="1.0731463"
     inkscape:cx="464.05601"
     inkscape:cy="226.90289"
     inkscape:window-width="2560"
     inkscape:window-height="1387"
     inkscape:window-x="0"
     inkscape:window-y="25"
     inkscape:window-maximized="1"
     inkscape:current-layer="layer1" />
  <defs
     id="defs15440">
    <clipPath
       clipPathUnits="userSpaceOnUse"
       id="clipPath16615">
      <rect
         style="fill:#e6e6e6;stroke-width:1.19827;stroke-dasharray:0, 13.1809"
         id="rect16617"
         width="790.22479"
         height="1226.9279"
         x="-1668.83"
         y="-280.73773" />
    </clipPath>
    <clipPath
       clipPathUnits="userSpaceOnUse"
       id="clipPath16723">
      <rect
         style="fill:#e6e6e6;stroke-width:0.765;stroke-dasharray:0, 8.41499"
         id="rect16725"
         width="779.82703"
         height="829.21613"
         x="-317.12967"
         y="1138.5472" />
    </clipPath>
    <clipPath
       clipPathUnits="userSpaceOnUse"
       id="clipPath16615-6">
      <rect
         style="fill:#e6e6e6;stroke-width:1.19827;stroke-dasharray:0, 13.1809"
         id="rect16617-4"
         width="790.22479"
         height="1226.9279"
         x="-1668.83"
         y="-280.73773" />
    </clipPath>
  </defs>
  <g
     inkscape:label="Layer 1"
     inkscape:groupmode="layer"
     id="layer1"
     transform="translate(240.22168,-1338.1473)">
    <g
       id="g18494"
       transform="matrix(215.89999,0,0,-294.30133,0,294.30133)" />
    <path
       id="path20085"
       style="fill:#000000;stroke-width:1.1779"
       transform="matrix(0.26458333,0,0,0.26458333,-240.22168,1338.1473)"
       d="m 409.5293,0.03515625 c -11.34772,0.25877953 -25.15944,1.98486435 -42.2168,5.23242185 -2.33892,0.4452284 -9.30318,3.3782627 -25.32422,10.6640629 -35.33998,16.07167 -44.01449,21.779103 -65.35351,43.011718 -12.05715,11.996599 -17.99272,24.363824 -21.19727,44.171871 -0.73372,4.53393 -2.05857,11.1597 -2.94336,14.72266 -2.89557,11.65569 -4.73828,52.19967 -4.73828,104.24414 0,46.35288 0.62637,57.91636 5.08984,94.05469 0.5689,4.66356 0.53043,10.87667 -0.0976,14.72461 -1.00471,6.15345 -0.32003,27.80911 0.98633,31.21484 0.44114,1.14331 -3.94339,1.53148 -19.56055,1.71289 -11.07152,0.12926 -26.06381,0.76966 -33.31445,1.4375 -7.25076,0.66066 -16.3631,1.4673 -20.25,1.77344 -14.21288,1.14217 -21.45931,1.9123 -33.57032,3.57227 -6.80239,0.93203 -21.37922,2.50623 -32.39258,3.50781 -22.95216,2.07874 -51.083737,4.90729 -57.128902,5.74219 -13.765039,1.9113 -29.820257,3.41523 -35.925781,3.27539 -9.476863,-0.14778 -11.7669272,1.5704 -10.730469,8.05078 0.534236,3.33619 0.379824,4.60328 -0.498047,4.06054 -2.7133181,-1.68075 -7.0435222,-1.32811 -8.8984372,0.72266 -1.39687609,1.5428 -1.74557281,3.38122 -1.25585942,6.60742 0.37300142,2.45821 1.50422342,11.89159 2.51562502,20.96094 1.0104567,9.06935 3.3907192,28.94561 5.2890625,44.16992 4.5964721,36.86325 5.5097211,46.05469 9.0058591,90.69922 1.968454,25.13499 2.208966,28.66279 3.509766,51.23828 0.485518,8.4223 0.995991,17.16783 1.121094,19.43555 0.13217,2.26772 0.55239,7.0386 0.933593,10.60156 0.381166,3.56258 0.978897,10.18918 1.328125,14.72461 0.778394,10.1212 2.561886,22.51514 3.445313,23.94531 2.076246,3.36 14.711744,1.85692 18.113281,-2.15429 1.376844,-1.62331 1.303391,-8.73107 -0.220703,-21.20313 -0.197556,-1.61953 -0.742893,-7.7162 -1.208984,-13.54687 -0.466054,-5.8303 -1.055807,-12.45494 -1.310547,-14.72266 -0.557594,-4.96819 -1.448842,-18.56964 -2.31836,-35.33789 -0.352252,-6.80315 -1.133947,-17.13845 -1.736328,-22.96875 -0.602267,-5.83068 -1.39586,-15.90199 -1.761719,-22.38086 -0.367279,-6.47735 -0.901453,-14.1635 -1.189453,-17.07812 -0.909014,-9.21563 -5.400533,-48.72947 -5.957031,-52.41602 -0.293556,-1.94343 -1.845301,-14.40076 -3.449219,-27.68164 -3.555704,-29.44365 -5.85768,-43.72855 -7.560547,-46.91016 -0.708117,-1.32434 -1.289062,-2.58365 -1.289062,-2.80664 0,-0.26457 5.963626,-0.40547 13.251953,-0.26562 12.264605,0.12774 41.784544,-2.22393 45.480469,-3.625 0.882595,-0.33374 14.399631,-1.37985 30.037108,-2.33985 15.63749,-0.95319 30.5531,-1.98147 33.14453,-2.30273 7.64043,-0.92523 51.91931,-5.21028 65.96094,-6.37891 7.12626,-0.5983 26.93837,-1.12578 44.02539,-1.26562 18.92927,-0.10847 36.41646,-0.84124 44.75977,-1.88477 17.90449,-2.22652 46.98806,-3.46571 56.83789,-2.4082 l 7.80664,0.83398 0.73633,6.69532 c 0.97496,8.87735 1.76342,34.82713 2.47851,81.58593 0.49724,32.49071 1.86045,57.70615 5.94336,110.03711 0.57317,7.344 3.47177,40.73174 4.75586,54.77344 0.26714,2.91591 0.73399,8.48032 1.03711,12.36719 0.30331,3.88724 0.83544,9.45437 1.18164,12.36914 0.34643,2.9159 0.84027,7.28784 1.09766,9.71679 l 0.46679,4.41797 -21.95703,0.18164 c -12.07593,0.0971 -23.28075,0.33081 -24.90039,0.52735 -10.43543,1.22268 -43.6485,2.08637 -53.00586,1.37695 -10.77963,-0.82242 -26.48803,-0.62499 -57.7168,0.73828 -8.0979,0.36208 -27.4458,0.93014 -42.99414,1.29297 -68.15724,1.56359 -116.461824,4.00927 -119.843746,6.06836 -0.482192,0.29065 -4.989281,0.53194 -10.013672,0.5293 -10.806447,-0.004 -14.435546,1.72337 -14.435546,6.87109 0,4.81777 1.111891,7.13672 3.423828,7.13672 1.096705,0 2.498352,0.48569 3.113281,1.08398 0.615345,0.60246 2.71075,1.31016 4.654297,1.58985 l 0.0059,0.10742 c 7.310287,1.0337 15.688744,0.75094 27.53711,-0.93359 12.79686,-1.81833 31.961319,-2.76464 71.406249,-3.51563 12.9569,-0.2366 36.27979,-0.82008 51.82813,-1.2793 15.54829,-0.47281 51.5905,-0.94609 80.0957,-1.08593 28.50535,-0.13909 68.44998,-0.61142 88.76562,-1.05664 40.71005,-0.90029 42.57032,-1.24293 42.57032,-7.83594 0,-1.83118 0.55069,-3.66635 1.22265,-4.08399 0.69767,-0.43124 -0.81685,-2.61774 -3.5332,-5.0996 -3.51326,-3.21223 -4.75977,-5.26347 -4.75977,-7.85547 -0.003,-1.92945 -0.76179,-8.2787 -1.68554,-14.10938 -0.92391,-5.83068 -2.03582,-15.63643 -2.47266,-21.79101 -0.43548,-6.15497 -0.95593,-11.46037 -1.15625,-11.79297 -0.19895,-0.3326 -0.69478,-6.37722 -1.09961,-13.4336 -0.40486,-7.05751 -0.9412,-13.16508 -1.19141,-13.56836 -0.25028,-0.40478 -0.7745,-5.22577 -1.16406,-10.71289 -0.38982,-5.48674 -1.22889,-16.07165 -1.86328,-23.52148 -0.63511,-7.45134 -1.42307,-18.31814 -1.75,-24.14844 -0.32697,-5.83068 -0.83889,-12.45645 -1.13672,-14.72266 -0.57207,-4.3531 -1.68667,-49.04895 -2.38086,-95.41015 -0.22817,-15.22545 -0.69834,-29.44131 -1.04492,-31.59375 -0.34499,-2.15206 -0.92667,-8.7767 -1.29101,-14.72266 -0.77908,-12.70866 -2.35886,-14.93554 -10.60352,-14.93554 -2.76438,0 -6.81344,-0.69252 -8.99805,-1.54102 -2.81529,-1.09795 -10.70472,-1.47266 -27.08984,-1.47266 h -23.11719 l -1.4375,-9.65625 c -0.93082,-6.25511 -1.17782,-15.37894 -0.69922,-25.91211 0.40623,-8.94122 0.96515,-32.72356 1.24219,-52.84765 0.27685,-20.12258 0.77482,-38.67343 1.10742,-41.22461 0.54452,-4.17789 0.87998,-7.44217 2.41602,-23.48438 0.75265,-7.86028 2.92268,-24.33768 3.72265,-28.26953 0.26348,-1.29638 0.99957,-6.32999 1.63672,-11.18554 2.32657,-17.74337 8.24722,-35.21356 14.375,-42.41016 8.48701,-9.96699 34.11869,-35.337891 35.70117,-35.337891 0.36409,0 4.21227,-2.26596 8.55079,-5.03711 11.49191,-7.338708 15.47255,-8.868163 26.98828,-10.365234 10.91149,-1.418835 32.92364,-1.684567 40.93359,-0.501953 27.26884,4.041449 42.1935,15.153133 55.74024,41.505858 8.90759,17.32876 9.90803,19.99358 15.1621,40.36524 4.8011,18.61341 4.57294,17.4496 6.22266,31.80273 1.01892,8.87055 2.81243,124.30012 2.37695,153.11523 -0.0534,3.55578 0.55975,9.77837 1.36524,13.82813 1.26826,6.38022 2.02533,7.74511 5.66797,10.23242 2.31193,1.57795 5.79279,3.13577 7.73633,3.45703 1.94353,0.32391 6.38929,1.15809 9.8789,1.85352 9.56118,1.90753 23.1502,1.63845 25.28906,-0.5 0.97177,-0.96681 3.79385,-1.80078 6.26954,-1.80078 3.29121,-0.0249 5.51351,-0.95556 8.26757,-3.46289 3.76159,-3.42237 3.76615,-3.43954 3.25,-13.2168 -0.28381,-5.38432 -0.79333,-12.4395 -1.13281,-15.67969 -0.63106,-6.03099 -1.19733,-18.66082 -2.32422,-51.82617 -0.35198,-10.36611 -0.97631,-26.7977 -1.38672,-36.51563 -0.41041,-9.71739 -0.87406,-32.2446 -1.03125,-50.06054 -0.32944,-37.39049 -1.05768,-54.01691 -2.83984,-64.78516 -0.697,-4.21115 -1.79055,-12.56521 -2.42773,-18.56445 -1.03855,-9.77046 -4.984,-25.355325 -9.76758,-38.585939 C 565.69014,59.675019 551.2269,40.158905 541.75977,34.541016 534.97421,30.515063 517.99016,22.196289 506.00781,17.029297 491.44046,10.746588 462.08041,4.0670018 443.87695,2.8847656 438.37022,2.5340255 430.98506,1.7408773 427.46484,1.1425781 422.2596,0.25249998 416.33793,-0.12011147 409.5293,0.03515625 Z m 5.16406,20.67382775 c 7.29753,0.02997 14.43814,0.352723 20.3418,0.990235 1.29566,0.139086 6.06658,0.64015 10.60156,1.126953 20.38908,2.167559 43.5204,7.123234 56.53906,12.115234 13.29328,5.097449 19.81361,8.808186 26.32422,14.982422 6.26261,5.937638 15.50126,19.316016 18.81836,27.25 3.8068,9.105638 8.18225,27.330722 8.9043,37.089842 0.35921,4.85821 1.16916,11.74841 1.80078,15.3125 2.61856,14.77758 3.31566,27.50708 4.25195,77.62891 0.35615,19.04844 0.89119,35.03266 1.1875,35.50586 0.29633,0.48 0.83302,7.42269 1.19336,15.42773 1.24389,27.6601 1.60018,34.66101 2.81055,55.19141 0.78089,13.23883 1.13228,19.23421 1.05859,22.57812 0.28276,0.62502 0.45703,1.41574 0.45703,2.38086 v 5.39844 c 0,0.32297 0.0382,0.64806 0,0.96875 -0.10031,0.84131 -0.27573,1.67189 -0.41406,2.50781 -0.34152,1.77 -0.99775,3.72711 -2.53711,4.83789 -0.60204,0.43443 -1.29231,0.73633 -1.96484,1.05078 -0.40815,0.19084 -0.82683,0.37745 -1.26953,0.46094 -0.46395,0.0875 -0.93817,0.10005 -1.41016,0.12891 -0.43085,0.0954 -0.91178,0.15039 -1.44727,0.15039 -0.61519,0 -1.23145,0.0344 -1.8457,0 -1.90847,-0.10723 -3.25604,-0.26964 -4.56055,-1.86914 -0.19035,-0.23398 -0.38471,-0.75306 -0.5039,-1.09766 -0.009,-0.001 -0.0204,-0.003 -0.0293,-0.004 0.0286,0.10936 0.0337,0.13174 0.0918,0.35742 -0.35916,1.9e-4 -0.24712,0.002 -0.55664,-0.44727 -0.65849,-0.12556 -1.23588,-0.26757 -1.42188,-0.44531 -0.29494,-0.28384 -0.64798,-23.15669 -0.78711,-50.82813 -0.50042,-99.86744 -0.98939,-116.20793 -3.84961,-128.64257 -1.41557,-6.15459 -3.34945,-13.76856 -4.29687,-16.91993 -0.94742,-3.1525 -1.72266,-6.39197 -1.72266,-7.21289 0,-4.17902 -6.91414,-21.62117 -14.42578,-36.38476 -7.59912,-14.936347 -9.49147,-17.667356 -18.51563,-26.748049 -5.52801,-5.561953 -12.46242,-11.742186 -15.41015,-13.734375 -7.11749,-4.81096 -21.84024,-10.391027 -34.78516,-13.1875 -21.32969,-4.611779 -60.47477,-4.294433 -77.64648,0.625 -7.85246,2.249575 -20.86725,9.12736 -28.91602,15.279297 -8.26696,6.318992 -23.11192,20.851908 -27.59179,27.013672 -1.88429,2.590485 -4.9775,6.391455 -6.87305,8.443355 -1.89566,2.05229 -4.0467,4.7994 -4.78125,6.1211 -6.41329,11.48749 -8.06894,15.6045 -10.7832,26.80664 -1.70744,7.04655 -3.55202,16.78633 -4.10157,21.64453 -0.54939,4.85934 -1.84048,16.52042 -2.86718,25.91406 -1.02686,9.39326 -2.16584,19.20053 -2.53321,21.79102 -0.36699,2.592 -1.13467,21.93801 -1.70508,42.99414 -0.57138,21.05499 -1.22679,45.1412 -1.45507,53.52344 -0.27727,10.17259 0.27561,20.35444 1.66406,30.62304 1.14357,8.46312 2.10831,17.37364 2.13476,19.80274 0.0253,2.02501 -0.19159,2.92003 -0.66992,3.49414 0.0156,0.3513 -0.15083,0.70625 -0.5,0.96875 10e-4,0.0202 0.003,0.0403 0.004,0.0605 -0.0326,0.002 -0.0651,0.003 -0.0977,0.004 -0.0514,0.0333 -0.10599,0.0645 -0.16406,0.0937 -0.024,0.52288 -0.0369,0.43652 -0.0391,0.0176 -0.3087,0.14746 -0.70522,0.23905 -1.19336,0.23828 -1.49546,-0.002 -2.9947,0.0695 -4.48633,0.17773 -0.4769,0.0346 -0.95218,0.0811 -1.42773,0.13086 -0.2057,0.0215 -0.41526,0.0293 -0.61524,0.082 -0.19465,0.0513 -0.372,0.15104 -0.55859,0.22656 -0.51417,0.31948 -1.10588,0.47216 -1.66602,0.68554 -0.12759,0.0486 -0.25276,0.10535 -0.37695,0.16211 -0.0533,0.0244 -0.0991,0.0688 -0.15625,0.082 -0.40633,0.0938 -0.81719,0.15876 -1.22656,0.23828 -1.04889,0.19215 -2.10608,-0.0439 -3.1543,-0.01 -0.53288,0.008 -1.06471,0.0153 -1.59766,0.0176 -0.0917,3.8e-4 -0.1837,7.1e-4 -0.27539,0 -0.0326,-2.5e-4 -0.0738,0.0206 -0.0976,-0.002 -0.44708,-0.41419 -0.86472,-0.85934 -1.29688,-1.28907 0.01,-0.15742 0.0191,-0.31524 0.0293,-0.47265 0.024,-0.37408 0.0963,-0.5747 0.19922,-0.66016 -0.0457,-0.25041 -0.19689,-0.49831 -0.0547,-0.73047 -0.002,-0.007 -0.006,-0.0128 -0.008,-0.0195 -0.10727,-0.4079 -0.20133,-0.8188 -0.27344,-1.23437 -0.0772,-0.44502 -0.11581,-0.89583 -0.17383,-1.34375 -0.0672,-0.63692 -0.14881,-1.27397 -0.20312,-1.91211 -0.12416,-1.45858 0.11068,-0.6591 -0.25586,-2.58399 -0.24618,-1.29276 -0.77293,-2.52523 -0.89063,-3.84765 -0.0733,-0.3932 -0.10297,-0.79279 -0.15429,-1.18946 -0.0878,-0.61571 -0.17006,-1.23279 -0.26368,-1.84765 -0.0726,-0.47707 -0.17628,-0.94869 -0.23437,-1.42774 -0.1118,-0.92162 -0.21352,-1.84518 -0.27539,-2.77148 -0.34447,-5.15778 0.21718,-0.0546 -0.25,-5.72656 -0.0297,-0.36142 -0.12009,-0.71458 -0.17969,-1.07227 -0.0118,-0.0706 0.0191,-0.10448 0.0117,-0.17188 -0.33076,-0.32077 -0.56641,-0.87252 -0.56641,-1.6582 v -8.31836 -3.51953 c 0,-0.45272 -0.0249,-0.90733 0,-1.35937 0.005,-0.0971 0.0143,-0.19414 0.0215,-0.29102 -0.0754,-0.71279 -0.14239,-1.42654 -0.23828,-2.13672 -0.28216,-2.31113 -0.54254,-4.62948 -0.91993,-6.92773 -0.26613,-1.62081 -0.61583,-3.22517 -0.90625,-4.8418 -0.20268,-1.12832 -0.39562,-2.25953 -0.59375,-3.38867 -0.86411,-4.95924 -1.82865,-9.91686 -2.27734,-14.93555 -0.22059,-2.26081 -0.56634,-4.51741 -0.42578,-6.79492 -0.0925,-2.66727 -0.39595,-5.3878 0.0996,-8.0293 -0.26053,-0.82425 -0.37021,-2.09703 -0.30274,-3.91601 0.1016,-2.75301 0.27725,-21.5294 0.40235,-41.72266 0.11966,-20.19515 0.71794,-40.0714 1.33008,-44.16992 0.61213,-4.10003 1.38205,-14.08085 1.70898,-22.17774 0.32693,-8.09824 0.91458,-17.3746 1.30273,-20.61328 0.38816,-3.23867 0.66463,-6.94876 0.62305,-8.22851 -0.0459,-1.28542 1.18048,-8.17562 2.72461,-15.3125 1.54413,-7.13575 3.15435,-15.09506 3.58008,-17.685549 0.68908,-4.202834 4.44079,-11.977615 6.53711,-13.546875 0.43294,-0.323905 1.17237,-1.821227 1.64258,-3.328125 0.91181,-2.920063 12.06496,-14.498185 20.77148,-21.5625 12.23331,-9.926551 31.04712,-20.955239 42.88672,-25.142578 3.23921,-1.146331 8.16214,-3.098092 10.93945,-4.322265 8.43228,-3.736819 20.42147,-8.057783 24.28321,-8.767579 8.01935,-1.460787 20.61478,-2.221828 32.77734,-2.171875 z M 273.47266,318.07812 c -0.15285,0.01 -0.30612,0.0167 -0.45899,0.0254 0.0509,0.0217 0.11043,0.0452 0.15821,0.0664 0.10022,-0.008 0.20053,-0.016 0.30078,-0.0234 2.9e-4,-0.0228 -4.7e-4,-0.0455 0,-0.0684 z m 0.13281,9.58985 c 0.006,0.073 0.0131,0.14583 0.0195,0.21875 10e-4,-0.0696 0.003,-0.13931 0.004,-0.20899 -0.008,-0.003 -0.0155,-0.007 -0.0234,-0.01 z m -0.42578,20.89648 c 0.0273,0.24632 0.0599,0.49197 0.0996,0.73633 0.0125,-0.0789 -0.001,-0.14458 0.0137,-0.22461 -0.0332,-0.1715 -0.0793,-0.34037 -0.11328,-0.51172 z m 0.56836,13.86328 c 0.61549,0.75151 1.19213,1.44205 1.1914,0.19727 h -0.66797 c -0.25719,0 -0.31615,-0.15182 -0.52343,-0.19727 z m -79.15821,74.87891 c -2.69222,-0.0169 -5.52579,0.23522 -8.48437,0.76367 -15.54165,2.77833 -22.02013,9.70555 -23.44531,25.07031 -0.50793,5.47578 -0.0388,8.15611 2.57031,14.72266 1.75461,4.416 4.94622,9.88478 7.09375,12.15234 3.79941,4.01084 3.92397,4.47271 4.67383,17.08008 0.42293,7.12706 1.00175,19.29742 1.28711,27.04492 0.2838,7.74917 0.78395,15.96364 1.10937,18.25782 0.32417,2.29266 0.85496,11.58929 1.17774,20.66015 0.66875,18.7801 0.97564,19.37774 9.97851,19.51758 2.95344,0.0556 6.43132,0.54289 7.72656,1.09961 l 0.002,-0.008 c 1.29566,0.55635 3.21891,1.09766 4.27343,1.09765 2.59866,0.11263 9.75033,-2.95316 11.32227,-4.85351 1.55399,-1.87956 0.52253,-8.29158 -1.16602,-7.24805 -0.80133,0.4955 -0.93206,-1.57717 -0.38671,-6.19726 1.52757,-12.96076 1.77534,-33.96839 0.64843,-55.05664 -1.05732,-19.77903 -0.99486,-21.13953 1.0586,-22.97071 1.20049,-1.0696 3.95945,-4.86086 6.1289,-8.42383 3.84144,-6.30334 3.93673,-6.81718 3.86719,-18.95703 -0.0703,-11.4497 -0.35815,-13.00242 -3.48828,-18.80664 -5.24808,-9.73249 -14.28095,-14.87195 -25.94727,-14.94531 z" />
  </g>
</svg>
