<?xml version="1.0" encoding="UTF-8" standalone="no"?>
<!-- Created with Inkscape (http://www.inkscape.org/) -->

<svg
   width="87.625656mm"
   height="108.14672mm"
   viewBox="0 0 87.625653 108.14672"
   version="1.1"
   id="svg5"
   inkscape:version="1.1.1 (c3084ef, 2021-09-22)"
   sodipodi:docname="logo_gitlab copy 5.svg"
   xmlns:inkscape="http://www.inkscape.org/namespaces/inkscape"
   xmlns:sodipodi="http://sodipodi.sourceforge.net/DTD/sodipodi-0.dtd"
   xmlns="http://www.w3.org/2000/svg"
   xmlns:svg="http://www.w3.org/2000/svg">
  <sodipodi:namedview
     id="namedview7"
     pagecolor="#ffffff"
     bordercolor="#666666"
     borderopacity="1.0"
     inkscape:pageshadow="2"
     inkscape:pageopacity="0.0"
     inkscape:pagecheckerboard="0"
     inkscape:document-units="mm"
     showgrid="false"
     inkscape:zoom="0.51580387"
     inkscape:cx="201.62703"
     inkscape:cy="169.63812"
     inkscape:window-width="1312"
     inkscape:window-height="969"
     inkscape:window-x="0"
     inkscape:window-y="25"
     inkscape:window-maximized="0"
     inkscape:current-layer="layer1" />
  <defs
     id="defs2" />
  <g
     inkscape:label="Layer 1"
     inkscape:groupmode="layer"
     id="layer1"
     transform="translate(297.6257,31.957961)">
    <path
       style="fill:#000000;stroke-width:0.259335"
       d="m -256.58416,76.027787 c -1.26437,-0.112106 -3.13159,-0.388236 -4.14936,-0.613398 -1.01778,-0.225131 -2.31729,-0.454704 -2.88784,-0.509991 -0.57051,-0.05514 -1.73752,-0.359536 -2.59333,-0.67616 -0.8558,-0.316592 -1.99365,-0.703481 -2.52851,-0.859695 -0.53489,-0.156213 -0.97251,-0.360638 -0.97251,-0.454213 0,-0.09373 -0.75855,-0.543592 -1.68569,-1.000042 -0.92711,-0.456419 -1.68567,-0.997592 -1.68567,-1.202599 0,-0.204915 -0.0974,-0.372738 -0.21625,-0.372738 -0.11884,0 -0.21594,-0.175204 -0.21594,-0.389002 0,-0.214104 0.0876,-0.389002 0.19481,-0.389002 0.35767,0 0.10383,-1.714213 -0.35816,-2.41941 -0.25086,-0.382723 -0.5714,-0.95768 -0.71258,-1.277734 -0.1412,-0.320054 -0.55382,-1.107033 -0.91706,-1.748887 -0.66229,-1.170253 -2.49648,-5.527323 -2.83846,-6.742725 -0.10047,-0.356565 -0.70263,-1.873673 -1.33838,-3.371332 -0.63576,-1.497658 -1.32537,-3.364869 -1.53246,-4.149367 l -0.37653,-1.426351 0.68969,-0.556488 0.6897,-0.556549 -0.53327,-0.572415 c -0.5813,-0.623935 -0.54604,-1.702941 0.10721,-3.276317 0.35371,-0.852099 1.445,-1.354861 2.00134,-0.922027 0.81454,0.633736 9.22309,3.502214 11.96944,4.083206 0.85581,0.181024 2.25621,0.510236 3.11202,0.731477 0.8558,0.221149 2.55571,0.406461 3.77755,0.411546 1.22186,0.0061 2.85567,0.126196 3.6307,0.268932 1.88097,0.34661 4.11537,0.392433 8.02218,0.164484 3.46246,-0.202159 6.38539,-0.55272 7.65035,-0.917954 0.42791,-0.123439 1.47821,-0.36995 2.33402,-0.547543 0.8558,-0.177655 2.60631,-0.601636 3.89002,-0.942274 1.28371,-0.340606 3.09257,-0.804622 4.01971,-1.031101 0.92711,-0.226356 2.71894,-0.757267 3.98182,-1.179564 1.2736,-0.425912 2.48624,-0.688749 2.72302,-0.590242 0.23493,0.09771 0.67781,0.210735 0.98454,0.251166 1.08293,0.14243 1.65044,0.425269 1.94005,0.96638 0.40422,0.755277 0.59869,3.048399 0.25852,3.048399 -0.14795,0 -0.33712,0.437642 -0.42034,0.972505 -0.39887,2.564995 -0.71705,4.195251 -1.05025,5.381218 -0.63873,2.273488 -0.99841,4.299086 -1.4046,7.909701 -0.15254,1.355014 -0.32593,2.84722 -0.3856,3.316044 -0.11977,0.941539 -0.88249,3.408395 -1.17969,3.815652 -0.10414,0.142737 -0.26587,0.580257 -0.35963,0.972506 -0.13385,0.560837 -0.32168,0.714049 -0.87859,0.717142 -0.92166,0.0061 -1.26564,0.241672 -1.58924,1.092882 -0.37201,0.978478 -1.66365,1.553467 -5.86172,2.609439 -6.4638,1.625937 -17.11352,2.531884 -23.30496,1.982564 z m 15.27526,-5.179549 c 3.58474,-0.254536 4.71756,-0.49584 7.90006,-1.682542 2.35668,-0.878746 3.92733,-1.193317 4.32215,-0.865637 0.55354,0.45939 0.71558,0.114251 1.47768,-3.147824 1.10685,-4.73774 1.39573,-6.237543 1.57338,-8.169046 0.0656,-0.71316 0.29589,-2.050225 0.51192,-2.971211 0.21594,-0.920986 0.34897,-1.718164 0.29558,-1.771522 -0.0533,-0.0533 -0.3112,0.01225 -0.57303,0.147637 -1.33737,0.686788 -6.99821,2.137092 -9.29341,2.380938 -1.42635,0.151619 -7.90324,0.286392 -14.39308,0.299256 -12.94866,0.02757 -19.55891,-0.366182 -22.30282,-1.323863 -1.58311,-0.552567 -3.37133,-1.040841 -3.37133,-0.920587 0,0.04288 0.28578,0.836936 0.6349,1.764661 0.34919,0.927724 0.58363,1.738043 0.52096,1.800682 -0.21717,0.217167 4.2888,8.966592 4.93184,9.57656 0.35531,0.337023 0.64884,0.729517 0.6523,0.872161 0.003,0.142736 0.38472,0.515688 0.84729,0.829004 1.09705,0.743055 9.10311,2.559848 15.62316,3.545341 0.97557,0.147331 5.73083,-0.01531 10.64239,-0.364039 z m -13.75426,-30.086165 c -2.13951,-0.118845 -5.58218,-0.391299 -7.65035,-0.605342 -2.06821,-0.214105 -4.81505,-0.456542 -6.10409,-0.538906 -5.30847,-0.339167 -10.01696,-1.533618 -12.3103,-3.122861 -0.62871,-0.435713 -1.17105,-0.605496 -1.71452,-0.5367 -0.99936,0.126502 -1.21188,-0.02144 -1.644,-1.147894 -0.19144,-0.499209 -0.49336,-1.257763 -0.67059,-1.685666 -0.2769,-0.6689 -1.32625,-3.988926 -2.58157,-8.169046 -0.19266,-0.641853 -0.65088,-2.392363 -1.01802,-3.890022 -0.36716,-1.497658 -1.02681,-3.65662 -1.46586,-4.797714 -0.43905,-1.141063 -1.1274,-3.185683 -1.52964,-4.543607 -0.40226,-1.357924 -1.15469,-3.5651283 -1.67213,-4.9049193 -1.21497,-3.145925 -2.65011,-9.0362147 -3.00551,-12.3355965 -0.15376,-1.426321 -0.39093,-3.3743643 -0.52733,-4.3289512 -0.1363,-0.954618 -0.2481,-2.950291 -0.2481,-4.434839 0,-1.484549 -0.12926,-3.07033 -0.28762,-3.523901 -0.35883,-1.029355 0.0184,-2.069277 1.01689,-2.803909 0.38333,-0.282103 1.80561,-0.904691 3.16063,-1.383868 2.44997,-0.866342 3.92497,-1.558796 4.66802,-2.191491 1.75918,-1.497904 8.24394,-4.131969 13.05844,-5.304244 8.21165,-1.999441 12.16946,-2.46122 21.17376,-2.470379 7.37238,-0.0061 10.29137,0.14243 15.17108,0.779138 1.56897,0.204915 3.26113,0.421072 3.76037,0.480678 1.6418,0.196033 6.18832,1.171417 9.28033,1.990772 3.31718,0.878992 7.56101,2.875247 11.04528,5.195691 1.8174,1.210318 2.11552,1.583638 1.9965,2.500059 -0.0245,0.194808 0.25913,0.324159 0.71218,0.324159 0.4585,0 1.08651,0.290067 1.60174,0.739992 l 0.84753,0.739962 -0.009,2.566557 c -0.009,2.335085 -0.41329,6.6561336 -1.10296,11.7729214 -0.14427,1.069756 -0.32207,2.4701639 -0.39534,3.1120176 -0.0732,0.6418536 -0.25454,1.86721049 -0.40309,2.72301532 -0.14856,0.85580478 -0.3626,2.40041918 -0.47587,3.43250028 -0.11333,1.032081 -0.32248,2.0240366 -0.46494,2.2043559 -0.24381,0.3085982 -0.35828,1.0058617 -0.84156,5.1255485 -0.17367,1.480015 -0.704,4.25599 -1.18918,6.224035 -0.0879,0.356565 -0.21257,0.940068 -0.2772,1.296663 -0.4952,2.737167 -0.71846,3.664156 -0.91116,3.783246 -0.12221,0.07566 -0.22237,0.397732 -0.22237,0.715948 0,0.318185 -0.18623,1.274058 -0.41363,2.124197 -0.22758,0.850138 -0.63609,2.585057 -0.90794,3.85544 -0.37528,1.753634 -0.63471,2.408782 -1.07753,2.720994 -0.32079,0.22605 -0.65671,0.387624 -0.74649,0.358832 -0.0897,-0.02757 -0.36278,0.47008 -0.60669,1.108656 -0.77362,2.025752 -3.11058,3.277512 -7.91779,4.241012 -6.69595,1.342119 -8.13011,1.609305 -11.67006,2.174185 -4.17501,0.666205 -8.8344,0.795801 -15.43043,0.429281 z m 13.35577,-5.184235 c 0.64185,-0.139367 2.6313,-0.42147 4.42102,-0.626661 1.78972,-0.205222 3.59022,-0.500894 4.00109,-0.657077 0.4109,-0.156213 2.109,-0.512625 3.77353,-0.792002 4.9546,-0.831577 7.5287,-1.914412 7.70433,-3.241001 0.098,-0.739319 0.77987,-3.564179 1.84436,-7.639452 0.45449,-1.740157 1.01591,-4.134144 1.48994,-6.353723 0.28517,-1.335533 0.85645,-5.08092 1.16266,-7.6237691 0.16142,-1.3403729 0.39488,-2.7407808 0.51881,-3.1120175 0.12405,-0.3712061 0.35353,-1.6668897 0.51027,-2.8792901 1.06562,-8.2443961 1.7834,-14.9166723 1.97849,-18.3912583 0.15376,-2.738728 0.13262,-2.947932 -0.28272,-2.788594 -0.28425,0.109043 -0.84622,-0.09863 -1.53181,-0.56632 -2.00064,-1.364387 -5.90015,-3.442577 -7.82565,-4.170563 -0.85581,-0.323576 -2.11244,-0.813964 -2.79252,-1.089757 -4.58407,-1.858941 -17.26186,-3.426436 -27.16503,-3.358713 -7.30016,0.04993 -13.52484,0.759933 -19.96439,2.277317 -2.48536,0.585648 -3.75442,1.00675 -6.16801,2.046795 -0.4684,0.201852 -0.9991,0.366948 -1.17935,0.366948 -0.42105,0 -3.13003,1.412446 -5.62344,2.932036 -1.072,0.653309 -2.90928,1.554507 -4.08284,2.002656 -1.17359,0.448149 -2.20828,0.935352 -2.29934,1.082652 -0.39734,0.642925 -0.52439,2.045814 -0.31414,3.468674 0.12497,0.844656 0.27444,1.944184 0.33227,2.443393 0.0579,0.49921 0.22452,1.6662161 0.37026,2.5933585 0.1458,0.9271116 0.33757,2.2108189 0.42643,2.8526725 0.38376,2.7726055 1.82417,8.4797578 2.58536,10.2437143 0.44175,1.0237496 1.81438,5.1428846 2.63575,7.9097317 0.35991,1.21237 0.89103,2.589774 1.18024,3.060804 0.28915,0.47106 0.4589,0.923497 0.377,1.005402 -0.0818,0.08178 0.0245,0.482976 0.23493,0.891244 0.21104,0.408269 0.54656,1.53129 0.74541,2.495618 0.50862,2.466365 1.01034,4.211607 2.06974,7.199328 0.50573,1.426351 0.92181,2.827525 0.9246,3.113732 0.003,0.376628 0.28578,0.607977 1.02133,0.837519 0.55897,0.174592 1.87184,0.720512 2.91752,1.213472 1.97031,0.928797 5.54236,1.949698 7.34727,2.099816 1.46883,0.122214 4.99656,0.436264 6.22403,0.55419 10.15538,0.975507 19.54635,1.226307 22.43247,0.599125 z m -11.13622,-0.63974 c -3.0925,-0.896176 -3.82741,-1.300646 -5.60965,-3.087391 -1.74892,-1.753267 -3.52002,-4.99145 -4.0146,-7.339982 -0.33656,-1.598308 -0.16785,-4.175218 0.37329,-5.701271 0.64366,-1.815262 3.48969,-7.091602 4.11307,-7.625454 0.80101,-0.685899 1.92182,-1.151048 3.30058,-1.3697775 0.63811,-0.1010793 1.33832,-0.3446191 1.55601,-0.5408968 0.48649,-0.4386536 2.94998,-1.3576483 4.08351,-1.5233571 1.07018,-0.1565198 4.13573,0.6307349 5.86315,1.5054998 2.8033,1.4196126 5.38667,4.4376266 6.93281,8.0992396 0.77565,1.836826 0.85514,2.266474 0.85443,4.61859 -0.001,4.437351 -0.41629,6.170065 -2.09326,8.739838 -1.35514,2.076598 -2.61198,3.126383 -4.80035,4.009448 -1.38267,0.557958 -2.13363,0.671136 -4.99849,0.753256 -2.98282,0.08546 -3.62363,0.0245 -5.5605,-0.537742 z m 6.15337,-4.541034 c 1.68365,-0.213492 1.92446,-0.332184 3.38472,-1.667533 1.63409,-1.49432 1.93784,-2.459076 1.96388,-6.237574 0.0245,-3.347471 0.0153,-3.384196 -0.87786,-5.186686 -1.04467,-2.104593 -1.52859,-2.71842 -3.09107,-3.920835 -1.2342,-0.949778 -2.39472,-1.134325 -3.27634,-0.520988 -0.28149,0.195727 -0.91998,0.442605 -1.41922,0.548616 -0.49921,0.10598 -1.05355,0.310283 -1.23182,0.453877 -0.22268,0.179186 -0.32419,0.168465 -0.32419,-0.03492 0,-0.183168 -0.23799,-0.236464 -0.62418,-0.139366 -0.3433,0.08607 -0.87945,0.02144 -1.19148,-0.147025 -0.47838,-0.256068 -0.66299,-0.213798 -1.17806,0.270157 -0.33592,0.315582 -0.85075,1.054962 -1.14403,1.64306 -0.29313,0.588098 -0.64008,1.244317 -0.77069,1.458268 -0.13048,0.214105 -0.55431,1.173041 -0.9416,2.131334 -0.60099,1.486999 -0.6855,2.003637 -0.57661,3.525432 0.18868,2.63722 1.7812,5.807405 3.47465,6.91701 1.00904,0.661151 4.25577,1.438726 5.28602,1.265973 0.49924,-0.08362 1.64128,-0.245347 2.53788,-0.358954 z m -2.70506,-1.404696 c -1.99681,-0.876603 -4.3602,-3.94825 -4.78335,-6.216776 -0.44524,-2.386973 2.00397,-5.599978 4.26879,-5.599978 0.50074,0 0.98023,0.113025 1.0655,0.250861 0.0851,0.137835 0.49333,0.183168 0.9068,0.100466 0.51753,-0.103529 0.979,0.0092 1.48112,0.360517 0.40113,0.280878 0.87523,0.459451 1.05353,0.396568 0.17826,-0.06279 0.32415,-0.0031 0.32415,0.131096 0,0.134773 0.34425,0.678457 0.76502,1.207898 0.93443,1.175859 1.1897,2.646256 0.81308,4.683587 -0.29681,1.605445 -1.20876,3.761161 -1.59115,3.761161 -0.12435,0 -0.43485,0.218392 -0.69003,0.485456 -0.62985,0.659068 -2.57434,0.89541 -3.61346,0.439236 z m 0.78854,-4.490556 c 0.51204,-1.688423 0.64541,-2.92597 0.39326,-3.649239 -0.49658,-1.424513 -1.37327,-1.229216 -2.07519,0.46227 -0.31387,0.756287 -0.12926,1.642416 0.58326,2.797967 0.58347,0.946409 0.89605,1.057106 1.09867,0.389002 z m -8.05458,-27.3352454 c -6.08706,-0.5984201 -10.98172,-1.1971466 -12.4542,-1.5234183 -1.40757,-0.3119063 -5.12772,-1.4368884 -5.91639,-1.7891038 -0.28516,-0.1274212 -1.08562,-0.4462499 -1.77853,-0.7085966 -1.63421,-0.6186973 -2.44989,-1.6872281 -2.76725,-3.6251939 -0.36094,-2.204019 -0.33825,-2.323875 0.62253,-3.284618 1.70214,-1.702176 7.47922,-3.552663 14.34704,-4.595617 3.71972,-0.56485 10.58965,-0.898381 17.19537,-0.834793 5.78284,0.05575 7.26295,0.150394 9.33605,0.597961 7.8198,1.687963 9.4439,2.272692 9.75498,3.512138 0.1118,0.445699 0.53499,0.794269 1.43322,1.180668 2.31033,0.993885 3.16663,3.11361 2.27976,5.6434723 -0.58764,1.6762625 -1.21227,2.3918734 -2.80905,3.2182427 -1.53622,0.7950041 -6.25865,1.9111341 -9.67243,2.2859852 -4.18604,0.4596964 -14.52513,0.4189278 -19.5711,-0.077188 z m 17.02861,-4.2868042 c 1.2124,-0.1059801 2.37941,-0.1693844 2.59336,-0.1412047 1.46559,0.1941948 8.23349,-1.9492686 8.47887,-2.6854935 0.0515,-0.1543752 -0.40563,-0.4273822 -1.01581,-0.6066292 -1.12931,-0.331816 -2.79503,-1.676661 -2.79503,-2.256641 0,-0.17888 -0.62994,-0.450508 -1.42984,-0.616584 -0.78643,-0.163259 -1.38105,-0.37574 -1.32145,-0.472224 0.0597,-0.09649 -0.31809,-0.182556 -0.83935,-0.191745 -0.52124,-0.0092 -1.64793,-0.159582 -2.50374,-0.334542 -0.94298,-0.192969 -4.21256,-0.339749 -8.2987,-0.372737 -6.89269,-0.05575 -9.12593,0.04564 -16.20844,0.736072 -3.94592,0.384591 -11.79516,2.313521 -12.67044,3.113702 -0.0947,0.08638 2.57945,0.911796 2.81573,0.869159 0.0714,-0.01225 0.59646,0.154376 1.16701,0.371329 2.62282,0.9979591 7.85135,1.9959182 12.57772,2.4006642 6.30616,0.5400086 14.50492,0.6186973 19.45011,0.1865373 z"
       id="path921"
       sodipodi:nodetypes="cscssssssssssscsscccsssssccccsscsscsscscssccssccssssssscscssssscscsscssssscssssscsscssssccssscscccsssssssccscscccssccsssscsssccsscssssssssscssssssscssccsscsscsssscssssssssccsccssscsccsccssssccssssscssssssssssssssssssssscsssssssccsssssscsssccscc" />
    <path
       style="fill:#ff5555;fill-opacity:0.432432;stroke:#cdcdcd;stroke-width:1.94177;stroke-opacity:0.239216"
       d="m -543.26987,-395.74529 c -44.43946,0.40371 -90.16283,6.37101 -129.15217,29.18684 -6.86308,4.68542 -17.17624,6.93569 -21.64779,14.11253 2.2722,61.15765 29.83369,117.26856 45.49179,175.55273 32.73171,16.11904 70.32232,17.0629 105.7777,17.74386 -28.80497,-8.69765 -45.44241,-45.54966 -29.56124,-71.98341 5.02022,-10.62731 9.7675,-23.68034 22.99534,-25.90309 19.37875,-8.12073 44.8157,-8.03275 58.93789,9.75419 21.96936,22.27502 22.03915,64.54162 -3.96455,83.57707 -2.12968,1.22857 -10.307,4.62455 -3.15798,4.06676 23.1317,-3.3385 47.2303,-5.67976 68.91928,-14.707 8.13295,-11.08875 8.18842,-26.57069 12.09632,-39.50606 8.98768,-46.18593 17.10123,-92.85789 19.86986,-139.84083 -0.96254,-14.37953 -19.79914,-15.5958 -29.16845,-22.23195 -35.99696,-18.22388 -77.94318,-19.29891 -117.436,-19.82164 z m 22.265,29.65638 c 23.6067,1.07083 49.09092,1.68507 70.29001,13.07879 7.12197,7.24118 20.42532,12.34963 17.23265,24.93075 -1.06463,18.25137 -23.47999,21.5384 -37.63395,23.9981 -46.66944,4.81911 -94.63072,3.85189 -140.47502,-6.63252 -11.90715,-4.33104 -31.2656,-6.38342 -31.87121,-22.67435 -3.45592,-14.04942 14.75844,-18.39265 24.54936,-21.85919 31.71397,-8.82426 65.10503,-11.03048 97.90816,-10.84158 z"
       id="path1082"
       transform="matrix(0.26458333,0,0,0.26458333,-109.61548,77.41023)" />
    <path
       style="fill:#ff5555;fill-opacity:0.432432;stroke:#cdcdcd;stroke-width:1.94177;stroke-opacity:0.239216"
       d="m -521.14876,-243.53673 c -8.24905,2.0926 -16.54968,4.30886 -25.08221,3.65404 -13.46209,14.47808 -19.64225,42.62617 -1.73424,56.46147 12.81992,8.85455 34.68717,8.55462 44.6436,-4.47193 8.41978,-17.83603 5.65552,-43.31289 -12.12837,-54.48489 -1.76193,-0.86412 -3.74119,-1.24684 -5.69878,-1.15869 z m -10.44713,15.1349 c 10.61583,0.37772 24.89046,3.75019 25.83195,16.69118 2.60487,11.87947 -1.87283,31.58102 -17.59996,29.21714 -14.84709,-0.67291 -26.04915,-18.17222 -22.7724,-32.11007 2.30594,-6.13668 8.09756,-12.37991 14.54041,-13.79825 z"
       id="path1121"
       transform="matrix(0.26458333,0,0,0.26458333,-109.61548,77.41023)" />
    <path
       style="fill:#ff5555;fill-opacity:0.432432;stroke:#cdcdcd;stroke-width:1.94177;stroke-opacity:0.239216"
       d="m -440.77134,-92.108199 c -19.81201,6.660875 -40.62718,8.140568 -61.4521,7.445283 -36.5515,-1.18744 -73.73581,3.116367 -109.85941,-3.693994 -2.84252,-0.02803 -12.31798,-5.979784 -10.51178,0.872107 6.01015,17.027195 14.13551,34.209947 25.24882,48.445315 22.35758,10.056111 47.6306,13.129843 71.93717,14.778964 25.17608,-0.566833 50.41039,-4.219978 74.18638,-12.219245 8.22263,-13.492345 7.54684,-30.86439 11.07192,-46.025701 -0.86477,-1.829662 3.41844,-10.301453 -0.621,-9.602729 z"
       id="path1160"
       transform="matrix(0.26458333,0,0,0.26458333,-109.61548,77.41023)" />
  </g>
</svg>
