<?xml version="1.0" encoding="UTF-8" standalone="no"?>
<!-- Created with Inkscape (http://www.inkscape.org/) -->

<svg
   width="66.020882mm"
   height="82.738396mm"
   viewBox="0 0 66.020882 82.738396"
   version="1.1"
   id="svg5"
   inkscape:version="1.1.1 (c3084ef, 2021-09-22)"
   sodipodi:docname="signature copy 11.svg"
   xmlns:inkscape="http://www.inkscape.org/namespaces/inkscape"
   xmlns:sodipodi="http://sodipodi.sourceforge.net/DTD/sodipodi-0.dtd"
   xmlns="http://www.w3.org/2000/svg"
   xmlns:svg="http://www.w3.org/2000/svg">
  <sodipodi:namedview
     id="namedview7"
     pagecolor="#ffffff"
     bordercolor="#666666"
     borderopacity="1.0"
     inkscape:pageshadow="2"
     inkscape:pageopacity="0.0"
     inkscape:pagecheckerboard="0"
     inkscape:document-units="mm"
     showgrid="false"
     inkscape:zoom="0.51580387"
     inkscape:cx="-362.5409"
     inkscape:cy="-140.5573"
     inkscape:window-width="2560"
     inkscape:window-height="1387"
     inkscape:window-x="0"
     inkscape:window-y="25"
     inkscape:window-maximized="1"
     inkscape:current-layer="layer1" />
  <defs
     id="defs2" />
  <g
     inkscape:label="Layer 1"
     inkscape:groupmode="layer"
     id="layer1"
     transform="translate(-49.060085,-146.70678)">
    <path
       style="fill:#000000;stroke-width:0.143303"
       d="m 111.21995,229.18976 c -0.70935,-0.13422 -1.9346,-0.37692 -2.72277,-0.5393 -0.78816,-0.16232 -1.62648,-0.33205 -1.86293,-0.37707 -0.23645,-0.045 -0.84907,-0.17183 -1.36139,-0.28178 -0.51231,-0.10985 -1.31839,-0.26532 -1.79129,-0.3453 -0.4729,-0.0801 -1.63365,-0.31337 -2.57945,-0.51865 -0.945805,-0.20527 -2.099665,-0.42967 -2.564155,-0.49868 -0.46447,-0.0691 -1.14158,-0.19149 -1.50469,-0.27228 -2.56744,-0.57115 -3.43584,-0.78083 -6.17734,-1.49161 -1.69455,-0.43934 -3.39351,-0.89444 -3.77547,-1.01129 -0.38196,-0.11696 -1.28477,-0.28885 -2.00626,-0.38213 -0.72147,-0.0933 -1.39336,-0.19283 -1.49305,-0.22117 -0.42441,-0.12068 -0.61144,-1.26608 -0.40738,-2.49503 0.097,-0.58398 0.0765,-0.6584 -0.2174,-0.78817 -0.42721,-0.18869 -0.58044,-0.79342 -0.49021,-1.9346 0.22856,-2.89051 0.3669,-16.45176 0.18784,-18.41446 -0.0575,-0.63053 -0.14455,-2.0992 -0.19338,-3.2637 -0.0961,-2.29028 -0.0361,-2.54008 0.61029,-2.54008 0.25558,0 0.38682,-0.11087 0.49345,-0.41675 0.18205,-0.52223 0.3358,-0.55595 2.62187,-0.57508 1.01784,-0.008 3.33935,-0.0778 5.15892,-0.15402 1.81956,-0.0762 4.24337,-0.1712 5.38622,-0.21115 1.14284,-0.0399 3.01294,-0.10527 4.155785,-0.14522 1.14285,-0.0399 2.75501,-0.10815 3.58259,-0.15165 2.76758,-0.14539 3.8691,-0.14404 3.87137,0.005 0.001,0.0848 0.0455,0.0792 0.10747,-0.0135 0.1239,-0.18569 3.00352,-0.39508 3.54933,-0.25808 0.21396,0.0536 0.43218,0.24594 0.50924,0.44863 0.0836,0.21974 0.21181,0.32514 0.33712,0.27705 0.29867,-0.11459 1.27086,0.179 1.47823,0.44641 0.0988,0.12762 0.1437,0.34569 0.0995,0.48478 -0.0442,0.13913 -0.0176,0.37008 0.0591,0.51332 0.0767,0.14319 0.18438,0.93563 0.23939,1.76089 0.055,0.82524 0.13067,1.55218 0.16824,1.61543 0.16807,0.28299 0.37392,12.70103 0.3902,23.53003 0.0102,6.19908 -0.0102,6.77804 -0.24738,7.27264 -0.14167,0.29557 -0.34816,0.53738 -0.459,0.53738 -0.34197,0 -0.93149,0.32301 -0.93149,0.51038 0,0.23239 -0.60448,0.20487 -2.22119,-0.10105 z m 1.66084,-3.74111 c 0.007,-0.96551 0.0186,-2.14239 0.0257,-2.61529 0.0152,-0.96309 -0.18477,-22.24421 -0.24501,-26.16791 -0.0364,-2.36636 -0.0579,-2.54207 -0.34809,-2.83222 -0.27677,-0.27679 -0.3431,-0.28831 -0.62979,-0.10934 -0.17624,0.11001 -0.83632,0.24026 -1.46687,0.28948 -0.63053,0.0493 -1.46885,0.11949 -1.86293,0.15605 -0.39409,0.0366 -2.07074,0.1371 -3.72589,0.2235 -1.65516,0.0863 -3.29956,0.18055 -3.65424,0.2093 -0.35467,0.0288 -2.095805,0.0729 -3.869175,0.098 -1.77338,0.0252 -3.25931,0.0924 -3.30208,0.14945 -0.078,0.10393 -1.84694,0.20411 -6.65749,0.3769 l -2.57946,0.0926 0.005,1.43303 c 0.003,0.78818 0.0562,2.23912 0.1178,3.22433 0.19849,3.16896 0.26944,15.68945 0.0999,17.62629 -0.0863,0.98521 -0.17836,2.1221 -0.20471,2.5264 l -0.0479,0.73509 0.79508,0.0934 c 0.43729,0.0514 1.41117,0.27968 2.16419,0.50729 2.00666,0.60655 3.23261,0.94973 4.5218,1.26582 0.63053,0.15453 1.88801,0.47642 2.79441,0.71517 0.9064,0.23875 2.35735,0.54343 3.22432,0.67709 0.86698,0.13371 2.124465,0.36287 2.794415,0.50933 0.66994,0.14657 2.21762,0.46406 3.43927,0.70572 1.85672,0.36731 4.15973,0.88713 7.52342,1.69813 1.13864,0.27453 1.0733,0.36993 1.08762,-1.58763 z M 74.247725,221.9612 c -0.9458,-0.19234 -2.07432,-0.40904 -2.50781,-0.48155 -1.24397,-0.20808 -2.30505,-0.4282 -2.42679,-0.50344 -0.0614,-0.0381 -0.49178,-0.10815 -0.95621,-0.15571 -0.46444,-0.0477 -1.13463,-0.15115 -1.4893,-0.22982 -0.35468,-0.0787 -1.35422,-0.26221 -2.22121,-0.40773 -0.86698,-0.14556 -2.2212,-0.40366 -3.00937,-0.57366 -0.78816,-0.17 -2.30359,-0.49568 -3.36761,-0.72372 -4.74282,-1.01649 -6.4349,-1.43572 -7.2529,-1.79696 -0.74363,-0.32842 -0.84745,-0.54652 -0.66397,-1.3949 0.15876,-0.7341 0.13032,-18.86623 -0.033,-21.01937 -0.0828,-1.09237 0.11933,-1.62441 0.64497,-1.69687 0.19508,-0.0269 0.4514,-0.13405 0.56963,-0.23833 0.17108,-0.15081 2.16029,-0.20998 9.74463,-0.29007 15.73471,-0.16621 14.80483,-0.18567 14.87575,0.3119 0.044,0.30864 0.38743,0.47466 0.98955,0.47839 0.66027,0.003 0.71878,1.31281 0.40371,9.03006 -0.0306,0.74876 -0.0621,2.61886 -0.0702,4.15579 -0.0135,2.52032 0.0332,3.86839 0.22421,6.52029 0.14878,2.06462 0.18739,7.37116 0.0542,7.45348 -0.0773,0.0477 -0.14049,0.21203 -0.14049,0.365 0,0.15301 -0.0645,0.27816 -0.14336,0.27816 -0.0789,0 -0.14336,0.0873 -0.14336,0.19403 0,0.29495 -0.64926,0.93223 -1.02673,1.0078 -0.18404,0.0369 -1.10848,-0.0904 -2.05428,-0.2827 z m 0.95975,-4.25093 c 0.0239,-1.12313 -0.003,-2.42899 -0.0613,-2.90189 -0.15978,-1.31214 -0.14556,-10.17472 0.0203,-12.68233 0.28116,-4.25139 0.30415,-4.66818 0.35746,-6.48448 0.0295,-1.0049 0.003,-1.82711 -0.0564,-1.82711 -0.0604,0 -0.18763,0.0936 -0.28254,0.20793 -0.095,0.11441 -0.44136,0.24775 -0.76989,0.2964 -0.32853,0.0486 -0.79078,0.11865 -1.02723,0.15571 -0.88434,0.13828 -13.23,0.46639 -18.65359,0.49582 l -1.74381,0.0102 0.046,0.49608 c 0.0503,0.54057 0.21871,9.39201 0.28342,14.89016 0.0223,1.8916 0.0892,3.77784 0.14894,4.19162 0.0992,0.68848 0.14031,0.75239 0.48405,0.75283 0.2066,0 0.956,0.16113 1.66535,0.35734 1.31186,0.36296 1.72729,0.46054 4.01249,0.94238 0.70935,0.14962 2.16802,0.46393 3.24149,0.69852 1.07347,0.23462 2.16974,0.45105 2.43616,0.48099 1.31837,0.1481 5.56603,1.01462 8.86763,1.80904 1.04763,0.25209 0.98343,0.36963 1.0314,-1.88842 z m 12.81537,-29.01282 c -0.0399,-0.04 -1.12442,-0.0872 -2.40985,-0.10494 -1.28545,-0.0178 -2.44592,-0.0807 -2.57882,-0.13981 -0.34822,-0.1547 -0.84925,-1.2268 -0.69892,-1.49542 0.0796,-0.14218 0.0303,-0.34503 -0.14201,-0.58524 -0.20375,-0.28382 -0.24107,-0.4982 -0.16384,-0.94081 0.18998,-1.08826 -0.0946,-12.25239 -0.34711,-13.61379 -0.0537,-0.28941 -0.13388,-2.16587 -0.2664,-6.23369 -0.0696,-2.13334 -0.17655,-3.74394 -0.30952,-4.65736 -0.0344,-0.23645 -0.1239,-1.10096 -0.19889,-1.92112 -0.075,-0.82015 -0.16672,-1.52156 -0.20381,-1.55866 -0.0371,-0.0371 0.0279,-0.25184 0.14438,-0.47715 0.26228,-0.50721 0.78761,-0.65281 1.58547,-0.43941 0.49704,0.13287 0.7333,0.12017 1.29819,-0.0704 1.07215,-0.36151 1.20649,-0.41283 2.12362,-0.81136 0.4729,-0.20549 1.15001,-0.44369 1.50468,-0.52931 0.35468,-0.0857 1.06403,-0.27586 1.57633,-0.42274 2.04363,-0.58598 2.77028,-0.71553 2.99486,-0.53391 0.16638,0.13439 0.18989,0.13388 0.10782,-0.003 -0.0694,-0.11543 0.031,-0.20527 0.29491,-0.26422 0.21998,-0.0491 0.60316,-0.17997 0.85151,-0.2908 0.24838,-0.11086 0.5456,-0.20152 0.66054,-0.20152 0.11492,0 0.57147,-0.19346 1.01457,-0.42991 0.44311,-0.23645 0.86811,-0.42991 0.94446,-0.42991 0.0763,0 0.4212,-0.19056 0.76632,-0.42349 0.34512,-0.23292 0.9771,-0.59143 1.40439,-0.79672 0.4273,-0.20528 0.95423,-0.46976 1.17098,-0.58773 0.21675,-0.11797 0.39409,-0.18614 0.39409,-0.15148 0,0.0841 3.108045,-1.07963 5.947065,-2.22688 1.26108,-0.50958 2.75374,-1.08928 3.31706,-1.28821 l 1.02418,-0.36168 0.65963,0.36273 c 0.3628,0.1995 0.65962,0.44423 0.65962,0.54385 0,0.0995 0.18547,0.31316 0.41216,0.47458 0.53737,0.38262 0.70574,1.09275 0.73355,3.09366 0.0119,0.86698 0.0455,1.83427 0.0743,2.14955 0.35612,3.89462 0.43208,7.1553 0.163,6.994 -0.0999,-0.0597 -0.0924,-0.008 0.0188,0.12796 0.12102,0.14945 0.20726,0.90472 0.25275,2.21288 0.0379,1.09233 0.10444,2.9856 0.14776,4.20728 0.0432,1.22165 0.10951,4.63943 0.14726,7.59506 0.0377,2.95563 0.0965,5.76079 0.13032,6.23369 0.0339,0.4729 0.10545,1.80757 0.15877,2.96594 0.0846,1.83469 0.0662,2.15327 -0.14252,2.47198 -0.13185,0.20122 -0.36354,0.36586 -0.51489,0.36586 -0.15131,0 -0.3704,0.13591 -0.48681,0.30214 -0.12864,0.18374 -0.28095,0.25931 -0.38853,0.19281 -0.10883,-0.0674 -0.14031,-0.0503 -0.0819,0.0445 0.14285,0.23124 -0.43395,0.28777 -3.18324,0.3119 -1.36822,0.0119 -2.79321,0.0799 -3.16671,0.15064 -0.37348,0.0707 -1.25312,0.14048 -1.95477,0.1547 -1.19919,0.0244 -3.830845,0.34339 -4.074185,0.49379 -0.0608,0.0376 -0.64904,0.0988 -1.30716,0.13625 -0.6581,0.0374 -1.68022,0.14607 -2.27135,0.24153 -1.04877,0.1694 -7.64758,0.30755 -7.79201,0.16316 z m 7.50541,-2.58875 c 0.90639,-0.0895 2.03491,-0.1947 2.50781,-0.23374 0.4729,-0.0391 1.50468,-0.16757 2.292835,-0.28572 1.57849,-0.23652 5.05206,-0.49494 6.95021,-0.51705 0.66994,-0.008 1.41153,-0.033 1.64798,-0.056 0.23645,-0.023 0.82465,-0.0518 1.30709,-0.0642 l 0.87719,-0.0223 0.0904,-0.6809 c 0.0501,-0.37749 0.0196,-0.9043 -0.0684,-1.18225 -0.10307,-0.32534 -0.1746,-2.71495 -0.20385,-6.80669 -0.052,-7.27903 -0.14674,-10.65375 -0.42839,-15.26181 -0.0361,-0.59112 -0.10561,-3.42853 -0.15453,-6.30533 -0.0489,-2.87681 -0.13032,-5.22198 -0.1809,-5.21149 -0.49196,0.10189 -3.58925,1.1307 -3.81292,1.26646 -0.64182,0.38947 -6.25008,2.50429 -6.751115,2.54575 -0.17992,0.0152 -0.31555,0.0789 -0.30143,0.14218 0.0469,0.20974 -1.98226,1.23953 -3.9868,2.02337 -1.54907,0.60575 -1.9501,0.72582 -3.43928,1.02977 -0.63053,0.12863 -1.25114,0.25562 -1.37913,0.28204 -0.76252,0.15741 -3.274,0.98499 -4.51788,1.48869 -0.90956,0.3683 -1.68216,0.58901 -2.06187,0.58901 h -0.60724 l 0.099,0.96672 c 0.15454,1.50779 0.34644,4.48601 0.44109,6.84332 0.0474,1.18225 0.15639,3.27806 0.24191,4.65734 0.0856,1.3793 0.17638,3.05595 0.20174,3.7259 0.0254,0.66995 0.0961,2.31435 0.15741,3.65423 0.0613,1.33988 0.11238,3.57937 0.11391,4.97664 l 0.003,2.5405 2.50781,0.0389 c 4.30106,0.0669 6.7464,0.0254 8.45489,-0.14336 z m -42.10881,2.42178 c -1.02846,-0.0731 -1.38112,-0.15267 -1.52049,-0.34332 -0.0999,-0.13642 -0.24803,-0.24813 -0.32944,-0.24813 -0.0814,0 -0.18794,-0.10409 -0.23675,-0.23132 -0.0621,-0.16198 -0.20347,-0.20939 -0.47109,-0.15826 -0.37408,0.0714 -0.87341,-0.11306 -1.07835,-0.39861 -0.0565,-0.0789 -0.0944,-0.56245 -0.0843,-1.07477 0.0102,-0.51231 -0.0232,-1.80204 -0.074,-2.86606 -0.051,-1.06403 -0.12813,-3.93368 -0.17173,-6.377 -0.0435,-2.44331 -0.10934,-5.11951 -0.14624,-5.94709 -0.0369,-0.82758 -0.10172,-2.37525 -0.14386,-3.43928 -0.0422,-1.06402 -0.0841,-2.03132 -0.0934,-2.14955 -0.0775,-0.98627 0.29775,-1.22659 1.52892,-0.97934 0.8978,0.1803 1.05158,0.14725 4.87634,-1.0467 2.93649,-0.9167 4.35147,-1.40034 4.80065,-1.64088 0.19705,-0.10545 0.93864,-0.42329 1.648,-0.70617 0.70935,-0.28288 1.48318,-0.59991 1.71963,-0.70451 0.6141,-0.27167 2.12311,-0.77443 2.56487,-0.85454 0.20641,-0.0374 0.48759,-0.10325 0.62486,-0.14624 0.13727,-0.043 0.47525,-0.1068 0.75111,-0.14166 0.92127,-0.11662 3.21633,-0.68092 3.89576,-0.95799 0.36926,-0.15064 0.77553,-0.27381 0.90274,-0.27381 0.12728,0 0.41798,-0.0965 0.64608,-0.21446 0.50166,-0.25944 0.87753,-0.13913 1.53368,0.49113 0.33215,0.31901 0.59502,0.43984 0.95689,0.43984 0.85257,0 1.05861,0.42969 1.08207,2.25686 0.0102,0.84738 0.0855,2.60471 0.1657,3.90519 0.0802,1.30047 0.17589,3.04161 0.21253,3.86918 0.0367,0.82758 0.10105,1.85936 0.14302,2.29284 0.042,0.4335 0.10985,1.27183 0.15064,1.86295 0.0929,1.34531 0.15368,1.938 0.26575,2.59732 0.0486,0.28567 0.13794,2.44596 0.19852,4.80065 0.12948,5.0338 0.0227,5.92923 -0.70785,5.92923 -0.29477,0 -0.56071,0.40176 -0.56071,0.84709 0,0.61041 -0.8259,0.79654 -4.22743,0.95271 -0.63054,0.0289 -1.53335,0.0861 -2.00626,0.12711 -1.15999,0.10054 -2.74004,0.24452 -3.43927,0.31344 -1.87889,0.18524 -11.59473,0.34068 -13.37651,0.21403 z m 12.44201,-2.74513 c 1.22333,-0.0816 3.12703,-0.2125 4.23048,-0.29088 1.10343,-0.0784 2.69946,-0.1827 3.54676,-0.23181 l 1.54049,-0.0894 0.003,-1.16079 c 10e-4,-0.63843 0.0289,-1.80566 0.0613,-2.59381 0.0592,-1.44492 -0.0923,-4.82927 -0.34626,-7.73837 -0.0757,-0.867 -0.17305,-2.54365 -0.21631,-3.7259 -0.11188,-3.05791 -0.24463,-5.57527 -0.29893,-5.66992 -0.0255,-0.0445 -0.0591,-0.99576 -0.0743,-2.11371 -0.0264,-1.92864 -0.0425,-2.03265 -0.31476,-2.03265 -0.15775,0 -1.19674,0.22068 -2.30872,0.49039 -1.11198,0.26973 -3.00718,0.72294 -4.21161,1.00717 -1.20441,0.28422 -2.46189,0.63889 -2.79441,0.78816 -1.30606,0.58627 -1.74469,0.75977 -3.78886,1.49878 -1.16487,0.4211 -2.85952,0.97359 -3.76592,1.22774 -0.90638,0.25416 -1.93817,0.55537 -2.29284,0.66936 -1.09661,0.35244 -2.05365,0.60631 -2.63318,0.69845 l -0.5553,0.0883 0.0901,2.53376 c 0.0496,1.39358 0.1266,3.75904 0.17134,5.25656 0.0447,1.49752 0.10629,3.2709 0.13709,3.94083 0.24339,5.30534 0.34525,6.99932 0.44086,7.3335 0.0626,0.21885 0.55652,0.24093 5.61241,0.25123 3.04905,0.007 6.54464,-0.0555 7.76797,-0.1371 z"
       id="path836"
       sodipodi:nodetypes="cssssssssssssssscsssssssccssscsssscsssccccssssssscsscccssccsssscssccssccsssssscsssscscssssssssscsssssccccscccsssssscssscsssssscscsssccssssssssssscsssccccscsscssssccssssscccsccsccssssscsccssssscsscssccsccccsssssccsscssssssscssssscssssssssssscccssccsssscssssssssccscsccc" />
  </g>
</svg>
