<?xml version="1.0" encoding="UTF-8" standalone="no"?>
<!-- Created with Inkscape (http://www.inkscape.org/) -->

<svg
   width="80.100792mm"
   height="79.630684mm"
   viewBox="0 0 80.100792 79.630684"
   version="1.1"
   id="svg5"
   inkscape:version="1.1.1 (c3084ef, 2021-09-22)"
   sodipodi:docname="git_branches copy 3.svg"
   xmlns:inkscape="http://www.inkscape.org/namespaces/inkscape"
   xmlns:sodipodi="http://sodipodi.sourceforge.net/DTD/sodipodi-0.dtd"
   xmlns="http://www.w3.org/2000/svg"
   xmlns:svg="http://www.w3.org/2000/svg">
  <sodipodi:namedview
     id="namedview7"
     pagecolor="#ffffff"
     bordercolor="#666666"
     borderopacity="1.0"
     inkscape:pageshadow="2"
     inkscape:pageopacity="0.0"
     inkscape:pagecheckerboard="0"
     inkscape:document-units="mm"
     showgrid="false"
     inkscape:zoom="0.51580387"
     inkscape:cx="654.31847"
     inkscape:cy="140.5573"
     inkscape:window-width="1312"
     inkscape:window-height="969"
     inkscape:window-x="0"
     inkscape:window-y="25"
     inkscape:window-maximized="0"
     inkscape:current-layer="layer1" />
  <defs
     id="defs2" />
  <g
     inkscape:label="Layer 1"
     inkscape:groupmode="layer"
     id="layer1"
     transform="translate(-82.074705,-116.54246)">
    <path
       style="fill:#000000;stroke-width:0.204603"
       d="m 110.38015,195.79373 c -0.65303,-0.60523 -1.21097,-0.91883 -1.6346,-0.91883 -0.81576,0 -5.22571,-2.24175 -7.58981,-3.8582 -3.935972,-2.69114 -8.539462,-7.12361 -10.915512,-10.5099 -4.70467,-6.70502 -6.07716,-9.74381 -7.37218,-16.32234 -0.89894,-4.56652 -1.05949,-10.75605 -0.35028,-13.50379 0.52935,-2.05087 1.35686,-4.76741 1.5771,-5.17724 0.10899,-0.20299 0.61802,-1.35388 1.13098,-2.55752 0.51299,-1.20367 1.45282,-3.06318 2.08859,-4.13222 0.63576,-1.06904 1.20193,-2.03579 1.25822,-2.14833 0.40518,-0.81042 2.9305,-4.34042 3.2933,-4.60356 0.0776,-0.0563 0.52099,-0.60869 0.98535,-1.22762 2.24418,-2.99104 6.73047,-6.65347 9.763412,-7.97048 0.54793,-0.23803 1.15613,-0.52145 1.35151,-0.63002 0.1955,-0.10851 0.47703,-0.19744 0.62587,-0.19744 0.14886,0 0.81757,-0.33249 1.48612,-0.73886 1.19506,-0.7264 4.9363,-2.32919 6.11133,-2.61811 0.32948,-0.081 1.20416,-0.42257 1.94372,-0.75895 0.73957,-0.33636 1.5288,-0.69428 1.75385,-0.79534 1.27776,-0.57387 6.35034,-0.78104 8.79794,-0.35935 0.56265,0.0969 1.71354,0.25609 2.55752,0.35369 3.17214,0.36684 7.05562,1.40161 9.81222,2.61451 3.23173,1.42201 7.3042,3.4782 8.90895,4.49816 1.26571,0.80447 5.21738,4.42962 5.21738,4.78623 0,0.0747 0.25321,0.4071 0.56265,0.73863 0.51016,0.5465 2.30031,3.32677 3.13083,4.86247 0.18245,0.3376 0.67966,1.21228 1.10467,1.94375 1.37947,2.37423 3.5133,6.61915 3.95969,7.87719 0.39376,1.10977 1.06926,4.33229 1.65117,7.87723 0.43909,2.67487 0.67939,6.29052 0.55076,8.28641 -0.19429,3.01388 -1.26996,8.78047 -1.88454,10.10264 -0.17665,0.38001 -0.34339,0.79433 -0.37063,0.92072 -0.0609,0.2831 -0.27104,0.84135 -0.64469,1.71318 -0.70989,1.65634 -0.86709,2.03939 -1.11254,2.71098 -0.14403,0.39387 -0.4207,0.90027 -0.61504,1.12532 -0.19429,0.22498 -0.60156,0.95839 -0.90493,1.62959 -0.62454,1.38189 -3.8613,5.63382 -4.28872,5.63382 -0.26089,0 -1.77224,1.27747 -3.24424,2.74223 -0.71359,0.71008 -1.56756,1.46468 -1.89773,1.67691 -0.33013,0.21217 -0.69235,0.45997 -0.80489,0.55059 -0.75503,0.60815 -2.71801,1.77158 -2.99713,1.77637 -0.18559,0.002 -0.876,0.29071 -1.53452,0.63896 -0.65847,0.34826 -1.84171,0.89322 -2.62944,1.21107 -0.78773,0.31785 -1.84655,0.81397 -2.35295,1.10253 -1.49382,0.85122 -1.71951,0.91361 -3.82245,1.05706 -1.90561,0.13001 -2.02973,0.11358 -2.41793,-0.31804 -0.38172,-0.4245 -0.54721,-1.37235 -0.50064,-2.86739 0.01,-0.28131 0.0193,-2.95138 0.0217,-5.93347 0.007,-6.20875 -0.17158,-7.89404 -0.93956,-8.90083 -0.28871,-0.37851 -0.52493,-0.88456 -0.52493,-1.12451 0,-0.59829 0.36379,-1.22783 0.70953,-1.22783 0.15732,0 0.34231,-0.17762 0.41125,-0.39499 0.16312,-0.51427 1.05479,-0.70979 2.97127,-0.6517 1.66659,0.0505 3.23055,-0.37087 4.80871,-1.29572 0.85307,-0.49994 3.47375,-3.0392 4.12852,-4.00027 0.19163,-0.28133 0.40675,-0.55755 0.47802,-0.6138 0.85955,-0.67894 3.16244,-5.43342 3.70025,-7.63941 0.34076,-1.39779 0.0974,-4.04585 -0.53099,-5.77843 -0.28211,-0.77775 -0.51294,-1.42633 -0.51294,-1.44129 0,-0.0459 -2.40311,-3.21281 -2.90397,-3.82683 -0.25959,-0.31822 -0.72517,-0.72937 -1.03463,-0.91368 -0.63573,-0.37861 -0.76891,-1.25316 -0.25575,-1.67908 0.16868,-0.14017 0.30691,-0.50123 0.30691,-0.80252 0,-0.30133 0.0841,-0.63532 0.18656,-0.74223 0.31833,-0.3315 0.59252,-2.76639 0.52869,-4.69564 -0.0686,-2.07167 -0.20057,-2.5619 -0.68608,-2.54771 -0.70067,0.0193 -3.17743,1.61291 -5.30056,3.40794 -0.70484,0.59593 -1.45291,1.08349 -1.6624,1.08349 -0.98906,0 -1.69922,-0.28208 -1.87519,-0.74486 -0.10101,-0.26553 -0.25485,-0.48979 -0.34204,-0.49839 -0.53394,-0.0527 -0.95208,-0.18414 -1.05875,-0.33298 -0.23078,-0.32179 -1.25043,-0.6669 -2.614,-0.88473 -0.74955,-0.11962 -1.92277,-0.41043 -2.60714,-0.64595 -2.30793,-0.79423 -2.50442,-0.80237 -6.28545,-0.26046 -1.15131,0.16506 -4.11859,1.25708 -4.57522,1.68385 -1.03432,0.9667 -1.66906,1.29972 -2.21571,1.16251 -0.30055,-0.0754 -0.54643,-0.20903 -0.54643,-0.2968 0,-0.0877 -0.31626,-0.21894 -0.70281,-0.29149 -0.60473,-0.11358 -2.75552,-1.50298 -3.54221,-2.28849 -0.4244,-0.4237 -2.45894,-1.31365 -2.74813,-1.20207 -0.2866,0.11067 -1.05038,2.98013 -1.39264,5.23209 -0.15949,1.04876 -0.14016,1.57152 0.0867,2.35294 0.53095,1.82917 0.53962,2.31106 0.0464,2.583 -0.24354,0.13436 -0.53491,0.24835 -0.64745,0.25357 -0.11261,0.005 -0.2402,0.10149 -0.28358,0.21411 -0.0435,0.11261 -0.39129,0.56944 -0.77299,1.01539 -0.38172,0.44593 -0.90991,1.27457 -1.17382,1.84143 -0.868522,1.86561 -1.003892,2.93345 -0.866542,6.83517 0.165782,4.70893 0.430472,5.80032 1.860912,7.67435 0.39849,0.52203 0.72453,0.99836 0.72453,1.05843 0,0.20686 3.29166,3.36544 3.50732,3.36544 0.11889,0 0.5061,0.12638 0.86073,0.28073 2.16034,0.94068 3.18243,1.33327 3.81601,1.46584 0.3938,0.0824 1.10461,0.33859 1.57959,0.56935 0.77439,0.37623 0.91977,0.38948 1.40787,0.12832 1.097,-0.58708 2.35171,0.0889 2.29881,1.23868 -0.0121,0.28134 0.0384,0.7417 0.1143,1.02301 0.1102,0.40905 -0.0302,0.7139 -0.70102,1.52188 -1.11779,1.34652 -1.17987,1.48134 -1.62962,3.5395 -0.28549,1.3064 -0.32884,1.84861 -0.1636,2.04761 0.16457,0.1984 0.15249,0.40541 -0.0454,0.77521 -0.3049,0.56971 -0.7047,0.64371 -1.13782,0.21049 -0.25553,-0.25548 -0.41478,-0.25273 -1.21819,0.0217 -0.91709,0.31246 -0.92753,0.31077 -1.34313,-0.21749 -0.44286,-0.56297 -0.85771,-0.72055 -0.68036,-0.25838 0.12711,0.33104 -0.20903,0.61697 -1.06124,0.90316 -0.54278,0.18221 -0.72009,0.14693 -1.20611,-0.24069 -0.49933,-0.39815 -0.55257,-0.54592 -0.43073,-1.19545 0.0926,-0.49308 0.27955,-0.78575 0.55893,-0.87439 0.61956,-0.1967 1.7733,0.0752 2.02308,0.47648 0.19985,0.32131 0.2129,0.31884 0.15901,-0.0302 -0.0324,-0.20903 -0.38092,-0.54136 -0.77477,-0.73862 -1.80912,-0.90622 -2.10153,-1.0298 -2.43637,-1.0298 -0.28058,0 -0.33786,0.1317 -0.267,0.61451 0.08,0.54515 0.007,0.64904 -0.64269,0.92071 -0.96859,0.40471 -1.2794,0.38663 -1.76903,-0.10294 -0.51279,-0.51282 -0.51818,-0.91402 -0.0193,-1.41331 0.3521,-0.35207 0.35707,-0.39989 0.0512,-0.48829 -0.18656,-0.0539 -0.49465,-0.16215 -0.68468,-0.24069 -0.27658,-0.11406 -0.37402,0.01 -0.48808,0.617 -0.0923,0.49266 -0.27658,0.79469 -0.52401,0.85938 -0.20976,0.0548 -0.38148,0.18849 -0.38148,0.29675 0,0.25932 -1.282742,-0.0193 -1.480222,-0.32157 -0.22232,-0.34035 -0.19139,0.57236 0.0401,1.18124 0.10802,0.28451 0.591522,0.7669 1.074162,1.07202 0.95015,0.60071 2.73725,1.31758 2.89394,1.16089 0.0532,-0.0532 0.28148,0.002 0.50717,0.12276 0.2257,0.12083 1.59488,0.25331 3.0427,0.29451 2.09427,0.0597 2.82637,0.1607 3.58128,0.49465 0.52191,0.23078 0.99715,0.3715 1.05609,0.31253 0.16505,-0.16505 1.54061,0.74675 1.76818,1.17199 0.12301,0.22982 0.13122,0.56398 0.0217,0.85438 -0.0998,0.26227 -0.24272,0.93582 -0.31787,1.49675 -0.0752,0.56096 -0.27593,1.636 -0.4462,2.38893 -0.20347,0.89985 -0.24444,1.49585 -0.11938,1.73913 0.20759,0.40391 0.18487,0.69733 -0.16698,2.16039 -0.18149,0.75448 -0.32455,0.97187 -0.63979,0.97187 -0.22329,0 -0.57345,0.0897 -0.77799,0.19913 -0.28632,0.15321 -0.49658,0.0834 -0.91383,-0.30321 z M 99.721398,178.72088 c 0.073,-0.33233 0.322332,-0.84527 0.554082,-1.13992 0.31297,-0.39786 0.36197,-0.59513 0.19042,-0.76663 -0.12711,-0.12711 -0.23102,-0.37907 -0.23102,-0.56011 0,-0.18101 -0.12687,-0.5028 -0.282092,-0.71497 -0.27206,-0.37208 -0.30195,-0.37281 -0.8393,-0.0217 -0.30647,0.20082 -0.73193,0.31937 -0.94553,0.26355 -0.21362,-0.0558 -0.38832,-0.0619 -0.38832,-0.0145 0,0.0486 0.32225,0.72816 0.71613,1.51026 0.39385,0.7821 0.7161,1.56241 0.7161,1.73401 0,0.54774 0.37174,0.3345 0.50939,-0.29216 z m -2.39557,-5.23765 c -0.0481,-0.0481 -0.39581,-0.1491 -0.77274,-0.2245 l -0.68534,-0.13702 0.58979,0.77326 0.58978,0.77325 0.18294,-0.5488 c 0.10053,-0.30186 0.14354,-0.58812 0.0955,-0.63619 z m 49.599552,-27.95855 c -0.13122,-0.13122 -0.30662,-0.17086 -0.38963,-0.0877 -0.0831,0.0829 -0.0193,0.23296 0.14403,0.3333 0.38213,0.2361 0.55468,0.0635 0.24553,-0.24553 z m -46.60131,-2.80267 c -0.12832,-0.12832 -0.493632,0.39122 -0.488632,0.69525 0.002,0.11261 0.13751,0.0273 0.301662,-0.1897 0.16409,-0.21677 0.24818,-0.44434 0.18705,-0.50557 z"
       id="path901"
       sodipodi:nodetypes="cssssssssssssssssssssssssssssssssssssssscsssssccssssssscssssssscscssssssssssssssscscssssssscssscsssssscssssssssssssscsccssssssssssscsssssscccsssscssssccsscccssssccsssssss" />
    <path
       style="fill:#000000;stroke-width:0.0846667"
       id="path881"
       d="" />
  </g>
</svg>
