<?xml version="1.0" encoding="UTF-8" standalone="no"?>
<!-- Created with Inkscape (http://www.inkscape.org/) -->

<svg
   width="98.128571mm"
   height="89.996895mm"
   viewBox="0 0 98.128571 89.996895"
   version="1.1"
   id="svg5"
   inkscape:version="1.1.1 (c3084ef, 2021-09-22)"
   sodipodi:docname="fairdata copy 2.svg"
   xmlns:inkscape="http://www.inkscape.org/namespaces/inkscape"
   xmlns:sodipodi="http://sodipodi.sourceforge.net/DTD/sodipodi-0.dtd"
   xmlns="http://www.w3.org/2000/svg"
   xmlns:svg="http://www.w3.org/2000/svg">
  <sodipodi:namedview
     id="namedview7"
     pagecolor="#ffffff"
     bordercolor="#666666"
     borderopacity="1.0"
     inkscape:pageshadow="2"
     inkscape:pageopacity="0.0"
     inkscape:pagecheckerboard="0"
     inkscape:document-units="mm"
     showgrid="false"
     inkscape:zoom="0.49264169"
     inkscape:cx="278.09258"
     inkscape:cy="177.61388"
     inkscape:window-width="2560"
     inkscape:window-height="1387"
     inkscape:window-x="0"
     inkscape:window-y="25"
     inkscape:window-maximized="1"
     inkscape:current-layer="layer1" />
  <defs
     id="defs2" />
  <g
     inkscape:label="Layer 1"
     inkscape:groupmode="layer"
     id="layer1"
     transform="translate(-81.230357,-70.484505)">
    <path
       style="fill:#000000;stroke-width:0.399618"
       d="m 126.62683,159.75384 c -1.87446,-0.66011 -6.27189,-3.62118 -6.28553,-4.2324 -0.004,-0.15774 -0.56158,-0.91617 -1.2402,-1.68543 -1.19536,-1.35514 -1.22765,-1.49195 -1.03781,-4.3958 0.26856,-4.10878 2.62204,-10.95007 4.92261,-14.31003 1.91982,-2.80381 1.91972,-2.8035 1.35796,-3.67277 -0.30868,-0.47725 -0.38844,-0.40086 -0.39364,0.3749 -0.009,1.2576 -1.51688,3.45357 -2.80045,4.0754 -0.5511,0.26701 -2.53057,2.03295 -4.3988,3.92435 -2.63144,2.66407 -4.0981,3.78558 -6.50959,4.97762 -2.9387,1.45261 -3.27112,1.52741 -5.93975,1.33647 -1.55473,-0.11125 -2.94129,-0.38043 -3.08119,-0.59813 -0.13971,-0.21773 -0.6268,-0.51193 -1.08204,-0.65379 -0.982155,-0.30604 -2.969135,-4.22985 -3.168035,-6.25604 -0.075,-0.76247 -0.25298,-2.22326 -0.39552,-3.2462 -0.20296,-1.45577 -0.0798,-2.21209 0.56733,-3.48074 0.455,-0.89146 0.82688,-1.82193 0.82688,-2.06771 0,-0.24576 0.71931,-1.13798 1.59848,-1.98267 0.879125,-0.8447 1.598435,-1.61727 1.598435,-1.71682 0,-0.0995 -0.7591,0.1946 -1.686925,0.65363 -2.55823,1.26572 -7.34506,1.04313 -11.42795,-0.5314 -4.12986,-1.59266 -5.55877,-2.85485 -6.11165,-5.39872 -1.35919,-6.25361 -0.82943,-9.23998 2.15486,-12.14706 2.18683,-2.13023 3.54059,-2.63539 8.22409,-3.06875 2.93922,-0.27196 8.298935,0.84539 9.919895,2.06799 0.69963,0.52771 1.54321,0.95948 1.8746,0.95948 1.26464,0 1.00109,-0.79431 -0.64087,-1.93154 -3.659665,-2.53475 -5.582305,-5.1616 -7.139965,-9.755299 -1.06864,-3.151369 -0.85327,-6.926917 0.50842,-8.91419 1.17455,-1.714063 6.539745,-4.574895 8.579825,-4.574895 1.78161,0 5.79489,2.285307 8.56849,4.879172 1.76638,1.651949 4.4342,6.266566 5.49726,9.508798 0.29358,0.895709 0.85931,1.577526 1.56956,1.891894 0.6107,0.27036 1.40015,0.98886 1.75438,1.59674 0.83707,1.4365 1.36117,4.50199 0.76972,4.50199 -0.2393,0 -0.4347,0.44358 -0.4347,0.98573 0,2.00833 -3.82094,4.60892 -6.77173,4.60892 -0.75202,0 -0.85147,0.16463 -0.6639,1.09895 0.1213,0.60442 0.26479,2.39448 0.3186,3.97791 0.0849,2.50073 -0.0189,3.00287 -0.78832,3.82212 -0.48733,0.51874 -0.88607,1.03557 -0.88607,1.14852 0,0.11295 1.08709,0.0302 2.41569,-0.1837 2.46714,-0.39732 5.5767,0.17591 5.5767,1.02804 0,0.20565 0.33936,0.8512 0.7541,1.43461 1.24921,1.7571 1.8214,4.17772 1.24307,5.25838 -0.43234,0.80742 -0.40921,0.8872 0.18691,0.65836 0.37335,-0.14321 0.75382,-0.2604 0.84571,-0.2604 0.092,0 0.16709,-0.49623 0.16709,-1.10273 0,-1.3137 0.89399,-1.9603 3.51646,-2.54341 4.18546,-0.93061 4.75397,-0.90751 5.90138,0.23986 0.8964,0.89643 1.03587,1.31854 0.86256,2.61063 -0.14726,1.09828 -0.0472,1.60284 0.35116,1.75536 0.31151,0.11951 0.55784,0.76159 0.55784,1.454 0,0.68196 0.26998,1.50968 0.59943,1.83936 0.7794,0.77941 0.76297,2.34005 -0.0378,3.69755 -0.60235,1.01973 -0.57498,1.25968 0.48591,4.25765 0.98368,2.77991 1.12409,3.75142 1.12291,7.77261 0,3.91713 -0.13593,4.89769 -0.9124,6.64171 -0.96696,2.17162 -1.42498,2.49995 -5.26778,3.77603 -2.57418,0.85481 -3.41201,0.84049 -6.09428,-0.10413 z m 4.86555,-6.1136 c 0.38939,-0.3809 0.55704,-1.5971 0.56228,-4.07736 0.009,-4.11595 -0.85492,-7.22096 -2.39162,-8.59833 -0.56171,-0.50345 -1.44339,-1.34036 -1.95927,-1.85981 l -0.93804,-0.94446 -0.38797,0.94446 c -1.02941,2.50533 -2.4045,7.59536 -2.65504,9.82804 -0.27233,2.4266 -0.24779,2.51929 0.9698,3.6567 2.03829,1.90402 5.3972,2.42306 6.79995,1.05076 z m -22.3791,-14.95146 c 1.25252,-0.35593 2.47932,-1.2172 4.29586,-3.016 1.39851,-1.3848 2.54275,-2.7071 2.54275,-2.93843 0,-0.23133 0.24827,-0.66872 0.55133,-0.97197 0.30349,-0.30325 0.68103,-1.31888 0.83953,-2.25697 l 0.28838,-1.70561 -1.93846,0.28489 c -3.48318,0.51192 -5.64088,1.22029 -7.94268,2.60755 -4.30714,2.59582 -5.25456,3.9704 -4.80457,6.97101 l 0.25959,1.7311 2.07765,-0.10369 c 1.14269,-0.057 2.86658,-0.32789 3.83081,-0.60188 z M 98.568525,121.06735 c 0.13593,-0.21981 0.56228,-0.39963 0.94757,-0.39963 0.723365,0 3.143115,-1.01558 5.725275,-2.40294 0.81281,-0.43669 1.80186,-0.79885 2.19791,-0.80476 0.54505,-0.008 0.37995,-0.29693 -0.67858,-1.1881 -0.7693,-0.64754 -1.54506,-1.18219 -1.72399,-1.1881 -0.17888,-0.006 -1.31005,-0.46119 -2.51358,-1.01169 -1.20357,-0.55051 -3.021715,-1.1877 -4.040315,-1.41598 -2.61903,-0.58693 -7.09433,-0.0875 -9.60503,1.07189 -1.94569,0.8985 -2.31903,1.31123 -2.11419,2.33751 0.0425,0.21617 0.13405,0.84559 0.20154,1.39867 0.068,0.55308 0.14349,1.10859 0.16897,1.23447 0.0595,0.29939 3.39639,1.96205 4.76917,2.37638 1.54964,0.46769 6.37512,0.46213 6.66549,-0.008 z m 13.904855,-19.98089 1.03913,-0.99904 -1.02903,-1.798281 c -2.23384,-3.903867 -6.82709,-7.592738 -9.45423,-7.592738 -1.40233,0 -1.4636,0.05772 -1.4636,1.379167 0,1.564924 0.91033,5.327368 1.60137,6.618595 0.25346,0.47382 1.07245,1.116948 1.81971,1.429167 0.74725,0.31222 1.6588,1.02583 2.02573,1.58578 0.36673,0.55995 1.31194,1.34892 2.10007,1.75325 l 1.43291,0.73516 0.44461,-1.056 c 0.2445,-0.58081 0.91203,-1.50558 1.48351,-2.05506 z m 37.98297,46.33911 c -2.87569,-0.56894 -4.7738,-1.81779 -6.49665,-4.27445 -0.88815,-1.26648 -1.80588,-2.52748 -2.03933,-2.80222 -0.23363,-0.27474 -0.29971,-0.49952 -0.14679,-0.49952 0.15245,0 -0.0481,-0.35965 -0.44603,-0.79923 -0.39788,-0.43956 -0.60183,-0.79924 -0.45358,-0.79924 0.14868,0 -0.10903,-0.74295 -0.57243,-1.65101 -1.72054,-3.37262 -2.62586,-8.33943 -1.51999,-8.33943 0.32189,0 0.35776,-0.71644 0.12602,-2.49761 -0.46538,-3.57266 -0.3016,-5.89408 0.47581,-6.75324 0.93402,-1.03209 1.57102,-0.92329 2.10389,0.35937 0.41488,0.999 0.64663,1.09958 2.5461,1.10591 2.99511,0.01 9.60032,3.17206 11.68033,5.59167 2.72861,3.17411 5.08025,8.04998 5.62587,11.66479 0.23836,1.57879 -0.42998,4.11613 -1.08449,4.11613 -0.14254,0 -0.37617,0.4668 -0.51909,1.0373 -0.32851,1.30879 -2.34475,3.22013 -4.42188,4.19172 -1.72866,0.80858 -2.3204,0.8511 -4.8579,0.34908 z m 4.42556,-6.22028 c 1.54737,-0.59378 -0.38042,-7.86459 -2.87102,-10.82888 -1.12508,-1.33905 -1.32294,-1.43715 -1.6909,-0.83827 -1.11479,1.81444 -2.50018,3.02203 -3.97349,3.46344 -1.61487,0.48383 -2.00813,0.96742 -1.19527,1.4698 0.23458,0.14509 0.31529,0.55485 0.17841,0.91054 -0.1364,0.3557 -0.11988,0.51851 0.0378,0.36178 0.1567,-0.1567 1.24124,0.61947 2.41003,1.72488 1.16879,1.10539 3.07317,2.45119 4.23186,2.99064 2.45349,1.14225 2.08817,1.04738 2.87333,0.74607 z m -11.36253,-17.44052 c -0.009,-0.72287 -0.70629,-1.71857 -0.99887,-1.426 -0.13688,0.13706 -0.0142,0.62639 0.27422,1.08737 0.60528,0.9692 0.7331,1.02895 0.72465,0.33861 z m -6.18793,6.09417 c -0.13593,-0.21981 -0.0566,-0.39963 0.17606,-0.39963 0.23269,0 0.42337,0.17982 0.42337,0.39963 0,0.21981 -0.0793,0.39963 -0.17605,0.39963 -0.0968,0 -0.28744,-0.17982 -0.42338,-0.39963 z m 25.50287,-5.04126 c -3.68704,-0.90642 -8.95647,-3.48682 -11.13263,-5.45154 -0.78945,-0.71276 -1.84822,-1.66889 -2.35277,-2.12474 -2.08266,-1.88157 -3.11523,-4.87959 -2.10814,-6.12109 0.3993,-0.49244 0.35682,-0.54618 -0.25205,-0.31774 -0.49502,0.18573 -0.67867,0.11276 -0.56605,-0.2249 0.0916,-0.27489 0.36154,-0.4998 0.59947,-0.4998 0.23836,0 0.58277,-0.16368 0.76595,-0.36376 0.19351,-0.21136 0.12366,-0.24331 -0.16662,-0.0763 -0.85397,0.49144 -0.54949,-0.15113 0.5579,-1.17745 0.58153,-0.53898 1.34583,-1.00811 1.69836,-1.04251 0.35257,-0.0345 1.13508,-0.0975 1.73899,-0.14023 0.60391,-0.043 2.31228,-0.62473 3.7964,-1.29336 2.11555,-0.95314 3.5614,-1.28501 6.69451,-1.53664 7.46763,-0.59975 11.03252,-0.1273 13.77497,1.8255 0.62387,0.44419 1.33129,0.80765 1.5721,0.80765 0.24071,0 0.438,0.21061 0.438,0.46808 0,0.25742 0.27281,0.76964 0.60656,1.13825 0.396,0.43754 0.6791,1.83574 0.81569,4.02765 0.36674,5.88924 -1.56162,9.94795 -5.75789,12.11792 -1.49102,0.77104 -7.55995,0.76259 -10.72266,-0.0151 z m 9.1758,-5.31533 c 1.88215,-0.71559 2.28594,-1.50159 2.28594,-4.44969 V 112.292 l -1.65815,-0.84591 c -1.42451,-0.72675 -2.11413,-0.815 -4.89528,-0.62649 -6.45309,0.4374 -6.44115,0.43079 -6.26212,3.4901 0.0604,1.03531 -0.19776,1.76936 -0.92845,2.63776 l -1.01247,1.20323 0.88442,0.44527 c 2.34918,1.18264 9.40731,1.7348 11.58611,0.9064 z m -30.73189,-13.58929 c -1.67424,-1.02087 -2.14642,-1.73911 -2.29495,-3.49066 -0.0727,-0.85938 -0.33937,-1.94928 -0.5924,-2.422 -0.25299,-0.472713 -0.46019,-1.320874 -0.46019,-1.884797 0,-0.563924 -0.0977,-1.025317 -0.21711,-1.025317 -0.11942,0 -1.16959,0.944097 -2.33352,2.097993 -1.16393,1.153891 -2.36991,2.297021 -2.67996,2.540281 -0.31009,0.24326 -0.98442,0.93748 -1.49861,1.54273 -0.68528,0.80664 -1.05338,0.98196 -1.37868,0.65666 -0.24402,-0.24406 -0.73611,-0.44376 -1.09341,-0.44376 -0.70199,0 -2.38746,-1.59269 -2.38746,-2.25603 0,-0.22344 -0.44839,-0.64621 -0.99642,-0.9395 -0.54803,-0.293293 -1.29358,-0.998035 -1.65678,-1.566093 -0.36343,-0.568058 -1.27446,-1.549419 -2.02493,-2.180799 -0.75041,-0.631375 -2.42565,-2.772376 -3.72258,-4.757776 -2.61326,-4.000346 -3.40649,-6.533155 -3.295,-10.521144 0.0798,-2.857174 1.34191,-6.809717 2.11644,-6.628492 0.41535,0.09723 0.42291,0.0016 0.0378,-0.463966 -0.51565,-0.621351 0.0283,-1.303857 0.70586,-0.885245 0.19493,0.120499 0.32992,-0.07646 0.29972,-0.437675 -0.0576,-0.689879 0.52485,-0.93301 4.74066,-1.979113 3.80858,-0.945055 8.54296,-0.08269 10.44494,1.902556 0.6015,0.627859 1.30481,1.141554 1.5628,1.141554 0.41724,0 1.78672,2.401284 2.621,4.595605 0.97528,2.565059 1.04159,8.307047 0.12178,10.526114 -0.34739,0.838126 -0.42385,1.581713 -0.20532,1.998087 0.19163,0.364754 0.48143,1.648003 0.64408,2.851671 l 0.29594,2.188487 1.66253,-3.30663 c 0.91439,-1.818646 1.80055,-3.168602 1.96928,-2.999904 0.1685,0.168689 0.19446,0.01416 0.0571,-0.343749 -0.17133,-0.445936 0.42055,-1.321694 1.8822,-2.785144 1.17257,-1.174059 2.59963,-2.764905 3.17125,-3.53521 1.45505,-1.960809 4.35769,-3.35383 6.26722,-3.007786 3.35334,0.607696 7.25901,3.015786 7.37436,4.546769 0.033,0.442867 0.19635,0.72144 0.36202,0.619004 0.51074,-0.315666 1.80621,2.727127 2.08322,4.892935 0.21334,1.668379 0.0623,2.605816 -0.80531,4.995225 -0.58744,1.617777 -1.40908,3.322093 -1.82594,3.787375 -1.48039,1.652464 -9.85821,7.070944 -11.19077,7.237804 -4.06879,0.50946 -6.63896,0.42333 -7.7597,-0.26002 z m 12.70581,-11.082607 c 0.40167,-0.363763 0.73078,-0.815282 0.73078,-1.003403 0,-0.188135 0.37146,-1.131887 0.82504,-2.097266 2.08893,-4.444021 -2.1341,-7.933793 -4.58335,-3.787531 -0.38136,0.645658 -1.13041,1.460241 -1.66451,1.810188 -1.18385,0.775653 -1.25078,1.343579 -0.15812,1.343579 1.00623,0 3.08596,2.069896 3.42098,3.404809 0.29358,1.16926 0.45924,1.207505 1.42942,0.329638 z m -30.22931,-5.352875 c 0.34644,-0.670357 0.53278,-1.614454 0.41346,-2.097993 -0.11894,-0.483544 -0.1095,-0.641769 0.0236,-0.351632 0.17463,0.386323 0.40402,0.291831 0.85548,-0.352859 0.5695,-0.813139 0.84477,-0.86316 3.60213,-0.654626 l 2.98547,0.2258 -0.19304,-1.871018 c -0.26196,-2.532988 -1.39988,-6.252416 -2.22515,-7.271484 -0.90088,-1.112446 -3.53647,-1.668737 -5.85446,-1.235691 -1.01804,0.190164 -1.9286,0.423468 -2.02356,0.518381 -0.0949,0.09492 -0.48488,1.36344 -0.86662,2.818933 -0.60316,2.299684 -0.63011,3.01968 -0.20532,5.496218 0.48578,2.832743 1.38789,5.127551 2.23648,5.688959 0.60929,0.403126 0.55067,0.445841 1.25332,-0.912993 z m -0.60972,-0.755679 c 0,-0.206825 0.17794,-0.485903 0.39505,-0.620184 0.22656,-0.139992 0.29358,0.0203 0.15718,0.376034 -0.26573,0.692304 -0.55209,0.818972 -0.55209,0.24416 z"
       id="path836"
       sodipodi:nodetypes="ccsssscssssssssssssssssssssssssssssssssssssssssssssssccscssccscsscsssssssssscssscsssssssssssscccsssccssssssscsscsssssscscsssssscssscssssccssccsscssssssssssssssssssssssssssssssscsssscssscsssssssssssssssscssssssssscssssssssssssccsscsssssscscssccssssssccsssss" />
  </g>
</svg>
