<?xml version="1.0" encoding="UTF-8" standalone="no"?>
<!-- Created with Inkscape (http://www.inkscape.org/) -->

<svg
   width="106.99342mm"
   height="128.51651mm"
   viewBox="0 0 106.99342 128.51651"
   version="1.1"
   id="svg5"
   inkscape:version="1.1.1 (c3084ef, 2021-09-22)"
   sodipodi:docname="linux.svg"
   xmlns:inkscape="http://www.inkscape.org/namespaces/inkscape"
   xmlns:sodipodi="http://sodipodi.sourceforge.net/DTD/sodipodi-0.dtd"
   xmlns="http://www.w3.org/2000/svg"
   xmlns:svg="http://www.w3.org/2000/svg">
  <sodipodi:namedview
     id="namedview7"
     pagecolor="#ffffff"
     bordercolor="#666666"
     borderopacity="1.0"
     inkscape:pageshadow="2"
     inkscape:pageopacity="0.0"
     inkscape:pagecheckerboard="0"
     inkscape:document-units="mm"
     showgrid="false"
     inkscape:zoom="0.47691806"
     inkscape:cx="223.3088"
     inkscape:cy="462.34357"
     inkscape:window-width="1312"
     inkscape:window-height="969"
     inkscape:window-x="0"
     inkscape:window-y="25"
     inkscape:window-maximized="0"
     inkscape:current-layer="layer1" />
  <defs
     id="defs2" />
  <g
     inkscape:label="Layer 1"
     inkscape:groupmode="layer"
     id="layer1"
     transform="translate(-366.94907,-158.40117)">
    <path
       id="path901"
       style="fill:#000000;stroke-width:0.210682"
       d="m 418.94951,158.57274 c -7.96706,-0.17131 -16.49636,4.52597 -18.39602,12.69444 -1.2025,6.57997 -1.86481,13.30357 -0.82624,19.9902 1.46461,6.72099 1.73627,14.72198 -3.79064,19.80927 -7.80234,9.08606 -15.2506,19.96687 -15.02612,32.44715 -1.27297,6.4027 9.42194,2.18508 11.63196,7.76162 4.36388,5.71086 8.54612,11.75025 11.53613,18.30974 4.05373,6.53266 -1.3147,16.60626 -9.33205,12.11518 -6.09293,-2.60471 -12.68363,-4.21267 -19.20227,-5.58551 -9.722,1.19219 -1.32084,-8.93843 -3.78454,-13.48588 -3.08202,-7.59982 9.58588,-3.86278 10.80605,-9.7912 -0.26131,-7.65577 -4.39875,2.39437 -8.28051,1.61375 -5.8556,-0.1782 -7.86442,5.4499 -5.32786,9.97869 -2.46317,6.1205 -3.737,15.61142 5.78858,15.04436 6.4292,1.3868 13.02631,2.30831 18.90954,5.39112 5.1427,2.87659 10.57485,0.72401 14.3982,-2.53391 6.39568,1.62415 14.13908,-1.34292 21.08647,-0.16087 6.85849,-0.76632 12.19766,5.27411 18.70496,4.52813 7.83699,-1.71546 11.95548,-10.61987 20.15027,-11.57449 8.54731,-1.98764 6.06363,-13.08841 -0.91352,-15.08259 -0.67881,-2.51168 -4.36641,-11.99952 -5.15843,-5.15542 -1.10147,6.80342 10.17219,8.5896 7.43803,14.68745 -5.59068,4.13156 -12.9636,5.49964 -17.52522,11.24903 -5.89777,6.65989 -15.34531,-0.38776 -11.86235,-8.14508 4.24667,-6.73889 -1.39832,-14.06351 0.8617,-20.62888 2.94961,-2.31178 4.30432,5.37774 8.74858,4.35042 7.27275,1.56576 12.75903,-5.44414 13.66422,-11.96024 1.81209,-7.68451 -1.35466,-15.07546 -4.38714,-21.97478 -2.93456,-11.5473 -14.34561,-18.22083 -17.63221,-29.6104 -2.47676,-6.40974 -1.05095,-13.51736 -3.81372,-19.86474 -2.50531,-7.91713 -9.8979,-14.52279 -18.46585,-14.41656 z m 11.44272,9.07903 c 3.70414,1.96617 -4.17203,4.26542 -0.64146,0.93677 0.0233,-0.34024 0.16674,-0.96195 0.64146,-0.93677 z m -3.05512,2.43603 c 2.65775,0.2657 -1.01783,0.4638 0,0 z m -2.12493,9.42371 c 2.70707,-0.0136 3.68937,2.78117 3.52281,4.45399 0.16416,2.54625 -1.3631,6.70625 -0.85468,1.53117 -0.56993,-1.07644 -0.26476,-2.61542 -0.94727,-3.67368 -3.18674,-0.61324 -6.59447,1.07504 -6.17999,4.65966 -1.55147,-2.89642 1.481,-6.70037 4.45913,-6.97114 z m -15.88585,0.23409 c 2.68182,0.46139 4.32652,8.68544 1.01433,3.26459 -6.41061,-2.98185 -3.80842,13.34557 1.72924,7.14809 6.27125,-1.1229 12.07276,-1.07144 18.02957,2.25553 1.93423,3.98215 -1.85326,9.55987 2.90645,13.23767 2.89121,5.2487 1.84177,11.84978 7.40427,15.79818 3.94805,5.97976 0.1383,13.49771 2.50602,19.72821 6.34478,5.55711 9.2644,-4.1949 7.86139,-9.13363 -0.21928,-4.85492 -3.07361,-10.44579 -3.62331,-14.36783 3.78814,4.2176 4.5358,10.53574 4.38603,15.97216 -1.59593,3.27433 0.86948,7.34803 1.07438,9.17856 -4.17416,0.63289 -9.96543,1.09442 -10.73407,5.38002 -6.59139,1.53661 -4.17791,9.47696 -2.77642,13.92282 -0.11419,4.00263 -1.46755,13.13404 -2.61136,14.61857 -2.69798,-4.06274 3.43091,-9.87186 0.27606,-12.42977 -4.86192,3.37594 -9.75219,8.12704 -16.35283,5.91231 -4.17253,-1.77105 -10.9808,-0.15906 -13.56448,-3.7274 2.31479,-6.6005 -3.84743,-11.86819 -8.02753,-16.0192 -4.40747,-2.09797 -12.30917,-9.40961 -9.76621,-12.3415 -0.76,6.22791 6.48829,7.68421 5.37168,0.76792 0.72641,-6.66006 2.34867,-13.91358 6.86689,-18.80377 0.55513,-4.87191 0.55792,-12.1673 4.96387,-14.66896 4.23687,4.36304 9.54225,6.75271 14.46169,1.892 2.77321,-1.64189 11.99355,-4.37427 6.85711,-7.92039 -2.65265,0.0742 -4.75531,1.40811 -1.46326,-0.58436 3.41077,-1.59722 2.86161,-5.1696 -1.13638,-3.57978 -5.67883,0.80302 -13.09285,5.03567 -17.76387,-0.0364 -0.42345,-5.00595 -3.9471,-11.24151 1.16951,-15.2578 l 0.94125,-0.20582 z m 18.00768,2.54972 c 0.16017,0.19645 0.70739,0.36974 0,0 z m 0.17105,1.24953 c -0.0234,0.046 -0.0165,0.22856 0,0 z m 0.007,0.24857 c 0.006,0.0599 0.13273,0.16553 0,0 z m 0.13591,0.16071 c -0.43633,0.33552 -0.0336,0.16102 0,0 z m -17.5798,4.1274 c 0.85968,0.48488 -0.74458,0.58603 0,0 z m 18.26193,0.14883 c 0.38143,1.05464 -1.08863,1.21655 0,0 z m -8.86922,2.89284 c -3.48229,3.43672 5.27343,1.96605 0,0 z m -7.92148,0.86972 c -3.2566,2.84493 4.37139,1.23235 0,0 z m -7.32979,7.03523 c 1.26118,0.31214 -0.0636,0.66464 0,0 z m 29.03027,0.50023 c 0.82396,0.34698 -0.51488,0.50918 0,0 z m -24.56388,0.1943 c 3.54072,1.79307 8.23099,1.86236 11.29701,1.53838 -4.12565,4.43682 -9.42765,4.22697 -11.29701,-1.53838 z m 28.93467,0.75809 c 4.58588,1.09427 -1.46356,5.39375 -1.12609,0.39304 l 0.28702,-0.21774 z m -44.74972,21.17029 c 0.28717,0.51799 -0.74693,0.78642 0,0 z m -0.8599,2.11511 c 0.39599,2.75793 -2.22932,4.71998 -0.46181,0.55582 z m -3.12849,8.04757 c 0.51168,0.26097 -0.1681,0.89587 0,0 z m 44.70683,38.02559 c 0.46085,0.43024 -0.6478,0.61649 0,0 z m -25.00519,1.00717 c 4.3017,0.46573 -0.34454,9.31719 0.0842,2.57814 -0.14886,-0.49667 -1.31733,-2.37426 -0.0842,-2.57814 z m 22.55883,8.10907 c 0.82375,0.34603 -0.51466,0.50891 0,0 z m 5.87096,0.80925 c 1.09873,0.63035 -0.54199,0.84393 0,0 z" />
    <path
       style="fill:#000000;stroke-width:0.0846667"
       id="path881"
       d="" />
  </g>
</svg>
