<?xml version="1.0" encoding="UTF-8" standalone="no"?>
<!-- Created with Inkscape (http://www.inkscape.org/) -->

<svg
   width="147.75552mm"
   height="111.21358mm"
   viewBox="0 0 147.75552 111.21358"
   version="1.1"
   id="svg5"
   sodipodi:docname="datalad copy 5.svg"
   inkscape:version="1.1.1 (c3084ef, 2021-09-22)"
   xmlns:inkscape="http://www.inkscape.org/namespaces/inkscape"
   xmlns:sodipodi="http://sodipodi.sourceforge.net/DTD/sodipodi-0.dtd"
   xmlns="http://www.w3.org/2000/svg"
   xmlns:svg="http://www.w3.org/2000/svg">
  <sodipodi:namedview
     id="namedview7"
     pagecolor="#ffffff"
     bordercolor="#666666"
     borderopacity="1.0"
     inkscape:pageshadow="2"
     inkscape:pageopacity="0.0"
     inkscape:pagecheckerboard="0"
     inkscape:document-units="mm"
     showgrid="false"
     inkscape:zoom="0.83490186"
     inkscape:cx="-28.147021"
     inkscape:cy="-331.17665"
     inkscape:window-width="1606"
     inkscape:window-height="1319"
     inkscape:window-x="0"
     inkscape:window-y="25"
     inkscape:window-maximized="0"
     inkscape:current-layer="layer1" />
  <defs
     id="defs2" />
  <g
     inkscape:label="Layer 1"
     inkscape:groupmode="layer"
     id="layer1"
     transform="translate(-19.191802,-89.173975)">
    <path
       id="path836"
       style="fill:#000000;stroke-width:0.662702"
       transform="scale(0.26458333)"
       d="m 614.66211,337.04688 c -0.15128,-0.0501 -0.23288,0.0651 -0.24023,0.34765 -0.0145,0.59274 -0.35023,0.6767 -1.07813,0.26953 -2.38723,-1.33594 -6.89453,1.21667 -6.89453,3.9043 0,0.73867 -0.30192,1.1537 -0.67383,0.92383 -0.71902,-0.44437 -6.61632,4.44422 -14.22266,11.78906 -2.79001,2.69417 -5.60771,4.77974 -7.03906,5.21094 -4.69867,1.41536 -5.85783,7.042 -2.01367,9.77929 0.9874,0.70303 4.16225,1.76779 7.05469,2.36524 2.89255,0.59744 5.39128,1.21689 5.55078,1.37695 0.49009,0.49003 -1.26594,5.63722 -3.97461,11.6543 -1.4163,3.14627 -2.57422,6.33102 -2.57422,7.07812 0,0.74714 0.84524,1.96124 1.87891,2.69727 1.54994,1.10373 2.85642,1.32673 7.45507,1.27344 3.65545,-0.0422 6.48878,0.29478 8.22657,0.98047 h 0.004 c 2.6668,1.05218 4.29394,0.95203 7.94141,-0.49024 l 1.97852,-0.78125 0.008,-7.35547 c 0.005,-4.045 0.23291,-7.57591 0.5039,-7.84765 0.27111,-0.27171 1.016,-0.0264 1.65625,0.54492 1.67857,1.49832 6.64027,2.6638 9.25196,2.17383 1.61076,-0.30218 2.44354,-0.92461 2.95703,-2.20703 0.79207,-1.98078 0.73444,-8.87612 -0.0781,-9.4043 -0.28459,-0.18489 -0.72251,-2.12559 -0.97461,-4.3125 -0.51344,-4.45473 -1.56973,-8.2832 -2.28515,-8.2832 -1.12313,0 -5.99611,-12.51771 -6.06641,-15.57422 -0.0385,-1.74635 -2.21557,-4.30664 -3.66211,-4.30664 -0.6305,0 -1.54284,-0.52232 -2.02734,-1.16016 -0.28878,-0.38043 -0.51083,-0.59655 -0.66211,-0.64648 z M 91.841797,348.13086 c -6.121247,0 -7.99787,2.26504 -11.261719,13.5918 -2.260573,7.8451 -2.837099,9.07059 -5.916016,12.54492 -2.289202,2.58323 -2.676804,4.44795 -1.425781,6.86719 1.346646,2.60417 4.59587,3.19803 9.875,1.80664 4.915692,-1.29563 5.103516,-1.28232 5.103516,0.36132 0,1.30613 2.089879,8.15901 4.408203,14.45313 l 1.070312,2.9043 4.337891,-0.40625 c 2.385407,-0.22277 4.508547,-0.65159 4.716797,-0.95508 0.20852,-0.30342 2.46617,-1.09026 5.01758,-1.74805 6.20678,-1.60025 9.35896,-3.67492 10.19726,-6.71094 0.79454,-2.87765 0.49262,-3.82475 -1.56836,-4.92773 -2.10402,-1.12604 -5.11872,-6.8969 -4.12304,-7.89258 0.40101,-0.401 1.10733,-0.72851 1.56836,-0.72851 1.24218,0 5.31528,-3.77557 5.71289,-5.29493 0.45501,-1.73981 -1.87326,-4.64648 -3.72266,-4.64648 -3.218,0 -20.324218,-13.54713 -20.324218,-16.0957 0,-1.27262 -2.172119,-3.12305 -3.666015,-3.12305 z m 499.570313,56.45117 c -5.51932,0.0892 -8.91816,3.66209 -9.27344,9.75 -0.20092,3.44145 -0.0498,3.95035 1.67578,5.60352 1.04376,0.99998 2.76101,2.07681 3.81641,2.39257 3.31381,0.99168 4.66757,0.75642 5.96875,-1.04101 0.68897,-0.95157 1.59334,-2.09206 2.00977,-2.5332 1.52672,-1.61741 4.28474,-7.81609 4.08593,-9.1836 -0.32326,-2.22512 -4.99898,-5.04157 -8.2832,-4.98828 z m -479.55469,3.7832 c -2.53335,0.18852 -4.92716,1.52637 -5.43359,3.5586 -0.37686,1.51226 1.49694,7.32935 4.37305,13.57812 1.82659,3.96892 2.98412,4.32466 7.14648,2.20117 3.35017,-1.70897 4.11816,-2.76563 4.24023,-5.83593 0.12972,-3.25293 -3.52959,-10.88645 -5.99218,-12.5 -1.24283,-0.81431 -2.81398,-1.11506 -4.33399,-1.00196 z m 466.55469,21.12891 c -1.67717,-0.0388 -3.05078,0.91809 -5.24023,3.3418 -5.67965,6.28671 -4.80371,13.72859 1.79882,15.27344 1.45765,0.34097 2.92282,0.64775 3.25391,0.68554 0.33124,0.0366 2.0261,-1.39386 3.76562,-3.17969 4.15076,-4.26111 5.75382,-9.00566 4.04883,-11.97656 -1.12985,-1.96857 -2.06464,-2.57911 -5.80664,-3.79101 -0.66797,-0.21634 -1.26125,-0.34059 -1.82031,-0.35352 z m -452.10742,7.43945 c -1.80454,0 -6.55989,4.40151 -6.71485,6.21485 -0.1762,2.06422 1.50218,6.00913 4.08594,9.60547 1.34238,1.86833 2.78596,3.38841 3.20703,3.38086 2.77108,-0.0571 6.25017,-1.47223 7.51563,-3.05665 1.81341,-2.27023 1.48507,-4.30697 -1.58399,-9.8125 -2.56996,-4.61014 -4.34069,-6.33203 -6.50976,-6.33203 z m 438.2207,17.78321 c -0.30746,0.0189 -0.61273,0.0624 -0.91601,0.13086 -1.28028,0.28875 -2.40104,0.62521 -2.49024,0.74804 -1.7483,2.41168 -3.62656,5.31786 -4.57617,7.08203 -0.65874,1.22374 -1.80216,2.86593 -2.54102,3.64844 -0.73897,0.78236 -1.81142,2.3167 -2.38281,3.41016 -0.57135,1.09345 -2.26035,3.51725 -3.75391,5.38672 -1.49351,1.86943 -3.31228,4.23668 -4.04101,5.25976 -0.72892,1.02316 -2.01708,2.6927 -2.86328,3.71094 -0.8459,1.01824 -1.3468,2.16391 -1.11133,2.54492 0.23546,0.38079 0.18328,0.61434 -0.11719,0.51758 -0.4255,-0.13708 -8.376,7.53124 -12.47656,12.03516 -0.36446,0.40032 -1.40715,1.40396 -2.31836,2.23047 -0.91124,0.82638 -3.4459,3.5499 -5.63281,6.05078 -2.18691,2.50091 -4.42362,5.04276 -4.97071,5.64843 -0.54674,0.60567 -2.7089,2.07336 -4.80468,3.26172 -2.09579,1.18832 -3.81055,2.39969 -3.81055,2.69336 0,0.29352 -0.96972,0.91303 -2.1543,1.37695 -1.18454,0.46417 -3.78446,1.76935 -5.77929,2.89844 -1.99469,1.12914 -4.50434,2.36745 -5.57618,2.75391 -1.09009,0.39296 -2.46438,1.66294 -3.11718,2.88086 l -1.16797,2.17773 3.15234,2.79883 c 3.72643,3.30962 5.38726,3.4227 10.33399,0.70117 1.82248,-1.00267 4.80454,-2.58253 6.62695,-3.50976 8.86602,-4.5111 13.77549,-8.66123 27.17187,-22.97657 4.0094,-4.28435 9.00006,-9.51467 11.0918,-11.62304 3.64698,-3.67593 8.45703,-9.53138 8.45703,-10.29492 0,-0.20047 1.26055,-1.70827 2.80078,-3.35157 1.54024,-1.6433 3.85214,-4.58033 5.13672,-6.52539 1.28451,-1.94513 3.60327,-5.37528 5.15235,-7.62304 1.54907,-2.24773 2.8164,-4.49468 2.8164,-4.99415 0,-0.49915 0.25668,-1.06864 0.57227,-1.26367 0.80542,-0.49769 0.37354,-3.55175 -0.6836,-4.83203 -1.66746,-2.0197 -3.87511,-3.08538 -6.02734,-2.95312 z m -422.03906,6.61523 c -2.91992,0.1791 -7.16125,3.87792 -7.19531,6.73828 -0.0446,3.51005 3.37565,8.45496 10.83398,15.65821 4.0523,3.91377 11.84132,11.48349 17.30859,16.82226 5.46732,5.33885 11.87916,11.32667 14.24805,13.30469 2.36901,1.97805 5.20124,4.59987 6.29492,5.82617 2.20978,2.47771 12.18679,10.61527 17.07617,13.92969 4.24937,2.88057 10.63069,6.01936 15.04688,7.39844 4.15782,1.29841 5.05258,0.97457 8.51758,-3.08204 1.70785,-1.99944 1.88839,-2.59228 1.42578,-4.64453 -0.29193,-1.29365 -0.63107,-2.43424 -0.75391,-2.53515 -1.02569,-0.84238 -6.69167,-2.43851 -7.52344,-2.11914 -0.59171,0.22654 -0.88132,0.12638 -0.6621,-0.22852 0.21543,-0.34859 -1.78072,-1.72298 -4.4375,-3.05273 -6.89503,-3.45117 -17.04491,-11.26741 -26.75391,-20.60352 -1.45021,-1.39453 -3.67069,-3.33019 -4.93555,-4.30273 -2.3735,-1.8251 -11.95803,-11.09061 -15.67187,-15.15039 -1.15767,-1.2655 -5.23909,-5.36219 -9.07031,-9.10547 -3.96586,-3.87462 -7.87314,-8.3925 -9.07227,-10.48828 -1.15843,-2.02481 -2.74347,-3.92156 -3.52149,-4.21485 -0.34679,-0.13082 -0.73716,-0.17597 -1.15429,-0.15039 z m 29.37109,43.9082 c 0.0859,0.003 0.15787,0.0271 0.20899,0.0781 v 0.002 c 0.20394,0.20406 -0.16285,0.57358 -0.81641,0.82227 -0.94484,0.35943 -1.02072,0.28341 -0.37109,-0.3711 0.33709,-0.33967 0.72087,-0.53883 0.97851,-0.53125 z m 185.48438,0.14454 c -1.39368,0.0502 -2.95083,0.29678 -4.66016,0.73828 -5.08634,1.31369 -7.60541,1.47452 -12.75781,0.81836 -4.22691,-0.53825 -8.18137,0.64184 -8.96094,2.67382 -0.2471,0.64388 -1.26508,1.96914 -2.26367,2.94532 l -1.81641,1.77539 0.59961,6.19726 c 0.32958,3.40812 0.60963,8.39684 0.61719,11.08594 l 0.0156,4.88867 -2.8164,-0.54492 c -1.549,-0.30025 -6.99097,-0.57536 -12.09375,-0.60937 -5.10286,-0.035 -12.7809,-0.47103 -17.0625,-0.96875 l -7.78516,-0.9043 -1.32812,1.5293 c -0.73028,0.84181 -1.32618,1.91251 -1.32618,2.3789 10e-6,0.46643 -0.58302,1.03255 -1.29296,1.25781 -1.91672,0.60839 -2.28531,2.53391 -2.08008,10.86524 l 0.18554,7.54101 -1.51367,-1.41211 c -0.83266,-0.77566 -1.86911,-1.41015 -2.30273,-1.41015 -0.4334,0 -1.14647,-0.43144 -1.58399,-0.95899 -0.43785,-0.5275 -2.10341,-1.45815 -3.70117,-2.06836 -2.55526,-0.97544 -3.27097,-1.00151 -5.95508,-0.20898 -3.98615,1.17695 -5.61863,2.75251 -5.60351,5.41602 0.0174,3.64161 0.88476,4.24917 9.11328,6.36718 l 5.47852,1.41016 2.57812,-1.31641 c 1.41797,-0.72332 2.73088,-1.69482 2.91797,-2.16015 0.18686,-0.46534 0.37211,0.4946 0.40234,2.13476 0.0898,4.36366 0.57893,5.58846 2.56836,6.4336 2.8642,1.21682 11.28943,2.30882 17.0625,2.21093 2.93636,-0.0498 8.71642,0.51626 12.84571,1.25977 5.00069,0.90006 8.69439,1.21372 11.0625,0.93555 4.03725,-0.47452 3.89615,-0.73983 2.89843,5.40625 -0.35614,2.1925 -0.72708,6.71624 -0.82422,10.05273 -0.064,2.20248 -0.0105,3.21123 0.0742,4.22656 0.30113,0.15274 0.60696,0.27924 0.91602,0.35938 0.60774,0.15761 1.24373,0.1768 1.86523,0.26562 1.20555,0.17221 1.95191,0.69012 2.28516,1.28711 0.41642,-0.25079 0.91939,-0.45987 1.62891,-0.5039 10.03063,-0.62288 20.07446,-0.71395 30.12109,-0.65625 -0.0685,-0.10295 -0.13378,-0.20148 -0.20899,-0.3125 -0.13913,-0.2055 0.26072,-0.42563 0.41602,-0.61914 0.3775,-0.47059 0.88588,-0.81954 1.35156,-1.20313 0.22727,-0.18717 0.45683,-0.37189 0.6875,-0.55469 -0.0997,-0.62793 -0.20651,-0.82778 -0.28125,-1.55078 -0.19933,-1.9305 -0.63167,-4.70415 -0.95898,-6.16211 -0.32784,-1.45795 -0.60377,-3.86273 -0.61133,-5.3457 l -0.0156,-2.69727 4.79687,0.61915 c 3.42505,0.44174 6.05911,0.38072 9.20508,-0.2129 3.07325,-0.57978 6.98494,-0.68397 12.92969,-0.3457 15.46155,0.87991 22.31939,0.70268 24.58007,-0.63281 0.36165,-0.21363 0.67068,-0.47462 0.97071,-0.74219 -0.24913,-3.38518 -0.49163,-6.77071 -0.84571,-10.14648 -0.12571,-1.19855 -0.0336,-2.21922 0.21289,-3.05664 -0.21067,-1.74644 -0.16267,-4.65353 0.0742,-11.22071 l 0.4375,-12.08789 -1.00195,-1.00195 c -2.71785,0.06 -5.43568,0.1007 -8.1543,0.125 -0.47359,0.22836 -0.97308,0.46026 -1.48828,0.62305 -2.51603,0.79506 -22.75538,1.15703 -34.42773,0.61523 l -6.95703,-0.32422 -0.17578,-4.2539 c -0.0971,-2.34021 -0.44746,-5.74595 -0.7793,-7.56836 -0.33094,-1.82245 -0.57711,-6.71311 -0.54688,-10.86719 0.0485,-6.59724 -0.0972,-7.66367 -1.1582,-8.43945 -1.36521,-0.9983 -3.2358,-1.45864 -5.55859,-1.375 z m -17.96875,10.95507 2.76172,0.4668 c 1.51906,0.25652 4.20567,0.4668 5.96875,0.4668 1.76315,0 3.20507,0.28106 3.20507,0.625 0,0.34393 0.27124,0.45838 0.60157,0.2539 0.32655,-0.20424 0.44924,0.20751 0.26367,0.91602 -0.18475,0.70851 0.0553,3.91474 0.53515,7.125 0.86531,5.78719 1.14422,19.10766 0.54688,21.22266 0.86333,-0.0133 1.64615,0.0348 2.11328,0.0488 2.01482,0.0171 4.0263,0.006 6.03711,-0.0195 0.25638,-0.022 0.51315,-0.0429 0.76953,-0.0644 v 0.002 c 0.34486,-0.029 0.67489,-0.0417 0.99024,-0.0371 0.14235,0.002 0.22701,0.0599 0.36328,0.0684 2.16216,-0.0413 4.32401,-0.10032 6.49023,-0.17968 4.49914,-0.16473 7.16241,-0.4009 11.32422,-0.4043 0.59454,-4.9e-4 1.21931,0.004 1.88477,0.0137 0.8039,0.0121 1.59737,0.17681 2.39648,0.26563 1.11017,0.12334 1.84477,0.55014 2.23047,1.07226 2.79307,0.062 5.58548,0.14552 8.38086,0.11719 1.42851,-0.0144 2.8591,10e-4 4.28515,-0.084 0.53912,-0.0321 1.06497,-0.1768 1.59766,-0.26562 0.56896,-0.0948 1.10185,-0.13754 1.5957,-0.13477 0.78905,0.004 1.47685,0.12689 2.06641,0.33399 2.74111,-0.18204 2.98159,0.18325 2.82813,3.76367 -0.0501,1.16609 -0.11399,3.2755 -0.16797,5.11133 0.14072,0.53309 0.12101,1.08668 -0.0508,1.61523 l -0.0859,3.40625 -1.08008,0.10352 c -0.28369,0.6619 -1.05291,1.25616 -2.36328,1.44336 -0.62151,0.0888 -1.23946,0.21693 -1.86524,0.26758 -3.28323,0.26508 -6.57044,0.46576 -9.85742,0.67968 -10.50009,0.683 -21.01337,1.23342 -31.53711,1.16992 -0.72419,-0.0453 -1.44903,-0.0732 -2.17187,-0.13671 -0.82365,-0.0725 -1.09567,-0.36051 -1.20313,-0.77735 -1.22851,0.13725 -2.45178,0.31444 -3.67578,0.48828 -0.58623,1.79447 -0.78493,4.43748 -0.23047,4.99219 0.19892,0.19869 0.40223,3.56978 0.45703,7.49023 l 0.0937,7.12891 -2.92968,1.56641 -0.002,0.002 c -1.61155,0.862 -3.23312,1.53093 -3.60351,1.48633 -2.92328,-0.35112 -8.52529,-1.25715 -8.66211,-1.40039 -0.0931,-0.0974 0.092,-2.71044 0.41211,-5.8086 0.31937,-3.09811 0.42518,-6.1435 0.23242,-6.76757 -0.19166,-0.62412 -0.0402,-1.71346 0.33789,-2.41993 1.13129,-2.11378 -0.59745,-6.03964 -3.22266,-7.43359 -3.45441,-0.003 -6.9027,0.095 -10.32421,0.64648 -0.10692,-0.0312 -0.19112,-0.0552 -0.29102,-0.084 -0.17956,0.006 -0.39068,-0.001 -0.61719,-0.0156 -0.64381,0.11017 -1.23166,0.11161 -1.77344,0.24804 -2.27349,0.57241 -3.17203,0.55248 -3.9375,-0.082 -0.79865,-0.66266 -0.99439,-0.64467 -1.00195,0.0879 -0.007,0.63583 -0.15556,0.67961 -0.49609,0.14844 -0.89159,-1.3914 -6.03145,-2.27096 -14.67383,-2.51172 -4.70411,-0.131 -9.07379,-0.52993 -9.71094,-0.88672 -0.98268,-0.54984 -1.20279,-1.93095 -1.44922,-9.09765 l -0.29101,-8.45118 2.21484,0.40235 c 4.97416,0.90572 15.07492,1.81198 19.11524,1.71484 1.09908,-0.0264 2.80259,0.12263 4.38085,0.1836 0.10265,-0.26835 0.35036,-0.35364 0.81641,-0.37891 3.3e-4,-0.003 0.002,-0.006 0.002,-0.01 0.0116,-0.12082 0.0923,-0.16668 0.20899,-0.17187 0.25667,-0.0114 0.68803,0.17187 0.95508,0.17187 h 2.46484 17.05859 c 0.009,-1.89786 -0.0927,-7.52337 -0.29882,-14.88867 z m -12.55469,48.3418 c 0.4747,-0.0152 0.78936,-0.0998 0.97656,-0.23828 -0.42535,0.0483 -0.77624,0.0995 -1.22265,0.16992 0.0934,0.0264 0.14579,0.0395 0.24609,0.0684 z m 139.67383,-27.24805 c -2.70124,0.0885 -5.52558,0.37508 -6.5,0.79493 -3.32882,1.43429 -7.27955,6.24263 -7.28711,8.86328 -0.003,1.16224 3.84364,5.08404 5.85351,5.96875 2.31357,1.01835 6.93951,-0.13426 10.56446,-2.63086 7.68846,-5.29523 9.14539,-8.07612 5.61523,-10.72266 -1.00233,-0.75152 -2.1216,-1.59657 -2.48633,-1.87891 -0.48058,-0.37197 -3.05852,-0.48303 -5.75976,-0.39453 z m -28.45508,4.20703 c -5.39841,10e-6 -10.0178,4.10733 -10.72461,9.53711 -0.29344,2.25457 -0.0558,2.86714 1.88086,4.86133 1.21893,1.25503 3.50336,2.67203 5.07617,3.14844 3.25179,0.98506 5.75188,0.69597 9.29492,-1.07617 4.95984,-2.48081 5.95474,-4.72969 4.39258,-9.94336 -0.99983,-3.33717 -5.85001,-6.52735 -9.91992,-6.52735 z m -195.75,2.17188 c -0.84883,0.0914 -1.51256,0.44203 -2.61133,1.12109 -3.89507,2.40726 -4.68631,5.31537 -2.44531,8.99024 0.89941,1.47485 2.44606,2.47757 5.79687,3.76367 2.51324,0.96457 5.16584,1.87043 5.89454,2.01367 2.07838,0.40823 6.44956,-1.54571 8.43945,-3.77344 0.99658,-1.1156 1.8147,-2.23297 1.82226,-2.48242 0.0764,-3.27413 -6.53396,-7.88745 -13.17187,-9.19336 -1.84216,-0.36245 -2.87579,-0.53085 -3.72461,-0.43945 z m 123.95117,48.88477 c -0.14708,-0.004 -0.34711,0.0979 -0.69726,0.26171 0.0714,0.0911 0.14069,0.1788 0.20898,0.26368 -0.0604,-0.0259 -0.13665,-0.0318 -0.22852,-0.0117 0.0941,0.11079 0.20168,0.3642 0.44532,0.76758 0.0111,-0.22362 -10e-4,-0.41403 -0.0488,-0.55079 0.21631,0.26333 0.40954,0.48611 0.58984,0.69141 0.22075,0.002 0.44136,-0.002 0.66211,0 -0.56406,-1.03434 -0.65405,-1.41477 -0.93164,-1.42187 z m -35.97851,4.98632 c 0.008,0.007 0.0154,0.0149 0.0234,0.0215 0.002,-0.006 0.0112,-0.01 0.0137,-0.0156 -0.003,-4.7e-4 -0.006,-6e-4 -0.01,-0.002 -0.0113,-0.002 -0.0161,-0.002 -0.0273,-0.004 z m 84.08203,0.77539 c -0.90082,10e-4 -1.77357,0.45996 -2.45313,1.375 -0.60087,0.80916 -4.68828,1.01549 -24.84961,1.25586 -27.24986,0.32478 -27.10654,0.31868 -28.37695,1.13086 -0.55287,0.35037 -0.78052,0.35202 -0.56055,-0.008 0.21657,-0.35025 -6.14153,-0.62406 -15.30468,-0.6543 -31.61923,-0.11195 -48.82809,-0.44278 -49.47461,-0.95117 -0.97902,-0.76943 -3.08123,-0.92579 -5.04493,-0.375 -1.25703,0.35263 -1.93999,1.17458 -2.48632,2.99805 -1.01666,3.39462 -0.91427,7.39329 0.22851,8.90234 0.71777,0.94866 0.87534,2.89352 0.66406,8.28321 -0.27443,6.99394 0.37414,11.54567 1.76953,12.4082 0.40022,0.24733 1.95944,0.4431 3.4629,0.43555 1.50342,-0.007 3.07264,0.26077 3.48828,0.59375 0.42311,0.33925 7.99682,0.53003 17.23047,0.43554 25.36849,-0.25999 40.09367,0.048 50.60351,1.0586 6.15432,0.59176 15.08942,0.84233 24.85156,0.69531 25.2384,-0.37992 28.73368,-0.79408 29.85352,-3.53711 1.39744,-3.42312 2.29076,-10.68042 2.2832,-18.63281 -0.004,-9.33563 -0.31173,-10.6563 -3.25976,-14.04688 -0.79461,-0.91209 -1.72419,-1.36834 -2.625,-1.36719 z m -118.69922,14.0879 16.07031,0.48632 c 19.48433,0.58893 44.67374,0.6351 75.84766,0.13868 l 23.32812,-0.37305 0.19922,2.35937 c 0.22927,2.69813 -0.64365,6.81027 -1.57031,7.39258 -0.34413,0.21627 -2.09516,0.44627 -3.89063,0.50977 -1.79542,0.0635 -3.94093,0.36289 -4.76757,0.66601 -2.96731,1.08786 -33.94327,0.42495 -43.25391,-0.92578 -4.58438,-0.66482 -27.27324,-0.90435 -31.67578,-0.33398 -2.62451,0.34001 -10.14091,0.7592 -16.70117,0.92968 -6.55991,0.17067 -12.49684,0.53324 -13.19336,0.80664 -1.09028,0.42823 -1.20753,0.27421 -0.83789,-1.10546 0.23569,-0.88162 0.42994,-3.61536 0.4375,-6.07618 z m 126.21289,29.83007 c -0.52672,-0.005 -0.92111,0.19002 -1.07227,0.61133 -0.45845,1.27877 -18.09937,2.30937 -41.3164,2.41406 -13.1254,0.0593 -24.79278,0.3111 -25.92774,0.56055 -4.30511,0.94564 -6.43326,6.18225 -4.20508,10.3457 1.04538,1.95341 3.09227,15.3429 2.88477,18.86719 -0.52157,8.84255 -0.40527,11.55818 0.65039,15.10156 1.64557,5.52337 2.78798,6.44516 7.52148,6.06641 2.11303,-0.16898 6.39826,-0.44226 9.52344,-0.60742 3.12499,-0.16509 6.13843,-0.47711 6.69727,-0.69141 1.56654,-0.60106 2.78494,-5.11894 2.26367,-8.39844 -1.40311,-8.83392 -1.43332,-8.48828 0.75,-8.48828 2.2021,0 7.20062,3.45629 9.33594,6.45508 0.71852,1.0091 1.67416,4.0689 2.12109,6.80078 0.75697,4.62384 0.71237,5.2183 -0.63476,8.61133 -0.79586,2.0047 -2.32214,4.74632 -3.39258,6.0918 -1.07044,1.3454 -1.94727,2.69291 -1.94727,2.99414 0,1.51752 -3.76829,5.75107 -7.13672,8.01758 -4.15362,2.79488 -13.34016,6.91466 -18.04492,8.09179 -3.59441,0.89825 -11.59695,0.87979 -15.69336,-0.0391 -4.20476,-0.94239 -12.13022,-5.25145 -15.21484,-8.27148 -0.41556,-0.40679 -1.60995,-1.46872 -2.65235,-2.36133 -1.97098,-1.68752 -7.52734,-8.6747 -7.52734,-9.46485 0,-0.24869 -1.20997,-2.36562 -2.6875,-4.70507 -1.47745,-2.33938 -2.83994,-5.23991 -3.0293,-6.44532 -0.38755,-2.46402 1.87394,-8.32674 3.44532,-8.92968 0.51979,-0.19956 0.94531,-0.60182 0.94531,-0.89453 0,-0.29277 0.78813,-1.73683 1.75195,-3.20899 1.83031,-2.79556 3.80717,-3.86911 9.98828,-5.42578 2.87743,-0.72473 3.57041,-1.19711 4.13477,-2.81641 0.37232,-1.06972 0.54621,-2.15592 0.38672,-2.41406 -0.42618,-0.68961 -1.61955,-11.05716 -1.75977,-15.2832 -0.15624,-4.71976 -0.64696,-5.58028 -3.93164,-6.89453 -6.67279,-2.66998 -16.3297,0.90483 -31.94531,11.82421 -7.18307,5.02288 -9.4729,10.18878 -10.16406,22.93165 -0.34315,6.32488 -0.16868,8.90274 1.00781,14.91015 0.7824,3.99489 1.90204,8.75376 2.48828,10.57617 1.87695,5.83374 8.5996,18.79594 14.02734,27.04688 2.40594,3.65741 10.27704,11.37002 12.82618,12.56836 9.70938,4.56427 15.88625,6.82161 23.13867,8.45312 v 0.002 c 5.88502,1.32177 8.6184,1.322 25.76562,0 4.92057,-0.37939 9.54276,-0.96523 10.27149,-1.30274 0.72892,-0.33736 2.38109,-0.78557 3.67187,-0.99609 3.28343,-0.53609 16.35883,-7.06823 19.38672,-9.68555 1.45614,-1.25885 2.36425,-2.56152 2.16016,-3.09375 -0.19412,-0.50162 -0.0937,-0.75948 0.22265,-0.56445 0.63636,0.39326 6.06963,-5.16073 7.30274,-7.46485 0.43162,-0.805 0.57379,-1.82962 0.3164,-2.27734 -0.25738,-0.44787 -0.21845,-0.58639 0.0879,-0.30859 1.08945,0.98951 7.88818,-12.12125 11.24024,-21.67578 1.77252,-5.05153 1.83196,-5.62608 1.46875,-14.24805 -0.38676,-9.18497 -0.88803,-11.38387 -4.09961,-18.04102 -0.91514,-1.8974 -1.66406,-3.58559 -1.66406,-3.75 0,-0.16441 2.19272,-0.0985 4.87304,0.14453 4.06058,0.36802 5.02477,0.26154 5.77149,-0.63867 1.01045,-1.21791 1.18263,-7.23394 0.36523,-12.80273 -0.34288,-2.33658 -0.24826,-4.56468 0.27539,-6.43555 1.03937,-3.71191 0.3402,-7.28263 -1.8164,-9.28125 -1.08402,-1.00467 -2.32722,-1.5711 -3.20508,-1.58008 z m -99.3418,13.22071 c 1.36991,-0.0496 1.6528,0.94837 1.72461,3.33984 0.0548,1.82241 0.12671,3.65687 0.16602,4.07617 0.0365,0.41926 -0.6651,0.8749 -1.56055,1.01172 -0.89533,0.13663 -1.82363,0.56475 -2.0625,0.95117 -0.23879,0.38623 -0.62498,0.67477 -0.85742,0.64453 -1.32325,-0.17695 -1.78118,0.0198 -1.41797,0.60743 0.22526,0.36449 -0.0509,0.6621 -0.61524,0.6621 -1.53689,10e-6 -3.58941,1.96448 -5.53515,5.30079 -0.95656,1.64016 -2.59244,4.02703 -3.63672,5.30273 -2.15093,2.62753 -5.14328,9.28006 -5.51367,12.25977 -0.37693,3.03239 1.13835,10.98267 2.58984,13.58593 0.71135,1.27575 2.18031,3.95105 3.26367,5.94532 2.0778,3.82522 7.54901,11.24746 8.95118,12.14453 0.45554,0.2914 0.84035,0.88861 0.85546,1.32617 0.0154,0.43752 1.67551,1.98743 3.6875,3.44531 2.01211,1.45799 4.06623,3.02649 4.56641,3.48438 3.38313,3.09668 16.79165,8.56178 19.08008,7.77734 0.44239,-0.15186 4.23222,-0.40697 8.42383,-0.56836 6.98037,-0.26853 9.13795,-0.66422 12.92383,-2.37109 0.72871,-0.32856 2.81625,-1.11991 4.63867,-1.75782 7.01378,-2.45448 16.16968,-9.02197 18.64257,-13.37304 0.97894,-1.72229 2.72442,-4.62294 3.87891,-6.44531 1.15446,-1.82242 2.49402,-4.35704 2.97852,-5.63282 0.48434,-1.27566 1.23241,-2.61769 1.66211,-2.98242 1.06998,-0.90773 0.91244,-17.35499 -0.18555,-19.33984 -0.44054,-0.79608 -0.80078,-2.08413 -0.80078,-2.86328 0,-2.55761 -3.30484,-7.12782 -8.35156,-11.54688 -2.72916,-2.38979 -5.62019,-4.47445 -6.42383,-4.63281 -0.80361,-0.1584 -3.66901,-0.61738 -6.36914,-1.02149 -4.86656,-0.72831 -4.92656,-0.71911 -6.76368,1.04102 -1.82553,1.74894 -1.85059,1.88168 -1.71679,8.93359 0.15341,8.09243 -0.24625,8.85898 -4.73633,9.0918 -3.81759,0.19786 -4.23374,-0.38082 -3.52148,-4.90234 0.65726,-4.17071 0.59877,-5.0865 -0.94532,-14.76953 -0.54565,-3.4167 -0.89161,-6.3119 -0.76953,-6.4336 0.12189,-0.12185 8.11213,-0.39016 17.75586,-0.59765 9.64369,-0.20758 22.40236,-0.70653 28.35156,-1.10743 6.19737,-0.41763 11.04259,-0.47983 11.34571,-0.14648 0.29083,0.31994 0.71709,1.38184 0.94726,2.35937 0.55212,2.34656 0.30543,2.4021 -12.50781,2.83985 -10.39427,0.35508 -10.63058,0.39587 -11.99805,2.07031 -1.20608,1.47678 -1.31616,2.12572 -0.81836,4.79883 0.79695,4.28016 2.49956,5.48565 7.01954,4.9668 2.74555,-0.31525 3.47851,-0.20296 3.47851,0.53711 0,0.51544 0.8199,1.85283 1.82227,2.9707 5.84069,6.51386 7.75219,11.24389 7.71289,19.11328 -0.0299,6.29012 -1.28708,10.64957 -5.35547,18.58008 -6.70734,13.07474 -6.97088,13.4738 -12.35156,18.65039 -7.47005,7.18643 -14.13277,10.32465 -24.9629,11.75781 -4.47842,0.59293 -11.6011,1.25785 -11.85546,1.10742 l 0.002,0.002 c -0.1412,-0.0833 -0.50995,0.24558 -0.81836,0.73242 -0.30905,0.4868 -0.56471,0.58738 -0.57227,0.22265 -0.006,-0.40573 -2.1526,-0.57501 -5.55664,-0.43554 -8.23139,0.33709 -15.19372,-1.28843 -24.0332,-5.60938 -6.03817,-2.95162 -8.28673,-4.49101 -12.36719,-8.46679 -2.7428,-2.67251 -5.606,-6.01733 -6.36523,-7.4336 -0.75893,-1.41615 -2.28847,-4.06626 -3.39844,-5.88867 -2.77035,-4.54866 -8.32666,-16.13061 -8.90039,-18.55469 -1.37439,-5.80339 -2.19608,-13.40251 -1.91601,-17.6914 0.3672,-5.61638 3.08041,-11.72763 6.40039,-14.41797 3.26539,-2.64613 15.80488,-10.29367 18.86328,-11.50391 1.79308,-0.70953 3.00618,-1.11671 3.82812,-1.14648 z" />
    <path
       style="opacity:0.491961;fill:#ff00ff;stroke-width:2.95129;stroke-dasharray:0, 32.4642"
       d="m 340.31565,517.4053 c 0,9.53019 0,19.06038 0,28.59057 -15.71885,0.40858 -31.60561,0.96371 -47.17713,-0.90909 0.62957,5.18423 -0.14836,10.9604 1.5032,15.86127 14.17075,2.87279 28.83207,2.31715 43.11212,3.70017 5.55931,2.22739 2.2098,9.86698 2.69737,14.29827 -0.33681,3.22362 -0.83558,8.52042 3.9733,8.02235 3.49959,0.12758 9.12557,-0.28642 10.44423,-3.50224 -0.45142,-6.37317 -0.90325,-12.7463 -1.3553,-19.11942 17.37779,1.95733 35.04203,0.2517 52.33464,-1.79426 3.65675,-2.24625 1.0015,-8.34656 1.62803,-11.77163 -0.79833,-5.22706 -10.67605,-1.0577 -15.00072,-2.55173 -13.23653,-0.18709 -26.47459,-0.0747 -39.71155,-0.003 -0.22276,-10.08991 0.35943,-20.3887 -1.62481,-30.30309 -3.58839,-0.12651 -7.30099,-0.57056 -10.82338,-0.51835 z"
       id="path2046"
       transform="scale(0.26458333)" />
    <path
       style="opacity:0.491961;fill:#ff00ff;stroke-width:2.95129;stroke-dasharray:0, 32.4642"
       d="m 353.81647,613.41626 c -19.11693,0.0734 -38.34437,-0.11991 -57.39245,0.11961 0.21998,3.51409 -0.401,7.10891 -1.19219,10.39875 37.26259,-3.36851 74.76149,0.62916 112.07757,-1.35168 3.9236,-0.54418 2.95586,-6.58464 3.79785,-9.18861 -19.09692,0.007 -38.19385,0.0146 -57.29078,0.0219 z"
       id="path2122"
       transform="scale(0.26458333)" />
    <path
       style="opacity:0.491961;fill:#ff00ff;stroke-width:2.95129;stroke-dasharray:0, 32.4642"
       d="m 321.40413,656.81147 c -8.60675,3.13393 -17.34536,7.79262 -23.57461,14.64517 -7.3302,11.88501 -3.34241,27.30674 2.77946,38.86417 5.66038,12.98785 14.36724,25.65918 28.18352,30.79904 15.44382,7.8501 33.44887,4.80486 49.53359,0.90311 16.25202,-5.76961 26.63011,-21.87771 31.43148,-37.76323 2.80338,-8.7666 1.76613,-18.83902 -4.71493,-25.75364 -2.08523,-3.92231 -6.5065,-6.05938 -10.74962,-4.76276 6.65181,8.72343 7.75314,21.17424 4.68103,31.44144 -4.83549,12.51503 -14.00197,23.86165 -27.10132,28.15596 -10.13633,4.38148 -21.77354,4.69636 -32.51601,3.04028 -18.10173,-6.50284 -32.10748,-23.26578 -36.24011,-41.88007 -0.76536,-10.3509 6.0222,-19.81303 13.02036,-26.7963 2.01152,-2.38022 5.28532,-3.34924 7.63957,-4.74084 0.40704,-1.92251 0.74266,-6.45747 -2.37241,-6.15233 z"
       id="path2161"
       transform="scale(0.26458333)" />
    <path
       style="opacity:0.491961;fill:#ff00ff;stroke-width:2.95129;stroke-dasharray:0, 32.4642"
       d="m 407.72806,656.43468 c -16.00781,0.53936 -32.1197,1.24362 -48.04036,2.17504 0.88268,8.18434 0.0699,16.83499 2.01356,24.7967 3.33002,1.86451 7.27966,-2.19875 6.33374,-5.74961 -0.001,-4.56123 -0.9021,-13.23327 5.95695,-12.94859 6.48165,-0.49837 12.9211,1.8053 17.55984,6.15831 -0.51556,-3.90741 -0.0874,-9.98652 5.36883,-9.27833 6.35402,-1.53632 13.78917,0.35294 19.6372,-2.45017 0.46316,-4.39066 -6.70583,-2.06677 -8.82976,-2.70335 z"
       id="path2200"
       transform="scale(0.26458333)" />
  </g>
</svg>
