<?xml version="1.0" encoding="UTF-8" standalone="no"?>
<!-- Created with Inkscape (http://www.inkscape.org/) -->

<svg
   width="89.78315mm"
   height="71.95282mm"
   viewBox="0 0 89.78315 71.95282"
   version="1.1"
   id="svg5"
   inkscape:version="1.1.1 (c3084ef, 2021-09-22)"
   sodipodi:docname="fairdata copy 2.svg"
   xmlns:inkscape="http://www.inkscape.org/namespaces/inkscape"
   xmlns:sodipodi="http://sodipodi.sourceforge.net/DTD/sodipodi-0.dtd"
   xmlns="http://www.w3.org/2000/svg"
   xmlns:svg="http://www.w3.org/2000/svg">
  <sodipodi:namedview
     id="namedview7"
     pagecolor="#ffffff"
     bordercolor="#666666"
     borderopacity="1.0"
     inkscape:pageshadow="2"
     inkscape:pageopacity="0.0"
     inkscape:pagecheckerboard="0"
     inkscape:document-units="mm"
     showgrid="false"
     inkscape:zoom="0.49264169"
     inkscape:cx="456.7214"
     inkscape:cy="90.329343"
     inkscape:window-width="2560"
     inkscape:window-height="1387"
     inkscape:window-x="0"
     inkscape:window-y="25"
     inkscape:window-maximized="1"
     inkscape:current-layer="layer1" />
  <defs
     id="defs2" />
  <g
     inkscape:label="Layer 1"
     inkscape:groupmode="layer"
     id="layer1"
     transform="translate(-33.959595,-93.418304)">
    <path
       style="fill:#000000;stroke-width:0.494188"
       d="m 52.420195,165.16788 c -3.944167,-0.45047 -8.993359,-0.11731 -11.255588,-4.09384 -2.738011,-3.31303 -5.08581,-7.14388 -5.22171,-11.56698 -0.567172,-6.8907 -2.540071,-13.68511 -1.831734,-20.64175 0.534304,-8.06353 0.342527,-16.17979 1.192721,-24.21391 0.703359,-3.6782 5.033477,-5.337216 8.048401,-7.052689 3.868913,-1.758322 8.054667,-2.804432 12.333917,-2.744669 7.8013,-0.09175 15.595802,-0.429421 23.356344,-1.223736 11.450024,-0.577587 22.937144,0.06249 34.301504,1.464626 3.37052,1.567314 4.90049,5.691728 6.62663,8.793848 0.97526,6.39495 1.92494,12.80438 3.13541,19.1654 1.39216,10.47345 0.64147,21.54012 -3.65325,31.28054 -2.86017,1.90494 -3.62087,6.26718 -7.71646,6.9945 -7.09351,3.36927 -15.156176,2.93246 -22.800374,3.47652 -12.163062,0.3752 -24.350405,0.83952 -36.515811,0.36214 z m 8.69978,-13.23846 c -1.788398,-0.19869 0.78676,2.527 0,0 z m 12.79737,-4.16203 c 3.218671,-1.83496 5.566324,-4.82373 8.965033,-6.39583 4.366425,-3.71673 8.209289,-8.02121 11.955557,-12.34855 -3.219353,-1.0137 -6.570444,-3.05104 -9.548158,-5.04232 -3.664511,-2.38702 -7.564423,-4.36661 -11.135513,-6.88295 -2.229307,-0.87431 -6.540009,-5.09994 -5.487046,0.0263 0.320667,4.3363 0.237217,8.7977 1.517017,12.96809 0.600322,6.32907 0.09741,12.71916 0.654103,19.03969 0.910644,0.19132 2.113078,-1.08448 3.079007,-1.36443 z m 4.44769,-45.39051 c -2.607503,-1.68525 -1.063501,1.06804 0,0 z"
       id="path836"
       sodipodi:nodetypes="csssssssssssscsssscsscssssscccssccsssssssssssssssssssccss" />
  </g>
</svg>
