<?xml version="1.0" encoding="UTF-8" standalone="no"?>
<!-- Created with Inkscape (http://www.inkscape.org/) -->

<svg
   width="121.27923mm"
   height="120.70821mm"
   viewBox="0 0 121.27923 120.70821"
   version="1.1"
   id="svg5"
   sodipodi:docname="datalad copy 3.svg"
   inkscape:version="1.1.1 (c3084ef, 2021-09-22)"
   xmlns:inkscape="http://www.inkscape.org/namespaces/inkscape"
   xmlns:sodipodi="http://sodipodi.sourceforge.net/DTD/sodipodi-0.dtd"
   xmlns="http://www.w3.org/2000/svg"
   xmlns:svg="http://www.w3.org/2000/svg">
  <sodipodi:namedview
     id="namedview7"
     pagecolor="#ffffff"
     bordercolor="#666666"
     borderopacity="1.0"
     inkscape:pageshadow="2"
     inkscape:pageopacity="0.0"
     inkscape:pagecheckerboard="0"
     inkscape:document-units="mm"
     showgrid="false"
     inkscape:zoom="0.47355745"
     inkscape:cx="535.30991"
     inkscape:cy="-100.30462"
     inkscape:window-width="1606"
     inkscape:window-height="1319"
     inkscape:window-x="0"
     inkscape:window-y="25"
     inkscape:window-maximized="0"
     inkscape:current-layer="layer1" />
  <defs
     id="defs2" />
  <g
     inkscape:label="Layer 1"
     inkscape:groupmode="layer"
     id="layer1"
     transform="translate(-28.267069,-63.673355)">
    <path
       style="fill:#000000;stroke-width:0.20254"
       d="m 93.406493,189.24697 c -0.55698,-0.0749 -1.3317,-0.2782 -1.72158,-0.45174 -0.92987,-0.41391 -2.10444,-1.61894 -2.60044,-2.6679 -0.21817,-0.46155 -0.63389,-1.06014 -0.92359,-1.3302 -0.28972,-0.27006 -0.53231,-0.58906 -0.53908,-0.70889 -0.007,-0.11983 -0.39414,-0.52024 -0.86081,-0.8898 -1.79585,-1.42216 -2.44483,-1.97112 -2.65551,-2.24626 -0.12009,-0.15683 -0.788,-0.87838 -1.48422,-1.60344 -0.69625,-0.72505 -1.26589,-1.39422 -1.26589,-1.48706 0,-0.0928 -0.0899,-0.16879 -0.19998,-0.16879 -0.21459,0 -4.97646,-4.83686 -5.98269,-6.07696 -0.22559,-0.27807 -0.90921,-0.9537 -1.51905,-1.50139 -0.60985,-0.54769 -2.11359,-1.96041 -3.34165,-3.13937 -2.1697,-2.08297 -4.17483,-3.86011 -5.03944,-4.46649 -0.23324,-0.16365 -0.73764,-0.57379 -1.1207,-0.91143 -1.93448,-1.70522 -2.57478,-2.2861 -3.14104,-2.8495 -0.3401,-0.33841 -0.98295,-0.88301 -1.42853,-1.21023 -0.44559,-0.32722 -0.99915,-0.77948 -1.23009,-1.00504 -0.53035,-0.51794 -1.70988,-1.50287 -2.43156,-2.03042 -0.30479,-0.22278 -0.94107,-0.76965 -1.41393,-1.21524 -0.47287,-0.44559 -1.42152,-1.31144 -2.10813,-1.92413 -0.68659,-0.61268 -1.99611,-1.79754 -2.91005,-2.63302 -2.11724,-1.93548 -6.85474,-5.81387 -10.67507,-8.7392 -0.38521,-0.29499 -0.88306,-0.70513 -1.10627,-0.91143 -0.71867,-0.66418 -2.57923,-2.03215 -4.69942,-3.45522 -2.56375,-1.72079 -4.6204,-3.43735 -4.94588,-4.12803 -0.16793,-0.35642 -0.51155,-0.59705 -1.0729,-0.75139 -0.92351,-0.25393 -1.97446,-1.15407 -2.47297,-2.11813 -0.18157,-0.35125 -0.37531,-1.1999 -0.43038,-1.8859 -0.14808,-1.84495 0.40912,-3.30535 1.82437,-4.78138 0.19496,-0.20332 0.35445,-0.45667 0.35445,-0.56301 0,-0.22453 0.96112,-1.22444 1.17694,-1.22444 0.15597,0 1.46944,-1.28289 4.14689,-4.0508 0.91592,-0.94689 2.06502,-1.94946 2.55356,-2.22794 0.48853,-0.2785 1.36537,-0.99731 1.94854,-1.59739 0.60095,-0.61839 1.15804,-1.03061 1.28596,-0.95155 0.13587,0.084 0.18396,0.0311 0.12128,-0.13301 -0.062,-0.16147 0.51686,-0.83299 1.42009,-1.64777 0.83856,-0.75646 1.52464,-1.46159 1.52464,-1.56694 0,-0.16339 0.90064,-1.38808 1.77499,-2.41371 0.13947,-0.16363 0.5822,-0.68413 0.98358,-1.15644 0.40142,-0.47232 0.8123,-0.8078 0.91308,-0.74553 0.10072,0.0622 0.12201,0.21219 0.0474,0.33309 -0.083,0.13444 -0.0412,0.16123 0.10789,0.0694 0.172,-0.10622 0.18133,-0.22583 0.0318,-0.40594 -0.1574,-0.1897 0.0873,-0.57714 0.95222,-1.5074 2.46636,-2.652663 3.48331,-3.908714 5.26692,-6.505333 0.19137,-0.2785 1.03888,-1.18993 1.88352,-2.025407 0.84467,-0.835478 2.07534,-2.11148 2.73487,-2.835552 0.6595,-0.724072 1.27519,-1.291479 1.36815,-1.260859 0.0931,0.03062 0.11076,-0.03851 0.0397,-0.15358 -0.0711,-0.115065 0.0816,-0.293858 0.3394,-0.397249 0.25779,-0.103343 0.38919,-0.193769 0.29202,-0.200945 -0.0971,-0.0072 -0.0641,-0.148556 0.0737,-0.314432 0.13755,-0.165779 0.34519,-0.242928 0.46117,-0.171282 0.12631,0.07823 0.14975,0.03158 0.0584,-0.116261 -0.18635,-0.301681 0.46581,-1.073119 0.75582,-0.893895 0.11578,0.07153 0.14544,0.02847 0.0672,-0.09784 -0.0775,-0.125351 0.24615,-0.618672 0.72823,-1.109959 2.17411,-2.215707 3.53733,-3.792218 3.90815,-4.519568 0.50559,-0.991712 0.68278,-1.127398 1.32123,-1.011759 0.34455,0.06244 0.80419,-0.102386 1.39763,-0.500856 1.71334,-1.150722 2.29355,-0.813588 4.30467,2.501194 0.63375,1.044532 1.41612,2.181595 1.73858,2.526814 0.32252,0.345243 1.23008,1.477329 2.01682,2.515785 1.93436,2.553224 2.9473,3.729327 5.77943,6.710397 0.4194,0.441481 0.81648,1.017524 0.88239,1.280068 0.0658,0.262545 0.19568,0.430502 0.2883,0.373232 0.0926,-0.05717 0.25712,0.0543 0.36544,0.247833 0.16482,0.294695 0.27402,0.313211 0.67072,0.113869 0.26054,-0.130854 0.74716,-0.255392 1.08135,-0.276611 0.65011,-0.04115 1.80061,0.212906 1.64919,0.364285 -0.0502,0.05024 0.0265,0.318522 0.1708,0.596281 0.3506,0.675797 0.18492,1.191007 -0.57831,1.799009 -1.13413,0.903368 -1.29244,1.118691 -1.42301,1.935171 -0.2451,1.53271 0.62257,4.89627 1.34598,5.21778 0.0835,0.0371 0.1519,0.17798 0.1519,0.31276 0,0.13492 0.35744,0.6286 0.79433,1.09709 0.72893,0.78172 0.87787,0.85184 1.80906,0.85184 0.88782,0 1.0669,0.0732 1.43166,0.58549 l 0.41692,0.58552 -0.64193,0.62759 c -0.35304,0.34517 -0.80789,0.68027 -1.01073,0.74467 -0.20286,0.0644 -0.38017,0.27042 -0.39404,0.45785 -0.0459,0.61974 0.0414,3.16239 0.13683,3.98651 0.32637,2.81987 0.49631,5.60905 0.48124,7.89906 -0.0498,7.57414 -0.012,12.19612 0.11794,14.38034 0.25565,4.30124 0.23974,5.07217 -0.10311,4.99599 -0.16697,-0.0371 -0.24128,-0.005 -0.16482,0.0714 0.0763,0.0764 0.0581,0.35139 -0.0404,0.611 -0.12057,0.3174 -0.10406,0.49719 0.051,0.54882 0.13922,0.0464 0.0519,0.25515 -0.22009,0.52723 -0.24773,0.24775 -0.55233,0.38747 -0.6769,0.3105 -0.1287,-0.0795 -0.17032,-0.0491 -0.0964,0.0704 0.0715,0.11568 -0.14975,0.32617 -0.49148,0.46775 -0.67675,0.28032 -1.52553,1.87163 -1.72035,3.22536 -0.0567,0.39396 -0.14043,0.82742 -0.18588,0.96324 -0.0454,0.1358 0.0443,1.03096 0.19927,1.9892 0.31202,1.92749 0.70506,2.61092 2.18148,3.79335 2.10602,1.68662 3.60314,2.14732 6.10682,1.87919 1.1795,-0.1263 1.43676,-0.23591 2.17989,-0.92891 0.46345,-0.43214 0.93308,-0.72978 1.04365,-0.66144 0.11052,0.0683 0.14664,0.036 0.0799,-0.0718 -0.0667,-0.10782 0.11507,-0.82825 0.40395,-1.60098 0.42019,-1.12439 0.52915,-1.78919 0.54554,-3.32908 0.0191,-1.78273 -0.0285,-2.02515 -0.64515,-3.29865 -0.36611,-0.75599 -0.60999,-1.4646 -0.54193,-1.5747 0.0679,-0.11011 0.0486,-0.17585 -0.0433,-0.14612 -0.26061,0.0844 -1.09326,-0.56927 -0.93136,-0.73117 0.0794,-0.0794 0.007,-0.0918 -0.16028,-0.0275 -0.16769,0.0643 -0.50887,-0.0732 -0.7583,-0.30562 -0.24948,-0.2324 -0.70199,-0.45211 -1.00559,-0.48823 -0.30362,-0.0361 -0.60975,-0.076 -0.68032,-0.0888 -0.0706,-0.0127 -0.17846,-0.18259 -0.23974,-0.37753 -0.0612,-0.19495 -0.25564,-0.74718 -0.43182,-1.22719 -0.26185,-0.71333 -0.27355,-0.93958 -0.0641,-1.23865 0.25546,-0.36471 0.35928,-0.42036 0.78431,-0.42036 0.13444,0 0.16554,-0.14186 0.0773,-0.35445 -0.21553,-0.51976 -0.34522,-8.06549 -0.34053,-19.79828 0.002,-4.12168 -0.0265,-7.81298 -0.0629,-8.20286 -0.0361,-0.3899 -0.12511,-1.2661 -0.1976,-1.94713 -0.15812,-1.48611 0.0675,-1.81117 1.39688,-2.01051 0.73185,-0.1098 0.997,-0.0543 1.49236,0.3119 0.48367,0.35761 0.6833,0.40203 1.01312,0.22558 0.33866,-0.18133 0.58248,-0.10478 1.38961,0.4356 0.53838,0.36048 1.08885,0.88327 1.2233,1.16175 0.13444,0.2785 0.94107,1.2355 1.79255,2.12667 0.851447,0.89119 2.428417,2.5703 3.504387,3.73137 1.07591,1.16107 2.1841,2.34889 2.46258,2.63959 0.2785,0.2907 0.73354,0.95756 1.01123,1.48192 0.51382,0.97025 1.20474,1.75246 2.37603,2.69 0.57763,0.46235 0.64384,0.61727 0.57397,1.34279 -0.0435,0.45108 -0.16507,0.90614 -0.27011,1.01125 -0.11458,0.11457 -0.12296,0.55602 -0.0215,1.1022 0.0935,0.5011 0.16219,0.97416 0.15215,1.05124 -0.0533,0.41493 0.33823,1.04623 0.97496,1.57216 0.3951,0.32636 1.09513,0.92219 1.55558,1.32407 0.72128,0.62953 2.11629,1.21944 1.84477,0.78009 -0.0517,-0.0838 0.64734,-0.21793 1.5536,-0.29814 1.8508,-0.16385 2.93916,-0.66263 3.13324,-1.43599 0.067,-0.26705 0.18156,-0.48554 0.25465,-0.48554 0.19185,0 0.98147,-1.77621 1.24119,-2.79208 0.3855,-1.50786 0.41617,-3.50048 0.0713,-4.6335 -0.36661,-1.20456 -1.43348,-2.42162 -2.92978,-3.34231 -0.54444,-0.335 -0.9899,-0.70761 -0.9899,-0.82801 0,-0.1204 -0.0577,-0.16136 -0.12798,-0.091 -0.0703,0.0704 -0.51131,-0.0967 -0.97985,-0.37133 -1.13086,-0.66272 -1.32269,-0.63395 -1.32269,0.19834 0,0.88683 -0.65592,1.66222 -1.71086,2.02247 -1.14517,0.39106 -1.96218,0.0105 -2.59913,-1.21092 -0.17152,-0.32875 -0.47947,-0.75131 -0.68451,-0.93904 -0.20501,-0.18771 -0.77038,-0.70397 -1.25631,-1.14721 -0.56437,-0.51479 -0.82742,-0.89663 -0.72823,-1.05713 0.0985,-0.15932 0.072,-0.19975 -0.072,-0.11076 -0.13444,0.083 -1.76516,-1.40178 -3.98836,-3.6316 -3.542467,-3.55298 -3.792877,-3.76201 -4.310407,-3.59785 -1.91102,0.60616 -2.88227,-0.95985 -1.8963,-3.05746 0.23948,-0.50946 0.43543,-1.02015 0.43543,-1.13486 0,-0.11482 0.23204,-0.86763 0.51549,-1.67315 0.44873,-1.27498 0.49794,-1.661295 0.38005,-2.983681 -0.0744,-0.835478 -0.15908,-1.655765 -0.18779,-1.82286 -0.0287,-0.167215 -0.11985,-0.710269 -0.20262,-1.207059 -0.15692,-0.948461 -1.18457,-2.52545 -2.36199,-3.62584 -0.78505,-0.733689 -3.40863,-1.648348 -4.72817,-1.648348 -0.51071,0 -1.18588,0.133006 -1.50043,0.295748 -0.31453,0.16267 -0.6436,0.231087 -0.73128,0.151905 -0.0878,-0.07918 -0.0981,-0.03684 -0.0239,0.09377 0.15286,0.267018 -0.86772,1.078837 -1.35638,1.078837 -0.17128,0 -0.36146,0.08134 -0.42284,0.180611 -0.14545,0.235393 -1.49485,0.102865 -1.83605,-0.180372 -0.14544,-0.120567 -0.31565,-0.420789 -0.37823,-0.666851 -0.0696,-0.273429 -0.75019,-0.862892 -1.7503,-1.515773 -1.00791,-0.657999 -1.58221,-1.156272 -1.49511,-1.297172 0.0813,-0.131811 0.0512,-0.173196 -0.071,-0.0976 -0.20406,0.126069 -5.63836,-5.403823 -6.30887,-6.420007 -0.50817,-0.770027 -1.48123,-2.002826 -2.02103,-2.560425 -0.2696,-0.278476 -0.63661,-0.829592 -0.81562,-1.224641 -0.17894,-0.395072 -0.57612,-0.968867 -0.88244,-1.275093 -0.5708,-0.570564 -0.78713,-1.753605 -0.3207,-1.753605 0.1299,0 0.1799,-0.05646 0.111,-0.125352 -0.0689,-0.06889 -0.0167,-0.245607 0.11818,-0.392536 0.13396,-0.146883 0.51698,-0.590851 0.85117,-0.986498 0.33419,-0.395622 1.68999,-1.836782 3.01293,-3.202539 1.32291,-1.365758 2.64123,-2.802205 2.92959,-3.19211 0.28836,-0.389882 0.84653,-1.08075 1.24041,-1.535269 0.39385,-0.45452 1.11433,-1.297605 1.60105,-1.873503 0.48672,-0.5759 1.0108,-1.047093 1.1646,-1.047093 0.15382,0 0.27977,-0.113868 0.27991,-0.253191 0,-0.38548 0.88248,-1.327744 1.44219,-1.540555 0.27352,-0.104061 1.2032,-0.255224 2.06598,-0.336056 1.96357,-0.183961 3.17933,0.123198 4.05792,1.025369 0.35012,0.359501 0.95554,0.788495 1.34542,0.953294 0.38991,0.164823 1.0043,0.585253 1.3653,0.934299 0.36104,0.349023 0.83216,0.634604 1.04695,0.634604 0.54392,0 1.48671,0.530065 3.15092,1.771523 2.31759,1.728846 3.65615,2.886841 3.59675,3.111541 -0.0306,0.115782 0.0383,0.152383 0.1531,0.08157 0.227497,-0.140662 1.028977,0.568268 4.791937,4.239107 1.36363,1.330208 2.42505,2.50636 2.35874,2.613674 -0.0677,0.109562 -0.0143,0.129419 0.122,0.04521 0.27224,-0.168172 1.07932,0.397728 2.46747,1.73028 0.5092,0.488847 1.57443,1.435658 2.36718,2.10404 0.7927,0.668382 1.44702,1.329157 1.45398,1.468407 0.007,0.139226 0.0883,0.253191 0.18085,0.253191 0.0926,0 0.4661,0.414808 0.83019,0.921788 0.3641,0.507004 1.02901,1.258921 1.47757,1.670955 1.51872,1.395038 4.41039,4.318622 4.41039,4.459069 0,0.07679 0.45136,0.617834 1.003,1.202322 0.55167,0.584487 0.95559,1.062689 0.89761,1.062689 -0.10335,0 1.12342,1.369561 2.58118,2.881721 0.40414,0.419234 0.99265,1.104409 1.30775,1.522638 1.18213,1.568951 2.98935,3.613784 3.63637,4.114472 0.36849,0.285175 1.73872,1.561175 3.04494,2.835555 1.30621,1.2744 2.76067,2.68163 3.23211,3.12723 4.34106,4.10282 5.64452,5.27505 7.57226,6.80996 0.56628,0.45086 1.02958,0.90313 1.02958,1.00506 0,0.10191 0.10334,0.1854 0.22941,0.1854 0.12631,0 0.37682,0.16697 0.557,0.3712 0.18013,0.20429 0.57741,0.53315 0.8828,0.73105 0.30778,0.19951 0.49643,0.4628 0.42325,0.59085 -0.0725,0.12703 -0.0586,0.16483 0.0309,0.0837 0.0895,-0.0811 0.45478,0.10119 0.81153,0.40508 0.35675,0.30381 0.91327,0.7586 1.23672,1.01066 2.05581,1.60206 4.53552,3.68359 5.11329,4.29222 0.5886,0.62004 0.66003,0.80593 0.54731,1.42448 -0.0713,0.39126 -0.17511,1.20229 -0.23085,1.8023 -0.20453,2.20677 -0.75794,3.07866 -4.25439,6.70421 -1.77119,1.83659 -3.78779,3.93287 -4.48134,4.65842 -2.02325,2.11661 -2.35106,2.41526 -2.52968,2.30486 -0.0928,-0.0574 -0.14377,-0.0122 -0.11315,0.10071 0.0856,0.31606 -1.68651,2.45805 -2.03378,2.45805 -0.16913,0 -0.25138,0.0559 -0.18301,0.12425 0.0684,0.0683 -0.24053,0.60738 -0.68637,1.19788 -0.77754,1.02986 -1.2698,1.41264 -1.57452,1.22431 -0.0782,-0.0483 -0.15598,0.096 -0.17296,0.32075 -0.029,0.3847 -1.43535,2.07926 -2.36539,2.85006 -0.23228,0.19248 -0.35385,0.35197 -0.27029,0.35445 0.0835,0.002 -0.007,0.17116 -0.20262,0.37487 -0.41706,0.43578 -0.91409,1.03345 -1.83528,2.20688 -0.36885,0.46986 -1.09654,1.28985 -1.61706,1.82218 -0.52049,0.53234 -0.92506,1.03624 -0.89901,1.11979 0.0261,0.0836 -0.0354,0.1519 -0.1366,0.1519 -0.10119,0 -0.66359,0.61522 -1.24968,1.36715 -0.58609,0.75193 -1.63952,1.95957 -2.34104,2.68365 -0.70146,0.72408 -1.4486,1.52158 -1.66028,1.77223 -0.21171,0.25064 -0.48809,0.45571 -0.61427,0.45571 -0.12631,0 -0.22942,0.12253 -0.22942,0.27231 0,0.36066 -0.85775,1.34801 -1.17105,1.34801 -0.13564,0 -0.24673,0.13057 -0.24673,0.29016 0,0.15959 -0.17775,0.34658 -0.39501,0.41554 -0.21721,0.0689 -0.57597,0.41811 -0.79708,0.77591 -0.22104,0.35779 -0.613,0.84346 -0.87086,1.07926 -0.67367,0.61611 -1.72932,1.76188 -3.3321,3.6166 -1.31535,1.52211 -2.10327,2.39513 -3.16761,3.50971 -0.24771,0.25939 -0.54152,0.64018 -0.65291,0.84621 -0.19783,0.36603 -1.69758,2.11049 -3.16414,3.68064 -0.40349,0.43201 -0.94121,1.05631 -1.19488,1.38732 -0.2537,0.33102 -0.5742,0.60185 -0.71228,0.60185 -0.13803,0 -0.23827,0.1272 -0.22296,0.28264 0.0292,0.29271 -2.1075,2.60196 -3.39176,3.66576 -0.40268,0.33356 -0.73216,0.71282 -0.73216,0.84279 0,0.12996 -0.27343,0.46638 -0.60762,0.74758 -0.33419,0.2812 -0.60762,0.5678 -0.60762,0.63688 0,0.0691 -0.59243,0.71802 -1.3165,1.4421 -0.72407,0.72409 -1.3165,1.38309 -1.3165,1.46446 0,0.30673 -1.713937,1.44987 -2.173817,1.44987 -0.35452,0 -0.55521,0.18032 -0.76823,0.69018 -0.37237,0.89119 -1.11479,1.46371 -2.38862,1.842 -0.56188,0.16685 -1.0734,0.29055 -1.13675,0.27486 -0.0634,-0.0158 -0.57085,-0.0898 -1.12783,-0.16473 z m 1.67564,-4.82685 c 0.60561,-0.98422 0.73022,-1.04472 2.17262,-1.05471 0.77163,-0.005 0.88914,-0.0908 1.8116,-1.3179 0.4187,-0.55699 1.603437,-1.92413 2.632787,-3.0381 1.02929,-1.11397 2.72488,-2.9824 3.76791,-4.15207 1.04307,-1.16967 1.9917,-2.23043 2.10813,-2.35724 0.1165,-0.12681 0.34905,-0.40025 0.517,-0.60762 0.86572,-1.06896 3.4204,-4.11059 3.97333,-4.73069 0.34817,-0.39042 1.04296,-1.21115 1.54398,-1.82383 0.50105,-0.61268 1.02047,-1.08892 1.15429,-1.05831 0.13372,0.0306 0.18396,-0.0404 0.11123,-0.15791 -0.0725,-0.11746 0.627,-0.98995 1.55463,-1.93885 3.90805,-3.99762 5.21082,-5.35474 6.64887,-6.92631 0.83547,-0.91304 1.64985,-1.82089 1.80967,-2.01745 0.1598,-0.19654 0.66116,-0.7816 1.11398,-1.30012 0.45285,-0.51851 0.91447,-1.06753 1.02587,-1.22005 0.11148,-0.15253 0.89361,-1.04986 1.73823,-1.99408 0.84464,-0.94423 2.07143,-2.35478 2.72625,-3.13456 0.65482,-0.77978 1.28533,-1.51901 1.40114,-1.64273 0.22295,-0.23831 0.78646,-0.89057 1.90874,-2.20988 2.08705,-2.45348 2.92571,-3.38426 4.54765,-5.04701 0.98444,-1.00925 2.03055,-2.154 2.3247,-2.54389 0.29412,-0.38989 1.50304,-1.71146 2.68647,-2.93683 3.08247,-3.19175 3.9369,-4.19423 4.75158,-5.57504 0.11579,-0.19618 0.32676,-0.49682 0.46892,-0.66811 0.1421,-0.17128 0.31011,-0.812 0.37326,-1.42381 l 0.11483,-1.1124 -0.9888,-0.94731 c -0.54384,-0.52101 -1.76351,-1.5948 -2.71039,-2.38619 -0.94686,-0.79139 -2.64051,-2.26333 -3.76368,-3.27096 -1.12319,-1.00765 -2.70955,-2.37893 -3.52527,-3.04731 -0.81577,-0.66838 -1.94752,-1.63847 -2.51504,-2.15576 -0.56756,-0.51729 -1.29239,-1.15529 -1.6108,-1.41779 -1.23282,-1.01637 -3.86398,-3.61735 -3.67301,-3.63086 0.11052,-0.007 0.0433,-0.0768 -0.14975,-0.15334 -0.59994,-0.23779 -7.44483,-6.963256 -7.3096,-7.182071 0.0703,-0.113869 0.0325,-0.148077 -0.0837,-0.07607 -0.1165,0.072 -0.37378,-0.119132 -0.57192,-0.424425 -0.45194,-0.696562 -1.51027,-1.99218 -2.8318,-3.466735 -0.56159,-0.626638 -1.52742,-1.777312 -2.14626,-2.557099 -0.61886,-0.779787 -1.75437,-2.056004 -2.52337,-2.836078 -0.76902,-0.78005 -2.49191,-2.59315 -3.82868,-4.029094 -3.79918,-4.081077 -6.39151,-6.603728 -6.78611,-6.603728 -0.0813,0 -1.24976,-1.070943 -2.59673,-2.379861 -5.164367,-5.018414 -5.955777,-5.748922 -7.678637,-7.087743 -0.9761,-0.75852 -2.45831,-1.715617 -3.29378,-2.126909 -1.47305,-0.725173 -2.31248,-1.351428 -2.86981,-2.141047 -0.42065,-0.595994 -1.48207,-1.050489 -2.4368,-1.043432 -1.01161,0.0072 -1.58737,0.368113 -1.63686,1.025323 -0.0191,0.255511 -0.25305,0.697519 -0.51957,0.982263 -0.26651,0.284768 -0.72428,0.83299 -1.01726,1.218326 -0.73249,0.963293 -2.26063,2.639415 -4.12782,4.527486 -0.86332,0.872987 -1.56967,1.632584 -1.56967,1.688011 0,0.0555 -0.40272,0.527123 -0.89492,1.048216 -0.4922,0.521094 -1.0875,1.193328 -1.32286,1.493813 l -0.42795,0.546379 0.90521,1.175218 c 0.49787,0.646374 1.23579,1.539791 1.63979,1.985386 0.40402,0.445572 1.16161,1.305068 1.68354,1.909936 0.5219,0.604893 1.2986,1.489507 1.72595,1.965794 0.42739,0.476288 0.72213,0.954873 0.65496,1.063503 -0.0672,0.108606 -0.0143,0.263501 0.11506,0.344095 0.14808,0.09162 0.18277,0.05885 0.0926,-0.08732 -0.21219,-0.343377 0.1921,-0.28527 0.48701,0.07009 0.13875,0.166976 0.18204,0.30381 0.0962,0.30381 -0.15884,0 0.46605,0.475426 2.17012,1.651243 0.52236,0.360433 0.89561,0.742851 0.82949,0.84983 -0.066,0.106932 -0.0167,0.130615 0.10933,0.05263 0.12631,-0.07799 0.4931,0.05311 0.81526,0.291251 0.56126,0.414951 0.61315,0.41897 1.23787,0.09593 0.35864,-0.185396 0.76948,-0.292136 0.91294,-0.237067 0.14353,0.05502 0.35258,0.0096 0.46473,-0.103822 0.1122,-0.112194 0.70596,-0.218887 1.31964,-0.237307 0.61369,-0.01914 1.06594,-0.115782 1.00503,-0.216255 -0.13013,-0.214581 1.25603,-0.01914 2.40403,0.339286 0.43334,0.13516 0.78789,0.355051 0.78789,0.488441 0,0.133485 0.0902,0.298236 0.20023,0.366294 0.11626,0.07177 0.14784,-0.01196 0.0756,-0.200945 -0.1031,-0.268908 -0.0246,-0.300389 0.45804,-0.183482 0.63676,0.154297 1.09266,0.344477 1.96091,0.817727 0.49107,0.267688 0.53232,0.355577 0.30381,0.647737 -0.22869,0.292351 -0.22247,0.305389 0.0462,0.09641 0.41526,-0.322995 0.51911,-0.240297 2.27614,1.812693 1.725487,2.016126 1.840367,2.323811 2.286197,6.123517 0.1842,1.569454 0.21434,2.456483 0.0849,2.500308 -0.11028,0.03732 -0.1421,0.16267 -0.0706,0.278333 0.0715,0.115781 -0.13301,0.986471 -0.45445,1.935011 -0.55277,1.63105 -0.56482,1.73686 -0.222,1.94962 0.19927,0.12368 0.97404,0.85201 1.7216,1.61837 2.05512,2.10684 3.32964,3.37882 4.31566,4.30705 0.49047,0.46172 1.48419,1.44441 2.20826,2.18379 0.7241,0.73936 1.62285,1.53735 1.99723,1.7733 0.63171,0.39811 0.71922,0.40638 1.21524,0.11482 1.09082,-0.64097 2.09947,-0.77804 3.34258,-0.45425 1.17598,0.30629 3.47248,1.45824 4.51667,2.26558 0.31587,0.24424 0.96598,0.7264 1.44461,1.07147 0.47866,0.34508 0.92542,0.78325 0.99286,0.97372 0.0675,0.19047 0.23587,0.48302 0.37448,0.65012 0.45839,0.55283 0.94169,2.30792 1.03993,3.77641 0.11722,1.75256 -0.37483,4.65724 -1.00726,5.94551 -0.58056,1.18266 -2.04981,3.49719 -2.40945,3.79566 -0.5586,0.4636 -2.81395,1.48421 -3.0109,1.3625 -0.111,-0.0686 -0.17678,-0.0143 -0.14616,0.1205 0.0751,0.3313 -0.79522,0.55231 -2.70757,0.68747 -0.87653,0.062 -1.88939,0.15908 -2.25078,0.21585 -0.96875,0.15217 -1.88812,-0.41762 -4.69996,-2.91282 -0.67274,-0.59699 -1.38217,-1.32613 -1.57651,-1.62031 -0.5071,-0.76765 -0.92344,-2.18416 -1.0204,-3.47171 -0.0787,-1.04669 -0.57741,-2.0234 -2.12191,-4.15686 -0.0825,-0.11403 -0.46014,-0.66088 -0.83909,-1.21524 -0.37895,-0.55435 -0.78955,-1.09905 -0.91246,-1.21045 -0.12296,-0.1114 -1.03094,-1.11397 -2.017867,-2.22794 -2.64061,-2.98053 -3.97522,-4.34954 -3.98123,-4.08377 -0.002,0.12966 0.002,2.83309 0.0144,6.0079 0.01,3.17482 -0.01,6.18253 -0.0447,6.68382 -0.0349,0.50129 -0.0397,1.95958 -0.012,3.24064 0.029,1.28106 0.0744,4.13446 0.10071,6.34089 l 0.0481,4.01167 -0.50634,0.38593 c -0.49973,0.38089 -0.50107,0.3897 -0.10119,0.67399 0.22272,0.15844 0.90636,0.65723 1.51905,1.10844 0.61267,0.45121 1.32103,0.96878 1.57412,1.15016 0.45952,0.32933 0.70044,0.72702 1.85657,3.0646 0.751077,1.5186 1.024457,4.03087 0.627497,5.76634 -0.780147,3.4106 -1.401187,4.71495 -2.818667,5.91979 -0.15381,0.13069 -0.56802,0.53128 -0.92066,0.89023 -1.02279,1.0411 -1.91163,1.24077 -7.00268,1.57302 -1.38243,0.0902 -4.26393,-0.90752 -5.73832,-1.98692 -1.19687,-0.87622 -2.47464,-2.28594 -2.9709,-3.27765 -0.2785,-0.55654 -0.55306,-1.05746 -0.61013,-1.11315 -0.0572,-0.0557 -0.11603,-0.32913 -0.13134,-0.60762 -0.0143,-0.2785 -0.12822,-1.39496 -0.25154,-2.48102 -0.2763,-2.43459 -0.044,-3.65574 1.19634,-6.28839 0.44787,-0.95061 1.51386,-1.76267 2.31389,-1.76267 0.16793,0 0.27008,-0.11394 0.22678,-0.25318 -0.0433,-0.13925 -0.14282,-2.07603 -0.22128,-4.30397 -0.12104,-3.43787 -0.12774,-6.81571 -0.033,-16.40574 0.007,-0.77978 -0.005,-3.33178 -0.0294,-5.67112 -0.0239,-2.33933 0.0144,-4.54038 0.0859,-4.89122 0.1055,-0.52104 0.0565,-0.66096 -0.2684,-0.76404 -0.64398,-0.2043 -2.01304,-1.80561 -2.63638,-3.08343 -0.31814,-0.65217 -0.68501,-1.36806 -0.81524,-1.59084 -0.46497,-0.79539 -0.82677,-2.80197 -0.76268,-4.22985 0.0639,-1.421 0.0538,-1.453 -0.70022,-2.274989 -0.42086,-0.458538 -1.01439,-1.210456 -1.31914,-1.670955 -0.30469,-0.4605 -0.64826,-0.837248 -0.76342,-0.837248 -0.11506,0 -0.15454,-0.05478 -0.0875,-0.121763 0.067,-0.06698 -0.0581,-0.317661 -0.27786,-0.556977 -1.23084,-1.339874 -3.03422,-3.78808 -2.92296,-3.968093 0.0713,-0.115304 0.012,-0.170325 -0.1342,-0.122481 -0.14497,0.04784 -0.5827,-0.32022 -0.9726,-0.817847 -0.38988,-0.49765 -1.09228,-1.356667 -1.56084,-1.908931 -0.46859,-0.552288 -0.95942,-1.204906 -1.09075,-1.450274 -0.26729,-0.499468 -0.32448,-0.576976 -1.18962,-1.61237 -0.33807,-0.404593 -0.61466,-0.837511 -0.61466,-0.962073 0,-0.124633 -0.073,-0.226541 -0.16219,-0.226541 -0.0892,0 -0.4215,-0.410263 -0.73845,-0.911717 -0.45514,-0.72003 -0.63393,-0.863849 -0.85055,-0.684075 -0.15094,0.125112 -0.27426,0.33132 -0.27426,0.458059 0,0.126787 -0.21171,0.458873 -0.47067,0.738067 -0.25891,0.27917 -0.64625,0.779093 -0.86081,1.110916 -0.35419,0.547767 -1.62974,1.994261 -3.22598,3.65835 -0.33438,0.348568 -0.74309,0.886288 -0.90825,1.194906 -0.16506,0.308595 -1.35174,1.625527 -2.63683,2.926504 -1.28509,1.300952 -2.68226,2.886242 -3.10484,3.52288 -0.42256,0.636613 -1.53721,1.965483 -2.47699,2.953032 -0.93975,0.98753 -1.70865,1.88398 -1.70865,1.99211 0,0.10813 -0.52409,0.77103 -1.16463,1.47312 -0.64053,0.70209 -1.37322,1.55871 -1.62818,1.90362 -0.25496,0.34491 -0.72211,0.85497 -1.03807,1.13347 -0.31594,0.27848 -0.6086,0.60786 -0.65037,0.73192 -0.16339,0.48555 -5.82217,6.65779 -7.03511,7.67348 -0.26606,0.22271 -0.75553,0.65573 -1.08767,0.96207 -0.33215,0.30634 -0.6807,0.55698 -0.77455,0.55698 -0.2679,0 -3.61476,3.44864 -4.2752,4.40525 -0.32687,0.47343 -0.67599,0.86079 -0.77584,0.86079 -0.35747,0 -1.5868,1.33424 -2.10559,2.28535 -0.83067,1.52278 -1.1618,1.96799 -1.46367,1.96799 -0.1866,0 -0.28054,0.24193 -0.28054,0.72221 0,1.10005 0.7046,2.19089 1.44504,2.2372 0.58678,0.0367 1.59232,0.51455 1.60242,0.76152 0.005,0.12573 0.21027,0.38727 0.45571,0.5812 0.74359,0.5874 2.20798,1.66037 2.55263,1.8703 1.36824,0.83347 1.99995,1.27552 2.34962,1.6441 0.22271,0.23485 0.86079,0.72997 1.41779,1.10025 0.55697,0.37028 1.24638,0.86242 1.53201,1.09364 0.28563,0.23123 0.7734,0.60268 1.08393,0.82547 0.31056,0.22278 1.17386,0.90637 1.91843,1.51905 0.7446,0.61268 1.8974,1.52388 2.56179,2.02489 0.66439,0.501 1.25354,0.95672 1.30923,1.0127 0.0557,0.056 0.557,0.45861 1.11398,0.89473 0.55698,0.43612 1.10383,0.89908 1.21524,1.0288 0.11147,0.1297 0.88612,0.76093 1.7216,1.4027 0.83547,0.64177 1.99804,1.61431 2.5835,2.1612 0.58547,0.5469 1.1551,0.99436 1.26589,0.99436 0.11076,0 0.20477,0.11394 0.20908,0.25317 0.007,0.2401 0.54678,0.68753 2.50329,2.07604 0.47089,0.33419 2.12978,1.75088 3.68644,3.1482 1.55665,1.39732 3.01628,2.67332 3.24364,2.83556 0.22726,0.16224 0.50387,0.45945 0.61448,0.66047 0.11076,0.20101 0.52815,0.56558 0.92777,0.81015 0.87308,0.53429 2.78938,2.3064 2.78938,2.57946 0,0.10693 0.0794,0.19442 0.17679,0.19442 0.22391,0 2.59281,1.88729 3.09321,2.46424 0.20669,0.23831 0.3758,0.5105 0.3758,0.60485 0,0.0943 0.0954,0.17154 0.21218,0.17154 0.11674,0 0.59966,0.41015 1.07319,0.91143 0.47354,0.50129 0.90603,0.91143 0.96107,0.91143 0.17559,0 6.05766,5.84548 6.05766,6.02001 0,0.0922 0.47851,0.67644 1.06334,1.29846 4.82617,5.13305 5.72914,6.04917 5.9624,6.04917 0.14616,0 0.2657,0.0787 0.2657,0.17499 0,0.0962 0.36457,0.42764 0.81017,0.73644 0.44557,0.30879 0.81014,0.62356 0.81014,0.6995 0,0.30514 2.22069,2.43409 3.69637,3.54368 0.86332,0.64915 1.56969,1.25879 1.56969,1.35474 0,0.43794 0.42139,0.0915 0.96674,-0.79483 z M 129.86904,152.8196 c -0.0624,-0.0624 -0.22582,-1.3e-4 -0.36318,0.13829 -0.19856,0.20004 -0.17535,0.22329 0.11339,0.11339 0.19975,-0.0761 0.31213,-0.18932 0.24979,-0.25167 z m -17.27188,-19.21201 c -0.13923,-0.0562 -0.36711,-0.0562 -0.50636,0 -0.13923,0.0562 -0.0254,0.10217 0.25317,0.10217 0.2785,0 0.39244,-0.046 0.25319,-0.10217 z m 38.53322,-4.52428 c -0.0689,-0.11141 -0.23372,-0.20114 -0.36639,-0.19944 -0.14497,0.002 -0.11985,0.0815 0.0627,0.19944 0.38909,0.25146 0.4592,0.25146 0.30381,0 z M 78.418543,84.119425 c 0.0689,-0.111477 0.0287,-0.20262 -0.0892,-0.20262 -0.11794,0 -0.21458,0.09114 -0.21458,0.20262 0,0.111477 0.0402,0.20262 0.0892,0.20262 0.049,0 0.14568,-0.09114 0.21458,-0.20262 z m 23.190817,-9.721919 c 0,-0.111477 -0.0964,-0.20262 -0.21459,-0.20262 -0.11793,0 -0.15812,0.09114 -0.0892,0.20262 0.0689,0.111477 0.1653,0.20262 0.21458,0.20262 0.049,0 0.0892,-0.09114 0.0892,-0.20262 z"
       id="path836"
       sodipodi:nodetypes="cssscssssssssssssssssssssssssssssssscsssssssssssssssssssssssscsssssssssscssssssscssscsssssssssssscssssssssssssssssssscccsssssssssssssccsssssssssssssssssssssssssscsssscssssssssssssscsssssscsssssssscssssscsssssssssscssssssssssscssssssssssscsssssssssssssssssssscsssssssssscccssssssssscssssssssssssssscsssssscssssssssssssscssssssscsssssccssssssssccsssscssssssssssssssssssssssssssssssssssccccccsssssssssssscssssscccsssssssscscsssssssssssssssssssssssssssssscsssssssssssssscssssssssssssssssssssccssssssssssssssssssssssss" />
    <path
       style="opacity:0.491961;fill:#008600;stroke-width:6.10557;stroke-dasharray:0, 67.1613"
       d="m 326.62104,240.68572 c -9.96466,3.1307 -12.9996,15.78899 -21.05444,21.9779 -5.77788,8.83493 -19.89851,17.24717 -20.81479,26.15772 13.37742,13.51603 23.11107,33.04811 41.37844,40.50529 13.19115,0.0682 27.9244,-4.52759 39.51556,4.73477 17.71893,10.27887 22.80268,32.1175 18.38953,51.02269 -3.34527,12.75709 14.40364,18.15525 20.19639,27.70545 7.77853,8.92275 17.5372,17.8462 30.45187,15.08885 17.87754,2.09852 37.65657,16.50849 34.59107,36.58726 1.13252,18.90356 -9.71548,39.49075 -30.00478,42.02732 -10.79717,3.82378 -22.40489,1.55225 -29.7903,-7.66309 -9.19336,-5.68192 -10.23813,-16.0243 -13.44131,-25.04728 -8.73184,-16.18252 -21.31072,-30.23069 -33.83632,-43.29349 -0.3677,34.03807 -0.87102,68.1113 -1.15483,102.12759 26.34445,11.79323 26.05621,55.10153 2.48701,69.45848 -21.14945,8.60821 -52.70031,3.02945 -59.26717,-21.97051 -4.37198,-14.7603 -3.34954,-34.76246 11.52762,-43.28936 -0.97805,-39.29466 2.01637,-78.91034 -1.71162,-118.0229 -7.50562,-9.91453 -16.17534,-20.73305 -15.37565,-34.23225 -6.99457,-20.33265 -25.51252,-34.45978 -37.08631,-52.24337 -6.85611,-10.84266 -13.61134,-21.27444 -21.29029,-4.23112 -39.38425,47.18029 -80.31633,93.1185 -123.52393,136.79608 -2.67861,5.28593 -13.78577,12.74359 -8.61638,19.14577 51.58109,34.27162 98.96355,74.87037 145.33051,115.90224 34.74078,31.13553 65.09284,67.22895 101.30255,96.63879 5.0346,1.8916 8.20802,-5.58608 13.55268,-5.58025 20.15497,-16.41404 34.33292,-39.14693 52.55977,-57.65328 46.61487,-51.70819 93.33528,-103.38866 138.68302,-156.19106 5.63513,-4.7542 8.52779,-13.18587 1.28679,-17.98637 -42.03298,-37.16574 -83.63868,-74.97913 -120.74085,-117.20627 -32.71094,-36.44966 -68.02385,-71.17081 -108.41726,-98.95183 -1.03128,-1.74366 -3.17245,-2.51215 -5.12658,-2.31377 z"
       id="path1205"
       transform="scale(0.26458333)" />
  </g>
</svg>
