<?xml version="1.0" encoding="UTF-8" standalone="no"?>
<!-- Created with Inkscape (http://www.inkscape.org/) -->

<svg
   width="74.48922mm"
   height="88.957741mm"
   viewBox="0 0 74.48922 88.957741"
   version="1.1"
   id="svg5"
   inkscape:version="1.1.1 (c3084ef, 2021-09-22)"
   sodipodi:docname="signature copy 7.svg"
   xmlns:inkscape="http://www.inkscape.org/namespaces/inkscape"
   xmlns:sodipodi="http://sodipodi.sourceforge.net/DTD/sodipodi-0.dtd"
   xmlns="http://www.w3.org/2000/svg"
   xmlns:svg="http://www.w3.org/2000/svg">
  <sodipodi:namedview
     id="namedview7"
     pagecolor="#ffffff"
     bordercolor="#666666"
     borderopacity="1.0"
     inkscape:pageshadow="2"
     inkscape:pageopacity="0.0"
     inkscape:pagecheckerboard="0"
     inkscape:document-units="mm"
     showgrid="false"
     inkscape:zoom="0.51580387"
     inkscape:cx="-538.96455"
     inkscape:cy="-204.53511"
     inkscape:window-width="2560"
     inkscape:window-height="1387"
     inkscape:window-x="0"
     inkscape:window-y="25"
     inkscape:window-maximized="1"
     inkscape:current-layer="layer1" />
  <defs
     id="defs2" />
  <g
     inkscape:label="Layer 1"
     inkscape:groupmode="layer"
     id="layer1"
     transform="translate(-100.82189,-163.65031)">
    <path
       style="fill:#000000;stroke-width:0.217777"
       d="m 154.07824,252.51249 c -2.70513,-0.25827 -6.60953,-1.68053 -10.10951,-3.68258 -1.60787,-0.91973 -1.68982,-0.94126 -3.17491,-0.83418 -1.96748,0.14198 -3.01248,0.4652 -3.75641,1.16218 -1.01492,0.95088 -2.08235,1.52991 -4.2136,2.28556 -1.96064,0.69521 -2.17745,0.72548 -5.09663,0.71157 -2.67036,-0.0129 -3.27253,-0.0859 -4.85012,-0.58926 -0.99067,-0.3161 -2.06867,-0.71754 -2.39554,-0.89203 -0.32687,-0.1744 -1.05603,-0.52056 -1.62032,-0.76898 -1.71005,-0.75285 -4.33089,-2.62755 -5.94755,-4.2543 -1.54802,-1.55771 -4.27298,-5.04156 -5.03611,-6.43866 -0.22893,-0.41921 -0.97748,-1.7088 -1.66327,-2.86576 -0.89893,-1.51645 -1.39716,-2.67126 -1.78525,-4.13775 -0.29608,-1.11885 -0.68291,-2.49974 -0.85964,-3.06868 -0.24024,-0.77317 -0.25516,-1.0353 -0.0594,-1.03777 0.18726,-0.002 0.18108,-0.0545 -0.0206,-0.18288 -0.55268,-0.35059 -1.56215,-4.87016 -2.12297,-9.50483 -0.61135,-5.05265 -0.63064,-5.44439 -0.43227,-8.78495 0.17825,-3.00316 0.55816,-5.54588 0.85869,-5.74834 0.16616,-0.11189 0.1605,-0.16102 -0.0206,-0.16333 -0.29924,-0.005 -0.0327,-1.1564 0.38341,-1.65777 0.13941,-0.16796 0.18134,-0.30557 0.0931,-0.30557 -0.0885,0 -0.008,-0.23536 0.18186,-0.52277 0.18828,-0.28752 0.85321,-1.48803 1.4774,-2.66778 1.36382,-2.57768 3.36186,-5.60968 4.81701,-7.30971 1.25954,-1.47148 3.09644,-2.88199 3.46032,-2.65708 0.14996,0.0929 0.1978,0.0643 0.11523,-0.0689 -0.2032,-0.32865 1.8378,-1.25898 3.99299,-1.82025 1.49356,-0.38896 2.48202,-0.48486 5.11775,-0.4964 2.92811,-0.0129 3.50366,0.0494 5.55333,0.60163 3.40344,0.9168 6.95279,2.41313 8.06278,3.39912 0.20217,0.1798 0.70038,0.62543 1.10691,0.99055 0.9221,0.82813 2.30796,1.68251 2.5732,1.58636 0.10983,-0.0399 0.98731,-0.74634 1.94968,-1.56998 0.96238,-0.82363 2.19342,-1.80363 2.73561,-2.17775 3.15683,-2.17843 4.06198,-2.72934 5.24068,-3.18968 0.71866,-0.2807 1.50281,-0.63473 1.74262,-0.78677 0.77888,-0.49389 3.58234,-0.78426 6.52429,-0.67579 2.52984,0.0934 3.07897,0.18802 5.03228,0.86723 2.45254,0.85296 3.52284,1.46056 5.42965,3.08226 1.58736,1.35011 1.86837,1.68115 1.73858,2.0482 -0.055,0.15587 -0.0154,0.23047 0.0903,0.16565 0.23201,-0.14327 1.86146,1.92717 2.18357,2.77439 0.14044,0.3695 0.48671,0.69817 0.87987,0.83521 0.3565,0.12424 0.63167,0.29087 0.61143,0.37019 -0.0206,0.0792 0.037,0.36106 0.12732,0.62604 0.24719,0.72551 -0.1852,1.30628 -1.44674,1.94338 -1.28537,0.64909 -2.93501,1.73313 -3.42218,2.2488 -0.17979,0.19009 -0.75691,0.70753 -1.28282,1.14966 -0.98959,0.832 -2.61204,3.42063 -3.16536,5.05041 -0.17105,0.50392 -0.43524,1.91138 -0.58705,3.12774 -0.24359,1.95107 -0.23021,2.50074 0.11317,4.6671 0.21401,1.35055 0.51884,2.86525 0.67728,3.366 0.4054,1.28143 1.80431,3.2611 3.28889,4.65445 0.69518,0.65238 1.57694,1.48018 1.95953,1.83952 0.81144,0.76208 1.18693,1.02493 2.37188,1.66031 0.47912,0.25696 0.92012,0.53961 0.98,0.62825 0.0599,0.0887 0.42739,0.23021 0.81666,0.31471 0.3893,0.0844 0.70779,0.23715 0.70779,0.33937 0,0.10211 0.17156,0.24127 0.38111,0.30902 0.37714,0.12192 0.92555,1.05048 0.92555,1.56704 0,0.14713 -0.26267,0.47408 -0.58373,0.72662 -0.50723,0.39899 -0.55559,0.53663 -0.3689,1.05024 0.34259,0.9426 -0.98615,5.89877 -2.08521,7.77774 -0.3503,0.59888 -1.04749,1.87288 -1.5493,2.83111 -0.5018,0.95821 -1.37025,2.33021 -1.92987,3.04888 -0.5596,0.71866 -1.1974,1.60066 -1.41727,1.95999 -0.46057,0.7527 -2.61083,2.91255 -4.04348,4.06152 -0.99844,0.80079 -2.62112,1.70959 -3.0524,1.70959 -0.13118,0 -0.84568,0.30254 -1.58757,0.67226 -1.49376,0.74452 -2.35745,0.86626 -4.61556,0.65066 z m 1.5601,-4.13937 c 0.69904,-0.35128 1.65983,-0.79619 2.13511,-0.98872 0.47526,-0.1924 1.54035,-0.8606 2.36684,-1.48466 1.82722,-1.37956 4.88407,-5.33829 6.5097,-8.43014 0.59827,-1.1379 1.20839,-2.2159 1.35585,-2.39557 0.26648,-0.32476 1.64686,-3.66144 1.64465,-3.9755 0,-0.0905 0.24307,-0.6709 0.5418,-1.28994 0.29865,-0.6191 0.51917,-1.14513 0.49,-1.16903 -0.0291,-0.0231 -0.37572,-0.20757 -0.77014,-0.40826 -0.63265,-0.3218 -1.602,-1.09034 -4.40062,-3.48899 -1.8238,-1.56316 -3.31458,-3.3018 -4.23612,-4.94048 -0.54478,-0.96878 -0.99113,-1.82434 -0.99188,-1.90122 0,-0.0769 -0.13349,-0.39336 -0.29528,-0.70316 -0.16179,-0.30984 -0.41443,-1.24084 -0.56169,-2.0689 -0.14713,-0.82806 -0.36437,-1.82225 -0.48249,-2.20929 -0.27846,-0.91263 -0.27687,-4.33758 0.003,-5.42191 0.1196,-0.46376 0.27941,-1.33208 0.35534,-1.92949 0.0759,-0.59746 0.26488,-1.23446 0.41993,-1.41557 0.15511,-0.18108 0.54132,-0.86829 0.85844,-1.52707 1.24522,-2.58684 3.37598,-5.05355 5.7404,-6.64544 0.69281,-0.46644 1.29987,-0.87644 1.34905,-0.91109 0.0491,-0.0347 -0.0733,-0.24281 -0.27221,-0.46261 -0.19883,-0.21966 -0.36162,-0.46646 -0.36162,-0.54823 0,-0.0818 -0.38586,-0.71103 -0.85746,-1.39841 -1.22711,-1.78854 -3.20792,-3.44144 -5.01916,-4.18835 -2.60206,-1.07301 -6.98296,-1.11496 -8.93223,-0.0857 -0.29946,0.15819 -1.22282,0.58627 -2.05193,0.95139 -0.82911,0.36515 -1.93533,0.98087 -2.45825,1.36832 -1.41014,1.04477 -3.2056,2.41988 -3.32981,2.55018 -0.0599,0.0628 -0.36579,0.26126 -0.67977,0.44092 -0.77631,0.44419 -2.04655,1.48484 -2.85761,2.34109 -0.37065,0.39133 -0.89007,0.70779 -1.16177,0.70779 -0.92418,0 -2.37831,-0.82299 -4.01195,-2.27064 -0.89833,-0.79604 -1.73141,-1.51732 -1.8513,-1.6028 -0.11986,-0.0854 -0.58807,-0.43197 -1.04039,-0.76995 -0.45234,-0.33799 -2.02026,-1.02069 -3.48424,-1.51715 l -2.66184,-0.9026 -3.48442,0.0206 c -3.13764,0.018 -3.66131,0.0777 -5.26138,0.59481 -1.78977,0.57836 -3.50381,1.58163 -4.81084,2.81589 -0.38927,0.36759 -0.70775,0.58815 -0.70775,0.4901 0,-0.098 -0.14713,-0.0563 -0.32667,0.0929 -0.46086,0.38245 -0.40895,0.77119 0.0545,0.40776 0.34488,-0.27046 0.3529,-0.26287 0.0841,0.0797 -0.16333,0.20835 -0.37724,0.32906 -0.47542,0.26838 -0.0983,-0.0607 -0.35321,0.18546 -0.56672,0.54685 -0.21349,0.36144 -0.47084,0.65716 -0.57187,0.65716 -0.10109,0 -0.12321,0.098 -0.0491,0.21786 0.0741,0.11987 0.0257,0.21787 -0.10726,0.21787 -0.13298,0 -0.39336,0.36751 -0.57871,0.81666 -0.18546,0.44918 -0.54783,1.11067 -0.80556,1.47 -0.2577,0.35933 -0.71357,1.1368 -1.01302,1.7277 -0.29943,0.59091 -0.70735,1.24383 -0.90646,1.45091 -1.36837,1.42326 -2.35457,9.90164 -1.70746,14.67914 0.12989,0.95821 0.32016,2.53415 0.42302,3.50206 0.18957,1.78339 1.50775,7.66006 2.12106,9.4557 0.18417,0.539 0.57846,1.86199 0.87634,2.93999 0.50091,1.81264 1.41141,3.54124 2.51461,4.77403 0.20963,0.23433 0.38112,0.49556 0.38112,0.5807 0,0.21837 1.43136,2.31966 2.13429,3.13308 1.39447,1.61363 2.10745,2.59888 2.03975,2.81867 -0.0399,0.12963 0.003,0.15999 0.0957,0.0674 0.0926,-0.0926 0.56619,0.21143 1.05258,0.67537 0.90574,0.864 3.64287,2.59615 5.08591,3.21856 2.35804,1.01707 5.37664,1.22523 7.6107,0.52486 1.80587,-0.56614 2.42942,-0.90682 3.5664,-1.94855 0.94239,-0.86343 3.00849,-1.70939 3.47328,-1.42213 0.11935,0.0738 1.09418,0.0103 2.16621,-0.14173 2.36326,-0.33448 3.04535,-0.16359 6.60534,1.65429 2.49799,1.27567 5.81259,2.4581 7.64439,2.72707 0.60552,0.089 1.11699,0.17388 1.13662,0.1888 0.0206,0.0154 0.6076,-0.26023 1.30666,-0.61151 z m -18.63982,-59.60613 c -0.68453,-0.87024 -0.6807,-4.31057 0.008,-7.26618 0.23715,-1.01809 0.47863,-2.07492 0.5364,-2.34845 0.0576,-0.27352 0.57802,-1.49852 1.15614,-2.7222 0.57815,-1.22369 1.17389,-2.60099 1.32387,-3.06066 0.23947,-0.73423 1.89209,-3.14777 2.72658,-3.98221 0.16359,-0.16359 0.47642,-0.52321 0.69526,-0.79915 0.21889,-0.27594 1.66178,-1.44862 3.2066,-2.60597 3.26751,-2.44794 4.19699,-2.77404 5.33747,-1.87257 0.3573,0.2824 0.65505,0.63597 0.66169,0.7857 0.008,0.1497 0.10803,0.27221 0.22506,0.27221 0.12913,0 0.11421,0.21709 -0.0376,0.55034 -0.19008,0.41736 -0.18906,0.6121 0.005,0.80579 0.31566,0.31565 0.33634,2.94889 0.0355,4.53461 -0.20655,1.0896 -2.76161,6.62715 -3.33454,7.22714 -0.5747,0.60183 -1.6385,2.09879 -2.59452,3.65099 -0.55328,0.89833 -1.18464,1.82933 -1.403,2.06888 -0.21837,0.23947 -0.82145,0.92387 -1.34023,1.52074 -1.34002,1.54169 -3.26619,2.93753 -4.06565,2.94625 -0.35933,0.005 -0.89833,0.19883 -1.19779,0.433 -0.75079,0.58728 -1.41037,0.54038 -1.94417,-0.13839 z m 3.71697,-4.38061 c 1.06038,-1.12132 2.92456,-3.66466 4.21276,-5.74752 0.12166,-0.19652 0.55047,-0.81811 0.95304,-1.38103 0.82533,-1.15408 2.91111,-5.26817 3.25895,-6.42809 0.26817,-0.89432 0.47073,-2.39557 0.32319,-2.39557 -0.0563,0 -0.61418,0.33966 -1.23958,0.75475 -1.71418,1.13783 -4.1955,3.92151 -4.95679,5.56081 -0.19471,0.41921 -0.77458,1.62978 -1.28868,2.69018 -0.51413,1.06038 -1.21787,2.97138 -1.56388,4.24666 -1.07399,3.9584 -1.05452,4.13318 0.30099,2.69981 z"
       id="path836"
       sodipodi:nodetypes="csssssssssssssscssscsscssccssccssssssscsscsscsscsssssssssssssssssssssscccsssscscssscssssssssssssssssssssssssccssscssssssssssssssssssscssssscssccccscsssssscssccsssscsccssssssssss" />
  </g>
</svg>
