<?xml version="1.0" encoding="UTF-8" standalone="no"?>
<!-- Created with Inkscape (http://www.inkscape.org/) -->

<svg
   width="110.43112mm"
   height="111.87566mm"
   viewBox="0 0 110.43112 111.87566"
   version="1.1"
   id="svg5"
   inkscape:version="1.1.1 (c3084ef, 2021-09-22)"
   sodipodi:docname="music copy 3.svg"
   xmlns:inkscape="http://www.inkscape.org/namespaces/inkscape"
   xmlns:sodipodi="http://sodipodi.sourceforge.net/DTD/sodipodi-0.dtd"
   xmlns="http://www.w3.org/2000/svg"
   xmlns:svg="http://www.w3.org/2000/svg">
  <sodipodi:namedview
     id="namedview7"
     pagecolor="#ffffff"
     bordercolor="#666666"
     borderopacity="1.0"
     inkscape:pageshadow="2"
     inkscape:pageopacity="0.0"
     inkscape:pagecheckerboard="0"
     inkscape:document-units="mm"
     showgrid="false"
     inkscape:zoom="3.4292009"
     inkscape:cx="188.67369"
     inkscape:cy="304.2983"
     inkscape:window-width="1946"
     inkscape:window-height="1223"
     inkscape:window-x="0"
     inkscape:window-y="25"
     inkscape:window-maximized="0"
     inkscape:current-layer="layer1" />
  <defs
     id="defs2" />
  <g
     inkscape:label="Layer 1"
     inkscape:groupmode="layer"
     id="layer1"
     transform="translate(-33.379273,-101.45168)">
    <path
       id="path836"
       style="fill:#000000;stroke-width:0.572761"
       transform="scale(0.26458333)"
       d="m 337.38867,383.43945 c -0.6689,0.93071 -1.17054,1.88981 -1.18359,2.7461 -0.0626,4.43656 0.78765,37.15401 1.01367,39.00976 0.4755,3.90478 0.77021,4.55935 2.41211,5.34375 2.92702,1.39843 3.23689,1.47922 2.77148,0.72656 -0.33407,-0.53976 -0.18421,-0.57247 0.6211,-0.13476 1.13953,0.6189 15.59662,4.28801 19.39062,4.92187 2.16363,0.36133 4.47838,1.16913 15.50391,5.40821 2.54169,0.97727 4.99021,1.78175 5.44141,1.79687 0.45087,0.0107 1.85123,0.51616 3.11132,1.125 1.26006,0.60858 2.60465,1.11184 2.99024,1.12696 0.38536,0.0107 1.80318,0.5181 3.15039,1.12695 2.30702,1.04201 3.60186,1.51654 4.59765,1.68359 1.04017,0.17431 14.13536,9.34899 16.4668,11.53711 1.41759,1.33043 4.25311,3.7716 6.30078,5.42578 2.0476,1.65426 4.78471,4.13809 6.08203,5.51758 3.07091,3.2657 6.91799,6.77953 12.46289,11.38477 2.46547,2.04759 5.25637,4.43178 6.20118,5.29687 0.94473,0.86536 1.98884,1.40407 2.32031,1.19922 0.336,-0.20768 0.43626,-0.10024 0.22461,0.24219 -0.20943,0.33879 1.43781,2.22981 3.67578,4.21875 3.74808,3.3312 7.84394,8.33123 11.43555,13.95898 2.28019,3.57283 12.58203,24.23424 12.58203,25.23438 0,0.53295 0.27043,0.72664 0.66211,0.48437 0.4131,-0.25512 0.50574,-0.15642 0.24609,0.26367 -0.22832,0.36945 0.0857,1.50539 0.69727,2.52344 0.61156,1.01806 1.68206,3.78383 2.38086,6.14649 0.69875,2.36265 1.60506,5.0686 2.01367,6.01367 2.01804,4.66771 5.65273,17.51636 6.10937,21.59961 0.28358,2.53432 0.65773,4.83788 0.83008,5.11719 0.17318,0.27935 0.41717,2.4958 0.54492,4.92578 0.12771,2.42997 0.64516,7.25888 1.14844,10.73046 0.74551,5.1433 1.14557,6.49442 2.16211,7.30079 1.4651,1.16205 2.95027,1.35557 2.31641,0.30078 -0.34062,-0.56576 -0.24969,-0.56997 0.43554,-0.0156 0.68988,0.55786 1.12088,0.5211 2.12696,-0.18359 1.06057,-0.74275 1.59968,-0.77359 3.39257,-0.18164 1.17256,0.38695 3.55212,0.90503 5.28711,1.14844 v -0.002 c 5.44007,0.76426 28.2225,-0.58404 33.46289,-1.98047 3.63614,-0.96884 4.37008,-2.53391 2.63282,-5.625 l -1.20118,-2.13476 1.23829,-2.42578 c 1.03302,-2.02575 1.16979,-2.9526 0.82812,-5.60938 -0.22541,-1.74988 -0.48275,-4.59925 -0.57422,-6.33398 -0.26128,-4.96728 -0.84575,-8.52586 -2.11133,-12.86914 -0.64505,-2.21356 -1.43623,-5.0544 -1.75976,-6.31446 -1.63903,-6.38366 -3.51624,-12.12504 -4.22656,-12.93359 -0.43559,-0.49807 -0.64425,-1.05693 -0.46094,-1.24023 0.18353,-0.18335 -0.0619,-0.93611 -0.54492,-1.67383 -0.48337,-0.73769 -1.26234,-2.88691 -1.73047,-4.77539 -1.03733,-4.18693 -2.07462,-6.97885 -3.29688,-8.875 -0.5077,-0.78758 -1.08799,-2.14151 -1.28906,-3.00782 -0.201,-0.86634 -0.61662,-1.57421 -0.92578,-1.57421 -0.30894,0 -0.5625,-0.33676 -0.5625,-0.74805 0,-0.90792 -3.46737,-9.69504 -5.69336,-14.42969 -0.88864,-1.8901 -1.95949,-4.3388 -2.37891,-5.44141 -1.07988,-2.83677 -4.68713,-7.98864 -5.32031,-7.59765 -0.2914,0.17983 -0.35448,0.0426 -0.13867,-0.30664 0.50404,-0.81551 -2.70422,-6.01229 -3.34961,-5.42578 -0.26721,0.24279 -0.325,0.15826 -0.12695,-0.18946 0.19816,-0.34771 -0.46857,-1.87194 -1.48243,-3.38671 -5.04196,-7.53294 -5.32051,-7.98863 -8.5664,-14.02344 -1.10132,-2.0476 -2.48677,-4.62626 -3.08008,-5.72852 -0.59327,-1.10234 -1.21374,-2.13341 -1.37891,-2.29101 -0.16475,-0.15784 -0.73519,-0.93118 -1.26757,-1.71875 -4.7709,-7.05971 -6.9359,-9.66594 -13.64649,-16.42578 -4.23284,-4.26414 -10.01639,-9.7192 -12.85156,-12.12305 -2.83518,-2.40382 -5.67096,-4.84227 -6.30078,-5.41797 -0.63001,-0.5757 -2.04783,-1.58217 -3.15039,-2.23633 -5.52639,-3.27779 -9.64606,-6.05663 -11.44141,-7.71875 -1.09478,-1.01359 -2.64018,-2.16983 -3.43555,-2.57031 -0.79528,-0.40063 -2.95915,-1.71188 -4.80859,-2.91211 -2.97528,-1.93104 -14.30922,-7.85718 -19.83398,-10.37109 -2.56589,-1.16746 -20.36816,-7.23633 -21.22657,-7.23633 -0.35671,0 -2.54962,-0.9033 -4.87304,-2.00586 -2.32347,-1.1026 -4.55465,-2.00989 -4.95703,-2.01367 -0.82526,-0.01 -4.43679,-1.23508 -5.31836,-1.80469 -0.31745,-0.20481 -1.60757,-0.55026 -2.86524,-0.76758 -1.25764,-0.2171 -3.44569,-0.71943 -4.86328,-1.11719 -1.80646,-0.50729 -6.39036,-0.67973 -15.32422,-0.57617 -7.25076,0.084 -12.88625,-0.0772 -13.07031,-0.375 -0.17779,-0.28762 -0.5618,-0.37478 -0.85547,-0.19336 -0.39804,0.2461 -0.43103,-0.0923 -0.3457,-0.54297 z m -14.91992,0.72461 c -0.93074,0.0291 -1.73219,0.44391 -2.18555,1.29102 -0.4724,0.8829 -0.81521,1.03635 -1.27929,0.57226 -0.79563,-0.79816 -7.38082,-0.80673 -10.42969,-0.0156 -1.2601,0.3267 -2.67754,0.61196 -3.15039,0.63086 -1.32303,0.0548 -6.10194,1.32936 -11.22656,2.99609 -2.55187,0.82995 -5.54917,1.62547 -6.66016,1.76758 -1.11111,0.14185 -2.66196,0.50453 -3.44727,0.80273 -0.78534,0.29859 -4.74744,1.22453 -8.80468,2.0586 -4.05733,0.8341 -9.05194,2.0311 -11.09961,2.6582 -5.63207,1.7252 -19.59879,7.62292 -20.85938,8.8086 -0.34095,0.32047 -2.16653,1.06065 -4.05664,1.64648 -1.89014,0.58583 -4.0284,1.53136 -4.75195,2.09961 -0.72359,0.56802 -2.04199,1.19169 -2.92969,1.38672 -0.8877,0.19498 -2.09941,0.79788 -2.69336,1.34179 -0.59391,0.5435 -2.5588,1.73222 -4.36719,2.64063 -2.83668,1.42488 -3.19105,1.77621 -2.57812,2.5625 0.6305,0.80844 0.59596,0.82233 -0.30274,0.11719 -0.87269,-0.68485 -1.15572,-0.66571 -2.04882,0.14258 -0.57022,0.51591 -1.23505,0.93945 -1.47657,0.93945 -0.62623,0 -9.87083,6.11923 -12.90625,8.54297 -1.40428,1.12116 -3.26407,2.42736 -4.13476,2.90429 -2.84621,1.55811 -18.94991,15.57384 -24.99024,21.75 -3.24744,3.32051 -7.50078,8.19486 -9.45117,10.83203 -7.77944,10.51922 -10.99346,14.76994 -12.67187,16.76368 -3.05511,3.62872 -10.33667,16.38406 -11.54102,20.21484 -1.04768,3.33211 -3.05344,9.00502 -3.6582,10.34766 -1.59768,3.54493 -8.0566,24.19702 -7.83399,25.04882 0.14552,0.55658 0.0433,0.87529 -0.22656,0.70899 -0.63572,-0.39292 -0.91888,1.61074 -1.70117,12.04492 -0.35456,4.72528 -0.76225,9.49314 -0.90625,10.5957 -1.34857,10.30458 -1.83049,18.25144 -1.66797,27.49219 0.19684,11.18774 0.47409,13.17383 1.84375,13.17383 0.4659,0 1.62566,0.55363 2.57617,1.23047 1.52652,1.08676 2.77259,1.27142 10.6836,1.58398 v -0.002 c 13.745,0.54338 22.56039,0.21894 23.36914,-0.86133 0.60132,-0.79884 0.83423,-0.79694 2.40625,0.0156 2.35188,1.2161 4.99876,1.13212 6.33007,-0.19922 0.60375,-0.60374 0.98687,-1.20844 0.85157,-1.34375 -0.48416,-0.48423 -0.62212,-7.61248 -0.17969,-9.29883 0.24813,-0.94507 0.60387,-3.13653 0.78906,-4.86914 0.57846,-5.40302 0.92511,-7.49342 2.61524,-15.75195 0.90259,-4.41026 1.9249,-9.56498 2.27148,-11.45508 1.24135,-6.7714 2.28619,-10.65571 3.69531,-13.73633 0.78739,-1.72135 1.60028,-3.84405 1.80664,-4.71875 0.20614,-0.87473 0.81624,-2.36352 1.35743,-3.30859 0.54126,-0.94504 1.44623,-3.52343 2.00976,-5.72852 1.45459,-5.69382 6.21918,-15.3624 9.22266,-18.71484 0.65646,-0.7327 1.86404,-2.49062 2.68359,-3.90821 0.81959,-1.41758 2.12471,-3.24854 2.90235,-4.06836 0.77756,-0.81985 2.40558,-2.77795 3.61718,-4.3496 2.72754,-3.53832 9.6418,-11.68804 12.59766,-14.84961 1.21383,-1.29823 3.447,-3.81115 4.96289,-5.58594 1.51582,-1.77472 5.12306,-5.12757 8.01758,-7.44922 2.89436,-2.32158 6.16501,-5.17551 7.26758,-6.3418 1.73019,-1.83016 4.79658,-3.98951 17.4707,-12.30859 2.80679,-1.84229 17.82454,-9.19727 18.78125,-9.19727 0.38003,-2.6e-4 2.32244,-0.77155 4.31641,-1.71484 3.37867,-1.5984 5.87837,-2.43341 12,-4.00781 1.54253,-0.3967 2.30735,-0.86651 2.06054,-1.26563 -0.23414,-0.37833 -0.13299,-0.47248 0.25196,-0.23437 0.35527,0.21951 2.26489,-0.23561 4.24218,-1.00977 8.54525,-3.34545 20.41343,-5.53834 25.83399,-4.77344 4.60082,0.64918 5.21027,0.0787 4.74414,-4.44531 -0.19589,-1.90004 -0.50735,-4.09914 -0.69141,-4.88672 -0.18391,-0.7875 -0.37854,-8.39096 -0.42578,-16.89648 l -0.0918,-15.46485 -1.43164,-2.11718 c -1.2587,-1.86192 -3.16947,-2.88252 -4.7207,-2.83399 z m 34.75586,9.67969 c 3.79918,0.0325 7.82457,0.1869 8.94531,0.34375 4.43668,0.62264 11.87219,2.84433 15.97656,4.77344 4.16633,1.95817 17.69704,6.75384 23.96875,8.49609 1.66889,0.46352 3.98801,1.32115 5.1543,1.9043 12.57819,6.29008 16.1106,8.1379 16.78906,8.78125 1.14395,1.08502 5.36472,3.9043 5.84571,3.9043 0.22378,-10e-6 1.78918,1.09484 3.47851,2.43359 1.68941,1.33886 5.23152,3.79704 7.86914,5.46094 2.63774,1.6639 6.49925,4.49949 8.58203,6.30078 2.08286,1.80136 4.91846,4.17538 6.30079,5.27734 2.23249,1.77963 13.57431,13.00297 15.15234,14.99414 3.40569,4.29744 7.72563,10.74935 11.70312,17.47656 2.64269,4.46979 5.05311,7.97382 5.35547,7.78711 0.30237,-0.1867 0.36879,-0.0486 0.14844,0.3086 -0.22053,0.3569 0.0913,1.36322 0.69336,2.23633 2.16949,3.14426 10.14522,15.39781 11.91797,18.31054 1.81103,2.97566 6.09124,11.6051 7.90039,15.92578 0.52762,1.26006 1.20419,2.73788 1.50391,3.28516 0.29971,0.54701 0.54882,1.32099 0.54882,1.71875 0.002,0.66709 0.55395,1.80886 3.93946,8.14648 0.66678,1.24793 1.21289,2.68654 1.21289,3.19727 0,0.51092 0.17878,1.10847 0.39648,1.32617 0.21835,0.21812 0.47917,0.96924 0.58008,1.66992 0.10099,0.70065 1.32557,4.10904 2.7207,7.57422 1.3951,3.46519 2.81899,7.59086 3.16407,9.16602 0.34514,1.57508 1.53963,5.75435 2.65429,9.28711 1.28996,4.08812 2.038,7.62739 2.06446,9.73633 0.0213,1.82252 0.40323,4.96748 0.8496,6.98828 0.44436,2.02072 0.6508,4.6312 0.45313,5.80078 -0.34231,2.02567 -0.48778,2.1446 -3.04297,2.50781 -1.47515,0.20976 -3.65199,0.35849 -4.83789,0.33203 -1.18552,-0.027 -3.63477,0.21525 -5.44141,0.53711 -6.44831,1.1496 -18.756,1.0781 -19.95117,-0.11719 -0.26683,-0.26672 -0.72897,-4.99324 -1.13281,-11.58984 -0.19279,-3.14974 -0.48604,-5.94612 -0.65234,-6.21484 -0.16581,-0.26873 -0.52437,-2.33012 -0.79688,-4.58204 -0.27277,-2.25185 -0.6089,-4.61045 -0.74609,-5.24023 -0.13758,-0.63005 -0.26847,-1.35426 -0.29492,-1.60937 -0.0244,-0.25512 -0.23644,-0.34518 -0.47266,-0.20118 -0.23603,0.14431 -0.47134,-0.54907 -0.52539,-1.54101 -0.0532,-0.99201 -0.51222,-3.09289 -1.01758,-4.66797 -0.50551,-1.57508 -1.32753,-4.28102 -1.82812,-6.01367 -0.50087,-1.73261 -1.24756,-3.92411 -1.65821,-4.86914 -0.87069,-2.00493 -1.58053,-4.67269 -1.67578,-6.29883 -0.037,-0.63005 -0.49473,-2.04779 -1.01562,-3.15039 -0.52116,-1.10253 -1.78708,-4.13159 -2.8125,-6.73047 -1.02539,-2.59892 -2.0853,-4.72461 -2.35743,-4.72461 -0.27174,0 -0.32796,-0.27079 -0.125,-0.59961 0.203,-0.32874 0.0824,-0.94369 -0.26953,-1.36719 -1.01174,-1.21901 -7.47851,-14.56787 -7.47851,-15.4375 0,-0.43135 -0.40452,-1.12187 -0.90039,-1.5332 -0.49561,-0.41121 -1.43319,-1.79506 -2.08399,-3.07617 -2.02034,-3.97554 -7.67425,-10.81737 -12.85156,-15.55274 -8.22966,-7.52704 -18.73514,-16.21466 -19.23438,-15.90625 -0.25766,0.15969 -0.39709,0.0544 -0.31054,-0.23437 0.19476,-0.64944 -6.47081,-7.92436 -8.9082,-9.72266 -0.98295,-0.72506 -2.173,-1.16894 -2.64454,-0.98828 -0.47372,0.18066 -0.66887,0.14163 -0.43945,-0.0879 0.41862,-0.41847 -1.72974,-3.08008 -2.48633,-3.08008 -0.22167,0 -1.91581,-1.50539 -3.76562,-3.34375 -3.24378,-3.22356 -7.08789,-6.24599 -7.08789,-5.57422 0,0.179 -0.51471,-0.19049 -1.14453,-0.82031 -0.63009,-0.63008 -1.49256,-1.14453 -1.91602,-1.14453 -0.42376,0 -1.23639,-0.51666 -1.80664,-1.14648 -0.57018,-0.63001 -1.29902,-1.14454 -1.61914,-1.14454 -0.32017,0 -1.00582,-0.38529 -1.52539,-0.85546 -0.51927,-0.46991 -2.34404,-1.33401 -4.05469,-1.92188 -7.92624,-2.72217 -15.34381,-5.43575 -17.4707,-6.39258 -1.28277,-0.57706 -3.73151,-1.47833 -5.44141,-2.00195 -1.70989,-0.52362 -4.01068,-1.28852 -5.11328,-1.70117 -3.50124,-1.30923 -6.47431,-2.01984 -10.59766,-2.53125 -2.20516,-0.2733 -6.19931,-1.18367 -8.87695,-2.02344 -2.67768,-0.83966 -5.41247,-1.42916 -6.07812,-1.30859 -0.9168,0.16546 -1.14809,-0.0211 -0.95118,-0.77344 0.14351,-0.54584 0.002,-1.47582 -0.31445,-2.06641 -0.63855,-1.19304 -1.20632,-8.09102 -1.45312,-17.66211 l -0.16211,-6.30468 2.29687,-1.09766 c 1.8988,-0.90716 3.49569,-1.08435 9.20508,-1.03711 z m -40.83789,0.92187 c 0.68043,-0.023 1.23786,0.008 1.70898,0.0879 l 2.2168,0.375 -0.14062,13.65625 -0.14258,13.6582 -5.1543,0.23828 c -2.83517,0.13054 -5.54082,0.36583 -6.01367,0.52344 -0.47256,0.15828 -1.24658,0.42839 -1.71875,0.59961 -1.10608,0.40123 -6.95147,1.60004 -9.16797,1.88086 -0.9408,0.11898 -2.91937,0.75081 -4.39649,1.40429 -1.47709,0.65345 -4.76465,1.71666 -7.30468,2.36133 -2.54007,0.64471 -6.84891,2.17271 -9.57617,3.39649 -2.72727,1.22369 -5.60417,2.38593 -6.39258,2.58398 -0.78837,0.1979 -3.70005,1.49815 -6.47071,2.88867 -2.77069,1.39053 -5.3234,2.52735 -5.67187,2.52735 -0.3484,0 -1.14693,0.4793 -1.77539,1.06445 -0.62846,0.58552 -2.07189,1.37116 -3.20703,1.74609 -3.69067,1.21803 -17.03568,10.92446 -23.24805,16.90821 -1.98678,1.91365 -4.26414,3.81959 -5.05859,4.23632 -0.84159,0.44168 -1.31713,1.08755 -1.14063,1.54688 0.17386,0.45313 0.0103,0.68514 -0.38476,0.54492 -0.70005,-0.24835 -8.97941,7.20889 -9.00586,8.11133 -0.008,0.27243 -1.683,2.27034 -3.72266,4.43945 -2.0397,2.16919 -3.70898,4.01747 -3.70898,4.10742 0,0.0898 -0.96719,1.17522 -2.14844,2.41211 -5.84428,6.11932 -17.27188,20.57301 -19.61719,24.8125 -2.35566,4.25787 -5.72894,11.53608 -5.97461,12.89063 -0.50029,2.75917 -2.70416,9.61086 -4.31054,13.4043 -1.90897,4.50789 -2.98307,7.48812 -3.03711,8.44921 -0.0236,0.39394 -0.20027,0.71485 -0.39454,0.71485 -0.1943,0 -0.405,0.65405 -0.47265,1.45312 -0.0662,0.79899 -0.7454,3.95768 -1.50977,7.01758 -2.37021,9.48877 -4.26301,19.06357 -4.94922,25.03711 -0.36158,3.15024 -0.7429,6.24326 -0.8457,6.87305 -0.1028,0.63004 -0.20216,2.49849 -0.22851,4.15234 -0.0469,3.31189 0.0218,3.26543 -3.1211,2.11328 -1.75582,-0.64384 -4.41546,-0.74258 -12.74414,-0.47461 l -10.52539,0.33789 -0.0762,-5.07031 c -0.12718,-8.39648 0.14121,-13.96025 0.93359,-19.38867 0.41265,-2.83518 0.63014,-5.35148 0.48047,-5.59375 -0.14959,-0.24238 -0.0124,-1.27526 0.30469,-2.29297 0.31748,-1.01764 0.71865,-4.68517 0.89062,-8.15039 0.44463,-8.96103 1.08741,-13.24919 2.57813,-17.18164 0.71645,-1.89011 1.34338,-3.99315 1.39062,-4.67188 0.0474,-0.67876 0.2554,-1.1285 0.46289,-1 0.2075,0.12824 1.69547,-3.95623 3.30664,-9.07617 1.61129,-5.11982 3.16305,-9.72497 3.44727,-10.23437 0.28426,-0.5096 0.81578,-2.05699 1.18164,-3.4375 0.86041,-3.24235 6.95008,-15.50239 8.35156,-16.81446 0.34496,-0.32296 1.24001,-1.48919 1.98828,-2.59179 0.74831,-1.10257 2.46442,-3.36715 3.8125,-5.03321 1.3482,-1.66613 2.45118,-3.40718 2.45118,-3.86718 0,-0.4605 0.32113,-0.85806 0.71484,-0.87696 0.74449,-0.0413 8.09059,-9.66024 9.59375,-12.5625 0.47252,-0.91226 1.07647,-1.73531 1.3418,-1.83007 0.58121,-0.20724 7.26725,-6.29625 14.69531,-13.38086 6.47577,-6.17636 9.54052,-8.68049 16.03711,-13.10352 2.67761,-1.82302 5.64282,-4.03598 6.58789,-4.91797 0.94503,-0.88195 2.74977,-2.1604 4.00976,-2.83984 1.26002,-0.67956 3.44961,-1.8918 4.86719,-2.69336 1.41759,-0.80156 4.32141,-2.3337 6.45117,-3.40625 2.12981,-1.07259 4.34346,-2.35442 4.92188,-2.84961 0.57796,-0.49485 3.0881,-1.80971 5.57812,-2.92188 2.49003,-1.11208 7.1794,-3.28647 10.41993,-4.83203 7.46657,-3.56141 16.99154,-6.72735 23.31836,-7.74804 0.94507,-0.15251 3.9102,-0.87667 6.58789,-1.61133 2.67768,-0.73467 6.9291,-1.7804 9.44922,-2.32227 2.52005,-0.54198 6.25896,-1.61547 8.30664,-2.38672 2.04759,-0.77129 4.10917,-1.49069 4.58203,-1.59765 5.20463,-1.17357 8.34736,-1.72588 10.38867,-1.79493 z m 15.33398,79.11524 c -7.52046,0.0178 -11.1903,0.1703 -11.01172,0.45898 0.21309,0.34432 0.0662,0.39934 -0.36132,0.13477 -0.659,-0.40724 -5.35297,-0.0434 -18.43164,1.42969 -6.91057,0.77839 -15.3094,2.81042 -17.68555,4.27929 -1.1026,0.68157 -4.51967,2.46547 -7.59375,3.96485 -3.07412,1.49937 -5.9078,3.18092 -6.29883,3.73633 -0.39114,0.55551 -1.29122,1.19422 -2,1.41796 -0.70896,0.22398 -1.28906,0.64774 -1.28906,0.94141 0,0.29443 -0.24968,0.53516 -0.55469,0.53516 -1.11447,0 -7.43113,4.74283 -7.07812,5.31445 0.20027,0.32391 0.0863,0.41799 -0.25196,0.20898 -0.87878,-0.54308 -8.30885,6.8895 -14.5332,14.53711 -2.07277,2.54657 -5.72129,9.27503 -6.51367,12.01368 -0.22783,0.7875 -1.03312,2.80143 -1.78907,4.47656 -0.75588,1.67505 -1.20024,3.35195 -0.98632,3.72461 0.21316,0.3719 0.17065,0.47859 -0.0957,0.23633 -0.86135,-0.78305 -3.1827,6.02905 -3.75976,11.03515 -0.3086,2.67768 -0.79397,5.77052 -1.08008,6.87305 -2.84614,10.97064 -1.19378,23.96169 3.76367,29.57422 0.7982,0.90364 2.26113,2.79651 3.25,4.20703 2.46913,3.52206 6.24934,7.46238 6.82031,7.10937 0.2592,-0.16032 0.47707,0.0463 0.49219,0.45899 0.0119,0.41242 1.08312,1.52182 2.38086,2.46679 5.76756,4.20027 9.52388,6.68522 11.91602,7.87891 1.41758,0.70734 2.70762,1.41466 2.86523,1.57227 0.56039,0.56141 3.7532,2.36848 5.72656,3.24023 1.10264,0.48699 5.87039,2.75851 10.59571,5.04883 4.72528,2.29032 10.65377,4.87233 13.17382,5.73633 4.35024,1.49155 14.20747,6.6309 14.91602,7.77734 0.18221,0.29428 0.80066,0.53516 1.375,0.53516 0.57997,0 1.18476,0.53543 1.35938,1.20312 0.17317,0.66252 0.58902,1.03405 0.92578,0.82617 0.33603,-0.20779 0.61132,-0.0925 0.61132,0.25782 0,0.35074 0.7669,1.45917 1.70313,2.46093 1.81841,1.94574 2.40174,3.73371 2.55859,7.84961 0.16623,4.36317 -0.85179,6.40173 -5.14843,10.31055 l -1.57032,1.42773 -11.9414,-0.11914 -11.94336,-0.12109 -4.44141,-2.97461 c -3.92681,-2.62953 -5.50879,-3.85806 -10.16797,-7.89062 -0.63008,-0.54531 -2.30507,-1.78428 -3.72265,-2.75196 -1.41759,-0.96763 -3.22983,-2.36746 -4.02735,-3.11132 -0.79751,-0.74408 -1.70085,-1.36184 -2.00586,-1.37696 -0.9719,-0.0442 -3.70507,-1.57303 -3.70507,-2.07226 0,-0.26442 -0.40334,-0.48047 -0.89649,-0.48047 -0.49285,0 -1.52727,-0.75098 -2.29883,-1.66797 -1.322,-1.57108 -5.56545,-3.48828 -7.72265,-3.48828 -2.5375,0 -4.27113,7.04225 -5.13672,20.85937 -0.59543,9.50563 -1.03535,11.61445 -4.72852,22.67188 -2.78619,8.34217 -3.6742,11.55271 -5.23242,18.92578 -1.32661,6.27742 -1.33256,6.41947 -0.26953,7.48242 0.59588,0.59599 1.08398,1.32547 1.08398,1.61914 0,0.29401 0.45064,0.67947 1.00196,0.85938 0.55135,0.17975 2.67896,1.86357 4.72656,3.74218 2.22138,2.03796 4.06249,3.2964 4.56445,3.11914 0.46481,-0.16365 0.65936,-0.11639 0.4375,0.10547 -0.44545,0.44546 0.60654,1.04985 5.30664,3.04492 1.73265,0.73546 3.79446,1.78912 4.58203,2.3418 2.49445,1.75041 19.71935,6.12904 28.35157,7.20703 1.57508,0.1962 2.96991,0.45533 3.09765,0.57617 l -0.002,-0.002 c 0.53639,0.50771 34.07523,0.15711 36.83984,-0.38476 1.66228,-0.32595 5.85709,-0.54429 9.32227,-0.49024 9.29227,0.14941 9.08494,0.15606 17.75586,-0.54297 4.41025,-0.3555 10.07949,-1.17623 12.59961,-1.82226 6.56069,-1.68178 30.41555,-6.56992 34.81836,-7.13477 4.50557,-0.57827 7.586,-1.80027 22.13476,-8.78125 1.0822,-0.51927 2.4362,-1.39591 3.00782,-1.94726 0.57157,-0.55113 1.59671,-1.00196 2.27929,-1.00196 0.68285,0 1.06712,-0.17311 0.85547,-0.38476 -0.53064,-0.53065 4.27984,-3.64561 4.9707,-3.21875 0.30652,0.18875 0.38473,0.0655 0.17383,-0.27539 -0.36631,-0.59271 1.68468,-1.64486 2.68164,-1.375 0.25966,0.0703 0.33131,-0.102 0.15821,-0.38282 -0.17352,-0.28074 0.1878,-0.96667 0.80273,-1.52343 0.61501,-0.55673 0.95466,-1.27445 0.75586,-1.59571 -0.2123,-0.34356 -0.0758,-0.40916 0.33008,-0.1582 0.4128,0.25519 1.30996,-0.22859 2.23047,-1.20117 2.83294,-2.99354 6.41992,-7.83218 6.41992,-8.66016 0,-0.45048 0.67523,-2.14473 1.5,-3.76562 1.69909,-3.33869 3.28386,-9.31896 2.71289,-10.24219 -0.20837,-0.33751 -0.12551,-0.45567 0.18555,-0.26367 0.77745,0.48057 2.05592,-7.77423 2.24414,-14.49219 0.23523,-8.4082 -0.95709,-14.0913 -5.22852,-24.93945 -3.88199,-9.85909 -6.07847,-14.24907 -8.55859,-17.10352 -0.79518,-0.91529 -1.44727,-2.01205 -1.44727,-2.43555 0,-0.42381 -0.23707,-0.76953 -0.52734,-0.76953 -0.29031,0 -1.25312,-1.11438 -2.14063,-2.47656 -2.21714,-3.40275 -8.06307,-7.99071 -16.6875,-13.09375 -2.29848,-1.36002 -5.7418,-3.45068 -7.65039,-4.64648 -1.90858,-1.19585 -4.21026,-2.32054 -5.11523,-2.50196 -0.90493,-0.18096 -1.94022,-0.68483 -2.30078,-1.11914 -0.36072,-0.43442 -0.90637,-0.79101 -1.21289,-0.79101 -0.30652,0 -1.24198,-0.48168 -2.07813,-1.07227 -0.83622,-0.59021 -3.45388,-1.67534 -5.8164,-2.41015 -2.36266,-0.73493 -5.00476,-1.81584 -5.8711,-2.40235 -0.86623,-0.58575 -1.57422,-0.88762 -1.57422,-0.66992 0,0.2177 -0.32308,0.14605 -0.71679,-0.1582 -0.39379,-0.30471 -2.00501,-0.8964 -3.58008,-1.31446 -1.57508,-0.41828 -4.02187,-1.27206 -5.43946,-1.89648 -1.41758,-0.62442 -2.98768,-1.21776 -3.48828,-1.31641 -0.50075,-0.0991 -3.07906,-1.11622 -5.72851,-2.26172 -2.64949,-1.14542 -6.21275,-2.57192 -7.91992,-3.16992 -3.43132,-1.20242 -8.60699,-4.27943 -9.49805,-5.64648 -0.31525,-0.48329 -0.72496,-1.39362 -0.91016,-2.02344 -0.18535,-0.63016 -0.65593,-1.07483 -1.04492,-0.98828 -0.38891,0.0866 -0.53713,-0.11876 -0.32812,-0.45703 0.26951,-0.43404 0.59961,-0.42997 1.13671,0.0156 0.59248,0.49168 0.85396,0.2171 1.20508,-1.26172 0.24688,-1.03887 0.49192,-2.01817 0.53906,-2.17578 0.31987,-1.03578 1.05115,-5.51657 0.95704,-5.85937 -0.23324,-0.84839 2.6758,-2.20445 5.38867,-2.51172 1.53626,-0.17371 4.85485,-0.0227 7.375,0.33594 2.52019,0.35871 6.77356,0.87146 9.45117,1.13867 2.67772,0.26698 5.51324,0.73727 6.30078,1.04492 0.7875,0.30845 1.56114,0.5729 1.71875,0.5918 2.54664,0.28142 12.07199,3.91388 14.36133,5.47656 3.16516,2.16057 6.25781,4.73731 6.25781,5.21289 0,0.19098 0.47549,0.85864 1.0586,1.48438 2.22602,2.38938 2.72823,6.72937 1.15625,10.00585 -0.77243,1.61005 0.33528,4.51683 1.54492,4.05274 0.48446,-0.18595 0.73629,-0.10724 0.56054,0.17773 -0.17582,0.2846 0.78745,0.94028 2.14063,1.45703 2.61203,0.99746 5.3977,0.52724 5.78125,-0.97656 0.10171,-0.39844 0.50786,-1.62595 0.9043,-2.72851 0.39628,-1.1026 1.2996,-4.19544 2.00781,-6.87305 0.70817,-2.67768 1.82427,-6.54416 2.48047,-8.5918 2.71922,-8.48594 10.61605,-31.95125 14.16601,-42.09765 4.9982,-14.28556 4.97715,-14.1301 2.20313,-16.98633 -1.91267,-1.96932 -2.49076,-2.2499 -4.2207,-2.04883 -1.41238,0.16396 -2.5974,-0.15334 -4.00977,-1.07422 -3.65514,-2.38341 -10.66416,-4.26946 -16.89649,-4.54687 -3.15009,-0.14007 -7.53123,-0.62239 -9.73632,-1.07227 -2.20517,-0.4495 -5.72803,-0.96998 -7.82813,-1.1582 -2.10009,-0.18788 -5.00584,-0.86778 -6.45703,-1.50977 -1.4513,-0.64199 -4.24354,-1.51336 -6.20508,-1.9375 -1.96157,-0.42398 -6.27145,-1.46673 -9.57812,-2.3164 -5.90404,-1.51695 -6.37504,-1.54659 -26.18555,-1.68946 -3.36208,-0.0242 -6.29786,-0.0333 -8.80469,-0.0273 z m 4.13477,10.83203 c 2.53648,-0.003 5.22632,0.008 7.94336,0.0352 15.93944,0.16002 20.42521,0.37741 23.19726,1.125 1.89011,0.50982 5.36813,1.32975 7.72852,1.82226 2.36043,0.49266 5.81075,1.51296 7.66797,2.26758 2.04397,0.83059 6.06263,1.70417 10.18164,2.21289 3.74264,0.46205 7.04006,0.98365 7.32617,1.16016 0.28615,0.17654 3.43717,0.45552 7.00391,0.61718 6.06425,0.27504 12.94518,1.78568 14.45703,3.17579 0.31136,0.28633 -0.33974,2.81037 -1.59961,6.20703 -1.16772,3.14785 -2.72846,7.74565 -3.46875,10.21875 -0.74022,2.47313 -1.86914,5.77171 -2.50977,7.32812 -0.64078,1.55641 -1.94315,5.27687 -2.89453,8.26953 -1.99925,6.28872 -2.85175,8.77234 -3.83008,11.16993 -1.28424,3.14755 -1.79462,4.89913 -1.90234,6.52539 -0.0393,0.59633 -0.47183,1.23831 -0.96094,1.42578 -0.4905,0.18886 -0.73749,0.0973 -0.55078,-0.20508 0.47607,-0.77023 -4.31497,-5.28064 -5.23437,-4.92774 -0.41651,0.15988 -0.73129,0.10537 -0.69727,-0.11914 0.16241,-1.08971 -0.13761,-1.83984 -0.73633,-1.83984 -0.364,0 -1.5246,-0.6598 -2.58008,-1.46484 -1.05539,-0.80455 -2.21409,-1.28039 -2.57617,-1.05664 -0.40667,0.25152 -0.50089,0.15342 -0.24804,-0.25586 0.5255,-0.85032 -3.22475,-2.22923 -8.62305,-3.17188 -0.362,-0.0632 -1.04913,-0.43823 -1.52539,-0.83398 -0.47664,-0.39579 -1.91204,-0.75846 -3.18945,-0.8125 -1.27722,-0.0508 -2.0453,-0.26365 -1.70704,-0.47266 1.13462,-0.70125 -0.60548,-1.20425 -5.13086,-1.48242 -2.42022,-0.14884 -5.68859,-0.69095 -7.26367,-1.20508 -3.61678,-1.18103 -16.44604,-1.37983 -17.55469,-0.27148 -0.39376,0.3939 -1.44573,0.71679 -2.33789,0.71679 -2.13309,0 -5.5957,1.46973 -5.5957,2.375 0,0.39292 -0.66035,1.66751 -1.46875,2.83399 -1.2672,1.82868 -2.47487,5.92267 -4.0664,13.79297 -0.36371,1.79818 0.8108,5.78317 1.5664,5.3164 0.28611,-0.17658 0.38234,0.0325 0.2168,0.46485 -0.76471,1.99306 8.44376,9.24066 14.70508,11.57422 2.32373,0.86611 5.77196,2.29821 7.66211,3.18164 1.8901,0.8835 5.24014,2.24513 7.44531,3.02734 5.31265,1.88451 12.59011,4.74869 15.60156,6.14062 1.33542,0.61694 2.59883,1.12305 2.80859,1.12305 0.5655,0 15.94534,7.76533 20.29297,10.2461 5.95669,3.39911 13.28138,8.38677 14.9336,10.16992 0.83297,0.89907 3.31111,4.39785 5.50781,7.77343 2.1967,3.37569 4.17091,5.95996 4.38672,5.74415 0.21657,-0.21566 0.22919,0.0388 0.0273,0.56445 -0.20167,0.52543 0.0355,1.676 0.52735,2.55859 1.89146,3.39451 5.02798,12.53391 6.21679,18.11328 0.68311,3.20595 1.40471,5.90218 1.60352,5.99024 0.19956,0.088 0.18863,1.31226 -0.0254,2.7207 -0.2586,1.70411 -0.17972,2.5608 0.23633,2.56836 0.37689,0.005 0.34046,0.19007 -0.0918,0.46484 -0.61391,0.38979 -1.64397,5.47255 -2.10938,10.41016 -0.0743,0.78758 -0.46526,2.42774 -0.86914,3.64649 -0.61164,1.84056 -0.60344,2.31034 0.0469,2.76562 0.63802,0.44712 0.62436,0.5045 -0.0762,0.3125 -0.59913,-0.16452 -1.48082,1.07753 -2.91602,4.10742 -2.17164,4.58491 -6.49709,9.44895 -11.04492,12.41992 -1.2994,0.84877 -3.77911,2.49866 -5.51172,3.66797 -2.67107,1.80272 -9.19217,5.1543 -10.0293,5.1543 -0.14207,0 -2.51875,1.0632 -5.28125,2.36328 -3.50437,1.64916 -6.75578,2.66878 -10.75195,3.37109 -3.15024,0.55367 -9.68076,1.69359 -14.51367,2.53321 -4.83292,0.83951 -11.79228,2.38697 -15.46485,3.43945 -7.30401,2.09299 -9.67532,2.52162 -16.1289,2.91602 -2.36266,0.14479 -5.45546,0.39569 -6.87305,0.55859 -1.41759,0.16365 -4.41558,0.0891 -6.66406,-0.16602 -2.45341,-0.27809 -6.9356,-0.20661 -11.20703,0.17969 -3.91465,0.35399 -7.38722,0.80996 -7.7168,1.01367 -0.32942,0.20637 -0.73649,0.23577 -0.9043,0.0684 -0.168,-0.16773 -7.22721,-0.39549 -15.6875,-0.50586 -15.08337,-0.19699 -15.51061,-0.2359 -21.95312,-1.9707 -3.61368,-0.97304 -7.03835,-1.76953 -7.61133,-1.76953 -0.57286,0 -2.03169,-0.5048 -3.24023,-1.12109 -1.20851,-0.61705 -2.35853,-0.95983 -2.55469,-0.76368 -0.19616,0.19624 -0.35547,0.0927 -0.35547,-0.23047 0,-0.50246 -8.4703,-4.75781 -9.4707,-4.75781 -0.19223,0 -0.6757,-0.32308 -1.07618,-0.71679 -0.40003,-0.39379 -1.54218,-1.33387 -2.5371,-2.08985 -2.80831,-2.13358 -2.44941,-4.4974 3.30859,-21.82226 3.22356,-9.69922 4.36055,-17.22579 4.59375,-30.4375 0.0147,-0.83263 0.42495,-1.66801 0.91406,-1.85547 0.48911,-0.18709 0.74367,-0.10598 0.56641,0.18164 -0.17764,0.28732 0.51746,1.11344 1.54492,1.83594 1.0275,0.72257 2.22763,1.66171 2.66602,2.08789 0.43793,0.42587 1.46893,1.20544 2.29101,1.73242 1.874,1.20151 2.70031,1.83095 4.19141,3.19336 1.08809,0.99409 4.28039,3.26225 11.56445,8.21679 1.54356,1.04981 3.0913,1.80706 3.4375,1.67969 0.34651,-0.12718 1.03473,0.11988 1.53125,0.55078 0.49663,0.43072 2.09708,1.00717 3.55469,1.2793 2.22372,0.41548 2.68936,0.34515 2.89648,-0.42969 0.20636,-0.77223 0.25846,-0.75588 0.3125,0.0937 0.06,0.91794 0.77606,1.01342 7.36914,1.00586 4.01651,-0.008 7.8194,-0.0134 8.44922,-0.008 9.64241,0.057 8.9834,0.18184 12.60547,-2.35547 5.17183,-3.62287 6.48538,-5.04091 8.71484,-9.39844 2.36867,-4.62999 3.03246,-9.89249 1.92188,-15.24218 -1.2186,-5.8698 -2.91907,-8.10086 -10.72266,-14.07032 -7.17834,-5.49123 -14.24611,-9.28681 -20.00195,-10.74023 -1.87045,-0.47229 -6.48694,-2.44922 -10.25781,-4.39258 -3.77091,-1.94336 -8.91891,-4.4164 -11.44141,-5.49609 -2.52249,-1.07966 -4.72035,-2.14332 -4.88476,-2.36328 -0.16453,-0.21986 -1.71669,-1.15412 -3.44922,-2.07618 -1.73265,-0.92197 -4.69779,-2.7921 -6.58789,-4.15625 -1.89011,-1.36422 -4.6538,-3.18529 -6.14063,-4.04687 -1.52232,-0.88222 -2.9898,-2.25361 -3.36133,-3.14063 -0.36276,-0.8663 -0.97256,-1.57617 -1.35547,-1.57617 -0.38282,0 -1.42721,-1.48167 -2.32031,-3.29297 -0.8931,-1.81137 -2.07246,-3.80963 -2.62109,-4.43945 -1.21126,-1.39106 -1.69089,-4.08642 -1.94336,-10.91992 -0.16932,-4.59379 0.0346,-6.644 1.2207,-12.27735 0.38204,-1.81447 0.56066,-2.85228 1.28516,-7.44531 0.32303,-2.04759 1.37122,-5.33868 2.32812,-7.3125 0.9569,-1.97393 1.74024,-3.70561 1.74024,-3.84961 0,-0.14388 0.67145,-1.68236 1.49414,-3.41992 0.82254,-1.73749 1.34094,-3.56221 1.15234,-4.05469 -0.1886,-0.49239 -0.11852,-0.75759 0.15625,-0.58789 0.27485,0.16978 0.81182,-0.4442 1.19336,-1.36523 0.38154,-0.92111 1.67881,-2.74271 2.88281,-4.04688 1.2039,-1.30412 2.88798,-3.37867 3.74219,-4.61133 1.38206,-1.99424 6.80995,-7.37431 9.78516,-9.69921 1.60021,-1.2505 11.13642,-7.56987 12.81445,-8.49219 7.89634,-4.33996 11.86311,-5.96032 17.0332,-6.95313 3.07412,-0.59032 5.97705,-1.20378 6.44922,-1.36328 0.47252,-0.15964 3.4357,-0.44339 6.58594,-0.63086 3.15012,-0.18761 7.27587,-0.57648 9.16602,-0.86523 1.41757,-0.2143 7.64249,-0.35187 15.25195,-0.36133 z M 127.83398,591.58398 c 0.29624,0 0.69756,0.25901 0.89258,0.57422 0.19442,0.31522 -0.048,0.57227 -0.53906,0.57227 -0.49115,0 -0.89258,-0.25705 -0.89258,-0.57227 0,-0.31521 0.24275,-0.57422 0.53906,-0.57422 z m 411.67383,13.26954 c -0.37477,-0.0211 -0.72573,0.0392 -0.99414,0.20507 -0.29937,0.18547 -0.99615,0.42996 -1.54883,0.54297 -0.55241,0.11297 -3.83942,0.90278 -7.30468,1.75586 -5.80747,1.4264 -7.08498,1.54087 -16.32422,1.4082 -17.36126,-0.24851 -18.90149,-0.17657 -20.15625,0.95899 -0.85263,0.77182 -1.0392,1.44329 -0.76367,2.75195 0.49636,2.3579 0.3973,6.1051 -0.28907,10.89649 -0.31578,2.20509 -0.82068,6.45843 -1.12304,9.45117 -0.30206,2.99263 -0.64159,5.82661 -0.75196,6.29883 -0.6489,2.77523 -1.93483,6.30959 -3.02148,8.30468 -0.68617,1.26006 -1.74162,3.19424 -2.3457,4.29688 -0.60428,1.10253 -2.28425,3.8141 -3.73438,6.02539 -1.45005,2.21133 -2.93732,5.17459 -3.30469,6.58594 -0.36718,1.41142 -1.16959,3.93814 -1.7832,5.61523 -0.61357,1.67702 -0.94479,3.32781 -0.73438,3.66797 0.21858,0.35301 0.1175,0.45598 -0.23437,0.23828 -0.65666,-0.40584 -2.73242,4.48322 -3.14844,7.41602 -0.40497,2.85532 -2.81326,8.07368 -5.09961,11.05078 -0.5769,0.75118 -1.04884,1.82523 -1.04882,2.38672 -10e-6,0.56137 -0.19347,1.10624 -0.42969,1.21094 -0.2363,0.10489 -1.70744,1.86639 -3.27149,3.91406 -1.56404,2.04759 -4.14236,5.09556 -5.72851,6.77148 -1.58616,1.67596 -2.96953,3.28521 -3.07422,3.57813 -0.10511,0.29276 -0.42804,0.5332 -0.7168,0.5332 -0.28872,0 -1.00211,0.4506 -1.58594,1.00195 -0.58393,0.55125 -3.19167,2.67702 -5.79296,4.72461 -2.60126,2.0476 -5.16925,4.27853 -5.70704,4.95703 -0.53782,0.67866 -3.21766,2.69483 -5.95703,4.48047 -2.92399,1.90594 -4.82291,3.50322 -4.59765,3.86719 0.23002,0.37191 0.11405,0.45339 -0.28711,0.20508 -0.37981,-0.23475 -2.27956,0.71234 -4.39258,2.18945 -3.34133,2.33579 -5.44296,3.44872 -13.87305,7.33789 -1.33886,0.61761 -2.43359,1.35767 -2.43359,1.64453 0,0.28687 -0.37839,0.52149 -0.8418,0.52149 -0.46307,0 -2.36489,0.77172 -4.22461,1.71679 -1.85975,0.94508 -3.80037,1.71875 -4.3125,1.71875 -0.51201,0 -0.93164,0.22971 -0.93164,0.50977 0,0.27995 -0.83753,0.66782 -1.86133,0.86133 -1.02379,0.19359 -4.90974,2.00504 -8.63476,4.02539 -4.46525,2.42169 -7.73347,3.80467 -9.59375,4.06055 -1.5518,0.21324 -2.6997,0.58541 -2.55078,0.82617 0.30096,0.48729 -2.84552,0.3488 -6.14063,-0.26953 -1.43524,-0.26903 -2.14844,-0.19113 -2.14844,0.23437 0,0.34983 -0.57843,0.64504 -1.2871,0.66016 -0.70882,0.0138 -2.31999,0.42122 -3.58008,0.90625 -1.2601,0.48472 -2.6775,0.94148 -3.15039,1.01367 -0.47252,0.072 -1.42319,0.43562 -2.11133,0.81055 -0.68803,0.37425 -3.14377,0.68164 -5.45703,0.68164 -3.43456,0 -5.1791,0.4544 -6.15039,1.67187 -0.0246,0.47249 -0.0699,1.17226 -0.21485,4.06055 -0.12056,2.40355 -0.4276,5.20189 -0.0996,7.67578 0.0589,0.44421 0.19576,0.87506 0.29297,1.3125 0.11078,0.49848 0.0863,0.91195 -0.0254,1.22852 l 0.75977,0.65234 -0.42578,6.73437 c -1.09149,17.22981 -0.12421,20.36982 6.48437,21.02735 1.25333,0.12468 2.86033,0.53778 3.57031,0.91797 0.70984,0.37999 2.5979,0.89552 4.19532,1.14648 v -0.002 c 5.71891,0.89839 13.90942,0.25707 20.94531,-1.64063 3.62268,-0.97712 10.97139,-2.93567 16.33008,-4.35156 5.35869,-1.41589 12.20611,-3.59738 15.21484,-4.84961 3.00869,-1.25219 7.13,-2.69749 9.1582,-3.21094 2.02817,-0.51314 4.77985,-1.4333 6.11524,-2.04687 1.33538,-0.61346 2.58906,-1.11524 2.78711,-1.11524 0.66485,0 11.39242,-5.4361 11.58593,-5.87109 0.105,-0.23607 0.57662,-0.42969 1.04883,-0.42969 0.95789,0 6.80203,-3.30636 8.66602,-4.90234 0.66183,-0.5667 1.04948,-1.28219 0.85937,-1.58984 -0.1909,-0.30841 -0.0519,-0.37647 0.31055,-0.15235 0.36839,0.22772 2.73447,-1.05547 5.38672,-2.92187 2.6013,-1.83062 5.85897,-4.06226 7.24023,-4.95899 1.38123,-0.89677 3.18591,-2.34482 4.00977,-3.21679 2.26409,-2.39664 7.24432,-9.39909 7.06641,-9.93555 -0.0858,-0.25965 0.0722,-0.33213 0.3496,-0.16016 0.27765,0.17156 1.36802,-0.77594 2.42383,-2.10547 1.05585,-1.32948 2.4465,-2.79844 3.08985,-3.26171 0.6432,-0.46368 2.26756,-1.85099 3.60937,-3.08399 1.87816,-1.726 2.29493,-2.41618 1.81055,-3 -0.49168,-0.59252 -0.38021,-0.71103 0.51172,-0.53906 1.1834,0.22783 3.93034,-2.38498 9.3125,-8.85742 2.86356,-3.44361 9.12109,-12.31094 9.12109,-12.92383 0,-0.21075 0.87176,-1.57731 1.93555,-3.03711 2.72783,-3.74343 4.8166,-8.09724 5.73242,-11.94922 1.08726,-4.57323 3.62354,-11.61882 4.57617,-12.70898 1.12725,-1.29007 2.74002,-4.59364 2.93164,-6.00586 0.16513,-1.21716 2.70442,-8.09598 3.66797,-9.93555 2.30067,-4.39268 4.76007,-10.32631 5.21875,-12.5918 1.0972,-5.4212 1.76604,-7.56227 3.70899,-11.88476 0.42683,-0.9498 1.58325,-5.3137 2.57031,-9.69727 0.98706,-4.38353 2.04504,-8.43747 2.35156,-9.00976 0.57048,-1.06602 1.73026,-8.6981 1.94531,-12.80274 0.0661,-1.26009 0.17901,-2.42052 0.25196,-2.57812 0.45543,-0.98072 0.53742,-2.87987 0.11328,-2.61719 -0.28067,0.17352 -0.62377,-0.45654 -0.76172,-1.39844 -0.14597,-0.99409 0.009,-1.71314 0.36719,-1.7207 2.00092,-0.0285 3.42548,-4.14195 1.66796,-4.81641 -0.42119,-0.16161 -0.76562,-0.78905 -0.76562,-1.39453 0,-0.84586 -1.34247,-1.63973 -2.4668,-1.70312 z m -385.1289,3.41015 c -2.79131,-0.005 -6.2112,0.17538 -10.18946,0.53906 -3.46526,0.31673 -8.42912,0.69761 -11.03125,0.84766 -3.66054,0.21139 -4.9818,0.5247 -5.83593,1.37891 -0.76706,0.7672 -0.89474,1.20165 -0.42188,1.42578 0.51598,0.24351 0.50643,0.40302 -0.0352,0.65625 -0.77854,0.36332 -0.96643,2.0863 -0.30078,2.75195 0.22795,0.22772 0.44394,1.23799 0.48438,2.24414 0.24964,6.37179 0.9209,16.85679 1.125,17.58008 0.13349,0.47255 0.75944,4.33903 1.39062,8.5918 1.17566,7.92563 1.26132,8.38389 2.32813,12.31445 0.34205,1.26009 0.87071,3.32194 1.17383,4.58203 0.30274,1.26002 0.78174,2.80573 1.06445,3.43555 0.28259,0.63001 0.95063,2.56422 1.48437,4.29687 1.15956,3.76283 1.70857,5.09051 4.73438,11.45508 1.27302,2.67768 3.39353,7.44558 4.71289,10.5957 2.60307,6.21574 4.60899,10.19915 5.28711,10.5 0.23603,0.10504 0.42969,0.4721 0.42969,0.81641 0,0.6003 3.54884,8.38517 4.63281,10.16211 0.28823,0.47252 0.78938,1.47638 1.11328,2.23047 0.95683,2.22932 3.57431,5.43106 15.93359,19.49219 4.86377,5.53341 8.15695,8.77457 12.19141,11.99609 2.0044,1.60055 4.80315,4.3176 6.2207,6.03906 1.41759,1.72162 2.90121,3.14517 3.29493,3.16407 0.3939,0.0189 0.71484,0.36696 0.71484,0.77148 0,0.40464 0.83745,1.228 1.86133,1.83008 1.0238,0.60227 3.27907,2.61681 5.01172,4.47656 1.73261,1.85968 3.81577,3.72698 4.6289,4.14844 0.81309,0.42157 3.18023,2.26294 5.25977,4.09375 7.16768,6.31037 14.15026,10.92121 15.38476,10.1582 0.41235,-0.255 0.52648,-0.17383 0.29102,0.20703 -0.41359,0.66932 2.98016,3.22149 6.79687,5.11133 2.8441,1.40818 12.38514,4.51172 15.46485,5.03125 2.60247,0.4388 8.28094,2.23548 10.96875,3.4707 0.99277,0.45619 2.28082,0.83399 2.86328,0.83399 1.29607,0.005 6.31201,1.56545 12.80078,3.98242 2.67768,0.99742 6.8014,2.18357 9.16406,2.63477 2.36262,0.45091 5.58508,1.0916 7.16016,1.42382 1.57516,0.33222 5.98236,0.59545 9.79492,0.58789 3.81249,-0.008 9.15046,0.34418 11.86133,0.78321 2.71094,0.43895 5.39091,0.68111 5.95508,0.53711 0.56455,-0.14344 2.44516,-0.0381 4.17773,0.23437 l -0.002,-0.004 c 1.73265,0.2724 3.36711,0.31055 3.63281,0.084 0.26574,-0.22639 1.31974,-0.18224 2.3418,0.0996 3.03575,0.83818 4.91959,0.42896 5.79297,-1.25977 1.30851,-2.53043 2.44005,-15.4942 2.27148,-26.04101 -0.13644,-8.5338 -0.30607,-10.06131 -1.33398,-12.07617 -0.64721,-1.26872 -1.51568,-2.33122 -1.92969,-2.36524 -0.41416,-0.0331 -1.78169,-0.32201 -3.03906,-0.64062 -1.25749,-0.3207 -5.38121,-0.48896 -9.16407,-0.38086 -4.34932,0.12514 -8.03729,-0.0779 -10.02929,-0.55078 -1.73261,-0.41118 -5.46952,-1.04947 -8.30469,-1.41797 -9.58791,-1.248 -8.89242,-1.02641 -27.11133,-8.65039 -2.94077,-1.23062 -5.69805,-2.23633 -6.12695,-2.23633 -0.42924,0 -3.17896,-1.19297 -6.10938,-2.65039 -9.22144,-4.58635 -12.44702,-6.44714 -16.7832,-9.67969 -1.8901,-1.40908 -3.78345,-2.72792 -4.20898,-2.93164 -0.42524,-0.20341 -1.3447,-0.91324 -2.04297,-1.57617 -0.69819,-0.66305 -3.56409,-3.267 -6.36914,-5.78711 -6.04778,-5.43353 -7.10108,-6.51846 -10.86133,-11.18164 -1.57516,-1.95338 -3.64744,-4.48848 -4.60547,-5.63477 -0.95811,-1.1464 -3.21182,-4.3243 -5.00781,-7.06054 -1.79603,-2.7365 -3.51285,-5.1259 -3.81446,-5.3125 -0.71682,-0.44304 -8.63473,-12.44823 -10.40234,-15.77149 -0.75398,-1.41759 -1.50381,-2.70763 -1.66406,-2.86523 -0.16052,-0.1575 -0.71866,-1.18842 -1.24024,-2.29102 -0.52157,-1.10253 -2.61931,-5.48357 -4.66211,-9.73633 -2.04279,-4.25276 -3.90345,-8.36683 -4.13476,-9.14258 -0.23154,-0.77574 -2.09608,-5.15667 -4.14258,-9.73632 -3.69434,-8.267 -6.89121,-17.78274 -8.37891,-24.9375 -0.0655,-0.31503 -0.68797,-2.0737 -1.38476,-3.90821 -0.69683,-1.83458 -1.12705,-3.56362 -0.95508,-3.84179 0.45672,-0.73894 -1.32643,-4.70381 -1.94336,-4.32227 -0.288,0.17798 -1.64515,-0.0909 -3.01758,-0.59766 -1.37231,-0.50653 -3.39743,-1.13286 -4.5,-1.39062 -1.10252,-0.25795 -3.03678,-0.73148 -4.29687,-1.05274 -1.46665,-0.37152 -3.62862,-0.55982 -6.41992,-0.56445 z m -0.0352,7.92188 c 1.81944,-0.0656 3.56236,0.0924 5.27344,0.47851 4.68559,1.05687 5.6528,1.64857 5.25976,3.21485 -0.17658,0.70374 0.037,1.78778 0.47266,2.41015 0.43593,0.62234 1.05292,2.53836 1.37305,4.25782 0.31997,1.71939 1.37367,5.56506 2.34179,8.54492 0.9682,2.97993 1.76172,5.78394 1.76172,6.23242 0,0.44825 1.63894,4.45493 3.64258,8.90234 2.0036,4.44733 3.82747,8.85962 4.05273,9.80469 0.40029,1.67917 0.97253,2.96524 6.69727,15.05273 1.53422,3.23936 2.78906,6.05479 2.78906,6.25586 0,0.20092 0.35108,0.77234 0.7793,1.26954 0.42796,0.49728 1.75548,2.70897 2.95117,4.91406 3.55896,6.56345 8.99418,14.59647 9.61524,14.21289 0.33675,-0.20833 0.4011,-0.0717 0.15429,0.32812 -0.24824,0.40169 0.491,1.92406 1.78125,3.66797 1.21331,1.63983 2.9013,4.01334 3.75196,5.27344 0.85062,1.26002 2.58838,3.45155 3.86132,4.86914 1.27291,1.41759 3.46194,4.29335 4.86524,6.39062 1.40337,2.09749 3.76225,4.93301 5.24023,6.30079 1.47799,1.36781 3.48518,3.38073 4.46094,4.47461 8.65935,9.70813 28.43506,22.80991 39.8125,26.37695 2.72659,0.85481 6.06959,2.12248 7.42969,2.81641 3.46363,1.7669 14.38039,6.08449 18.16797,7.18554 1.74062,0.50876 3.72761,0.76307 4.41601,0.57031 0.85191,-0.23875 1.01022,-0.18409 0.4961,0.17383 -0.64585,0.44905 4.59939,1.66267 9.07031,2.09766 0.47807,0.046 1.23012,0.30757 1.67187,0.58008 0.69566,0.42965 8.82732,0.86417 16.73828,0.89062 3.88358,0.0137 4.11522,0.35448 4.32422,6.39258 0.10141,2.93643 0.29879,5.65353 0.4375,6.03711 0.13864,0.38343 0.007,0.84838 -0.29101,1.0332 -0.29843,0.18433 -0.50529,1.28862 -0.46485,2.45313 0.0426,1.16458 -0.11124,2.96355 -0.34179,3.99804 l -0.41993,1.88086 -3.8164,-0.11523 c -2.09896,-0.0638 -5.49147,-0.46818 -7.53906,-0.89844 -2.34085,-0.4896 -5.79093,-0.68596 -9.29493,-0.52344 -3.71183,0.17197 -6.86831,-0.0268 -9.45117,-0.59375 -2.13267,-0.46832 -5.68163,-1.0788 -7.88672,-1.35546 -2.20512,-0.27708 -6.12233,-1.14384 -8.70507,-1.92579 -2.58271,-0.78198 -5.4183,-1.54816 -6.30079,-1.70312 -0.88252,-0.15492 -2.50684,-0.45556 -3.60937,-0.66797 -2.38212,-0.4594 -18.93519,-5.93894 -19.75977,-6.54102 -0.31502,-0.22992 -2.11966,-1.02148 -4.00976,-1.75781 -1.89011,-0.73636 -4.46655,-2.02904 -5.72656,-2.87304 -1.2601,-0.84397 -4.35294,-2.90742 -6.87305,-4.58594 -9.60151,-6.39477 -11.25336,-7.52631 -15.02344,-10.29492 -2.1335,-1.56677 -5.42435,-4.35554 -7.31445,-6.19727 -4.54216,-4.42609 -8.4193,-7.43097 -9.32227,-7.22461 -0.40176,0.0915 -0.45596,0.0335 -0.12109,-0.13086 0.76823,-0.37648 -3.2901,-4.82921 -7.44531,-8.16797 -4.64878,-3.73546 -14.12761,-13.69155 -19.72071,-20.71289 -0.60404,-0.75821 -2.38691,-2.79668 -3.96093,-4.52929 -1.57406,-1.73265 -3.4739,-4.4386 -4.22266,-6.01368 -2.43035,-5.11332 -8.2913,-16.01319 -9.10938,-16.9414 -0.43831,-0.49735 -0.79687,-1.20572 -0.79687,-1.57422 0,-0.36949 -0.22403,-0.67188 -0.49805,-0.67188 -0.27398,0 -0.80431,-1.5532 -1.17773,-3.45117 -0.37342,-1.89796 -0.91847,-3.30093 -1.21289,-3.11914 -0.29556,0.18195 -0.4032,-0.0141 -0.24219,-0.43359 0.16101,-0.41949 -1.1437,-3.6822 -2.90039,-7.25 -1.75673,-3.56788 -3.84551,-8.58477 -4.64258,-11.15039 -0.7971,-2.56566 -2.18641,-6.88151 -3.08594,-9.58985 -0.89952,-2.70829 -2.04182,-7.86297 -2.53906,-11.45508 -0.4972,-3.592 -1.1352,-7.30496 -1.41601,-8.25 -0.28094,-0.94497 -0.65402,-4.97582 -0.83204,-8.95703 l -0.32421,-7.23828 2.70703,-0.6875 c 1.48796,-0.37776 3.99324,-0.79999 5.56836,-0.93945 1.57508,-0.13913 4.53834,-0.44693 6.58593,-0.68164 0.62504,-0.0717 1.24118,-0.1168 1.84766,-0.13867 z m 376.74805,0.0801 c 0.48329,-0.055 0.54673,0.10443 0.28906,0.52149 -0.25206,0.40751 -0.66354,2.98034 -0.91602,5.7168 -0.25247,2.73641 -1.3745,8.22084 -2.49218,12.1875 -1.11772,3.96669 -2.03125,7.87114 -2.03125,8.67773 0,0.80651 -1.00632,4.14534 -2.23633,7.41992 -2.0448,5.44392 -3.85807,12.04885 -3.59766,13.10742 0.0575,0.23607 -0.15158,0.42969 -0.4668,0.42969 -0.31511,0 -0.57226,0.37898 -0.57226,0.84375 0,0.46481 -1.28311,3.55073 -2.84961,6.85547 -1.56643,3.30478 -3.02644,6.72467 -3.24414,7.60156 -0.21778,0.87693 -0.78668,2.49709 -1.26563,3.59961 -0.47905,1.1026 -0.81204,2.32699 -0.74023,2.72071 0.0717,0.3939 -0.13798,0.71679 -0.4668,0.71679 -0.32889,0 -0.59961,0.25258 -0.59961,0.5625 0,0.31004 -0.7264,2.06555 -1.61523,3.90039 -2.21787,4.57849 -4.86705,13.09593 -4.35156,13.99024 0.23017,0.40365 0.21239,0.54582 -0.041,0.3164 -0.25334,-0.22911 -1.27036,1.18863 -2.25976,3.15039 -3.23736,6.41821 -11.52196,18.35981 -16.13672,23.25782 -2.48701,2.63954 -7.45431,7.79426 -11.03711,11.45508 -3.58292,3.66075 -8.46324,8.93027 -10.84571,11.70898 -2.3825,2.77867 -5.12083,5.45489 -6.08593,5.94726 -2.78404,1.42065 -12.49592,7.68943 -14.07032,9.08204 -0.78757,0.69668 -2.27646,1.69327 -3.31054,2.21484 -1.03397,0.52191 -1.73094,1.19241 -1.54688,1.49023 0.18448,0.29821 -0.0637,0.38984 -0.55078,0.20313 -0.53805,-0.20655 -4.65348,1.92167 -10.48242,5.41992 -5.27822,3.16789 -10.75624,6.13134 -12.17383,6.58594 -1.41759,0.45445 -5.41177,1.74407 -8.87695,2.86523 -3.46519,1.12116 -9.26592,2.68725 -12.88867,3.48243 -7.95895,1.74666 -18.54624,4.5398 -20.9043,5.51367 -1.00433,0.41421 -4.77279,0.75558 -9.05078,0.8164 -6.58288,0.0948 -7.39121,-10e-4 -7.89453,-0.9414 -0.33358,-0.6234 -0.51001,-6.96131 -0.43555,-15.64844 l 0.125,-14.60156 2.04297,-0.34571 c 1.12312,-0.18984 4.16514,-1.12693 6.76172,-2.08398 4.07667,-1.50233 5.18271,-1.68775 8.10156,-1.35742 3.22307,0.36465 9.24039,-0.59961 12.37891,-1.98242 0.63008,-0.27757 2.68309,-1.16755 4.5625,-1.97852 1.87937,-0.81097 3.55604,-1.66644 3.72461,-1.90039 0.16822,-0.23407 4.04155,-2.0749 8.60937,-4.08984 4.56779,-2.01491 9.59484,-4.48067 11.16992,-5.48047 2.63724,-1.67407 6.96391,-3.49196 7.79688,-3.27539 0.7971,0.20715 8.22678,-4.87777 8.08203,-5.53125 -0.0859,-0.39005 0.10723,-0.54766 0.42773,-0.34961 0.32089,0.19827 2.22746,-0.81308 4.23828,-2.24805 2.01094,-1.4349 3.94507,-2.60937 4.29883,-2.60938 0.3538,10e-6 0.64453,-0.20285 0.64453,-0.45117 0,-0.24846 1.41782,-1.31126 3.15039,-2.36133 1.73265,-1.04992 3.15039,-2.10167 3.1504,-2.33789 -10e-6,-0.23588 0.89955,-1.04352 2,-1.79296 1.10027,-0.74933 2.0039,-1.69868 2.0039,-2.11133 0.002,-0.41382 0.22542,-0.61357 0.49414,-0.44727 0.26899,0.1663 1.65832,-0.81964 3.08789,-2.18945 1.42961,-1.36978 3.36185,-2.94028 4.29297,-3.49024 1.4914,-0.88093 11.48983,-10.78844 13.05274,-12.93359 0.32443,-0.44549 1.28065,-1.72202 2.125,-2.83789 2.92331,-3.86385 10.74609,-19.9463 10.74609,-22.09375 0,-0.45358 0.87704,-2.68596 1.94922,-4.96094 1.07225,-2.27486 2.46456,-5.82606 3.0957,-7.89062 1.16776,-3.8205 2.20296,-5.91628 5.47656,-11.09571 1.86781,-2.95517 4.89745,-9.74304 6.09571,-13.65625 1.85317,-6.05276 3.06837,-24.27186 1.72656,-25.88867 -1.04126,-1.25461 0.18843,-1.52944 4.10742,-0.91992 6.69252,1.04096 20.80349,0.84633 25.60156,-0.35352 0.25796,-0.0646 0.46586,-0.10667 0.62696,-0.125 z m -59.2168,77.4668 c 0.0685,0.0115 0.14385,0.0412 0.22266,0.0898 0.31521,0.19483 0.57226,0.46871 0.57226,0.60742 0,0.13871 -0.25705,0.25195 -0.57226,0.25195 -0.31525,0 -0.57227,-0.27211 -0.57227,-0.60547 0,-0.2503 0.14412,-0.37833 0.34961,-0.34375 z" />
  </g>
</svg>
