<?xml version="1.0" encoding="UTF-8" standalone="no"?>
<!-- Created with Inkscape (http://www.inkscape.org/) -->

<svg
   width="112.05135mm"
   height="89.45224mm"
   viewBox="0 0 112.05135 89.45224"
   version="1.1"
   id="svg5"
   inkscape:version="1.1.1 (c3084ef, 2021-09-22)"
   sodipodi:docname="logo_gitlab.svg"
   xmlns:inkscape="http://www.inkscape.org/namespaces/inkscape"
   xmlns:sodipodi="http://sodipodi.sourceforge.net/DTD/sodipodi-0.dtd"
   xmlns="http://www.w3.org/2000/svg"
   xmlns:svg="http://www.w3.org/2000/svg">
  <sodipodi:namedview
     id="namedview7"
     pagecolor="#ffffff"
     bordercolor="#666666"
     borderopacity="1.0"
     inkscape:pageshadow="2"
     inkscape:pageopacity="0.0"
     inkscape:pagecheckerboard="0"
     inkscape:document-units="mm"
     showgrid="false"
     inkscape:zoom="0.51580387"
     inkscape:cx="750.28518"
     inkscape:cy="365.44898"
     inkscape:window-width="1312"
     inkscape:window-height="969"
     inkscape:window-x="0"
     inkscape:window-y="25"
     inkscape:window-maximized="0"
     inkscape:current-layer="layer1" />
  <defs
     id="defs2" />
  <g
     inkscape:label="Layer 1"
     inkscape:groupmode="layer"
     id="layer1"
     transform="translate(109.61548,-77.41023)">
    <path
       style="fill:#000000;stroke-width:0.236665"
       d="m -54.052932,165.77005 c -0.88685,-0.60081 -1.878691,-1.33683 -2.204114,-1.63553 -0.325424,-0.2987 -1.283917,-0.94539 -2.129984,-1.43707 -0.846068,-0.49169 -2.253283,-1.40339 -3.127108,-2.026 -0.87388,-0.62259 -1.988209,-1.29887 -2.476344,-1.50281 -0.488135,-0.20406 -1.059038,-0.52607 -1.268738,-0.71581 -0.209644,-0.1898 -1.400674,-1.01108 -2.646687,-1.82514 -1.246013,-0.81406 -4.433079,-2.92641 -7.082393,-4.69407 -2.649287,-1.76766 -5.40264,-3.51872 -6.118561,-3.89127 -2.358222,-1.22718 -5.206615,-2.98089 -5.206615,-3.2056 0,-0.12132 -0.07994,-0.2021 -0.177499,-0.17946 -0.264431,0.0615 -1.479165,-0.56394 -1.479165,-0.76168 0,-0.0942 -0.186443,-0.23759 -0.414173,-0.31899 -0.227813,-0.0813 -0.99989,-0.511 -1.715811,-0.95472 -0.71592,-0.44372 -2.10041,-1.22647 -3.076653,-1.7394 -0.976243,-0.51293 -2.106001,-1.13412 -2.510586,-1.38035 -4.104943,-2.49871 -6.165717,-3.66607 -7.665987,-4.34255 -0.97624,-0.44022 -2.01462,-0.95432 -2.30748,-1.1425 -0.29289,-0.18812 -0.5325,-0.258 -0.5325,-0.15542 0,0.10287 -0.23955,-0.0307 -0.53249,-0.29671 -0.29289,-0.26583 -0.852,-0.55796 -1.24249,-0.64895 -1.24901,-0.29101 -1.75923,-0.7576 -1.62681,-1.4878 0.14814,-0.81744 0.73668,-1.48554 1.30848,-1.48554 0.34331,0 0.43665,-0.18169 0.43665,-0.84959 0,-0.93009 1.03634,-4.11299 2.30485,-7.07867 0.4454,-1.04135 1.07198,-2.69209 1.3924,-3.66833 0.32042,-0.97624 0.67036,-1.98798 0.77764,-2.24831 0.10734,-0.26023 0.41393,-1.05906 0.68135,-1.77498 0.8407,-2.25043 3.143708,-8.10867 3.721516,-9.46661 0.304654,-0.71589 0.836871,-2.04713 1.182756,-2.9583 0.345885,-0.91117 0.823817,-2.08266 1.062113,-2.603304 1.204559,-2.631901 2.637965,-6.044795 4.075285,-9.703001 0.255766,-0.650707 0.607242,-1.449451 0.781358,-1.774986 0.174144,-0.325564 0.776857,-1.74505 1.339402,-3.154389 0.562601,-1.40934 1.256915,-2.819937 1.542981,-3.134655 0.450539,-0.495655 0.608862,-0.538925 1.183315,-0.323355 0.364781,0.136967 0.907144,0.509072 1.205286,0.827172 0.298142,0.318072 0.777388,0.579959 1.064992,0.581944 0.287604,0.0024 0.641092,0.0819 0.785495,0.177498 0.28014,0.185605 1.985749,4.22391 1.985749,4.701675 0,0.156534 0.07994,0.319889 0.177498,0.363299 0.09755,0.04333 0.429156,0.664628 0.736774,1.380521 0.307617,0.71592 0.654508,1.461415 0.770875,1.656663 0.116282,0.195388 0.329868,0.621246 0.474438,0.946669 0.568192,1.278969 1.954023,3.935942 2.345359,4.496615 0.227254,0.325423 0.427087,0.670386 0.444334,0.76657 0.01677,0.09616 0.496101,1.161205 1.064181,2.366659 1.145579,2.430925 2.372528,5.093595 3.218317,6.984195 l 0.555836,1.24249 1.318662,-0.0112 c 3.205654,-0.028 15.112768,-0.46189 15.755173,-0.57451 1.225859,-0.21495 5.319957,-0.5557 8.519937,-0.70913 1.692163,-0.0811 3.555899,-0.19203 4.141645,-0.24654 0.585746,-0.0542 1.870557,-0.16296 2.855157,-0.24151 l 1.790193,-0.14256 0.505215,-1.81809 c 1.145411,-4.122018 1.50994,-5.34961 1.65971,-5.589164 0.08665,-0.138644 0.1884,-0.450287 0.226136,-0.692329 0.03774,-0.242069 0.382419,-1.329479 0.76604,-2.416441 0.383676,-1.086935 0.975599,-3.018875 1.315391,-4.293148 0.339819,-1.274273 1.055041,-3.701393 1.589381,-5.393528 1.155084,-3.658038 1.219961,-3.99727 0.884419,-4.624246 -0.333837,-0.623733 -0.07994,-1.410709 0.454788,-1.410709 0.22977,0 0.491685,0.07379 0.581804,0.163802 0.09001,0.09029 0.360504,0.19399 0.600784,0.230608 0.347479,0.05311 0.463202,-0.12942 0.565508,-0.892273 0.162405,-1.210234 0.695152,-1.615098 2.138119,-1.624602 1.400478,-0.0084 1.511813,0.100909 3.039867,3.009958 0.290595,0.553209 0.602881,1.005817 0.69395,1.005817 0.09113,0 0.395137,0.440336 0.675669,0.978534 0.280504,0.538199 1.09001,1.859236 1.798886,2.935633 0.708849,1.076397 1.288837,2.011605 1.288837,2.078272 0,0.127463 1.568473,2.459992 3.529791,5.249153 1.964869,2.794192 4.088508,6.284236 5.184275,8.519933 0.574174,1.17149 1.1837909,2.28974 1.3547207,2.48498 0.1707901,0.19539 0.3056891,0.44305 0.2995115,0.5507 -0.00559,0.10762 0.2997352,0.69336 0.679778,1.30166 1.4859575,2.37835 2.1493273,3.54612 2.7847167,4.90187 0.3636347,0.77588 0.7665707,1.54237 0.895404,1.70327 0.1288612,0.161 0.7430625,1.36053 1.3650067,2.66575 0.6219442,1.30524 1.2339373,2.50482 1.3600033,2.66575 0.4691835,0.59885 4.7932749,9.47177 4.7932749,9.83566 0,0.12131 -0.1568138,0.35078 -0.348708,0.50997 -0.1917545,0.15905 -0.4187013,0.67807 -0.5042081,1.15312 -0.2037741,1.1318 -0.3527891,1.29661 -2.45347896,2.71249 -0.98004424,0.66057 -2.56098444,1.81946 -3.51321594,2.5753 -0.9522035,0.75583 -1.8061818,1.37423 -1.8976426,1.37423 -0.091405,0 -0.6520211,0.39935 -1.2455934,0.88749 -1.0747755,0.8838 -1.265943,1.0272 -3.2903778,2.46804 -1.138312,0.81018 -5.413487,3.50774 -5.559175,3.50774 -0.429379,0 -11.449,7.93824 -13.024602,9.38258 -0.263313,0.24151 -1.008891,0.80467 -1.656663,1.25158 -0.647745,0.4469 -1.976469,1.43432 -2.952712,2.19424 -0.976242,0.75995 -1.881486,1.45929 -2.011661,1.55411 -0.709631,0.5169 -3.606577,2.67455 -4.75948,3.54486 -0.73286,0.55321 -1.479361,1.00584 -1.658928,1.00584 -0.179735,0 -0.326541,0.10985 -0.326541,0.24403 0,0.13417 -0.178338,0.31251 -0.396088,0.39608 -0.361035,0.13865 -0.625326,0.3469 -1.753743,1.38245 -0.20629,0.18924 -0.456884,0.34402 -0.55715,0.34402 -0.10035,0 -0.798576,0.62985 -1.551814,1.39969 -0.789771,0.8071 -1.605957,1.42315 -1.927887,1.45515 -0.59933,0.0595 -1.419123,-0.20852 -1.641569,-0.53713 -0.07519,-0.11097 -0.411434,0.014 -0.747312,0.27869 -0.335877,0.26415 -0.720281,0.48036 -0.854229,0.48036 -0.133893,0 -0.969143,-0.4916 -1.855994,-1.09241 z m -2.695352,-7.59932 c -0.315585,-0.35483 -1.073825,-1.18019 -1.685036,-1.83416 -2.405261,-2.57354 -3.01348,-3.27733 -5.527141,-6.39566 -0.734453,-0.91114 -1.892248,-2.24238 -2.572836,-2.9583 -0.680561,-0.71592 -1.804645,-1.94066 -2.497896,-2.72166 -0.693279,-0.78099 -2.045483,-2.28081 -3.004871,-3.33297 -0.959359,-1.05214 -2.034917,-2.27568 -2.390082,-2.71898 -0.355165,-0.44327 -1.298676,-1.49943 -2.096665,-2.34698 -2.988267,-3.17381 -6.155542,-6.95948 -7.291847,-8.71546 -0.310385,-0.47967 -0.813223,-1.1399 -1.117431,-1.4672 -1.197627,-1.28859 -4.455664,-5.2818 -5.523032,-6.76933 -0.260238,-0.36279 -0.899317,-1.15298 -1.41999,-1.75592 -1.006766,-1.1659 -2.543597,-3.07411 -4.177061,-5.18651 -0.654061,-0.84579 -1.033489,-1.17188 -1.101581,-0.94664 -0.05702,0.18896 -0.237597,0.66309 -0.401259,1.05359 -0.163523,0.39049 -0.485089,1.24249 -0.714467,1.89331 -0.229491,0.65082 -0.495515,1.28981 -0.591365,1.41999 -0.09588,0.13025 -0.468736,1.24841 -0.828653,2.48498 -0.359913,1.23656 -0.786783,2.5678 -0.948593,2.9583 -0.16185,0.3905 -0.5349,1.34899 -0.82905,2.12998 -0.29414,0.781 -0.72145,1.84599 -0.94958,2.36666 -0.22809,0.52067 -0.55183,1.42592 -0.71941,2.01166 -0.16744,0.58575 -0.44472,1.27506 -0.61593,1.5318 -0.60017,0.90007 -0.36738,1.18782 1.88263,2.32719 1.20665,0.61104 2.263847,1.11098 2.34927,1.11098 0.08554,0 1.023007,0.53249 2.083415,1.18331 1.060436,0.65082 2.017894,1.18332 2.127636,1.18332 0.109854,0 0.235081,0.0853 0.278407,0.18951 0.04333,0.10427 0.877627,0.5964 1.853869,1.0939 0.976243,0.49747 3.015102,1.63698 4.530801,2.53225 1.515671,0.89529 2.860496,1.62779 2.988463,1.62779 0.128022,0 0.357149,0.14982 0.509267,0.33319 0.152062,0.18337 0.617751,0.50524 1.034803,0.71553 0.417052,0.2102 1.45052,0.79953 2.296587,1.30941 0.846096,0.50991 1.911088,1.11332 2.366659,1.34097 1.126935,0.5631 4.350199,2.4949 4.496614,2.69496 0.06513,0.0889 0.384599,0.29929 0.709995,0.46745 0.734257,0.37951 3.152684,1.94446 3.313327,2.1441 0.06513,0.0808 1.023567,0.74994 2.129984,1.48682 1.10639,0.73686 2.43763,1.64716 2.958302,2.0229 0.520672,0.37574 1.372666,0.90933 1.89331,1.18575 0.520672,0.27645 2.384408,1.50421 4.141645,2.72839 1.757237,1.22418 3.293397,2.23509 3.413733,2.24641 0.120196,0.0112 -0.03941,-0.26975 -0.354997,-0.62449 z m 8.537854,0.21943 c 0,-0.37938 2.662871,-4.18724 2.884004,-4.12409 0.125227,0.0358 0.160727,-0.0433 0.07883,-0.17611 -0.0819,-0.13249 0.122991,-0.59796 0.455738,-1.03404 0.332636,-0.43609 0.604782,-0.86248 0.604782,-0.94751 0,-0.085 0.387003,-0.69328 0.859988,-1.35165 0.547311,-0.76182 0.982029,-1.15019 1.195614,-1.06823 0.184487,0.0707 0.273376,0.0282 0.197625,-0.0948 -0.209365,-0.33895 0.539624,-1.95819 0.82446,-1.78212 0.136129,0.0841 0.220266,0.0651 0.187003,-0.0422 -0.08777,-0.28353 1.754581,-3.52901 2.865052,-5.04672 1.71514,-2.34422 5.507099,-8.1115 7.080073,-10.76825 0.847689,-1.43184 1.790053,-2.93286 2.094065,-3.33566 0.304012,-0.40277 0.552789,-0.80336 0.552789,-0.89018 0,-0.0869 0.4123,-0.76897 0.916257,-1.51597 0.503928,-0.74698 1.264964,-1.99713 1.691129,-2.77812 2.379489,-4.36057 4.730745,-7.84791 5.065533,-7.51309 0.08917,0.0892 0.09951,-0.002 0.02236,-0.2007 -0.07911,-0.20629 0.06876,-0.55086 0.342474,-0.79863 0.264991,-0.23983 0.481707,-0.53814 0.481707,-0.66306 0,-0.12495 0.745494,-1.32828 1.656635,-2.67408 0.91117,-1.34581 1.656664,-2.55831 1.656664,-2.69449 0,-0.13613 0.124389,-0.24766 0.276171,-0.24766 0.151782,0 0.219987,-0.0562 0.151223,-0.12495 -0.190356,-0.19035 -14.942453,0.42653 -18.017988,0.75352 -1.145971,0.12187 -1.4137,0.2376 -1.583791,0.68514 -0.112649,0.29616 -0.791756,2.81083 -1.509186,5.58817 -0.717403,2.7773 -1.527607,5.79515 -1.800424,6.70629 -0.740239,2.47243 -0.876117,2.99891 -1.770934,6.8633 -0.751336,3.24467 -1.687132,6.93265 -2.612249,10.29492 -0.197066,0.71589 -0.39933,1.67439 -0.449673,2.12998 -0.05031,0.45558 -0.266388,1.30757 -0.479805,1.89331 -0.213558,0.58575 -0.545382,1.63791 -0.737333,2.33815 -0.192034,0.70021 -0.401929,1.35872 -0.466584,1.46337 -0.06457,0.10455 -0.32397,1.1292 -0.576241,2.27682 -0.543677,2.47338 -0.66801,2.93077 -1.74136,6.40575 -0.452272,1.46435 -0.726179,2.66248 -0.608639,2.66248 0.11768,0 0.213837,-0.0853 0.213837,-0.18924 z m 7.573267,-3.48552 c 1.492778,-1.18317 6.072831,-4.66852 11.094227,-8.44265 1.350779,-1.01523 2.528811,-1.8459 2.617868,-1.8459 0.08889,0 0.400392,-0.22222 0.691909,-0.49378 0.565005,-0.52637 7.147494,-4.92091 10.592227,-7.07152 1.139709,-0.71153 3.764062,-2.57527 5.8318515,-4.14162 2.0678176,-1.56637 4.1243425,-3.06097 4.5700179,-3.32129 0.4457033,-0.26024 0.8106239,-0.5806 0.8109872,-0.71173 0,-0.1311 0.4778768,-0.52665 1.0611626,-0.87894 0.8380174,-0.50619 1.0225042,-0.72925 0.8793592,-1.06329 -0.3956963,-0.9231 -3.23397,-6.58344 -3.3567655,-6.69429 -0.3132922,-0.28288 -0.7052708,-1.47786 -0.5612033,-1.71095 0.086932,-0.1406 0.055346,-0.19204 -0.070161,-0.11461 -0.125507,0.0774 -0.8045862,-1.10418 -1.5093538,-2.62592 -1.3377809,-2.8885 -2.9510618,-5.85748 -3.4737748,-6.39283 -0.167995,-0.17191 -0.305354,-0.46488 -0.305354,-0.65082 0,-0.74102 -0.475668,-0.22418 -2.138873,2.32437 -0.955669,1.46438 -2.518468,3.71249 -3.472824,4.99579 -0.954356,1.28333 -2.024156,2.82757 -2.37728,3.43165 -0.353153,0.60408 -1.498061,2.37633 -2.544241,3.93832 -2.466477,3.68255 -2.690601,4.0648 -4.89396,8.34747 -1.022672,1.98779 -2.070166,3.82491 -2.327721,4.08247 -0.257443,0.25744 -0.468289,0.55556 -0.468289,0.66222 0,0.10678 -0.399358,0.74044 -0.887493,1.40842 -0.488108,0.66798 -1.206991,1.75517 -1.597488,2.41599 -0.390497,0.6608 -1.19609,1.86413 -1.790193,2.67406 -0.594104,0.80987 -1.595755,2.37778 -2.225918,3.4842 -1.105439,1.94094 -4.317578,6.85762 -4.638501,7.09994 -0.08609,0.0651 -0.382531,0.56372 -0.658478,1.1081 -0.275892,0.54438 -0.609757,1.05652 -0.741777,1.13814 -0.131936,0.0816 -0.240113,0.25493 -0.240113,0.38499 0,0.30681 0.274774,0.13446 2.129985,-1.33596 z m -10.648942,-2.47861 c 0.168554,-0.84606 0.38759,-1.64481 0.486626,-1.77498 0.09895,-0.13026 0.358883,-0.92889 0.577388,-1.77499 0.218589,-0.84607 0.506192,-1.67008 0.639302,-1.83114 0.133055,-0.16101 0.178617,-0.45829 0.100909,-0.66055 -0.07771,-0.20238 0.06457,-0.97571 0.316255,-1.71883 0.251573,-0.74309 0.723552,-2.36283 1.048892,-3.59942 0.991393,-3.76803 2.038998,-6.97679 2.308097,-7.06942 0.181133,-0.0623 0.180574,-0.1339 -0.0028,-0.24711 -0.179455,-0.11097 -0.118519,-0.62443 0.199861,-1.68718 0.251852,-0.84031 0.734425,-2.8058 1.072651,-4.36778 0.610763,-2.8207 1.116397,-4.70939 2.597686,-9.70328 0.892888,-3.01002 2.235449,-8.02236 2.167161,-8.0907 -0.02516,-0.0252 -2.014177,0.0992 -4.419018,0.27729 -2.404814,0.17806 -5.350034,0.38655 -6.544893,0.4632 -1.19486,0.0766 -3.005347,0.24542 -4.023295,0.37523 -1.017947,0.1297 -3.927556,0.29152 -6.465787,0.35942 -2.538231,0.0679 -5.36046,0.16995 -6.271629,0.22641 -0.911142,0.0568 -2.056022,0.10622 -2.544129,0.11014 -1.129255,0.008 -1.128808,0.22781 0.0056,2.42178 0.490819,0.94988 1.304014,2.63229 1.807076,3.73871 0.50309,1.10641 1.338368,2.9169 1.856189,4.02329 0.517849,1.10642 1.680675,3.71565 2.584074,5.79831 0.903398,2.08263 1.905245,4.34363 2.226336,5.02436 0.321091,0.68075 0.648136,1.55936 0.726766,1.95248 0.07855,0.39313 0.236199,0.71475 0.350022,0.71475 0.114046,0 0.207128,0.19176 0.207128,0.426 0,0.23424 0.08945,0.52718 0.198743,0.65084 0.109295,0.12355 0.339456,0.59757 0.511448,1.05314 0.171908,0.4556 0.893531,2.05309 1.603414,3.54998 2.304799,4.86022 2.614094,5.54631 2.980105,6.61072 0.198463,0.57702 0.296744,1.1526 0.218589,1.27905 -0.07827,0.12663 -0.02907,0.16017 0.109015,0.0749 0.150664,-0.0931 0.553376,0.57889 1.006599,1.67924 1.52101,3.69287 1.673211,3.98632 1.872345,3.60941 0.103145,-0.19539 0.32548,-1.04725 0.49409,-1.89334 z m -8.421571,-5.81706 c -1.793045,-4.00661 -4.174713,-9.57037 -5.715905,-13.35279 -0.450847,-1.10639 -0.902756,-2.11814 -1.004223,-2.24831 -0.101468,-0.13026 -0.26555,-0.50292 -0.364278,-0.82832 -0.09895,-0.32542 -0.602992,-1.49691 -1.120366,-2.60333 -1.668571,-3.5682 -3.017813,-6.62422 -3.017813,-6.83521 0,-0.44976 -4.13734,-9.0625 -4.285545,-8.92125 -0.05087,0.0486 -3.659715,0.16073 -8.019284,0.24878 -4.359619,0.0883 -7.959851,0.19371 -8.00055,0.23452 -0.04081,0.0408 0.210762,0.37876 0.558743,0.7512 0.347982,0.37243 1.019514,1.1543 1.492247,1.73744 0.953797,1.17664 4.665867,5.57156 6.380728,7.55457 0.607974,0.70303 1.365264,1.66153 1.682861,2.12998 0.317597,0.46846 1.063091,1.44859 1.656664,2.17809 0.593544,0.72948 1.451939,1.79229 1.907509,2.36177 0.941666,1.17714 2.579517,3.0137 3.792127,4.25225 1.347089,1.37588 2.834304,3.08337 2.837044,3.25726 0.0024,0.0892 0.850903,1.05512 1.887747,2.14639 1.036844,1.09127 1.817978,2.09286 1.735853,2.22572 -0.08218,0.13278 -0.03382,0.17023 0.107338,0.083 0.229211,-0.14172 1.082714,0.6535 2.893061,2.69491 0.325423,0.36696 0.910107,1.02158 1.29929,1.4547 0.389211,0.43316 1.378927,1.58628 2.199362,2.56252 1.93823,2.30629 2.693145,3.11702 2.801517,3.00865 0.04836,-0.0484 -0.718521,-1.88996 -1.704183,-4.09242 z m -22.880251,-38.66738 5.737205,-0.008 -0.390553,-1.00582 c -0.214676,-0.55321 -0.46815,-1.11234 -0.563021,-1.24249 -0.09476,-0.13026 -0.783733,-1.67441 -1.530821,-3.43165 -1.181442,-2.778846 -5.054357,-10.808411 -5.536315,-11.478266 -0.09364,-0.130258 -0.536326,-1.167717 -0.983678,-2.305637 -0.447353,-1.137977 -0.901833,-2.040341 -1.009954,-2.005316 -0.108176,0.03494 -0.517737,0.859624 -0.910274,1.832345 -0.39251,0.972749 -1.014175,2.407609 -1.381527,3.188603 -0.609897,1.296859 -2.254932,5.182962 -3.706759,8.756611 -0.31729,0.78099 -0.670917,1.63299 -0.785802,1.89331 -0.114885,0.26024 -0.595585,1.48509 -1.068151,2.72166 -0.472538,1.23659 -0.958186,2.43324 -1.079192,2.65926 -0.121035,0.22614 -0.219987,0.46552 -0.219987,0.53222 0,0.0668 1.730626,0.0721 3.845824,0.0112 2.115169,-0.0601 6.427548,-0.11321 9.583005,-0.11796 z m 58.63564,-2.97239 c 2.977282,-0.13193 7.52695,-0.39527 8.401613,-0.48617 0.325396,-0.0338 0.722154,-0.0702 0.881624,-0.0808 0.333893,-0.0224 0.25325,-0.27365 -0.879136,-2.74086 -0.418198,-0.91114 -0.838101,-1.709882 -0.933056,-1.774983 -0.159329,-0.109295 -0.792259,-1.065607 -4.854798,-7.336593 -1.891857,-2.920315 -3.019127,-4.612143 -3.908465,-5.865843 -0.395669,-0.557821 -0.719443,-1.103902 -0.719443,-1.213532 0,-0.109573 -0.154298,-0.327436 -0.343145,-0.484082 -0.18868,-0.156534 -0.570987,-0.755417 -0.84945,-1.330625 -0.563188,-1.163441 -0.937389,-1.347928 -0.937389,-0.462223 0,0.321007 -0.152062,0.933363 -0.338198,1.360842 -0.379568,0.872203 -1.039779,3.103962 -1.805092,6.102125 -0.282432,1.106417 -0.884167,3.236402 -1.337166,4.733316 -0.452999,1.496887 -1.131575,3.83987 -1.507872,5.206608 -0.376353,1.36674 -0.839219,3.00135 -1.028626,3.63244 l -0.344375,1.14745 3.949835,-0.14592 c 2.172416,-0.0802 5.121326,-0.1979 6.553139,-0.26135 z"
       id="path836"
       sodipodi:nodetypes="sssssssssscsssscsssssssssssssssssssssccssscsscssccsscccssssssssccccsssssssccssssssssssssssssssssssssssscssscsssssssssssssccssssscssssssssssssssssssssccccscsssscssssssssscssssssssssssscsssssccssssssscscsssscssssssssssssssssssccssssssccssssscscccsssssssssssssssccssscssccsssssssscsssssssssccccssscsssssssccccscsssssssscsssscscc" />
  </g>
</svg>
