<?xml version="1.0" encoding="UTF-8" standalone="no"?>
<!-- Created with Inkscape (http://www.inkscape.org/) -->

<svg
   width="241.20702mm"
   height="209.00429mm"
   viewBox="0 0 241.20702 209.00429"
   version="1.1"
   id="svg15443"
   inkscape:version="1.1.1 (c3084ef, 2021-09-22)"
   sodipodi:docname="mail.svg"
   xmlns:inkscape="http://www.inkscape.org/namespaces/inkscape"
   xmlns:sodipodi="http://sodipodi.sourceforge.net/DTD/sodipodi-0.dtd"
   xmlns="http://www.w3.org/2000/svg"
   xmlns:svg="http://www.w3.org/2000/svg">
  <sodipodi:namedview
     id="namedview15445"
     pagecolor="#ffffff"
     bordercolor="#666666"
     borderopacity="1.0"
     inkscape:pageshadow="2"
     inkscape:pageopacity="0.0"
     inkscape:pagecheckerboard="0"
     inkscape:document-units="mm"
     showgrid="false"
     inkscape:zoom="0.56311988"
     inkscape:cx="1109.0001"
     inkscape:cy="155.38432"
     inkscape:window-width="2560"
     inkscape:window-height="1387"
     inkscape:window-x="0"
     inkscape:window-y="25"
     inkscape:window-maximized="1"
     inkscape:current-layer="layer1" />
  <defs
     id="defs15440">
    <clipPath
       clipPathUnits="userSpaceOnUse"
       id="clipPath16615">
      <rect
         style="fill:#e6e6e6;stroke-width:1.19827;stroke-dasharray:0, 13.1809"
         id="rect16617"
         width="790.22479"
         height="1226.9279"
         x="-1668.83"
         y="-280.73773" />
    </clipPath>
    <clipPath
       clipPathUnits="userSpaceOnUse"
       id="clipPath16723">
      <rect
         style="fill:#e6e6e6;stroke-width:0.765;stroke-dasharray:0, 8.41499"
         id="rect16725"
         width="779.82703"
         height="829.21613"
         x="-317.12967"
         y="1138.5472" />
    </clipPath>
    <clipPath
       clipPathUnits="userSpaceOnUse"
       id="clipPath16615-6">
      <rect
         style="fill:#e6e6e6;stroke-width:1.19827;stroke-dasharray:0, 13.1809"
         id="rect16617-4"
         width="790.22479"
         height="1226.9279"
         x="-1668.83"
         y="-280.73773" />
    </clipPath>
  </defs>
  <g
     inkscape:label="Layer 1"
     inkscape:groupmode="layer"
     id="layer1"
     transform="translate(421.50801,-1351.0258)">
    <g
       id="g18494"
       transform="matrix(215.89999,0,0,-294.30133,0,294.30133)" />
    <path
       style="fill:#000000;stroke-width:0.547644"
       d="m -409.25066,1559.3055 c -3.73042,-0.9029 -7.30128,-3.2574 -7.6452,-5.0407 -0.13906,-0.7205 0.20569,-1.8182 0.81371,-2.5912 0.99818,-1.269 1.26958,-1.3234 5.03882,-1.0045 2.44124,0.207 4.71574,0.097 5.87407,-0.2846 1.03964,-0.3428 4.99264,-0.8603 8.78439,-1.15 3.79168,-0.2911 7.97262,-0.762 9.29085,-1.0498 1.31829,-0.2846 3.38263,-0.6669 4.58747,-0.8422 1.20477,-0.1746 2.80663,-0.4463 3.55966,-0.6015 3.53056,-0.7277 12.50402,-1.4599 27.1084,-2.2135 7.85839,-0.4075 8.67526,-0.4592 19.71519,-1.26 4.21684,-0.304 9.88496,-0.5692 12.5958,-0.5821 5.34587,0 17.18721,-0.4916 22.45346,-0.8926 1.80722,-0.1359 6.71888,-0.5046 10.91477,-0.8183 4.19588,-0.3104 10.72654,-0.4657 14.51253,-0.3428 3.78605,0.1229 10.32279,0 14.52611,-0.2134 7.3062,-0.4205 9.86232,-0.6016 19.73978,-1.3978 7.80205,-0.6339 18.43002,-0.3817 26.84604,0.6274 4.52434,0.5433 8.85974,0.8279 9.63418,0.6339 l 1.4082,-0.3558 0.43208,-9.1842 c 0.23738,-5.0511 0.50064,-12.6344 0.58473,-16.8511 0.18758,-9.3951 0.89249,-32.5009 1.09455,-35.8709 0.0815,-1.3551 0.42432,-7.2697 0.76216,-13.1435 0.67981,-11.8174 1.24339,-18.9571 2.5285,-32.0372 0.47347,-4.8188 0.967,-9.994 1.09662,-11.5005 0.12937,-1.5058 0.46636,-4.4631 0.74831,-6.5717 0.28202,-2.108 0.66688,-5.7975 0.8553,-8.1979 0.18822,-2.4003 0.58149,-6.2198 0.87399,-8.4882 0.78757,-6.1125 1.07735,-10.4217 1.24804,-18.5607 l 0.1533,-7.3168 -2.39234,0.3299 c -1.31584,0.1811 -3.42707,0.9624 -4.6918,1.738 -1.26467,0.7749 -4.39789,2.6882 -6.96281,4.2503 -2.56485,1.5627 -5.52374,3.5025 -6.57529,4.3104 -1.05154,0.8085 -2.52636,1.8027 -3.27739,2.2108 -0.75102,0.4075 -2.72099,1.6145 -4.37757,2.6824 -1.65665,1.0679 -4.12105,2.5381 -5.47647,3.2665 -1.35542,0.7283 -2.58762,1.4469 -2.7382,1.5976 -0.15071,0.1488 -1.1364,0.7478 -2.1906,1.3273 -2.93593,1.6125 -17.13695,10.4203 -23.27486,14.4352 -9.15954,5.9915 -16.23043,11.6357 -23.98067,19.1427 -1.31196,1.2704 -5.83494,6.1759 -7.35614,7.978 -1.54824,1.8337 -1.68219,2.236 -1.09527,3.2891 0.3674,0.6597 0.81351,1.3221 0.99055,1.4728 0.77121,0.6565 0.86409,2.7561 0.16623,3.7529 -0.59313,0.8466 -0.60995,1.139 -0.0763,1.3298 1.36635,0.4851 -0.20957,1.1313 -3.07274,1.2542 -2.55689,0.11 -3.58716,-0.2134 -8.0756,-2.5161 -2.82966,-1.4528 -8.51647,-4.359 -12.63732,-6.4579 -6.35149,-3.2348 -13.21455,-6.9236 -16.99653,-9.1351 -0.51746,-0.304 -5.62549,-3.63 -11.35176,-7.3952 -14.89222,-9.7916 -14.33666,-9.474 -26.18499,-14.9856 -5.94599,-2.7658 -13.52172,-6.5329 -16.83495,-8.3705 -3.31329,-1.8376 -8.36531,-4.2529 -11.22673,-5.3661 -8.85845,-3.4482 -18.81967,-7.5148 -20.45063,-8.3492 -0.85633,-0.4398 -1.67657,-0.6772 -1.82275,-0.5304 -0.5,0.4981 0.0582,72.1882 0.62159,79.4973 0.96034,12.5031 1.23408,42.6347 0.56727,62.4314 -0.23351,6.9275 -0.45213,14.6202 -0.48577,17.0943 -0.0453,3.3758 -0.28589,4.7225 -0.9584,5.3952 -1.16784,1.1681 -5.72225,1.3622 -7.78646,0.3298 l -1.57748,-0.7871 0.39262,-12.3867 c 0.21604,-6.8124 0.51294,-13.2489 0.66041,-14.3032 0.35381,-2.5311 0.29366,-47.2124 -0.0673,-50.3831 -0.26584,-2.3299 -0.48964,-16.6557 -1.13285,-72.3699 -0.152,-13.1467 -0.41461,-24.6058 -0.58472,-25.4655 -0.21346,-1.0776 0.001,-1.9016 0.69087,-2.6571 0.5498,-0.6016 1.28608,-1.7406 1.63582,-2.5291 0.79119,-1.7839 2.59137,-2.1746 6.98964,-1.5181 3.83049,0.5692 38.57878,0.5045 46.30956,-0.091 2.86142,-0.2199 10.37784,-0.5627 16.70313,-0.7626 21.1831,-0.6662 28.1294,-1.4314 47.37125,-5.2192 4.3887,-0.8635 13.80821,-2.0925 19.16753,-2.5006 2.56026,-0.1941 4.78753,-0.4334 4.94943,-0.5369 0.16171,-0.097 5.46049,-0.3363 11.7744,-0.5239 16.6193,-0.4916 25.41682,-1.1817 35.02856,-2.7348 0.60219,-0.097 3.42442,-0.4592 6.27115,-0.7981 2.84667,-0.3429 6.66649,-0.8293 8.48847,-1.0841 5.51443,-0.7717 13.93983,-0.7025 18.89386,0.1552 2.57487,0.4463 6.44696,1.0705 8.60463,1.3887 4.3006,0.6339 6.54838,1.458 6.96869,2.5531 1.21376,3.1629 1.79856,25.2416 0.69773,26.3425 -0.19405,0.1941 -0.12549,0.6274 0.152,0.9625 0.30918,0.3751 0.29754,2.2846 -0.0323,4.9275 -0.29495,2.3751 -0.41203,4.6416 -0.26002,5.0368 0.152,0.3946 0.0673,0.848 -0.18758,1.0052 -0.25485,0.1552 -0.48965,2.0756 -0.52134,4.2619 -0.0582,3.8544 -0.90646,13.5736 -1.42088,16.243 -0.13907,0.7225 -0.38939,3.064 -0.55627,5.2024 -0.41203,5.2872 -1.35219,15.5659 -1.60826,17.5794 -0.11514,0.9036 -0.37581,4.8467 -0.57956,8.7619 -0.20375,3.9159 -0.45019,8.5982 -0.54721,10.4055 -0.097,1.8072 -0.32988,7.7217 -0.51746,13.1434 -0.18758,5.4217 -0.45989,10.6157 -0.60607,11.542 -0.26973,1.7147 -0.94624,19.2979 -0.91448,23.7811 0.0129,1.3551 0.0517,6.3563 0.0867,11.1131 0.0388,4.7567 -0.0783,9.4391 -0.25808,10.4054 -0.17982,0.9657 -0.54721,5.6992 -0.81565,10.5187 -0.44436,7.9798 -0.67729,10.2903 -1.38549,13.7612 -0.17271,0.8473 -0.87503,1.3188 -2.57158,1.725 -3.2567,0.7808 -4.97964,0.5304 -5.59102,-0.8227 -0.55433,-1.2232 -3.40818,-1.8325 -13.44592,-2.8687 -6.19987,-0.6403 -24.14134,-0.1552 -31.76339,0.8577 -1.05419,0.1423 -9.30993,0.3752 -18.34606,0.5239 -9.03613,0.1488 -20.00271,0.511 -24.3702,0.8034 -11.56864,0.7781 -16.99264,1.0265 -29.84659,1.3674 -6.32529,0.1681 -14.21137,0.5304 -17.52466,0.8007 -5.67342,0.4658 -8.95799,0.6339 -27.10839,1.3991 -6.75608,0.2846 -15.11583,1.1468 -15.91653,1.6417 -0.69702,0.4333 -7.60387,1.3376 -12.49696,1.6416 -2.8263,0.1746 -7.38544,0.793 -10.13147,1.3726 -5.76902,1.2179 -5.161,1.2043 -9.28341,0.2069 z m 118.51064,-130.5181 c 5.26243,-6.9048 20.44934,-20.9706 28.31847,-26.2287 2.62779,-1.7555 6.06915,-4.1002 7.64734,-5.2108 1.57825,-1.1099 3.09796,-2.0181 3.3772,-2.0181 0.27942,0 0.5899,-0.2005 0.69016,-0.4463 0.18111,-0.4398 10.05514,-6.6752 10.57227,-6.6752 0.23609,0 6.21941,-3.4748 8.50399,-4.9385 0.45148,-0.2911 1.68401,-1.0201 2.73827,-1.6235 2.56523,-1.4677 8.57856,-5.3713 11.40428,-7.4029 10.54097,-7.5789 13.6159,-9.4184 18.65958,-11.1636 1.84073,-0.6339 4.70124,-1.1584 6.35666,-1.1584 1.65542,0 3.0098,-0.2329 3.0098,-0.5175 0,-0.8066 -0.80517,-1.1184 -3.65436,-1.4146 -1.45393,-0.1488 -4.79601,-0.5369 -7.4269,-0.8609 -3.46309,-0.4205 -6.41086,-0.414 -10.67906,0.065 -3.2426,0.3428 -6.88143,0.716 -8.08627,0.8337 -2.96698,0.2911 -10.21154,1.3441 -11.22667,1.6352 -2.23419,0.6403 -17.87711,1.9236 -27.10839,2.2231 -18.93765,0.6145 -28.69835,1.3939 -37.51366,2.9955 -22.80345,4.1429 -31.30279,5.2075 -45.72832,5.7276 -4.51807,0.1617 -11.78804,0.4722 -16.15546,0.6908 -4.36749,0.2199 -18.47608,0.401 -31.35253,0.4075 -12.87639,0 -23.41167,0.1746 -23.4118,0.3687 -1.9e-4,0.4722 1.48873,1.0168 2.79034,1.0168 0.58149,0 1.48582,0.2328 2.00884,0.5174 2.58561,1.3991 10.72085,4.9877 14.36822,6.3383 2.25904,0.837 4.35378,1.6979 4.655,1.9139 0.30142,0.2135 1.25258,0.5628 2.11408,0.7678 0.86157,0.207 2.58665,0.8286 3.83353,1.3836 1.24689,0.5562 3.37532,1.4288 4.72984,1.9411 1.35458,0.511 2.58678,1.1235 2.73826,1.3577 0.2762,0.4269 20.68744,10.8466 25.23409,12.8808 1.33291,0.5951 3.60495,1.7671 5.04892,2.6015 1.44397,0.8345 2.93781,1.5168 3.3195,1.5168 0.38163,0 1.18252,0.4528 1.77948,1.011 0.59702,0.5563 1.73019,1.3571 2.51841,1.7801 4.19614,2.2509 7.00801,4 7.00801,4.3602 0,0.22 1.04352,0.9489 2.31893,1.6139 1.27541,0.6649 4.04789,2.3673 6.161,3.7832 2.11317,1.4159 4.2733,2.7374 4.80047,2.9366 0.52716,0.2005 0.95833,0.6145 0.95833,0.9269 0,0.3105 0.31306,0.5628 0.69605,0.5628 0.38292,0 3.64821,1.6008 7.25633,3.5581 3.60811,1.9567 7.72793,3.947 9.15508,4.423 1.42722,0.4722 2.73574,1.0925 2.90799,1.3713 0.44372,0.718 2.46602,-0.9399 4.6647,-3.8247 z"
       id="path20085"
       sodipodi:nodetypes="cssssscsssscscsccsccsssssssssscssssssssssssssscsssssssssccsssscssssssscscssccscssssssssscsssssssccsssssscscscscsscccsssssssscsscccsssssscsscscsssssssssssssssscscc" />
  </g>
</svg>
