<?xml version="1.0" encoding="UTF-8" standalone="no"?>
<!-- Created with Inkscape (http://www.inkscape.org/) -->

<svg
   width="107.41358mm"
   height="99.264168mm"
   viewBox="0 0 107.41358 99.264168"
   version="1.1"
   id="svg5"
   inkscape:version="1.1.1 (c3084ef, 2021-09-22)"
   sodipodi:docname="music.svg"
   xmlns:inkscape="http://www.inkscape.org/namespaces/inkscape"
   xmlns:sodipodi="http://sodipodi.sourceforge.net/DTD/sodipodi-0.dtd"
   xmlns="http://www.w3.org/2000/svg"
   xmlns:svg="http://www.w3.org/2000/svg">
  <sodipodi:namedview
     id="namedview7"
     pagecolor="#ffffff"
     bordercolor="#666666"
     borderopacity="1.0"
     inkscape:pageshadow="2"
     inkscape:pageopacity="0.0"
     inkscape:pagecheckerboard="0"
     inkscape:document-units="mm"
     showgrid="false"
     inkscape:zoom="0.51580387"
     inkscape:cx="56.22292"
     inkscape:cy="316.98095"
     inkscape:window-width="1946"
     inkscape:window-height="1223"
     inkscape:window-x="0"
     inkscape:window-y="25"
     inkscape:window-maximized="0"
     inkscape:current-layer="layer1" />
  <defs
     id="defs2" />
  <g
     inkscape:label="Layer 1"
     inkscape:groupmode="layer"
     id="layer1"
     transform="translate(-85.024082,-64.634222)">
    <g
       id="g1178">
      <path
         style="fill:#00ab00;fill-opacity:0.527027;stroke-width:0.186329"
         d="m 91.23998,163.8388 c -0.98701,-0.26864 -1.653174,-0.76238 -2.563202,-1.89968 -1.371084,-1.71354 -1.536029,-2.10477 -1.536029,-3.64321 0,-1.03867 0.104975,-1.54684 0.489115,-2.36587 0.530268,-1.1308 2.154172,-2.92945 3.051128,-3.37948 0.702718,-0.35258 2.811028,-0.69112 4.603465,-0.73922 0.482292,-0.0132 0.906044,-0.11466 0.941674,-0.22582 0.03565,-0.11136 0.08363,-1.46002 0.106736,-2.99723 0.02311,-1.53722 0.08715,-3.02061 0.142168,-3.29641 0.05502,-0.27581 0.01981,-0.65313 -0.07703,-0.83848 -0.242499,-0.46107 -0.411164,-4.95662 -0.501989,-13.38006 -0.04203,-3.8943 -0.12082,-8.04478 -0.175399,-9.2233 -0.05436,-1.17854 -0.147009,-4.28093 -0.205769,-6.89419 -0.146789,-6.51772 -0.416776,-12.48753 -0.821954,-18.167116 -0.450932,-6.320923 -0.392943,-6.995274 0.592791,-6.892873 0.234445,0.02443 0.531633,0.05502 0.660398,0.068 0.128743,0.0132 0.411495,0.227754 0.628246,0.477032 0.291466,0.335217 0.473115,0.4087 0.697502,0.282157 0.166816,-0.09419 1.519215,-0.583042 3.005179,-1.086506 2.5414,-0.861061 3.93,-1.420908 5.68306,-2.2913 0.40991,-0.203569 1.03877,-0.479234 1.39747,-0.612686 0.83021,-0.308896 3.97584,-1.821817 4.09923,-1.971556 0.16176,-0.196306 4.95403,-2.559087 7.26685,-3.582915 0.56365,-0.24952 1.77945,-0.894051 2.70178,-1.432286 0.92233,-0.538257 2.30583,-1.316351 3.07444,-1.7291 0.76861,-0.412748 1.48132,-0.814053 1.5838,-0.891784 0.10256,-0.07769 0.60556,-0.37034 1.11798,-0.65023 0.5124,-0.27989 1.19855,-0.707912 1.52478,-0.951138 0.32622,-0.243248 0.64194,-0.442261 0.7016,-0.442261 0.0596,0 0.54739,-0.281409 1.08382,-0.625362 0.53645,-0.343932 1.43653,-0.915266 2.00019,-1.269608 2.21075,-1.389811 2.90218,-1.83819 3.25207,-2.108947 0.20027,-0.154932 0.46372,-0.281651 0.58564,-0.281651 0.12192,0 0.26823,-0.121481 0.32516,-0.269744 0.057,-0.14833 0.38033,-0.411627 0.71868,-0.585001 0.33834,-0.173419 0.65707,-0.374434 0.70833,-0.446773 0.16395,-0.231584 2.36742,-1.679759 2.55574,-1.679759 0.0997,0 0.33319,-0.167696 0.51869,-0.372651 0.18552,-0.204889 0.45003,-0.372673 0.58786,-0.372673 0.13777,0 0.25062,-0.08957 0.25062,-0.198947 0,-0.428837 1.88991,0.391599 2.27755,0.988726 0.51524,0.793675 0.50661,1.37214 -0.0251,1.686252 -0.26525,0.156692 -0.52422,0.273089 -0.57545,0.258675 -0.0513,-0.01541 -0.29661,0.116199 -0.5453,0.290475 -0.43632,0.305617 -0.45117,0.390214 -0.42485,2.4189 0.0808,6.228843 0.25986,15.43991 0.31433,16.170072 0.0689,0.924839 0.0819,2.916817 0.0651,10.154942 -0.011,4.452496 0.0742,7.405556 0.30896,10.807116 0.18245,2.64291 0.27886,4.94376 0.37886,9.03696 0.10982,4.49171 0.22415,7.04114 0.37626,8.38482 0.0522,0.46117 0.13117,1.3835 0.1754,2.04964 0.0442,0.66612 0.17958,2.25924 0.30049,3.54024 0.2502,2.64934 0.10806,3.55004 -0.68586,4.34389 -0.66641,0.66641 -3.63043,2.07968 -5.20125,2.48002 -1.37656,0.35079 -3.98871,0.4522 -5.17462,0.20092 -0.99459,-0.21083 -1.86009,-1.05226 -2.46206,-2.39363 -0.48918,-1.09005 -0.5131,-1.26662 -0.42455,-3.13511 0.0596,-1.25805 0.19873,-2.18049 0.38163,-2.52991 0.31264,-0.59739 1.25559,-1.52916 1.99654,-1.97287 1.08857,-0.65186 5.07134,-1.5129 6.764,-1.46233 1.51157,0.0451 1.47773,0.0592 1.34284,-0.55491 -0.0667,-0.30366 -0.15141,-1.54041 -0.18838,-2.74835 -0.037,-1.20795 -0.11444,-3.6636 -0.17232,-5.45703 -0.0579,-1.79342 -0.15207,-5.18928 -0.20929,-7.54634 -0.0572,-2.35705 -0.14151,-4.53711 -0.18728,-4.84455 -0.0458,-0.30744 -0.0898,-3.65906 -0.0977,-7.448036 -0.009,-3.78897 -0.0563,-6.957046 -0.10784,-7.040168 -0.10476,-0.169677 -0.80901,0.654192 -0.80901,0.946517 0,0.283499 -2.83264,3.012769 -3.01192,2.901984 -0.0856,-0.05304 -0.15559,0.03455 -0.15559,0.194325 0,0.159774 -0.068,0.290476 -0.15119,0.290476 -0.0832,0 -0.31374,0.151191 -0.5124,0.336075 -0.73742,0.686081 -2.72786,1.898667 -2.92084,1.779409 -0.11224,-0.06932 -0.14591,-0.03653 -0.0772,0.0746 0.14151,0.228811 -0.89519,1.163748 -1.29031,1.163748 -0.14591,0 -0.26519,0.0702 -0.26519,0.15581 0,0.0856 -0.45005,0.38357 -1.00011,0.66188 -0.55005,0.2783 -1.16084,0.65573 -1.35728,0.83876 -0.19653,0.18311 -1.39765,0.85526 -2.66935,1.49387 -1.27167,0.63861 -2.53945,1.32299 -2.8173,1.52082 -0.27784,0.19785 -0.56946,0.35971 -0.64805,0.35971 -0.0786,0 -0.27527,0.10762 -0.43706,0.23924 -0.2648,0.21545 -2.1031,1.08362 -3.69467,1.74506 -0.33306,0.13842 -0.87808,0.37531 -1.21114,0.52646 -0.33306,0.15119 -1.31828,0.5754 -2.18938,0.94282 -0.87108,0.36739 -1.76711,0.78716 -1.99115,0.93283 -1.06249,0.69076 -1.87888,1.05615 -3.72708,1.66811 -2.36784,0.78402 -5.49866,1.45456 -6.33939,1.35773 -0.3291,-0.0379 -0.56006,-0.0306 -0.51323,0.0154 0.15955,0.15956 -1.41581,0.75809 -2.0165,0.76626 -0.32916,0.004 -0.996871,0.0282 -1.483762,0.0526 l -0.88527,0.0445 0.08891,0.83848 c 0.04886,0.46117 0.131824,2.64122 0.183982,4.84458 0.297342,12.51237 0.450095,16.54167 0.840528,22.17318 0.09595,1.3835 0.127203,3.73125 0.06932,5.21723 -0.138647,3.56474 -0.11642,6.27724 0.06602,8.10533 0.233785,2.34033 0.191904,5.03932 -0.07725,4.98655 -0.126543,-0.0249 -0.181341,0.0722 -0.124562,0.22045 0.100134,0.26074 -0.644487,1.73242 -1.215733,2.40303 -0.160654,0.18882 -0.838328,0.59974 -1.505681,0.9133 -1.040906,0.48912 -1.464966,0.57794 -2.983499,0.62495 -0.973564,0.0301 -1.937818,0.009 -2.142773,-0.0467 z m 3.11517,-2.68044 c 0.278614,-0.12852 0.462177,-0.30548 0.407929,-0.39325 -0.05414,-0.0878 -0.256188,-0.0753 -0.448753,0.0277 -0.246065,0.13161 -0.6442,0.10674 -1.33959,-0.0841 -2.06764,-0.56737 -1.995522,-0.5664 -1.362083,-0.0176 0.307444,0.26609 0.539622,0.56081 0.515986,0.65494 -0.05964,0.23772 1.609599,0.0973 2.226511,-0.18728 z m 49.9887,-25.14731 c 0.0634,-0.10255 0.0264,-0.1864 -0.0821,-0.1864 -0.1085,0 -0.19741,0.0839 -0.19741,0.1864 0,0.10256 0.037,0.18641 0.0821,0.18641 0.0451,0 0.13403,-0.0839 0.19741,-0.18641 z m -2.8881,-4.26186 v -0.7216 l -0.90237,-0.0867 c -1.08556,-0.10432 -2.63503,0.0801 -2.32623,0.2769 0.12016,0.0766 0.6652,0.22293 1.21114,0.32524 0.54596,0.10234 1.20226,0.34825 1.45847,0.54654 0.25619,0.19828 0.48678,0.36519 0.5124,0.37089 0.0255,0.007 0.0467,-0.31438 0.0467,-0.71126 z m -41.03708,-21.93405 c 0.64159,-0.24704 1.32852,-0.44918 1.52655,-0.44918 0.19806,0 0.93082,-0.1985 1.62841,-0.44109 2.03001,-0.70598 3.05855,-1.03054 4.20877,-1.3281 0.59239,-0.15317 1.41278,-0.44992 1.82309,-0.65926 0.41033,-0.20929 0.83995,-0.32254 0.95477,-0.25158 0.11686,0.0722 0.15735,0.0458 0.0918,-0.0601 -0.1118,-0.18068 0.74768,-0.63123 1.73464,-0.9093 0.44315,-0.12478 1.21371,-0.46446 4.24471,-1.87076 0.74523,-0.34576 1.40334,-0.62866 1.46248,-0.62866 0.22727,0 1.49366,-0.64924 2.0271,-1.03924 0.30744,-0.22478 1.43536,-0.84389 2.50651,-1.37583 1.07112,-0.53194 2.245,-1.197051 2.6086,-1.47802 0.36361,-0.280968 1.52355,-1.050215 2.57766,-1.709403 1.05411,-0.659187 2.46056,-1.554889 3.12543,-1.990437 0.66489,-0.435527 1.23827,-0.791893 1.27421,-0.791893 0.0845,0 1.50433,-1.220948 4.58407,-3.9419 0.56366,-0.497983 1.12797,-0.990399 1.25403,-1.094252 0.23347,-0.192345 0.77263,0.01981 1.3141,0.517658 0.59321,0.545212 0.78503,0.279758 0.80787,-1.117976 0.0132,-0.74297 0.007,-1.433804 -0.0154,-1.535192 -0.0198,-0.101454 -0.0345,-0.671798 -0.0317,-1.267627 0.002,-0.595828 -0.0689,-1.267538 -0.15956,-1.492652 -0.0907,-0.225136 -0.17011,-0.320098 -0.17672,-0.211051 -0.007,0.108937 -0.38913,0.480994 -0.8503,0.82651 -0.46116,0.345538 -0.83848,0.735488 -0.83848,0.866564 0,0.131164 -0.15383,0.320626 -0.34182,0.421243 -0.18794,0.100574 -0.54435,0.480312 -0.79191,0.843764 -0.24754,0.363453 -0.53392,0.662533 -0.63639,0.664602 -0.10255,0.0021 -0.39596,0.172098 -0.65217,0.377801 -1.03448,0.830603 -2.49916,1.856919 -2.65004,1.856919 -0.0883,0 -0.34296,0.170117 -0.56603,0.377845 -0.22307,0.20775 -0.82765,0.616053 -1.34353,0.907189 -0.51588,0.291158 -1.7912,1.164368 -2.83405,1.940481 -1.7285,1.286398 -2.54381,1.799655 -5.64939,3.556506 -2.16951,1.227309 -7.17751,3.631731 -8.1985,3.936241 -0.25619,0.0764 -1.59776,0.70728 -2.98126,1.40194 -3.3688,1.69149 -6.41148,2.88343 -8.478,3.32123 -2.40787,0.51008 -4.297319,0.78331 -4.706657,0.68058 l -0.449479,-0.1129 0.09749,1.82428 c 0.0537,1.00336 0.102775,1.88509 0.109157,1.95938 0.01761,0.20907 1.102659,-0.0288 2.389409,-0.52439 z m -0.792813,-6.32636 c 1.671773,-0.16 7.048663,-2.08928 8.749723,-3.13947 1.59237,-0.983069 2.01036,-1.212783 3.43047,-1.885153 0.75578,-0.35784 1.49114,-0.650605 1.6341,-0.650605 0.14304,0 0.57269,-0.193005 0.95496,-0.428704 1.13011,-0.69704 3.42548,-1.649785 3.71085,-1.540298 0.14525,0.0559 0.21677,0.02465 0.15867,-0.06932 -0.0581,-0.09397 0.0843,-0.22978 0.31638,-0.30192 0.23209,-0.07218 0.84119,-0.39818 1.35361,-0.724528 0.5124,-0.326348 1.26813,-0.806417 1.67941,-1.066831 0.41127,-0.260413 0.95596,-0.539555 1.21043,-0.620322 0.25445,-0.08077 0.54825,-0.263891 0.65287,-0.406983 0.1919,-0.26235 0.37056,-0.379166 1.70485,-1.114301 0.40317,-0.222143 1.52553,-1.021364 2.49414,-1.776086 2.02497,-1.577842 3.25184,-2.421342 4.29831,-2.95522 0.40507,-0.206649 1.59303,-1.235759 2.6399,-2.286877 1.96484,-1.972854 3.51665,-3.189753 3.77268,-2.958455 0.0805,0.07284 0.0942,-0.0132 0.0304,-0.191685 -0.11576,-0.322474 0.024,-0.394394 1.08171,-0.557139 0.36081,-0.05546 0.37111,-0.181561 0.32371,-3.966747 -0.0268,-2.150189 -0.0883,-4.017165 -0.13645,-4.148857 -0.0693,-0.189924 -0.20027,-0.181121 -0.63214,0.04225 -0.29956,0.154932 -0.65743,0.392128 -0.79524,0.527165 -0.39807,0.390037 -2.61276,1.688584 -2.87988,1.688584 -0.13337,0 -0.20335,0.06338 -0.15538,0.140628 0.0478,0.07747 -0.68951,0.596114 -1.63858,1.152659 -2.9337,1.720429 -3.35749,1.976155 -4.86108,2.933257 -0.8022,0.51066 -1.4956,0.928448 -1.54092,0.928448 -0.0453,0 -0.40196,0.201808 -0.79259,0.448357 -0.66194,0.417855 -4.15007,2.240508 -9.43731,4.931265 -3.22063,1.639024 -9.28466,4.563895 -10.80711,5.21263 -0.71737,0.305661 -2.43626,0.899332 -3.81976,1.319278 -2.670487,0.810576 -5.011018,1.608543 -5.162561,1.760086 -0.0504,0.0504 0.011,1.417849 0.135566,3.038848 0.125002,1.620999 0.253679,3.450386 0.285986,4.065276 0.03235,0.61489 0.111577,1.55401 0.176059,2.08694 0.116419,0.96093 0.121481,0.96736 0.617528,0.77712 0.275092,-0.10541 0.836017,-0.22397 1.246543,-0.26327 z M 140.09239,91.629736 c -0.0594,-0.14855 -0.10365,-0.104535 -0.11268,0.112458 -0.009,0.196526 0.0359,0.306475 0.0979,0.244546 0.0618,-0.06184 0.0684,-0.222627 0.0154,-0.357114 z m 26.42651,68.579314 c -0.71634,-0.20401 -1.42905,-0.47421 -1.5838,-0.60036 -0.15472,-0.1261 -0.49097,-0.33689 -0.74718,-0.46829 -0.29782,-0.15274 -0.76821,-0.83816 -1.30431,-1.90048 -0.79128,-1.56798 -0.8391,-1.75022 -0.84942,-3.23704 -0.009,-1.34411 0.064,-1.73432 0.49972,-2.65658 0.5994,-1.26882 1.06619,-1.81172 2.26969,-2.63975 0.74603,-0.51328 1.1329,-0.63361 2.48572,-0.77318 2.51716,-0.25971 4.68315,0.30773 5.11022,1.33875 0.3234,0.78078 0.69322,0.65939 0.80609,-0.26459 0.30613,-2.50596 0.36779,-5.58478 0.47862,-23.89674 0.0517,-8.5271 -0.16858,-17.11116 -0.60932,-23.75699 -0.13931,-2.100854 -0.21655,-5.148241 -0.17166,-6.771925 0.0449,-1.623706 -0.0224,-4.348773 -0.14965,-6.055711 -0.1272,-1.706938 -0.24824,-5.460631 -0.26902,-8.341532 -0.0425,-5.89136 -0.0332,-5.938038 1.16092,-5.903552 0.87345,0.02531 1.88799,0.157133 1.98256,0.257993 0.0394,0.04203 0.38431,0.45377 0.76629,0.914935 0.38199,0.461165 1.08283,1.267979 1.55744,1.792899 1.22241,1.352003 1.51506,1.725953 1.51506,1.935838 0,0.101234 0.10476,0.185522 0.23293,0.187063 0.12808,0.0015 0.65214,0.479123 1.16454,1.061351 1.48277,1.684798 1.90197,2.063282 3.17743,2.868797 0.66073,0.417282 1.20132,0.835049 1.20132,0.928338 0,0.09331 0.0839,0.169677 0.1864,0.169677 0.19719,0 0.29864,0.07835 1.77012,1.367628 0.51242,0.448951 1.12267,0.916036 1.35612,1.037979 0.23519,0.122802 0.36774,0.313452 0.29728,0.427472 -0.0742,0.120161 -0.0423,0.153392 0.0766,0.07989 0.11202,-0.06932 0.83774,0.30423 1.61259,0.829987 1.38931,0.942621 1.40887,0.967072 1.40887,1.760769 0,0.865771 -0.38535,1.445424 -0.84387,1.269475 -0.15075,-0.05788 -0.2741,-0.01981 -0.2741,0.08319 0,0.103655 -0.47305,-0.07615 -1.05121,-0.399303 -0.57815,-0.3232 -1.56288,-0.867245 -2.18826,-1.208976 -0.62538,-0.341731 -1.6826,-1.058116 -2.34931,-1.59195 -0.66674,-0.533833 -2.00882,-1.52694 -2.98238,-2.206858 -1.7708,-1.236728 -2.6888,-2.057208 -4.71317,-4.212547 -0.59385,-0.632295 -1.15983,-1.149601 -1.25772,-1.149601 -0.15472,0 -0.31013,4.409931 -0.17408,4.937713 0.0264,0.102554 0.072,0.66612 0.10101,1.252529 0.029,0.58641 0.10718,1.153804 0.1732,1.260848 0.0662,0.107177 0.1052,0.381895 0.0867,0.610772 -0.0678,0.840903 0.0176,1.081026 0.43847,1.241261 0.49671,0.188824 1.61885,1.403611 1.61885,1.752494 0,0.129624 0.67078,0.914474 1.49065,1.744285 0.81984,0.829833 1.49062,1.606276 1.49062,1.725424 0,0.11906 0.0724,0.171878 0.16066,0.1173 0.0885,-0.05458 0.41528,0.170997 0.72637,0.501416 0.31108,0.33042 1.28684,1.299758 2.16835,2.154063 0.88151,0.854327 1.60276,1.643887 1.60276,1.754606 0,0.110698 0.0566,0.144589 0.12588,0.07527 0.0693,-0.06932 0.29983,0.03653 0.5124,0.234951 0.21259,0.198512 0.85811,0.639472 1.43455,0.979942 0.57642,0.34048 1.68361,1.10165 2.4604,1.69152 1.45031,1.10131 1.90518,1.84628 1.67195,2.73818 -0.10938,0.4181 -1.14188,0.70349 -1.68535,0.46581 -0.18002,-0.0788 -0.40364,-0.12544 -0.49673,-0.10388 -0.0931,0.022 -0.21875,-0.035 -0.27949,-0.1261 -0.0605,-0.0911 -0.7391,-0.52849 -1.50771,-0.97213 -0.76861,-0.44365 -1.43939,-0.86298 -1.49062,-0.93184 -0.0513,-0.0689 -0.51242,-0.36561 -1.02482,-0.65941 -1.09624,-0.62853 -3.10765,-2.20655 -3.9432,-3.09358 -0.32408,-0.344064 -1.14201,-1.212498 -1.81757,-1.929851 -0.67558,-0.717376 -1.71006,-1.86504 -2.29885,-2.550394 -0.58879,-0.685333 -1.12374,-1.251319 -1.1888,-1.257723 -0.0918,-0.0088 -0.19674,1.9043 -0.1985,3.62178 -9.3e-4,0.902656 0.2719,6.125938 0.35042,6.707858 0.23709,1.757 0.3502,13.83273 0.25487,27.2102 -0.0328,4.61501 -0.007,8.55634 0.0568,8.7585 0.0643,0.20225 0.0365,1.16369 -0.0612,2.13668 -0.0977,0.97301 -0.26995,3.11068 -0.38247,4.75036 -0.11246,1.63971 -0.32516,3.65207 -0.47252,4.47191 -0.14745,0.81986 -0.26787,2.10269 -0.26779,2.85077 1.4e-4,1.25667 -0.29459,2.31276 -0.69468,2.48937 -0.079,0.035 -0.31136,0.39362 -0.51632,0.79722 -0.2723,0.53616 -0.72391,0.9479 -1.67696,1.52885 -2.0586,1.25484 -4.03832,1.4938 -6.51967,0.78696 z m 3.9493,-3.58551 c 0.52265,-0.60107 0.31495,-0.80307 -0.73364,-0.71355 -0.79942,0.0682 -0.86401,0.10828 -0.69218,0.42948 0.10432,0.19476 0.12368,0.35544 0.0431,0.357 -0.27653,0.004 0.41279,0.36409 0.70516,0.36695 0.16087,0.001 0.4657,-0.1963 0.67743,-0.43988 z m 0.32381,-2.77144 c -0.15031,-0.48911 -0.23609,-0.60731 -0.35467,-0.48874 -0.14239,0.14239 0.11598,0.90799 0.30639,0.90799 0.0977,0 0.11928,-0.18817 0.0482,-0.41925 z"
         id="path836"
         sodipodi:nodetypes="csscssssscsccsscssssssssssssssssscscsssssscssccscsscssssscsssssssccsssssscssscssssssssssccscccsccsccssccccssscccsssssccssssscccssssscsssssssssssscccssssssssssssssssscccccssssssssssssssssscsccssscsssssssscscsssccccccssscssssscsssssssssssssssssssssssssssssscccssscsssssssssccsssssssssccsccssssccsscccsscsscc" />
      <path
         style="fill:#000000;stroke-width:0.186329"
         d="m 89.123312,161.72212 c -0.98701,-0.26864 -1.65317,-0.76238 -2.5632,-1.89968 -1.37109,-1.71354 -1.53603,-2.10477 -1.53603,-3.64321 0,-1.03867 0.10497,-1.54684 0.48911,-2.36587 0.53027,-1.1308 2.15418,-2.92945 3.05113,-3.37948 0.70272,-0.35258 2.81103,-0.69112 4.60347,-0.73922 0.48229,-0.0132 0.90604,-0.11466 0.94167,-0.22582 0.0357,-0.11136 0.0836,-1.46002 0.10674,-2.99723 0.0231,-1.53722 0.0872,-3.02061 0.14217,-3.29641 0.055,-0.27581 0.0198,-0.65313 -0.077,-0.83848 -0.2425,-0.46107 -0.41117,-4.95662 -0.50199,-13.38006 -0.042,-3.8943 -0.12082,-8.04478 -0.1754,-9.2233 -0.0544,-1.17854 -0.14701,-4.28093 -0.20577,-6.89419 -0.14679,-6.51772 -0.41678,-12.48753 -0.82196,-18.167105 -0.45093,-6.320922 -0.39294,-6.995273 0.5928,-6.892872 0.23444,0.02443 0.53163,0.05502 0.66039,0.068 0.12875,0.0132 0.4115,0.227754 0.62825,0.477032 0.29147,0.335217 0.47311,0.4087 0.6975,0.282157 0.16682,-0.09419 1.51922,-0.583042 3.00518,-1.086506 2.541388,-0.861061 3.929988,-1.420908 5.683048,-2.2913 0.40991,-0.203569 1.03877,-0.479234 1.39747,-0.612686 0.83021,-0.308896 3.97584,-1.821817 4.09923,-1.971556 0.16176,-0.196306 4.95403,-2.559087 7.26685,-3.582915 0.56365,-0.24952 1.77945,-0.894051 2.70178,-1.432286 0.92233,-0.538257 2.30583,-1.316351 3.07444,-1.7291 0.76861,-0.412748 1.48132,-0.814053 1.5838,-0.891784 0.10256,-0.07769 0.60556,-0.37034 1.11798,-0.65023 0.5124,-0.27989 1.19855,-0.707912 1.52478,-0.951138 0.32622,-0.243248 0.64194,-0.442261 0.7016,-0.442261 0.0596,0 0.54739,-0.281409 1.08382,-0.625362 0.53645,-0.343932 1.43653,-0.915266 2.00019,-1.269608 2.21075,-1.389811 2.90218,-1.83819 3.25207,-2.108947 0.20027,-0.154932 0.46372,-0.281651 0.58564,-0.281651 0.12192,0 0.26823,-0.121481 0.32516,-0.269744 0.057,-0.14833 0.38033,-0.411627 0.71868,-0.585001 0.33834,-0.173419 0.65707,-0.374434 0.70833,-0.446773 0.16395,-0.231584 2.36742,-1.679759 2.55574,-1.679759 0.0997,0 0.33319,-0.167696 0.51869,-0.372651 0.18552,-0.204889 0.45003,-0.372673 0.58786,-0.372673 0.13777,0 0.25062,-0.08957 0.25062,-0.198947 0,-0.428837 1.88991,0.391599 2.27755,0.988726 0.51524,0.793675 0.50661,1.37214 -0.0251,1.686252 -0.26525,0.156692 -0.52422,0.273089 -0.57545,0.258675 -0.0513,-0.01541 -0.29661,0.116199 -0.5453,0.290475 -0.43632,0.305617 -0.45117,0.390214 -0.42485,2.4189 0.0808,6.228843 0.25986,15.43991 0.31433,16.170072 0.0689,0.924839 0.0819,2.916817 0.0651,10.154941 -0.011,4.452485 0.0742,7.405545 0.30896,10.807105 0.18245,2.64291 0.27886,4.94376 0.37886,9.03696 0.10982,4.49171 0.22415,7.04114 0.37626,8.38482 0.0522,0.46117 0.13117,1.3835 0.1754,2.04964 0.0442,0.66612 0.17958,2.25924 0.30049,3.54024 0.2502,2.64934 0.10806,3.55004 -0.68586,4.34389 -0.66641,0.66641 -3.63043,2.07968 -5.20125,2.48002 -1.37656,0.35079 -3.98871,0.4522 -5.17462,0.20092 -0.99459,-0.21083 -1.86009,-1.05226 -2.46206,-2.39363 -0.48918,-1.09005 -0.5131,-1.26662 -0.42455,-3.13511 0.0596,-1.25805 0.19873,-2.18049 0.38163,-2.52991 0.31264,-0.59739 1.25559,-1.52916 1.99654,-1.97287 1.08857,-0.65186 5.07134,-1.5129 6.764,-1.46233 1.51157,0.0451 1.47773,0.0592 1.34284,-0.55491 -0.0667,-0.30366 -0.15141,-1.54041 -0.18838,-2.74835 -0.037,-1.20795 -0.11444,-3.6636 -0.17232,-5.45703 -0.0579,-1.79342 -0.15207,-5.18928 -0.20929,-7.54634 -0.0572,-2.35705 -0.14151,-4.53711 -0.18728,-4.84455 -0.0458,-0.30744 -0.0898,-3.65906 -0.0977,-7.448025 -0.009,-3.78897 -0.0563,-6.957045 -0.10784,-7.040167 -0.10476,-0.169677 -0.80901,0.654192 -0.80901,0.946517 0,0.283499 -2.83264,3.01277 -3.01192,2.90198 -0.0856,-0.053 -0.15559,0.0345 -0.15559,0.19433 0,0.15977 -0.068,0.29047 -0.15119,0.29047 -0.0832,0 -0.31374,0.1512 -0.5124,0.33608 -0.73742,0.68608 -2.72786,1.89867 -2.92084,1.77941 -0.11224,-0.0693 -0.14591,-0.0365 -0.0772,0.0746 0.14151,0.22881 -0.89519,1.163747 -1.29031,1.163747 -0.14591,0 -0.26519,0.0702 -0.26519,0.15581 0,0.0856 -0.45005,0.383567 -1.00011,0.661877 -0.55005,0.278297 -1.16084,0.655724 -1.35728,0.838754 -0.19653,0.18311 -1.39765,0.855257 -2.66935,1.493867 -1.27167,0.63861 -2.53945,1.32299 -2.8173,1.52082 -0.27784,0.19785 -0.56946,0.35971 -0.64805,0.35971 -0.0786,0 -0.27527,0.10762 -0.43706,0.23924 -0.2648,0.21545 -2.1031,1.08362 -3.69467,1.74506 -0.33306,0.13842 -0.87808,0.37531 -1.21114,0.52646 -0.33306,0.15119 -1.31828,0.5754 -2.18938,0.94282 -0.87108,0.36739 -1.76711,0.78716 -1.99115,0.93283 -1.06249,0.69076 -1.87888,1.05615 -3.72708,1.66811 -2.36784,0.78402 -5.49866,1.45456 -6.33939,1.35773 -0.3291,-0.0379 -0.56006,-0.0306 -0.51323,0.0154 0.15955,0.15956 -1.415801,0.75809 -2.016488,0.76626 -0.32916,0.004 -0.99687,0.0282 -1.48376,0.0526 l -0.88527,0.0445 0.0889,0.83848 c 0.0489,0.46117 0.13182,2.64122 0.18398,4.84458 0.29734,12.51237 0.4501,16.54167 0.84053,22.17318 0.0959,1.3835 0.1272,3.73125 0.0693,5.21723 -0.13865,3.56474 -0.11642,6.27724 0.066,8.10533 0.233783,2.34033 0.191903,5.03932 -0.0772,4.98655 -0.12654,-0.0249 -0.18134,0.0722 -0.12456,0.22045 0.10013,0.26074 -0.64449,1.73242 -1.21574,2.40303 -0.16065,0.18882 -0.83832,0.59974 -1.50568,0.9133 -1.0409,0.48912 -1.46496,0.57794 -2.9835,0.62495 -0.97356,0.0301 -1.93781,0.009 -2.14277,-0.0467 z m 3.11517,-2.68044 c 0.27861,-0.12852 0.46218,-0.30548 0.40793,-0.39325 -0.0541,-0.0878 -0.25619,-0.0753 -0.44875,0.0277 -0.24607,0.13161 -0.6442,0.10674 -1.33959,-0.0841 -2.06764,-0.56737 -1.99553,-0.5664 -1.36209,-0.0176 0.30745,0.26609 0.53962,0.56081 0.51599,0.65494 -0.0596,0.23772 1.6096,0.0973 2.22651,-0.18728 z m 49.988688,-25.14731 c 0.0634,-0.10255 0.0264,-0.1864 -0.0821,-0.1864 -0.1085,0 -0.19741,0.0839 -0.19741,0.1864 0,0.10256 0.037,0.18641 0.0821,0.18641 0.0451,0 0.13403,-0.0839 0.19741,-0.18641 z m -2.8881,-4.26186 v -0.7216 l -0.90237,-0.0867 c -1.08556,-0.10432 -2.63503,0.0801 -2.32623,0.2769 0.12016,0.0766 0.6652,0.22293 1.21114,0.32524 0.54596,0.10234 1.20226,0.34825 1.45847,0.54654 0.25619,0.19828 0.48678,0.36519 0.5124,0.37089 0.0255,0.007 0.0467,-0.31438 0.0467,-0.71126 z M 98.302002,107.69846 c 0.641584,-0.24704 1.328511,-0.44918 1.526541,-0.44918 0.198057,0 0.930817,-0.1985 1.628407,-0.44109 2.03001,-0.70598 3.05855,-1.03054 4.20877,-1.3281 0.59239,-0.15317 1.41278,-0.44992 1.82309,-0.65926 0.41033,-0.20929 0.83995,-0.32254 0.95477,-0.25158 0.11686,0.0722 0.15735,0.0458 0.0918,-0.0601 -0.1118,-0.18068 0.74768,-0.63123 1.73464,-0.9093 0.44315,-0.12478 1.21371,-0.46446 4.24471,-1.87076 0.74523,-0.34576 1.40334,-0.62866 1.46248,-0.62866 0.22727,0 1.49366,-0.64924 2.0271,-1.03924 0.30744,-0.224777 1.43536,-0.843884 2.50651,-1.375821 1.07112,-0.531937 2.245,-1.197044 2.6086,-1.478014 0.36361,-0.28097 1.52355,-1.05022 2.57766,-1.70941 1.05411,-0.65918 2.46056,-1.55489 3.12543,-1.99043 0.66489,-0.43553 1.23827,-0.7919 1.27421,-0.7919 0.0845,0 1.50433,-1.220944 4.58407,-3.941896 0.56366,-0.497983 1.12797,-0.990399 1.25403,-1.094252 0.23347,-0.192345 0.77263,0.01981 1.3141,0.517658 0.59321,0.545212 0.78503,0.279758 0.80787,-1.117976 0.0132,-0.74297 0.007,-1.433804 -0.0154,-1.535192 -0.0198,-0.101454 -0.0345,-0.671798 -0.0317,-1.267627 0.002,-0.595828 -0.0689,-1.267538 -0.15956,-1.492652 -0.0907,-0.225136 -0.17011,-0.320098 -0.17672,-0.211051 -0.007,0.108937 -0.38913,0.480994 -0.8503,0.82651 -0.46116,0.345538 -0.83848,0.735488 -0.83848,0.866564 0,0.131164 -0.15383,0.320626 -0.34182,0.421243 -0.18794,0.100574 -0.54435,0.480312 -0.79191,0.843764 -0.24754,0.363453 -0.53392,0.662533 -0.63639,0.664602 -0.10255,0.0021 -0.39596,0.172098 -0.65217,0.377801 -1.03448,0.830603 -2.49916,1.856919 -2.65004,1.856919 -0.0883,0 -0.34296,0.170117 -0.56603,0.377845 -0.22307,0.20775 -0.82765,0.616053 -1.34353,0.907189 -0.51588,0.291158 -1.7912,1.164368 -2.83405,1.940481 -1.7285,1.2864 -2.54381,1.79965 -5.64939,3.55651 -2.16951,1.2273 -7.17751,3.631724 -8.1985,3.936231 -0.25619,0.0764 -1.59776,0.707277 -2.98126,1.401934 -3.3688,1.69149 -6.41148,2.88343 -8.478,3.32123 -2.407861,0.51008 -4.297308,0.78331 -4.706648,0.68058 l -0.44948,-0.1129 0.0975,1.82428 c 0.0537,1.00336 0.10278,1.88509 0.10916,1.95938 0.0176,0.20907 1.10266,-0.0288 2.38941,-0.52439 z m -0.792807,-6.32636 c 1.671761,-0.16 7.048645,-2.089274 8.749705,-3.139458 1.59237,-0.983067 2.01036,-1.212787 3.43047,-1.885157 0.75578,-0.35784 1.49114,-0.6506 1.6341,-0.6506 0.14304,0 0.57269,-0.19301 0.95496,-0.42871 1.13011,-0.69704 3.42548,-1.64978 3.71085,-1.54029 0.14525,0.0559 0.21677,0.0247 0.15867,-0.0693 -0.0581,-0.094 0.0843,-0.22978 0.31638,-0.30192 0.23209,-0.0722 0.84119,-0.39818 1.35361,-0.72453 0.5124,-0.32635 1.26813,-0.806418 1.67941,-1.066832 0.41127,-0.260413 0.95596,-0.539555 1.21043,-0.620322 0.25445,-0.08077 0.54825,-0.263891 0.65287,-0.406983 0.1919,-0.26235 0.37056,-0.379166 1.70485,-1.114301 0.40317,-0.222143 1.52553,-1.021364 2.49414,-1.776086 2.02497,-1.577842 3.25184,-2.421342 4.29831,-2.95522 0.40507,-0.206649 1.59303,-1.235759 2.6399,-2.286877 1.96484,-1.972854 3.51665,-3.189753 3.77268,-2.958455 0.0805,0.07284 0.0942,-0.0132 0.0304,-0.191685 -0.11576,-0.322474 0.024,-0.394394 1.08171,-0.557139 0.36081,-0.05546 0.37111,-0.181561 0.32371,-3.966747 -0.0268,-2.150189 -0.0883,-4.017165 -0.13645,-4.148857 -0.0693,-0.189924 -0.20027,-0.181121 -0.63214,0.04225 -0.29956,0.154932 -0.65743,0.392128 -0.79524,0.527165 -0.39807,0.390037 -2.61276,1.688584 -2.87988,1.688584 -0.13337,0 -0.20335,0.06338 -0.15538,0.140628 0.0478,0.07747 -0.68951,0.596114 -1.63858,1.152659 -2.9337,1.720429 -3.35749,1.976155 -4.86108,2.933257 -0.8022,0.51066 -1.4956,0.928448 -1.54092,0.928448 -0.0453,0 -0.40196,0.201808 -0.79259,0.448357 -0.66194,0.417855 -4.15007,2.240508 -9.43731,4.931265 -3.22063,1.639024 -9.28466,4.563895 -10.80711,5.21263 -0.71737,0.305661 -2.43626,0.899332 -3.81976,1.319278 -2.670475,0.810576 -5.011008,1.608543 -5.162548,1.760086 -0.0504,0.0504 0.011,1.417847 0.13557,3.038847 0.125,1.621 0.25367,3.450387 0.28598,4.065274 0.0324,0.614887 0.11158,1.554001 0.17606,2.086931 0.11642,0.96093 0.12148,0.96736 0.61753,0.77712 0.27509,-0.10541 0.83601,-0.22397 1.246543,-0.26327 z M 137.97571,89.513068 c -0.0594,-0.14855 -0.10365,-0.104535 -0.11268,0.112458 -0.009,0.196526 0.0359,0.306475 0.0979,0.244546 0.0618,-0.06184 0.0684,-0.222627 0.0154,-0.357114 z m 26.42651,68.579302 c -0.71634,-0.20401 -1.42905,-0.47421 -1.5838,-0.60036 -0.15472,-0.1261 -0.49097,-0.33689 -0.74718,-0.46829 -0.29782,-0.15274 -0.76821,-0.83816 -1.30431,-1.90048 -0.79128,-1.56798 -0.8391,-1.75022 -0.84942,-3.23704 -0.009,-1.34411 0.064,-1.73432 0.49972,-2.65658 0.5994,-1.26882 1.06619,-1.81172 2.26969,-2.63975 0.74603,-0.51328 1.1329,-0.63361 2.48572,-0.77318 2.51716,-0.25971 4.68315,0.30773 5.11022,1.33875 0.3234,0.78078 0.69322,0.65939 0.80609,-0.26459 0.30613,-2.50596 0.36779,-5.58478 0.47862,-23.89674 0.0517,-8.5271 -0.16858,-17.11116 -0.60932,-23.756984 -0.13931,-2.100851 -0.21655,-5.148231 -0.17166,-6.771921 0.0449,-1.623704 -0.0224,-4.348771 -0.14965,-6.055709 -0.1272,-1.706938 -0.24824,-5.460631 -0.26902,-8.341532 -0.0425,-5.89136 -0.0332,-5.938038 1.16092,-5.903552 0.87345,0.02531 1.88799,0.157133 1.98256,0.257993 0.0394,0.04203 0.38431,0.45377 0.76629,0.914935 0.38199,0.461165 1.08283,1.267979 1.55744,1.792899 1.22241,1.352003 1.51506,1.725953 1.51506,1.935838 0,0.101234 0.10476,0.185522 0.23293,0.187063 0.12808,0.0015 0.65214,0.479123 1.16454,1.061351 1.48277,1.684798 1.90197,2.063282 3.17743,2.868797 0.66073,0.417282 1.20132,0.835049 1.20132,0.928338 0,0.09331 0.0839,0.169677 0.1864,0.169677 0.19719,0 0.29864,0.07835 1.77012,1.367628 0.51242,0.448951 1.12267,0.916036 1.35612,1.037979 0.23519,0.122802 0.36774,0.313452 0.29728,0.427472 -0.0742,0.120161 -0.0423,0.153392 0.0766,0.07989 0.11202,-0.06932 0.83774,0.30423 1.61259,0.829987 1.38931,0.942621 1.40887,0.967072 1.40887,1.760769 0,0.865771 -0.38535,1.445424 -0.84387,1.269475 -0.15075,-0.05788 -0.2741,-0.01981 -0.2741,0.08319 0,0.103655 -0.47305,-0.07615 -1.05121,-0.399303 -0.57815,-0.3232 -1.56288,-0.867245 -2.18826,-1.208976 -0.62538,-0.341731 -1.6826,-1.058116 -2.34931,-1.59195 -0.66674,-0.533833 -2.00882,-1.52694 -2.98238,-2.206858 -1.7708,-1.236728 -2.6888,-2.057208 -4.71317,-4.212547 -0.59385,-0.632295 -1.15983,-1.149601 -1.25772,-1.149601 -0.15472,0 -0.31013,4.409931 -0.17408,4.937713 0.0264,0.102554 0.072,0.66612 0.10101,1.252529 0.029,0.58641 0.10718,1.153804 0.1732,1.260848 0.0662,0.107177 0.1052,0.381895 0.0867,0.610772 -0.0678,0.840903 0.0176,1.081026 0.43847,1.241261 0.49671,0.188824 1.61885,1.403611 1.61885,1.752494 0,0.129624 0.67078,0.914474 1.49065,1.744285 0.81984,0.829833 1.49062,1.606275 1.49062,1.725425 0,0.11906 0.0724,0.17188 0.16066,0.1173 0.0885,-0.0546 0.41528,0.171 0.72637,0.50141 0.31108,0.33042 1.28684,1.29976 2.16835,2.15407 0.88151,0.85432 1.60276,1.64388 1.60276,1.7546 0,0.1107 0.0566,0.14459 0.12588,0.0753 0.0693,-0.0693 0.29983,0.0365 0.5124,0.23495 0.21259,0.198517 0.85811,0.639477 1.43455,0.979944 0.57642,0.340477 1.68361,1.101644 2.4604,1.691511 1.45031,1.10131 1.90518,1.84628 1.67195,2.73818 -0.10938,0.4181 -1.14188,0.70349 -1.68535,0.46581 -0.18002,-0.0788 -0.40364,-0.12544 -0.49673,-0.10388 -0.0931,0.022 -0.21875,-0.035 -0.27949,-0.1261 -0.0605,-0.0911 -0.7391,-0.52849 -1.50771,-0.97213 -0.76861,-0.44365 -1.43939,-0.86298 -1.49062,-0.93184 -0.0513,-0.0689 -0.51242,-0.36561 -1.02482,-0.65941 -1.09624,-0.62853 -3.10765,-2.206541 -3.9432,-3.093565 -0.32408,-0.34407 -1.14201,-1.2125 -1.81757,-1.92985 -0.67558,-0.71738 -1.71006,-1.86504 -2.29885,-2.5504 -0.58879,-0.68533 -1.12374,-1.251317 -1.1888,-1.257721 -0.0918,-0.0088 -0.19674,1.904301 -0.1985,3.621781 -9.3e-4,0.90265 0.2719,6.125925 0.35042,6.707845 0.23709,1.757 0.3502,13.83273 0.25487,27.2102 -0.0328,4.61501 -0.007,8.55634 0.0568,8.7585 0.0643,0.20225 0.0365,1.16369 -0.0612,2.13668 -0.0977,0.97301 -0.26995,3.11068 -0.38247,4.75036 -0.11246,1.63971 -0.32516,3.65207 -0.47252,4.47191 -0.14745,0.81986 -0.26787,2.10269 -0.26779,2.85077 1.4e-4,1.25667 -0.29459,2.31276 -0.69468,2.48937 -0.079,0.035 -0.31136,0.39362 -0.51632,0.79722 -0.2723,0.53616 -0.72391,0.9479 -1.67696,1.52885 -2.0586,1.25484 -4.03832,1.4938 -6.51967,0.78696 z m 3.9493,-3.58551 c 0.52265,-0.60107 0.31495,-0.80307 -0.73364,-0.71355 -0.79942,0.0682 -0.86401,0.10828 -0.69218,0.42948 0.10432,0.19476 0.12368,0.35544 0.0431,0.357 -0.27653,0.004 0.41279,0.36409 0.70516,0.36695 0.16087,0.001 0.4657,-0.1963 0.67743,-0.43988 z m 0.32381,-2.77144 c -0.15031,-0.48911 -0.23609,-0.60731 -0.35467,-0.48874 -0.14239,0.14239 0.11598,0.90799 0.30639,0.90799 0.0977,0 0.11928,-0.18817 0.0482,-0.41925 z"
         id="path836-3"
         sodipodi:nodetypes="csscssssscsccsscssssssssssssssssscscsssssscssccscsscssssscsssssssccsssssscssscssssssssssccscccsccsccssccccssscccsssssccssssscccssssscsssssssssssscccssssssssssssssssscccccssssssssssssssssscsccssscsssssssscscsssccccccssscssssscsssssssssssssssssssssssssssssscccssscsssssssssccsssssssssccsccssssccsscccsscsscc" />
    </g>
  </g>
</svg>
