<?xml version="1.0" encoding="UTF-8" standalone="no"?>
<!-- Created with Inkscape (http://www.inkscape.org/) -->

<svg
   width="343.72964mm"
   height="451.06412mm"
   viewBox="0 0 343.72965 451.06412"
   version="1.1"
   id="svg15443"
   inkscape:version="1.1.1 (c3084ef, 2021-09-22)"
   sodipodi:docname="page.svg"
   xmlns:inkscape="http://www.inkscape.org/namespaces/inkscape"
   xmlns:sodipodi="http://sodipodi.sourceforge.net/DTD/sodipodi-0.dtd"
   xmlns="http://www.w3.org/2000/svg"
   xmlns:svg="http://www.w3.org/2000/svg">
  <sodipodi:namedview
     id="namedview15445"
     pagecolor="#ffffff"
     bordercolor="#666666"
     borderopacity="1.0"
     inkscape:pageshadow="2"
     inkscape:pageopacity="0.0"
     inkscape:pagecheckerboard="0"
     inkscape:document-units="mm"
     showgrid="false"
     inkscape:zoom="0.18390424"
     inkscape:cx="1427.3733"
     inkscape:cy="209.34808"
     inkscape:window-width="2560"
     inkscape:window-height="1387"
     inkscape:window-x="0"
     inkscape:window-y="25"
     inkscape:window-maximized="1"
     inkscape:current-layer="layer1" />
  <defs
     id="defs15440">
    <clipPath
       clipPathUnits="userSpaceOnUse"
       id="clipPath16615">
      <rect
         style="fill:#e6e6e6;stroke-width:1.19827;stroke-dasharray:0, 13.1809"
         id="rect16617"
         width="790.22479"
         height="1226.9279"
         x="-1668.83"
         y="-280.73773" />
    </clipPath>
    <clipPath
       clipPathUnits="userSpaceOnUse"
       id="clipPath16723">
      <rect
         style="fill:#e6e6e6;stroke-width:0.765;stroke-dasharray:0, 8.41499"
         id="rect16725"
         width="779.82703"
         height="829.21613"
         x="-317.12967"
         y="1138.5472" />
    </clipPath>
    <clipPath
       clipPathUnits="userSpaceOnUse"
       id="clipPath16615-6">
      <rect
         style="fill:#e6e6e6;stroke-width:1.19827;stroke-dasharray:0, 13.1809"
         id="rect16617-4"
         width="790.22479"
         height="1226.9279"
         x="-1668.83"
         y="-280.73773" />
    </clipPath>
  </defs>
  <g
     inkscape:label="Layer 1"
     inkscape:groupmode="layer"
     id="layer1"
     transform="translate(508.29318,-1426.3634)">
    <g
       id="g18494"
       transform="matrix(215.89999,0,0,-294.30133,0,294.30133)" />
    <path
       style="fill:#000000;stroke-width:1.04009"
       d="m -486.01923,1876.3581 c -4.13755,-1.5368 -7.77427,-5.1104 -7.81751,-7.684 -0.0123,-0.9459 -1.2529,-1.296 -3.92331,-1.1179 -2.14525,0.1474 -5.39266,-0.5159 -7.21679,-1.4741 l -3.31634,-1.7383 0.48893,-9.1078 c 0.46927,-8.7355 0.79726,-11.1015 3.63905,-26.268 1.54699,-8.254 1.56529,-9.2699 0.59948,-33.2825 -0.84149,-20.9205 -1.17072,-74.3128 -0.82552,-134.1716 0.20638,-35.7517 0.32308,-167.9603 0.16584,-187.2163 -0.0369,-4.8635 -0.34765,-11.4345 -0.68302,-14.6039 -0.76533,-7.2159 0.72725,-8.8178 7.9223,-8.5046 4.08018,0.172 5.05791,-0.1351 5.47484,-1.7259 0.46805,-1.7899 2.15975,-1.9865 21.70186,-2.5257 15.73575,-0.43 23.73888,-1.1425 31.07508,-2.7297 11.09195,-2.4077 25.2086,-4.9212 32.24285,-5.7418 8.85506,-1.0319 41.09705,-4.6804 50.44435,-5.7074 30.74855,-3.3794 92.37797,-6.0083 102.28901,-4.3634 5.28149,0.8722 7.0485,0.8108 8.84081,-0.344 2.69154,-1.7272 8.38125,-2.21 12.5817,-1.0687 2.90652,0.7862 7.85989,5.0882 7.85989,6.8191 0,1.4127 30.79302,31.387 39.34257,38.2946 8.4536,6.8314 11.74536,10.9602 10.81456,13.5658 -0.65231,1.8279 -5.39082,6.313 -6.66866,6.313 -0.51226,0 -1.90152,0.8968 -3.08673,2.0073 -2.05999,1.9201 -2.12781,2.7395 -1.53827,18.5816 0.33905,9.1139 0.83043,17.2204 1.09209,18.0128 0.7555,2.296 2.38886,36.56 3.26585,68.528 0.32185,11.7269 0.79235,26.7042 1.04418,33.2825 0.25306,6.5784 0.67811,19.6835 0.94468,29.123 0.26781,9.4382 0.73093,23.246 1.03068,30.6818 0.29974,7.4371 0.812,21.0103 1.14123,30.1635 0.328,9.1519 1.01839,20.3849 1.53372,24.9621 0.9152,8.125 1.47685,21.74 2.59536,62.9251 0.74935,27.6046 1.04418,29.5615 5.06012,33.6044 3.97724,4.0047 4.4158,8.0218 1.24872,11.4393 -1.92449,2.0761 -3.65821,2.5675 -11.06898,3.135 -4.83286,0.3686 -13.23351,1.1671 -18.66794,1.7665 -12.50664,1.3845 -30.66244,1.3919 -44.72394,0 -13.29911,-1.2984 -96.23163,-0.5159 -113.36978,1.0688 -6.57861,0.6019 -18.27963,2.0011 -26.0023,3.0945 -7.72268,1.0933 -16.61545,2.2554 -19.76176,2.5809 -21.6069,2.2371 -46.48701,5.8671 -61.3653,8.9506 -9.00248,1.8672 -20.0389,2.0699 -24.40225,0.4545 z m 19.20183,-16.7918 c 6.00653,-0.909 15.83538,-2.5416 21.8419,-3.6313 6.00653,-1.0933 15.24486,-2.4581 20.52979,-3.0404 12.90061,-1.4225 23.93568,-2.9237 34.59497,-4.705 29.50696,-4.931 117.49898,-7.6827 148.38058,-4.6411 12.6586,1.2469 33.08323,0.7494 40.90369,-0.995 2.58098,-0.5774 5.99829,-1.3071 7.59442,-1.6228 2.60432,-0.5159 2.84756,-0.9213 2.37485,-3.9249 -0.65231,-4.1448 -1.5734,-31.6966 -1.71234,-51.1946 -0.0614,-8.0083 -0.73462,-22.5175 -1.50707,-32.242 -1.40695,-17.7278 -2.08616,-32.7223 -3.06253,-67.6067 -1.27526,-45.567 -1.72709,-59.8146 -2.14427,-67.6054 -0.24569,-4.576 -0.69899,-20.0214 -1.00979,-34.323 -0.30957,-14.3017 -1.01838,-31.3845 -1.575,-37.9629 -0.55649,-6.5796 -1.52598,-20.1528 -2.1552,-30.1635 -0.62896,-10.0106 -1.27316,-18.3346 -1.43078,-18.4968 -0.40047,-0.4177 -7.61874,1.4373 -12.11341,3.108 -4.43164,1.6461 -14.63431,9.0156 -19.3372,13.9663 -3.00922,3.1682 -3.88695,3.5035 -9.18085,3.5035 -5.07302,0 -6.25602,-0.4053 -8.87127,-3.0183 l -3.01782,-3.0183 -0.0123,-20.6441 c -0.0104,-12.0585 -0.66828,-25.8184 -1.58261,-33.086 -0.86115,-6.8425 -1.56481,-12.8496 -1.56481,-13.3483 0,-0.5037 -3.15933,-0.6511 -7.02061,-0.344 -3.8614,0.3071 -14.9773,0.8353 -24.70223,1.1916 -24.93576,0.8845 -65.78343,3.5699 -70.72612,4.6448 -2.28824,0.4913 -9.54287,1.452 -16.12136,2.1203 -20.97903,2.1326 -34.45848,3.9789 -49.40434,6.7651 -19.42148,3.6215 -44.79076,4.6914 -52.38248,2.2075 -2.86733,-0.9336 -5.35937,-1.7051 -5.53799,-1.7051 -0.17812,0 -0.242,57.4523 -0.1425,127.6719 0.1769,124.2974 0.79235,194.0256 1.82266,206.718 1.0577,13.0179 1.91307,19.7966 2.6268,20.8014 1.14983,1.6191 0.37591,8.8867 -1.4841,13.9381 -0.92748,2.5183 -1.91982,6.7307 -2.20642,9.3608 -1.06016,9.7392 -2.04636,23.0937 -1.72807,23.4118 0.55281,0.5528 9.58145,-0.3316 21.06872,-2.0736 z m 240.23192,-371.7324 c 4.27453,-1.7788 11.50754,-3.8131 16.07333,-4.5219 l 8.30152,-1.2887 -3.07212,-2.2112 c -1.68973,-1.2162 -10.08191,-9.2724 -18.64927,-17.9035 -8.56748,-8.6299 -15.9667,-15.691 -16.44285,-15.691 -0.47664,0 -0.65476,0.3562 -0.39556,0.7739 0.84149,1.3955 1.57525,8.9886 3.34471,34.5822 0.13881,2.0024 0.30097,5.2123 0.35994,7.1324 0.0737,2.3758 0.52332,3.3095 1.40854,2.9225 0.71496,-0.3071 4.79748,-2.0233 9.07188,-3.8008 z"
       id="path20085"
       sodipodi:nodetypes="cscscsssssscsccssccssssscsssssssssssscccssscccssssssscsssssssssssccsssccsscssssssscccscssscssccc" />
  </g>
</svg>
