<?xml version="1.0" encoding="UTF-8" standalone="no"?>
<!-- Created with Inkscape (http://www.inkscape.org/) -->

<svg
   width="515.1825mm"
   height="705.18536mm"
   viewBox="0 0 515.1825 705.18536"
   version="1.1"
   id="svg15443"
   inkscape:version="1.1.1 (c3084ef, 2021-09-22)"
   sodipodi:docname="page_notes.svg"
   xmlns:inkscape="http://www.inkscape.org/namespaces/inkscape"
   xmlns:sodipodi="http://sodipodi.sourceforge.net/DTD/sodipodi-0.dtd"
   xmlns="http://www.w3.org/2000/svg"
   xmlns:svg="http://www.w3.org/2000/svg">
  <sodipodi:namedview
     id="namedview15445"
     pagecolor="#ffffff"
     bordercolor="#666666"
     borderopacity="1.0"
     inkscape:pageshadow="2"
     inkscape:pageopacity="0.0"
     inkscape:pagecheckerboard="0"
     inkscape:document-units="mm"
     showgrid="false"
     inkscape:zoom="0.027057732"
     inkscape:cx="5580.6599"
     inkscape:cy="1570.7155"
     inkscape:window-width="1440"
     inkscape:window-height="775"
     inkscape:window-x="539"
     inkscape:window-y="1465"
     inkscape:window-maximized="0"
     inkscape:current-layer="layer1" />
  <defs
     id="defs15440">
    <clipPath
       clipPathUnits="userSpaceOnUse"
       id="clipPath16615">
      <rect
         style="fill:#e6e6e6;stroke-width:1.19827;stroke-dasharray:0, 13.1809"
         id="rect16617"
         width="790.22479"
         height="1226.9279"
         x="-1668.83"
         y="-280.73773" />
    </clipPath>
    <clipPath
       clipPathUnits="userSpaceOnUse"
       id="clipPath16723">
      <rect
         style="fill:#e6e6e6;stroke-width:0.765;stroke-dasharray:0, 8.41499"
         id="rect16725"
         width="779.82703"
         height="829.21613"
         x="-317.12967"
         y="1138.5472" />
    </clipPath>
    <clipPath
       clipPathUnits="userSpaceOnUse"
       id="clipPath16615-6">
      <rect
         style="fill:#e6e6e6;stroke-width:1.19827;stroke-dasharray:0, 13.1809"
         id="rect16617-4"
         width="790.22479"
         height="1226.9279"
         x="-1668.83"
         y="-280.73773" />
    </clipPath>
  </defs>
  <g
     inkscape:label="Layer 1"
     inkscape:groupmode="layer"
     id="layer1"
     transform="translate(1810.1755,-1012.5785)">
    <g
       id="g18494"
       transform="matrix(215.89999,0,0,-294.30133,0,294.30133)" />
    <g
       id="g19478">
      <path
         style="fill:#000000;stroke-width:2.05646"
         d="m -1769.2462,1677.1476 c -7.4247,-3.6968 -9.5504,-8.0032 -7.6601,-15.5253 1.5057,-5.9701 8.9256,-9.907 15.4623,-8.1971 2.914,0.7501 4.1556,0.4389 3.3345,-0.8993 -0.7261,-1.1657 -4.1165,-2.6762 -7.554,-3.364 -4.2114,-0.8498 -7.0409,-3.104 -8.6902,-6.9492 -4.1485,-9.6693 -3.3832,-140.5934 1.4817,-252.4758 2.725,-62.7818 3.1479,-83.2694 3.2572,-158.3465 0.2394,-116.3587 2.4576,-138.8116 14.1337,-138.8116 8.6463,0 10.1137,4.6926 10.1425,32.4038 0,14.413 0.5346,34.0724 1.1665,43.6858 0.6304,9.6135 1.6509,25.45 2.2829,35.1951 1.4818,22.7976 1.5057,128.8527 0,162.226 -4.5905,103.6039 -6.235,229.1492 -3.3178,253.4597 2.6475,22.0515 1.7491,28.2746 -4.0559,28.2746 -3.5292,0 -7.5492,3.4757 -5.844,5.0548 0.391,0.3671 17.8401,-2.0403 38.765,-5.3317 20.9225,-3.3011 51.4608,-7.7966 67.863,-9.9949 16.3998,-2.1863 48.3258,-7.1845 70.9486,-11.0856 92.4552,-15.9458 116.6372,-19.8461 147.6934,-23.8269 17.8912,-2.2837 37.0941,-4.1708 42.6708,-4.1708 10.0412,0 10.1409,0 10.279,-6.6843 0,-3.6752 0.4628,-9.4578 0.8258,-12.8514 0.391,-3.3928 1.3358,-16.3488 2.1129,-28.7917 1.9438,-30.6261 3.4734,-45.9942 8.1932,-82.2568 0.4388,-3.3936 1.8456,-15.8541 3.1382,-27.6921 1.2871,-11.8365 2.7178,-22.1418 3.1885,-22.9022 0.4628,-0.75 1.7491,-10.9715 2.8351,-22.6931 1.0931,-11.7215 2.8877,-29.1762 3.9952,-38.7921 1.1171,-9.6134 2.6084,-26.7322 3.3377,-38.0436 0.7262,-11.3114 2.113,-24.2666 3.0992,-28.7893 0.9711,-4.525 1.627,-9.6142 1.457,-11.3114 -0.3192,-3.0704 2.2837,-49.1053 3.6657,-64.779 0.7501,-8.6296 3.8739,-103.9422 3.6306,-111.0486 0,-2.2589 1.1418,-16.1429 2.7329,-30.8471 1.5783,-14.705 2.8757,-27.5365 2.8757,-28.5156 0,-3.0824 -42.8551,2.4752 -85.3392,11.0689 -49.3942,9.9877 -120.6165,19.9825 -190.2238,26.6931 -35.3427,3.408 -89.6529,10.5566 -96.3762,12.6863 -16.5938,5.2559 -43.4624,-1.0932 -43.4624,-10.2718 0,-7.7726 5.1107,-11.4566 15.1758,-10.9348 5.2296,0.2713 15.2923,-0.8745 22.358,-2.5286 23.2077,-5.4578 65.3375,-12.1908 92.0235,-14.7066 7.3497,-0.7022 18.4545,-2.089 24.6775,-3.0824 6.2207,-0.9958 24.7286,-3.2667 41.1284,-5.0302 38.9956,-4.1971 93.2675,-12.5626 114.9089,-17.714 22.1218,-5.2679 62.8744,-11.7726 92.0108,-14.6851 21.8289,-2.1863 23.3857,-2.0642 34.3739,2.3803 6.9053,2.8031 12.016,6.2717 12.7757,8.6711 0.7021,2.2102 0.3191,10.2039 -0.8498,17.7842 -3.4566,22.472 -4.3966,31.2987 -5.4116,50.8009 -0.5346,10.1792 -1.4817,27.7615 -2.1129,39.073 -0.6304,11.3114 -1.5791,41.2553 -2.1137,66.5448 -0.5346,25.2872 -1.311,46.5711 -1.773,47.3004 -0.7501,1.2384 -1.6517,11.0027 -4.4588,49.644 -0.6065,8.4843 -1.6517,19.1247 -2.3076,23.6498 -0.6543,4.5226 -1.2392,10.7696 -1.3358,13.8815 0,3.1088 -0.6543,5.6541 -1.2631,5.6541 -1.2144,0 -1.4817,2.7473 -2.6914,27.7624 -0.4389,9.0477 -1.4818,22.0037 -2.3076,28.79 -0.8259,6.7864 -3.3298,27.6092 -5.56,46.2703 -2.2342,18.6636 -4.4931,37.6327 -5.0349,42.1578 -2.3076,19.1981 -7.1119,86.7995 -7.1119,99.9006 v 14.2335 h 14.6292 c 23.2883,0 35.491,9.0405 31.8405,23.5892 -1.9429,7.7191 -6.5965,9.0165 -25.9039,7.2045 -14.0587,-1.3118 -17.9279,-1.0693 -19.7639,1.2631 -1.2631,1.603 -3.3378,2.902 -4.6272,2.902 -1.2871,0 -2.3563,1.9677 -2.3563,4.3647 0,3.4199 -0.6064,3.8692 -2.7592,2.065 -1.5057,-1.2631 -3.3465,-1.7003 -4.0631,-0.9958 -0.7022,0.7022 -2.7377,0 -4.4891,-1.3365 -1.7483,-1.457 -3.7519,-2.0642 -4.4469,-1.3844 -0.7022,0.7022 -3.9832,-1.0198 -7.3058,-3.8181 -3.7335,-3.143 -7.7487,-4.7413 -10.5103,-4.1827 -2.4577,0.4867 -10.9468,1.4578 -18.8655,2.1624 -20.1445,1.7482 -69.1748,8.8019 -86.3709,12.4109 -7.9187,1.6517 -17.6343,3.408 -21.5928,3.8796 -3.9593,0.4628 -26.6309,4.1261 -50.3828,8.1245 -23.7519,3.9976 -46.4259,7.6992 -50.3852,8.2266 -3.9585,0.5346 -19.2269,2.4943 -33.9311,4.3719 -14.7026,1.8703 -41.0774,5.6645 -58.6095,8.4189 -36.8148,5.7802 -57.6519,6.2151 -67.3244,1.4084 z m 93.751,-134.83 c -22.7178,-7.447 -21.418,-26.7736 1.8704,-27.6139 6.9683,-0.2473 15.4718,-2.5509 23.941,-6.4736 7.2261,-3.3417 20.8715,-8.6854 30.3253,-11.8747 18.5008,-6.2374 28.9425,-6.713 114.869,-5.2512 28.5738,0.4867 50.7347,-1.9669 69.9065,-7.7016 9.0837,-2.7233 27.886,-2.7912 32.8795,0 2.9443,1.5783 3.4734,3.3226 2.3323,7.7112 -2.5486,9.8057 -30.0843,21.3358 -65.4564,27.4104 -9.6941,1.6757 -14.3668,3.3298 -13.485,4.8019 0.8737,1.4571 0.2872,1.4084 -1.6278,-0.2473 -2.0403,-1.627 -20.4709,-2.6037 -58.4898,-3.084 -57.9025,-0.7261 -60.171,-0.4867 -81.2299,8.8722 -2.8271,1.2631 -7.4543,3.1941 -10.2813,4.304 -2.8295,1.1171 -6.5311,2.8398 -8.2267,3.8428 -11.6585,6.8909 -26.1864,8.9528 -37.3247,5.3023 z m 44.23,-155.5729 c -9.2081,-2.1863 -20.8594,-9.8616 -22.409,-14.7433 -0.7261,-2.2837 -0.2394,-6.9691 1.2631,-10.401 2.5135,-6.0699 2.8566,-6.2007 12.8363,-4.877 9.8568,1.3118 10.5662,1.0685 18.2678,-6.4632 7.8747,-7.6896 8.2825,-7.8237 23.8493,-7.8237 12.47,0 18.0276,1.0445 26.1225,4.9209 15.0689,7.2092 27.6172,6.823 44.5971,-1.3597 7.5635,-3.6513 14.4329,-6.6364 15.2635,-6.6364 0.8259,0 2.9707,-1.2384 4.7557,-2.7417 1.773,-1.5065 9.1012,-4.8242 16.2586,-7.3672 13.0796,-4.6464 17.2209,-4.7701 48.1749,-1.4331 4.2458,0.4628 8.198,0 8.7828,-0.8745 0.5825,-0.9472 5.8999,-4.1046 11.8166,-7.0242 11.4255,-5.6398 18.326,-9.6254 20.0096,-11.554 2.089,-2.405 8.2243,-3.767 8.2243,-1.8464 0,1.0931 1.3357,1.9924 2.9627,1.9924 3.9912,0 5.8592,3.4199 3.8332,7.0098 -0.9232,1.603 -5.8855,7.4032 -11.0537,12.8706 -5.1714,5.465 -10.938,12.2945 -12.8155,15.1734 -5.5105,8.4501 -19.7416,12.2729 -43.5909,11.7048 l -20.5658,-0.4867 -24.648,12.0686 c -33.4436,16.3759 -38.2455,17.6806 -53.5402,14.5423 -6.7624,-1.3844 -17.7308,-4.936 -24.3767,-7.8843 -6.6452,-2.9484 -13.1299,-5.3605 -14.4154,-5.3605 -1.287,0 -6.0283,3.5508 -10.5414,7.8891 -4.5123,4.3375 -11.3498,8.9647 -15.195,10.2837 -3.8452,1.3118 -7.0824,2.3076 -7.1965,2.1863 0,0 -3.1167,-0.8992 -6.6699,-1.749 z m -19.2444,-135.4986 c -6.7305,-3.3274 -7.1702,-4.1461 -6.7688,-12.6177 0.5106,-10.7728 3.2762,-18.081 12.0838,-31.9187 6.6739,-10.488 17.3446,-21.3231 25.0709,-25.4595 7.0704,-3.7814 20.8491,-2.7369 29.0079,2.2102 4.0926,2.4776 12.3751,8.956 18.4042,14.3963 8.5418,7.7072 12.4964,9.8903 17.9175,9.8903 11.5811,0 27.3466,-7.546 55.5973,-26.6133 30.6652,-20.6967 52.7191,-32.6856 63.2829,-34.4003 13.1985,-2.1377 24.4007,0.8984 33.7683,9.145 l 8.6935,7.6554 -3.3761,6.7528 -3.3744,6.7521 -12.115,-1.3605 c -11.0656,-1.2631 -13.315,-0.774 -25.931,5.5432 -7.5947,3.8038 -26.769,15.5086 -42.6023,26.0109 -40.3688,26.7761 -39.9267,26.528 -52.0129,29.3143 -22.2973,5.1419 -44.9856,-2.1863 -64.0226,-20.6528 -7.9187,-7.6824 -8.8291,-8.0566 -12.8299,-5.2535 -7.0314,4.9256 -18.1728,22.0978 -18.1728,28.0121 0,6.2517 -5.2392,13.1865 -11.3091,14.9643 -2.2589,0.6543 -7.3521,-0.391 -11.3114,-2.3563 z"
         id="path18579" />
      <path
         style="fill:#00cd00;fill-opacity:0.310811;stroke-width:2.05646"
         d="m -1801.8639,1714.4726 c -7.4247,-3.6968 -9.5504,-8.0032 -7.6601,-15.5253 1.5057,-5.9701 8.9256,-9.907 15.4623,-8.1971 2.914,0.7501 4.1556,0.4389 3.3345,-0.8993 -0.7261,-1.1657 -4.1165,-2.6762 -7.554,-3.364 -4.2114,-0.8498 -7.0409,-3.104 -8.6902,-6.9492 -4.1485,-9.6693 -3.3832,-140.5934 1.4817,-252.4758 2.725,-62.7818 3.1479,-83.2694 3.2572,-158.3465 0.2394,-116.3587 2.4576,-138.8116 14.1337,-138.8116 8.6463,0 10.1137,4.6926 10.1425,32.4038 0,14.413 0.5346,34.0724 1.1665,43.6858 0.6304,9.6135 1.6509,25.45 2.2829,35.1951 1.4818,22.7976 1.5057,128.8527 0,162.226 -4.5905,103.6039 -6.235,229.1492 -3.3178,253.4597 2.6475,22.0515 1.7491,28.2746 -4.0559,28.2746 -3.5292,0 -7.5492,3.4757 -5.844,5.0548 0.391,0.3671 17.8401,-2.0403 38.765,-5.3317 20.9225,-3.3011 51.4608,-7.7966 67.863,-9.9949 16.3998,-2.1863 48.3258,-7.1845 70.9486,-11.0856 92.4552,-15.9458 116.6372,-19.8461 147.6934,-23.8269 17.8912,-2.2837 37.0941,-4.1708 42.6708,-4.1708 41.914,-1.5297 10.1134,1.9986 59.6947,0 23.2883,0 35.491,9.0405 31.8405,23.5892 -1.9429,7.7191 -6.5965,9.0165 -25.9039,7.2045 -14.0587,-1.3118 -17.9279,-1.0693 -19.7639,1.2631 -1.2631,1.603 -3.3378,2.902 -4.6272,2.902 -1.2871,0 -2.3563,1.9677 -2.3563,4.3647 0,3.4199 -0.6064,3.8692 -2.7592,2.065 -1.5057,-1.2631 -3.3465,-1.7003 -4.0631,-0.9958 -0.7022,0.7022 -2.7377,0 -4.4891,-1.3365 -1.7483,-1.457 -3.7519,-2.0642 -4.4469,-1.3844 -0.7022,0.7022 -3.9832,-1.0198 -7.3058,-3.8181 -3.7335,-3.143 -7.7487,-4.7413 -10.5103,-4.1827 -2.4577,0.4867 -10.9468,1.4578 -18.8655,2.1624 -20.1445,1.7482 -69.1748,8.8019 -86.3709,12.4109 -7.9187,1.6517 -17.6343,3.408 -21.5928,3.8796 -3.9593,0.4628 -26.6309,4.1261 -50.3828,8.1245 -23.7519,3.9976 -46.4259,7.6992 -50.3852,8.2266 -3.9585,0.5346 -19.2269,2.4943 -33.9311,4.3719 -14.7026,1.8703 -41.0774,5.6645 -58.6095,8.4189 -36.8148,5.7802 -57.6519,6.2151 -67.3244,1.4084 z"
         id="path18579-7"
         sodipodi:nodetypes="ccccccccscccccsccccccccccssccccccccccccccc" />
    </g>
  </g>
</svg>
