<?xml version="1.0" encoding="UTF-8" standalone="no"?>
<!-- Created with Inkscape (http://www.inkscape.org/) -->

<svg
   width="74.278023mm"
   height="90.224968mm"
   viewBox="0 0 74.278023 90.224968"
   version="1.1"
   id="svg5"
   sodipodi:docname="datalad copy 9.svg"
   inkscape:version="1.1.1 (c3084ef, 2021-09-22)"
   xmlns:inkscape="http://www.inkscape.org/namespaces/inkscape"
   xmlns:sodipodi="http://sodipodi.sourceforge.net/DTD/sodipodi-0.dtd"
   xmlns="http://www.w3.org/2000/svg"
   xmlns:svg="http://www.w3.org/2000/svg">
  <sodipodi:namedview
     id="namedview7"
     pagecolor="#ffffff"
     bordercolor="#666666"
     borderopacity="1.0"
     inkscape:pageshadow="2"
     inkscape:pageopacity="0.0"
     inkscape:pagecheckerboard="0"
     inkscape:document-units="mm"
     showgrid="false"
     inkscape:zoom="0.56369666"
     inkscape:cx="620.01431"
     inkscape:cy="-31.045066"
     inkscape:window-width="1606"
     inkscape:window-height="1319"
     inkscape:window-x="0"
     inkscape:window-y="25"
     inkscape:window-maximized="0"
     inkscape:current-layer="layer1" />
  <defs
     id="defs2" />
  <g
     inkscape:label="Layer 1"
     inkscape:groupmode="layer"
     id="layer1"
     transform="translate(-55.030967,-75.706687)">
    <path
       style="fill:#000000;stroke-width:0.311634"
       d="m 56.802937,165.72299 c -1.16307,-0.35703 -1.77197,-0.89136 -1.77197,-1.5551 0,-0.83552 1.21184,-2.18439 1.97032,-2.193 0.37323,-0.004 1.36433,-0.53014 2.20247,-1.16863 0.83817,-0.63853 1.7497,-1.3033 2.02564,-1.47729 0.27605,-0.1741 1.06262,-0.68697 1.74823,-1.13977 0.6856,-0.45284 1.88173,-0.89519 2.65806,-0.98301 1.91401,-0.21642 5.43343,0.48468 6.54022,1.3029 0.49753,0.36807 0.99251,0.66882 1.09995,0.66882 0.10747,0 0.8,0.43418 1.53894,0.96483 0.73898,0.53068 1.85887,1.03432 2.48868,1.11923 1.04812,0.14134 2.90412,-0.34452 3.28146,-0.85867 0.0858,-0.11668 0.64663,-0.48001 1.24651,-0.80707 0.59992,-0.32722 1.71967,-0.99829 2.48842,-1.49154 2.95168,-1.89406 5.87103,-3.05735 8.06702,-3.21448 1.84569,-0.13213 2.32441,-0.0442 3.86578,0.71071 0.96755,0.47378 2.47977,1.50744 3.36049,2.2971 0.880683,0.78962 2.026083,1.67314 2.545323,1.96333 0.83339,0.46579 0.9981,0.4736 1.40519,0.0666 0.2536,-0.2536 2.2961,-1.36753 4.53883,-2.47539 3.1215,-1.54185 4.39477,-2.01416 5.42994,-2.01416 1.58377,0 3.19658,0.61273 4.50029,1.70969 0.51203,0.43086 1.11647,0.78337 1.34317,0.78337 0.22673,0 1.14128,-0.49061 2.0323,-1.09023 0.89099,-0.59959 1.76818,-0.99865 1.94927,-0.88676 0.1833,0.11337 0.23815,0.0563 0.12368,-0.12919 -0.113,-0.18293 0.38872,-0.82625 1.11503,-1.42955 0.91867,-0.76312 1.3919,-0.98478 1.55499,-0.72838 0.15864,0.24955 0.23593,0.20023 0.23925,-0.15201 0.003,-0.32538 0.36181,-0.599 0.95636,-0.72963 0.75745,-0.16637 1.07524,-0.0666 1.55745,0.48953 0.38567,0.44467 0.50246,0.82312 0.32133,1.04124 -0.15643,0.18845 -0.33126,0.48295 -0.38883,0.65436 -0.0574,0.17152 -0.19508,0.28121 -0.30624,0.2444 -0.11115,-0.0372 -0.13765,0.17741 -0.0596,0.47654 0.1936,0.74001 -1.90301,3.31813 -2.43229,2.99102 -0.14686,-0.0909 -0.26685,0.0258 -0.26685,0.26244 0,0.63032 -1.67719,2.12653 -2.44897,2.18468 -0.36696,0.0294 -0.66735,0.15533 -0.66735,0.28342 0,0.47669 -2.68817,0.94277 -4.32796,0.75038 -1.67094,-0.19581 -3.05087,-0.78034 -4.24526,-1.79766 -0.59852,-0.50974 -0.71704,-0.48541 -2.64886,0.54431 -4.81088,2.56428 -7.00366,3.56499 -7.81169,3.56499 -2.94314,0 -6.149153,-1.53861 -8.688623,-4.16988 -0.79433,-0.82301 -1.67259,-1.43953 -2.05071,-1.43953 -0.93744,0 -4.61432,1.94942 -7.31133,3.87631 -0.77129,0.55107 -1.89317,1.22314 -2.49305,1.49345 -2.28079,1.02773 -6.70884,1.21703 -9.06052,0.38732 -1.72868,-0.60993 -4.69423,-2.6309 -4.44715,-3.03066 0.11226,-0.18183 0.0571,-0.23888 -0.12404,-0.12699 -0.17998,0.11116 -0.79588,0.007 -1.36823,-0.2352 -1.12619,-0.47356 -1.71098,-0.30697 -2.89952,0.8261 -0.35371,0.33716 -1.13373,0.98423 -1.73361,1.4381 -0.59988,0.4539 -1.27695,1.00144 -1.50457,1.2168 -1.12077,1.06049 -3.4708,1.52323 -5.13757,1.01157 z M 127.6416,155.12666 c 0,-0.17152 -0.14833,-0.31175 -0.33016,-0.31175 -0.18146,0 -0.24329,0.14023 -0.13729,0.31175 0.10601,0.17152 0.25434,0.31176 0.33016,0.31176 0.0755,0 0.13729,-0.14024 0.13729,-0.31176 z M 88.428137,123.47802 c -1.59861,-0.5806 -2.94962,-1.71764 -3.85058,-3.24065 -0.35924,-0.60743 -0.93913,-1.542 -1.28851,-2.0768 l -0.63522,-0.97245 -1.6752,1.12825 c -0.92139,0.62053 -1.73752,1.09317 -1.81356,1.05033 -0.0762,-0.0427 -0.40267,0.18661 -0.7258,0.50959 -0.32317,0.32317 -1.40997,0.91496 -2.41517,1.31523 -2.32113,0.92416 -7.32072,1.02004 -9.26701,0.17778 -0.6637,-0.28746 -1.33793,-0.52225 -1.49834,-0.52225 -0.16048,0 -0.91377,0.63105 -1.67417,1.40235 -1.46309,1.4841 -2.16121,1.67277 -4.11559,1.11227 -1.45694,-0.41787 -2.05332,-1.10797 -1.73627,-2.00919 0.35887,-1.02018 3.73191,-4.03859 4.19392,-3.75304 0.22342,0.13803 0.28562,0.0939 0.15827,-0.11226 -0.13361,-0.21606 0.27495,-0.41228 1.12044,-0.53863 0.99402,-0.14871 1.95133,0.004 3.7854,0.60326 2.75806,0.90115 4.69611,1.01268 6.25776,0.36035 0.58174,-0.24293 2.40954,-1.36492 4.06181,-2.49306 1.65228,-1.12814 3.24032,-2.06186 3.52892,-2.075 0.28857,-0.0147 0.80527,-0.0795 1.14809,-0.14723 0.34268,-0.0677 1.39455,0.095 2.33725,0.36181 1.32513,0.37525 2.04122,0.83173 3.15644,2.01217 0.7933,0.83976 1.66721,2.00055 1.94194,2.57949 0.99063,2.08762 1.96027,2.21155 4.08596,0.52225 0.65189,-0.51806 1.37633,-0.94193 1.60987,-0.94193 0.23336,0 0.42461,-0.12698 0.42461,-0.28231 0,-0.4733 3.16765,-2.60289 4.966933,-3.33925 1.86903,-0.76493 3.78521,-0.72683 5.47278,0.10895 1.19071,0.58961 4.23138,3.533 4.01367,3.88528 -0.0905,0.14649 -0.049,0.2352 0.0924,0.19692 0.14134,-0.0383 0.57187,0.0375 0.95683,0.16858 0.78481,0.26685 2.75726,-0.64862 4.20827,-1.95361 0.47136,-0.42391 0.85702,-0.67534 0.85702,-0.5587 0,0.24514 1.42591,-0.9172 2.15414,-1.75607 0.272,-0.31359 0.87343,-0.76919 1.33624,-1.01282 0.9659,-0.50834 3.19354,-0.60927 2.89809,-0.1314 -0.10601,0.17152 -0.0442,0.31176 0.13729,0.31176 0.41371,0 0.43322,1.01867 0.0258,1.42458 -0.16637,0.16637 -0.34856,0.58019 -0.40477,0.91933 -0.18514,1.11872 -0.79779,1.90234 -2.53476,3.24241 -1.01491,0.78304 -1.86851,1.22936 -2.08965,1.0927 -0.23924,-0.1476 -0.29224,-0.099 -0.14722,0.13581 0.14833,0.23999 -0.40087,0.66066 -1.5879,1.21681 -1.47184,0.68955 -2.2572,0.8501 -4.15873,0.8501 -2.02016,0 -2.6316,-0.14134 -4.42322,-1.02368 -1.30503,-0.64262 -2.44271,-1.48292 -3.05595,-2.2572 -1.14794,-1.44939 -0.81745,-1.54947 -5.341083,1.6172 -1.71875,1.20311 -3.6212,2.39485 -4.22767,2.64823 -1.68216,0.70283 -4.68058,0.8197 -6.26527,0.24403 z m -26.22961,-4.93495 c 0,-0.0674 -0.21753,-0.20612 -0.48361,-0.30808 -0.27715,-0.10637 -0.40245,-0.0541 -0.29335,0.12257 0.18293,0.29593 0.77685,0.43797 0.77685,0.18551 z m 34.59134,-27.540533 c -2.89341,-0.39785 -4.82865,-1.93444 -6.37084,-5.05855 -0.54997,-1.11408 -1.16457,-2.06068 -1.36576,-2.10353 -0.20134,-0.0427 -0.3309,0.0703 -0.28783,0.25139 0.10527,0.44471 -2.95679,4.0104 -3.35008,3.90119 -0.17152,-0.0475 -0.68737,0.22563 -1.14658,0.60747 -1.20396,1.00075 -3.81524,1.27132 -5.58393,0.57864 -2.7305,-1.06943 -6.32361,-3.89607 -8.56903,-6.74115 -0.77781,-0.98555 -1.56165,-1.79188 -1.74183,-1.79188 -0.18035,0 -0.90714,0.59009 -1.61539,1.31136 -0.70828,0.72124 -1.35792,1.29392 -1.44361,1.27261 -0.0858,-0.0221 -0.17815,0.26501 -0.20575,0.63639 -0.0836,1.13227 -1.02865,3.02956 -1.5961,3.20443 -0.29446,0.0909 -0.78094,0.2963 -1.08088,0.45652 -0.35151,0.18809 -0.54534,0.17999 -0.54534,-0.0221 0,-0.173 -0.41912,-0.31434 -0.93136,-0.31434 -1.05066,0 -2.18499,-0.81899 -2.18499,-1.57766 0,-0.55546 1.06292,-2.53421 2.94917,-5.4903 1.67219,-2.62059 2.79911,-3.22279 5.97483,-3.19283 1.5858,0.0147 2.85436,0.20722 3.59466,0.54537 0.97329,0.4443 3.99979,3.45531 4.83108,4.80638 0.14171,0.23042 0.92169,0.96619 1.73336,1.63538 0.81167,0.66919 1.33915,1.30124 1.17212,1.40445 -0.1671,0.10343 0.21937,0.20244 0.8586,0.22048 1.0768,0.0294 1.38045,-0.19214 4.12914,-3.02658 3.46737,-3.57574 4.17378,-3.86615 7.18589,-2.95418 2.04423,0.61895 2.54632,1.19134 4.27735,4.87617 0.53669,1.1425 1.12409,2.16886 1.30533,2.28087 0.18146,0.11189 0.24183,0.34599 0.13435,0.51953 -0.10748,0.17373 0.27605,0.0744 0.85194,-0.22047 1.02964,-0.52756 5.335743,-4.76866 6.760183,-6.65815 0.3998,-0.5304 0.85396,-0.88577 1.00925,-0.78981 0.15532,0.0961 0.21274,-0.007 0.12809,-0.23115 -0.22563,-0.59341 2.53214,-3.28986 3.60573,-3.52568 1.39422,-0.30624 2.78965,0.0854 2.5853,0.72565 -0.11373,0.35666 -0.0795,0.40352 0.10674,0.14686 0.4372,-0.60224 1.73505,-0.12036 1.55282,0.57655 -0.0836,0.31912 -0.0258,0.58037 0.13066,0.58037 0.15533,0 0.28232,-0.1406 0.28232,-0.31249 0,-0.35887 1.7289,1.53913 2.76852,3.03931 0.79117,1.14165 0.95157,1.18225 2.32635,0.58914 2.81619,-1.21497 2.6655,-1.20297 3.4813,-0.27753 0.4309,0.48884 0.67441,1.05795 0.56675,1.32454 -0.10379,0.25728 -0.18072,0.68587 -0.17115,0.95275 0.011,0.26686 -0.2628,0.66066 -0.60603,0.87491 -0.50212,0.3136 -0.72543,0.30992 -1.14478,-0.0184 -0.4592,-0.35924 -0.47359,-0.34673 -0.12146,0.10379 0.34636,0.44342 0.26648,0.55778 -0.60054,0.86004 -1.1937,0.41614 -5.02973,0.1152 -4.7292,-0.37109 0.1152,-0.18625 0.0412,-0.22158 -0.17926,-0.0854 -0.53756,0.33236 -2.37851,-0.62256 -3.12764,-1.6222 -0.35078,-0.46793 -0.7794,-1.02015 -0.95265,-1.22719 -0.17336,-0.20686 -0.31507,-0.52255 -0.31507,-0.70118 0,-0.5422 -0.94038,-0.36292 -1.15622,0.22048 -0.23078,0.62336 -4.52672,5.77577 -5.69973,6.83578 -0.42847,0.38725 -0.94723,0.64493 -1.15276,0.57276 -0.20538,-0.0721 -0.30808,0.0401 -0.22747,0.24955 0.31912,0.83166 -4.173783,2.41767 -6.098903,2.15299 z"
       id="path836"
       sodipodi:nodetypes="cscssssssssssssssssssssssssssssssscsscsssssssssssscsssccssssscsscsssssssssssscsscsssssssssssssssssscssssssssssccssssscsscssssssccssssssssssscssssscsscsssssssssscssssssssssssccc" />
  </g>
</svg>
