<?xml version="1.0" encoding="UTF-8" standalone="no"?>
<!-- Created with Inkscape (http://www.inkscape.org/) -->

<svg
   width="97.802658mm"
   height="104.84962mm"
   viewBox="0 0 97.802658 104.84962"
   version="1.1"
   id="svg5"
   inkscape:version="1.1.1 (c3084ef, 2021-09-22)"
   sodipodi:docname="console_perspective copy 3.svg"
   xmlns:inkscape="http://www.inkscape.org/namespaces/inkscape"
   xmlns:sodipodi="http://sodipodi.sourceforge.net/DTD/sodipodi-0.dtd"
   xmlns="http://www.w3.org/2000/svg"
   xmlns:svg="http://www.w3.org/2000/svg">
  <sodipodi:namedview
     id="namedview7"
     pagecolor="#ffffff"
     bordercolor="#666666"
     borderopacity="1.0"
     inkscape:pageshadow="2"
     inkscape:pageopacity="0.0"
     inkscape:pagecheckerboard="0"
     inkscape:document-units="mm"
     showgrid="false"
     inkscape:zoom="0.51580387"
     inkscape:cx="308.2567"
     inkscape:cy="189.02534"
     inkscape:window-width="1946"
     inkscape:window-height="1223"
     inkscape:window-x="0"
     inkscape:window-y="25"
     inkscape:window-maximized="0"
     inkscape:current-layer="layer1" />
  <defs
     id="defs2" />
  <g
     inkscape:label="Layer 1"
     inkscape:groupmode="layer"
     id="layer1"
     transform="translate(-20.638349,-93.484517)">
    <path
       style="fill:#000000;stroke-width:0.253001"
       d="m 99.029327,198.11227 c -1.042044,-0.42088 -1.757836,-2.69577 -2.906827,-9.2386 -0.374361,-2.13169 -0.730733,-2.67736 -0.730733,-1.1189 0,1.44452 -0.517227,2.17281 -1.785686,2.51436 -1.948124,0.52458 -2.89081,-0.50847 -2.302196,-2.52285 0.144031,-0.49314 0.324698,-1.352 0.401285,-1.90862 0.527267,-3.83077 0.689885,-4.82784 1.155386,-7.08405 0.287165,-1.39148 0.57971,-2.87154 0.650201,-3.28899 0.29374,-1.73907 0.756671,-2.15051 2.42011,-2.15051 1.089137,0 1.728611,0.42202 2.143283,1.4144 0.276408,0.66186 2.12464,12.00842 2.12464,13.04437 0,0.10967 -0.199316,0.12491 -0.442764,0.0335 -0.387718,-0.14523 -0.399611,-0.11296 -0.09562,0.26087 0.736434,0.90533 0.964024,0.49066 1.131264,-2.06114 0.25281,-3.85785 0.66093,-4.59605 2.54099,-4.59605 1.25883,0 2.03726,0.42435 2.36339,1.28833 0.15479,0.40989 0.54101,2.16629 0.85845,3.90303 0.31741,1.73671 0.67892,3.15768 0.80335,3.15768 0.1243,0 0.52843,-0.21276 0.8978,-0.47279 0.55479,-0.39062 1.43072,-0.78201 2.06305,-0.9218 0.0696,-0.0149 0.95237,-0.11803 1.96175,-0.228 1.00938,-0.10996 1.89846,-0.30222 1.97567,-0.42722 0.26775,-0.43317 3.02974,-0.26147 3.5885,0.22322 0.68038,0.59008 0.79136,1.57771 0.26714,2.37771 -0.42737,0.6522 -1.14403,0.88253 -3.49209,1.12221 -2.87518,0.29344 -4.89446,1.17457 -5.16534,2.25391 -0.18706,0.74558 -1.2568,1.3394 -2.79184,1.5498 -1.05396,0.14433 -1.19856,0.0917 -2.02877,-0.73839 -0.97959,-0.97959 -1.01802,-0.9685 -1.11382,0.32135 -0.14075,1.89661 -0.50399,2.7091 -1.40102,3.13474 -0.92559,0.43924 -2.228802,0.50602 -3.089701,0.15838 z m -49.177659,-4.0617 c -1.721201,-0.42528 -6.782606,-2.46998 -9.326039,-3.76755 l -1.011026,-0.51579 -1.535992,1.51233 c -0.844793,0.83179 -1.535962,1.68384 -1.535962,1.89347 0,0.20977 -0.08546,0.3861 -0.189751,0.3922 -0.104288,0.006 -0.658508,0.10189 -1.231435,0.21276 -0.905692,0.1754 -1.153981,0.11624 -1.902196,-0.45376 -0.59982,-0.45699 -0.855759,-0.85271 -0.844733,-1.30608 0.01793,-0.77084 1.304766,-2.22797 3.684953,-4.17526 1.492126,-1.22076 1.807231,-1.3728 2.844792,-1.3728 1.264336,0 3.535514,0.9339 3.279306,1.34842 -0.08427,0.13626 -0.03885,0.1772 0.100403,0.0911 0.139549,-0.0864 2.087046,0.58694 4.327863,1.49592 5.921438,2.40203 7.062302,2.41171 10.8193,0.092 4.742684,-2.92841 5.974927,-3.25651 8.211262,-2.18626 l 1.333841,0.6384 1.795487,-1.26093 c 1.745375,-1.22573 1.840968,-1.25928 3.424502,-1.20185 2.130075,0.0771 2.833168,0.22262 2.633795,0.54538 -0.09084,0.14672 -0.04124,0.18795 0.112357,0.0932 0.151202,-0.0935 0.923023,0.11654 1.715074,0.46693 0.820589,0.36289 1.914567,0.63688 2.543104,0.63688 0.857254,0 1.284267,0.16196 1.91639,0.7267 0.774002,0.69158 0.791961,0.74809 0.371432,1.16865 -0.24294,0.24294 -0.506947,0.37684 -0.586463,0.29732 -0.07949,-0.0795 -0.294337,0.006 -0.477334,0.18826 -0.503093,0.50312 -4.053577,0.16853 -5.679036,-0.53536 -1.157657,-0.50124 -2.525115,-0.82684 -2.457133,-0.58503 0.07321,0.25997 -2.860301,2.45262 -3.716957,2.7783 -1.315403,0.50011 -4.410098,0.009 -4.659702,-0.74062 -0.149111,-0.44737 -0.635649,-0.29494 -2.00747,0.62886 -1.963274,1.32213 -3.590914,2.24459 -4.868756,2.75936 -1.630927,0.65702 -4.732286,0.71612 -7.084026,0.13507 z M 26.069606,169.55379 c -2.420318,-0.13417 -3.066994,-0.25907 -3.846345,-0.74373 -1.026624,-0.63834 -1.743433,-1.80188 -1.554698,-2.52359 0.288062,-1.10181 0.869714,-1.19259 7.929625,-1.23768 3.686686,-0.0239 8.012995,-0.16346 9.61401,-0.31065 1.601016,-0.14732 3.764828,-0.33172 4.808455,-0.40975 4.001762,-0.29911 6.974717,-0.63269 12.270517,-1.37663 1.948124,-0.27372 3.997428,-0.55676 4.55401,-0.62904 0.556611,-0.0723 2.378215,-0.30791 4.048018,-0.52353 1.669804,-0.21575 4.800686,-0.62083 6.957505,-0.90044 2.15685,-0.27969 6.027758,-0.73554 8.602029,-1.0132 4.135274,-0.44596 6.279752,-0.63975 12.278495,-1.10958 0.839265,-0.0657 2.091617,-0.18228 2.782996,-0.25908 2.143044,-0.23786 10.499827,-0.30369 12.895077,-0.1016 1.25236,0.10549 3.41551,0.21695 4.80699,0.24743 2.59486,0.0568 3.12721,0.22471 4.33088,1.36656 0.55981,0.53106 1.10865,1.87772 1.10865,2.72027 0,0.2791 -0.21873,0.54917 -0.50602,0.62427 -0.2782,0.0726 -0.50599,0.28089 -0.50599,0.46281 0,0.34997 -1.95299,0.30315 -5.69251,-0.13656 -2.68606,-0.3158 -16.703026,-0.0968 -20.872545,0.32622 -2.017689,0.20469 -3.839293,0.37334 -4.048019,0.37481 -0.842163,0.006 -3.186492,0.26684 -3.541997,0.39432 -0.208875,0.0747 -1.290303,0.20529 -2.403496,0.28956 -1.113222,0.0846 -2.30865,0.19214 -2.656505,0.23935 -0.347886,0.0472 -1.486389,0.15897 -2.530016,0.24862 -1.043627,0.0896 -2.504257,0.28418 -3.245838,0.43209 -0.74155,0.14792 -1.40478,0.21246 -1.473778,0.14373 -0.06903,-0.069 -0.450261,-0.0323 -0.847183,0.0816 -0.396952,0.11385 -1.669176,0.27731 -2.827221,0.36357 -1.158016,0.0861 -2.731689,0.23249 -3.496996,0.32545 -0.765336,0.0929 -1.490213,0.14224 -1.610846,0.10937 -0.120723,-0.0326 -0.576035,0.0577 -1.012012,0.2008 -0.435948,0.14314 -1.532676,0.3155 -2.437173,0.38321 -0.904467,0.0678 -2.327595,0.24264 -3.162496,0.38879 -0.834902,0.14613 -1.859554,0.30492 -2.277005,0.35294 -0.417451,0.0481 -1.271328,0.15598 -1.897504,0.23965 -0.626177,0.084 -2.390856,0.21605 -3.921499,0.29404 -1.530673,0.078 -3.295352,0.2041 -3.921528,0.28029 -2.967816,0.36128 -12.967842,0.59212 -16.698037,0.38548 z m 44.932898,-16.59007 c -1.048229,-0.3847 -1.152816,-0.4915 -1.939548,-1.98049 -0.412999,-0.78165 -0.449993,-1.05375 -0.206186,-1.518 0.466906,-0.88959 0.823278,-0.98416 4.099177,-1.088 1.694755,-0.0538 3.650618,-0.15778 4.34636,-0.23099 7.588283,-0.80006 9.226472,-0.89272 15.812544,-0.89455 3.965784,0 7.436009,0.0269 7.711639,0.064 0.27551,0.0362 0.81255,0.37902 1.19321,0.76169 0.38067,0.38267 0.82878,0.69577 0.99582,0.69577 0.16704,0 0.23308,0.0705 0.14702,0.15659 -0.0861,0.0861 0.009,0.322 0.21097,0.52409 0.34035,0.34033 0.49397,1.1905 0.37991,2.10232 -0.0269,0.20887 -0.23875,0.52673 -0.47273,0.70662 -0.23397,0.17989 -0.42525,0.40765 -0.42525,0.50602 0,0.19214 -0.57508,0.17302 -3.921496,-0.13148 -3.828178,-0.34825 -20.403847,-0.0574 -21.095555,0.37 -0.124309,0.0768 -1.49102,0.17989 -3.037411,0.22919 -2.004093,0.064 -3.094993,-0.0149 -3.798295,-0.27252 z m -39.448961,-9.88101 c -0.532168,-0.18437 -0.996474,-0.37394 -1.031794,-0.42157 -0.03526,-0.0475 -0.368415,-0.49583 -0.740176,-0.99597 -0.782101,-1.0522 -0.866338,-2.00242 -0.228597,-2.57944 0.511848,-0.46323 1.22755,-0.61554 3.747735,-0.79749 2.102733,-0.1518 3.619451,-0.31346 6.051514,-0.64491 0.974062,-0.13268 2.226415,-0.30022 2.783026,-0.37218 0.556581,-0.072 1.82504,-0.24384 2.818735,-0.38165 1.50112,-0.20828 7.097143,-0.67417 16.788787,-1.39734 0.904497,-0.0675 2.2707,-0.18318 3.036007,-0.25699 0.765337,-0.0738 2.074614,-0.18676 2.909516,-0.25071 0.834902,-0.0639 2.201105,-0.1754 3.036007,-0.24772 16.366944,-1.41622 17.863821,-1.5073 18.120357,-1.10261 0.168534,0.26595 0.21515,0.25131 0.218437,-0.0696 0.003,-0.3226 0.413537,-0.44879 1.964619,-0.60397 1.07841,-0.10787 2.302315,-0.23427 2.719766,-0.28119 0.417451,-0.0466 2.81246,-0.14971 5.322245,-0.2289 l 4.563213,-0.14403 1.07901,0.72467 c 1.64401,1.10414 2.37487,3.06873 1.43254,3.85077 -0.20858,0.17331 -0.3795,0.45851 -0.3795,0.634 0,0.45391 -1.07916,0.6009 -2.47315,0.33686 -1.07417,-0.20349 -6.191364,-0.0855 -7.140863,0.16435 -0.208875,0.055 -1.574928,0.17033 -3.036006,0.25609 -1.461078,0.0858 -2.827281,0.19872 -3.036007,0.25041 -0.208875,0.0517 -1.631853,0.16495 -3.162497,0.25131 -1.530643,0.0864 -3.693798,0.25519 -4.80702,0.37523 -1.113193,0.12012 -2.19477,0.21425 -2.403495,0.20917 -0.40517,-0.009 -3.682324,0.24563 -5.566022,0.43302 -0.626177,0.0624 -2.504706,0.1775 -4.174509,0.25549 -1.669804,0.0783 -3.434483,0.19065 -3.921499,0.24982 -0.487016,0.0592 -2.19477,0.17331 -3.795008,0.25339 -1.600239,0.0801 -4.218794,0.25131 -5.819003,0.38043 -1.600238,0.12909 -3.746988,0.29643 -4.770564,0.37215 -1.023577,0.0756 -4.496009,0.47354 -7.716507,0.88418 -3.220528,0.41067 -6.823216,0.81312 -8.005973,0.89437 -1.182788,0.0813 -2.43514,0.18975 -2.783026,0.24114 -0.347856,0.0514 -1.067892,-0.0574 -1.600059,-0.24144 z m 72.946247,-9.36318 c 0,-0.20887 -0.0448,-0.3795 -0.0995,-0.3795 -0.0547,0 -0.16495,0.17093 -0.24503,0.3795 -0.0801,0.20888 -0.0353,0.3795 0.0995,0.3795 0.13477,0 0.24504,-0.17062 0.24504,-0.3795 z m -47.708247,-7.24347 c -0.661916,-0.14911 -1.354011,-0.56854 -1.937875,-1.17466 -0.950336,-0.98662 -2.471985,-3.5951 -2.471985,-4.23759 0,-0.75921 -0.405468,-0.34021 -0.728074,0.75233 -0.346062,1.17206 -1.708321,3.0096 -2.066875,2.78799 -0.113252,-0.0699 -0.275212,-0.0149 -0.359629,0.12102 -0.08457,0.13656 -0.816704,0.20679 -1.627222,0.15569 -2.80983,-0.1766 -4.540772,-1.972 -6.06502,-6.29057 -0.82035,-2.32422 -1.141431,-4.94307 -1.459525,-11.90506 -0.125803,-2.75425 -0.504377,-5.50778 -0.574958,-4.1824 -0.01195,0.22471 -0.426296,1.59086 -0.920753,3.03601 -0.494457,1.44518 -0.955715,2.91223 -1.025011,3.26009 -0.06933,0.34788 -0.575586,1.98195 -1.124996,3.63128 -0.549439,1.64931 -0.998983,3.15135 -0.998983,3.33785 0,0.18646 -0.332736,1.34176 -0.739399,2.56725 -0.406664,1.22548 -0.820111,2.8978 -0.918811,3.71623 -0.243538,2.01895 -0.69359,2.43344 -2.64279,2.43344 -1.547347,0 -2.530015,-0.52242 -2.530015,-1.34504 0,-1.05027 1.684864,-8.72873 2.203047,-10.03998 0.08247,-0.20858 0.192739,-0.6072 0.245032,-0.88552 0.164351,-0.87498 2.113521,-7.24662 2.863827,-9.36101 2.086657,-5.880196 2.578842,-7.098722 3.191811,-7.902368 0.691648,-0.906798 1.914835,-1.585686 2.610577,-1.448976 0.218437,0.04303 0.681936,0.08696 1.029822,0.09801 0.347886,0.01195 1.122515,0.446676 1.721439,0.968116 1.521858,1.324936 1.997041,3.255937 2.31893,9.423608 0.254295,4.87339 0.467593,7.92989 0.688331,9.86702 0.07142,0.62618 0.125504,1.33548 0.120125,1.57624 -0.006,0.24085 0.09712,0.50366 0.227402,0.58419 0.130285,0.0804 0.236964,0.40535 0.236964,0.72183 0,0.31645 0.08546,0.66063 0.18975,0.76477 0.104288,0.10429 0.303601,0.594 0.442761,1.08854 0.13925,0.49452 0.366831,0.91215 0.505991,0.92805 0.440639,0.0502 1.409621,-3.90139 1.418676,-5.78572 0.006,-0.97161 0.142835,-1.93273 0.306917,-2.13581 0.235171,-0.29105 0.228597,-0.32721 -0.03167,-0.17063 -0.258478,0.15569 -0.317585,-0.11325 -0.271925,-1.23959 0.04841,-1.19375 0.158972,-1.50426 0.651396,-1.82686 0.825728,-0.54105 2.706768,-0.30351 3.500313,0.44201 0.59492,0.55888 0.732287,0.90698 1.894247,4.79997 2.025638,6.78655 3.325772,9.8519 3.95661,9.32837 0.187061,-0.15539 0.340176,-0.39429 0.340176,-0.53115 0,-0.13686 0.322635,-0.66374 0.716957,-1.17081 0.394323,-0.50704 1.208098,-1.83269 1.808367,-2.94591 1.177827,-2.18431 1.976721,-3.22447 2.315552,-3.01506 0.117436,0.0726 0.148215,-0.0379 0.06843,-0.24533 -0.138951,-0.36247 0.80741,-0.75141 2.30106,-0.94556 0.676109,-0.0879 2.929537,0.27731 3.459015,0.56077 0.419663,0.22471 3.002479,3.31663 3.78455,4.53073 0.224115,0.34786 0.723293,0.94651 1.109308,1.33035 l 0.701867,0.69786 0.830181,-0.63323 c 0.456596,-0.34824 2.581292,-2.38497 4.721498,-4.52601 2.305363,-2.30623 4.349498,-4.12517 5.015477,-4.4629 0.618287,-0.31355 1.181084,-0.65525 1.250649,-0.7593 0.211863,-0.31699 2.32123,-0.93578 3.795008,-1.11331 2.010518,-0.24235 6.325024,0.73055 6.325024,1.42605 0,0.12491 0.104587,0.16256 0.232482,0.0837 0.127894,-0.0792 0.404422,0.0269 0.614402,0.23816 0.210071,0.21007 0.45313,0.38183 0.540296,0.38183 0.505304,0 2.439076,1.09781 2.772626,1.57401 0.53626,0.76563 0.51349,0.8409 -0.43057,1.42438 -0.71977,0.44482 -1.038187,0.48319 -2.503389,0.30148 -1.092006,-0.13537 -2.171551,-0.47865 -3.088808,-0.98204 -2.677064,-1.46921 -3.939935,-1.31681 -6.739187,0.81315 -1.778992,1.35362 -3.137904,2.68148 -5.313012,5.1916 -3.547735,4.09418 -4.337515,4.58045 -7.439142,4.58045 -3.64787,0 -4.754129,-0.67028 -7.155623,-4.33548 -0.899297,-1.37254 -1.715134,-2.49553 -1.812968,-2.49553 -0.187658,0 -1.189511,1.09341 -1.101,1.20176 0.186164,0.228 -0.009,0.56925 -0.327805,0.56925 -0.208875,0 -0.356163,0.0855 -0.327656,0.18975 0.10877,0.3977 -0.580696,1.99163 -1.12649,2.60451 -0.313432,0.35195 -0.605139,0.79851 -0.648289,0.99232 -0.173016,0.77804 -1.174809,1.83487 -2.411234,2.54403 -1.368684,0.78497 -2.249723,0.88529 -4.10599,0.46745 z"
       id="path1001"
       sodipodi:nodetypes="csssscssscsccsssssscscsssscscscccscssccscssscscscsccccsssscscscssccccsccssscccsccssscssssccssscscscscsccsccccscscccsssccsscsscccsscscscssscscscscscssssssccccssscsssccsscsssssssccsssssssssssssssccsscccsccccscscsscsssscsssscsssscsccsssssssssssssscsss" />
  </g>
</svg>
