<?xml version="1.0" encoding="UTF-8" standalone="no"?>
<!-- Created with Inkscape (http://www.inkscape.org/) -->

<svg
   width="91.785583mm"
   height="56.135792mm"
   viewBox="0 0 91.785581 56.135792"
   version="1.1"
   id="svg5"
   inkscape:version="1.1.1 (c3084ef, 2021-09-22)"
   sodipodi:docname="logo_gitlab copy 6.svg"
   xmlns:inkscape="http://www.inkscape.org/namespaces/inkscape"
   xmlns:sodipodi="http://sodipodi.sourceforge.net/DTD/sodipodi-0.dtd"
   xmlns="http://www.w3.org/2000/svg"
   xmlns:svg="http://www.w3.org/2000/svg">
  <sodipodi:namedview
     id="namedview7"
     pagecolor="#ffffff"
     bordercolor="#666666"
     borderopacity="1.0"
     inkscape:pageshadow="2"
     inkscape:pageopacity="0.0"
     inkscape:pagecheckerboard="0"
     inkscape:document-units="mm"
     showgrid="false"
     inkscape:zoom="0.51580387"
     inkscape:cx="112.44584"
     inkscape:cy="282.08396"
     inkscape:window-width="1312"
     inkscape:window-height="969"
     inkscape:window-x="0"
     inkscape:window-y="25"
     inkscape:window-maximized="0"
     inkscape:current-layer="layer1" />
  <defs
     id="defs2" />
  <g
     inkscape:label="Layer 1"
     inkscape:groupmode="layer"
     id="layer1"
     transform="translate(202.68377,-38.089788)">
    <g
       id="g1172">
      <path
         style="fill:#008c89;fill-opacity:0.502703;stroke-width:0.145429"
         d="m -200.62559,93.871052 c -0.52872,-0.35927 -0.99984,-1.13181 -0.99984,-1.63952 0,-0.1527 0.12694,-0.41408 0.28211,-0.58062 0.15511,-0.16662 0.23886,-0.34604 0.18599,-0.3989 -0.0529,-0.0529 -0.0326,-0.1417 0.0452,-0.19727 0.0776,-0.0556 0.2394,-0.28007 0.35938,-0.49874 0.73239,-1.33486 1.37212,-2.27094 1.49856,-2.1928 0.0804,0.0496 0.10254,0.0198 0.0491,-0.0666 -0.0534,-0.0864 0.10683,-0.37458 0.35609,-0.64058 0.24921,-0.26596 0.52814,-0.6472 0.61989,-0.84715 0.0917,-0.19997 0.46128,-0.78001 0.82121,-1.28898 0.35994,-0.50896 0.7526,-1.07105 0.87258,-1.24907 0.12007,-0.17802 0.51264,-0.61791 0.87258,-0.97754 0.35993,-0.35963 0.75249,-0.84465 0.87233,-1.07781 0.1199,-0.23317 0.3012,-0.47703 0.403,-0.54194 0.10186,-0.0649 0.15133,-0.17257 0.11011,-0.23925 -0.0412,-0.0667 0.0179,-0.15683 0.13123,-0.20039 0.11336,-0.0435 0.48933,-0.4474 0.83538,-0.89748 1.46951,-1.91137 1.83539,-2.38088 2.62883,-3.3733 0.45992,-0.57526 0.83623,-1.10786 0.83623,-1.18356 0,-0.0757 0.0941,-0.17376 0.2092,-0.21792 0.11508,-0.0441 0.36047,-0.34513 0.54536,-0.66886 0.18489,-0.32373 0.44267,-0.58911 0.57286,-0.58973 0.1302,0 0.31816,-0.0993 0.41773,-0.21926 0.1369,-0.16489 0.13862,-0.21814 0.007,-0.21814 -0.11354,0 -0.0969,-0.0768 0.0481,-0.22175 0.12195,-0.12196 0.46118,-0.51395 0.75382,-0.87109 0.29265,-0.35713 0.60031,-0.60717 0.68368,-0.55563 0.0869,0.0538 0.10821,0.0235 0.05,-0.0706 -0.0926,-0.14978 0.22597,-0.56065 1.59891,-2.06212 1.09831,-1.20115 1.77275,-1.996275 2.09708,-2.472293 0.58755,-0.862374 1.92333,-2.321535 2.05229,-2.241835 0.0672,0.04157 0.0878,-0.01374 0.0459,-0.123329 -0.0419,-0.109243 0.0734,-0.368045 0.25618,-0.574887 0.18284,-0.206859 0.69239,-0.781694 1.1323,-1.277414 0.43993,-0.495703 0.95374,-1.074815 1.14181,-1.286879 0.18805,-0.212046 0.58071,-0.677243 0.87257,-1.033745 0.29185,-0.356503 0.7597,-0.880135 1.03964,-1.163619 0.27996,-0.283484 1.11161,-1.210391 1.84811,-2.059796 0.7365,-0.849405 1.55454,-1.76738 1.81786,-2.039905 0.26332,-0.272543 0.80599,-0.880633 1.20593,-1.351326 0.39992,-0.470693 0.89075,-1.027511 1.09072,-1.237376 0.19995,-0.209865 0.62533,-0.696893 0.94528,-1.082269 0.31996,-0.385377 0.64851,-0.775666 0.73015,-0.867287 0.0816,-0.09155 0.40886,-0.492748 0.72714,-0.891436 0.31831,-0.398663 0.70961,-0.863894 0.86959,-1.03384 0.15992,-0.17005 0.84712,-0.923592 1.52701,-1.674746 1.71664,-1.896583 5.17514,-5.346816 5.9626,-5.948344 0.35994,-0.274948 0.68716,-0.534917 0.72714,-0.577722 0.04,-0.04277 0.36049,-0.264504 0.7122,-0.492645 0.77166,-0.500546 1.64694,-0.596942 1.88973,-0.208147 0.09,0.144112 0.10461,0.262099 0.0325,0.262099 -0.0721,0 -0.12178,0.158026 -0.11027,0.351109 0.0155,0.261653 0.0668,0.313046 0.20116,0.201672 0.0991,-0.08228 0.1381,-0.217595 0.0866,-0.300867 -0.0548,-0.08863 -0.023,-0.10787 0.0766,-0.04621 0.32635,0.201689 -0.32055,0.988193 -3.35158,4.075002 -3.90241,3.974191 -4.31357,4.410514 -6.44577,6.84003 -0.55934,0.637324 -1.43985,1.605798 -1.95672,2.152155 -0.51686,0.546357 -1.04041,1.145978 -1.16344,1.3325 -0.12299,0.186505 -0.75963,0.919555 -1.41464,1.629004 -0.65504,0.709433 -1.40763,1.550267 -1.67245,1.868534 -0.26481,0.318267 -0.87412,1.014284 -1.35404,1.546728 -0.47991,0.532443 -1.11571,1.253676 -1.41288,1.602792 -0.29716,0.349083 -0.69064,0.798305 -0.8744,0.998276 -0.18377,0.199971 -0.85684,0.985221 -1.49571,1.745033 -0.63889,0.759794 -1.50707,1.774165 -1.92931,2.25415 -1.19885,1.362869 -1.72866,1.989083 -2.2148,2.617873 -0.24736,0.31993 -0.52825,0.6478 -0.6242,0.7286 -0.096,0.0807 -0.53071,0.57161 -0.9661,1.09072 -0.99113,1.18169 -1.35091,1.53639 -1.50688,1.48558 -0.0675,-0.022 -0.0861,0.0192 -0.0412,0.0917 0.0448,0.0725 -0.0976,0.35793 -0.31642,0.63444 -0.21879,0.2765 -0.52785,0.67695 -0.68682,0.88989 -0.15889,0.21296 -0.37552,0.38718 -0.48123,0.38718 -0.10563,0 -0.15665,0.0575 -0.11319,0.12797 0.0988,0.15974 -1.62705,2.28508 -1.81506,2.23532 -0.0756,-0.0199 -0.12333,0.012 -0.10615,0.0727 0.0464,0.16215 -0.72469,1.33329 -1.32431,2.01151 -0.56104,0.63458 -0.71922,0.83199 -1.39135,1.73619 -0.23664,0.31834 -0.47959,0.59981 -0.53986,0.62546 -0.0603,0.0256 -0.25042,0.27451 -0.42253,0.55302 -0.17213,0.2785 -0.34519,0.47413 -0.38459,0.43474 -0.10701,-0.10701 -0.45755,0.25605 -0.37646,0.38983 0.06,0.0989 -0.5645,1.05212 -0.82952,1.26621 -0.0495,0.04 -0.29798,0.36722 -0.55217,0.72716 -0.2542,0.35994 -0.64255,0.87793 -0.86298,1.15113 -0.34383,0.42609 -0.35712,0.47339 -0.0936,0.33276 0.16902,-0.0902 0.51058,-0.39547 0.75905,-0.67848 0.24848,-0.283 0.48841,-0.51456 0.53313,-0.51456 0.0447,0 1.24258,-1.16162 2.66188,-2.58136 1.41927,-1.41976 3.2007,-3.16615 3.95875,-3.88088 0.75804,-0.71472 1.51546,-1.48279 1.68318,-1.70684 0.16764,-0.22404 0.3403,-0.37198 0.38352,-0.32877 0.0433,0.0433 0.52772,-0.39058 1.07665,-0.96402 0.54893,-0.57343 1.10139,-1.14957 1.22769,-1.28034 1.01238,-1.04803 4.05638,-3.58096 3.83344,-3.18985 -0.0593,0.10392 0.11492,-0.0483 0.38691,-0.33816 0.61757,-0.65819 2.38684,-1.89507 2.52011,-1.76178 0.0544,0.0545 0.15992,0.003 0.23435,-0.11491 0.0744,-0.11766 0.13638,-0.13964 0.13758,-0.0488 0.001,0.0907 -0.16146,0.27225 -0.36134,0.40328 -0.19998,0.13105 -0.36358,0.30622 -0.36358,0.38934 0,0.16902 0.93195,-0.47518 1.81788,-1.25661 l 0.5817,-0.51311 -0.61228,0.296933 c -0.68758,0.333477 -0.76929,0.351337 -0.76929,0.168167 0,-0.0709 0.21476,-0.230776 0.47724,-0.355324 0.26247,-0.124531 0.6158,-0.344719 0.78514,-0.489227 0.16936,-0.144456 0.8217,-0.63741 1.4497,-1.095307 0.62798,-0.457914 1.31891,-0.997812 1.53539,-1.199793 0.21646,-0.201981 0.43607,-0.367238 0.48801,-0.367238 0.0519,0 0.30019,-0.164552 0.5517,-0.36576 0.2515,-0.201174 0.52272,-0.416793 0.60271,-0.479144 0.17666,-0.137758 1.78487,-1.421064 2.15982,-1.72346 0.14806,-0.119378 0.40222,-0.242792 0.56478,-0.274088 0.16249,-0.03126 0.38871,-0.189871 0.50254,-0.35238 0.11388,-0.162492 0.28146,-0.295474 0.37253,-0.295474 0.091,0 0.33276,-0.153731 0.53712,-0.341645 0.20433,-0.187913 0.99324,-0.760172 1.7531,-1.271711 0.75986,-0.51154 1.40339,-0.979519 1.43007,-1.039947 0.0266,-0.06046 0.10512,-0.109931 0.17448,-0.109931 0.0692,0 0.40744,-0.186882 0.75139,-0.415315 1.54274,-1.024556 3.57765,-2.321775 4.04295,-2.577313 0.27996,-0.153732 0.54174,-0.31454 0.58172,-0.357379 0.0593,-0.06338 1.30578,-0.822128 3.41399,-2.077883 0.15803,-0.09413 0.51273,-0.315622 0.7883,-0.492233 0.46832,-0.300162 0.51366,-0.304903 0.69474,-0.07266 0.14137,0.1813 0.17438,0.189476 0.12213,0.03023 -0.0393,-0.120065 -0.007,-0.316309 0.0723,-0.436288 0.12797,-0.193891 0.15974,-0.193891 0.28711,0 0.12316,0.187638 0.1436,0.183275 0.14549,-0.03126 0.001,-0.137242 0.14943,-0.326924 0.32943,-0.421688 0.17998,-0.09482 0.35994,-0.215018 0.39994,-0.267201 0.0953,-0.124531 1.09617,-0.588731 1.26914,-0.588731 0.0739,0 0.2837,-0.158885 0.46614,-0.353068 0.19861,-0.21141 0.42256,-0.318181 0.55821,-0.266135 0.16661,0.0639 0.19363,0.03229 0.10203,-0.11955 -0.10324,-0.171252 -0.0855,-0.174945 0.10374,-0.02164 0.18999,0.153903 0.23962,0.141536 0.29573,-0.073 0.0443,-0.169534 0.41139,-0.368655 1.07214,-0.581423 1.5643,-0.503758 3.25885,-0.522412 3.25885,-0.0359 0,0.08709 0.19183,0.334619 0.42629,0.550075 0.65682,0.603573 0.66318,1.544031 0.0172,2.511887 -0.5215,0.781042 -1.83598,2.431861 -2.58458,3.245882 -0.30202,0.328401 -0.78712,0.891488 -1.07801,1.251271 -0.2909,0.359784 -0.89468,1.042128 -1.34176,1.516326 -0.44707,0.47418 -0.83077,0.910142 -0.85268,0.968783 -0.0218,0.05857 -0.43248,0.525607 -0.9124,1.037696 -0.9836,1.049531 -1.79689,1.969344 -4.15011,4.693672 -0.89819,1.039826 -1.72252,1.942926 -1.83185,2.006875 -0.10924,0.0639 -0.19878,0.17905 -0.19878,0.255761 0,0.31679 -2.3277,2.771328 -2.51711,2.654268 -0.08,-0.0495 -0.10169,-0.0189 -0.0481,0.0678 0.10736,0.17364 -0.59225,0.99972 -0.79727,0.94145 -0.0704,-0.0201 -0.12024,0.012 -0.11062,0.0727 0.0478,0.30217 -0.0452,0.46192 -0.31904,0.54883 -0.16592,0.0527 -0.26947,0.12814 -0.22994,0.16764 0.0623,0.0624 -2.02309,2.71573 -3.03954,3.86703 -0.1954,0.22136 -0.3553,0.44373 -0.3553,0.49416 0,0.0505 -0.44702,0.68739 -0.99338,1.41544 -0.87905,1.17132 -1.73287,2.3708 -2.53497,3.5612 -0.14085,0.20912 -0.29579,0.49476 -0.34419,0.63473 -0.0484,0.13999 -0.15665,0.25451 -0.24068,0.25451 -0.084,0 -0.11319,0.0395 -0.0648,0.0879 0.0912,0.0912 1.24343,-0.80237 2.5055,-1.94318 1.14553,-1.0355 3.72262,-3.40917 4.22257,-3.88929 0.80129,-0.7695 1.87688,-1.73031 2.54473,-2.27316 0.35727,-0.29039 1.14043,-0.93746 1.74032,-1.43788 0.5999,-0.50046 1.25433,-1.01484 1.45429,-1.14311 0.19997,-0.12831 0.52622,-0.38078 0.72501,-0.56115 0.19878,-0.18037 0.72233,-0.5709 1.16343,-0.86785 0.44111,-0.29695 1.04626,-0.72719 1.34478,-0.95609 0.30313,-0.23242 0.61805,-0.36964 0.71326,-0.3108 0.10272,0.0636 0.13175,0.0426 0.0727,-0.0527 -0.0557,-0.09 0.14394,-0.30317 0.46356,-0.4951 0.3087,-0.18534 0.78431,-0.517607 1.0569,-0.738362 0.55119,-0.446388 5.01505,-3.294732 5.36393,-3.422664 0.12195,-0.04466 0.4835,-0.246194 0.80346,-0.447745 0.31995,-0.201535 1.07254,-0.62166 1.67244,-0.933589 0.5999,-0.311928 1.25433,-0.656734 1.45428,-0.766218 1.76432,-0.965966 4.35461,-1.92106 4.6743,-1.723459 0.095,0.05874 0.13106,0.04225 0.0819,-0.03727 -0.0502,-0.08125 0.40975,-0.255074 1.07317,-0.405663 2.31422,-0.525246 4.23239,-0.04535 5.74226,1.436471 0.96169,0.943877 1.29151,1.824561 1.59547,4.260063 0.2987,2.393402 0.48596,3.358856 0.67405,3.475086 0.68949,0.42614 4.51801,-0.46866 6.32441,-1.478157 0.4929,-0.275462 1.0001,-0.500838 1.12707,-0.500838 0.12693,0 0.23113,-0.04912 0.23142,-0.109072 5.8e-4,-0.106152 1.23616,-0.676779 1.52646,-0.704846 0.08,-0.0069 0.2436,-0.05136 0.36358,-0.09688 0.12006,-0.04552 0.41447,-0.116629 0.65443,-0.157854 l 0.43629,-0.07506 -0.39993,0.163694 c -0.21996,0.09001 -0.39994,0.216444 -0.39994,0.280994 0,0.06458 -0.12693,0.117317 -0.28226,0.117317 -0.15528,0 -0.32339,0.06647 -0.37363,0.14772 -0.0502,0.08124 -0.1527,0.10993 -0.22775,0.06355 -0.0751,-0.04638 -0.17568,0.01804 -0.22366,0.143082 -0.0479,0.125047 -0.21113,0.227368 -0.36254,0.227368 -0.15133,0 -0.27531,0.05393 -0.27531,0.119722 0,0.123844 -1.07009,0.697202 -1.45428,0.779118 -0.12007,0.02559 -0.25087,0.08056 -0.29088,0.122126 -0.04,0.04157 -0.26113,0.158541 -0.49142,0.259936 -0.23031,0.10135 -0.38007,0.22292 -0.33282,0.27018 0.0472,0.0472 0.39429,-0.0591 0.77119,-0.23618 0.3769,-0.177185 0.85074,-0.33978 1.053,-0.361337 0.20224,-0.02164 0.39266,-0.114053 0.42314,-0.205536 0.0306,-0.09138 0.18089,-0.166271 0.33419,-0.166271 0.15322,0 0.27875,-0.05548 0.27875,-0.123329 0,-0.06785 0.27812,-0.239288 0.61807,-0.380979 0.33994,-0.141708 0.75909,-0.322974 0.93142,-0.402828 0.17235,-0.07987 0.4014,-0.0943 0.509,-0.03195 0.1077,0.06218 0.146,0.0584 0.0852,-0.0086 -0.13312,-0.146517 2.06307,-1.257627 2.25341,-1.140001 0.0733,0.04535 0.26184,-0.05531 0.4188,-0.223864 0.15699,-0.168503 0.36284,-0.306329 0.4575,-0.306329 0.0946,0 0.0256,0.102717 -0.15356,0.228089 -0.1791,0.12539 -0.29077,0.28455 -0.24812,0.353531 0.11887,0.192362 -0.2079,0.334259 -0.40624,0.176388 -0.11938,-0.09499 -0.26839,-0.04586 -0.46628,0.15356 l -0.29085,0.293189 0.32721,-0.0797 c 0.57913,-0.141193 0.34847,0.190799 -0.34599,0.497987 -0.85155,0.376685 -1.96046,1.075725 -1.86226,1.173942 0.0411,0.04105 -0.0424,0.07042 -0.18556,0.06527 -0.35793,-0.01374 -1.06015,0.348258 -1.06015,0.545408 0,0.0888 -0.62171,0.44981 -1.38157,0.80224 -0.75987,0.35241 -1.38158,0.68849 -1.38158,0.74686 0,0.0584 -0.11456,0.0763 -0.2545,0.04 -0.13999,-0.0364 -0.3854,0.0354 -0.54536,0.1594 l -0.29086,0.22546 0.29086,-0.0962 c 0.15991,-0.0529 0.24856,-0.049 0.19688,0.009 -0.0517,0.0577 -0.86973,0.3192 -1.81787,0.58094 -2.08659,0.57602 -2.8856,0.56698 -4.10054,-0.0464 -1.05714,-0.53363 -1.67572,-1.16426 -1.90728,-1.94437 -0.1,-0.33672 -0.2346,-0.677654 -0.29924,-0.757645 -0.13106,-0.162149 -0.31282,-1.128888 -0.64919,-3.452449 -0.26047,-1.799174 -0.40817,-2.197966 -0.89646,-2.420438 -0.87204,-0.397349 -2.59826,-0.320002 -4.15811,0.186281 -0.34115,0.11079 -1.01295,0.318885 -1.49287,0.462586 -0.47991,0.143769 -0.90529,0.298067 -0.94528,0.343053 -0.0735,0.08262 -0.37931,0.233912 -1.9633,0.971085 -0.47992,0.223331 -1.46156,0.743047 -2.18144,1.154893 -2.1374,1.222861 -2.24656,1.269891 -2.48607,1.071122 -0.17057,-0.141536 -0.19482,-0.132776 -0.12659,0.045 0.10237,0.266599 -1.19298,1.227001 -3.38948,2.513212 -0.40343,0.23625 -1.1176,0.71184 -1.19665,0.79691 -0.04,0.0431 -0.629,0.43624 -1.30887,0.87376 -0.67989,0.43753 -1.26887,0.83897 -1.30886,0.89209 -0.12522,0.16627 -1.89059,1.438 -1.89059,1.36191 0,-0.0397 -0.37265,0.2858 -0.82811,0.72345 -0.45545,0.43764 -0.84926,0.77455 -0.87511,0.74868 -0.0259,-0.0259 -0.32403,0.22135 -0.66256,0.54936 -0.62786,0.60835 -2.17502,1.96251 -2.41405,2.11294 -0.0727,0.0457 -0.84303,0.74494 -1.71185,1.55376 -0.86881,0.80879 -2.39769,2.18015 -3.39752,3.04743 -0.99983,0.86729 -1.8506,1.61257 -1.89058,1.65617 -0.4058,0.44248 -1.63801,1.27155 -2.41027,1.62172 -1.22132,0.55376 -2.042,0.48508 -2.78114,-0.23273 -0.65575,-0.63688 -0.8449,-1.22138 -0.62241,-1.92343 0.23328,-0.73606 0.75012,-1.78586 0.87922,-1.78586 0.0572,0 0.14669,-0.1704 0.19894,-0.37873 0.15563,-0.62022 0.54104,-1.12685 0.68649,-0.90247 0.0824,0.12728 0.1113,0.0699 0.0867,-0.1731 -0.023,-0.22771 0.0311,-0.34998 0.14497,-0.32722 0.1,0.0201 0.18178,-0.0656 0.18178,-0.19035 0,-0.13432 0.0684,-0.18446 0.16782,-0.12299 0.10718,0.0661 0.12831,0.0397 0.0584,-0.0733 -0.0601,-0.0974 -0.018,-0.28747 0.0938,-0.42241 0.11182,-0.13501 0.32829,-0.48868 0.48113,-0.78611 0.18608,-0.36207 0.31513,-0.48222 0.39051,-0.36358 0.0764,0.12024 0.11337,0.0897 0.11474,-0.0948 0.003,-0.34192 2.16073,-3.32237 2.3298,-3.21789 0.0685,0.0424 0.17199,0 0.22986,-0.0933 0.0658,-0.10632 0.0422,-0.13123 -0.0627,-0.0665 -0.23902,0.14772 -0.20786,-0.0648 0.0495,-0.33749 0.11955,-0.12676 0.3873,-0.44321 0.59497,-0.70339 0.20768,-0.26017 0.42969,-0.44084 0.49335,-0.40148 0.0637,0.0393 0.10684,-0.0385 0.0958,-0.1729 -0.0103,-0.1345 0.12693,-0.31954 0.30641,-0.41135 0.1795,-0.0917 0.28471,-0.20858 0.23379,-0.25949 -0.13123,-0.13123 0.24498,-0.54981 0.40524,-0.45077 0.0728,0.045 0.11456,0.0252 0.0926,-0.044 -0.022,-0.0692 0.1993,-0.38491 0.49172,-0.7016 1.23679,-1.33937 1.43162,-1.57121 1.43162,-1.70362 0,-0.0766 0.10152,-0.10048 0.22569,-0.0527 0.13295,0.051 0.18812,0.0258 0.13415,-0.0615 -0.10993,-0.17795 0.73365,-1.178886 0.8747,-1.037831 0.0543,0.05428 0.0768,0.02336 0.05,-0.06871 -0.0514,-0.17723 0.62569,-1.02557 1.83555,-2.299961 0.40353,-0.425038 0.86459,-0.953926 1.02456,-1.175265 0.25847,-0.357636 0.54995,-0.692444 1.78151,-2.046363 0.17998,-0.197842 0.32722,-0.38694 0.32722,-0.420194 0,-0.03332 0.24542,-0.311723 0.54536,-0.618825 0.29996,-0.307068 0.77441,-0.84573 1.05436,-1.196976 0.27996,-0.351264 0.61123,-0.740625 0.73619,-0.865225 0.12488,-0.124703 0.47587,-0.536755 0.77981,-0.915879 0.30394,-0.37909 0.62083,-0.647115 0.70421,-0.595585 0.0833,0.05153 0.10907,0.02491 0.057,-0.05926 -0.0521,-0.08417 0.19198,-0.470573 0.54218,-0.858698 0.35021,-0.388107 0.94745,-1.065608 1.32719,-1.505538 0.37976,-0.43993 0.86342,-0.996197 1.07482,-1.236156 0.57303,-0.65043 1.07311,-1.388977 0.99403,-1.468058 -0.10409,-0.104091 -4.47031,2.120996 -4.47031,2.27818 0,0.07438 -0.0649,0.135353 -0.14428,0.135353 -0.18709,0 -3.79554,2.035749 -4.04728,2.283316 -0.10564,0.103919 -0.28567,0.188978 -0.39993,0.188978 -0.11422,0 -0.20775,0.0493 -0.20775,0.109416 0,0.109587 -1.68263,1.189951 -3.09861,1.989458 -0.4154,0.234547 -0.84397,0.514906 -0.95238,0.623016 -0.10838,0.108041 -0.32069,0.157338 -0.47174,0.109415 -0.20672,-0.06561 -0.25313,-0.03126 -0.18772,0.139303 0.0543,0.141193 -0.0137,0.26514 -0.18271,0.329381 -0.14823,0.05668 -0.33503,0.157682 -0.41502,0.224499 -0.08,0.06682 -0.43992,0.313527 -0.79985,0.548212 -1.08595,0.70799 -3.2312,2.209989 -4.21024,2.947797 -0.50671,0.381856 -0.94666,0.668913 -0.97768,0.637892 -0.0311,-0.03109 -0.36442,0.226457 -0.7409,0.572121 -0.37649,0.345699 -0.84897,0.712267 -1.04996,0.814606 -0.20098,0.102373 -0.72535,0.490154 -1.16528,0.861789 -0.43992,0.371618 -0.94711,0.720426 -1.12707,0.775099 -0.17998,0.05462 -0.32722,0.186711 -0.32722,0.293395 0,0.106668 -0.2127,0.329808 -0.47265,0.495848 -0.25995,0.1661 -0.60354,0.38517 -0.7635,0.48702 -0.15992,0.10185 -0.32555,0.23116 -0.36798,0.28743 -0.15304,0.20293 -1.38119,0.98318 -1.55172,0.98577 -0.096,10e-4 -0.22785,0.0845 -0.29297,0.18444 -0.18934,0.29073 -1.26106,1.22253 -1.12904,0.98165 0.13758,-0.25092 -0.24487,0.0611 -1.20933,0.98702 -0.35719,0.34288 -0.68095,0.59193 -0.71946,0.55343 -0.0385,-0.0385 -0.23232,0.12282 -0.43067,0.35859 -0.19836,0.23573 -0.40764,0.39958 -0.46506,0.36409 -0.0574,-0.0356 -0.29689,0.13072 -0.53212,0.36933 -0.23524,0.23864 -0.8185,0.80739 -1.29615,1.26393 -0.47765,0.45654 -1.10522,1.05912 -1.39458,1.33907 -0.28938,0.27996 -1.26551,1.19616 -2.16918,2.03602 -1.77684,1.65139 -9.4483,9.33325 -11.92858,11.94477 -2.45356,2.58337 -3.23108,3.26738 -3.5148,3.09204 -0.0555,-0.0344 -0.14188,0.003 -0.19219,0.0855 -0.16559,0.26781 -1.01537,0.15408 -1.54665,-0.20689 z m 13.90274,-14.4064 c 1.42468,-1.35976 3.1147,-2.97708 3.7556,-3.59403 0.6409,-0.61697 1.23067,-1.08133 1.31065,-1.03191 0.0821,0.0507 0.10014,0.0172 0.0416,-0.078 -0.16284,-0.26341 -0.28703,-0.20746 -0.89326,0.40241 -0.31179,0.31367 -0.61779,0.53887 -0.67999,0.50041 -0.0622,-0.0385 -0.11302,0.018 -0.11302,0.12556 0,0.10753 -0.24543,0.40087 -0.54536,0.65193 -1.61036,1.34784 -7.1624,6.82898 -7.1624,7.07091 0,0.0898 0.38156,-0.2278 0.84795,-0.70581 0.46636,-0.47801 2.01359,-1.98166 3.43827,-3.34142 z m 7.64174,-5.09335 c 0.15373,-0.18518 0.14463,-0.20647 -0.055,-0.12986 -0.13123,0.0503 -0.23871,0.15013 -0.23871,0.22148 0,0.187 0.0842,0.16077 0.29362,-0.0915 z m 15.80058,-0.86286 c 0,-0.11646 -0.0557,-0.17738 -0.1235,-0.13535 -0.068,0.0421 -0.0859,0.13724 -0.0398,0.21176 0.11766,0.19028 0.16352,0.16884 0.16352,-0.0764 z m -9.78215,-5.678135 c 0.15012,-0.199971 0.34628,-0.363579 0.43582,-0.363579 0.0895,0 0.24881,-0.137757 0.35393,-0.306072 0.15837,-0.253511 0.15802,-0.286782 -0.001,-0.193736 -0.45492,0.265432 -1.28324,0.971446 -1.28324,1.093744 0,0.240629 0.21703,0.139647 0.49485,-0.230357 z m 3.14088,-0.509014 c 0,-0.08004 -0.0694,-0.145487 -0.15408,-0.145487 -0.0847,0 -0.11354,0.06544 -0.0641,0.145487 0.0495,0.08004 0.11869,0.145487 0.15408,0.145487 0.0352,0 0.0641,-0.06544 0.0641,-0.145487 z m -1.74516,-0.581706 c 0,-0.08004 -0.0288,-0.145487 -0.0641,-0.145487 -0.0352,0 -0.10461,0.06544 -0.15408,0.145487 -0.0495,0.08004 -0.0206,0.145486 0.0641,0.145486 0.0847,0 0.15407,-0.06544 0.15407,-0.145486 z m 57.44462,0.08125 c 0,-0.15356 -0.2791,-0.217973 -0.36212,-0.08365 -0.0503,0.08125 0.0103,0.147891 0.13536,0.147891 0.1247,0 0.22673,-0.02886 0.22673,-0.06407 z m -56.60055,-0.795608 c 0.0864,-0.259197 -0.52238,0.133291 -0.62613,0.403738 -0.0654,0.170737 -0.0251,0.169191 0.24372,-0.0086 0.17725,-0.117661 0.34933,-0.295165 0.38241,-0.394429 z m 2.57736,-0.1302 c -0.0448,-0.04483 -0.16215,-8.6e-5 -0.26077,0.09928 -0.14257,0.143597 -0.12591,0.160258 0.0814,0.08142 0.14343,-0.05462 0.22414,-0.135867 0.17938,-0.180716 z m -2.04485,-0.297139 c -0.0819,-0.08623 -0.35858,0.132432 -0.35858,0.283381 0,0.0785 0.0915,0.05823 0.20347,-0.045 0.11182,-0.10306 0.18172,-0.210432 0.15511,-0.23843 z m 0.61585,-0.352501 c 0.0639,-0.101858 0.29627,-0.29975 0.51623,-0.439655 0.21995,-0.139818 0.39993,-0.320861 0.39993,-0.402158 0,-0.161804 -0.049,-0.12934 -0.87258,0.58016 -0.27995,0.24111 -0.43045,0.440325 -0.33445,0.442661 0.096,0.0017 0.22691,-0.07918 0.29087,-0.181008 z m 1.96823,-1.571737 0.47494,-0.44814 -0.48384,0.266359 c -0.55596,0.306054 -0.87831,0.629921 -0.62698,0.629921 0.0885,0 0.37466,-0.201654 0.63588,-0.44814 z m 3.22311,-0.400183 c 0.0412,-0.06664 -0.0175,-0.121267 -0.13055,-0.121267 -0.11302,0 -0.17159,0.05445 -0.13037,0.121267 0.0412,0.06665 0.1,0.121096 0.13037,0.121096 0.0306,0 0.0893,-0.05462 0.13055,-0.121096 z m -1.98754,-0.595877 c -0.012,-0.154418 -0.0701,-0.250505 -0.13003,-0.213506 -0.0599,0.03693 -0.072,0.16335 -0.027,0.280787 0.11354,0.296075 0.18216,0.266686 0.15699,-0.06733 z m 0.83288,-0.436323 c 0.046,-0.07455 0.0172,-0.17649 -0.0641,-0.226732 -0.0812,-0.05016 -0.14789,0.01031 -0.14789,0.135352 0,0.255452 0.0873,0.293052 0.21193,0.09138 z m 2.76937,-0.155449 c 0.0495,-0.08004 0.0206,-0.145486 -0.0641,-0.145486 -0.0847,0 -0.15407,0.06544 -0.15407,0.145486 0,0.08004 0.0288,0.145487 0.0641,0.145487 0.0352,0 0.10461,-0.06544 0.15408,-0.145487 z m -1.67466,-0.763504 c -0.002,-0.26459 -0.0292,-0.285477 -0.14325,-0.109072 -0.18223,0.281955 -0.18223,0.436288 0,0.436288 0.08,0 0.14445,-0.147204 0.14325,-0.327216 z m 0.48194,-0.20564 c -0.0541,-0.140849 -0.0335,-0.205261 0.0495,-0.154075 0.0782,0.04827 0.32928,-0.06115 0.55788,-0.24348 0.28486,-0.227144 0.36113,-0.36509 0.24244,-0.438435 -0.10341,-0.0639 -0.157,-0.03212 -0.13329,0.07901 0.022,0.102373 -0.0419,0.197137 -0.14188,0.210758 -0.1,0.01374 -0.24257,0.03298 -0.31685,0.04294 -0.0742,0.01031 -0.2427,0.125905 -0.37431,0.257461 -0.19327,0.193273 -0.20226,0.262735 -0.0467,0.361347 0.26212,0.16627 0.26936,0.161117 0.16318,-0.115428 z m 1.48357,-1.066862 c 0.0495,-0.08004 0.0244,-0.145487 -0.0555,-0.145487 -0.08,0 -0.18587,0.06544 -0.2353,0.145487 -0.0495,0.08004 -0.0244,0.145487 0.0555,0.145487 0.08,0 0.18587,-0.06544 0.2353,-0.145487 z m 1.74516,-1.163447 c 0.0495,-0.08004 0.0206,-0.145487 -0.0641,-0.145487 -0.0847,0 -0.15408,0.06544 -0.15408,0.145487 0,0.08004 0.0289,0.145487 0.0641,0.145487 0.0352,0 0.10461,-0.06544 0.15408,-0.145487 z m 2.61773,-1.599701 c 0.0495,-0.08004 0.0244,-0.145486 -0.0555,-0.145486 -0.08,0 -0.18586,0.06544 -0.2353,0.145486 -0.0495,0.08004 -0.0244,0.145487 0.0555,0.145487 0.0801,0 0.18587,-0.06544 0.23531,-0.145487 z m 0.7635,-0.428078 c 0.45972,-0.383504 0.40686,-0.49316 -0.10907,-0.226354 -0.23996,0.124016 -0.43629,0.289376 -0.43629,0.367306 0,0.21093 0.17903,0.164725 0.54536,-0.14102 z m 3.55091,-2.15693 c 0.0266,-0.06201 0.27752,-0.257221 0.55748,-0.433849 0.27995,-0.176611 0.42394,-0.322218 0.31999,-0.323575 -0.26743,-0.0034 -0.96052,0.372391 -1.18461,0.642409 -0.15768,0.189906 -0.15184,0.227729 0.0349,0.227729 0.12315,0 0.24564,-0.05067 0.2723,-0.11268 z m 42.30783,10.385259 c 0.0333,-0.0292 0.22421,-0.130887 0.42418,-0.226166 0.34281,-0.16335 0.34745,-0.160258 0.0812,0.05308 -0.23166,0.185612 -0.70502,0.34776 -0.50544,0.173159 z"
         id="path921"
         sodipodi:nodetypes="cscscsssssssssssccsssscssssssssscsssssssssssscssssssccscsssssssssssscsssscscscssssssssssssssssscssscsssscssssssssssssssssssssssssscsscssscssssscssscssssssccsssssssssssssssssscssssscssssssssccsccssscsssssssscccssssccsssssscccsscssscscscsssssssssssssssssssssssssssssssscsccssscsccsssccsssssccscsssssscsssssssssssssssccssssssssssssscsssscsssssscccssscssssssssssssscscccssscsssssssssssssscssscscccsscssssssscsssccscssscscsccscccscsssssssssssscssscccssccssssssssssssssscssccssssssssssss" />
      <path
         style="fill:#000000;stroke-width:0.145429"
         d="m -201.68393,91.754384 c -0.52872,-0.35927 -0.99984,-1.13181 -0.99984,-1.63952 0,-0.1527 0.12694,-0.41408 0.28211,-0.58062 0.15511,-0.16662 0.23886,-0.34604 0.18599,-0.3989 -0.0529,-0.0529 -0.0326,-0.1417 0.0452,-0.19727 0.0776,-0.0556 0.2394,-0.28007 0.35938,-0.49874 0.73239,-1.33486 1.37212,-2.27094 1.49856,-2.1928 0.0804,0.0496 0.10254,0.0198 0.0491,-0.0666 -0.0534,-0.0864 0.10683,-0.37458 0.35609,-0.64058 0.24921,-0.26596 0.52814,-0.6472 0.61989,-0.84715 0.0917,-0.19997 0.46128,-0.78001 0.82121,-1.28898 0.35994,-0.50896 0.7526,-1.07105 0.87258,-1.24907 0.12007,-0.17802 0.51264,-0.61791 0.87258,-0.97754 0.35993,-0.35963 0.75249,-0.84465 0.87233,-1.07781 0.1199,-0.23317 0.3012,-0.47703 0.403,-0.54194 0.10186,-0.0649 0.15133,-0.17257 0.11011,-0.23925 -0.0412,-0.0667 0.0179,-0.15683 0.13123,-0.20039 0.11336,-0.0435 0.48933,-0.4474 0.83538,-0.89748 1.46951,-1.91137 1.83539,-2.38088 2.62883,-3.3733 0.45992,-0.57526 0.83623,-1.10786 0.83623,-1.18356 0,-0.0757 0.0941,-0.17376 0.2092,-0.21792 0.11508,-0.0441 0.36047,-0.34513 0.54536,-0.66886 0.18489,-0.32373 0.44267,-0.58911 0.57286,-0.58973 0.1302,0 0.31816,-0.0993 0.41773,-0.21926 0.1369,-0.16489 0.13862,-0.21814 0.007,-0.21814 -0.11354,0 -0.0969,-0.0768 0.0481,-0.22175 0.12195,-0.12196 0.46118,-0.51395 0.75382,-0.87109 0.29265,-0.35713 0.60031,-0.60717 0.68368,-0.55563 0.0869,0.0538 0.10821,0.0235 0.05,-0.0706 -0.0926,-0.14978 0.22597,-0.56065 1.59891,-2.06212 1.09831,-1.20115 1.77275,-1.996275 2.09708,-2.472293 0.58755,-0.862374 1.92333,-2.321535 2.05229,-2.241835 0.0672,0.04157 0.0878,-0.01374 0.0459,-0.123329 -0.0419,-0.109243 0.0734,-0.368045 0.25618,-0.574887 0.18284,-0.206859 0.69239,-0.781694 1.1323,-1.277414 0.43993,-0.495703 0.95374,-1.074815 1.14181,-1.286879 0.18805,-0.212046 0.58071,-0.677243 0.87257,-1.033745 0.29185,-0.356503 0.7597,-0.880135 1.03964,-1.163619 0.27996,-0.283484 1.11161,-1.210391 1.84811,-2.059796 0.7365,-0.849405 1.55454,-1.76738 1.81786,-2.039905 0.26332,-0.272543 0.80599,-0.880633 1.20593,-1.351326 0.39992,-0.470693 0.89075,-1.027511 1.09072,-1.237376 0.19995,-0.209865 0.62533,-0.696893 0.94528,-1.082269 0.31996,-0.385377 0.64851,-0.775666 0.73015,-0.867287 0.0816,-0.09155 0.40886,-0.492748 0.72714,-0.891436 0.31831,-0.398663 0.70961,-0.863894 0.86959,-1.03384 0.15992,-0.17005 0.84712,-0.923592 1.52701,-1.674746 1.71664,-1.896583 5.17514,-5.346816 5.9626,-5.948344 0.35994,-0.274948 0.68716,-0.534917 0.72714,-0.577722 0.04,-0.04277 0.36049,-0.264504 0.7122,-0.492645 0.77166,-0.500546 1.64694,-0.596942 1.88973,-0.208147 0.09,0.144112 0.10461,0.262099 0.0325,0.262099 -0.0721,0 -0.12178,0.158026 -0.11027,0.351109 0.0155,0.261653 0.0668,0.313046 0.20116,0.201672 0.0991,-0.08228 0.1381,-0.217595 0.0866,-0.300867 -0.0548,-0.08863 -0.023,-0.10787 0.0766,-0.04621 0.32635,0.201689 -0.32055,0.988193 -3.35158,4.075002 -3.90241,3.974191 -4.31357,4.410514 -6.44577,6.84003 -0.55934,0.637324 -1.43985,1.605798 -1.95672,2.152155 -0.51686,0.546357 -1.04041,1.145978 -1.16344,1.3325 -0.12299,0.186505 -0.75963,0.919555 -1.41464,1.629004 -0.65504,0.709433 -1.40763,1.550267 -1.67245,1.868534 -0.26481,0.318267 -0.87412,1.014284 -1.35404,1.546728 -0.47991,0.532443 -1.11571,1.253676 -1.41288,1.602792 -0.29716,0.349083 -0.69064,0.798305 -0.8744,0.998276 -0.18377,0.199971 -0.85684,0.985221 -1.49571,1.745033 -0.63889,0.759794 -1.50707,1.774165 -1.92931,2.25415 -1.19885,1.362869 -1.72866,1.989083 -2.2148,2.617873 -0.24736,0.31993 -0.52825,0.6478 -0.6242,0.7286 -0.096,0.0807 -0.53071,0.57161 -0.9661,1.09072 -0.99113,1.18169 -1.35091,1.53639 -1.50688,1.48558 -0.0675,-0.022 -0.0861,0.0192 -0.0412,0.0917 0.0448,0.0725 -0.0976,0.35793 -0.31642,0.63444 -0.21879,0.2765 -0.52785,0.67695 -0.68682,0.88989 -0.15889,0.21296 -0.37552,0.38718 -0.48123,0.38718 -0.10563,0 -0.15665,0.0575 -0.11319,0.12797 0.0988,0.15974 -1.62705,2.28508 -1.81506,2.23532 -0.0756,-0.0199 -0.12333,0.012 -0.10615,0.0727 0.0464,0.16215 -0.72469,1.33329 -1.32431,2.01151 -0.56104,0.63458 -0.71922,0.83199 -1.39135,1.73619 -0.23664,0.31834 -0.47959,0.59981 -0.53986,0.62546 -0.0603,0.0256 -0.25042,0.27451 -0.42253,0.55302 -0.17213,0.2785 -0.34519,0.47413 -0.38459,0.43474 -0.10701,-0.10701 -0.45755,0.25605 -0.37646,0.38983 0.06,0.0989 -0.5645,1.05212 -0.82952,1.26621 -0.0495,0.04 -0.29798,0.36722 -0.55217,0.72716 -0.2542,0.35994 -0.64255,0.87793 -0.86298,1.15113 -0.34383,0.42609 -0.35712,0.47339 -0.0936,0.33276 0.16902,-0.0902 0.51058,-0.39547 0.75905,-0.67848 0.24848,-0.283 0.48841,-0.51456 0.53313,-0.51456 0.0447,0 1.24258,-1.16162 2.66188,-2.58136 1.41927,-1.41976 3.2007,-3.16615 3.95875,-3.88088 0.75804,-0.71472 1.51546,-1.48279 1.68318,-1.70684 0.16764,-0.22404 0.3403,-0.37198 0.38352,-0.32877 0.0433,0.0433 0.52772,-0.39058 1.07665,-0.96402 0.54893,-0.57343 1.10139,-1.14957 1.22769,-1.28034 1.01238,-1.04803 4.05638,-3.58096 3.83344,-3.18985 -0.0593,0.10392 0.11492,-0.0483 0.38691,-0.33816 0.61757,-0.65819 2.38684,-1.89507 2.52011,-1.76178 0.0544,0.0545 0.15992,0.003 0.23435,-0.11491 0.0744,-0.11766 0.13638,-0.13964 0.13758,-0.0488 0.001,0.0907 -0.16146,0.27225 -0.36134,0.40328 -0.19998,0.13105 -0.36358,0.30622 -0.36358,0.38934 0,0.16902 0.93195,-0.47518 1.81788,-1.25661 l 0.5817,-0.51311 -0.61228,0.296933 c -0.68758,0.333477 -0.76929,0.351337 -0.76929,0.168167 0,-0.0709 0.21476,-0.230776 0.47724,-0.355324 0.26247,-0.124531 0.6158,-0.344719 0.78514,-0.489227 0.16936,-0.144456 0.8217,-0.63741 1.4497,-1.095307 0.62798,-0.457914 1.31891,-0.997812 1.53539,-1.199793 0.21646,-0.201981 0.43607,-0.367238 0.48801,-0.367238 0.0519,0 0.30019,-0.164552 0.5517,-0.36576 0.2515,-0.201174 0.52272,-0.416793 0.60271,-0.479144 0.17666,-0.137758 1.78487,-1.421064 2.15982,-1.72346 0.14806,-0.119378 0.40222,-0.242792 0.56478,-0.274088 0.16249,-0.03126 0.38871,-0.189871 0.50254,-0.35238 0.11388,-0.162492 0.28146,-0.295474 0.37253,-0.295474 0.091,0 0.33276,-0.153731 0.53712,-0.341645 0.20433,-0.187913 0.99324,-0.760172 1.7531,-1.271711 0.75986,-0.51154 1.40339,-0.979519 1.43007,-1.039947 0.0266,-0.06046 0.10512,-0.109931 0.17448,-0.109931 0.0692,0 0.40744,-0.186882 0.75139,-0.415315 1.54274,-1.024556 3.57765,-2.321775 4.04295,-2.577313 0.27996,-0.153732 0.54174,-0.31454 0.58172,-0.357379 0.0593,-0.06338 1.30578,-0.822128 3.41399,-2.077883 0.15803,-0.09413 0.51273,-0.315622 0.7883,-0.492233 0.46832,-0.300162 0.51366,-0.304903 0.69474,-0.07266 0.14137,0.1813 0.17438,0.189476 0.12213,0.03023 -0.0393,-0.120065 -0.007,-0.316309 0.0723,-0.436288 0.12797,-0.193891 0.15974,-0.193891 0.28711,0 0.12316,0.187638 0.1436,0.183275 0.14549,-0.03126 0.001,-0.137242 0.14943,-0.326924 0.32943,-0.421688 0.17998,-0.09482 0.35994,-0.215018 0.39994,-0.267201 0.0953,-0.124531 1.09617,-0.588731 1.26914,-0.588731 0.0739,0 0.2837,-0.158885 0.46614,-0.353068 0.19861,-0.21141 0.42256,-0.318181 0.55821,-0.266135 0.16661,0.0639 0.19363,0.03229 0.10203,-0.11955 -0.10324,-0.171252 -0.0855,-0.174945 0.10374,-0.02164 0.18999,0.153903 0.23962,0.141536 0.29573,-0.073 0.0443,-0.169534 0.41139,-0.368655 1.07214,-0.581423 1.5643,-0.503758 3.25885,-0.522412 3.25885,-0.0359 0,0.08709 0.19183,0.334619 0.42629,0.550075 0.65682,0.603573 0.66318,1.544031 0.0172,2.511887 -0.5215,0.781042 -1.83598,2.431861 -2.58458,3.245882 -0.30202,0.328401 -0.78712,0.891488 -1.07801,1.251271 -0.2909,0.359784 -0.89468,1.042128 -1.34176,1.516326 -0.44707,0.47418 -0.83077,0.910142 -0.85268,0.968783 -0.0218,0.05857 -0.43248,0.525607 -0.9124,1.037696 -0.9836,1.049531 -1.79689,1.969344 -4.15011,4.693672 -0.89819,1.039826 -1.72252,1.942926 -1.83185,2.006875 -0.10924,0.0639 -0.19878,0.17905 -0.19878,0.255761 0,0.31679 -2.3277,2.771328 -2.51711,2.654268 -0.08,-0.0495 -0.10169,-0.0189 -0.0481,0.0678 0.10736,0.17364 -0.59225,0.99972 -0.79727,0.94145 -0.0704,-0.0201 -0.12024,0.012 -0.11062,0.0727 0.0478,0.30217 -0.0452,0.46192 -0.31904,0.54883 -0.16592,0.0527 -0.26947,0.12814 -0.22994,0.16764 0.0623,0.0624 -2.02309,2.71573 -3.03954,3.86703 -0.1954,0.22136 -0.3553,0.44373 -0.3553,0.49416 0,0.0505 -0.44702,0.68739 -0.99338,1.41544 -0.87905,1.17132 -1.73287,2.3708 -2.53497,3.5612 -0.14085,0.20912 -0.29579,0.49476 -0.34419,0.63473 -0.0484,0.13999 -0.15665,0.25451 -0.24068,0.25451 -0.084,0 -0.11319,0.0395 -0.0648,0.0879 0.0912,0.0912 1.24343,-0.80237 2.5055,-1.94318 1.14553,-1.0355 3.72262,-3.40917 4.22257,-3.88929 0.80129,-0.7695 1.87688,-1.73031 2.54473,-2.27316 0.35727,-0.29039 1.14043,-0.93746 1.74032,-1.43788 0.5999,-0.50046 1.25433,-1.01484 1.45429,-1.14311 0.19997,-0.12831 0.52622,-0.38078 0.72501,-0.56115 0.19878,-0.18037 0.72233,-0.5709 1.16343,-0.86785 0.44111,-0.29695 1.04626,-0.72719 1.34478,-0.95609 0.30313,-0.23242 0.61805,-0.36964 0.71326,-0.3108 0.10272,0.0636 0.13175,0.0426 0.0727,-0.0527 -0.0557,-0.09 0.14394,-0.30317 0.46356,-0.4951 0.3087,-0.18534 0.78431,-0.517607 1.0569,-0.738362 0.55119,-0.446388 5.01505,-3.294732 5.36393,-3.422664 0.12195,-0.04466 0.4835,-0.246194 0.80346,-0.447745 0.31995,-0.201535 1.07254,-0.62166 1.67244,-0.933589 0.5999,-0.311928 1.25433,-0.656734 1.45428,-0.766218 1.76432,-0.965966 4.35461,-1.92106 4.6743,-1.723459 0.095,0.05874 0.13106,0.04225 0.0819,-0.03727 -0.0502,-0.08125 0.40975,-0.255074 1.07317,-0.405663 2.31422,-0.525246 4.23239,-0.04535 5.74226,1.436471 0.96169,0.943877 1.29151,1.824561 1.59547,4.260063 0.2987,2.393402 0.48596,3.358856 0.67405,3.475086 0.68949,0.42614 4.51801,-0.46866 6.32441,-1.478157 0.4929,-0.275462 1.0001,-0.500838 1.12707,-0.500838 0.12693,0 0.23113,-0.04912 0.23142,-0.109072 5.8e-4,-0.106152 1.23616,-0.676779 1.52646,-0.704846 0.08,-0.0069 0.2436,-0.05136 0.36358,-0.09688 0.12006,-0.04552 0.41447,-0.116629 0.65443,-0.157854 l 0.43629,-0.07506 -0.39993,0.163694 c -0.21996,0.09001 -0.39994,0.216444 -0.39994,0.280994 0,0.06458 -0.12693,0.117317 -0.28226,0.117317 -0.15528,0 -0.32339,0.06647 -0.37363,0.14772 -0.0502,0.08124 -0.1527,0.10993 -0.22775,0.06355 -0.0751,-0.04638 -0.17568,0.01804 -0.22366,0.143082 -0.0479,0.125047 -0.21113,0.227368 -0.36254,0.227368 -0.15133,0 -0.27531,0.05393 -0.27531,0.119722 0,0.123844 -1.07009,0.697202 -1.45428,0.779118 -0.12007,0.02559 -0.25087,0.08056 -0.29088,0.122126 -0.04,0.04157 -0.26113,0.158541 -0.49142,0.259936 -0.23031,0.10135 -0.38007,0.22292 -0.33282,0.27018 0.0472,0.0472 0.39429,-0.0591 0.77119,-0.23618 0.3769,-0.177185 0.85074,-0.33978 1.053,-0.361337 0.20224,-0.02164 0.39266,-0.114053 0.42314,-0.205536 0.0306,-0.09138 0.18089,-0.166271 0.33419,-0.166271 0.15322,0 0.27875,-0.05548 0.27875,-0.123329 0,-0.06785 0.27812,-0.239288 0.61807,-0.380979 0.33994,-0.141708 0.75909,-0.322974 0.93142,-0.402828 0.17235,-0.07987 0.4014,-0.0943 0.509,-0.03195 0.1077,0.06218 0.146,0.0584 0.0852,-0.0086 -0.13312,-0.146517 2.06307,-1.257627 2.25341,-1.140001 0.0733,0.04535 0.26184,-0.05531 0.4188,-0.223864 0.15699,-0.168503 0.36284,-0.306329 0.4575,-0.306329 0.0946,0 0.0256,0.102717 -0.15356,0.228089 -0.1791,0.12539 -0.29077,0.28455 -0.24812,0.353531 0.11887,0.192362 -0.2079,0.334259 -0.40624,0.176388 -0.11938,-0.09499 -0.26839,-0.04586 -0.46628,0.15356 l -0.29085,0.293189 0.32721,-0.0797 c 0.57913,-0.141193 0.34847,0.190799 -0.34599,0.497987 -0.85155,0.376685 -1.96046,1.075725 -1.86226,1.173942 0.0411,0.04105 -0.0424,0.07042 -0.18556,0.06527 -0.35793,-0.01374 -1.06015,0.348258 -1.06015,0.545408 0,0.0888 -0.62171,0.44981 -1.38157,0.80224 -0.75987,0.35241 -1.38158,0.68849 -1.38158,0.74686 0,0.0584 -0.11456,0.0763 -0.2545,0.04 -0.13999,-0.0364 -0.3854,0.0354 -0.54536,0.1594 l -0.29086,0.22546 0.29086,-0.0962 c 0.15991,-0.0529 0.24856,-0.049 0.19688,0.009 -0.0517,0.0577 -0.86973,0.3192 -1.81787,0.58094 -2.08659,0.57602 -2.8856,0.56698 -4.10054,-0.0464 -1.05714,-0.53363 -1.67572,-1.16426 -1.90728,-1.94437 -0.1,-0.33672 -0.2346,-0.677654 -0.29924,-0.757645 -0.13106,-0.162149 -0.31282,-1.128888 -0.64919,-3.452449 -0.26047,-1.799174 -0.40817,-2.197966 -0.89646,-2.420438 -0.87204,-0.397349 -2.59826,-0.320002 -4.15811,0.186281 -0.34115,0.11079 -1.01295,0.318885 -1.49287,0.462586 -0.47991,0.143769 -0.90529,0.298067 -0.94528,0.343053 -0.0735,0.08262 -0.37931,0.233912 -1.9633,0.971085 -0.47992,0.223331 -1.46156,0.743047 -2.18144,1.154893 -2.1374,1.222861 -2.24656,1.269891 -2.48607,1.071122 -0.17057,-0.141536 -0.19482,-0.132776 -0.12659,0.045 0.10237,0.266599 -1.19298,1.227001 -3.38948,2.513212 -0.40343,0.23625 -1.1176,0.71184 -1.19665,0.79691 -0.04,0.0431 -0.629,0.43624 -1.30887,0.87376 -0.67989,0.43753 -1.26887,0.83897 -1.30886,0.89209 -0.12522,0.16627 -1.89059,1.438 -1.89059,1.36191 0,-0.0397 -0.37265,0.2858 -0.82811,0.72345 -0.45545,0.43764 -0.84926,0.77455 -0.87511,0.74868 -0.0259,-0.0259 -0.32403,0.22135 -0.66256,0.54936 -0.62786,0.60835 -2.17502,1.96251 -2.41405,2.11294 -0.0727,0.0457 -0.84303,0.74494 -1.71185,1.55376 -0.86881,0.80879 -2.39769,2.18015 -3.39752,3.04743 -0.99983,0.86729 -1.8506,1.61257 -1.89058,1.65617 -0.4058,0.44248 -1.63801,1.27155 -2.41027,1.62172 -1.22132,0.55376 -2.042,0.48508 -2.78114,-0.23273 -0.65575,-0.63688 -0.8449,-1.22138 -0.62241,-1.92343 0.23328,-0.73606 0.75012,-1.78586 0.87922,-1.78586 0.0572,0 0.14669,-0.1704 0.19894,-0.37873 0.15563,-0.62022 0.54104,-1.12685 0.68649,-0.90247 0.0824,0.12728 0.1113,0.0699 0.0867,-0.1731 -0.023,-0.22771 0.0311,-0.34998 0.14497,-0.32722 0.1,0.0201 0.18178,-0.0656 0.18178,-0.19035 0,-0.13432 0.0684,-0.18446 0.16782,-0.12299 0.10718,0.0661 0.12831,0.0397 0.0584,-0.0733 -0.0601,-0.0974 -0.018,-0.28747 0.0938,-0.42241 0.11182,-0.13501 0.32829,-0.48868 0.48113,-0.78611 0.18608,-0.36207 0.31513,-0.48222 0.39051,-0.36358 0.0764,0.12024 0.11337,0.0897 0.11474,-0.0948 0.003,-0.34192 2.16073,-3.32237 2.3298,-3.21789 0.0685,0.0424 0.17199,0 0.22986,-0.0933 0.0658,-0.10632 0.0422,-0.13123 -0.0627,-0.0665 -0.23902,0.14772 -0.20786,-0.0648 0.0495,-0.33749 0.11955,-0.12676 0.3873,-0.44321 0.59497,-0.70339 0.20768,-0.26017 0.42969,-0.44084 0.49335,-0.40148 0.0637,0.0393 0.10684,-0.0385 0.0958,-0.1729 -0.0103,-0.1345 0.12693,-0.31954 0.30641,-0.41135 0.1795,-0.0917 0.28471,-0.20858 0.23379,-0.25949 -0.13123,-0.13123 0.24498,-0.54981 0.40524,-0.45077 0.0728,0.045 0.11456,0.0252 0.0926,-0.044 -0.022,-0.0692 0.1993,-0.38491 0.49172,-0.7016 1.23679,-1.33937 1.43162,-1.57121 1.43162,-1.70362 0,-0.0766 0.10152,-0.10048 0.22569,-0.0527 0.13295,0.051 0.18812,0.0258 0.13415,-0.0615 -0.10993,-0.17795 0.73365,-1.178886 0.8747,-1.037831 0.0543,0.05428 0.0768,0.02336 0.05,-0.06871 -0.0514,-0.17723 0.62569,-1.02557 1.83555,-2.299961 0.40353,-0.425038 0.86459,-0.953926 1.02456,-1.175265 0.25847,-0.357636 0.54995,-0.692444 1.78151,-2.046363 0.17998,-0.197842 0.32722,-0.38694 0.32722,-0.420194 0,-0.03332 0.24542,-0.311723 0.54536,-0.618825 0.29996,-0.307068 0.77441,-0.84573 1.05436,-1.196976 0.27996,-0.351264 0.61123,-0.740625 0.73619,-0.865225 0.12488,-0.124703 0.47587,-0.536755 0.77981,-0.915879 0.30394,-0.37909 0.62083,-0.647115 0.70421,-0.595585 0.0833,0.05153 0.10907,0.02491 0.057,-0.05926 -0.0521,-0.08417 0.19198,-0.470573 0.54218,-0.858698 0.35021,-0.388107 0.94745,-1.065608 1.32719,-1.505538 0.37976,-0.43993 0.86342,-0.996197 1.07482,-1.236156 0.57303,-0.65043 1.07311,-1.388977 0.99403,-1.468058 -0.10409,-0.104091 -4.47031,2.120996 -4.47031,2.27818 0,0.07438 -0.0649,0.135353 -0.14428,0.135353 -0.18709,0 -3.79554,2.035749 -4.04728,2.283316 -0.10564,0.103919 -0.28567,0.188978 -0.39993,0.188978 -0.11422,0 -0.20775,0.0493 -0.20775,0.109416 0,0.109587 -1.68263,1.189951 -3.09861,1.989458 -0.4154,0.234547 -0.84397,0.514906 -0.95238,0.623016 -0.10838,0.108041 -0.32069,0.157338 -0.47174,0.109415 -0.20672,-0.06561 -0.25313,-0.03126 -0.18772,0.139303 0.0543,0.141193 -0.0137,0.26514 -0.18271,0.329381 -0.14823,0.05668 -0.33503,0.157682 -0.41502,0.224499 -0.08,0.06682 -0.43992,0.313527 -0.79985,0.548212 -1.08595,0.70799 -3.2312,2.209989 -4.21024,2.947797 -0.50671,0.381856 -0.94666,0.668913 -0.97768,0.637892 -0.0311,-0.03109 -0.36442,0.226457 -0.7409,0.572121 -0.37649,0.345699 -0.84897,0.712267 -1.04996,0.814606 -0.20098,0.102373 -0.72535,0.490154 -1.16528,0.861789 -0.43992,0.371618 -0.94711,0.720426 -1.12707,0.775099 -0.17998,0.05462 -0.32722,0.186711 -0.32722,0.293395 0,0.106668 -0.2127,0.329808 -0.47265,0.495848 -0.25995,0.1661 -0.60354,0.38517 -0.7635,0.48702 -0.15992,0.10185 -0.32555,0.23116 -0.36798,0.28743 -0.15304,0.20293 -1.38119,0.98318 -1.55172,0.98577 -0.096,0.001 -0.22785,0.0845 -0.29297,0.18444 -0.18934,0.29073 -1.26106,1.22253 -1.12904,0.98165 0.13758,-0.25092 -0.24487,0.0611 -1.20933,0.98702 -0.35719,0.34288 -0.68095,0.59193 -0.71946,0.55343 -0.0385,-0.0385 -0.23232,0.12282 -0.43067,0.35859 -0.19836,0.23573 -0.40764,0.39958 -0.46506,0.36409 -0.0574,-0.0356 -0.29689,0.13072 -0.53212,0.36933 -0.23524,0.23864 -0.8185,0.80739 -1.29615,1.26393 -0.47765,0.45654 -1.10522,1.05912 -1.39458,1.33907 -0.28938,0.27996 -1.26551,1.19616 -2.16918,2.03602 -1.77684,1.65139 -9.4483,9.33325 -11.92858,11.94477 -2.45356,2.58337 -3.23108,3.26738 -3.5148,3.09204 -0.0555,-0.0344 -0.14188,0.003 -0.19219,0.0855 -0.16559,0.26781 -1.01537,0.15408 -1.54665,-0.20689 z m 13.90274,-14.4064 c 1.42468,-1.35976 3.1147,-2.97708 3.7556,-3.59403 0.6409,-0.61697 1.23067,-1.08133 1.31065,-1.03191 0.0821,0.0507 0.10014,0.0172 0.0416,-0.078 -0.16284,-0.26341 -0.28703,-0.20746 -0.89326,0.40241 -0.31179,0.31367 -0.61779,0.53887 -0.67999,0.50041 -0.0622,-0.0385 -0.11302,0.018 -0.11302,0.12556 0,0.10753 -0.24543,0.40087 -0.54536,0.65193 -1.61036,1.34784 -7.1624,6.82898 -7.1624,7.07091 0,0.0898 0.38156,-0.2278 0.84795,-0.70581 0.46636,-0.47801 2.01359,-1.98166 3.43827,-3.34142 z m 7.64174,-5.09335 c 0.15373,-0.18518 0.14463,-0.20647 -0.055,-0.12986 -0.13123,0.0503 -0.23871,0.15013 -0.23871,0.22148 0,0.187 0.0842,0.16077 0.29362,-0.0915 z m 15.80058,-0.86286 c 0,-0.11646 -0.0557,-0.17738 -0.1235,-0.13535 -0.068,0.0421 -0.0859,0.13724 -0.0398,0.21176 0.11766,0.19028 0.16352,0.16884 0.16352,-0.0764 z m -9.78215,-5.678135 c 0.15012,-0.199971 0.34628,-0.363579 0.43582,-0.363579 0.0895,0 0.24881,-0.137757 0.35393,-0.306072 0.15837,-0.253511 0.15802,-0.286782 -0.001,-0.193736 -0.45492,0.265432 -1.28324,0.971446 -1.28324,1.093744 0,0.240629 0.21703,0.139647 0.49485,-0.230357 z m 3.14088,-0.509014 c 0,-0.08004 -0.0694,-0.145487 -0.15408,-0.145487 -0.0847,0 -0.11354,0.06544 -0.0641,0.145487 0.0495,0.08004 0.11869,0.145487 0.15408,0.145487 0.0352,0 0.0641,-0.06544 0.0641,-0.145487 z m -1.74516,-0.581706 c 0,-0.08004 -0.0288,-0.145487 -0.0641,-0.145487 -0.0352,0 -0.10461,0.06544 -0.15408,0.145487 -0.0495,0.08004 -0.0206,0.145486 0.0641,0.145486 0.0847,0 0.15407,-0.06544 0.15407,-0.145486 z m 57.44462,0.08125 c 0,-0.15356 -0.2791,-0.217973 -0.36212,-0.08365 -0.0503,0.08125 0.0103,0.147891 0.13536,0.147891 0.1247,0 0.22673,-0.02886 0.22673,-0.06407 z m -56.60055,-0.795608 c 0.0864,-0.259197 -0.52238,0.133291 -0.62613,0.403738 -0.0654,0.170737 -0.0251,0.169191 0.24372,-0.0086 0.17725,-0.117661 0.34933,-0.295165 0.38241,-0.394429 z m 2.57736,-0.1302 c -0.0448,-0.04483 -0.16215,-8.6e-5 -0.26077,0.09928 -0.14257,0.143597 -0.12591,0.160258 0.0814,0.08142 0.14343,-0.05462 0.22414,-0.135867 0.17938,-0.180716 z m -2.04485,-0.297139 c -0.0819,-0.08623 -0.35858,0.132432 -0.35858,0.283381 0,0.0785 0.0915,0.05823 0.20347,-0.045 0.11182,-0.10306 0.18172,-0.210432 0.15511,-0.23843 z m 0.61585,-0.352501 c 0.0639,-0.101858 0.29627,-0.29975 0.51623,-0.439655 0.21995,-0.139818 0.39993,-0.320861 0.39993,-0.402158 0,-0.161804 -0.049,-0.12934 -0.87258,0.58016 -0.27995,0.24111 -0.43045,0.440325 -0.33445,0.442661 0.096,0.0017 0.22691,-0.07918 0.29087,-0.181008 z m 1.96823,-1.571737 0.47494,-0.44814 -0.48384,0.266359 c -0.55596,0.306054 -0.87831,0.629921 -0.62698,0.629921 0.0885,0 0.37466,-0.201654 0.63588,-0.44814 z m 3.22311,-0.400183 c 0.0412,-0.06664 -0.0175,-0.121267 -0.13055,-0.121267 -0.11302,0 -0.17159,0.05445 -0.13037,0.121267 0.0412,0.06665 0.1,0.121096 0.13037,0.121096 0.0306,0 0.0893,-0.05462 0.13055,-0.121096 z m -1.98754,-0.595877 c -0.012,-0.154418 -0.0701,-0.250505 -0.13003,-0.213506 -0.0599,0.03693 -0.072,0.16335 -0.027,0.280787 0.11354,0.296075 0.18216,0.266686 0.15699,-0.06733 z m 0.83288,-0.436323 c 0.046,-0.07455 0.0172,-0.17649 -0.0641,-0.226732 -0.0812,-0.05016 -0.14789,0.01031 -0.14789,0.135352 0,0.255452 0.0873,0.293052 0.21193,0.09138 z m 2.76937,-0.155449 c 0.0495,-0.08004 0.0206,-0.145486 -0.0641,-0.145486 -0.0847,0 -0.15407,0.06544 -0.15407,0.145486 0,0.08004 0.0288,0.145487 0.0641,0.145487 0.0352,0 0.10461,-0.06544 0.15408,-0.145487 z m -1.67466,-0.763504 c -0.002,-0.26459 -0.0292,-0.285477 -0.14325,-0.109072 -0.18223,0.281955 -0.18223,0.436288 0,0.436288 0.08,0 0.14445,-0.147204 0.14325,-0.327216 z m 0.48194,-0.20564 c -0.0541,-0.140849 -0.0335,-0.205261 0.0495,-0.154075 0.0782,0.04827 0.32928,-0.06115 0.55788,-0.24348 0.28486,-0.227144 0.36113,-0.36509 0.24244,-0.438435 -0.10341,-0.0639 -0.157,-0.03212 -0.13329,0.07901 0.022,0.102373 -0.0419,0.197137 -0.14188,0.210758 -0.1,0.01374 -0.24257,0.03298 -0.31685,0.04294 -0.0742,0.01031 -0.2427,0.125905 -0.37431,0.257461 -0.19327,0.193273 -0.20226,0.262735 -0.0467,0.361347 0.26212,0.16627 0.26936,0.161117 0.16318,-0.115428 z m 1.48357,-1.066862 c 0.0495,-0.08004 0.0244,-0.145487 -0.0555,-0.145487 -0.08,0 -0.18587,0.06544 -0.2353,0.145487 -0.0495,0.08004 -0.0244,0.145487 0.0555,0.145487 0.08,0 0.18587,-0.06544 0.2353,-0.145487 z m 1.74516,-1.163447 c 0.0495,-0.08004 0.0206,-0.145487 -0.0641,-0.145487 -0.0847,0 -0.15408,0.06544 -0.15408,0.145487 0,0.08004 0.0289,0.145487 0.0641,0.145487 0.0352,0 0.10461,-0.06544 0.15408,-0.145487 z m 2.61773,-1.599701 c 0.0495,-0.08004 0.0244,-0.145486 -0.0555,-0.145486 -0.08,0 -0.18586,0.06544 -0.2353,0.145486 -0.0495,0.08004 -0.0244,0.145487 0.0555,0.145487 0.0801,0 0.18587,-0.06544 0.23531,-0.145487 z m 0.7635,-0.428078 c 0.45972,-0.383504 0.40686,-0.49316 -0.10907,-0.226354 -0.23996,0.124016 -0.43629,0.289376 -0.43629,0.367306 0,0.21093 0.17903,0.164725 0.54536,-0.14102 z m 3.55091,-2.15693 c 0.0266,-0.06201 0.27752,-0.257221 0.55748,-0.433849 0.27995,-0.176611 0.42394,-0.322218 0.31999,-0.323575 -0.26743,-0.0034 -0.96052,0.372391 -1.18461,0.642409 -0.15768,0.189906 -0.15184,0.227729 0.0349,0.227729 0.12315,0 0.24564,-0.05067 0.2723,-0.11268 z m 42.30783,10.385259 c 0.0333,-0.0292 0.22421,-0.130887 0.42418,-0.226166 0.34281,-0.16335 0.34745,-0.160258 0.0812,0.05308 -0.23166,0.185612 -0.70502,0.34776 -0.50544,0.173159 z"
         id="path921-0"
         sodipodi:nodetypes="cscscsssssssssssccsssscssssssssscsssssssssssscssssssccscsssssssssssscsssscscscssssssssssssssssscssscsssscssssssssssssssssssssssssscsscssscssssscssscssssssccsssssssssssssssssscssssscssssssssccsccssscsssssssscccssssccsssssscccsscssscscscsssssssssssssssssssssssssssssssscsccssscsccsssccsssssccscsssssscsssssssssssssssccssssssssssssscsssscsssssscccssscssssssssssssscscccssscsssssssssssssscssscscccsscssssssscsssccscssscscsccscccscsssssssssssscssscccssccssssssssssssssscssccssssssssssss" />
    </g>
  </g>
</svg>
