<?xml version="1.0" encoding="UTF-8" standalone="no"?>
<!-- Created with Inkscape (http://www.inkscape.org/) -->

<svg
   width="114.25784mm"
   height="108.81557mm"
   viewBox="0 0 114.25784 108.81557"
   version="1.1"
   id="svg5"
   inkscape:version="1.1.1 (c3084ef, 2021-09-22)"
   sodipodi:docname="signature copy 5.svg"
   xmlns:inkscape="http://www.inkscape.org/namespaces/inkscape"
   xmlns:sodipodi="http://sodipodi.sourceforge.net/DTD/sodipodi-0.dtd"
   xmlns="http://www.w3.org/2000/svg"
   xmlns:svg="http://www.w3.org/2000/svg">
  <sodipodi:namedview
     id="namedview7"
     pagecolor="#ffffff"
     bordercolor="#666666"
     borderopacity="1.0"
     inkscape:pageshadow="2"
     inkscape:pageopacity="0.0"
     inkscape:pagecheckerboard="0"
     inkscape:document-units="mm"
     showgrid="false"
     inkscape:zoom="0.51580387"
     inkscape:cx="-428.45743"
     inkscape:cy="16.479132"
     inkscape:window-width="2560"
     inkscape:window-height="1387"
     inkscape:window-x="0"
     inkscape:window-y="25"
     inkscape:window-maximized="1"
     inkscape:current-layer="layer1" />
  <defs
     id="defs2" />
  <g
     inkscape:label="Layer 1"
     inkscape:groupmode="layer"
     id="layer1"
     transform="translate(-66.574948,-105.13235)">
    <path
       style="fill:#000000;stroke-width:0.239046"
       d="m 125.50843,213.91254 c -0.0657,-0.0644 -1.51794,-0.1886 -3.22712,-0.27641 -3.95622,-0.203 -9.51378,-0.97737 -13.98372,-1.94838 -5.04626,-1.09618 -14.332862,-4.56246 -13.937463,-5.20224 0.0825,-0.13355 0.02456,-0.1615 -0.132924,-0.0641 -0.508789,0.31447 -5.573349,-2.35594 -10.073682,-5.3115 -1.11754,-0.73397 -2.45425,-1.60936 -2.970467,-1.94531 -1.504043,-0.97884 -4.736907,-4.29842 -4.581229,-4.70411 0.07468,-0.19453 0.04509,-0.29784 -0.06576,-0.22926 -0.286903,0.17731 -1.721505,-1.55444 -3.024965,-3.65153 -0.134166,-0.2157 -0.558074,-0.87651 -0.942024,-1.46815 -2.208103,-3.40251 -4.918916,-10.33643 -5.233463,-13.38656 -0.07456,-0.72312 -0.185524,-1.58368 -0.246565,-1.91238 -0.936226,-5.04179 -0.555437,-15.72281 0.830914,-23.30696 0.737618,-4.03517 2.755933,-11.4386 3.066372,-11.24777 0.07654,0.0471 0.16288,-0.24111 0.191848,-0.64059 0.07962,-1.09759 3.910849,-8.65418 4.190363,-8.26492 0.165958,0.23095 0.190465,0.20638 0.09416,-0.0946 -0.119457,-0.37336 2.016302,-3.90885 3.48913,-5.77583 2.913543,-3.69329 5.659611,-6.64671 5.990113,-6.44244 0.132896,0.0822 0.168866,0.0316 0.07999,-0.11209 -0.203707,-0.3296 0.681675,-1.16664 2.911481,-2.75248 0.96141,-0.68373 2.418857,-1.74134 3.23877,-2.35023 0.819917,-0.60889 2.06633,-1.41567 2.769808,-1.79284 3.08386,-1.65348 4.217671,-2.20944 4.535439,-2.224 0.186851,-0.008 0.509571,-0.15896 0.717137,-0.33446 0.878647,-0.74235 7.186797,-2.50713 10.846007,-3.03428 3.20566,-0.46182 12.29715,-0.38542 13.8506,0.11632 0.16638,0.0536 0.88788,0.16178 1.60334,0.23999 1.82903,0.19989 2.40091,0.3667 3.39405,0.98962 0.47859,0.30018 0.93576,0.48017 1.01594,0.39999 0.0802,-0.0802 0.1458,-0.003 0.1458,0.17025 0,0.23067 0.12019,0.20723 0.44546,-0.0872 0.60251,-0.54528 7.0992,-0.70437 7.42258,-0.18182 0.11277,0.18211 0.24075,0.21994 0.29034,0.0855 0.0985,-0.2671 2.63858,0.1917 4.33535,0.78281 0.55679,0.19396 1.15568,0.35422 1.33086,0.35614 0.43471,0.006 3.46067,1.34423 5.01958,2.22196 0.94441,0.53179 1.19195,0.77471 0.95618,0.93852 -0.22666,0.15755 -0.18066,0.18409 0.15998,0.0929 0.71262,-0.19086 4.27779,2.56696 7.47018,5.77846 1.47909,1.48798 2.68926,2.75093 2.68926,2.80658 0,0.10446 1.22414,1.48555 2.54582,2.87236 2.01691,2.11629 4.94952,6.0442 5.57286,7.46418 0.12988,0.29584 0.3361,0.53786 0.45835,0.53786 1.01856,0 9.11236,17.71671 9.11236,19.94624 0,0.20498 0.087,0.37266 0.1934,0.37266 0.19086,0 1.16978,2.99656 1.38938,4.25291 0.0624,0.35614 0.20696,1.02401 0.32142,1.48419 0.70155,2.81874 1.05012,6.60003 1.06879,11.59371 0.0141,3.72039 -0.42523,8.24629 -0.80023,8.24756 -0.0774,0 -0.16912,0.40366 -0.20385,0.89642 -0.2899,4.12114 -3.67129,10.77578 -8.35157,16.43614 -0.368,0.44507 -0.98632,1.21831 -1.37403,1.71827 -0.71434,0.92124 -3.37732,3.31914 -4.22241,3.8021 -0.25354,0.14484 -1.2926,0.97144 -2.30879,1.83667 -3.13597,2.67003 -5.33065,4.17814 -7.94331,5.45837 -1.38049,0.67645 -2.70385,1.32764 -2.9408,1.44709 -0.23693,0.11943 -1.91806,0.8008 -3.73581,1.51407 -4.78077,1.87599 -10.09266,3.17957 -14.59846,3.58261 -2.27689,0.20356 -8.7198,0.42229 -8.8447,0.30012 z m 9.68135,-3.91986 c 7.50197,-1.12709 16.98876,-4.81233 21.89634,-8.5059 0.97936,-0.73707 2.09613,-1.48337 2.48169,-1.65845 1.16415,-0.52856 4.77481,-3.89606 6.74897,-6.29443 0.5411,-0.6574 1.48394,-1.78689 2.0952,-2.50998 1.27286,-1.50585 3.14066,-4.26979 3.46905,-5.13352 0.12253,-0.32212 0.48593,-0.9931 0.80771,-1.49105 0.65988,-1.02119 2.05595,-5.07674 2.61575,-7.59867 0.35029,-1.57818 0.42712,-2.07662 0.77366,-5.01996 0.0774,-0.65739 0.13862,-2.6291 0.13608,-4.38162 -0.003,-2.86988 -0.0934,-4.17287 -0.4132,-6.01687 -0.057,-0.3287 -0.16488,-1.02791 -0.23998,-1.55382 -0.25157,-1.76379 -1.86693,-7.64265 -2.49621,-9.08373 -0.42873,-0.9818 -2.17592,-5.76364 -2.35825,-6.45423 -0.25834,-0.97827 -3.00376,-6.5879 -4.12608,-8.43057 -0.50191,-0.82403 -0.91257,-1.60729 -0.91257,-1.74059 0,-0.13326 -0.16122,-0.30427 -0.35857,-0.37994 -0.19735,-0.0757 -0.35857,-0.22841 -0.35857,-0.33908 0,-0.45352 -5.61118,-8.09922 -6.2203,-8.47569 -0.13295,-0.0822 -0.16957,-0.26625 -0.0814,-0.40886 0.0882,-0.14258 0.0547,-0.19424 -0.0745,-0.11434 -0.12917,0.0799 -1.16164,-0.84478 -2.29438,-2.05471 -3.51741,-3.75713 -4.76366,-4.9175 -6.9636,-6.48383 -4.30541,-3.06542 -9.31683,-5.08032 -13.64895,-5.48779 -7.79927,-0.7336 -8.00621,-0.76418 -8.0117,-1.18359 -0.009,-0.71022 -0.53075,-0.90918 -3.36121,-1.28243 -1.88819,-0.24903 -4.75464,-0.39528 -7.87028,-0.40157 -4.20166,-0.008 -5.29243,0.0692 -7.64946,0.54443 -6.74618,1.36033 -10.789601,3.23353 -17.529173,8.12076 -3.961473,2.8727 -8.267543,7.65459 -11.331532,12.58373 -3.54653,5.70545 -5.735075,10.70113 -6.962323,15.89261 -0.934077,3.95131 -1.246099,5.3988 -1.597409,7.41043 -0.218134,1.249 -0.441087,2.75499 -0.495468,3.34663 -0.05438,0.59164 -0.208168,1.93627 -0.341767,2.98806 -0.133602,1.05182 -0.274884,3.90351 -0.313991,6.33715 -0.08253,5.1366 0.328712,8.61245 1.512836,12.78653 1.341154,4.7276 1.8521,6.00543 3.70171,9.25765 0.353489,0.62154 0.564458,1.25671 0.468819,1.41144 -0.106837,0.17279 -0.07092,0.21768 0.09306,0.11632 0.157064,-0.0971 0.540405,0.25664 0.931271,0.85949 0.770874,1.18878 3.965027,5.0157 5.552579,6.65255 1.632877,1.68358 3.402758,2.77346 9.458661,5.82445 3.023931,1.52347 5.656765,2.90458 5.850745,3.06915 0.193994,0.16461 0.386921,0.2606 0.428752,0.21317 0.07146,-0.0807 3.13597,1.06184 4.71661,1.75843 2.19035,0.96531 12.52109,3.06172 16.61368,3.37142 1.11754,0.0844 3.05381,0.23801 4.30282,0.34075 2.95324,0.24309 8.33495,0.0536 11.35467,-0.40013 z"
       id="path836"
       sodipodi:nodetypes="scsscssscssssssssssscsssscsssssscssscsssssssssscccccsssssssssscsssssssscscssssssssssssssssssssssssssssssscscccc" />
  </g>
</svg>
