<?xml version="1.0" encoding="UTF-8" standalone="no"?>
<!-- Created with Inkscape (http://www.inkscape.org/) -->

<svg
   width="127.86819mm"
   height="12.784978mm"
   viewBox="0 0 127.86819 12.784978"
   version="1.1"
   id="svg5"
   inkscape:version="1.1.1 (c3084ef, 2021-09-22)"
   sodipodi:docname="signature copy 6.svg"
   xmlns:inkscape="http://www.inkscape.org/namespaces/inkscape"
   xmlns:sodipodi="http://sodipodi.sourceforge.net/DTD/sodipodi-0.dtd"
   xmlns="http://www.w3.org/2000/svg"
   xmlns:svg="http://www.w3.org/2000/svg">
  <sodipodi:namedview
     id="namedview7"
     pagecolor="#ffffff"
     bordercolor="#666666"
     borderopacity="1.0"
     inkscape:pageshadow="2"
     inkscape:pageopacity="0.0"
     inkscape:pagecheckerboard="0"
     inkscape:document-units="mm"
     showgrid="false"
     inkscape:zoom="0.51580387"
     inkscape:cx="-141.52666"
     inkscape:cy="6.7855249"
     inkscape:window-width="2560"
     inkscape:window-height="1387"
     inkscape:window-x="0"
     inkscape:window-y="25"
     inkscape:window-maximized="1"
     inkscape:current-layer="layer1" />
  <defs
     id="defs2" />
  <g
     inkscape:label="Layer 1"
     inkscape:groupmode="layer"
     id="layer1"
     transform="translate(9.07909,-107.94306)">
    <path
       style="fill:#000000;stroke-width:0.164529"
       d="m -7.8457522,120.62292 c -0.1821419,-0.0935 -0.5153198,-0.43879 -0.7403825,-0.76724 -0.5321678,-0.77664 -0.6556387,-2.68714 -0.2613219,-4.04354 0.1448895,-0.49841 0.2634401,-1.09404 0.2634401,-1.32361 0,-0.2296 0.081131,-0.46757 0.1802957,-0.52886 0.1109019,-0.0686 0.1426937,-0.37305 0.082569,-0.79122 -0.053751,-0.37388 -0.031695,-0.78249 0.049009,-0.90801 0.1219591,-0.18966 1.3370063,-0.22213 7.1978601,-0.19238 3.8781194,0.0196 7.3102603,0.0655 7.6269807,0.10163 0.8769179,0.10028 7.703349,0.0703 10.118558,-0.0443 1.176386,-0.0558 2.731189,-0.12107 3.455118,-0.14497 0.723931,-0.0239 1.945562,-0.0896 2.714736,-0.14594 4.374189,-0.32079 6.453902,-0.44118 11.270267,-0.65243 1.176384,-0.0517 2.657149,-0.12631 3.290588,-0.16595 0.633438,-0.0396 2.077182,-0.12321 3.208323,-0.18559 1.13114,-0.0624 2.38979,-0.13408 2.797,-0.15954 0.40721,-0.0253 1.628841,-0.0904 2.714736,-0.14438 1.085894,-0.054 2.640697,-0.13603 3.455118,-0.18189 0.81442,-0.0459 2.073071,-0.1164 2.796999,-0.15663 2.387957,-0.13292 8.833735,-0.39909 11.846119,-0.48923 1.628842,-0.0488 3.331721,-0.12398 3.784177,-0.16712 0.452455,-0.0431 2.414468,-0.12301 4.36003,-0.17762 1.94556,-0.0546 4.46286,-0.12534 5.594,-0.15721 1.131141,-0.0319 2.722963,-0.0991 3.537382,-0.14943 0.814415,-0.0503 2.70239,-0.13253 4.195494,-0.18267 1.493105,-0.0501 3.010889,-0.12301 3.37286,-0.16207 0.599185,-0.0647 1.771049,-0.1164 7.486083,-0.33096 1.040655,-0.0391 2.669496,-0.10785 3.619654,-0.15293 5.68713,-0.26996 14.61783,-0.36708 16.20614,-0.17625 0.27147,0.0326 0.67868,0.067 0.90491,0.0764 0.22624,0.01 0.58971,0.1541 0.80774,0.32178 0.326,0.25062 0.40501,0.47643 0.44483,1.27144 0.0266,0.53167 0.11601,1.28173 0.19864,1.66679 0.26887,1.25325 -0.47429,5.85411 -0.99246,6.14411 -0.29815,0.16692 -1.11687,-0.12029 -1.11687,-0.39186 0,-0.0871 -0.11057,-0.0665 -0.24553,0.0455 -0.17625,0.14633 -0.51302,0.16654 -1.19285,0.0721 -0.52101,-0.0725 -1.44606,-0.11484 -2.0557,-0.0944 -0.6096,0.0204 -1.26638,-0.0474 -1.45949,-0.1506 -0.19316,-0.10338 -0.3122,-0.12495 -0.26469,-0.0482 0.0474,0.0769 -1.25772,0.15546 -2.90053,0.1745 -2.7428,0.0319 -6.52607,0.13856 -10.473029,0.29544 -0.85966,0.0342 -2.96975,0.10318 -4.689089,0.15351 -1.719339,0.0503 -4.088563,0.12709 -5.264935,0.17082 -1.176392,0.0437 -5.229743,0.0995 -9.007452,0.12378 -3.777711,0.0243 -6.869201,0.0812 -6.869974,0.12651 -8.22e-4,0.0453 -0.648847,0.0909 -1.440166,0.10144 -2.147764,0.0286 -7.286213,0.22806 -7.887963,0.3061 -0.435881,0.0566 -0.510837,0.0204 -0.436934,-0.21081 0.06415,-0.20062 0.04677,-0.22015 -0.0618,-0.0696 -0.20852,0.28932 -0.488639,0.32803 -3.799182,0.52492 -1.599852,0.0952 -3.05702,0.20167 -3.238155,0.23669 -0.181131,0.035 -1.159285,0.11212 -2.173673,0.1712 -1.014387,0.0591 -2.235891,0.13525 -2.714458,0.16926 -2.299317,0.16343 -4.663939,0.25876 -8.356211,0.33673 -5.651034,0.11931 -9.747634,0.22761 -12.339707,0.32615 -1.221631,0.0464 -3.36874,0.12282 -4.771353,0.16965 -1.402613,0.0468 -2.883378,0.12378 -3.290588,0.1712 -4.014373,0.46627 -10.094398,0.57083 -17.6869147,0.3042 -5.9849368,-0.2102 -7.6761705,-0.18345 -10.7766764,0.17101 -0.4072104,0.0464 -0.8894112,0.008 -1.0715588,-0.0855 z m 22.5426472,-2.36748 c 2.476731,-0.10785 3.534017,-0.18247 7.239297,-0.51078 2.019364,-0.17898 2.866193,-0.21493 7.486088,-0.3185 2.488507,-0.0558 5.153884,-0.13176 5.92306,-0.16868 0.769173,-0.0369 3.397531,-0.11387 5.840793,-0.17062 4.902993,-0.11407 6.988355,-0.18733 8.720059,-0.30655 0.633439,-0.0435 1.929108,-0.1267 2.879266,-0.1848 0.950157,-0.0581 2.09775,-0.12903 2.550205,-0.1576 0.452456,-0.0288 1.488991,-0.13545 2.303412,-0.23735 0.81442,-0.10183 2.11009,-0.22355 2.879265,-0.27039 0.769176,-0.0468 1.524518,-0.11057 1.678539,-0.14166 0.154023,-0.0311 0.308566,0.0282 0.343434,0.13156 0.04738,0.14069 0.122095,0.14089 0.295815,0.002 0.246392,-0.19827 4.064266,-0.38519 9.69286,-0.47454 9.069626,-0.144 15.356025,-0.26817 16.535215,-0.32672 0.723923,-0.0359 2.53786,-0.10941 4.030965,-0.16343 1.493104,-0.054 3.418099,-0.12942 4.277758,-0.1679 0.85968,-0.0383 3.821214,-0.11232 6.581184,-0.1644 2.75997,-0.0521 5.66639,-0.12048 6.45872,-0.15196 0.79404,-0.0317 1.48362,0.0117 1.53654,0.0979 0.0587,0.0948 0.17042,0.0964 0.287,0.004 0.28634,-0.22668 3.07167,-0.23295 3.3433,-0.008 0.12573,0.10436 0.27021,0.14788 0.32118,0.097 0.34064,-0.34063 0.71565,-3.95028 0.4288,-4.12756 -0.49901,-0.30842 -14.97766,-0.12651 -24.386195,0.30622 -0.85966,0.0396 -2.636577,0.11329 -3.948706,0.16362 -1.312109,0.0505 -3.274123,0.13117 -4.360017,0.17956 -1.085894,0.0482 -2.973877,0.11834 -4.195508,0.15565 -3.517689,0.10746 -7.501678,0.24557 -9.378178,0.32503 -6.78426,0.28723 -10.810186,0.428 -13.103597,0.4582 -1.46079,0.0194 -2.620837,0.0933 -2.577884,0.1644 0.04295,0.0711 -0.168577,0.11757 -0.470078,0.1028 -0.637299,-0.0309 -3.485453,0.11737 -6.877525,0.3581 -1.309352,0.0929 -2.605022,0.15333 -2.879264,0.13428 -0.274243,-0.0194 -0.905834,0.0117 -1.403536,0.067 -0.833127,0.0937 -2.814398,0.21479 -5.923058,0.36201 -3.925445,0.18577 -9.664888,0.53402 -13.244619,0.8034 -3.102601,0.23344 -4.361737,0.29036 -7.033035,0.31794 -1.5154,0.0155 -2.75554,0.0678 -2.755869,0.11601 -3.28e-4,0.0482 -0.352278,0.0659 -0.782112,0.0392 -0.429833,-0.0264 -4.9679892,-0.0659 -10.0847936,-0.0876 l -9.3032804,-0.0392 0.00311,1.15171 c 0.00171,0.63344 -0.032006,1.44206 -0.074893,1.79693 -0.091217,0.75457 -0.2774394,0.7215 2.801269,0.49767 1.0406493,-0.0756 1.9323671,-0.12825 1.9815957,-0.11679 0.5694182,0.13195 6.211865,0.38038 9.3423205,0.41124 2.2012988,0.0218 4.0892738,0.0942 4.1955008,0.16109 0.106218,0.0669 0.3042,0.0906 0.439936,0.0527 0.135737,-0.0379 1.209292,-0.11096 2.385678,-0.16206 z"
       id="path836"
       sodipodi:nodetypes="csssssscccsccsscsscsssssssscsccssssccscccssssscssccsssssscsccccsssccsccssccssscscccccscccsscscscccscscccsscccsscc" />
  </g>
</svg>
