<?xml version="1.0" encoding="UTF-8" standalone="no"?>
<!-- Created with Inkscape (http://www.inkscape.org/) -->

<svg
   width="73.830879mm"
   height="79.490494mm"
   viewBox="0 0 73.830879 79.490494"
   version="1.1"
   id="svg5"
   inkscape:version="1.1.1 (c3084ef, 2021-09-22)"
   sodipodi:docname="signature copy 8.svg"
   xmlns:inkscape="http://www.inkscape.org/namespaces/inkscape"
   xmlns:sodipodi="http://sodipodi.sourceforge.net/DTD/sodipodi-0.dtd"
   xmlns="http://www.w3.org/2000/svg"
   xmlns:svg="http://www.w3.org/2000/svg">
  <sodipodi:namedview
     id="namedview7"
     pagecolor="#ffffff"
     bordercolor="#666666"
     borderopacity="1.0"
     inkscape:pageshadow="2"
     inkscape:pageopacity="0.0"
     inkscape:pagecheckerboard="0"
     inkscape:document-units="mm"
     showgrid="false"
     inkscape:zoom="0.51580387"
     inkscape:cx="-449.78336"
     inkscape:cy="175.45429"
     inkscape:window-width="2560"
     inkscape:window-height="1387"
     inkscape:window-x="0"
     inkscape:window-y="25"
     inkscape:window-maximized="1"
     inkscape:current-layer="layer1" />
  <defs
     id="defs2" />
  <g
     inkscape:label="Layer 1"
     inkscape:groupmode="layer"
     id="layer1"
     transform="translate(-72.421365,-63.053137)">
    <path
       style="fill:#000000;stroke-width:0.364799"
       d="m 76.094702,142.34932 c -1.325767,-0.41966 -1.679585,-0.97155 -1.428387,-2.22752 0.162523,-0.81253 0.0181,-1.06777 -0.836235,-1.47722 -2.172667,-1.04136 -2.037492,-1.7301 1.858695,-9.47085 1.958208,-3.89045 3.828593,-7.37809 4.1564,-7.75027 0.327802,-0.37227 0.559474,-0.73984 0.514802,-0.81696 -0.179757,-0.31066 0.359599,-1.22611 0.625456,-1.06178 0.156964,0.0969 0.267136,-0.0258 0.244861,-0.27576 -0.06006,-0.66973 3.248808,-7.4042 7.158606,-14.56987 3.470803,-6.361073 4.596304,-8.631603 6.92584,-13.9717 0.700208,-1.605102 1.879097,-4.231655 2.619759,-5.836799 0.740661,-1.605101 1.724524,-3.739176 2.186361,-4.742359 0.46185,-1.003226 1.65522,-3.547699 2.65196,-5.654413 0.99673,-2.106715 2.02937,-4.404949 2.29475,-5.107172 0.26537,-0.702224 0.68097,-1.523022 0.92352,-1.823981 0.24254,-0.301175 0.62981,-1.136019 0.86057,-1.855693 0.61637,-1.922218 1.5926,-2.826646 2.83515,-2.626596 0.56799,0.09134 1.36103,0.207246 1.76231,0.257227 1.60815,0.200352 2.31381,0.655001 2.75436,1.774905 0.25391,0.645393 0.76403,1.871117 1.13363,2.723842 0.65293,1.50639 1.0644,2.424219 3.3118,7.387181 2.86695,6.331087 8.66896,21.148146 8.66896,22.138618 0,0.165884 0.58652,1.777836 1.30338,3.58221 1.57432,3.96262 3.10371,8.0614 4.5506,12.19559 1.5438,4.41111 5.31298,12.11924 7.59125,15.52446 1.07472,1.6063 2.0705,3.00265 2.21283,3.10296 0.14231,0.10039 0.87909,1.12567 1.63725,2.27858 1.64799,2.50596 2.13637,4.87296 1.08299,5.24863 -0.37705,0.13443 -0.96944,0.48817 -1.31644,0.78598 -1.30311,1.11844 -4.99756,0.39209 -4.50706,-0.88616 0.14598,-0.38045 -0.26752,-0.4344 -1.96652,-0.25679 l -2.15136,0.22491 -0.31454,-1.21384 -0.31453,-1.21383 -2.11048,0.0978 c -1.16076,0.0539 -4.45754,-0.187 -7.32617,-0.53462 -5.31374,-0.64423 -6.73981,-0.5746 -10.95675,0.53526 -0.80256,0.21113 -3.64419,0.64027 -6.31473,0.95338 -2.67054,0.31324 -6.69244,0.96527 -8.93757,1.44921 -5.427921,1.17002 -5.828263,1.23641 -9.006836,1.49368 -1.504796,0.12194 -3.96719,0.46486 -5.471986,0.76238 -5.291199,1.04605 -7.606947,1.26902 -8.906483,0.85755 z m 8.176882,-5.63239 c 5.346888,-0.49373 8.022883,-0.92511 12.283582,-1.98009 3.852324,-0.9538 7.368854,-1.57998 11.522264,-2.05156 0.75389,-0.0857 2.39549,-0.40932 3.64799,-0.71898 6.00694,-1.48593 9.71905,-1.7628 15.04525,-1.12215 3.6293,0.43655 7.83972,0.61769 7.81749,0.33651 -0.0142,-0.17881 -0.66618,-1.31013 -1.44899,-2.51397 -1.53473,-2.36011 -2.14063,-3.56498 -2.9364,-5.83908 -0.28041,-0.80128 -0.60533,-1.53897 -0.72208,-1.63927 -0.1994,-0.17149 -1.28131,-3.58407 -2.71776,-8.57279 -0.34663,-1.20384 -0.84279,-2.68128 -1.10258,-3.28319 -0.25977,-0.60192 -0.99911,-2.57184 -1.64293,-4.37759 -0.64383,-1.80576 -1.48455,-4.06784 -1.86828,-5.026862 -0.38373,-0.959019 -0.6142,-1.878743 -0.51215,-2.043851 0.10202,-0.165021 -0.0502,-0.611656 -0.33841,-0.992325 -0.28816,-0.380885 -0.52912,-1.04782 -0.53551,-1.482563 -0.006,-0.4347 -0.21681,-0.873665 -0.4676,-0.975392 -0.34314,-0.13917 -0.32061,-0.280924 0.0912,-0.572017 0.47413,-0.335213 0.46383,-0.387778 -0.0771,-0.392518 -0.42337,-0.0037 -0.79906,-0.563227 -1.16744,-1.738411 -0.94176,-3.004249 -1.68893,-4.95861 -2.60756,-6.820377 -0.48967,-0.992455 -0.89032,-2.10051 -0.89032,-2.462394 0,-0.361926 -0.14412,-0.657974 -0.3203,-0.657974 -0.17618,0 -0.69657,-1.026018 -1.15641,-2.280008 -0.45985,-1.253989 -1.10784,-2.690407 -1.43999,-3.191977 -0.33215,-0.501613 -0.81663,-1.445552 -1.07664,-2.097623 -0.26002,-0.652071 -0.60749,-1.185568 -0.77217,-1.185568 -0.31294,0 -3.62485,6.616061 -3.62485,7.24116 0,0.197336 -0.13202,0.41363 -0.29342,0.480414 -0.16136,0.06678 -0.76644,1.270707 -1.34458,2.675198 -0.57814,1.404448 -1.17048,2.717724 -1.31631,2.918378 -0.1458,0.200783 -0.78561,1.67809 -1.42174,3.283191 -0.63613,1.605102 -1.45424,3.492936 -1.81803,4.195203 -0.36378,0.702224 -1.504983,3.000458 -2.535991,5.107172 -1.031009,2.106714 -2.692088,5.307824 -3.691285,7.113584 -0.999198,1.80575 -2.142567,4.02191 -2.540811,4.92478 -0.398249,0.90288 -0.912865,1.96604 -1.143593,2.36257 -0.230729,0.39639 -1.139087,2.20228 -2.018573,4.01277 -0.879486,1.81054 -1.75088,3.53809 -1.936432,3.83905 -0.185574,0.30118 -1.176309,2.2271 -2.201681,4.28034 -1.025369,2.05316 -2.004578,3.81979 -2.176032,3.92574 -0.171441,0.106 -0.425393,0.71024 -0.564352,1.34284 -0.138954,0.63264 -0.639645,1.8781 -1.11267,2.76775 -0.473025,0.88965 -0.965383,2.17901 -1.09413,2.86529 -0.223791,1.19294 -0.196172,1.23357 0.628607,0.9236 0.474481,-0.17838 2.093887,-0.43784 3.598683,-0.5768 z"
       id="path836"
       sodipodi:nodetypes="csssscscsssssscsssssssssssssssscccscssssscccsccssssssssssssssssssssssssssssssssssssssssscc" />
  </g>
</svg>
