<?xml version="1.0" encoding="UTF-8" standalone="no"?>
<!-- Created with Inkscape (http://www.inkscape.org/) -->

<svg
   width="79.856293mm"
   height="76.444618mm"
   viewBox="0 0 79.856293 76.444618"
   version="1.1"
   id="svg5"
   sodipodi:docname="datalad copy 4.svg"
   inkscape:version="1.1.1 (c3084ef, 2021-09-22)"
   xmlns:inkscape="http://www.inkscape.org/namespaces/inkscape"
   xmlns:sodipodi="http://sodipodi.sourceforge.net/DTD/sodipodi-0.dtd"
   xmlns="http://www.w3.org/2000/svg"
   xmlns:svg="http://www.w3.org/2000/svg">
  <sodipodi:namedview
     id="namedview7"
     pagecolor="#ffffff"
     bordercolor="#666666"
     borderopacity="1.0"
     inkscape:pageshadow="2"
     inkscape:pageopacity="0.0"
     inkscape:pagecheckerboard="0"
     inkscape:document-units="mm"
     showgrid="false"
     inkscape:zoom="0.49443694"
     inkscape:cx="660.34711"
     inkscape:cy="-85.956361"
     inkscape:window-width="1606"
     inkscape:window-height="1319"
     inkscape:window-x="0"
     inkscape:window-y="25"
     inkscape:window-maximized="0"
     inkscape:current-layer="layer1" />
  <defs
     id="defs2" />
  <g
     inkscape:label="Layer 1"
     inkscape:groupmode="layer"
     id="layer1"
     transform="translate(-61.602632,-85.516281)">
    <path
       style="fill:#008300;fill-opacity:0.481781;stroke-width:0.30652"
       d="m 102.15012,161.71859 c -0.0949,-0.15351 -0.54334,-0.23858 -0.99642,-0.18898 -1.760846,0.19332 -3.711826,-1.98347 -3.371666,-3.76177 0.1774,-0.92676 2.899286,-9.04456 3.855816,-11.49917 1.20929,-3.10326 1.84824,-5.55414 1.50348,-5.76719 -0.18066,-0.11187 -2.68848,-0.15785 -5.572676,-0.10282 -2.88416,0.0554 -6.09455,0.11006 -7.13419,0.12164 l -1.89021,0.0217 -0.6653,2.22226 c -0.36591,1.22225 -1.13501,3.73953 -1.70915,5.594 -0.57411,1.85444 -1.18547,4.13035 -1.35856,5.05758 -0.17305,0.9272 -0.45891,1.73478 -0.63508,1.79463 -0.17631,0.0597 -0.4433,0.43208 -0.59351,0.82724 -0.23062,0.60629 -0.46992,0.7106 -1.53371,0.66817 -1.51,-0.0601 -3.1041,-1.41946 -3.66778,-3.1273 -0.32583,-0.98705 -0.22844,-1.47814 1.05152,-5.29975 1.3002,-3.88239 1.56908,-4.72234 2.1689,-6.7756 l 0.21178,-0.72464 -4.39969,0.19405 c -5.4215,0.2393 -10.13261,0.50471 -11.75614,0.66248 -2.27215,0.22084 -3.06587,-0.0952 -3.66818,-1.4604 -0.46901,-1.06303 -0.49305,-1.41431 -0.17124,-2.50366 0.20564,-0.69695 0.70296,-1.70275 1.10474,-2.23515 l 0.73051,-0.96796 4.82885,-0.0413 c 2.6559,-0.0217 5.57054,-0.12201 6.47707,-0.22084 1.22102,-0.13323 1.71755,-0.0702 1.91579,0.24292 0.19369,0.30592 0.26899,0.31678 0.27225,0.0395 0.003,-0.28166 0.85081,-0.38314 3.20127,-0.38314 2.38611,0 3.30943,-0.11295 3.64171,-0.44519 0.24473,-0.24473 0.5379,-0.35262 0.65115,-0.2393 0.11331,0.11332 0.12562,-0.004 0.029,-0.25921 -0.0981,-0.25596 0.32076,-1.838 0.93089,-3.51566 0.61017,-1.67765 1.16281,-3.32616 1.22808,-3.66332 0.0652,-0.33705 0.31135,-1.0958 0.54678,-1.68587 1.6118,-4.03901 2.53817,-6.95868 2.2875,-7.20935 -0.16907,-0.16907 -10.62154,-0.27442 -14.36867,-0.14445 -3.29836,0.11404 -3.63809,-0.13215 -3.55139,-2.57568 0.0666,-1.87822 0.58273,-3.12216 1.14992,-2.7716 0.14771,0.0912 0.19369,-0.029 0.10246,-0.26609 -0.35986,-0.93734 1.35114,-1.12875 8.60205,-0.96236 3.8775,0.0891 7.77698,0.17631 8.66551,0.19369 0.88854,0.0181 1.69127,-0.0438 1.7838,-0.13612 0.0927,-0.0927 0.37829,-0.97481 0.63497,-1.96055 0.25668,-0.98574 0.57393,-1.93017 0.70498,-2.09877 0.13106,-0.1687 0.33307,-0.83231 0.44907,-1.47495 0.26066,-1.44614 1.66234,-5.964252 2.89426,-9.329878 0.50912,-1.390817 0.84748,-2.52879 0.7519,-2.52879 -0.0956,0 -0.0253,-0.179206 0.15676,-0.398343 0.18174,-0.219029 0.42358,-1.012204 0.53715,-1.762478 0.36424,-2.405555 2.029076,-3.337207 3.440816,-1.925501 0.22446,0.224459 0.60028,0.408082 0.83517,0.408082 0.23496,0 0.569,0.265007 0.74242,0.589134 0.17341,0.324018 0.5295,0.803348 0.79125,1.065096 0.54848,0.548478 0.52592,0.640941 -1.7994,7.388122 -1.16288,3.374166 -3.885066,12.108356 -3.882606,12.457436 0.003,0.24219 14.940926,0.51068 15.269946,0.27442 0.12598,-0.0905 0.62765,-1.13001 1.11498,-2.31009 0.48729,-1.18012 1.19145,-2.83532 1.56474,-3.67824 0.37332,-0.84296 1.04616,-2.56713 1.49522,-3.83153 0.44903,-1.26439 1.3839,-3.471335 2.07752,-4.904292 0.69362,-1.432993 1.29814,-2.743366 1.34335,-2.911964 0.0453,-0.168706 0.3797,-1.065133 0.74325,-1.992368 0.36359,-0.927235 0.65239,-1.685872 0.64185,-1.685872 -0.0109,0 0.0623,-0.311709 0.16183,-0.693 0.32655,-1.249371 2.55685,-1.284452 3.87015,-0.06082 0.35443,0.330535 0.88245,0.600647 1.17302,0.600647 0.37619,0 0.58707,0.347912 0.7325,1.208606 0.20563,1.216389 -0.40084,2.903166 -2.36809,6.587851 -0.35406,0.663458 -0.74426,1.697963 -0.86677,2.298899 -0.22808,1.119003 -0.56401,1.977923 -3.06413,7.836063 -0.79144,1.85443 -1.40863,3.40751 -1.37155,3.45128 0.0568,0.067 1.46029,0.0818 4.60829,0.0485 0.33706,-0.004 2.06134,-10e-4 3.83149,0.004 3.15341,0.0109 6.13325,-0.1868 6.36984,-0.4235 0.0655,-0.0655 0.5126,0.0181 0.99345,0.18572 0.58678,0.20455 0.93523,0.58244 1.0597,1.14909 0.2918,1.32789 -0.36637,3.6555 -1.27033,4.49324 l -0.80516,0.7463 h -8.81243 -8.81242 l -1.30187,3.60159 c -0.71602,1.9809 -1.50369,4.22231 -1.75035,4.98094 -0.24654,0.75864 -0.90526,2.7185 -1.46354,4.35524 -1.1374,3.3346 -1.12447,3.36744 1.23351,3.12451 1.82113,-0.18753 17.32306,-0.37115 17.93048,-0.21251 0.80812,0.21143 1.5021,1.96178 1.32308,3.33717 -0.12345,0.9482 -0.80871,2.51391 -1.51098,3.45215 -0.0453,0.0605 -4.88355,0.15242 -10.75161,0.20419 -5.86806,0.0518 -10.82235,0.10571 -11.00956,0.11983 -0.35768,0.029 -0.93404,1.65166 -3.43437,9.68127 -2.034,6.53206 -2.4877,8.14408 -2.62567,9.3289 -0.0735,0.6308 -0.47426,1.32413 -1.09142,1.88777 -1.08073,0.98712 -1.13381,1.01061 -1.3805,0.61147 z m 3.7017,-28.31832 c 0.14699,-0.14699 2.85719,-7.98139 3.0373,-8.78021 0.27732,-1.22978 1.33785,-4.58285 1.78677,-5.64896 0.27478,-0.65278 0.49979,-1.2872 0.49979,-1.40978 0,-0.12273 -2.03451,-0.24908 -4.52116,-0.2813 -2.48665,-0.0326 -4.72806,-0.0746 -4.98094,-0.0945 -0.25306,-0.0181 -1.57737,-0.0145 -2.943316,0.0109 l -2.4835,0.0482 -0.68043,2.06901 c -0.37424,1.13793 -1.2863,3.93112 -2.02687,6.20703 -0.74054,2.27591 -1.68291,5.0389 -2.09418,6.14001 l -0.74766,2.002 7.50839,-0.0634 c 4.129616,-0.0362 7.570216,-0.1249 7.645806,-0.20056 z"
       id="path836"
       sodipodi:nodetypes="ccssscccssssssssscsssssccsssssscsssscsscscssscssssssssscssssssssssssssssscsssscccsssscssscssscccsssccccssscccc" />
    <path
       style="fill:#000000;stroke-width:0.30652"
       d="m 105.85431,159.07274 c -0.0949,-0.15351 -0.54334,-0.23858 -0.99642,-0.18898 -1.76085,0.19332 -3.71184,-1.98347 -3.37168,-3.76177 0.1774,-0.92676 2.8993,-9.04456 3.85583,-11.49917 1.20929,-3.10326 1.84824,-5.55414 1.50348,-5.76719 -0.18066,-0.11187 -2.68848,-0.15785 -5.57269,-0.10282 -2.884167,0.0554 -6.094557,0.11006 -7.134197,0.12164 l -1.89021,0.0217 -0.6653,2.22226 c -0.36591,1.22225 -1.13501,3.73953 -1.70915,5.594 -0.57411,1.85444 -1.18547,4.13035 -1.35856,5.05758 -0.17305,0.9272 -0.45891,1.73478 -0.63508,1.79463 -0.17631,0.0597 -0.4433,0.43208 -0.59351,0.82724 -0.23062,0.60629 -0.46992,0.7106 -1.53371,0.66817 -1.51,-0.0601 -3.1041,-1.41946 -3.66778,-3.1273 -0.32583,-0.98705 -0.22844,-1.47814 1.05152,-5.29975 1.3002,-3.88239 1.56908,-4.72234 2.1689,-6.7756 l 0.21178,-0.72464 -4.39969,0.19405 c -5.4215,0.2393 -10.13261,0.50471 -11.75614,0.66248 -2.27215,0.22084 -3.06587,-0.0952 -3.66818,-1.4604 -0.46901,-1.06303 -0.49305,-1.41431 -0.17124,-2.50366 0.20564,-0.69695 0.70296,-1.70275 1.10474,-2.23515 l 0.73051,-0.96796 4.82885,-0.0413 c 2.6559,-0.0217 5.57054,-0.12201 6.47707,-0.22084 1.22102,-0.13323 1.71755,-0.0702 1.91579,0.24292 0.19369,0.30592 0.26899,0.31678 0.27225,0.0395 0.003,-0.28166 0.85081,-0.38314 3.20127,-0.38314 2.38611,0 3.30943,-0.11295 3.64171,-0.44519 0.24473,-0.24473 0.5379,-0.35262 0.65115,-0.2393 0.11331,0.11332 0.12562,-0.004 0.029,-0.25921 -0.0981,-0.25596 0.32076,-1.838 0.93089,-3.51566 0.61017,-1.67765 1.16281,-3.32616 1.22808,-3.66332 0.0652,-0.33705 0.31135,-1.0958 0.54678,-1.68587 1.6118,-4.03901 2.53817,-6.95868 2.2875,-7.20935 -0.16907,-0.16907 -10.62154,-0.27442 -14.36867,-0.14445 -3.29836,0.11404 -3.63809,-0.13215 -3.55139,-2.57568 0.0666,-1.87822 0.58273,-3.12216 1.14992,-2.7716 0.14771,0.0912 0.19369,-0.029 0.10246,-0.26609 -0.35986,-0.93734 1.35114,-1.12875 8.60205,-0.96236 3.8775,0.0891 7.77698,0.17631 8.66551,0.19369 0.88854,0.0181 1.69127,-0.0438 1.7838,-0.13612 0.0927,-0.0927 0.37829,-0.97481 0.63497,-1.96055 0.25668,-0.98574 0.57393,-1.93017 0.70498,-2.09877 0.13106,-0.1687 0.33307,-0.83231 0.44907,-1.47495 0.26066,-1.44614 1.66234,-5.964245 2.894257,-9.329866 0.50913,-1.390817 0.84749,-2.52879 0.75191,-2.52879 -0.0956,0 -0.0253,-0.179206 0.15676,-0.398343 0.18174,-0.219029 0.42358,-1.012204 0.53715,-1.762478 0.36424,-2.405555 2.02909,-3.337207 3.44083,-1.925501 0.22446,0.224459 0.60028,0.408082 0.83517,0.408082 0.23496,0 0.569,0.265007 0.74242,0.589134 0.17341,0.324018 0.5295,0.803348 0.79125,1.065096 0.54848,0.548478 0.52592,0.640941 -1.7994,7.388121 -1.16288,3.374161 -3.88508,12.108345 -3.88262,12.457425 0.003,0.24219 14.94094,0.51068 15.26996,0.27442 0.12598,-0.0905 0.62765,-1.13001 1.11498,-2.31009 0.48729,-1.18012 1.19145,-2.83532 1.56474,-3.67824 0.37332,-0.84296 1.04616,-2.567127 1.49522,-3.831521 0.44903,-1.264384 1.3839,-3.471334 2.07752,-4.904289 0.69362,-1.432993 1.29814,-2.743366 1.34335,-2.911964 0.0453,-0.168706 0.3797,-1.065133 0.74325,-1.992368 0.36359,-0.927235 0.65239,-1.685872 0.64185,-1.685872 -0.0109,0 0.0623,-0.311709 0.16183,-0.693 0.32655,-1.249371 2.55685,-1.284452 3.87015,-0.06082 0.35443,0.330535 0.88245,0.600647 1.17302,0.600647 0.37619,0 0.58707,0.347912 0.7325,1.208606 0.20563,1.216389 -0.40084,2.903166 -2.36809,6.587846 -0.35406,0.66346 -0.74426,1.69797 -0.86677,2.2989 -0.22808,1.119007 -0.56401,1.977921 -3.06413,7.836055 -0.79144,1.85443 -1.40863,3.40751 -1.37155,3.45128 0.0568,0.067 1.46029,0.0818 4.60829,0.0485 0.33706,-0.004 2.06134,-0.001 3.83149,0.004 3.15341,0.0109 6.13325,-0.1868 6.36984,-0.4235 0.0655,-0.0655 0.5126,0.0181 0.99345,0.18572 0.58678,0.20455 0.93523,0.58244 1.0597,1.14909 0.2918,1.32789 -0.36637,3.6555 -1.27033,4.49324 l -0.80516,0.7463 h -8.81243 -8.81242 l -1.30187,3.60159 c -0.71602,1.9809 -1.50369,4.22231 -1.75035,4.98094 -0.24654,0.75864 -0.90526,2.7185 -1.46354,4.35524 -1.1374,3.3346 -1.12447,3.36744 1.23351,3.12451 1.82113,-0.18753 17.32306,-0.37115 17.93048,-0.21251 0.80812,0.21143 1.5021,1.96178 1.32308,3.33717 -0.12345,0.9482 -0.80871,2.51391 -1.51098,3.45215 -0.0453,0.0605 -4.88355,0.15242 -10.75161,0.20419 -5.86806,0.0518 -10.82235,0.10571 -11.00956,0.11983 -0.35768,0.029 -0.93404,1.65166 -3.43437,9.68127 -2.034,6.53206 -2.4877,8.14408 -2.62567,9.3289 -0.0735,0.6308 -0.47426,1.32413 -1.09142,1.88777 -1.08073,0.98712 -1.13381,1.01061 -1.3805,0.61147 z m 3.7017,-28.31832 c 0.14699,-0.14699 2.85719,-7.98139 3.0373,-8.78021 0.27732,-1.22978 1.33785,-4.58285 1.78677,-5.64896 0.27478,-0.65278 0.49979,-1.2872 0.49979,-1.40978 0,-0.12273 -2.03451,-0.24908 -4.52116,-0.2813 -2.48665,-0.0326 -4.72806,-0.0746 -4.98094,-0.0945 -0.25306,-0.0181 -1.57737,-0.0145 -2.94333,0.0109 l -2.483507,0.0482 -0.68043,2.06901 c -0.37424,1.13793 -1.2863,3.93112 -2.02687,6.20703 -0.74054,2.27591 -1.68291,5.0389 -2.09418,6.14001 l -0.74766,2.002 7.508397,-0.0634 c 4.12963,-0.0362 7.57023,-0.1249 7.64582,-0.20056 z"
       id="path836-8"
       sodipodi:nodetypes="ccssscccssssssssscsssssccsssssscsssscsscscssscssssssssscssssssssssssssssscsssscccsssscssscssscccsssccccssscccc" />
  </g>
</svg>
