<?xml version="1.0" encoding="UTF-8" standalone="no"?>
<!-- Created with Inkscape (http://www.inkscape.org/) -->

<svg
   width="41.734474mm"
   height="79.724693mm"
   viewBox="0 0 41.734474 79.724693"
   version="1.1"
   id="svg5"
   inkscape:version="1.1.1 (c3084ef, 2021-09-22)"
   sodipodi:docname="signature copy 9.svg"
   xmlns:inkscape="http://www.inkscape.org/namespaces/inkscape"
   xmlns:sodipodi="http://sodipodi.sourceforge.net/DTD/sodipodi-0.dtd"
   xmlns="http://www.w3.org/2000/svg"
   xmlns:svg="http://www.w3.org/2000/svg">
  <sodipodi:namedview
     id="namedview7"
     pagecolor="#ffffff"
     bordercolor="#666666"
     borderopacity="1.0"
     inkscape:pageshadow="2"
     inkscape:pageopacity="0.0"
     inkscape:pagecheckerboard="0"
     inkscape:document-units="mm"
     showgrid="false"
     inkscape:zoom="0.51580387"
     inkscape:cx="-864.66974"
     inkscape:cy="113.4152"
     inkscape:window-width="2560"
     inkscape:window-height="1387"
     inkscape:window-x="0"
     inkscape:window-y="25"
     inkscape:window-maximized="1"
     inkscape:current-layer="layer1" />
  <defs
     id="defs2" />
  <g
     inkscape:label="Layer 1"
     inkscape:groupmode="layer"
     id="layer1"
     transform="translate(-126.74799,-79.414024)">
    <path
       style="fill:#00c700;fill-opacity:0.543243;stroke-width:0.253108"
       d="m 153.99898,158.94864 c -0.64055,-0.4979 -1.21785,-2.54084 -1.48044,-5.23885 -0.13005,-1.33594 -0.23946,-2.71369 -0.24305,-3.06172 l -0.006,-0.63275 h -3.15765 -3.15764 l 0.12406,2.15139 c 0.0682,1.18329 0.18026,2.81614 0.24872,3.62858 0.10105,1.1992 0.0302,1.6095 -0.37628,2.1804 -0.62088,0.87196 -1.99364,1.15426 -3.18743,0.65547 -0.97268,-0.40642 -0.99543,-0.50776 -1.36717,-6.09226 -0.13004,-1.95301 -0.30977,-3.74215 -0.39945,-3.97589 -0.0897,-0.23378 -0.64671,-0.70833 -1.23785,-1.05477 -0.59113,-0.34642 -1.46346,-1.00608 -1.93854,-1.46592 -0.47509,-0.45984 -1.13394,-1.02398 -1.46409,-1.25366 -0.94667,-0.65855 -3.67623,-3.36377 -5.62222,-5.57212 -1.55354,-1.76303 -1.73858,-2.07519 -1.44923,-2.44505 0.29356,-0.37515 0.2831,-0.38615 -0.0888,-0.0954 -0.48597,0.37996 -0.47858,0.388 -1.51647,-1.6448 -0.36958,-0.72387 -0.74993,-1.77772 -0.84527,-2.34189 -0.15395,-0.91157 -0.12376,-1.0067 0.27264,-0.85463 0.3376,0.12945 0.40842,0.0733 0.29147,-0.23138 -0.0927,-0.24155 0.006,-0.46367 0.24245,-0.55505 0.26576,-0.10194 0.84467,0.3097 1.75015,1.24457 0.74417,0.76835 1.52887,1.39698 1.74378,1.39698 0.21495,0 0.52932,0.31323 0.69873,0.69606 0.1695,0.38283 0.42322,0.82671 0.56405,0.9864 0.14081,0.15964 0.65472,0.80997 1.14195,1.44505 0.48722,0.63508 0.98858,1.12508 1.11414,1.08891 0.12556,-0.0362 0.7537,0.45258 1.39593,1.08604 1.8584,1.83305 4.17335,3.80643 4.46721,3.80798 0.18206,0 0.27533,-1.70913 0.28669,-5.25054 0.009,-2.8886 0.0995,-9.01063 0.2003,-13.60454 l 0.18355,-8.35255 -0.85002,-0.49452 c -1.44484,-0.84058 -3.35929,-2.67874 -4.36184,-4.188 -1.7778,-2.67631 -2.23465,-3.54084 -2.66777,-5.0483 -0.8012,-2.78848 -0.81902,-3.66227 -0.10253,-5.0188 1.11288,-2.106674 2.71757,-4.060288 4.51695,-5.499026 0.52232,-0.417628 1.07926,-0.873222 1.23764,-1.012411 0.66794,-0.587101 1.9184,-1.392103 2.16237,-1.392103 0.16801,0 0.26397,-1.123052 0.26516,-3.100581 0.003,-3.796527 0.37874,-7.294018 0.81469,-7.570693 0.17728,-0.112404 0.74121,-0.206273 1.25315,-0.208366 0.71269,-0.003 1.05687,0.156349 1.46888,0.680163 0.46922,0.596547 0.53433,0.993368 0.50889,3.10058 -0.0149,1.329085 -0.0209,2.97021 -0.0119,3.646965 l 0.0149,1.230433 0.82258,-0.152463 c 0.45246,-0.0837 1.81924,-0.165616 3.0373,-0.181759 l 2.21471,-0.02989 0.0179,-1.301731 c 0.0362,-2.752787 0.56767,-5.241574 1.25165,-5.860602 0.6057,-0.548148 1.78083,-0.312608 2.2633,0.453681 0.19461,0.308901 0.38582,1.35895 0.42507,2.333425 0.0392,0.974445 0.1414,2.582028 0.2269,3.572317 l 0.15545,1.800583 1.05734,0.329828 c 0.84121,0.262474 2.35758,0.995909 2.9176,1.411295 0.21076,0.156349 -0.52713,1.839745 -0.86282,1.968591 -0.46199,0.177275 -1.90136,-0.08311 -2.33238,-0.422083 -0.17727,-0.139309 -0.38301,-0.193119 -0.45697,-0.11898 -0.0738,0.07384 -0.0299,2.054956 0.10105,4.402192 0.12944,2.347205 0.24932,7.229055 0.26606,10.848485 0.0179,3.61946 0.0347,7.32116 0.0398,8.22601 l 0.009,1.64519 1.69738,1.13899 c 2.2343,1.49927 5.43532,4.5363 5.26077,4.9912 -0.0738,0.19254 -0.035,0.2888 0.0867,0.21376 0.29626,-0.18296 1.86283,1.6851 2.52472,3.01038 1.22811,2.45904 0.88491,7.01944 -0.7722,10.26163 -1.16443,2.27824 -1.30236,2.50227 -2.66499,4.32826 -1.73631,2.32667 -3.89551,4.07422 -5.74153,4.64682 -0.44833,0.13901 -0.46651,0.33057 -0.2837,2.99015 0.27593,4.01335 0.29297,6.00544 0.0511,6.00544 -0.1145,0 -0.1408,0.21285 -0.0583,0.47284 0.27234,0.85777 -1.89606,1.86322 -2.68893,1.24691 z M 140.2766,146.97199 c -0.22541,-0.22541 -0.4098,-0.31055 -0.4098,-0.18924 0,0.28669 0.56597,0.85263 0.70931,0.70931 0.0607,-0.0607 -0.0741,-0.29476 -0.29951,-0.52007 z m 9.97727,-1.27899 1.75478,-0.39909 0.009,-10.67438 c 0.006,-5.87089 0.049,-11.27383 0.0963,-12.00658 l 0.0861,-1.33228 -2.10052,-1.26876 c -2.46573,-1.48938 -4.38602,-2.37877 -4.62347,-2.14144 -0.21524,0.21494 -0.22092,0.4242 -0.37105,13.41485 -0.12496,10.80203 0.0239,14.20428 0.64088,14.59551 0.51852,0.32911 2.61865,0.24155 4.50661,-0.18774 z m 6.92294,-3.24 c 3.33065,-4.13332 4.35525,-6.21456 4.62389,-9.39239 0.14947,-1.76871 0.11898,-1.91938 -0.63437,-3.14392 -0.81355,-1.32221 -1.35844,-2.00264 -3.32888,-4.15688 l -1.13899,-1.24523 -0.14379,0.72775 c -0.18296,0.9259 -0.26188,17.05952 -0.0849,17.34576 0.18744,0.30331 0.38402,0.26576 0.70704,-0.13512 z m -4.90771,-30.60537 c 0,-4.59313 -0.36956,-14.013763 -0.64985,-16.566883 l -0.14589,-1.328816 h -1.32472 c -0.72859,0 -2.03023,0.23826 -2.89251,0.529434 l -1.56783,0.529464 -0.0323,3.583558 c -0.0179,1.970953 -0.0652,4.323863 -0.10523,5.228753 -0.10703,2.4084 -0.17847,6.47705 -0.14499,8.26849 l 0.0299,1.56116 1.96157,0.65555 c 1.0789,0.36059 2.53109,0.99065 3.22712,1.40015 0.69607,0.40947 1.35097,0.75026 1.45539,0.75726 0.10434,0.006 0.18983,-2.07113 0.18983,-4.61812 z m -10.92374,-7.02279 c 0.0179,-3.21606 0.0933,-5.945169 0.16711,-6.064688 0.0738,-0.119578 0.0239,-0.284597 -0.10792,-0.367106 -0.35416,-0.218828 -2.72453,2.339014 -3.34216,3.606574 -0.89477,1.83625 -0.47206,3.67606 1.55139,6.75263 0.20896,0.31748 0.59989,0.9267 0.86906,1.35381 0.26905,0.4271 0.56597,0.72922 0.65957,0.67137 0.0936,-0.058 0.18504,-2.73652 0.20298,-5.95259 z"
       id="path836"
       sodipodi:nodetypes="cscccccssssssssssssssscsssssssccccssscssscssscccccccsssscsssscccccsscsssssssccsssscccccscccccsssscsssscscsscccccsscccsscscscss" />
    <path
       style="fill:#000000;stroke-width:0.253108"
       d="m 155.58649,156.30279 c -0.64055,-0.4979 -1.21785,-2.54084 -1.48044,-5.23885 -0.13005,-1.33594 -0.23946,-2.71369 -0.24305,-3.06172 l -0.006,-0.63275 h -3.15765 -3.15764 l 0.12406,2.15139 c 0.0682,1.18329 0.18026,2.81614 0.24872,3.62858 0.10105,1.1992 0.0302,1.6095 -0.37628,2.1804 -0.62088,0.87196 -1.99364,1.15426 -3.18743,0.65547 -0.97268,-0.40642 -0.99543,-0.50776 -1.36717,-6.09226 -0.13004,-1.95301 -0.30977,-3.74215 -0.39945,-3.97589 -0.0897,-0.23378 -0.64671,-0.70833 -1.23785,-1.05477 -0.59113,-0.34642 -1.46346,-1.00608 -1.93854,-1.46592 -0.47509,-0.45984 -1.13394,-1.02398 -1.46409,-1.25366 -0.94667,-0.65855 -3.67623,-3.36377 -5.62222,-5.57212 -1.55354,-1.76303 -1.73858,-2.07519 -1.44923,-2.44505 0.29356,-0.37515 0.2831,-0.38615 -0.0888,-0.0954 -0.48597,0.37996 -0.47858,0.388 -1.51647,-1.6448 -0.36958,-0.72387 -0.74993,-1.77772 -0.84527,-2.34189 -0.15395,-0.91157 -0.12376,-1.0067 0.27264,-0.85463 0.3376,0.12945 0.40842,0.0733 0.29147,-0.23138 -0.0927,-0.24155 0.006,-0.46367 0.24245,-0.55505 0.26576,-0.10194 0.84467,0.3097 1.75015,1.24457 0.74417,0.76835 1.52887,1.39698 1.74378,1.39698 0.21495,0 0.52932,0.31323 0.69873,0.69606 0.1695,0.38283 0.42322,0.82671 0.56405,0.9864 0.14081,0.15964 0.65472,0.80997 1.14195,1.44505 0.48722,0.63508 0.98858,1.12508 1.11414,1.08891 0.12556,-0.0362 0.7537,0.45258 1.39593,1.08604 1.8584,1.83305 4.17335,3.80643 4.46721,3.80798 0.18206,0 0.27533,-1.70913 0.28669,-5.25054 0.009,-2.8886 0.0995,-9.01063 0.2003,-13.60454 l 0.18355,-8.35255 -0.85002,-0.49452 c -1.44484,-0.84058 -3.35929,-2.67874 -4.36184,-4.188 -1.7778,-2.67631 -2.23465,-3.54084 -2.66777,-5.0483 -0.8012,-2.78848 -0.81902,-3.662267 -0.10253,-5.018788 1.11288,-2.106667 2.71757,-4.060287 4.51695,-5.499017 0.52232,-0.41763 1.07926,-0.87323 1.23764,-1.01242 0.66794,-0.5871 1.9184,-1.3921 2.16237,-1.3921 0.16801,0 0.26397,-1.12305 0.26516,-3.10058 0.003,-3.79653 0.37874,-7.29402 0.81469,-7.57069 0.17728,-0.11241 0.74121,-0.20628 1.25315,-0.20837 0.71269,-0.003 1.05687,0.15635 1.46888,0.68016 0.46922,0.59655 0.53433,0.99337 0.50889,3.10058 -0.0149,1.32909 -0.0209,2.97021 -0.0119,3.64697 l 0.0149,1.23043 0.82258,-0.15246 c 0.45246,-0.0837 1.81924,-0.16562 3.0373,-0.18176 l 2.21471,-0.0299 0.0179,-1.30173 c 0.0362,-2.75279 0.56767,-5.24157 1.25165,-5.8606 0.6057,-0.54815 1.78083,-0.31261 2.2633,0.45368 0.19461,0.3089 0.38582,1.35895 0.42507,2.33342 0.0392,0.97445 0.1414,2.58203 0.2269,3.57232 l 0.15545,1.80058 1.05734,0.32983 c 0.84121,0.26248 2.35758,0.99591 2.9176,1.4113 0.21076,0.15635 -0.52713,1.83974 -0.86282,1.96859 -0.46199,0.17727 -1.90136,-0.0831 -2.33238,-0.42209 -0.17727,-0.1393 -0.38301,-0.19311 -0.45697,-0.11898 -0.0738,0.0738 -0.0299,2.05496 0.10105,4.4022 0.12944,2.347194 0.24932,7.229035 0.26606,10.848465 0.0179,3.61946 0.0347,7.32116 0.0398,8.22601 l 0.009,1.64519 1.69738,1.13899 c 2.2343,1.49927 5.43532,4.5363 5.26077,4.9912 -0.0738,0.19254 -0.035,0.2888 0.0867,0.21376 0.29626,-0.18296 1.86283,1.6851 2.52472,3.01038 1.22811,2.45904 0.88491,7.01944 -0.7722,10.26163 -1.16443,2.27824 -1.30236,2.50227 -2.66499,4.32826 -1.73631,2.32667 -3.89551,4.07422 -5.74153,4.64682 -0.44833,0.13901 -0.46651,0.33057 -0.2837,2.99015 0.27593,4.01335 0.29297,6.00544 0.0511,6.00544 -0.1145,0 -0.1408,0.21285 -0.0583,0.47284 0.27234,0.85777 -1.89606,1.86322 -2.68893,1.24691 z m -13.72238,-11.97665 c -0.22541,-0.22541 -0.4098,-0.31055 -0.4098,-0.18924 0,0.28669 0.56597,0.85263 0.70931,0.70931 0.0607,-0.0607 -0.0741,-0.29476 -0.29951,-0.52007 z m 9.97727,-1.27899 1.75478,-0.39909 0.009,-10.67438 c 0.006,-5.87089 0.049,-11.27383 0.0963,-12.00658 l 0.0861,-1.33228 -2.10052,-1.26876 c -2.46573,-1.48938 -4.38602,-2.37877 -4.62347,-2.14144 -0.21524,0.21494 -0.22092,0.4242 -0.37105,13.41485 -0.12496,10.80203 0.0239,14.20428 0.64088,14.59551 0.51852,0.32911 2.61865,0.24155 4.50661,-0.18774 z m 6.92294,-3.24 c 3.33065,-4.13332 4.35525,-6.21456 4.62389,-9.39239 0.14947,-1.76871 0.11898,-1.91938 -0.63437,-3.14392 -0.81355,-1.32221 -1.35844,-2.00264 -3.32888,-4.15688 l -1.13899,-1.24523 -0.14379,0.72775 c -0.18296,0.9259 -0.26188,17.05952 -0.0849,17.34576 0.18744,0.30331 0.38402,0.26576 0.70704,-0.13512 z m -4.90771,-30.60537 c 0,-4.59313 -0.36956,-14.013745 -0.64985,-16.566865 l -0.14589,-1.32882 h -1.32472 c -0.72859,0 -2.03023,0.23826 -2.89251,0.52944 l -1.56783,0.52946 -0.0323,3.58356 c -0.0179,1.970947 -0.0652,4.323845 -0.10523,5.228735 -0.10703,2.4084 -0.17847,6.47705 -0.14499,8.26849 l 0.0299,1.56116 1.96157,0.65555 c 1.0789,0.36059 2.53109,0.99065 3.22712,1.40015 0.69607,0.40947 1.35097,0.75026 1.45539,0.75726 0.10434,0.006 0.18983,-2.07113 0.18983,-4.61812 z m -10.92374,-7.02279 c 0.0179,-3.216054 0.0933,-5.945155 0.16711,-6.064675 0.0738,-0.11957 0.0239,-0.28459 -0.10792,-0.3671 -0.35416,-0.21883 -2.72453,2.339007 -3.34216,3.606561 -0.89477,1.836244 -0.47206,3.676054 1.55139,6.752624 0.20896,0.31748 0.59989,0.9267 0.86906,1.35381 0.26905,0.4271 0.56597,0.72922 0.65957,0.67137 0.0936,-0.058 0.18504,-2.73652 0.20298,-5.95259 z"
       id="path836-2"
       sodipodi:nodetypes="cscccccssssssssssssssscsssssssccccssscssscssscccccccsssscsssscccccsscsssssssccsssscccccscccccsssscsssscscsscccccsscccsscscscss" />
  </g>
</svg>
