<?xml version="1.0" encoding="UTF-8" standalone="no"?>
<!-- Created with Inkscape (http://www.inkscape.org/) -->

<svg
   width="74.831284mm"
   height="87.87664mm"
   viewBox="0 0 74.831284 87.87664"
   version="1.1"
   id="svg5"
   inkscape:version="1.1.1 (c3084ef, 2021-09-22)"
   sodipodi:docname="git_branches copy.svg"
   xmlns:inkscape="http://www.inkscape.org/namespaces/inkscape"
   xmlns:sodipodi="http://sodipodi.sourceforge.net/DTD/sodipodi-0.dtd"
   xmlns="http://www.w3.org/2000/svg"
   xmlns:svg="http://www.w3.org/2000/svg">
  <sodipodi:namedview
     id="namedview7"
     pagecolor="#ffffff"
     bordercolor="#666666"
     borderopacity="1.0"
     inkscape:pageshadow="2"
     inkscape:pageopacity="0.0"
     inkscape:pagecheckerboard="0"
     inkscape:document-units="mm"
     showgrid="false"
     inkscape:zoom="1.3192469"
     inkscape:cx="233.08752"
     inkscape:cy="105.74214"
     inkscape:window-width="2560"
     inkscape:window-height="1387"
     inkscape:window-x="0"
     inkscape:window-y="25"
     inkscape:window-maximized="1"
     inkscape:current-layer="layer1" />
  <defs
     id="defs2" />
  <g
     inkscape:label="Layer 1"
     inkscape:groupmode="layer"
     id="layer1"
     transform="translate(-71.086695,-97.607367)">
    <path
       id="path901"
       style="fill:#009800;fill-opacity:0.558704;stroke-width:1.5064"
       transform="scale(0.26458333)"
       d="m 538.01758,370.91016 c -0.54869,0.0185 -0.9375,0.61715 -0.9375,1.58593 0,2.64605 0.90167,3.03476 2.19336,0.94532 0.47682,-0.77124 0.17948,-1.82724 -0.66211,-2.34766 -0.21039,-0.13009 -0.41086,-0.18976 -0.59375,-0.18359 z m -3.85156,5.29492 c -1.18317,0.30206 -3.59475,2.05537 -7.09961,5.22656 -12.40044,11.21987 -44.78437,44.28284 -54.00782,55.14063 -4.97113,5.85199 -12.68635,14.86188 -17.14453,20.02343 -7.91769,9.16694 -33.55543,46.98856 -40.0332,59.0586 -1.78938,3.33456 -5.1196,8.9958 -7.40039,12.58008 -2.28076,3.58423 -4.53245,7.65216 -5.00391,9.03906 -0.47168,1.3869 -5.9526,13.02901 -12.18164,25.87109 -21.69501,44.72878 -28.20774,59.85495 -38.76562,90.04688 -0.88872,2.54143 -7.01484,-4.52815 -26.02344,-30.03516 -8.43579,-11.31969 -16.22309,-21.48954 -17.30664,-22.59766 -1.08284,-1.10808 -3.06684,-3.60418 -4.41016,-5.54882 -5.25347,-7.60559 -23.2014,-26.23302 -27.33594,-28.3711 -5.03742,-2.605 -17.32656,-1.74447 -19.29101,1.35156 -3.86234,6.0869 -0.64126,12.38444 14.82227,28.97071 4.81844,5.16809 10.26861,11.36704 12.11132,13.77539 8.16752,10.67539 13.89498,18.61626 19.99805,27.72851 3.60699,5.38538 7.75183,11.14771 9.20898,12.80469 6.17889,7.02323 16.32111,20.3948 23.99219,31.63281 8.87563,13.00289 9.6978,13.77415 18.77149,17.61719 7.26921,3.07849 9.97634,3.25648 14.96289,0.98438 4.61261,-2.10165 5.46577,-4.52204 6.17382,-17.51953 0.60851,-11.15604 4.04227,-27.23999 8.27149,-38.74219 1.52319,-4.14259 4.26436,-11.59922 6.0918,-16.57031 1.82725,-4.9711 5.94177,-14.69671 9.14257,-21.61329 3.201,-6.91657 5.82032,-13.11515 5.82032,-13.77343 0,-0.6584 3.64513,-8.55727 8.09961,-17.55274 4.45443,-8.9955 12.43871,-25.16671 17.74218,-35.9375 9.70885,-19.71719 24.80259,-44.43945 27.13282,-44.43945 0.6921,0 1.25586,-0.93483 1.25586,-2.07617 0,-1.14134 1.01611,-2.91783 2.25976,-3.94922 1.24369,-1.03143 2.25977,-2.85818 2.25977,-4.0586 0,-1.20052 0.84729,-3.0695 1.88281,-4.15234 1.03567,-1.08276 3.42916,-3.91372 5.31836,-6.29297 9.31559,-11.73245 12.38281,-16.21405 12.38281,-18.09179 0,-1.12895 0.80518,-1.8829 1.78906,-1.67579 0.98623,0.20765 1.82952,-1.3122 1.88282,-3.38867 0.0662,-2.63818 0.84264,-3.64271 2.58984,-3.35547 1.53706,0.2527 3.2493,-1.29734 4.46094,-4.03515 1.08196,-2.4443 2.50117,-4.11395 3.15234,-3.71094 0.65193,0.40297 2.60955,-1.67866 4.34961,-4.62695 1.73938,-2.94834 3.71912,-5.36133 4.40234,-5.36133 0.68232,0 2.02735,-2.37702 2.98633,-5.2832 0.95902,-2.90616 3.13518,-6.03028 4.83789,-6.94141 2.2845,-1.22298 2.59893,-1.96571 1.19336,-2.83399 -2.64268,-1.63324 -0.2593,-4.94306 2.73242,-3.79492 1.34351,0.51545 1.99185,0.49265 1.44922,-0.0508 -0.54319,-0.54327 0.5687,-2.44363 2.47071,-4.22266 2.81291,-2.6307 7.27595,-13.47048 6.91992,-16.80664 -0.031,-0.2902 1.30571,-1.83112 2.98242,-3.63281 -0.005,-0.25556 -0.007,-0.51189 -0.006,-0.76758 0.003,-0.55546 0.0508,-1.11167 0.10742,-1.66797 -0.0461,-0.067 -0.10272,-0.0896 -0.14648,-0.16601 -0.18456,-0.32239 -0.12925,-0.68908 -0.0117,-1.06641 -1.39274,0.52876 -1.74693,-0.60369 -0.11328,-3.65625 1.41137,-2.63723 1.4566,-3.78643 0.27344,-3.48437 z m -3.62696,8.34375 c 0.3257,-0.0542 0.51563,0.0623 0.51563,0.37305 0,0.8285 -1.35527,2.73293 -3.01172,4.23242 -1.65717,1.49952 -3.01367,2.04925 -3.01367,1.2207 0,-0.82855 1.35722,-2.73289 3.01367,-4.23242 1.03561,-0.93742 1.95327,-1.50341 2.49609,-1.59375 z m -30.49218,45.04687 c 0.24837,0.0562 0.56758,0.85396 1.10156,2.29688 0.70975,1.91705 0.9097,4.10146 0.44531,4.85351 -1.83046,2.96077 -3.12143,1.11884 -2.44531,-3.48632 0.37929,-2.58293 0.57905,-3.73631 0.89844,-3.66407 z" />
    <path
       id="path901-9"
       style="fill:#000000;stroke-width:0.398568"
       d="m 145.52551,97.607478 c -0.14518,0.0049 -0.24805,0.163288 -0.24805,0.419611 0,0.700101 0.23857,0.802947 0.58033,0.250116 0.12616,-0.204057 0.0475,-0.483457 -0.17519,-0.621152 -0.0557,-0.03442 -0.1087,-0.05021 -0.15709,-0.04857 z m -1.01906,1.400948 c -0.31305,0.07992 -0.95111,0.543817 -1.87844,1.382854 -3.28095,2.96859 -11.8492,11.7165 -14.28957,14.58929 -1.31528,1.54834 -3.35659,3.93221 -4.53615,5.29787 -2.09489,2.42542 -8.87821,12.43239 -10.59212,15.62592 -0.47344,0.88227 -1.35456,2.38014 -1.95802,3.32848 -0.60345,0.94833 -1.19921,2.02463 -1.32395,2.39158 -0.1248,0.36696 -1.57496,3.44726 -3.22306,6.84506 -5.74016,11.83449 -7.463319,15.83663 -10.256759,23.82491 -0.23514,0.67242 -1.85601,-1.19808 -6.88537,-7.94681 -2.23197,-2.995 -4.29236,-5.68577 -4.57905,-5.97896 -0.2865,-0.29318 -0.81143,-0.95361 -1.16685,-1.46812 -1.38998,-2.01232 -6.1387,-6.94082 -7.23263,-7.50652 -1.33282,-0.68924 -4.58432,-0.46156 -5.10408,0.3576 -1.02192,1.61049 -0.16967,3.27671 3.92172,7.66516 1.27488,1.36739 2.7169,3.00753 3.20445,3.64474 2.16099,2.82453 3.67638,4.92555 5.29116,7.3365 0.95434,1.42488 2.051,2.9495 2.43654,3.38791 1.63483,1.85823 4.31829,5.39612 6.34793,8.36951 2.34835,3.44035 2.56588,3.64441 4.96662,4.66122 1.92332,0.81452 2.639579,0.86161 3.958949,0.26045 1.22043,-0.55606 1.44616,-1.19646 1.6335,-4.63538 0.161,-2.9517 1.06951,-7.20724 2.18849,-10.25053 0.40301,-1.09606 1.12828,-3.06896 1.61179,-4.38423 0.48346,-1.31527 1.5721,-3.88851 2.41897,-5.71852 0.84694,-1.83001 1.53996,-3.47005 1.53996,-3.64422 0,-0.1742 0.96444,-2.26411 2.14303,-4.64416 1.17856,-2.38006 3.29107,-6.65869 4.69428,-9.50846 2.5688,-5.21684 6.56235,-11.75794 7.17889,-11.75794 0.18312,0 0.33228,-0.24734 0.33228,-0.54932 0,-0.30198 0.26885,-0.77201 0.5979,-1.0449 0.32906,-0.2729 0.59789,-0.75623 0.59789,-1.07384 0,-0.31763 0.22418,-0.81213 0.49817,-1.09864 0.27402,-0.28648 0.90729,-1.0355 1.40714,-1.66501 2.46475,-3.10421 3.27629,-4.28997 3.27629,-4.78679 0,-0.2987 0.21304,-0.49818 0.47335,-0.44338 0.26095,0.0549 0.48407,-0.34719 0.49817,-0.89659 0.0175,-0.69802 0.22295,-0.9638 0.68523,-0.8878 0.40668,0.0669 0.85971,-0.34325 1.18029,-1.06763 0.28627,-0.64672 0.66176,-1.08849 0.83405,-0.98186 0.17249,0.10662 0.69045,-0.44414 1.15084,-1.22421 0.46021,-0.78008 0.98401,-1.41852 1.16478,-1.41852 0.18053,0 0.53641,-0.62892 0.79014,-1.39785 0.25374,-0.76892 0.82951,-1.59551 1.28002,-1.83658 0.60444,-0.32358 0.68764,-0.52009 0.31574,-0.74982 -0.6992,-0.43213 -0.0686,-1.30785 0.72296,-1.00408 0.35547,0.13638 0.52701,0.13035 0.38344,-0.0134 -0.14372,-0.14374 0.15047,-0.64654 0.65371,-1.11724 0.74424,-0.69604 1.92509,-3.56407 1.83089,-4.44676 -0.008,-0.0768 0.34547,-0.48448 0.7891,-0.96118 -0.001,-0.0676 -0.002,-0.13544 -0.002,-0.20309 8e-4,-0.14696 0.0134,-0.29413 0.0284,-0.44132 -0.0122,-0.0177 -0.0272,-0.0237 -0.0387,-0.0439 -0.0488,-0.0853 -0.0342,-0.18231 -0.003,-0.28215 -0.36849,0.1399 -0.46221,-0.15973 -0.03,-0.967377 0.37342,-0.697769 0.38539,-1.001829 0.0724,-0.921908 z m -0.95963,2.207614 c 0.0862,-0.0143 0.13642,0.0165 0.13642,0.0987 0,0.21921 -0.35858,0.72309 -0.79685,1.11983 -0.43846,0.39675 -0.79736,0.54219 -0.79736,0.32297 0,-0.21922 0.35909,-0.72307 0.79736,-1.11982 0.27401,-0.24803 0.51681,-0.39778 0.66043,-0.42168 z m -8.06773,11.91865 c 0.0657,0.0149 0.15018,0.22594 0.29146,0.60772 0.18779,0.50722 0.24069,1.08517 0.11782,1.28415 -0.48431,0.78337 -0.82588,0.29603 -0.64699,-0.92242 0.10036,-0.6834 0.15321,-0.98856 0.23771,-0.96945 z" />
    <path
       style="fill:#000000;stroke-width:0.0846667"
       id="path881"
       d="" />
  </g>
</svg>
