<?xml version="1.0" encoding="UTF-8" standalone="no"?>
<!-- Created with Inkscape (http://www.inkscape.org/) -->

<svg
   width="106.76143mm"
   height="131.1391mm"
   viewBox="0 0 106.76143 131.1391"
   version="1.1"
   id="svg5"
   inkscape:version="1.1.1 (c3084ef, 2021-09-22)"
   sodipodi:docname="git_branches copy 7.svg"
   xmlns:inkscape="http://www.inkscape.org/namespaces/inkscape"
   xmlns:sodipodi="http://sodipodi.sourceforge.net/DTD/sodipodi-0.dtd"
   xmlns="http://www.w3.org/2000/svg"
   xmlns:svg="http://www.w3.org/2000/svg">
  <sodipodi:namedview
     id="namedview7"
     pagecolor="#ffffff"
     bordercolor="#666666"
     borderopacity="1.0"
     inkscape:pageshadow="2"
     inkscape:pageopacity="0.0"
     inkscape:pagecheckerboard="0"
     inkscape:document-units="mm"
     showgrid="false"
     inkscape:zoom="0.51580387"
     inkscape:cx="119.23137"
     inkscape:cy="379.02003"
     inkscape:window-width="2560"
     inkscape:window-height="1387"
     inkscape:window-x="0"
     inkscape:window-y="25"
     inkscape:window-maximized="1"
     inkscape:current-layer="layer1" />
  <defs
     id="defs2" />
  <g
     inkscape:label="Layer 1"
     inkscape:groupmode="layer"
     id="layer1"
     transform="translate(-125.31056,-74.002421)">
    <g
       id="g1070">
      <path
         style="fill:#008500;fill-opacity:0.497976;stroke-width:0.604592"
         d="m 219.28715,199.96246 c -3.07592,-2.85265 -5.59249,-5.47632 -5.59249,-5.8304 0,-0.35404 -1.15632,-1.91383 -2.56949,-3.46614 -3.12876,-3.43665 -5.83943,-6.77212 -9.82466,-12.08936 -2.97602,-3.9707 -5.1524,-6.7231 -7.66969,-9.6996 -0.70337,-0.83131 -3.27808,-4.0961 -5.7221,-7.25509 -2.4441,-3.15899 -5.79051,-7.30478 -7.43662,-9.21286 l -2.99279,-3.46925 -4.46267,6.7945 c -6.42084,9.77572 -10.91657,17.63336 -14.7135,25.71632 -1.82805,3.89159 -4.07792,8.57294 -4.99958,10.40302 -0.92174,1.83008 -1.85869,4.0556 -2.08206,4.9456 -0.62982,2.50847 -1.89239,3.41632 -4.4124,3.17211 -2.53121,-0.24529 -6.21874,-3.4067 -6.25073,-5.35896 -0.007,-0.64289 0.52342,-2.68341 1.18595,-4.53444 1.84933,-5.16443 12.63193,-25.68618 16.66351,-31.7145 1.9768,-2.956 4.06735,-6.08476 4.64562,-6.95281 0.57841,-0.86804 1.24565,-1.98636 1.48294,-2.48515 0.23707,-0.49878 1.13546,-1.99515 1.99579,-3.32525 0.86033,-1.3301 2.00765,-3.40202 2.54957,-4.60428 l 0.98522,-2.1859 -2.40782,-2.95312 c -1.32434,-1.62421 -4.61184,-5.34707 -7.30558,-8.27303 -2.69382,-2.92594 -5.60142,-6.28726 -6.4614,-7.46957 -2.56399,-3.5251 -15.73041,-16.9402 -20.64424,-21.034094 -7.98489,-6.652504 -8.08279,-6.771121 -7.89527,-9.564747 0.17995,-2.680408 9.20933,-4.962585 10.13107,-2.560627 0.19137,0.498787 0.70051,0.906887 1.13203,0.906887 1.07042,0 4.89726,3.503682 15.65173,14.330101 10.43227,10.50207 12.07102,12.26139 14.53497,15.60416 0.97751,1.32627 2.56692,3.22758 3.53186,4.22516 0.96501,0.99758 2.59191,2.97006 3.61527,4.38329 1.02349,1.41323 2.04456,2.56951 2.26914,2.56951 0.50058,0 2.36955,-2.02847 3.2628,-3.5419 2.277,-3.85751 8.07136,-12.06384 11.80017,-16.7119 6.03772,-7.5263 11.58794,-14.152956 13.11737,-15.661423 1.52314,-1.502277 7.07571,-8.178571 9.49096,-11.411723 3.83221,-5.129953 5.14041,-5.511717 9.68934,-2.827745 1.91424,1.12941 2.20709,1.602298 2.20709,3.563451 0,2.427937 -1.17538,4.142396 -6.94754,10.133755 -1.66553,1.728784 -4.38855,4.96036 -6.05115,7.181278 -1.6626,2.220927 -3.58399,4.615397 -4.26979,5.321047 -2.51594,2.58886 -7.45083,8.6562 -10.63272,13.07252 -1.79685,2.49394 -4.7618,6.57493 -6.58878,9.06887 -4.82407,6.58498 -7.92812,11.48723 -7.27374,11.48723 0.31349,0 0.74222,0.54249 0.95266,1.20561 0.21066,0.6631 0.73651,1.55943 1.16896,1.99188 0.43274,0.43245 2.08034,2.67862 3.66197,4.99145 1.58162,2.31285 3.59056,5.06405 4.46431,6.11377 2.48066,2.98038 7.33222,9.63421 7.33222,10.05606 0,0.20916 0.68052,1.13948 1.51235,2.06747 3.20339,3.57384 5.13813,6.10444 5.13813,6.72066 0,0.3529 0.47629,0.99716 1.05805,1.43167 1.0927,0.81592 4.38327,5.38627 4.38327,6.08805 0,0.98283 3.39597,5.88691 4.07656,5.88691 0.41774,0 0.76014,0.502 0.76014,1.11547 0,0.61355 0.51914,1.58542 1.15396,2.15979 0.63483,0.57434 1.48387,1.84083 1.88712,2.81435 0.40345,0.97354 0.97222,1.77008 1.26442,1.77008 0.29206,0 0.53128,0.40809 0.53128,0.90688 0,0.49879 0.28706,0.90689 0.63768,0.90689 0.95102,0 3.58163,6.35571 3.27965,7.92372 -0.23137,1.20186 -1.23666,2.32165 -2.1037,2.3434 -0.16638,0.004 -2.81891,-2.3264 -5.89476,-5.17905 z"
         id="path901"
         sodipodi:nodetypes="ssssssscsssssccssssscssssssssssssssssssssssssssssssssssssssssssss" />
      <path
         style="fill:#000000;stroke-width:0.604592"
         d="m 224.04968,196.78744 c -3.07592,-2.85265 -5.59249,-5.47632 -5.59249,-5.8304 0,-0.35404 -1.15632,-1.91383 -2.56949,-3.46614 -3.12876,-3.43665 -5.83943,-6.77212 -9.82466,-12.08936 -2.97602,-3.9707 -5.1524,-6.7231 -7.66969,-9.6996 -0.70337,-0.83131 -3.27808,-4.0961 -5.7221,-7.25509 -2.4441,-3.15899 -5.79051,-7.30478 -7.43662,-9.21286 l -2.99279,-3.46925 -4.46267,6.7945 c -6.42084,9.77572 -10.91657,17.63336 -14.7135,25.71632 -1.82805,3.89159 -4.07792,8.57294 -4.99958,10.40302 -0.92174,1.83008 -1.85869,4.0556 -2.08206,4.9456 -0.62982,2.50847 -1.89239,3.41632 -4.4124,3.17211 -2.53121,-0.24529 -6.21874,-3.4067 -6.25073,-5.35896 -0.007,-0.64289 0.52342,-2.68341 1.18595,-4.53444 1.84933,-5.16443 12.63193,-25.68618 16.66351,-31.7145 1.9768,-2.956 4.06735,-6.08476 4.64562,-6.95281 0.57841,-0.86804 1.24565,-1.98636 1.48294,-2.48515 0.23707,-0.49878 1.13546,-1.99515 1.99579,-3.32525 0.86033,-1.3301 2.00765,-3.40202 2.54957,-4.60428 l 0.98522,-2.1859 -2.40782,-2.95312 c -1.32434,-1.62421 -4.61184,-5.34707 -7.30558,-8.27303 -2.69382,-2.92594 -5.60142,-6.28726 -6.4614,-7.46957 -2.56399,-3.5251 -15.73041,-16.940201 -20.64424,-21.034082 -7.98489,-6.652501 -8.08279,-6.771118 -7.89527,-9.564744 0.17995,-2.680408 9.20933,-4.962585 10.13107,-2.560627 0.19137,0.498787 0.70051,0.906887 1.13203,0.906887 1.07042,0 4.89726,3.503682 15.65173,14.330092 10.43227,10.502064 12.07102,12.261374 14.53497,15.604154 0.97751,1.32626 2.56692,3.22758 3.53186,4.22516 0.96501,0.99758 2.59191,2.97006 3.61527,4.38329 1.02349,1.41323 2.04456,2.56951 2.26914,2.56951 0.50058,0 2.36955,-2.02847 3.2628,-3.5419 2.277,-3.85751 8.07136,-12.06384 11.80017,-16.71191 6.03772,-7.52628 11.58794,-14.152931 13.11737,-15.661398 1.52314,-1.502277 7.07571,-8.178571 9.49096,-11.411723 3.83221,-5.129953 5.14041,-5.511717 9.68934,-2.827745 1.91424,1.12941 2.20709,1.602298 2.20709,3.563451 0,2.427937 -1.17538,4.142396 -6.94754,10.133755 -1.66553,1.728784 -4.38855,4.960365 -6.05115,7.181281 -1.6626,2.220916 -3.58399,4.615379 -4.26979,5.321029 -2.51594,2.58885 -7.45083,8.6562 -10.63272,13.07252 -1.79685,2.49394 -4.7618,6.57493 -6.58878,9.06887 -4.82407,6.58498 -7.92812,11.48723 -7.27374,11.48723 0.31349,0 0.74222,0.54249 0.95266,1.20561 0.21066,0.6631 0.73651,1.55943 1.16896,1.99188 0.43274,0.43245 2.08034,2.67862 3.66197,4.99145 1.58162,2.31285 3.59056,5.06405 4.46431,6.11377 2.48066,2.98038 7.33222,9.63421 7.33222,10.05606 0,0.20916 0.68052,1.13948 1.51235,2.06747 3.20339,3.57384 5.13813,6.10444 5.13813,6.72066 0,0.3529 0.47629,0.99716 1.05805,1.43167 1.0927,0.81592 4.38327,5.38627 4.38327,6.08805 0,0.98283 3.39597,5.88691 4.07656,5.88691 0.41774,0 0.76014,0.502 0.76014,1.11547 0,0.61355 0.51914,1.58542 1.15396,2.15979 0.63483,0.57434 1.48387,1.84083 1.88712,2.81435 0.40345,0.97354 0.97222,1.77008 1.26442,1.77008 0.29206,0 0.53128,0.40809 0.53128,0.90688 0,0.49879 0.28706,0.90689 0.63768,0.90689 0.95102,0 3.58163,6.35571 3.27965,7.92372 -0.23137,1.20186 -1.23666,2.32165 -2.1037,2.3434 -0.16638,0.004 -2.81891,-2.3264 -5.89476,-5.17905 z"
         id="path901-9"
         sodipodi:nodetypes="ssssssscsssssccssssscssssssssssssssssssssssssssssssssssssssssssss" />
      <path
         style="fill:#000000;stroke-width:0.0846667"
         id="path881"
         d="" />
    </g>
  </g>
</svg>
