<?xml version="1.0" encoding="UTF-8" standalone="no"?>
<!-- Created with Inkscape (http://www.inkscape.org/) -->

<svg
   width="86.797684mm"
   height="120.1469mm"
   viewBox="0 0 86.797684 120.1469"
   version="1.1"
   id="svg5"
   inkscape:version="1.1.1 (c3084ef, 2021-09-22)"
   sodipodi:docname="music copy 6.svg"
   xmlns:inkscape="http://www.inkscape.org/namespaces/inkscape"
   xmlns:sodipodi="http://sodipodi.sourceforge.net/DTD/sodipodi-0.dtd"
   xmlns="http://www.w3.org/2000/svg"
   xmlns:svg="http://www.w3.org/2000/svg">
  <sodipodi:namedview
     id="namedview7"
     pagecolor="#ffffff"
     bordercolor="#666666"
     borderopacity="1.0"
     inkscape:pageshadow="2"
     inkscape:pageopacity="0.0"
     inkscape:pagecheckerboard="0"
     inkscape:document-units="mm"
     showgrid="false"
     inkscape:zoom="2.611877"
     inkscape:cx="168.84409"
     inkscape:cy="313.75903"
     inkscape:window-width="1946"
     inkscape:window-height="1223"
     inkscape:window-x="0"
     inkscape:window-y="25"
     inkscape:window-maximized="0"
     inkscape:current-layer="layer1" />
  <defs
     id="defs2" />
  <g
     inkscape:label="Layer 1"
     inkscape:groupmode="layer"
     id="layer1"
     transform="translate(-70.023434,-64.001781)">
    <g
       id="g2155">
      <path
         id="path836-4"
         style="fill:#009900;fill-opacity:0.516216;stroke-width:0.572765"
         transform="scale(0.26458333)"
         d="m 302.45508,252.02148 c -1.12978,0.0178 -2.38641,0.20119 -3.73633,0.56055 -0.093,0.0249 -0.28686,0.0401 -0.39063,0.0644 v 14.41211 c 0.45704,1.17129 0.70365,1.8654 1.18165,3.05469 1.22642,3.05155 2.22851,5.82378 2.22851,6.16016 0,0.33649 0.59434,1.84294 1.32031,3.34765 0.72593,1.50489 1.92646,4.6611 2.66797,7.01368 0.74143,2.35272 1.59652,4.60043 1.90039,4.99414 0.38442,0.49833 0.29808,0.71679 -0.28711,0.71679 -1.37261,0 -2.56388,1.77439 -3.84375,5.72657 -1.36645,4.21954 -1.59812,4.61826 -3.18945,5.51367 -1.0825,0.61024 -1.13864,1.17246 -1.02148,10.5957 0.0682,5.47328 0.50966,15.49272 0.98046,22.26563 1.39903,20.11808 1.7583,27.92934 2.35157,51.26367 0.15224,5.98533 0.39387,11.65454 0.53711,12.59961 0.14309,0.94507 0.678,7.38385 1.18945,14.30859 0.5114,6.92462 1.01199,12.72502 1.11328,12.88867 0.10148,0.16366 0.34689,2.35917 0.54492,4.87891 0.40006,5.08271 0.90663,9.70818 1.25586,11.45508 0.70383,3.52312 2.4665,17.10042 2.83399,21.42968 0.092,0.26947 0.63542,1.87487 0.96875,2.85938 0.30108,-0.0469 0.62348,-0.0762 0.97461,-0.0762 h 1.5332 6.13867 l -0.084,-1.91797 c -0.13025,-2.99161 -1.80727,-16.31827 -2.11719,-16.82227 -0.10825,-0.17688 -0.36956,-1.73809 -0.58008,-3.4707 -0.21075,-1.73265 -0.73756,-5.34185 -1.17187,-8.01953 -0.43394,-2.67768 -0.92959,-7.05861 -1.10157,-9.73633 -0.17208,-2.67753 -0.5894,-7.57508 -0.92578,-10.88281 -0.33634,-3.30773 -0.85463,-8.59195 -1.15234,-11.74219 -0.5387,-5.69699 -1.50261,-25.62286 -1.95313,-40.38086 -0.25905,-8.48716 -0.8532,-19.35926 -1.20507,-22.05078 -0.12314,-0.94507 -0.3616,-4.42473 -0.5293,-7.73242 -0.3114,-6.13236 -0.48785,-9.33592 -1.18555,-21.47852 -0.4873,-8.48096 -0.62971,-7.13341 1.35156,-12.88672 1.60336,-4.65622 1.76261,-4.88419 3.62305,-5.19336 4.54454,-0.75598 5.57168,-2.66986 3.42188,-6.37304 -0.60484,-1.0419 -1.60256,-3.43993 -2.2168,-5.33008 -0.61429,-1.8901 -1.92217,-4.92565 -2.9082,-6.74414 -0.98609,-1.81848 -1.79297,-3.59307 -1.79297,-3.94531 0,-0.35218 -0.49481,-1.69951 -1.09961,-2.99414 -1.53475,-3.28638 -1.96401,-4.53551 -1.83399,-5.34766 0.0617,-0.38615 -0.28323,-1.46915 -0.76757,-2.40625 -1.30775,-2.52873 -1.09388,-3.37544 1.08789,-4.28711 1.60468,-0.6706 1.94144,-1.0951 1.81445,-2.29102 -0.27931,-2.62108 -2.53643,-4.05353 -5.92578,-4 z m 230.05859,31.40235 c -2.2769,0.49448 -4.46827,1.1944 -6.48828,2.08789 -2.94452,1.30254 -6.0625,4.05694 -6.0625,5.35937 0,0.3131 -0.21958,0.61786 -0.49609,0.84766 v 27.14258 c 0.39469,0.80343 0.79856,1.66953 1.20898,2.26562 l 1.08399,1.57422 h -2.29297 v 7.80469 c 0.0779,-0.0181 0.58519,-0.0742 0.62109,-0.0879 0.57589,-0.21993 0.73633,1.48065 0.73633,7.88672 0,4.49178 0.16126,14.99778 0.35742,23.3457 0.9055,38.47603 1.29216,57.62195 1.32617,65.15039 0.0189,4.48834 0.24297,8.16211 0.49805,8.16211 0.25512,6.8e-4 0.29564,0.26908 0.0957,0.5957 -0.54531,0.8826 -0.37753,17.06679 0.61524,59.25977 0.1406,5.98533 0.49005,14.48998 0.77343,18.90039 0.28347,4.41022 0.5514,9.56497 0.5918,11.45508 0.0431,1.89014 0.32687,7.43164 0.63086,12.31445 0.30425,4.88285 0.6864,12.61581 0.85156,17.1836 0.16517,4.56778 0.41765,10.23695 0.56055,12.5996 0.14211,2.36266 0.40737,7.13244 0.58984,10.59766 0.18255,3.46518 0.44152,6.83539 0.57422,7.49024 0.13304,0.65487 0.38962,3.49047 0.57032,6.30078 0.18062,2.81026 0.56975,6.3975 0.86523,7.97265 0.29594,1.57512 0.50472,3.37995 0.4707,4.00977 -0.0378,0.63008 0.22261,3.33603 0.57422,6.01367 0.72019,5.48402 1.70531,14.61018 2.13281,19.76172 0.15685,1.89014 0.67164,6.22418 1.14454,9.63086 0.47285,3.40668 0.97217,9.59228 1.10937,13.74609 0.31446,9.52422 0.77361,13.42117 1.82031,15.47852 0.69339,1.36301 1.07122,1.56676 2.33203,1.25 1.89563,-0.47577 3.86447,-2.57278 4.4043,-4.6875 0.85629,-3.35528 0.91748,-4.08318 0.91797,-11.07617 6e-4,-8.13283 -0.41391,-14.57872 -1.15625,-17.9961 -0.27931,-1.28576 -0.6715,-4.01295 -0.87109,-6.06055 -0.19994,-2.04759 -0.59671,-5.14039 -0.88282,-6.87304 -0.28611,-1.73261 -0.66847,-4.95507 -0.84765,-7.16016 -0.1784,-2.20516 -0.54905,-4.91111 -0.82227,-6.01367 -0.27364,-1.1026 -0.66504,-4.58226 -0.86914,-7.73242 -0.39919,-6.14986 -0.4804,-6.89243 -1.38476,-12.76563 -1.19169,-7.73892 -1.91527,-17.79532 -2.62696,-36.49218 -0.15609,-4.09524 -0.4208,-10.79532 -0.58789,-14.89063 -0.16705,-4.09519 -0.45225,-11.69531 -0.63476,-16.88672 -0.18256,-5.19148 -0.44859,-9.62731 -0.5918,-9.85937 -0.4464,-0.7222 -0.76271,-16.22016 -1.61719,-79.2168 -0.38993,-28.73934 -0.85609,-48.27289 -1.46289,-61.28516 -0.27893,-5.98545 -0.62724,-14.74929 -0.77344,-19.47461 -0.35716,-11.56327 -0.96131,-19.25984 -1.60742,-20.48437 -0.40191,-0.76191 -0.28013,-1.10413 0.49414,-1.38672 0.56478,-0.20655 1.61065,-0.94492 2.32422,-1.64062 1.46279,-1.42621 1.31323,-2.35836 -0.84375,-5.2754 -1.33311,-1.80268 -2.10008,-3.98819 -3.97461,-11.30664 -0.86989,-3.39654 -0.81988,-9.69526 0.125,-15.56445 l 0.38477,-2.39258 4.36914,-0.98633 c 4.52171,-1.01994 10.52495,-1.12763 10.86133,-0.19531 0.10544,0.29292 0.49276,0.34465 0.85937,0.11524 0.58462,-0.36526 8.92633,-0.76984 14.69922,-0.70899 3.92999,0.0402 16.02789,3.81019 16.04297,4.99805 0,0.22817 0.96731,1.05352 2.14648,1.83203 1.17922,0.77839 3.09095,2.41028 4.24805,3.62695 1.81701,1.91028 2.40397,2.19158 4.29687,2.06055 1.2056,-0.0835 2.69561,-0.40045 3.3125,-0.70508 1.38233,-0.68123 3.12976,-2.71579 3.15625,-3.67383 0.0113,-0.39114 0.53417,-1.03203 1.16407,-1.42578 1.12788,-0.70488 1.51154,-2.174 0.76172,-2.92383 -0.21128,-0.21097 -0.97399,0.002 -1.69532,0.47461 -2.53859,1.6633 -5.20907,-0.69552 -5.72656,-5.06054 -0.30576,-2.57805 -1.68056,-5.18129 -2.47656,-4.68946 -0.26986,0.16797 -0.37999,-0.14596 -0.24219,-0.69726 0.065,-0.26022 -0.18369,-0.87107 -0.56641,-1.61914 h -13.11914 c -0.0113,0.0407 -8.8e-4,0.10008 -0.0234,0.12695 -0.12851,0.12866 -0.77601,0.0431 -1.51563,-0.12695 z m -75.01758,10.19336 c -0.84552,-0.0296 -1.65644,-0.0287 -2.33984,0.01 -0.91132,0.0502 -1.59445,0.16512 -1.82617,0.35743 -0.38517,0.32004 -1.85091,0.50054 -3.25391,0.40039 -2.49721,-0.17787 -7.66257,0.99769 -8.93359,2.0332 -0.35263,0.29102 -1.25578,0.42694 -2.00586,0.31055 -2.3198,-0.36072 -3.87887,0.81066 -5.35156,4.02734 -1.78379,3.89662 -2.65977,4.75976 -4.84766,4.75976 -1.24142,0 -1.62073,-0.13712 -1.75781,-0.98828 h -15.19531 c 0.69735,1.58948 1.5816,2.81071 2.9414,4.31641 l 2.22852,2.46484 6.87109,-0.0273 c 3.78032,-0.0144 7.844,-0.14632 9.0293,-0.29297 2.85959,-0.35482 5.8332,-2.70949 7.4082,-5.86328 0.70432,-1.4101 1.7656,-2.8227 2.35547,-3.13867 0.58972,-0.31586 5.75001,-0.63208 11.4707,-0.70313 8.48621,-0.10586 11.2793,-0.0246 13.83203,1.72852 v -7.45508 c -0.23659,-0.0246 -0.44392,-0.0753 -0.6914,-0.0918 -1.72211,-0.11467 -3.50048,-0.51696 -3.95508,-0.89453 -0.59956,-0.49742 -3.44195,-0.86443 -5.97852,-0.95312 z m -128.03711,174.3125 c -0.74959,-0.01 -1.53738,0.0314 -2.31836,0.0645 0.008,0.0181 0.0163,0.0369 0.0195,0.0605 0.0268,0.19972 0.0233,0.39975 0.0293,0.59961 l 1.3418,-0.19336 c 0.30486,-0.0435 0.59333,-0.0644 0.86523,-0.0664 2.34621,-0.0174 3.44951,1.4215 3.09571,2.77149 0.0165,0.02 0.0547,-0.002 0.0684,0.0234 0.60253,1.12724 0.57643,2.46299 0.64648,3.76758 0.0411,0.25927 0.0615,0.51932 0.0586,0.78125 0.0137,0.12682 0.0297,0.25196 0.0488,0.37695 0.22435,1.46506 0.10113,1.17289 -0.14843,0.18555 -0.26755,0.28122 -1.12986,-0.0187 -1.61719,0.0527 -0.14385,0.0211 -0.28781,0.043 -0.43164,0.0645 0.88473,0.0157 1.55273,0.0873 1.55273,0.24219 0,0.85757 -2.80397,7.7565 -5.57617,13.72461 -1.59201,3.42735 -2.39544,4.88496 -3.17773,5.5957 l 1.98242,19.2832 c 1.00771,0.29745 2.06151,0.42811 3.28515,0.28321 2.61786,-0.30993 2.61884,-0.30731 2.67969,1.50781 0.0333,0.99968 0.34202,3.3638 0.68555,5.2539 1.08734,5.98591 2.47831,20.90519 3.2832,35.21289 0.20625,3.66671 0.60153,6.17095 1.01758,6.43555 0.43237,0.27477 0.45434,0.43385 0.0606,0.44141 -0.3408,0.004 -0.56765,0.58802 -0.5,1.29687 0.0663,0.7087 0.28652,3.99696 0.49023,7.30469 0.20292,3.30773 0.48926,7.68873 0.63477,9.73633 0.14543,2.04763 0.40383,6.4286 0.57617,9.73633 0.17227,3.30773 0.55645,8.84919 0.85351,12.31445 0.29723,3.46522 0.6779,8.36266 0.84571,10.88281 0.16777,2.52019 0.56249,7.0307 0.87695,10.02344 0.9007,8.57518 1.01418,10.08502 1.41602,18.90039 0.34148,7.49401 0.4935,8.39701 1.57226,9.23633 1.11133,0.86468 1.17042,1.2995 0.82422,6.17773 -0.30421,4.28504 -0.96498,6.74285 -2.74609,9.41992 l 0.0605,0.5918 -0.49023,0.0332 c -1.12922,1.55335 -2.54125,3.20046 -4.75586,5.41602 -7.79392,7.79735 -11.21728,8.90366 -19.80078,6.4043 -1.02379,-0.29783 -1.86536,-0.36665 -1.86914,-0.15235 -0.005,0.21468 -0.19839,0.12223 -0.42969,-0.20508 -0.2315,-0.32726 -1.22798,-1.0991 -2.21484,-1.71679 -2.04163,-1.27839 -5.30466,-4.18919 -8.51758,-7.25 l -5.40821,0.35937 v 5.69727 c 3.17008,3.37723 6.71909,6.71151 8.85352,8.06836 1.57508,1.00135 4.41064,2.27591 6.30078,2.83203 1.88731,0.55449 3.68283,1.09267 4.00196,1.19922 0.31502,0.10545 2.42882,0.20987 4.69726,0.23633 4.42805,0.0484 8.83902,-0.71181 12.14648,-2.09375 1.13202,-0.47324 2.12503,-0.82169 2.20704,-0.78125 1.22875,0.65166 10.63593,-7.72506 14.49218,-12.9043 3.25357,-4.36981 4.79679,-11.48829 3.74219,-17.26367 -0.32836,-1.79845 -0.94515,-2.82544 -2.33398,-3.88477 -1.58679,-1.20998 -1.89902,-1.8259 -1.93946,-3.85547 -0.14955,-7.0879 -0.71567,-15.47543 -1.49804,-22.17578 -0.20225,-1.73261 -0.46859,-4.43851 -0.5918,-6.01367 -0.46674,-5.95827 -0.86353,-10.42268 -1.2207,-13.74609 -0.20364,-1.89011 -0.4575,-6.14345 -0.56446,-9.45118 -0.10696,-3.30772 -0.30617,-8.07555 -0.44336,-10.5957 -0.13731,-2.52015 -0.38163,-8.32085 -0.54101,-12.88867 -0.15965,-4.56782 -0.42626,-9.59296 -0.5918,-11.16797 -0.42138,-4.00169 -1.63489,-19.77541 -1.63867,-21.33594 -0.003,-0.70896 -0.18761,-1.28906 -0.41211,-1.28906 -0.22507,0 -0.39818,-1.86845 -0.39062,-4.15234 0.0181,-4.16572 -0.53403,-11.49742 -1.06641,-14.17578 -0.15696,-0.78758 -0.41314,-2.51315 -0.57227,-3.83594 -0.49251,-4.09848 -1.16725,-5.22662 -3.375,-5.64063 -1.72596,-0.3239 -2.02226,-0.62173 -2.17382,-2.17968 -0.16623,-1.71187 -0.31326,-1.81291 -2.85157,-1.97657 -2.41281,-0.15571 -2.73485,-0.34693 -3.29297,-1.94726 -1.09901,-3.15254 -0.50135,-9.6211 0.88868,-9.6211 0.43121,0 0.7832,-0.37343 0.7832,-0.83007 0,-0.45691 0.34674,-1.03735 0.76953,-1.28907 0.42281,-0.25209 1.24502,-1.55375 1.82813,-2.89258 0.58295,-1.3387 1.21864,-2.43359 1.4121,-2.43359 0.19378,0 0.83087,-1.09669 1.41602,-2.43555 0.58526,-1.33882 1.67081,-3.40066 2.41016,-4.58203 0.73928,-1.18129 1.16004,-2.14648 0.93554,-2.14648 -0.22401,0 -0.0988,-0.30917 0.2793,-0.6875 1.05622,-1.05642 0.85389,-5.36493 -0.30664,-6.52539 -0.54675,-0.54645 -0.93182,-1.53189 -0.85547,-2.18946 0.21555,-1.86171 -0.60146,-2.62436 -3.64258,-3.39648 -1.53023,-0.38872 -3.5379,-0.5987 -5.73047,-0.62695 z m -3.18945,0.0879 c -0.16539,0.0103 -0.32642,0.0249 -0.49219,0.0371 h 0.23438 c 0.0756,0 0.16413,-0.0161 0.25781,-0.0371 z m 3.67969,54.17969 c -0.002,8.6e-4 -0.004,5e-4 -0.006,0.002 10e-4,0.002 0.005,0.004 0.006,0.008 3.6e-4,-0.002 -8e-5,-0.006 0,-0.01 z m 211.2832,147.87109 c -1.54972,0.16058 -3.30338,1.97809 -5.35351,5.50391 -1.92152,3.30481 -5.11713,6.21438 -8.77344,7.98437 -3.34477,1.61941 -5.3541,1.69293 -11.14649,0.41016 -5.63569,-1.24797 -7.21746,-1.54185 -10.30859,-1.91602 -3.66988,-0.44409 -8.32263,-2.83048 -11.36133,-5.82617 -1.16889,-1.15249 -1.82287,-1.90815 -2.21484,-2.68359 h -8.91992 c -0.0711,0.13379 -0.14014,0.27118 -0.24219,0.35546 -2.36712,1.96449 1.12238,6.97409 8.08008,11.60352 6.77019,4.50478 8.8826,5.3924 15.22461,6.39258 1.8387,0.28989 3.32639,0.70714 11.74218,3.29687 v 0.002 c 2.90208,0.8928 8.45142,1.08736 10.02344,0.35156 6.32349,-2.9593 11.98656,-6.1657 13.45313,-7.61719 1.60399,-1.58732 2.49286,-2.96833 4.37695,-6.79687 0.82851,-1.68303 1.54879,-5.60352 1.0293,-5.60352 -0.27213,0 -0.34548,-0.38716 -0.16407,-0.85937 0.18142,-0.47218 0.0438,-0.85942 -0.30468,-0.85938 -0.34848,-4e-5 -0.63477,-0.40147 -0.63477,-0.89258 0,-0.49171 -0.21923,-0.75696 -0.48633,-0.59179 -0.26759,0.16554 -1.04994,-0.35076 -1.74023,-1.14454 -0.5184,-0.59618 -1.05783,-0.95632 -1.62695,-1.07617 -0.21332,-0.0445 -0.43096,-0.0561 -0.65235,-0.0332 z" />
      <path
         style="fill:#000000;stroke-width:0.151544"
         d="m 135.98538,182.3486 c -2.22668,-0.6852 -2.62015,-0.79571 -3.10666,-0.87243 -1.67797,-0.26463 -2.23717,-0.49938 -4.02844,-1.69127 -1.84089,-1.22487 -2.76381,-2.55061 -2.13753,-3.07038 0.15053,-0.12493 0.1713,-0.42332 0.0856,-1.22554 -0.0623,-0.58325 -0.15661,-2.58022 -0.20949,-4.43769 -0.053,-1.85748 -0.12744,-3.85461 -0.16574,-4.43804 -0.0848,-1.29515 -0.0814,-5.37548 0.005,-5.51464 0.1167,-0.18885 0.54185,-7.90474 0.62354,-11.31686 0.0261,-1.0891 0.11849,-2.65758 0.20548,-3.48553 0.25021,-2.38286 0.33437,-3.79708 0.38859,-6.53114 0.0279,-1.40329 0.10864,-4.01761 0.17938,-5.80961 0.0709,-1.792 0.12422,-4.00834 0.11885,-4.92519 -0.20571,-34.424118 -0.2585,-36.983843 -0.85226,-41.334838 -0.19338,-1.41686 -0.16073,-1.526509 0.50178,-1.68214 0.57475,-0.135137 1.37177,0.445611 1.61196,1.17433 0.10489,0.318243 0.2314,1.338678 0.2811,2.267614 0.0498,0.928954 0.11044,2.029953 0.13478,2.446711 0.0415,0.708547 0.15322,4.244013 0.30147,9.547283 0.0349,1.25024 0.10167,5.71701 0.14838,9.92615 0.0465,4.20913 0.12655,9.69882 0.17774,12.1993 0.12995,6.3534 0.12977,5.93338 0.002,10.45655 -0.17523,6.15547 -0.37868,10.62716 -0.54117,11.89623 -0.08,0.62512 -0.18898,2.43167 -0.2421,4.01458 -0.0616,1.83654 -0.16091,2.95757 -0.27423,3.09786 -0.11742,0.14516 -0.12028,0.18556 -0.009,0.11885 0.11777,-0.0705 0.15393,0.13853 0.11956,0.69075 -0.0272,0.43548 -0.0879,1.67835 -0.13495,2.76189 -0.0852,1.95691 -0.244,4.57212 -0.31302,5.15249 -0.0897,0.75427 0.0161,12.50312 0.12851,14.18626 0.0399,0.60054 0.14373,0.79466 0.7379,1.38051 0.80401,0.7926 2.03506,1.4238 3.00606,1.54129 0.81785,0.099 1.23667,0.17684 2.72779,0.50702 1.53256,0.3394 2.06362,0.31986 2.9486,-0.10864 0.9674,-0.46831 1.81307,-1.23771 2.32147,-2.11211 0.82715,-1.42255 1.4721,-1.79363 2.0207,-1.16268 0.18266,0.21006 0.39003,0.34617 0.46083,0.3024 0.0707,-0.0437 0.12869,0.0267 0.12869,0.1568 0,0.12994 0.0755,0.23625 0.16771,0.23625 0.0922,0 0.12852,0.10238 0.0805,0.22731 -0.048,0.12494 -0.0285,0.22732 0.0435,0.22732 0.13746,0 -0.0528,1.03737 -0.27201,1.48267 -0.4985,1.01297 -0.73378,1.37831 -1.15817,1.79829 -0.38805,0.38404 -1.88633,1.23238 -3.55943,2.01536 -0.41593,0.19466 -1.8842,0.14302 -2.65203,-0.0932 z m -53.040452,-1.186 c -0.08341,-0.0279 -0.56072,-0.17111 -1.060815,-0.31804 -0.500096,-0.14713 -1.25024,-0.48408 -1.666981,-0.74902 -1.092514,-0.69451 -3.615098,-3.35821 -4.01811,-4.2429 -0.784241,-1.72152 -0.877513,-2.70872 -0.353701,-3.74365 0.195331,-0.38596 0.183142,-2.05559 -0.0179,-2.38004 -0.03991,-0.0646 -0.111331,-0.51921 -0.158763,-1.01034 -0.04743,-0.49116 -0.151246,-1.38888 -0.230664,-1.99494 -0.07947,-0.60606 -0.130483,-1.15162 -0.1133,-1.21235 0.02739,-0.0974 -0.278417,-3.34644 -0.398555,-4.23542 -0.02506,-0.18502 0.01253,-0.30033 0.08413,-0.25626 0.07124,0.044 0.129588,0.007 0.129588,-0.0804 0,-0.0882 -0.06068,-0.16055 -0.134958,-0.16055 -0.07428,0 -0.16288,-0.23868 -0.196888,-0.5304 -0.03598,-0.30772 0.0054,-0.53138 0.09701,-0.53272 0.08753,-0.002 0.07464,-0.0558 -0.02864,-0.12154 -0.119207,-0.0757 -0.242799,-0.83527 -0.338791,-2.08141 -0.08323,-1.07923 -0.216058,-2.4737 -0.29535,-3.09882 -0.07929,-0.62512 -0.183034,-2.09131 -0.230484,-3.2582 -0.04743,-1.1669 -0.120639,-2.4967 -0.162701,-2.95511 -0.194401,-2.12242 -0.200737,-2.87936 -0.02416,-2.88167 0.131199,-0.002 0.13281,-0.0319 0.0054,-0.11366 -0.209418,-0.13549 -0.585939,-5.25754 -0.449299,-6.11207 0.126008,-0.78816 0.534856,-1.61543 0.833266,-1.68617 0.822903,-0.19504 1.101607,0.3227 1.160387,2.15555 0.101487,3.16573 0.299557,6.06201 0.761582,11.1385 0.121354,1.33358 0.246861,3.03845 0.278865,3.78859 0.06461,1.5133 0.214339,2.94364 0.327353,3.1265 0.04045,0.0657 0.110436,0.54826 0.155363,1.07263 0.04493,0.52436 0.138895,1.13343 0.20854,1.35351 0.07643,0.24114 0.06676,0.46008 -0.02416,0.55108 -0.148203,0.1482 -0.05334,0.94706 0.310744,2.61811 0.08269,0.37949 0.137821,1.21489 0.122607,1.85645 -0.01611,0.64157 0.02398,1.18373 0.08735,1.20482 0.06336,0.0211 0.147845,0.37906 0.187813,0.79555 0.04009,0.41649 0.184395,1.48375 0.320856,2.37171 0.296102,1.92664 0.193183,2.30639 -0.785351,2.89743 -0.540798,0.32665 -0.624207,0.44282 -0.559806,0.77967 0.0417,0.21771 0.135674,0.43294 0.209113,0.4783 0.07339,0.0453 0.134421,0.1978 0.135853,0.33874 0.0036,0.43619 3.212963,3.56872 4.448114,4.34213 0.261109,0.16342 0.524832,0.36807 0.586082,0.45463 0.06121,0.0866 0.112406,0.11098 0.113658,0.0542 0.0015,-0.0567 0.223952,-0.0385 0.494834,0.0403 2.271051,0.66129 3.176951,0.36825 5.239086,-1.69479 1.694007,-1.69475 1.965784,-2.22457 2.098236,-4.09048 0.09164,-1.29069 0.07625,-1.40587 -0.21774,-1.63464 -0.285416,-0.22207 -0.326101,-0.46072 -0.416454,-2.4435 -0.10632,-2.33241 -0.136211,-2.7321 -0.374517,-5.00096 -0.08323,-0.79182 -0.187509,-1.98523 -0.231899,-2.65203 -0.04439,-0.66679 -0.144981,-1.96249 -0.223629,-2.87933 -0.07858,-0.91685 -0.180242,-2.38304 -0.225831,-3.25821 -0.04564,-0.87517 -0.114374,-2.03448 -0.152856,-2.57625 -0.03848,-0.54176 -0.114016,-1.70107 -0.167713,-2.57624 -0.05388,-0.87517 -0.112047,-1.74466 -0.129588,-1.93219 -0.0179,-0.18755 0.04206,-0.34203 0.132273,-0.3433 0.104171,-0.002 0.09826,-0.0442 -0.01611,-0.11688 -0.110079,-0.07 -0.214877,-0.73241 -0.269451,-1.70255 -0.212961,-3.78557 -0.581034,-7.73301 -0.868724,-9.31678 -0.09093,-0.50009 -0.172366,-1.12568 -0.181173,-1.39017 -0.01611,-0.48028 -0.01611,-0.48079 -0.708743,-0.39884 -0.833195,0.0986 -1.404475,-0.15751 -2.088339,-0.93631 -0.329,-0.37474 -0.477113,-0.69871 -0.477113,-1.0436 v -0.50019 l -1.40179,-0.0419 c -0.770978,-0.0231 -1.674569,-0.049 -2.007955,-0.0576 -0.333403,-0.009 -1.263073,0.078 -2.065965,0.19261 l -1.459764,0.20821 0.207627,0.49693 c 0.231416,0.55387 0.149277,1.29875 -0.205927,1.86706 -0.208629,0.33381 -0.204423,0.38412 0.04743,0.56829 0.151962,0.11115 0.450838,0.2095 0.664104,0.2186 0.603659,0.0258 1.651247,0.10059 2.828226,0.20225 0.862549,0.0745 1.114799,0.0469 1.268819,-0.13871 0.254791,-0.30706 0.761295,-0.29831 0.761295,0.0125 0,0.20746 0.123681,0.22934 0.810696,0.14355 0.44588,-0.0557 1.092711,-0.12709 1.43739,-0.15859 0.34468,-0.0315 0.691203,-0.0972 0.770048,-0.14587 0.07876,-0.0487 0.184341,-0.0222 0.23444,0.0587 0.05012,0.0811 0.174156,0.11706 0.275679,0.0798 0.451554,-0.1652 0.832264,0.59113 0.511372,1.01605 -0.212102,0.28089 -1.726512,0.71902 -2.671289,0.77282 -0.564317,0.0322 -0.6091,0.0673 -0.609834,0.47857 0,0.40759 0.164849,1.06316 0.46181,1.82929 0.06462,0.16663 0.224686,1.08732 0.355706,2.04584 0.13102,0.95853 0.280744,1.91325 0.332776,2.12162 0.126725,0.50752 0.471512,2.67773 0.656783,4.13416 0.08251,0.64846 0.179186,1.22812 0.214895,1.28812 0.03562,0.06 0.109183,0.65465 0.163238,1.32144 0.05406,0.66679 0.125829,1.51922 0.1593,1.89429 0.07428,0.8332 0.204746,3.36856 0.304067,5.91023 0.07285,1.86455 0.135316,2.82751 0.31921,4.92519 0.05119,0.58345 0.112763,1.345 0.136747,1.69236 0.02416,0.34733 0.07679,0.6883 0.117238,0.75772 0.04045,0.0694 0.121892,0.53533 0.181119,1.03543 0.05925,0.5001 0.211476,1.38663 0.338469,1.97008 0.127082,0.58345 0.253037,1.2313 0.280118,1.43966 0.02703,0.20838 0.131736,0.88405 0.232722,1.50149 0.17004,1.04082 0.16288,1.13771 -0.09916,1.32937 -0.155542,0.11366 -0.369917,0.17326 -0.476487,0.13245 -0.106678,-0.041 -0.189138,-0.0254 -0.183446,0.0345 0.0054,0.06 0.534193,0.36675 1.174455,0.68191 2.145723,1.05618 2.368349,1.51495 0.749285,1.54394 -0.903126,0.0161 -2.246404,-0.40474 -4.147985,-1.29981 -0.689216,-0.32442 -1.449366,-0.58983 -1.689247,-0.58983 -0.239899,0 -0.836202,0.20459 -1.325129,0.45463 -0.488926,0.25005 -1.037761,0.45464 -1.21965,0.45464 -0.181871,0 -0.504069,0.13639 -0.715992,0.30308 -0.475002,0.37364 -0.827002,0.38841 -0.903842,0.0379 -0.09272,-0.42297 0.207323,-0.97197 0.475037,-0.86923 0.128514,0.0492 0.181835,0.0379 0.118491,-0.0254 -0.06318,-0.0632 0.08055,-0.22031 0.319424,-0.34899 0.238915,-0.12869 0.769081,-0.45728 1.178107,-0.7302 1.467855,-0.97947 2.750115,-1.04999 4.66811,-0.25676 0.241116,0.0997 0.266748,0.0666 0.174156,-0.22485 -0.0596,-0.18796 -0.164312,-0.69269 -0.23256,-1.12162 -0.0682,-0.42893 -0.225169,-1.35951 -0.348707,-2.06797 -0.155542,-0.89158 -0.177915,-1.37537 -0.07285,-1.57161 0.107573,-0.20099 0.103277,-0.25354 -0.01432,-0.18051 -0.09164,0.0566 -0.166997,0.082 -0.167534,0.0562 0,-0.0258 -0.07034,-0.45599 -0.155362,-0.95609 -0.289855,-1.70655 -0.617209,-5.62232 -0.836184,-10.00192 -0.171293,-3.42542 -0.592777,-8.24764 -0.900781,-10.30499 -0.112226,-0.75015 -0.312336,-2.11405 -0.444556,-3.0309 -0.132273,-0.91684 -0.315898,-2.17844 -0.40822,-2.80356 -0.09236,-0.62512 -0.202527,-1.51166 -0.244911,-1.97008 -0.04242,-0.45843 -0.08878,-0.84775 -0.102919,-0.8652 -0.01432,-0.0179 -0.53439,-0.0693 -1.155966,-0.11527 -0.621576,-0.046 -1.413442,-0.1201 -1.759679,-0.16485 l -0.629558,-0.0813 0.146234,0.65098 c 0.08037,0.35804 0.129409,0.96968 0.108646,1.35919 -0.02058,0.38952 0.03186,0.79878 0.116701,0.90947 0.08484,0.11061 0.238163,0.78087 0.340742,1.48935 0.102561,0.70847 0.247846,1.59501 0.322771,1.97008 0.075,0.37507 0.173083,1.02292 0.218206,1.43966 0.04511,0.41676 0.120102,1.06461 0.166639,1.43968 0.04654,0.37508 0.06354,0.7226 0.03777,0.77231 -0.02577,0.0498 0.04564,0.20181 0.158584,0.33804 0.193577,0.23325 0.232829,0.53813 0.383771,2.98135 0.03347,0.54176 0.09862,1.08732 0.144802,1.21234 0.04618,0.12512 0.224828,1.31844 0.39698,2.65203 0.172188,1.33358 0.342657,2.59519 0.378938,2.80357 0.436859,2.50873 0.557301,3.43698 0.674557,5.1987 0.07535,1.13324 0.174872,2.12138 0.220855,2.19586 0.07482,0.12099 0.285666,3.28248 0.270005,4.04702 -0.0036,0.16663 -0.0017,0.67817 0.0036,1.13658 0.0054,0.45842 0.01074,1.02611 0.01253,1.26153 0.0036,0.53103 -0.277738,0.8243 -0.910142,0.95077 -0.663979,0.13281 -0.734214,-0.10256 -0.863784,-2.89425 -0.05799,-1.25024 -0.166281,-2.68233 -0.240436,-3.18243 -0.07428,-0.5001 -0.207413,-1.7958 -0.295977,-2.87933 -0.215235,-2.63284 -0.297462,-3.37233 -0.454955,-4.09169 -0.26621,-1.21582 -0.572908,-3.75459 -0.851326,-7.04681 -0.06121,-0.72465 -0.30532,-3.12737 -0.969692,-9.54728 -0.09057,-0.87519 -0.22882,-2.37098 -0.307235,-3.32401 -0.0784,-0.95304 -0.194794,-1.77945 -0.258621,-1.83648 -0.0639,-0.0571 -0.446847,-0.22687 -0.851166,-0.37738 -0.441638,-0.16449 -0.796895,-0.40924 -0.889862,-0.61325 -0.08502,-0.18678 -0.282785,-0.37309 -0.439347,-0.41402 -0.184449,-0.0481 -0.284611,-0.21025 -0.284611,-0.46035 0,-0.53045 0.311262,-1.16856 0.514683,-1.05514 0.10453,0.0584 0.100771,0.0211 -0.01074,-0.099 -0.09773,-0.10578 -0.14158,-0.28622 -0.09737,-0.40108 0.04618,-0.12028 -0.01611,-0.20884 -0.147129,-0.20884 -0.269146,0 -0.4113,-0.31547 -0.4113,-0.91272 0,-0.23831 -0.063,-0.47221 -0.139969,-0.51975 -0.07697,-0.0476 -0.184645,-0.29027 -0.239344,-0.53935 -0.08001,-0.36406 -0.178811,-0.45334 -0.504195,-0.4552 -0.222591,-0.002 -0.483378,-0.0524 -0.579531,-0.11366 -0.143192,-0.0913 -1.22758,-1.79075 -2.445315,-3.8327 -0.26664,-0.44708 -0.147666,-1.20384 0.189371,-1.20384 0.11849,0 0.26417,-0.0788 0.32363,-0.17488 0.06283,-0.10166 0.04188,-0.13406 -0.04958,-0.0775 -0.274033,0.16932 -0.528806,-0.31046 -0.422307,-0.79534 0.116343,-0.52973 0.123323,-0.5324 2.20026,-0.84373 2.052684,-0.30767 2.657328,-0.45068 2.629262,-0.62178 -0.03168,-0.19279 -0.18128,-3.5036 -0.273406,-6.04899 -0.04224,-1.1669 -0.114911,-3.17865 -0.161627,-4.47056 -0.08234,-2.28005 -0.17881,-4.30865 -0.292468,-6.15034 -0.03043,-0.49306 -0.09826,-2.63544 -0.15053,-4.76084 -0.175052,-7.108058 -0.646617,-19.360441 -0.776652,-20.181912 -0.04851,-0.30634 -0.01253,-0.698917 0.08072,-0.872394 0.128693,-0.240364 0.114374,-0.486546 -0.05978,-1.034271 -0.12565,-0.395351 -0.305749,-1.035792 -0.400094,-1.423197 -0.122787,-0.503962 -0.355562,-0.879731 -0.818124,-1.3206 -0.746403,-0.711357 -1.004613,-1.494452 -0.592168,-1.796013 0.139254,-0.101845 0.302331,-0.155005 0.362256,-0.117954 0.225759,0.139432 0.589949,-0.489822 0.833839,-1.440953 0.138896,-0.541764 0.347132,-1.939759 0.462705,-3.106662 0.218331,-2.204717 0.600992,-4.015909 0.848427,-4.015909 0.07876,0 0.04224,-0.144265 -0.08126,-0.320713 -0.170398,-0.243246 -0.186292,-0.404855 -0.06587,-0.669097 0.200361,-0.439741 0.510495,-0.520554 2.016099,-0.525369 0.666788,-0.0018 1.569574,-0.09898 2.006182,-0.215199 1.428674,-0.380334 2.457737,-0.01432 2.55627,0.910357 0.03365,0.316417 -0.05531,0.42884 -0.47987,0.606272 -0.577258,0.241206 -0.634176,0.465158 -0.288172,1.134219 0.128156,0.247936 0.219727,0.534372 0.203403,0.636539 -0.03437,0.214877 0.07893,0.545166 0.484971,1.414695 0.160017,0.342532 0.290858,0.699007 0.290858,0.792189 0,0.09325 0.213462,0.563082 0.474357,1.044223 0.260894,0.481141 0.607346,1.283961 0.769868,1.784057 0.162522,0.500095 0.426424,1.134791 0.586458,1.410452 0.568792,0.979805 0.296729,1.486363 -0.905685,1.686383 -0.492238,0.0818 -0.53405,0.141759 -0.958272,1.373724 -0.524206,1.522232 -0.486797,1.165811 -0.357871,3.409727 0.184609,3.21273 0.231397,4.060388 0.313785,5.682907 0.04439,0.875167 0.107573,1.795798 0.140149,2.045846 0.09307,0.712127 0.250281,3.588895 0.318816,5.834458 0.119206,3.904721 0.374033,9.176505 0.516562,10.683865 0.07876,0.8335 0.216112,2.23149 0.305105,3.10666 0.08896,0.87517 0.199054,2.17087 0.244589,2.87933 0.04546,0.70847 0.176842,1.86779 0.291645,2.57626 0.114911,0.70846 0.254487,1.66319 0.310242,2.12162 0.05567,0.45842 0.124935,0.87176 0.153573,0.91853 0.08198,0.13335 0.525709,3.65958 0.560165,4.45111 l 0.03097,0.71139 0.762243,-0.1142 c 1.200069,-0.17972 2.515282,-0.1627 3.325029,0.043 0.804628,0.20432 1.02099,0.40604 0.963964,0.89863 -0.02023,0.17398 0.08162,0.43454 0.22626,0.57912 0.307056,0.30704 0.360556,1.44684 0.08108,1.72635 -0.100055,0.10006 -0.133168,0.18186 -0.07392,0.18186 0.05942,0 -0.05209,0.25574 -0.247703,0.56829 -0.195618,0.31257 -0.482394,0.85813 -0.637238,1.21236 -0.154825,0.35424 -0.323505,0.64406 -0.374767,0.64406 -0.05119,0 -0.219405,0.28984 -0.37364,0.64406 -0.154289,0.35423 -0.371922,0.69861 -0.48379,0.76527 -0.111868,0.0666 -0.203386,0.22008 -0.203386,0.34097 0,0.12082 -0.09343,0.21978 -0.207484,0.21978 -0.367787,0 -0.525816,1.71171 -0.235031,2.54582 0.147667,0.42345 0.232991,0.47393 0.871374,0.51515 0.671603,0.0433 0.710086,0.07 0.754063,0.52293 0.04009,0.41221 0.118491,0.49075 0.575146,0.57644 0.584131,0.10954 0.762727,0.40802 0.893031,1.49241 0.04206,0.34999 0.110257,0.80681 0.151783,1.01519 0.140864,0.70865 0.286508,2.64854 0.281747,3.75072 -0.0018,0.60428 0.04385,1.09869 0.103455,1.09869 0.05943,0 0.108647,0.15339 0.109363,0.34097 0.0015,0.41289 0.321966,4.58626 0.433458,5.64503 0.04385,0.41675 0.114374,1.74655 0.156616,2.95512 0.04224,1.20857 0.106498,2.74295 0.142833,3.40974 0.03634,0.66679 0.08932,1.92839 0.117596,2.80356 0.02828,0.87517 0.0954,2.00039 0.149277,2.50048 0.09451,0.87932 0.199358,2.0606 0.322843,3.63706 0.03258,0.41676 0.103097,1.13281 0.156615,1.59122 0.207001,1.77281 0.356994,3.99203 0.396569,5.86737 0.01074,0.53699 0.09325,0.69997 0.513036,1.02011 0.367465,0.28028 0.530775,0.55206 0.617656,1.0279 0.279027,1.52807 -0.12923,3.41157 -0.990078,4.56775 -1.020293,1.37034 -3.509495,3.58664 -3.834611,3.41422 -0.02166,-0.0107 -0.284539,0.0814 -0.584042,0.20661 -0.875114,0.36564 -2.042016,0.56679 -3.213608,0.55395 -0.600187,-0.007 -1.159438,-0.0347 -1.242794,-0.0626 z m -7.26655,-49.76848 c 0.07911,-0.0752 0.780894,-0.28923 1.559354,-0.4757 1.442868,-0.34567 2.578769,-0.35734 5.405152,-0.0557 l 0.910285,0.0972 0.19159,-0.52981 c 0.137464,-0.38037 0.308237,-0.55579 0.605127,-0.62195 0.349745,-0.0779 0.525065,-0.33222 1.135973,-1.64741 0.733479,-1.57906 1.474978,-3.40483 1.474978,-3.63173 0,-0.0686 -0.426209,-0.0906 -0.947139,-0.0489 -0.52093,0.0417 -1.765496,0.11115 -2.765688,0.15446 -1.898234,0.0822 -3.745223,0.33011 -4.214945,0.56586 -0.359535,0.18046 -3.354096,0.67572 -4.80194,0.79421 -0.62512,0.0512 -1.390191,0.12995 -1.700129,0.17505 l -0.563583,0.082 0.336267,0.47999 c 0.184913,0.26401 0.373747,0.5141 0.419568,0.55578 0.235693,0.21429 0.893031,1.8633 0.804396,2.01795 -0.05656,0.0986 -0.04707,0.12887 0.02112,0.0671 0.173083,-0.1568 0.530757,0.17111 0.530757,0.4866 0,0.22622 1.140197,1.6002 1.371469,1.65268 0.04582,0.0107 0.148203,-0.0426 0.227316,-0.11778 z m 3.547673,-8.43168 c 0.455098,-0.12172 1.051795,-0.22123 1.326006,-0.22123 0.487406,0 0.498557,-0.0143 0.498557,-0.66001 0,-0.54831 -0.607203,-5.20381 -0.813256,-6.23527 -0.09236,-0.4622 -0.226529,-1.68588 -0.332383,-3.03068 -0.05244,-0.66668 -0.117238,-1.24757 -0.144086,-1.29089 -0.02685,-0.0433 -0.1593,-1.57777 -0.294616,-3.40994 -0.135316,-1.83217 -0.27695,-3.5358 -0.314806,-3.78585 -0.03795,-0.25005 -0.101845,-1.75034 -0.142118,-3.33396 -0.156973,-6.173876 -0.251659,-8.240306 -0.621826,-13.563212 -0.124577,-1.792005 -0.241331,-4.443067 -0.259356,-5.891233 -0.03097,-2.49323 -0.01611,-2.642096 0.27031,-2.803562 0.421036,-0.23691 0.481928,-0.342245 0.843469,-1.458672 0.338629,-1.045673 0.653919,-1.51543 1.017088,-1.51543 0.154825,0 0.177915,-0.05764 0.07625,-0.189442 -0.08037,-0.104172 -0.306644,-0.698721 -0.502816,-1.321209 -0.19619,-0.622453 -0.513842,-1.457509 -0.705916,-1.855671 -0.192073,-0.398125 -0.349226,-0.796734 -0.349226,-0.885764 0,-0.08896 -0.265476,-0.822473 -0.589966,-1.629857 -0.324507,-0.807367 -0.685367,-1.740742 -0.801907,-2.074127 -0.181835,-0.520071 -0.274659,-0.606183 -0.653597,-0.606183 -0.384236,0 -0.465104,0.07876 -0.621845,0.606183 -0.09916,0.333385 -0.329304,0.947139 -0.511604,1.363898 -0.182301,0.41674 -0.359912,1.098689 -0.39469,1.515429 -0.09325,1.11752 -0.549962,3.896399 -0.709817,4.31901 -0.04725,0.125113 -0.20326,0.551251 -0.346577,0.947157 -0.14337,0.395906 -0.319513,0.719841 -0.391539,0.719841 -0.212657,0 -0.150709,0.303709 0.149814,0.734321 0.436304,0.625263 1.489334,3.348136 1.620765,4.190853 0.06497,0.416759 0.133705,0.834215 0.152857,0.927701 0.01915,0.09343 0.114553,1.627871 0.212138,3.409745 0.09755,1.781873 0.203117,3.546653 0.234566,3.921725 0.0315,0.375071 0.09916,2.489113 0.15035,4.697858 0.05119,2.208762 0.126367,4.129531 0.166639,4.268373 0.04045,0.138896 0.0089,0.291896 -0.06837,0.340097 -0.08234,0.05083 -0.09164,0.32619 -0.02237,0.656801 0.06569,0.31307 0.163059,2.10357 0.216523,3.97893 0.05334,1.87536 0.127619,3.75072 0.165028,4.16746 0.07034,0.78463 0.180063,3.20609 0.305606,6.74372 0.158048,4.45458 0.220354,5.89317 0.315684,7.29555 l 0.09934,1.46109 0.471994,-0.14123 c 0.259606,-0.0777 0.844328,-0.2407 1.299444,-0.36238 z m 61.790559,52.26461 c -0.27694,-0.54434 -0.39817,-1.57568 -0.48138,-4.09563 -0.0363,-1.09903 -0.16843,-2.73571 -0.29356,-3.63706 -0.12511,-0.90135 -0.26157,-2.04801 -0.3031,-2.54811 -0.11312,-1.36302 -0.37376,-3.7773 -0.5643,-5.22827 -0.0931,-0.70846 -0.16127,-1.42451 -0.15178,-1.59122 0.009,-0.16664 -0.0465,-0.64405 -0.12476,-1.06079 -0.0782,-0.41676 -0.18119,-1.36609 -0.229,-2.10964 -0.0478,-0.74356 -0.11562,-1.4937 -0.15088,-1.66698 -0.0351,-0.17326 -0.10328,-1.06522 -0.15161,-1.98208 -0.0483,-0.91683 -0.11867,-2.17844 -0.15625,-2.80356 -0.0378,-0.62512 -0.10436,-2.1254 -0.14803,-3.33398 -0.0437,-1.20855 -0.14516,-3.2544 -0.22563,-4.54632 -0.0804,-1.29191 -0.15554,-2.7581 -0.16682,-3.2582 -0.0107,-0.50009 -0.0818,-1.86399 -0.15679,-3.03087 -0.075,-1.16691 -0.167,-3.41734 -0.20418,-5.00096 -0.2627,-11.16356 -0.30716,-15.44566 -0.16288,-15.67917 0.0535,-0.0864 0.0421,-0.15733 -0.0254,-0.15751 -0.0675,0 -0.12673,-0.97195 -0.13174,-2.1595 -0.009,-1.99189 -0.11151,-7.05773 -0.35107,-17.237828 -0.0519,-2.208745 -0.0945,-4.988286 -0.0945,-6.176739 0,-1.694938 -0.0419,-2.144827 -0.19427,-2.086638 -0.10686,0.04081 -0.94068,0.157153 -1.85297,0.25864 -1.29028,0.143549 -1.95399,0.144444 -2.98815,0.0036 -2.37589,-0.322216 -2.68182,-0.357065 -3.52684,-0.401705 -1.18921,-0.06283 -1.41208,-0.184287 -1.3065,-0.712144 0.0766,-0.382805 0.0431,-0.432832 -0.28851,-0.432832 -0.71689,0 -1.03273,-0.590754 -1.81393,-3.392776 -0.19234,-0.689986 -0.4268,-1.078893 -1.03406,-1.715343 -1.25486,-1.315213 -1.39805,-1.356219 -4.59815,-1.316305 -1.51362,0.01879 -2.8797,0.102561 -3.03573,0.186131 -0.15608,0.08359 -0.43614,0.457085 -0.62247,0.83017 -0.41674,0.834448 -1.20402,1.45733 -1.96063,1.55121 -0.31362,0.03884 -1.38854,0.07392 -2.38873,0.07768 l -1.81853,0.0072 -0.58899,-0.652201 c -0.72308,-0.800655 -0.93931,-1.295936 -1.2628,-2.892448 -0.49949,-2.4652 -0.26412,-9.909325 0.35585,-11.25382 0.28788,-0.624333 0.92423,-0.971661 1.73741,-0.948339 0.36729,0.01074 1.64982,0.0015 2.85012,-0.02166 1.87439,-0.0349 2.20153,-0.0072 2.31855,0.202724 0.075,0.133883 0.23518,0.243496 0.35606,0.243496 0.12082,0 0.21979,0.06336 0.21979,0.140686 0,0.07732 0.0879,0.230824 0.19517,0.340974 0.48699,0.499631 1.00194,2.290328 0.58445,2.032315 -0.0714,-0.04403 -0.0975,0.08824 -0.0582,0.294133 0.0612,0.320319 0.15518,0.374285 0.65139,0.374285 0.53908,0 1.39972,-0.37654 1.98086,-0.866648 0.30992,-0.26136 1.35831,-0.80035 1.55677,-0.80035 0.0816,0 0.59819,-0.267106 1.14772,-0.593582 0.54953,-0.326477 1.44004,-0.704251 1.97889,-0.839513 0.53885,-0.135316 1.15101,-0.312963 1.36034,-0.394868 0.20935,-0.08198 0.72081,-0.208791 1.13658,-0.281908 1.72855,-0.304031 4.03803,-0.766307 4.13854,-0.828434 0.23497,-0.14516 1.59612,0.225813 1.83383,0.499899 0.27244,0.314144 0.75501,0.373568 4.40666,0.542731 4.60459,0.213301 5.55787,0.399325 8.78957,1.715146 1.77523,0.722812 3.66437,1.951716 5.16373,3.359073 0.1355,0.127261 0.3759,0.33743 0.53428,0.467251 0.77123,0.632136 2.36109,2.874799 2.27687,3.2118 -0.0365,0.145876 -0.007,0.229035 0.0644,0.184592 0.2106,-0.130126 0.57434,0.558589 0.65524,1.240699 0.13693,1.15491 0.84331,1.779242 1.51497,1.339161 0.19085,-0.125113 0.3927,-0.181656 0.44856,-0.125829 0.19839,0.198392 0.0972,0.587067 -0.20152,0.773573 -0.16664,0.104172 -0.30538,0.273961 -0.30815,0.377453 -0.007,0.253484 -0.46899,0.791615 -0.83472,0.971858 -0.16323,0.08055 -0.55776,0.164312 -0.87674,0.186417 -0.50085,0.03472 -0.65582,-0.03974 -1.13658,-0.54513 -0.30614,-0.321912 -0.81191,-0.753795 -1.12391,-0.959776 -0.312,-0.20598 -0.56772,-0.423882 -0.56829,-0.484255 -0.004,-0.314287 -3.20443,-1.311776 -4.24426,-1.322408 -1.52741,-0.01611 -3.73467,0.09057 -3.88933,0.187241 -0.097,0.06068 -0.19936,0.04689 -0.22732,-0.03061 -0.089,-0.246683 -1.67747,-0.217974 -2.87383,0.05191 l -1.15598,0.260806 -0.10185,0.632977 c -0.24999,1.552892 -0.26347,3.219801 -0.0333,4.11847 0.49594,1.936341 0.69918,2.514315 1.0519,2.991285 0.57069,0.771802 0.61017,1.018699 0.22313,1.396045 -0.1888,0.184072 -0.46555,0.379367 -0.61499,0.434013 -0.20484,0.07482 -0.237,0.165207 -0.13066,0.366802 0.17093,0.323988 0.33077,2.360492 0.42529,5.419936 0.0387,1.25024 0.13067,3.568866 0.20448,5.152509 0.16055,3.442821 0.28389,8.611278 0.38706,16.215228 0.22609,16.66786 0.30978,20.768 0.42788,20.95908 0.0379,0.0614 0.10847,1.23554 0.15679,2.60912 0.0483,1.37356 0.12386,3.38394 0.16807,4.46748 0.0442,1.08355 0.11402,2.85662 0.15537,3.94015 0.18831,4.94688 0.37985,7.60729 0.69515,9.65489 0.23929,1.55395 0.26063,1.75076 0.36627,3.37792 0.054,0.83348 0.15751,1.75411 0.22988,2.04584 0.0723,0.29172 0.17039,1.00777 0.21783,1.59122 0.0474,0.58343 0.1482,1.43587 0.22391,1.89429 0.0757,0.45843 0.18087,1.27677 0.23374,1.81854 0.0528,0.54176 0.15662,1.26337 0.23052,1.60356 0.19641,0.90418 0.30595,2.60948 0.30579,4.76129 -1.3e-4,1.85023 -0.0161,2.04309 -0.24266,2.93084 -0.14283,0.55952 -0.66401,1.11396 -1.16556,1.23984 -0.33358,0.0838 -0.4336,0.0301 -0.61708,-0.33052 z M 127.8166,84.335403 c 0.53348,-0.262648 2.11828,-0.320319 4.45833,-0.162164 1.42587,0.0963 1.9015,0.07249 2.59959,-0.130483 0.46994,-0.136569 1.13839,-0.248383 1.48548,-0.248383 h 0.63105 l -0.28694,-0.416741 c -0.15787,-0.229213 -0.36723,-0.621343 -0.46534,-0.871391 -0.33741,-0.859864 -0.77724,-3.183806 -0.78053,-4.123893 -0.004,-1.023353 0.48035,-2.582295 0.84502,-2.722229 0.11688,-0.04493 0.21252,-0.174157 0.21252,-0.287439 0,-0.344608 0.82421,-1.073774 1.60328,-1.4184 0.73775,-0.326333 1.56148,-0.558052 2.41265,-0.678673 0.25004,-0.03544 0.45463,-0.07446 0.45463,-0.08663 0,-0.04886 1.61448,-0.147308 3.33398,-0.203009 1.82853,-0.05925 3.50903,0.08216 4.44401,0.37398 0.27711,0.08645 0.54064,0.120459 0.5856,0.07553 0.25381,-0.253789 -2.42767,-2.899947 -3.79443,-3.744454 -1.08646,-0.671317 -4.68409,-2.174325 -5.55419,-2.320416 -1.38758,-0.232972 -1.86745,-0.275912 -5.37983,-0.481284 -1.42618,-0.08341 -2.50438,-0.227692 -3.42719,-0.458714 -0.73871,-0.184931 -1.00852,-0.183159 -2.04585,0.01253 -0.65719,0.124576 -1.43358,0.263955 -1.72531,0.309848 -1.46238,0.23009 -3.80022,0.899564 -4.49778,1.288042 -0.43174,0.240418 -1.28045,0.610246 -1.88606,0.821829 -0.60559,0.211583 -1.13889,0.443249 -1.18511,0.514773 -0.0462,0.0716 -0.37763,0.278919 -0.73648,0.460861 -1.28357,0.650805 -3.60721,0.385292 -3.57875,-0.408936 0.009,-0.256581 -0.0736,-0.335784 -0.35093,-0.335784 -0.57931,0 -0.87595,-0.238843 -1.16486,-0.937939 -0.69777,-1.688423 -0.44892,-1.500879 -2.03466,-1.53349 l -1.41167,-0.029 0.0754,0.530399 c 0.0415,0.291735 0.1448,0.841357 0.22978,1.221387 0.0849,0.380047 0.19507,1.046549 0.24475,1.481153 0.0498,0.434604 0.14982,1.11249 0.22268,1.506409 0.0729,0.393937 0.13997,1.398192 0.14946,2.231691 0.009,0.833481 0.0904,1.78821 0.17999,2.121613 0.14337,0.533853 0.19272,1.09826 0.26793,3.06877 0.0161,0.44468 0.0641,0.492524 0.48426,0.492524 0.57888,0 0.8116,-0.228318 1.28358,-1.259296 0.38964,-0.851076 0.80157,-1.161264 1.41536,-1.065827 0.19846,0.03079 0.43714,-0.0054 0.5304,-0.08198 0.33628,-0.273979 1.70385,-0.585241 2.36457,-0.538185 0.37119,0.02649 0.75829,-0.02112 0.86019,-0.105783 0.24523,-0.203492 2.40187,-0.07858 2.68389,0.155363 0.12028,0.09988 0.59147,0.206285 1.04712,0.236624 0.87384,0.05817 1.48186,0.305427 2.03492,0.827592 0.18403,0.173799 0.38411,0.315952 0.44459,0.315952 0.0605,0 0.42848,0.33045 0.81775,0.734303 0.8686,0.901139 1.50703,2.207563 1.5899,3.253308 0.0342,0.43233 0.12351,1.109053 0.1984,1.503867 0.10327,0.544414 0.0877,0.758073 -0.0646,0.884404 -0.11044,0.09164 -0.26055,0.129588 -0.33365,0.08448 -0.073,-0.04528 -0.13299,0.0179 -0.13299,0.138537 0,0.275196 0.094,0.275787 0.64604,0.0036 z m -18.04765,-7.167318 c -0.0553,-0.977245 -0.1235,-1.813644 -0.15125,-1.858624 -0.0277,-0.04493 -0.0949,-0.999995 -0.14892,-2.122257 -0.0977,-2.026426 -0.13657,-2.267525 -0.33356,-2.070475 -0.10865,0.108646 -0.0934,3.13922 0.0222,4.418456 0.0378,0.41674 0.11223,1.235079 0.16593,1.81853 0.0907,0.988056 0.26624,1.591214 0.46318,1.591214 0.0458,0 0.038,-0.799581 -0.0179,-1.776844 z"
         id="path836"
         sodipodi:nodetypes="csssssccscsccsssscscscsscsscscssssssssssssssccccsssssscscssscsssscscssssscsssscscsssscssccsssssssssccsssssssscscscssssssssssscsscssssssssscsssscsccssssssssssssssssscccssssscsscscsssssscsssssscccsscssssssssssscssssscsssscsssssscscsssscssscscsssssssssssssscsssssscscssssssssssssssssssccsssssscsscssscscccssscssssssssscssssscssssssssssssscsssssssssssssssssssssccscssscssscsssscsscscsscscsccsssscsssssssssccssscccsscsssssssssssssssscsssscssssccssscsssssssssssscsssssssssscccssscsssssssssscsssscssssscssscccsscscssscscsssssssscscccscsscscc" />
    </g>
  </g>
</svg>
